<svg xmlns="http://www.w3.org/2000/svg" xmlns:xlink="http://www.w3.org/1999/xlink" xmlns:lucid="lucid" width="1385.67" height="1079"><g transform="translate(0 0)" lucid:page-tab-id="59TJnnviPGXuM"><path d="M0 0h1385.67v1079H0z" fill="#fff"/><path d="M182.05 55.4H28.35C17.78 55.4 9.13 64 9.13 74.63v79.6c0 10.63 8.65 19.26 19.22 19.26h153.7c10.56 0 19.2-8.63 19.2-19.26v-79.6c0-10.63-8.64-19.25-19.2-19.25z" stroke="#000" stroke-width="1.11" fill="#fff"/><use xlink:href="#a" transform="matrix(1,0,0,1,17.971795999681873,64.2442500015697) translate(17.44407226562501 56.055)"/><use xlink:href="#b" transform="matrix(1,0,0,1,17.971795999681873,64.2442500015697) translate(112.58429687499999 56.055)"/><path d="M2088.46 7538.32h36912.4V9513.6H2088.46z" stroke="#000" stroke-opacity="0" stroke-width="1.67" fill-opacity="0"/><use xlink:href="#c" transform="matrix(1,0,0,1,19.651796000000008,8.888799999999998) translate(20.369213867187497 20.1675)"/><use xlink:href="#d" transform="matrix(1,0,0,1,19.651796000000008,8.888799999999998) translate(116.0843017578125 20.1675)"/><path d="M38.1 621.3v-71M38.1 621.3v.56" stroke="#000" stroke-width="1.11" fill="none"/><path d="M38.1 535.47l4.65 14.26h-9.28z" stroke="#000" stroke-width="1.11" fill="#fff"/><path d="M38.1 728.4v-86.63" fill="none"/><path d="M38.1 728.4v-5.78m0-5.78V705.3m0-5.78v-11.55m0-5.78v-11.56m0-5.77v-11.55m0-5.78v-5.77M38.1 728.38v.57M48.3 659.06l-10.2-17.2-10.17 17.2" stroke="#000" stroke-width="1.11" fill="none"/><path d="M7986.54 30805.02h27865.3v1975.27H7986.53z" stroke="#000" stroke-opacity="0" stroke-width="1.67" fill-opacity="0"/><use xlink:href="#e" transform="matrix(1,0,0,1,56.40623700000001,564.4307845715355) translate(0 19.055)"/><path d="M8515.5 35671.48h27865.3v1975.27H8515.5z" stroke="#000" stroke-opacity="0" stroke-width="1.67" fill-opacity="0"/><use xlink:href="#f" transform="matrix(1,0,0,1,59.55623699999999,671.5177845715355) translate(0 19.055)"/><path d="M182.05 196.68H28.35c-10.57 0-19.22 8.62-19.22 19.25v79.6c0 10.64 8.65 19.26 19.22 19.26h153.7c10.56 0 19.2-8.63 19.2-19.26v-79.6c0-10.64-8.64-19.26-19.2-19.26z" stroke="#000" stroke-width="1.11" fill="#a5a5a5"/><use xlink:href="#g" transform="matrix(1,0,0,1,17.971795999681266,205.5392500015699) translate(38.3783935546875 56.055)"/><use xlink:href="#b" transform="matrix(1,0,0,1,17.971795999681266,205.5392500015699) translate(91.64997558593751 56.055)"/><path d="M182.05 405.6H28.35c-10.57 0-19.22 8.63-19.22 19.26v79.6c0 10.63 8.65 19.26 19.22 19.26h153.7c10.56 0 19.2-8.63 19.2-19.26v-79.6c0-10.63-8.64-19.26-19.2-19.26z" stroke="#000" stroke-width="1.11" fill="url(#h)"/><use xlink:href="#i" transform="matrix(1,0,0,1,17.971795999681838,414.46324998063994) translate(68.220244140625 42.723)"/><use xlink:href="#j" transform="matrix(1,0,0,1,17.971795999681838,414.46324998063994) translate(10.630517578124994 69.387)"/><path d="M38.1 829.18v-86.63M38.1 829.16v.57M48.3 759.85l-10.2-17.22-10.17 17.22" stroke="#000" stroke-width="1.11" fill="none"/><path d="M8515.5 40251.64h27865.3v1975.27H8515.5z" stroke="#000" stroke-opacity="0" stroke-width="1.67" fill-opacity="0"/><use xlink:href="#k" transform="matrix(1,0,0,1,59.55623699999999,772.3047845715355) translate(0 19.055)"/><path d="M631.03 892h-153.7c-10.57 0-19.22 8.63-19.22 19.26v79.6c0 10.64 8.66 19.26 19.23 19.26h153.7c10.56 0 19.2-8.62 19.2-19.25v-79.6c0-10.64-8.64-19.26-19.2-19.26z" stroke="#000" stroke-width="1.11" fill="url(#l)"/><use xlink:href="#m" transform="matrix(1,0,0,1,466.95079600003237,900.8662500015716) translate(46.9929833984375 56.055)"/><path d="M866.34 888.07h-153.7c-10.57 0-19.2 8.62-19.2 19.25v79.6c0 10.64 8.63 19.26 19.2 19.26h153.7c10.57 0 19.2-8.62 19.2-19.25v-79.6c0-10.64-8.63-19.26-19.2-19.26z" stroke="#000" stroke-width="1.11" fill="url(#n)"/><use xlink:href="#o" transform="matrix(1,0,0,1,702.265796000039,896.9292500015686) translate(10.580664062500006 33.608999999999995)"/><use xlink:href="#p" transform="matrix(1,0,0,1,702.265796000039,896.9292500015686) translate(25.70842285156249 54.945)"/><use xlink:href="#q" transform="matrix(1,0,0,1,702.265796000039,896.9292500015686) translate(42.294697265625004 76.281)"/><path d="M421.42 604.6h-153.7c-10.57 0-19.22 8.63-19.22 19.26v79.6c0 10.63 8.65 19.26 19.22 19.26h153.7c10.56 0 19.2-8.63 19.2-19.25v-79.6c0-10.64-8.64-19.26-19.2-19.26z" stroke="#000" stroke-width="1.11" fill="url(#r)"/><use xlink:href="#s" transform="matrix(1,0,0,1,257.3417959996802,613.4652500015701) translate(35.0475634765625 56.055)"/><use xlink:href="#t" transform="matrix(1,0,0,1,257.3417959996802,613.4652500015701) translate(76.0156884765625 56.055)"/><path d="M776.85 230.6h-153.7c-10.56 0-19.2 8.6-19.2 19.24v79.6c0 10.64 8.64 19.26 19.2 19.26h153.7c10.57 0 19.22-8.62 19.22-19.25v-79.6c0-10.64-8.65-19.26-19.22-19.26z" stroke="#000" stroke-width="1.11" fill="url(#u)"/><use xlink:href="#v" transform="matrix(1,0,0,1,612.7777960000354,239.4492500015701) translate(4.945322265625009 56.055)"/><use xlink:href="#w" transform="matrix(1,0,0,1,612.7777960000354,239.4492500015701) translate(68.86037109375 56.055)"/><use xlink:href="#x" transform="matrix(1,0,0,1,612.7777960000354,239.4492500015701) translate(115.958525390625 56.055)"/><path d="M700.56 419h-1.1v-25.98h1.1zm0-43.76h-1.1V349.7h1.1zM700.56 419h-1.1 1.1z"/><path d="M710.66 366.72l-.95.57-9.7-16.42-9.7 16.4-.96-.56 10.33-17.46h.66z"/><use xlink:href="#y" transform="matrix(1,0,0,1,659.5335322269165,375.2440000209076) translate(0.005000000000002558 13.335)"/><use xlink:href="#z" transform="matrix(1,0,0,1,659.5335322269165,375.2440000209076) translate(15.058964843750005 13.335)"/><use xlink:href="#A" transform="matrix(1,0,0,1,659.5335322269165,375.2440000209076) translate(66.14173828125001 13.335)"/><path d="M776.85 419.57h-153.7c-10.56 0-19.2 8.62-19.2 19.25v79.6c0 10.63 8.64 19.26 19.2 19.26h153.7c10.57 0 19.22-8.63 19.22-19.25v-79.6c0-10.64-8.65-19.26-19.22-19.26z" stroke="#000" stroke-width="1.11" fill="url(#B)"/><use xlink:href="#C" transform="matrix(1,0,0,1,612.7777960000354,428.42525000157383) translate(49.911528320312506 56.055)"/><use xlink:href="#D" transform="matrix(1,0,0,1,612.7777960000354,428.42525000157383) translate(113.5553369140625 56.055)"/><path d="M448.32 558.17l-.5-1 58.98-29.9h2.45zm155.38-78.8l-59.4 30.12h-2.44l61.33-31.12z"/><path d="M603.4 478.8l-.22-.42.2-.1zM459.36 541.07l-10.25 16.08 19.04 1.23-.08 1.1-20.9-1.35 11.26-17.66z"/><use xlink:href="#E" transform="matrix(1,0,0,1,490.71073535173946,509.48683335424096) translate(0.005000000000002558 13.335)"/><use xlink:href="#F" transform="matrix(1,0,0,1,490.71073535173946,509.48683335424096) translate(28.836728515625005 13.335)"/><path d="M606.46 789.65h153.7c10.57 0 19.2-8.63 19.2-19.26v-79.6c0-10.64-8.63-19.26-19.2-19.26h-153.7c-10.57 0-19.2 8.62-19.2 19.25v79.6c0 10.62 8.63 19.25 19.2 19.25z" stroke="#000" stroke-width="1.11" fill="none"/><use xlink:href="#G" transform="matrix(1,0,0,1,596.0837960000378,680.3942500015697) translate(46.1575634765625 29.391)"/><use xlink:href="#H" transform="matrix(1,0,0,1,596.0837960000378,680.3942500015697) translate(40.5374658203125 56.055)"/><use xlink:href="#I" transform="matrix(1,0,0,1,596.0837960000378,680.3942500015697) translate(31.08203125 82.719)"/><use xlink:href="#J" transform="matrix(1,0,0,1,596.0837960000378,680.3942500015697) translate(92.3172265625 82.719)"/><path d="M683.98 670.6l-1.1-.13 7.1-56.97h1.13zm16.5-132.3l-7.16 57.42h-1.1l7.16-57.56z"/><path d="M700.48 538.3l-.63-.07h.64zM683.58 669.37l11.66-15.08.88.67-12.38 16h-.67l-8.1-18.64 1-.44z"/><use xlink:href="#E" transform="matrix(1,0,0,1,645.8473232425417,595.7170000209077) translate(0.005000000000002558 13.335)"/><use xlink:href="#K" transform="matrix(1,0,0,1,645.8473232425417,595.7170000209077) translate(28.836728515625005 13.335)"/><path d="M586.97 729.86l-.46 1-54.42-24.84h2.67zm-91.17-41.62h-2.67l-51.8-23.65.45-1.02z"/><path d="M586.7 730.95l-.2-.1.2-.4zM461.57 662.55l-18.96 2.02 10.9 15.64-.9.64-11.97-17.18 20.82-2.2z"/><use xlink:href="#E" transform="matrix(1,0,0,1,474.95259277361464,688.2365000209076) translate(0.005000000000002558 13.335)"/><use xlink:href="#L" transform="matrix(1,0,0,1,474.95259277361464,688.2365000209076) translate(28.836728515625005 13.335)"/><path d="M789.46 886.92l-.96.56-23.48-39.73h1.3zm-33.65-56.95h-1.28l-23.37-39.56.95-.56z"/><path d="M731.15 790.42l-.13-.22h.5zM789.5 867.13v20.4h-1.02l-17.33-9.55.53-.98 16.7 9.2v-19.07z"/><use xlink:href="#E" transform="matrix(1,0,0,1,720.0897792972291,829.9685000209076) translate(0.005000000000002558 13.335)"/><use xlink:href="#M" transform="matrix(1,0,0,1,720.0897792972291,829.9685000209076) translate(28.836728515625005 13.335)"/><path d="M555.24 891.56l-.87-.7 32.6-41.14h1.42zm80.13-101.13l-32.9 41.5h-1.4l33.43-42.2z"/><path d="M635.36 790.44l-.3-.24h.5zM558.1 871.4l-2.57 18.9 17.8-6.84.4 1.04-18.1 6.95h-1.38l2.76-20.2z"/><use xlink:href="#E" transform="matrix(1,0,0,1,566.2034697269169,831.9370000209077) translate(0.004999999999999005 13.335)"/><use xlink:href="#N" transform="matrix(1,0,0,1,566.2034697269169,831.9370000209077) translate(28.836728515625 13.335)"/><path d="M421.42 758.15h-153.7c-10.57 0-19.22 8.62-19.22 19.25V857c0 10.64 8.65 19.26 19.22 19.26h153.7c10.56 0 19.2-8.62 19.2-19.25v-79.6c0-10.63-8.64-19.25-19.2-19.25z" stroke="#000" stroke-width="1.11" fill="url(#O)"/><use xlink:href="#P" transform="matrix(1,0,0,1,257.3417959996803,767.0082500015732) translate(58.53154296875 56.055)"/><path d="M255.05 537.68c-.3 0-.56.25-.56.56v43.32c0 .3.24.56.55.56h191c.3 0 .56-.25.56-.56v-43.32c0-.3-.24-.56-.55-.56z" stroke="#000" stroke-width="1.11" fill="#fff"/><use xlink:href="#Q" transform="matrix(1,0,0,1,263.325796,546.5668000209076) translate(54.9999951171875 19.055)"/><path d="M441.78 817.17l-.56-.96 56.58-33.4h2.18zm145.27-85.82L530.08 765h-2.2l58.6-34.6z"/><path d="M586.7 730.77l-.23-.37.22-.13zM451.7 799.4l-9.2 16.7h19.07v1.12l-20.94-.02 10.1-18.34z"/><use xlink:href="#R" transform="matrix(1,0,0,1,470.4641845704896,765.0080000209076) translate(0.005000000000002558 13.335)"/><use xlink:href="#S" transform="matrix(1,0,0,1,470.4641845704896,765.0080000209076) translate(71.79348632812503 13.335)"/><path d="M913.86 789.65h153.7c10.57 0 19.2-8.63 19.2-19.26v-79.6c0-10.64-8.63-19.26-19.2-19.26h-153.7c-10.57 0-19.2 8.62-19.2 19.25v79.6c0 10.62 8.63 19.25 19.2 19.25z" stroke="#000" stroke-width="1.11" fill="none"/><use xlink:href="#T" transform="matrix(1,0,0,1,903.4857960000352,680.3942500015756) translate(17.33015136718751 42.723)"/><use xlink:href="#U" transform="matrix(1,0,0,1,903.4857960000352,680.3942500015756) translate(74.9849755859375 42.723)"/><use xlink:href="#V" transform="matrix(1,0,0,1,903.4857960000352,680.3942500015756) translate(40.5374658203125 69.387)"/><path d="M942.16 670.5l-.63.92-105.64-72.65h1.95zM812 581h-1.96l-61.86-42.55.63-.9z"/><path d="M748.2 538.46l-.34-.23h.48zM942.42 670.98h-7.85l-12.78-.87.07-1.1 19 1.3-8-17.3 1-.46z"/><use xlink:href="#E" transform="matrix(1,0,0,1,778.1368732425415,580.9926200209076) translate(0.005000000000002558 13.335)"/><use xlink:href="#K" transform="matrix(1,0,0,1,778.1368732425415,580.9926200209076) translate(28.836728515625005 13.335)"/><path d="M604.16 477.87l-.97.53-109.53-202.46h1.27zm-118.84-219.7h-1.26l-36.9-68.22.98-.53z"/><path d="M603.4 478.76l-.22-.37.2-.12zM465.12 199.58l-.57.95-16.34-9.8-.72 19.03h-.3V188.8z"/><use xlink:href="#W" transform="matrix(1,0,0,1,461.2514522266581,258.160993354241) translate(0.004999999999999005 13.335)"/><path d="M255.05 169c-.3 0-.56.25-.56.56v43.32c0 .3.24.56.55.56h191c.3 0 .56-.25.56-.56v-43.32c0-.3-.24-.56-.55-.56z" stroke="#000" stroke-width="1.11" fill="#fff"/><use xlink:href="#X" transform="matrix(1,0,0,1,263.325796,177.88780002090763) translate(41.003999023437515 19.055)"/><use xlink:href="#Y" transform="matrix(1,0,0,1,263.325796,177.88780002090763) translate(113.5553369140625 19.055)"/><path d="M603.9 477.84l-.74.82L485.6 371.3h1.64zM467.76 353.52h-1.64l-18.58-16.96.75-.82z"/><path d="M603.4 478.87l-.25-.22.24-.26zM467.66 339.75l-.22 1.08-18.66-3.9 5.07 16.6h-1.16l-5.53-18.06z"/><use xlink:href="#Z" transform="matrix(1,0,0,1,422.41195017457426,353.5201085256853) translate(0.005000000000002558 13.335)"/><path d="M255.05 230.6c-.3 0-.56.24-.56.55v117c0 .3.24.55.55.55h191c.3 0 .56-.25.56-.56v-117c0-.3-.24-.55-.55-.55z" stroke="#000" stroke-width="1.11" fill="#fff"/><use xlink:href="#aa" transform="matrix(1,0,0,1,263.325796,239.44925002090764) translate(20.746865234374994 12.273000000000003)"/><use xlink:href="#ab" transform="matrix(1,0,0,1,263.325796,239.44925002090764) translate(60.9341796875 12.273000000000003)"/><use xlink:href="#ac" transform="matrix(1,0,0,1,263.325796,239.44925002090764) translate(75.98814453125 12.273000000000003)"/><use xlink:href="#ad" transform="matrix(1,0,0,1,263.325796,239.44925002090764) translate(88.52443359375 12.273000000000003)"/><use xlink:href="#ae" transform="matrix(1,0,0,1,263.325796,239.44925002090764) translate(139.4509375 12.273000000000003)"/><use xlink:href="#af" transform="matrix(1,0,0,1,263.325796,239.44925002090764) translate(2.1898583984374795 33.60900000000001)"/><use xlink:href="#ag" transform="matrix(1,0,0,1,263.325796,239.44925002090764) translate(53.333403320312485 33.60900000000001)"/><use xlink:href="#ah" transform="matrix(1,0,0,1,263.325796,239.44925002090764) translate(91.02040527343749 33.60900000000001)"/><use xlink:href="#ai" transform="matrix(1,0,0,1,263.325796,239.44925002090764) translate(138.3266650390625 33.60900000000001)"/><use xlink:href="#aj" transform="matrix(1,0,0,1,263.325796,239.44925002090764) translate(18.732724609374998 54.94500000000001)"/><use xlink:href="#ak" transform="matrix(1,0,0,1,263.325796,239.44925002090764) translate(37.91046875 54.94500000000001)"/><use xlink:href="#al" transform="matrix(1,0,0,1,263.325796,239.44925002090764) translate(98.97712890625 54.94500000000001)"/><use xlink:href="#am" transform="matrix(1,0,0,1,263.325796,239.44925002090764) translate(142.845458984375 54.94500000000001)"/><use xlink:href="#an" transform="matrix(1,0,0,1,263.325796,239.44925002090764) translate(14.552514648437494 76.281)"/><use xlink:href="#ao" transform="matrix(1,0,0,1,263.325796,239.44925002090764) translate(72.8323681640625 76.281)"/><use xlink:href="#ap" transform="matrix(1,0,0,1,263.325796,239.44925002090764) translate(48.9404931640625 97.61700000000002)"/><path d="M603.5 477.97l-.2 1.1-36.52-7.3h5.67zm-120.04-24h-5.67l-30.62-6.1.22-1.1z"/><path d="M603.4 479.08l-.13-.03.12-.56zM466.43 441.25l-18 6.3 14.2 12.73-.75.83-15.03-13.48v-.7l19.2-6.7z"/><use xlink:href="#aq" transform="matrix(1,0,0,1,477.5701542970519,453.9840000209076) translate(0.005000000000002558 13.335)"/><path d="M427.1 388.07H273.4c-10.58 0-19.23 8.62-19.23 19.25v79.6c0 10.64 8.65 19.26 19.22 19.26h153.7c10.55 0 19.2-8.62 19.2-19.25v-79.6c0-10.64-8.65-19.26-19.2-19.26z" stroke="#000" stroke-width="1.11" fill="url(#ar)"/><use xlink:href="#as" transform="matrix(1,0,0,1,263.0107959996816,396.9292500015707) translate(60.3922509765625 56.055)"/><path d="M1087.03 730.1l33.6-65.54" stroke="#000" stroke-width="1.11" fill="none"/><path d="M1087.53 730.34l-.2.4v-.5z"/><path d="M1121.8 684.6l-1.2-19.97-16.9 10.67" stroke="#000" stroke-width="1.11" fill="none"/><path d="M73805.13 28850.4h4719.96v1975.28h-4719.97z" stroke="#000" stroke-opacity="0" stroke-width="1.67" fill-opacity="0"/><use xlink:href="#at" transform="matrix(1,0,0,1,1108.862558,660.5157999790922) translate(15.401081542968749 20.1675)"/><path d="M1087.27 730.35l45.53-22.15" stroke="#000" stroke-width="1.11" fill="none"/><path d="M1087.53 730.84l-.2.1v-.5z"/><path d="M1121.7 724.92l11.02-16.7-19.93-1.6M1087.2 730.95l42.58 36" stroke="#000" stroke-width="1.11" fill="none"/><path d="M1087.57 730.53l-.24.3v-.5z"/><path d="M1110 763.56l19.72 3.34-6.57-18.9M1086.96 731.1l24.35 67.05" stroke="#000" stroke-width="1.11" fill="none"/><path d="M1087.5 730.94l-.17.06v-.5z"/><path d="M1095.84 785.37l15.44 12.7 3.7-19.66" stroke="#000" stroke-width="1.11" fill="none"/><path d="M75983.97 31282.3h4719.96v1975.27h-4719.96z" stroke="#000" stroke-opacity="0" stroke-width="1.67" fill-opacity="0"/><g><use xlink:href="#at" transform="matrix(1,0,0,1,1123.862558,704.9597999790985) translate(15.401081542968749 20.1675)"/></g><path d="M75781.96 34960.2h4719.96v1975.26h-4719.96z" stroke="#000" stroke-opacity="0" stroke-width="1.67" fill-opacity="0"/><g><use xlink:href="#at" transform="matrix(1,0,0,1,1117.9985580000052,758.8888000000001) translate(15.401081542968749 20.1675)"/></g><path d="M73785.13 36975.46h4719.96v1975.27h-4719.97z" stroke="#000" stroke-opacity="0" stroke-width="1.67" fill-opacity="0"/><g><use xlink:href="#at" transform="matrix(1,0,0,1,1088.862558,798.8888) translate(15.401081542968749 20.1675)"/></g><path d="M892.4 15H738.7c-10.57 0-19.2 8.62-19.2 19.25v79.6c0 10.64 8.63 19.26 19.2 19.26h153.7c10.57 0 19.2-8.6 19.2-19.24v-79.6c0-10.64-8.63-19.26-19.2-19.26z" stroke="#000" stroke-width="1.11" fill="#a5a5a5"/><g><use xlink:href="#au" transform="matrix(1,0,0,1,728.3257960000326,23.8582500015723) translate(58.189780273437506 56.055)"/></g><path d="M796.62 478.62h66.4c.3 0 .56-.25.56-.56V134.12" fill="none"/><path d="M796.62 478.62h5.53m5.54 0h11.05m5.54 0h11.05m5.54 0h11.06m5.53 0H863l.4-.16.16-.4v-5.46m0-5.46v-10.9m0-5.47v-10.92m0-5.46v-10.93m0-5.46v-10.9m0-5.47V390.7m0-5.45v-10.92m0-5.46v-10.9m0-5.47v-10.92m0-5.46V325.2m0-5.46v-10.92m0-5.46v-10.92m0-5.46v-10.92m0-5.45v-10.9m0-5.47V243.3m0-5.45v-10.92m0-5.46v-10.92m0-5.46v-10.93m0-5.46v-10.9m0-5.46v-10.92m0-5.46v-10.92m0-5.46v-5.46" stroke="#000" stroke-width="1.11" fill="none"/><path d="M796.64 479.18h-.02v-1.1h.02zM874.24 151.13l-.95.57-9.72-16.4-9.7 16.4-.96-.57 10.33-17.47h.66z"/><path d="M1106.9 15H953.2c-10.58 0-19.22 8.62-19.22 19.25v79.6c0 10.64 8.64 19.26 19.2 19.26h153.7c10.58 0 19.22-8.6 19.22-19.24v-79.6c0-10.64-8.64-19.26-19.2-19.26z" stroke="#000" stroke-width="1.11" fill="#a5a5a5"/><g><use xlink:href="#G" transform="matrix(1,0,0,1,942.8137960000314,23.85825000157566) translate(46.1575634765625 42.723)"/><use xlink:href="#V" transform="matrix(1,0,0,1,942.8137960000314,23.85825000157566) translate(40.5374658203125 69.387)"/></g><path d="M1029.48 628h-145.1c0-2.76-2.25-5-5-5-2.77 0-5 2.24-5 5H838.2c-.3 0-.56.25-.56.56v101.47c0 .3-.25.56-.56.56h-57.15" fill="none"/><path d="M1029.48 628h-5.37m-5.36 0H1008m-5.4 0h-10.74m-5.37 0h-10.76m-5.38 0h-10.74m-5.38 0H943.5m-5.38 0h-10.75m-5.38 0h-10.75m-5.38 0h-10.75m-5.37 0h-5.38l-.96-2.95-2.45-1.8-1.58-.25-2.95.96-1.8 2.46-.25 1.58h-6.03m-6.02 0h-12.06m-6.03 0h-6.03l-.4.16-.16.4v5.64m0 5.63v11.28m0 5.65v11.27m0 5.64v11.27m0 5.64v11.27m0 5.64v11.28m0 5.63v5.63l-.16.4-.4.16h-6.35m-6.35 0h-12.7m-6.35 0h-12.7m-6.35 0h-6.35M1029.47 628h.57" stroke="#000" stroke-width="1.11" fill="none"/><path d="M779.94 731.15v-1.1z"/><path d="M1321.38 15h-153.7c-10.57 0-19.22 8.62-19.22 19.25v79.6c0 10.64 8.65 19.26 19.22 19.26h153.7c10.56 0 19.2-8.6 19.2-19.24v-79.6c0-10.64-8.64-19.26-19.2-19.26z" stroke="#000" stroke-width="1.11" fill="#a5a5a5"/><g><use xlink:href="#av" transform="matrix(1,0,0,1,1157.3017960000334,23.858250001571385) translate(23.9050146484375 56.055)"/><use xlink:href="#aw" transform="matrix(1,0,0,1,1157.3017960000334,23.858250001571385) translate(111.61325683593749 56.055)"/></g><path d="M1245.08 1033.3l-.3.7-.7.3h-5.72v-1.1h5.5l.08-.05.03-.08v-5.44h1.1zm-12.32 1h-11.2v-1.1h11.2zm-16.8 0h-11.22v-1.1h11.2zm-16.82 0h-11.2v-1.1h11.2zm-16.8 0h-11.22v-1.1h11.2zm-16.82 0h-11.2v-1.1h11.2zm-16.8 0h-11.22v-1.1h11.2zm-16.82 0h-11.2v-1.1h11.2zm-16.8 0h-11.22v-1.1h11.2zm-16.82 0h-11.2v-1.1h11.2zm-16.8 0h-11.22v-1.1h11.2zm-16.83 0h-11.2v-1.1h11.2zm-16.8 0h-11.2v-1.1h11.2zm-16.82 0h-11.2v-1.1h11.2zm-16.8 0h-11.2v-1.1h11.2zm-16.82 0h-11.2v-1.1h11.2zm-16.8 0h-11.2v-1.1h11.2zm-16.8 0h-11.22v-1.1h11.2zm-16.82 0h-11.2v-1.1h11.2zm-16.8 0h-11.22v-1.1h11.2zm-16.82 0h-11.2v-1.1h11.2zm-16.8 0h-11.22v-1.1h11.2zm-16.82 0h-11.2v-1.1h11.2zm-16.8 0H851.7v-1.1h11.2zm-16.82 0h-11.2v-1.1h11.2zm-16.8 0H818.1v-1.1h11.2zm-16.82 0h-11.2v-1.1h11.2zm-16.8 0h-11.22v-1.1h11.2zm-16.82 0h-11.2v-1.1h11.2zm-16.82 0h-11.2v-1.1h11.2zm-16.8 0h-11.2v-1.1h11.2zm-16.82 0h-11.2v-1.1h11.2zm-16.8 0h-11.2v-1.1h11.2zm-16.82 0h-11.2v-1.1h11.2zm-16.8 0h-11.2v-1.1H678zm-16.82 0H650v-1.1h11.2zm-16.8 0h-11.22v-1.1h11.2zm-16.82 0h-11.2v-1.1h11.2zm-16.8 0h-11.22v-1.1h11.2zm-16.82 0h-11.2v-1.1h11.2zm-16.8 0h-11.22v-1.1h11.2zm-22.43-1.23l.03.08.1.04h5.48v1.1h-5.72l-.7-.3-.3-.7v-7.62h1.1zm690.35-11h-1.1v-11.1h1.1zm-690.35-3.9h-1.1v-7.5h1.1zm690.35-12.74h-1.1v-11.1h1.1zm0-16.65h-1.1v-11.1h1.1zm0-16.65h-1.1v-11.1h1.1zm0-16.65h-1.1v-11.1h1.1zm0-16.64h-1.1v-11.1h1.1zm0-16.65h-1.1v-11.1h1.1zm0-16.66h-1.1v-11.1h1.1zm0-16.65h-1.1v-11.1h1.1zm0-16.66h-1.1v-11.1h1.1zm0-16.65h-1.1v-11.1h1.1zm0-16.66h-1.1v-11.1h1.1zm0-16.65h-1.1v-11.1h1.1zm0-16.66h-1.1v-11.1h1.1zm0-16.65h-1.1v-11.1h1.1zm0-16.66h-1.1v-11.1h1.1zm0-16.65h-1.1v-11.1h1.1zm0-16.66h-1.1v-11.1h1.1zm0-16.65h-1.1v-11.1h1.1zm0-16.65h-1.1v-11.1h1.1zm0-16.65h-1.1V678h1.1zm0-16.65h-1.1v-11.1h1.1zm0-16.65h-1.1v-11.1h1.1zm0-16.65h-1.1v-11.1h1.1zm0-16.65h-1.1v-11.1h1.1zm0-16.65h-1.1v-11.1h1.1zm0-16.65h-1.1v-11.1h1.1zm0-16.65h-1.1v-11.1h1.1zm0-16.65h-1.1v-11.1h1.1zm0-16.65h-1.1v-11.1h1.1zm0-16.65h-1.1v-11.1h1.1zm0-16.65h-1.1v-11.1h1.1zm0-16.65h-1.1v-11.1h1.1zm0-16.64h-1.1v-11.1h1.1zm0-16.65h-1.1v-11.1h1.1zm0-16.64h-1.1v-11.1h1.1zm0-16.65h-1.1v-11.1h1.1zm0-16.64h-1.1v-11.1h1.1zm0-16.65h-1.1v-11.1h1.1zm0-16.64h-1.1v-11.1h1.1zm0-16.65h-1.1V345h1.1zm0-16.64h-1.1v-11.1h1.1zm0-16.65h-1.1v-11.1h1.1zm0-16.64h-1.1v-11.1h1.1zm0-16.65h-1.1v-11.1h1.1zm0-16.64h-1.1v-11.1h1.1zm0-16.65h-1.1v-11.08h1.1zm0-16.63h-1.1v-11.1h1.1zm0-16.65h-1.1v-11.1h1.1zm0-16.65h-1.1v-11.1h1.1zm0-16.65h-1.1v-11.1h1.1zm0-16.65h-1.1v-11.1h1.1zm0-16.65h-1.1v-11.1h1.1zm0-16.65h-1.1v-5.55h1.1z"/><path d="M1255.2 151.13l-.97.57-9.7-16.4-9.7 16.4-.96-.57 10.33-17.47h.65zM554.73 1010.7h-1.1l1.1-.03z"/><path d="M1030.04 670.43v-536.3" fill="none"/><path d="M1030.04 670.43v-5.6m0-5.58v-11.17m0-5.6v-11.16m0-5.6v-11.16m0-5.6V597.8m0-5.6v-11.16m0-5.58v-11.18m0-5.58v-11.18m0-5.58v-11.18m0-5.58V514m0-5.58v-11.18m0-5.58v-11.18m0-5.58v-11.18m0-5.58v-11.17m0-5.6v-11.16m0-5.58v-11.17m0-5.6V396.7m0-5.6v-11.17m0-5.6v-11.16m0-5.6v-11.16m0-5.58v-11.17m0-5.6V312.9m0-5.6v-11.17m0-5.6v-11.16m0-5.6v-11.16m0-5.58v-11.17m0-5.6V229.1m0-5.6v-11.17m0-5.6v-11.16m0-5.58v-11.2m0-5.57v-11.18m0-5.58V145.3m0-5.6v-5.58" stroke="#000" stroke-width="1.11" fill="none"/><path d="M1030.6 670.98h-1.12v-.57h1.1zM1040.7 151.13l-.96.57-9.7-16.4-9.7 16.4-.96-.57 10.33-17.47h.67z"/><path d="M677.9 15H524.2c-10.55 0-19.2 8.62-19.2 19.25v79.6c0 10.64 8.65 19.26 19.2 19.26h153.7c10.58 0 19.23-8.6 19.23-19.24v-79.6c0-10.64-8.65-19.26-19.22-19.26z" stroke="#000" stroke-width="1.11" fill="#fff"/><g><use xlink:href="#ax" transform="matrix(1,0,0,1,513.8377960000322,23.85825000156988) translate(29.704130859375 56.055)"/></g><path d="M649.1 229.48v-95.36" fill="none"/><path d="M649.1 229.48v-5.3m0-5.3v-10.6m0-5.3V192.4m0-5.3v-10.6m0-5.3v-10.6m0-5.3v-10.58m0-5.3v-5.3" stroke="#000" stroke-width="1.11" fill="none"/><path d="M649.65 230.04h-1.1v-.57h1.1zM659.75 151.13l-.95.57-9.7-16.4-9.7 16.4-.96-.57 10.33-17.47h.65z"/><path d="M11.37 337.98c-.3 0-.56.25-.56.56v43.32c0 .3.26.56.57.56h191c.32 0 .57-.25.57-.56v-43.32c0-.3-.25-.56-.56-.56z" stroke="#000" stroke-width="1.11" fill="#fff"/><g><use xlink:href="#ay" transform="matrix(1,0,0,1,19.65179600000002,346.8648000000001) translate(26.41669921875001 19.055)"/><use xlink:href="#az" transform="matrix(1,0,0,1,19.65179600000002,346.8648000000001) translate(66.636201171875 19.055)"/></g><defs><path d="M575-854c-119 2-197 63-259 134V0H140v-978c55 7 141-23 150 36l15 104c78-83 170-155 321-155 223 0 325 146 325 370V0H775v-623c0-140-61-233-200-231" id="aA"/><path d="M75-490c0-310 160-503 466-503s464 194 464 503c0 310-158 504-464 504C234 14 75-180 75-490zm181 1c0 215 74 366 285 366 210 0 283-152 283-366s-74-367-283-367c-211 0-285 152-285 367" id="aB"/><path d="M75-653h478v149H75v-149" id="aC"/><path d="M994-906c0 279-183 411-470 416H329V0H147v-1314h377c290 3 470 124 470 408zm-182 0c0-176-103-265-288-265H329v537h195c180-4 288-94 288-272" id="aD"/><path d="M969-949c0 213-127 324-301 372 24 16 43 33 61 57L1082 0c-87-8-195 23-235-37L536-505c-21-29-36-41-85-41H329V0H147v-1314h360c275 2 462 97 462 365zM500-679c179-3 292-82 292-257 0-157-95-235-285-235H329v492h171" id="aE"/><path d="M1240-928c58 159 58 383 0 542-85 230-258 400-561 400S201-157 116-386c-59-159-59-383 0-542 86-230 259-401 563-401s477 171 561 401zm-172 486c38-122 39-308 0-430-56-173-170-300-389-300-293 0-420 215-420 515 0 237 85 404 247 479 99 47 246 46 346 0 107-49 178-142 216-264" id="aF"/><path d="M882-1314v148H321v455h477v148H321V0H138v-1314h744" id="aG"/><g id="a"><use transform="matrix(0.010849609375,0,0,0.010849609375,0,0)" xlink:href="#aA"/><use transform="matrix(0.010849609375,0,0,0.010849609375,11.674179687499999,0)" xlink:href="#aB"/><use transform="matrix(0.010849609375,0,0,0.010849609375,23.391757812499993,0)" xlink:href="#aA"/><use transform="matrix(0.010849609375,0,0,0.010849609375,35.0659375,0)" xlink:href="#aC"/><use transform="matrix(0.010849609375,0,0,0.010849609375,41.868642578125,0)" xlink:href="#aD"/><use transform="matrix(0.010849609375,0,0,0.010849609375,53.347529296874995,0)" xlink:href="#aE"/><use transform="matrix(0.010849609375,0,0,0.010849609375,65.19530273437499,0)" xlink:href="#aF"/><use transform="matrix(0.010849609375,0,0,0.010849609375,79.907373046875,0)" xlink:href="#aG"/></g><path d="M1052-184C961-66 832 17 628 14c-289-4-447-172-522-398-53-160-53-388 3-546 81-226 241-394 534-399 180-3 301 72 392 167-25 33-46 70-75 99-51 21-73-33-114-51-77-60-256-80-362-23-152 81-231 248-231 480 0 233 83 400 235 481 113 60 301 37 376-30 33-15 74-101 116-56" id="aH"/><path d="M323-1422V0H147v-1422h176" id="aI"/><path d="M514-995c228 0 341 142 341 370V0c-56-5-123 17-137-41l-22-91C610-53 522 18 358 15 189 12 84-73 84-244c0-178 154-235 319-276 76-19 169-27 280-30 12-176-30-304-190-304-107 0-171 42-231 86-34 25-81 14-98-16l-32-56c98-93 207-155 382-155zM253-253c0 98 61 145 158 145 133 0 205-61 272-130v-202c-134 6-246 19-333 58-57 26-97 59-97 129" id="aJ"/><path d="M95-709c0-188 136-281 332-284 128-2 226 47 291 114-25 33-46 112-108 74-47-29-100-60-179-58-97 2-169 47-169 140 0 121 140 131 235 168 118 46 235 94 235 255C732-91 595 11 381 15 247 17 139-38 70-104c26-39 56-126 124-80 51 35 104 76 195 74 109-2 179-54 179-159 0-126-138-136-236-173C209-488 95-543 95-709" id="aK"/><g id="b"><use transform="matrix(0.010849609375,0,0,0.010849609375,0,0)" xlink:href="#aH"/><use transform="matrix(0.010849609375,0,0,0.010849609375,11.847773437499999,0)" xlink:href="#aI"/><use transform="matrix(0.010849609375,0,0,0.010849609375,16.94708984375,0)" xlink:href="#aJ"/><use transform="matrix(0.010849609375,0,0,0.010849609375,27.590556640625,0)" xlink:href="#aK"/><use transform="matrix(0.010849609375,0,0,0.010849609375,36.28109375,0)" xlink:href="#aK"/></g><path d="M913-1314v148H328v431h471v143H328v444h586L913 0H145v-1314h768" id="aL"/><path d="M544 14C232 14 75-190 75-509c0-226 105-376 267-447 57-25 122-37 193-37 265 0 410 167 410 437 0 47-2 68-42 68H249c7 217 94 359 310 364 110 2 183-39 248-80 70-44 93 39 123 67C847-42 716 14 544 14zm243-610c-5-164-86-266-249-269-173-3-262 113-284 269h533" id="aM"/><path d="M545-854c-104 0-170 61-222 126V0H147v-978c54 8 140-23 149 36l15 100c68-77 143-150 284-151 143-1 221 88 255 203 52-123 153-201 320-203 220-2 335 143 335 370V0h-176v-623c1-143-65-231-201-231-139 0-216 89-216 231V0H736v-623c1-145-55-231-191-231" id="aN"/><path d="M650-73c-53 51-136 87-233 88-153 0-235-95-235-251v-596c-55-8-148 24-148-39v-70l154-20 41-301c4-50 80-28 129-33v335h269v128H358v584c-2 72 34 118 99 120 56 2 78-32 116-46 15 0 19 7 25 17" id="aO"/><g id="c"><use transform="matrix(0.0130224609375,0,0,0.0130224609375,0,0)" xlink:href="#aL"/><use transform="matrix(0.0130224609375,0,0,0.0130224609375,13.0224609375,0)" xlink:href="#aI"/><use transform="matrix(0.0130224609375,0,0,0.0130224609375,19.143017578125,0)" xlink:href="#aM"/><use transform="matrix(0.0130224609375,0,0,0.0130224609375,32.4129052734375,0)" xlink:href="#aN"/><use transform="matrix(0.0130224609375,0,0,0.0130224609375,53.7176513671875,0)" xlink:href="#aM"/><use transform="matrix(0.0130224609375,0,0,0.0130224609375,66.9875390625,0)" xlink:href="#aA"/><use transform="matrix(0.0130224609375,0,0,0.0130224609375,80.7522802734375,0)" xlink:href="#aO"/><path d="M-1.33.08h98.38V2.6H-1.33z"/></g><path d="M306-740c60 2 107 0 133-38l339-494c22-28 41-41 86-42h156L620-750c-21 29-44 49-67 61 31 11 60 31 83 65L1049 0c-85-7-198 21-238-38L463-558c-23-30-38-42-90-42h-67V0H124v-1314h182v574" id="aP"/><path d="M409 288c-14 65-120 35-192 42L385-58 11-978h152c30-1 46 16 53 36 86 232 175 459 256 696 80-235 169-463 250-696 20-58 122-29 191-36" id="aQ"/><g id="d"><use transform="matrix(0.0130224609375,0,0,0.0130224609375,0,0)" xlink:href="#aP"/><use transform="matrix(0.0130224609375,0,0,0.0130224609375,13.3740673828125,0)" xlink:href="#aM"/><use transform="matrix(0.0130224609375,0,0,0.0130224609375,26.4746630859375,0)" xlink:href="#aQ"/><path d="M-1.33.08h41.2V2.6h-41.2z"/></g><path d="M536-823c-141 7-187 99-229 205V0H131v-978c60 8 148-26 154 48l12 144c58-123 149-234 328-202 18 3 34 11 49 21l-14 130c-12 52-78 12-124 14" id="aR"/><path d="M492-995c127 0 201 45 264 114v-541h176V0c-55-7-141 23-150-36l-18-117C688-64 595 14 440 14 170 14 74-204 74-486c0-228 88-392 242-470 52-26 111-39 176-39zM255-486c2 201 49 359 242 359 130 0 195-67 259-146v-473c-54-73-114-114-224-114-197 0-279 159-277 374" id="aS"/><path d="M523-1269c-167-5-192 134-183 309h263v128H346V0H170v-831c-44-9-102-4-133-26-23-17-9-67-13-103h146c-18-271 76-439 324-444 44 0 83 8 117 19-9 39 11 106-29 113-15 2-34 3-59 3" id="aT"/><path d="M271-232c74 0 125 50 125 125 0 74-52 123-125 123S149-34 149-107c0-74 48-125 122-125zm-6-678c74 0 125 50 125 125 0 74-52 123-125 123s-122-50-122-123c0-74 48-125 122-125" id="aU"/><path d="M450 15c-223 0-325-146-325-370v-623h176v623c0 141 61 233 200 231 119-1 195-63 259-133v-721h176V0c-55-7-141 23-150-36l-16-104C692-57 602 15 450 15" id="aV"/><path d="M586 14c-139 0-211-58-275-138-12 47 7 124-53 124H144v-1422h176v583c74-85 165-154 314-154 264 0 368 206 368 479 0 238-85 409-243 490-51 25-109 38-173 38zm235-522c0-208-63-346-246-346-127 0-194 66-255 146v472c53 73 113 114 222 114 204 0 279-159 279-386" id="aW"/><g id="e"><use transform="matrix(0.010849609375,0,0,0.010849609375,0,0)" xlink:href="#aR"/><use transform="matrix(0.010849609375,0,0,0.010849609375,7.44283203125,0)" xlink:href="#aS"/><use transform="matrix(0.010849609375,0,0,0.010849609375,19.11701171875,0)" xlink:href="#aT"/><use transform="matrix(0.010849609375,0,0,0.010849609375,25.605078125,0)" xlink:href="#aK"/><use transform="matrix(0.010849609375,0,0,0.010849609375,34.295615234375,0)" xlink:href="#aU"/><use transform="matrix(0.010849609375,0,0,0.010849609375,40.241201171875,0)" xlink:href="#aK"/><use transform="matrix(0.010849609375,0,0,0.010849609375,48.93173828125,0)" xlink:href="#aV"/><use transform="matrix(0.010849609375,0,0,0.010849609375,60.60591796875,0)" xlink:href="#aW"/><use transform="matrix(0.010849609375,0,0,0.010849609375,72.28009765624999,0)" xlink:href="#aH"/><use transform="matrix(0.010849609375,0,0,0.010849609375,84.12787109374999,0)" xlink:href="#aI"/><use transform="matrix(0.010849609375,0,0,0.010849609375,89.22718749999997,0)" xlink:href="#aJ"/><use transform="matrix(0.010849609375,0,0,0.010849609375,99.87065429687499,0)" xlink:href="#aK"/><use transform="matrix(0.010849609375,0,0,0.010849609375,108.56119140624999,0)" xlink:href="#aK"/><use transform="matrix(0.010849609375,0,0,0.010849609375,117.25172851562499,0)" xlink:href="#aF"/><use transform="matrix(0.010849609375,0,0,0.010849609375,131.963798828125,0)" xlink:href="#aT"/></g><path d="M581 14c-127 0-201-47-264-114v430H141V-978c55 7 141-23 150 36l17 114c76-89 171-167 326-167 271 0 368 217 368 499 0 229-91 393-245 471-52 26-111 39-176 39zm240-510c-2-202-50-358-245-358-128 0-197 66-259 146v472c53 73 114 114 225 114 198 0 281-159 279-374" id="aX"/><g id="f"><use transform="matrix(0.010849609375,0,0,0.010849609375,0,0)" xlink:href="#aR"/><use transform="matrix(0.010849609375,0,0,0.010849609375,7.44283203125,0)" xlink:href="#aS"/><use transform="matrix(0.010849609375,0,0,0.010849609375,19.11701171875,0)" xlink:href="#aT"/><use transform="matrix(0.010849609375,0,0,0.010849609375,25.898017578125,0)" xlink:href="#aU"/><use transform="matrix(0.010849609375,0,0,0.010849609375,31.843603515625,0)" xlink:href="#aO"/><use transform="matrix(0.010849609375,0,0,0.010849609375,39.286435546875,0)" xlink:href="#aQ"/><use transform="matrix(0.010849609375,0,0,0.010849609375,49.3440234375,0)" xlink:href="#aX"/><use transform="matrix(0.010849609375,0,0,0.010849609375,61.018203125,0)" xlink:href="#aM"/></g><g id="g"><use transform="matrix(0.010849609375,0,0,0.010849609375,0,0)" xlink:href="#aD"/><use transform="matrix(0.010849609375,0,0,0.010849609375,11.47888671875,0)" xlink:href="#aE"/><use transform="matrix(0.010849609375,0,0,0.010849609375,23.32666015625,0)" xlink:href="#aF"/><use transform="matrix(0.010849609375,0,0,0.010849609375,38.03873046875,0)" xlink:href="#aG"/></g><linearGradient gradientUnits="userSpaceOnUse" id="h" x1="9.13" y1="405.6" x2="9.13" y2="523.72"><stop offset="0%" stop-color="#fff"/><stop offset="12.18%" stop-color="#fff"/><stop offset="100%" stop-color="#dbdbdb"/></linearGradient><path d="M21-978c68 8 173-25 191 37 66 230 131 458 192 691 6 21 9 43 12 64 75-256 159-506 233-760 13-43 73-33 125-34 27 0 43 14 50 34 75 254 156 502 227 760 7-43 18-87 31-132l179-624c15-59 116-29 182-36L1136 0H996c-17 0-28-11-35-33-73-235-147-469-219-705-4-15-7-30-10-45-7 32-14 62-23 92L501-33C485 26 391-10 329 0" id="aY"/><g id="i"><use transform="matrix(0.010849609375,0,0,0.010849609375,0,0)" xlink:href="#aB"/><use transform="matrix(0.010849609375,0,0,0.010849609375,11.63078125,0)" xlink:href="#aY"/><use transform="matrix(0.010849609375,0,0,0.010849609375,27.514609375,0)" xlink:href="#aI"/><use transform="matrix(0.010849609375,0,0,0.010849609375,32.613925781249996,0)" xlink:href="#aU"/></g><path d="M304-1012c2 28 4 55 4 84V0H148v-1314c60 5 126-11 157 31l714 983c-2-29-5-61-5-91v-923h160V0c-61-3-126 10-156-32" id="aZ"/><path d="M349 0H167v-1314h182V0" id="ba"/><path d="M323-978V0H147v-978h176zm-91-431c74 0 125 50 125 125 0 74-52 123-125 123s-122-50-122-123c0-74 48-125 122-125" id="bb"/><path d="M542 0H383L19-978h145c26-1 46 18 53 36 77 231 156 461 231 694 7 22 12 44 17 67 10-48 25-91 40-135l212-626c18-58 121-29 189-36" id="bc"/><g id="j"><use transform="matrix(0.010849609375,0,0,0.010849609375,0,0)" xlink:href="#aZ"/><use transform="matrix(0.010849609375,0,0,0.010849609375,14.34318359375,0)" xlink:href="#aJ"/><use transform="matrix(0.010849609375,0,0,0.010849609375,24.986650390625005,0)" xlink:href="#aN"/><use transform="matrix(0.010849609375,0,0,0.010849609375,42.736611328125,0)" xlink:href="#aM"/><use transform="matrix(0.010849609375,0,0,0.010849609375,53.792363281250005,0)" xlink:href="#aS"/><use transform="matrix(0.010849609375,0,0,0.010849609375,65.46654296875,0)" xlink:href="#ba"/><use transform="matrix(0.010849609375,0,0,0.010849609375,71.06494140625,0)" xlink:href="#aA"/><use transform="matrix(0.010849609375,0,0,0.010849609375,82.73912109375,0)" xlink:href="#aS"/><use transform="matrix(0.010849609375,0,0,0.010849609375,94.41330078125,0)" xlink:href="#bb"/><use transform="matrix(0.010849609375,0,0,0.010849609375,99.5126171875,0)" xlink:href="#bc"/><use transform="matrix(0.010849609375,0,0,0.010849609375,109.548505859375,0)" xlink:href="#bb"/><use transform="matrix(0.010849609375,0,0,0.010849609375,114.647822265625,0)" xlink:href="#aS"/><use transform="matrix(0.010849609375,0,0,0.010849609375,126.322001953125,0)" xlink:href="#aV"/><use transform="matrix(0.010849609375,0,0,0.010849609375,137.996181640625,0)" xlink:href="#aJ"/><use transform="matrix(0.010849609375,0,0,0.010849609375,148.6396484375,0)" xlink:href="#aI"/></g><g id="k"><use transform="matrix(0.010849609375,0,0,0.010849609375,0,0)" xlink:href="#aR"/><use transform="matrix(0.010849609375,0,0,0.010849609375,7.44283203125,0)" xlink:href="#aS"/><use transform="matrix(0.010849609375,0,0,0.010849609375,19.11701171875,0)" xlink:href="#aT"/><use transform="matrix(0.010849609375,0,0,0.010849609375,25.898017578125,0)" xlink:href="#aU"/><use transform="matrix(0.010849609375,0,0,0.010849609375,31.843603515625,0)" xlink:href="#aX"/><use transform="matrix(0.010849609375,0,0,0.010849609375,43.517783203125,0)" xlink:href="#aR"/><use transform="matrix(0.010849609375,0,0,0.010849609375,50.90636718750001,0)" xlink:href="#aB"/><use transform="matrix(0.010849609375,0,0,0.010849609375,62.6239453125,0)" xlink:href="#aX"/><use transform="matrix(0.010849609375,0,0,0.010849609375,74.298125,0)" xlink:href="#aM"/><use transform="matrix(0.010849609375,0,0,0.010849609375,85.353876953125,0)" xlink:href="#aR"/><use transform="matrix(0.010849609375,0,0,0.010849609375,93.10049804687499,0)" xlink:href="#aO"/><use transform="matrix(0.010849609375,0,0,0.010849609375,100.543330078125,0)" xlink:href="#aQ"/></g><linearGradient gradientUnits="userSpaceOnUse" id="l" x1="458.11" y1="892.01" x2="458.11" y2="1010.12"><stop offset="0%" stop-color="#fff"/><stop offset="12.18%" stop-color="#fff"/><stop offset="100%" stop-color="#dbdbdb"/></linearGradient><path d="M6-1314h147c33-1 53 19 61 42 117 329 232 658 348 988 8 24 15 50 21 77 10-51 26-100 41-144l324-920c17-66 131-36 208-43L663 0H499" id="bd"/><g id="m"><use transform="matrix(0.010849609375,0,0,0.010849609375,0,0)" xlink:href="#bd"/><use transform="matrix(0.010849609375,0,0,0.010849609375,11.370390624999999,0)" xlink:href="#aJ"/><use transform="matrix(0.010849609375,0,0,0.010849609375,22.013857421875,0)" xlink:href="#aI"/><use transform="matrix(0.010849609375,0,0,0.010849609375,27.113173828125,0)" xlink:href="#bb"/><use transform="matrix(0.010849609375,0,0,0.010849609375,32.212490234375,0)" xlink:href="#aS"/><use transform="matrix(0.010849609375,0,0,0.010849609375,43.886669921875,0)" xlink:href="#aJ"/><use transform="matrix(0.010849609375,0,0,0.010849609375,54.323994140625004,0)" xlink:href="#aO"/><use transform="matrix(0.010849609375,0,0,0.010849609375,61.549833984375006,0)" xlink:href="#aB"/><use transform="matrix(0.010849609375,0,0,0.010849609375,73.267412109375,0)" xlink:href="#aR"/></g><linearGradient gradientUnits="userSpaceOnUse" id="n" x1="693.43" y1="888.07" x2="693.43" y2="1006.18"><stop offset="0%" stop-color="#fff"/><stop offset="12.18%" stop-color="#fff"/><stop offset="100%" stop-color="#dbdbdb"/></linearGradient><path d="M93-685l747-388c-7 65 19 149-35 176L377-680c-25 13-55 23-88 31 33 7 62 17 88 30l429 218c55 18 27 111 34 176L93-613v-72" id="be"/><path d="M576-854c-119 2-194 64-257 135V0H143v-1422h176v573c76-79 163-144 308-144 223 0 324 146 324 370V0H775v-623c0-140-60-233-199-231" id="bf"/><path d="M159 20C138 82 73 94-12 87l646-1445c23-68 82-67 166-64" id="bg"/><path d="M327-502L36-978h168c28 0 37 9 47 26l204 355c6-16 13-28 21-43l171-308c11-15 20-29 43-30h161L559-511 864 0H695c-27 1-44-19-53-36L435-406c-5 15-11 28-18 39L230-36c-11 17-23 37-50 36H23" id="bh"/><path d="M256-232c74 0 125 50 125 125 0 74-52 123-125 123S134-34 134-107c0-74 48-125 122-125" id="bi"/><path d="M107-679c0-208 143-315 355-315 85 0 156 21 210 54h256c-2 50 12 98-40 106l-104 15c21 43 31 89 31 140 0 207-143 315-353 315-43 0-82-5-118-15-46 21-87 104-30 135 178 96 598-48 598 268 0 166-119 253-254 300-155 54-396 24-493-50-56-42-101-97-101-181 0-110 73-167 160-201-52-25-92-64-89-140 3-77 56-136 120-167-84-50-148-136-148-264zm369 904c144 0 274-38 274-172C750-83 557-56 422-70c-32-3-63-4-93-9C273-48 218-8 218 71c0 125 123 154 258 154zM268-675c2 124 69 192 194 195 124 3 196-76 196-195 0-121-71-194-196-194-123 0-196 74-194 194" id="bj"/><g id="o"><use transform="matrix(0.008681640625,0,0,0.008681640625,0,0)" xlink:href="#be"/><use transform="matrix(0.008681640625,0,0,0.008681640625,8.855273437500001,0)" xlink:href="#bf"/><use transform="matrix(0.008681640625,0,0,0.008681640625,18.031767578125002,0)" xlink:href="#aO"/><use transform="matrix(0.008681640625,0,0,0.008681640625,23.735605468750002,0)" xlink:href="#aO"/><use transform="matrix(0.008681640625,0,0,0.008681640625,29.691210937500003,0)" xlink:href="#aX"/><use transform="matrix(0.008681640625,0,0,0.008681640625,39.03265625,0)" xlink:href="#aU"/><use transform="matrix(0.008681640625,0,0,0.008681640625,43.7901953125,0)" xlink:href="#bg"/><use transform="matrix(0.008681640625,0,0,0.008681640625,50.657373046875,0)" xlink:href="#bg"/><use transform="matrix(0.008681640625,0,0,0.008681640625,57.203330078125,0)" xlink:href="#aM"/><use transform="matrix(0.008681640625,0,0,0.008681640625,65.780791015625,0)" xlink:href="#bh"/><use transform="matrix(0.008681640625,0,0,0.008681640625,73.160185546875,0)" xlink:href="#aJ"/><use transform="matrix(0.008681640625,0,0,0.008681640625,81.676875,0)" xlink:href="#aN"/><use transform="matrix(0.008681640625,0,0,0.008681640625,95.8800390625,0)" xlink:href="#aX"/><use transform="matrix(0.008681640625,0,0,0.008681640625,105.221484375,0)" xlink:href="#aI"/><use transform="matrix(0.008681640625,0,0,0.008681640625,109.30185546875,0)" xlink:href="#aM"/><use transform="matrix(0.008681640625,0,0,0.008681640625,118.14844726562501,0)" xlink:href="#bi"/><use transform="matrix(0.008681640625,0,0,0.008681640625,122.63685546875001,0)" xlink:href="#aB"/><use transform="matrix(0.008681640625,0,0,0.008681640625,132.01302734375003,0)" xlink:href="#aR"/><use transform="matrix(0.008681640625,0,0,0.008681640625,137.9686328125,0)" xlink:href="#bj"/><use transform="matrix(0.008681640625,0,0,0.008681640625,146.971494140625,0)" xlink:href="#bg"/></g><path d="M69-490c0-299 140-503 438-503 143 0 234 53 308 127-20 26-37 58-61 80-40 18-64-17-93-32-37-19-81-40-143-39-201 7-269 160-269 367 0 204 66 360 261 368 96 4 149-38 198-81 21-19 50-20 67 2l51 64C751-46 640 14 479 14 199 14 69-199 69-490" id="bk"/><g id="p"><use transform="matrix(0.008681640625,0,0,0.008681640625,0,0)" xlink:href="#aX"/><use transform="matrix(0.008681640625,0,0,0.008681640625,9.341445312500001,0)" xlink:href="#aR"/><use transform="matrix(0.008681640625,0,0,0.008681640625,15.253642578125,0)" xlink:href="#aB"/><use transform="matrix(0.008681640625,0,0,0.008681640625,24.629814453125,0)" xlink:href="#aT"/><use transform="matrix(0.008681640625,0,0,0.008681640625,30.05583984375,0)" xlink:href="#bb"/><use transform="matrix(0.008681640625,0,0,0.008681640625,34.1362109375,0)" xlink:href="#aI"/><use transform="matrix(0.008681640625,0,0,0.008681640625,38.216582031250006,0)" xlink:href="#aM"/><use transform="matrix(0.008681640625,0,0,0.008681640625,47.063173828125,0)" xlink:href="#bg"/><use transform="matrix(0.008681640625,0,0,0.008681640625,53.9303515625,0)" xlink:href="#aR"/><use transform="matrix(0.008681640625,0,0,0.008681640625,59.894638671875,0)" xlink:href="#aM"/><use transform="matrix(0.008681640625,0,0,0.008681640625,68.74123046875,0)" xlink:href="#aK"/><use transform="matrix(0.008681640625,0,0,0.008681640625,75.695224609375,0)" xlink:href="#aB"/><use transform="matrix(0.008681640625,0,0,0.008681640625,85.071396484375,0)" xlink:href="#aV"/><use transform="matrix(0.008681640625,0,0,0.008681640625,94.412841796875,0)" xlink:href="#aR"/><use transform="matrix(0.008681640625,0,0,0.008681640625,100.35108398437501,0)" xlink:href="#bk"/><use transform="matrix(0.008681640625,0,0,0.008681640625,107.869384765625,0)" xlink:href="#aM"/><use transform="matrix(0.008681640625,0,0,0.008681640625,116.71597656250002,0)" xlink:href="#bg"/></g><path d="M927-613L181-225c8-67-20-148 34-176l429-218c25-13 54-23 87-30-33-8-63-18-88-31L216-898c-56-17-28-110-35-175l746 388v72" id="bl"/><g id="q"><use transform="matrix(0.008681640625,0,0,0.008681640625,0,0)" xlink:href="#bc"/><use transform="matrix(0.008681640625,0,0,0.008681640625,7.770068359375,0)" xlink:href="#aJ"/><use transform="matrix(0.008681640625,0,0,0.008681640625,16.2867578125,0)" xlink:href="#aI"/><use transform="matrix(0.008681640625,0,0,0.008681640625,20.36712890625,0)" xlink:href="#bb"/><use transform="matrix(0.008681640625,0,0,0.008681640625,24.447499999999998,0)" xlink:href="#aS"/><use transform="matrix(0.008681640625,0,0,0.008681640625,33.7889453125,0)" xlink:href="#aJ"/><use transform="matrix(0.008681640625,0,0,0.008681640625,42.14068359375,0)" xlink:href="#aO"/><use transform="matrix(0.008681640625,0,0,0.008681640625,47.922656249999996,0)" xlink:href="#aB"/><use transform="matrix(0.008681640625,0,0,0.008681640625,57.29882812500001,0)" xlink:href="#aR"/><use transform="matrix(0.008681640625,0,0,0.008681640625,61.7091015625,0)" xlink:href="#bi"/><use transform="matrix(0.008681640625,0,0,0.008681640625,65.815517578125,0)" xlink:href="#aO"/><use transform="matrix(0.008681640625,0,0,0.008681640625,71.51935546874999,0)" xlink:href="#aO"/><use transform="matrix(0.008681640625,0,0,0.008681640625,77.47496093749999,0)" xlink:href="#aI"/><use transform="matrix(0.008681640625,0,0,0.008681640625,81.55533203124999,0)" xlink:href="#bl"/></g><linearGradient gradientUnits="userSpaceOnUse" id="r" x1="248.5" y1="604.61" x2="248.5" y2="722.72"><stop offset="0%" stop-color="#fff"/><stop offset="12.18%" stop-color="#fff"/><stop offset="100%" stop-color="#dbdbdb"/></linearGradient><path d="M1148-926c58 156 58 382 0 538C1064-162 892 0 593 0H139v-1314h454c298 6 472 162 555 388zM976-442c38-121 39-309 0-430-55-171-167-295-383-295H322v1020c157-7 329 19 441-35 105-50 176-139 213-260" id="bm"/><g id="s"><use transform="matrix(0.010849609375,0,0,0.010849609375,0,0)" xlink:href="#aE"/><use transform="matrix(0.010849609375,0,0,0.010849609375,12.064765625,0)" xlink:href="#bm"/><use transform="matrix(0.010849609375,0,0,0.010849609375,25.7352734375,0)" xlink:href="#aG"/></g><path d="M415 284C228 8 104-369 164-836c34-266 128-472 251-661 37 33 133 46 93 119-117 213-205 462-205 771 0 310 84 561 205 772 20 35 8 57-15 71" id="bn"/><path d="M206-1498c187 277 310 653 250 1120-34 266-128 473-250 662-30-20-65-35-92-58-16-13-12-41-1-61C234-46 318-297 318-607c0-309-82-562-205-771-16-28-6-59 15-72" id="bo"/><g id="t"><use transform="matrix(0.010849609375,0,0,0.010849609375,0,0)" xlink:href="#bn"/><use transform="matrix(0.010849609375,0,0,0.010849609375,6.7376074218749995,0)" xlink:href="#aO"/><use transform="matrix(0.010849609375,0,0,0.010849609375,14.180439453124999,0)" xlink:href="#aV"/><use transform="matrix(0.010849609375,0,0,0.010849609375,25.854619140624997,0)" xlink:href="#aR"/><use transform="matrix(0.010849609375,0,0,0.010849609375,33.601240234375,0)" xlink:href="#aO"/><use transform="matrix(0.010849609375,0,0,0.010849609375,41.044072265625,0)" xlink:href="#aI"/><use transform="matrix(0.010849609375,0,0,0.010849609375,46.143388671874995,0)" xlink:href="#aM"/><use transform="matrix(0.010849609375,0,0,0.010849609375,57.199140625,0)" xlink:href="#bo"/></g><linearGradient gradientUnits="userSpaceOnUse" id="u" x1="603.94" y1="230.59" x2="603.94" y2="348.7"><stop offset="0%" stop-color="#fff"/><stop offset="12.18%" stop-color="#fff"/><stop offset="100%" stop-color="#dbdbdb"/></linearGradient><g id="v"><use transform="matrix(0.010849609375,0,0,0.010849609375,0,0)" xlink:href="#bm"/><use transform="matrix(0.010849609375,0,0,0.010849609375,13.670507812499999,0)" xlink:href="#aV"/><use transform="matrix(0.010849609375,0,0,0.010849609375,25.3446875,0)" xlink:href="#aW"/><use transform="matrix(0.010849609375,0,0,0.010849609375,37.0188671875,0)" xlink:href="#aI"/><use transform="matrix(0.010849609375,0,0,0.010849609375,42.11818359375,0)" xlink:href="#bb"/><use transform="matrix(0.010849609375,0,0,0.010849609375,47.2175,0)" xlink:href="#aA"/></g><g id="w"><use transform="matrix(0.010849609375,0,0,0.010849609375,0,0)" xlink:href="#aH"/><use transform="matrix(0.010849609375,0,0,0.010849609375,11.847773437499999,0)" xlink:href="#aB"/><use transform="matrix(0.010849609375,0,0,0.010849609375,23.5653515625,0)" xlink:href="#aR"/><use transform="matrix(0.010849609375,0,0,0.010849609375,31.019033203124998,0)" xlink:href="#aM"/></g><path d="M974-1314v152H591V0H408v-1162H24v-152h950" id="bp"/><g id="x"><use transform="matrix(0.010849609375,0,0,0.010849609375,0,0)" xlink:href="#bp"/><use transform="matrix(0.010849609375,0,0,0.010849609375,8.853281249999998,0)" xlink:href="#aM"/><use transform="matrix(0.010849609375,0,0,0.010849609375,19.909033203125,0)" xlink:href="#aR"/><use transform="matrix(0.010849609375,0,0,0.010849609375,27.655654296875,0)" xlink:href="#aN"/><use transform="matrix(0.010849609375,0,0,0.010849609375,45.405615234375,0)" xlink:href="#aK"/></g><g id="y"><use transform="matrix(0.008681640625,0,0,0.008681640625,0,0)" xlink:href="#bb"/><use transform="matrix(0.008681640625,0,0,0.008681640625,4.08037109375,0)" xlink:href="#aK"/></g><g id="z"><use transform="matrix(0.008681640625,0,0,0.008681640625,0,0)" xlink:href="#aX"/><use transform="matrix(0.008681640625,0,0,0.008681640625,9.341445312500001,0)" xlink:href="#aR"/><use transform="matrix(0.008681640625,0,0,0.008681640625,15.253642578125,0)" xlink:href="#aB"/><use transform="matrix(0.008681640625,0,0,0.008681640625,24.629814453125,0)" xlink:href="#aT"/><use transform="matrix(0.008681640625,0,0,0.008681640625,30.05583984375,0)" xlink:href="#bb"/><use transform="matrix(0.008681640625,0,0,0.008681640625,34.1362109375,0)" xlink:href="#aI"/><use transform="matrix(0.008681640625,0,0,0.008681640625,38.216582031250006,0)" xlink:href="#aM"/></g><g id="A"><use transform="matrix(0.008681640625,0,0,0.008681640625,0,0)" xlink:href="#aB"/><use transform="matrix(0.008681640625,0,0,0.008681640625,9.376171875,0)" xlink:href="#aT"/></g><linearGradient gradientUnits="userSpaceOnUse" id="B" x1="603.94" y1="419.57" x2="603.94" y2="537.68"><stop offset="0%" stop-color="#fff"/><stop offset="12.18%" stop-color="#fff"/><stop offset="100%" stop-color="#dbdbdb"/></linearGradient><g id="C"><use transform="matrix(0.010849609375,0,0,0.010849609375,0,0)" xlink:href="#aD"/><use transform="matrix(0.010849609375,0,0,0.010849609375,11.47888671875,0)" xlink:href="#aR"/><use transform="matrix(0.010849609375,0,0,0.010849609375,18.867470703125,0)" xlink:href="#aB"/><use transform="matrix(0.010849609375,0,0,0.010849609375,30.585048828125,0)" xlink:href="#aT"/><use transform="matrix(0.010849609375,0,0,0.010849609375,37.3660546875,0)" xlink:href="#bb"/><use transform="matrix(0.010849609375,0,0,0.010849609375,42.465371093749994,0)" xlink:href="#aI"/><use transform="matrix(0.010849609375,0,0,0.010849609375,47.56468749999999,0)" xlink:href="#aM"/></g><path d="M407-674L27-1314h181c27 0 37 9 46 25l289 512c93-171 187-340 282-509 9-15 19-27 41-28h174L658-684 1052 0H871c-27 1-41-18-50-34L524-570C428-389 328-212 228-34c-9 16-22 34-47 34H11" id="bq"/><use transform="matrix(0.010849609375,0,0,0.010849609375,0,0)" xlink:href="#bq" id="D"/><g id="E"><use transform="matrix(0.008681640625,0,0,0.008681640625,0,0)" xlink:href="#bf"/><use transform="matrix(0.008681640625,0,0,0.008681640625,9.341445312500001,0)" xlink:href="#aJ"/><use transform="matrix(0.008681640625,0,0,0.008681640625,17.858134765625007,0)" xlink:href="#aK"/></g><path d="M304-1422v836c44 0 73 1 95-27l260-331c33-56 146-27 227-34L579-593c-18 19-36 36-58 50 24 15 42 36 58 59L906 0c-79-8-188 23-224-33L415-434c-19-25-25-32-66-33h-45V0H128v-1422h176" id="br"/><g id="F"><use transform="matrix(0.008681640625,0,0,0.008681640625,0,0)" xlink:href="#aO"/><use transform="matrix(0.008681640625,0,0,0.008681640625,5.78197265625,0)" xlink:href="#aB"/><use transform="matrix(0.008681640625,0,0,0.008681640625,15.15814453125,0)" xlink:href="#br"/><use transform="matrix(0.008681640625,0,0,0.008681640625,22.667763671875,0)" xlink:href="#aM"/><use transform="matrix(0.008681640625,0,0,0.008681640625,31.51435546875,0)" xlink:href="#aA"/></g><g id="G"><use transform="matrix(0.010849609375,0,0,0.010849609375,0,0)" xlink:href="#aE"/><use transform="matrix(0.010849609375,0,0,0.010849609375,11.674179687499999,0)" xlink:href="#aM"/><use transform="matrix(0.010849609375,0,0,0.010849609375,22.729931640624997,0)" xlink:href="#aK"/><use transform="matrix(0.010849609375,0,0,0.010849609375,31.420468749999998,0)" xlink:href="#aB"/><use transform="matrix(0.010849609375,0,0,0.010849609375,43.138046875,0)" xlink:href="#aV"/><use transform="matrix(0.010849609375,0,0,0.010849609375,54.812226562499994,0)" xlink:href="#aR"/><use transform="matrix(0.010849609375,0,0,0.010849609375,62.233359375,0)" xlink:href="#bk"/><use transform="matrix(0.010849609375,0,0,0.010849609375,71.62912109375,0)" xlink:href="#aM"/></g><g id="H"><use transform="matrix(0.010849609375,0,0,0.010849609375,0,0)" xlink:href="#bm"/><use transform="matrix(0.010849609375,0,0,0.010849609375,13.670507812499999,0)" xlink:href="#aM"/><use transform="matrix(0.010849609375,0,0,0.010849609375,24.726259765625,0)" xlink:href="#aK"/><use transform="matrix(0.010849609375,0,0,0.010849609375,33.416796874999996,0)" xlink:href="#bk"/><use transform="matrix(0.010849609375,0,0,0.010849609375,42.81255859375,0)" xlink:href="#aR"/><use transform="matrix(0.010849609375,0,0,0.010849609375,50.5591796875,0)" xlink:href="#bb"/><use transform="matrix(0.010849609375,0,0,0.010849609375,55.658496093749996,0)" xlink:href="#aX"/><use transform="matrix(0.010849609375,0,0,0.010849609375,67.235029296875,0)" xlink:href="#aO"/><use transform="matrix(0.010849609375,0,0,0.010849609375,74.46086914062501,0)" xlink:href="#aB"/><use transform="matrix(0.010849609375,0,0,0.010849609375,86.17844726562501,0)" xlink:href="#aR"/></g><path d="M312 282C153-15 108-552 232-932c70-213 166-382 297-563 35 30 121 47 76 115-187 281-329 621-289 1103 13 162 46 318 99 444 16 38-1 57-23 69" id="bs"/><path d="M505 14c-118 0-205-54-256-128-17 47-7 114-75 114H81l172-1422h172l-85 693c88-127 183-263 381-263 191 0 279 150 275 359-5 249-99 431-238 550-63 54-146 97-253 97zm293-457c46-163 40-420-143-409-145 9-215 126-279 232-28 47-49 99-68 155l-31 249c60 96 240 126 345 49 84-62 145-161 176-276" id="bt"/><path d="M88 0l171-1422h173L260 0H88" id="bu"/><path d="M328 14C129 14 49-132 49-337c0-278 150-444 325-561 137-92 408-128 589-48L848 0h-92c-43 1-60-22-57-60l18-208C629-132 535 14 328 14zm452-870c-268-41-440 109-520 300-25 60-36 123-36 189 0 157 56 235 169 235 150 0 216-128 279-237 27-47 49-101 68-158" id="bv"/><path d="M189-979c67 2 150-16 145 59l-13 192c53-87 117-151 183-198 125-89 328-91 402 30 40 66 56 160 43 273L876 0H701l73-623c17-137-4-224-124-224-142 0-217 109-281 208-28 43-49 92-67 146L247 0H72" id="bw"/><path d="M422-1422L319-586c44 1 67-3 90-27l321-331c19-19 33-34 68-34h155C818-841 686-702 550-566c-10 8-21 16-32 23 22 15 36 37 51 60L857 0c-61-3-137 9-185-8-10-3-18-13-25-25L402-434c-15-35-47-34-97-33L248 0H75l174-1422h173" id="bx"/><g id="I"><use transform="matrix(0.010849609375,0,0,0.010849609375,0,0)" xlink:href="#bs"/><use transform="matrix(0.010849609375,0,0,0.010849609375,6.7376074218749995,0)" xlink:href="#bt"/><use transform="matrix(0.010849609375,0,0,0.010849609375,18.16224609375,0)" xlink:href="#bu"/><use transform="matrix(0.010849609375,0,0,0.010849609375,23.2615625,0)" xlink:href="#bv"/><use transform="matrix(0.010849609375,0,0,0.010849609375,34.686201171875,0)" xlink:href="#bw"/><use transform="matrix(0.010849609375,0,0,0.010849609375,46.11083984375,0)" xlink:href="#bx"/></g><path d="M232-400c-1 171 73 277 235 277 183 0 270-137 317-285 17-55 25-113 25-173 2-171-74-275-235-275-183 0-271 137-318 284-17 55-24 112-24 172zm356-593c255 0 397 154 397 412 0 271-136 454-323 547-65 32-135 48-210 48C197 14 56-140 56-399c0-272 135-454 322-547 65-31 135-47 210-47" id="by"/><path d="M410-966c137-59 309-11 375 83l67-539h172L849 0h-92c-43 1-60-22-57-60l18-208C649-155 564-56 437-6c-36 13-73 20-110 20C136 10 48-136 52-346c5-249 101-430 240-549 36-31 76-54 118-71zM268-592c-62 155-79 478 125 466 145-9 216-127 279-233 28-47 49-99 68-155l30-248c-51-82-190-123-300-74-100 44-160 139-202 244" id="bz"/><path d="M458 14C201 14 59-135 59-391c0-243 114-400 256-511 120-94 406-122 533-13 66 57 101 178 45 267-60 95-171 135-317 170-90 21-204 37-345 50-11 193 72 304 259 304 134 0 211-54 286-107 29-22 62-31 85-3l44 53C790-75 673 14 458 14zm300-729c48-152-164-179-285-126-118 52-192 161-226 297 166-19 310-37 428-92 40-19 71-41 83-79" id="bA"/><path d="M343-1496c157 299 202 836 79 1216-69 212-167 381-297 562-33-32-121-47-75-115 206-304 360-741 268-1257-18-102-45-204-79-290-15-38 1-58 23-70" id="bB"/><g id="J"><use transform="matrix(0.010849609375,0,0,0.010849609375,0,0)" xlink:href="#bw"/><use transform="matrix(0.010849609375,0,0,0.010849609375,11.424638671875,0)" xlink:href="#by"/><use transform="matrix(0.010849609375,0,0,0.010849609375,22.827578125,0)" xlink:href="#bz"/><use transform="matrix(0.010849609375,0,0,0.010849609375,34.252216796875,0)" xlink:href="#bA"/><use transform="matrix(0.010849609375,0,0,0.010849609375,44.863134765625,0)" xlink:href="#bB"/></g><g id="K"><use transform="matrix(0.008681640625,0,0,0.008681640625,0,0)" xlink:href="#aR"/><use transform="matrix(0.008681640625,0,0,0.008681640625,5.964287109375,0)" xlink:href="#aM"/><use transform="matrix(0.008681640625,0,0,0.008681640625,14.81087890625,0)" xlink:href="#aK"/><use transform="matrix(0.008681640625,0,0,0.008681640625,21.764873046875003,0)" xlink:href="#aB"/><use transform="matrix(0.008681640625,0,0,0.008681640625,31.141044921875,0)" xlink:href="#aV"/><use transform="matrix(0.008681640625,0,0,0.008681640625,40.482490234375,0)" xlink:href="#aR"/><use transform="matrix(0.008681640625,0,0,0.008681640625,46.420732421875,0)" xlink:href="#bk"/><use transform="matrix(0.008681640625,0,0,0.008681640625,53.93903320312501,0)" xlink:href="#aM"/></g><g id="L"><use transform="matrix(0.008681640625,0,0,0.008681640625,0,0)" xlink:href="#aT"/><use transform="matrix(0.008681640625,0,0,0.008681640625,5.05271484375,0)" xlink:href="#aB"/><use transform="matrix(0.008681640625,0,0,0.008681640625,14.42888671875,0)" xlink:href="#aR"/><use transform="matrix(0.008681640625,0,0,0.008681640625,20.627578125000003,0)" xlink:href="#aN"/><use transform="matrix(0.008681640625,0,0,0.008681640625,34.8307421875,0)" xlink:href="#aJ"/><use transform="matrix(0.008681640625,0,0,0.008681640625,43.18248046875,0)" xlink:href="#aO"/></g><g id="M"><use transform="matrix(0.008681640625,0,0,0.008681640625,0,0)" xlink:href="#aJ"/><use transform="matrix(0.008681640625,0,0,0.008681640625,8.516689453125,0)" xlink:href="#aR"/><use transform="matrix(0.008681640625,0,0,0.008681640625,14.715380859375,0)" xlink:href="#aO"/><use transform="matrix(0.008681640625,0,0,0.008681640625,20.670986328125,0)" xlink:href="#bb"/><use transform="matrix(0.008681640625,0,0,0.008681640625,24.751357421874996,0)" xlink:href="#aT"/><use transform="matrix(0.008681640625,0,0,0.008681640625,29.8301171875,0)" xlink:href="#aJ"/><use transform="matrix(0.008681640625,0,0,0.008681640625,38.346806640625005,0)" xlink:href="#bk"/><use transform="matrix(0.008681640625,0,0,0.008681640625,45.865107421875,0)" xlink:href="#aO"/></g><g id="N"><use transform="matrix(0.008681640625,0,0,0.008681640625,0,0)" xlink:href="#aR"/><use transform="matrix(0.008681640625,0,0,0.008681640625,5.912197265625,0)" xlink:href="#aB"/><use transform="matrix(0.008681640625,0,0,0.008681640625,15.288369140625,0)" xlink:href="#aI"/><use transform="matrix(0.008681640625,0,0,0.008681640625,19.368740234375,0)" xlink:href="#aM"/></g><linearGradient gradientUnits="userSpaceOnUse" id="O" x1="248.5" y1="758.15" x2="248.5" y2="876.26"><stop offset="0%" stop-color="#fff"/><stop offset="12.18%" stop-color="#fff"/><stop offset="100%" stop-color="#dbdbdb"/></linearGradient><path d="M454-137c154-4 244-84 244-236 0-172-165-194-295-240-161-57-303-135-295-354 9-227 154-362 390-362 152 0 266 55 344 137l-45 85c-37 63-91-1-127-21-44-25-97-52-170-50-136 3-221 69-221 201 0 166 169 187 295 236 153 60 300 130 295 341-6 260-155 414-419 414-174 0-309-76-395-172 24-34 40-77 71-104 55-23 84 36 125 60 52 30 115 67 203 65" id="bC"/><path d="M1136 0H953v-596H323V0H140v-1314h183v585h630v-585h183V0" id="bD"/><path d="M1178 0c-74-7-179 24-202-42L864-358H322L211-43C194 22 84-6 8 0l493-1314h185zM368-488h450c-69-195-137-390-206-585-7-21-13-44-19-69-68 226-151 434-225 654" id="bE"/><path d="M320-153h507V0H138v-1314h182v1161" id="bF"/><g id="P"><use transform="matrix(0.010849609375,0,0,0.010849609375,0,0)" xlink:href="#bC"/><use transform="matrix(0.010849609375,0,0,0.010849609375,10.209482421875,0)" xlink:href="#bD"/><use transform="matrix(0.010849609375,0,0,0.010849609375,24.053583984375,0)" xlink:href="#bE"/><use transform="matrix(0.010849609375,0,0,0.010849609375,36.74762695312499,0)" xlink:href="#aH"/><use transform="matrix(0.010849609375,0,0,0.010849609375,48.59540039062499,0)" xlink:href="#bF"/></g><path d="M330-1383v280c-12 64-5 148-33 197-13 23-70 25-85 1-30-47-34-133-34-198v-280h152zm363 0v280c-12 64-5 148-33 197-13 23-70 25-85 1-30-47-34-133-34-198v-280h152" id="bG"/><g id="Q"><use transform="matrix(0.010849609375,0,0,0.010849609375,0,0)" xlink:href="#bG"/><use transform="matrix(0.010849609375,0,0,0.010849609375,8.907529296875,0)" xlink:href="#aX"/><use transform="matrix(0.010849609375,0,0,0.010849609375,20.581708984375,0)" xlink:href="#aR"/><use transform="matrix(0.010849609375,0,0,0.010849609375,27.970292968749998,0)" xlink:href="#aB"/><use transform="matrix(0.010849609375,0,0,0.010849609375,39.68787109375,0)" xlink:href="#aT"/><use transform="matrix(0.010849609375,0,0,0.010849609375,46.468876953125,0)" xlink:href="#bh"/><use transform="matrix(0.010849609375,0,0,0.010849609375,56.09248046875,0)" xlink:href="#bG"/></g><g id="R"><use transform="matrix(0.008681640625,0,0,0.008681640625,0,0)" xlink:href="#bk"/><use transform="matrix(0.008681640625,0,0,0.008681640625,7.370712890625001,0)" xlink:href="#aB"/><use transform="matrix(0.008681640625,0,0,0.008681640625,16.746884765625,0)" xlink:href="#aA"/><use transform="matrix(0.008681640625,0,0,0.008681640625,25.984150390625004,0)" xlink:href="#aT"/><use transform="matrix(0.008681640625,0,0,0.008681640625,31.036865234375004,0)" xlink:href="#aB"/><use transform="matrix(0.008681640625,0,0,0.008681640625,40.413037109375004,0)" xlink:href="#aR"/><use transform="matrix(0.008681640625,0,0,0.008681640625,46.611728515625,0)" xlink:href="#aN"/><use transform="matrix(0.008681640625,0,0,0.008681640625,60.814892578125004,0)" xlink:href="#aK"/></g><g id="S"><use transform="matrix(0.008681640625,0,0,0.008681640625,0,0)" xlink:href="#aO"/><use transform="matrix(0.008681640625,0,0,0.008681640625,5.78197265625,0)" xlink:href="#aB"/></g><g id="T"><use transform="matrix(0.010849609375,0,0,0.010849609375,0,0)" xlink:href="#aF"/><use transform="matrix(0.010849609375,0,0,0.010849609375,14.7120703125,0)" xlink:href="#aO"/><use transform="matrix(0.010849609375,0,0,0.010849609375,22.15490234375,0)" xlink:href="#bf"/><use transform="matrix(0.010849609375,0,0,0.010849609375,33.829082031249996,0)" xlink:href="#aM"/><use transform="matrix(0.010849609375,0,0,0.010849609375,44.884833984374986,0)" xlink:href="#aR"/></g><g id="U"><use transform="matrix(0.010849609375,0,0,0.010849609375,0,0)" xlink:href="#aE"/><use transform="matrix(0.010849609375,0,0,0.010849609375,11.674179687499999,0)" xlink:href="#aM"/><use transform="matrix(0.010849609375,0,0,0.010849609375,22.729931640624997,0)" xlink:href="#aK"/><use transform="matrix(0.010849609375,0,0,0.010849609375,31.420468749999998,0)" xlink:href="#aB"/><use transform="matrix(0.010849609375,0,0,0.010849609375,43.138046875,0)" xlink:href="#aV"/><use transform="matrix(0.010849609375,0,0,0.010849609375,54.812226562499994,0)" xlink:href="#aR"/><use transform="matrix(0.010849609375,0,0,0.010849609375,62.233359375,0)" xlink:href="#bk"/><use transform="matrix(0.010849609375,0,0,0.010849609375,71.62912109375,0)" xlink:href="#aM"/></g><g id="V"><use transform="matrix(0.010849609375,0,0,0.010849609375,0,0)" xlink:href="#bm"/><use transform="matrix(0.010849609375,0,0,0.010849609375,13.670507812499999,0)" xlink:href="#aM"/><use transform="matrix(0.010849609375,0,0,0.010849609375,24.726259765625,0)" xlink:href="#aK"/><use transform="matrix(0.010849609375,0,0,0.010849609375,33.416796874999996,0)" xlink:href="#bk"/><use transform="matrix(0.010849609375,0,0,0.010849609375,42.81255859375,0)" xlink:href="#aR"/><use transform="matrix(0.010849609375,0,0,0.010849609375,50.5591796875,0)" xlink:href="#bb"/><use transform="matrix(0.010849609375,0,0,0.010849609375,55.658496093749996,0)" xlink:href="#aX"/><use transform="matrix(0.010849609375,0,0,0.010849609375,67.235029296875,0)" xlink:href="#aO"/><use transform="matrix(0.010849609375,0,0,0.010849609375,74.46086914062501,0)" xlink:href="#aB"/><use transform="matrix(0.010849609375,0,0,0.010849609375,86.17844726562501,0)" xlink:href="#aR"/></g><g id="W"><use transform="matrix(0.008681640625,0,0,0.008681640625,0,0)" xlink:href="#aS"/><use transform="matrix(0.008681640625,0,0,0.008681640625,9.341445312500001,0)" xlink:href="#bk"/><use transform="matrix(0.008681640625,0,0,0.008681640625,16.85974609375,0)" xlink:href="#aO"/><use transform="matrix(0.008681640625,0,0,0.008681640625,22.815351562500002,0)" xlink:href="#aU"/><use transform="matrix(0.008681640625,0,0,0.008681640625,27.572890625000003,0)" xlink:href="#aO"/><use transform="matrix(0.008681640625,0,0,0.008681640625,33.52849609375,0)" xlink:href="#bb"/><use transform="matrix(0.008681640625,0,0,0.008681640625,37.6088671875,0)" xlink:href="#aO"/><use transform="matrix(0.008681640625,0,0,0.008681640625,43.564472656250004,0)" xlink:href="#aI"/><use transform="matrix(0.008681640625,0,0,0.008681640625,47.64484375,0)" xlink:href="#aM"/></g><g id="X"><use transform="matrix(0.010849609375,0,0,0.010849609375,0,0)" xlink:href="#bG"/><use transform="matrix(0.010849609375,0,0,0.010849609375,8.907529296875,0)" xlink:href="#aD"/><use transform="matrix(0.010849609375,0,0,0.010849609375,20.386416015625,0)" xlink:href="#aR"/><use transform="matrix(0.010849609375,0,0,0.010849609375,27.775,0)" xlink:href="#aB"/><use transform="matrix(0.010849609375,0,0,0.010849609375,39.492578124999994,0)" xlink:href="#aT"/><use transform="matrix(0.010849609375,0,0,0.010849609375,46.273583984374994,0)" xlink:href="#bb"/><use transform="matrix(0.010849609375,0,0,0.010849609375,51.372900390624984,0)" xlink:href="#aI"/><use transform="matrix(0.010849609375,0,0,0.010849609375,56.47221679687499,0)" xlink:href="#aM"/></g><g id="Y"><use transform="matrix(0.010849609375,0,0,0.010849609375,0,0)" xlink:href="#bq"/><use transform="matrix(0.010849609375,0,0,0.010849609375,11.533134765625,0)" xlink:href="#bG"/></g><g id="Z"><use transform="matrix(0.008681640625,0,0,0.008681640625,0,0)" xlink:href="#aS"/><use transform="matrix(0.008681640625,0,0,0.008681640625,9.341445312500001,0)" xlink:href="#bk"/><use transform="matrix(0.008681640625,0,0,0.008681640625,16.85974609375,0)" xlink:href="#aO"/><use transform="matrix(0.008681640625,0,0,0.008681640625,22.815351562500002,0)" xlink:href="#aU"/><use transform="matrix(0.008681640625,0,0,0.008681640625,27.572890625000003,0)" xlink:href="#aS"/><use transform="matrix(0.008681640625,0,0,0.008681640625,36.9143359375,0)" xlink:href="#aM"/><use transform="matrix(0.008681640625,0,0,0.008681640625,45.760927734375,0)" xlink:href="#aK"/><use transform="matrix(0.008681640625,0,0,0.008681640625,52.714921875,0)" xlink:href="#bk"/><use transform="matrix(0.008681640625,0,0,0.008681640625,60.23322265624999,0)" xlink:href="#aR"/><use transform="matrix(0.008681640625,0,0,0.008681640625,66.4319140625,0)" xlink:href="#bb"/><use transform="matrix(0.008681640625,0,0,0.008681640625,70.51228515625,0)" xlink:href="#aX"/><use transform="matrix(0.008681640625,0,0,0.008681640625,79.775595703125,0)" xlink:href="#aO"/><use transform="matrix(0.008681640625,0,0,0.008681640625,85.731201171875,0)" xlink:href="#bb"/><use transform="matrix(0.008681640625,0,0,0.008681640625,89.811572265625,0)" xlink:href="#aB"/><use transform="matrix(0.008681640625,0,0,0.008681640625,99.187744140625,0)" xlink:href="#aA"/></g><g id="aa"><use transform="matrix(0.008681640625,0,0,0.008681640625,0,0)" xlink:href="#bG"/><use transform="matrix(0.008681640625,0,0,0.008681640625,7.1276269531250005,0)" xlink:href="#bp"/><use transform="matrix(0.008681640625,0,0,0.008681640625,15.791904296875002,0)" xlink:href="#bf"/><use transform="matrix(0.008681640625,0,0,0.008681640625,25.133349609375003,0)" xlink:href="#bb"/><use transform="matrix(0.008681640625,0,0,0.008681640625,29.213720703125002,0)" xlink:href="#aK"/></g><g id="ab"><use transform="matrix(0.008681640625,0,0,0.008681640625,0,0)" xlink:href="#bb"/><use transform="matrix(0.008681640625,0,0,0.008681640625,4.08037109375,0)" xlink:href="#aK"/></g><use transform="matrix(0.008681640625,0,0,0.008681640625,0,0)" xlink:href="#aJ" id="ac"/><g id="ad"><use transform="matrix(0.008681640625,0,0,0.008681640625,0,0)" xlink:href="#aD"/><use transform="matrix(0.008681640625,0,0,0.008681640625,9.18517578125,0)" xlink:href="#aR"/><use transform="matrix(0.008681640625,0,0,0.008681640625,15.097373046875,0)" xlink:href="#aB"/><use transform="matrix(0.008681640625,0,0,0.008681640625,24.473544921875,0)" xlink:href="#aT"/><use transform="matrix(0.008681640625,0,0,0.008681640625,29.899570312499996,0)" xlink:href="#bb"/><use transform="matrix(0.008681640625,0,0,0.008681640625,33.97994140625,0)" xlink:href="#aI"/><use transform="matrix(0.008681640625,0,0,0.008681640625,38.0603125,0)" xlink:href="#aM"/></g><g id="ae"><use transform="matrix(0.008681640625,0,0,0.008681640625,0,0)" xlink:href="#aB"/><use transform="matrix(0.008681640625,0,0,0.008681640625,9.376171875,0)" xlink:href="#aT"/></g><g id="af"><use transform="matrix(0.008681640625,0,0,0.008681640625,0,0)" xlink:href="#bm"/><use transform="matrix(0.008681640625,0,0,0.008681640625,10.938867187500001,0)" xlink:href="#aV"/><use transform="matrix(0.008681640625,0,0,0.008681640625,20.2803125,0)" xlink:href="#aW"/><use transform="matrix(0.008681640625,0,0,0.008681640625,29.6217578125,0)" xlink:href="#aI"/><use transform="matrix(0.008681640625,0,0,0.008681640625,33.70212890625,0)" xlink:href="#bb"/><use transform="matrix(0.008681640625,0,0,0.008681640625,37.7825,0)" xlink:href="#aA"/></g><g id="ag"><use transform="matrix(0.008681640625,0,0,0.008681640625,0,0)" xlink:href="#aH"/><use transform="matrix(0.008681640625,0,0,0.008681640625,9.480351562500001,0)" xlink:href="#aB"/><use transform="matrix(0.008681640625,0,0,0.008681640625,18.8565234375,0)" xlink:href="#aR"/><use transform="matrix(0.008681640625,0,0,0.008681640625,24.820810546875002,0)" xlink:href="#aM"/></g><g id="ah"><use transform="matrix(0.008681640625,0,0,0.008681640625,0,0)" xlink:href="#bp"/><use transform="matrix(0.008681640625,0,0,0.008681640625,7.084218750000002,0)" xlink:href="#aM"/><use transform="matrix(0.008681640625,0,0,0.008681640625,15.930810546875001,0)" xlink:href="#aR"/><use transform="matrix(0.008681640625,0,0,0.008681640625,22.129501953125,0)" xlink:href="#aN"/><use transform="matrix(0.008681640625,0,0,0.008681640625,36.332666015625,0)" xlink:href="#aK"/></g><g id="ai"><use transform="matrix(0.008681640625,0,0,0.008681640625,0,0)" xlink:href="#aV"/><use transform="matrix(0.008681640625,0,0,0.008681640625,9.341445312500001,0)" xlink:href="#aK"/><use transform="matrix(0.008681640625,0,0,0.008681640625,16.295439453125002,0)" xlink:href="#aM"/><use transform="matrix(0.008681640625,0,0,0.008681640625,25.142031250000002,0)" xlink:href="#aS"/></g><g id="aj"><use transform="matrix(0.008681640625,0,0,0.008681640625,0,0)" xlink:href="#aO"/><use transform="matrix(0.008681640625,0,0,0.008681640625,5.78197265625,0)" xlink:href="#aB"/></g><g id="ak"><use transform="matrix(0.008681640625,0,0,0.008681640625,0,0)" xlink:href="#aS"/><use transform="matrix(0.008681640625,0,0,0.008681640625,9.341445312500001,0)" xlink:href="#aM"/><use transform="matrix(0.008681640625,0,0,0.008681640625,18.188037109375003,0)" xlink:href="#aK"/><use transform="matrix(0.008681640625,0,0,0.008681640625,25.142031250000002,0)" xlink:href="#bk"/><use transform="matrix(0.008681640625,0,0,0.008681640625,32.66033203125,0)" xlink:href="#aR"/><use transform="matrix(0.008681640625,0,0,0.008681640625,38.8590234375,0)" xlink:href="#aW"/><use transform="matrix(0.008681640625,0,0,0.008681640625,48.20046874999999,0)" xlink:href="#aM"/></g><g id="al"><use transform="matrix(0.008681640625,0,0,0.008681640625,0,0)" xlink:href="#bb"/><use transform="matrix(0.008681640625,0,0,0.008681640625,4.08037109375,0)" xlink:href="#aO"/><use transform="matrix(0.008681640625,0,0,0.008681640625,9.84498046875,0)" xlink:href="#aM"/><use transform="matrix(0.008681640625,0,0,0.008681640625,18.691572265625,0)" xlink:href="#aN"/><use transform="matrix(0.008681640625,0,0,0.008681640625,32.894736328125,0)" xlink:href="#aK"/></g><g id="am"><use transform="matrix(0.008681640625,0,0,0.008681640625,0,0)" xlink:href="#bb"/><use transform="matrix(0.008681640625,0,0,0.008681640625,4.08037109375,0)" xlink:href="#aA"/></g><path d="M302-1383v280c-12 64-5 148-33 197-13 23-70 25-85 1-30-47-34-133-34-198v-280h152" id="bH"/><g id="an"><use transform="matrix(0.008681640625,0,0,0.008681640625,0,0)" xlink:href="#aH"/><use transform="matrix(0.008681640625,0,0,0.008681640625,9.480351562500001,0)" xlink:href="#bC"/><use transform="matrix(0.008681640625,0,0,0.008681640625,17.649775390625003,0)" xlink:href="#ba"/><use transform="matrix(0.008681640625,0,0,0.008681640625,22.129501953125004,0)" xlink:href="#aE"/><use transform="matrix(0.008681640625,0,0,0.008681640625,31.609853515625005,0)" xlink:href="#aF"/><use transform="matrix(0.008681640625,0,0,0.008681640625,43.382158203125,0)" xlink:href="#bH"/><use transform="matrix(0.008681640625,0,0,0.008681640625,47.306259765625,0)" xlink:href="#aK"/></g><g id="ao"><use transform="matrix(0.008681640625,0,0,0.008681640625,0,0)" xlink:href="#aX"/><use transform="matrix(0.008681640625,0,0,0.008681640625,9.341445312500001,0)" xlink:href="#aV"/><use transform="matrix(0.008681640625,0,0,0.008681640625,18.682890625000002,0)" xlink:href="#aW"/><use transform="matrix(0.008681640625,0,0,0.008681640625,28.024335937500005,0)" xlink:href="#aI"/><use transform="matrix(0.008681640625,0,0,0.008681640625,32.10470703125001,0)" xlink:href="#bb"/><use transform="matrix(0.008681640625,0,0,0.008681640625,36.18507812500001,0)" xlink:href="#bk"/><use transform="matrix(0.008681640625,0,0,0.008681640625,43.55579101562501,0)" xlink:href="#aJ"/><use transform="matrix(0.008681640625,0,0,0.008681640625,51.90752929687501,0)" xlink:href="#aO"/><use transform="matrix(0.008681640625,0,0,0.008681640625,57.86313476562501,0)" xlink:href="#bb"/><use transform="matrix(0.008681640625,0,0,0.008681640625,61.94350585937501,0)" xlink:href="#aB"/><use transform="matrix(0.008681640625,0,0,0.008681640625,71.31967773437502,0)" xlink:href="#aA"/><use transform="matrix(0.008681640625,0,0,0.008681640625,80.66112304687502,0)" xlink:href="#aK"/></g><g id="ap"><use transform="matrix(0.008681640625,0,0,0.008681640625,0,0)" xlink:href="#bk"/><use transform="matrix(0.008681640625,0,0,0.008681640625,7.370712890625001,0)" xlink:href="#aJ"/><use transform="matrix(0.008681640625,0,0,0.008681640625,15.722451171875,0)" xlink:href="#aO"/><use transform="matrix(0.008681640625,0,0,0.008681640625,21.461015625,0)" xlink:href="#aJ"/><use transform="matrix(0.008681640625,0,0,0.008681640625,29.977705078125002,0)" xlink:href="#aI"/><use transform="matrix(0.008681640625,0,0,0.008681640625,34.058076171875,0)" xlink:href="#aB"/><use transform="matrix(0.008681640625,0,0,0.008681640625,43.434248046875,0)" xlink:href="#bj"/><use transform="matrix(0.008681640625,0,0,0.008681640625,51.803349609375,0)" xlink:href="#aV"/><use transform="matrix(0.008681640625,0,0,0.008681640625,61.144794921875,0)" xlink:href="#aM"/><use transform="matrix(0.008681640625,0,0,0.008681640625,69.99138671875,0)" xlink:href="#bG"/></g><g id="aq"><use transform="matrix(0.008681640625,0,0,0.008681640625,0,0)" xlink:href="#aS"/><use transform="matrix(0.008681640625,0,0,0.008681640625,9.341445312500001,0)" xlink:href="#bk"/><use transform="matrix(0.008681640625,0,0,0.008681640625,16.85974609375,0)" xlink:href="#aO"/><use transform="matrix(0.008681640625,0,0,0.008681640625,22.815351562500002,0)" xlink:href="#aU"/><use transform="matrix(0.008681640625,0,0,0.008681640625,27.572890625000003,0)" xlink:href="#aX"/><use transform="matrix(0.008681640625,0,0,0.008681640625,36.9143359375,0)" xlink:href="#aV"/><use transform="matrix(0.008681640625,0,0,0.008681640625,46.255781250000005,0)" xlink:href="#aW"/><use transform="matrix(0.008681640625,0,0,0.008681640625,55.597226562500005,0)" xlink:href="#aI"/><use transform="matrix(0.008681640625,0,0,0.008681640625,59.67759765625,0)" xlink:href="#bb"/><use transform="matrix(0.008681640625,0,0,0.008681640625,63.75796875000001,0)" xlink:href="#aK"/><use transform="matrix(0.008681640625,0,0,0.008681640625,70.71196289062502,0)" xlink:href="#bf"/><use transform="matrix(0.008681640625,0,0,0.008681640625,80.05340820312502,0)" xlink:href="#aM"/><use transform="matrix(0.008681640625,0,0,0.008681640625,88.90000000000002,0)" xlink:href="#aR"/></g><linearGradient gradientUnits="userSpaceOnUse" id="ar" x1="254.17" y1="388.07" x2="254.17" y2="506.18"><stop offset="0%" stop-color="#fff"/><stop offset="12.18%" stop-color="#fff"/><stop offset="100%" stop-color="#dbdbdb"/></linearGradient><g id="as"><use transform="matrix(0.010849609375,0,0,0.010849609375,0,0)" xlink:href="#aH"/><use transform="matrix(0.010849609375,0,0,0.010849609375,11.847773437499999,0)" xlink:href="#bC"/><use transform="matrix(0.010849609375,0,0,0.010849609375,22.057255859374997,0)" xlink:href="#ba"/><use transform="matrix(0.010849609375,0,0,0.010849609375,27.655654296874992,0)" xlink:href="#aE"/><use transform="matrix(0.010849609375,0,0,0.010849609375,39.503427734374995,0)" xlink:href="#aF"/></g><g id="at"><use transform="matrix(0.0130224609375,0,0,0.0130224609375,0,0)" xlink:href="#bi"/><use transform="matrix(0.0130224609375,0,0,0.0130224609375,6.732612304687501,0)" xlink:href="#bi"/><use transform="matrix(0.0130224609375,0,0,0.0130224609375,13.465224609375001,0)" xlink:href="#bi"/></g><g id="au"><use transform="matrix(0.010849609375,0,0,0.010849609375,0,0)" xlink:href="#aD"/><use transform="matrix(0.010849609375,0,0,0.010849609375,11.47888671875,0)" xlink:href="#aR"/><use transform="matrix(0.010849609375,0,0,0.010849609375,18.867470703125,0)" xlink:href="#aB"/><use transform="matrix(0.010849609375,0,0,0.010849609375,30.585048828125,0)" xlink:href="#aT"/><use transform="matrix(0.010849609375,0,0,0.010849609375,37.3660546875,0)" xlink:href="#bb"/><use transform="matrix(0.010849609375,0,0,0.010849609375,42.465371093749994,0)" xlink:href="#aI"/><use transform="matrix(0.010849609375,0,0,0.010849609375,47.56468749999999,0)" xlink:href="#aM"/></g><g id="av"><use transform="matrix(0.010849609375,0,0,0.010849609375,0,0)" xlink:href="#aE"/><use transform="matrix(0.010849609375,0,0,0.010849609375,11.674179687499999,0)" xlink:href="#aM"/><use transform="matrix(0.010849609375,0,0,0.010849609375,22.729931640624997,0)" xlink:href="#aK"/><use transform="matrix(0.010849609375,0,0,0.010849609375,31.420468749999998,0)" xlink:href="#aB"/><use transform="matrix(0.010849609375,0,0,0.010849609375,43.138046875,0)" xlink:href="#aV"/><use transform="matrix(0.010849609375,0,0,0.010849609375,54.812226562499994,0)" xlink:href="#aR"/><use transform="matrix(0.010849609375,0,0,0.010849609375,62.233359375,0)" xlink:href="#bk"/><use transform="matrix(0.010849609375,0,0,0.010849609375,71.62912109375,0)" xlink:href="#aM"/></g><g id="aw"><use transform="matrix(0.010849609375,0,0,0.010849609375,0,0)" xlink:href="#aE"/><use transform="matrix(0.010849609375,0,0,0.010849609375,11.609082031249999,0)" xlink:href="#aB"/><use transform="matrix(0.010849609375,0,0,0.010849609375,23.32666015625,0)" xlink:href="#aI"/><use transform="matrix(0.010849609375,0,0,0.010849609375,28.425976562499997,0)" xlink:href="#aM"/></g><g id="ax"><use transform="matrix(0.010849609375,0,0,0.010849609375,0,0)" xlink:href="#aS"/><use transform="matrix(0.010849609375,0,0,0.010849609375,11.674179687499999,0)" xlink:href="#bk"/><use transform="matrix(0.010849609375,0,0,0.010849609375,21.06994140625,0)" xlink:href="#aO"/><use transform="matrix(0.010849609375,0,0,0.010849609375,28.512773437499998,0)" xlink:href="#aU"/><use transform="matrix(0.010849609375,0,0,0.010849609375,34.458359375,0)" xlink:href="#bC"/><use transform="matrix(0.010849609375,0,0,0.010849609375,44.667841796874995,0)" xlink:href="#aO"/><use transform="matrix(0.010849609375,0,0,0.010849609375,51.839433593749995,0)" xlink:href="#aJ"/><use transform="matrix(0.010849609375,0,0,0.010849609375,62.482900390625005,0)" xlink:href="#aA"/><use transform="matrix(0.010849609375,0,0,0.010849609375,74.157080078125,0)" xlink:href="#aS"/><use transform="matrix(0.010849609375,0,0,0.010849609375,85.831259765625,0)" xlink:href="#aJ"/><use transform="matrix(0.010849609375,0,0,0.010849609375,96.47472656250001,0)" xlink:href="#aR"/><use transform="matrix(0.010849609375,0,0,0.010849609375,103.91755859375,0)" xlink:href="#aS"/></g><g id="ay"><use transform="matrix(0.010849609375,0,0,0.010849609375,0,0)" xlink:href="#bq"/><use transform="matrix(0.010849609375,0,0,0.010849609375,11.316142578125,0)" xlink:href="#bC"/><use transform="matrix(0.010849609375,0,0,0.010849609375,21.525624999999998,0)" xlink:href="#bm"/></g><g id="az"><use transform="matrix(0.010849609375,0,0,0.010849609375,0,0)" xlink:href="#bm"/><use transform="matrix(0.010849609375,0,0,0.010849609375,13.670507812499999,0)" xlink:href="#aJ"/><use transform="matrix(0.010849609375,0,0,0.010849609375,24.10783203125,0)" xlink:href="#aO"/><use transform="matrix(0.010849609375,0,0,0.010849609375,31.279423828124997,0)" xlink:href="#aJ"/><use transform="matrix(0.010849609375,0,0,0.010849609375,41.716748046875,0)" xlink:href="#aO"/><use transform="matrix(0.010849609375,0,0,0.010849609375,49.159580078124996,0)" xlink:href="#aQ"/><use transform="matrix(0.010849609375,0,0,0.010849609375,59.21716796875,0)" xlink:href="#aX"/><use transform="matrix(0.010849609375,0,0,0.010849609375,70.89134765624999,0)" xlink:href="#aM"/></g></defs></g></svg>