<svg xmlns="http://www.w3.org/2000/svg" xmlns:xlink="http://www.w3.org/1999/xlink" xmlns:lucid="lucid" width="1104.71" height="857.96"><g transform="translate(0 0)" lucid:page-tab-id="5sA3Tk0i6ZOH"><path d="M0 0h1104.7v857.96H0z" fill="#fff"/><path d="M182.9 55.4H29.17c-10.56 0-19.2 8.6-19.2 19.24v79.6c0 10.63 8.64 19.26 19.2 19.26h153.7c10.57 0 19.22-8.63 19.22-19.26v-79.6c0-10.63-8.65-19.25-19.2-19.25z" stroke="#000" stroke-width="1.11" fill="#fff"/><use xlink:href="#a" transform="matrix(1,0,0,1,18.809968272823525,64.24425000156971) translate(17.44407226562501 56.055)"/><use xlink:href="#b" transform="matrix(1,0,0,1,18.809968272823525,64.24425000156971) translate(112.58429687499999 56.055)"/><path d="M2089.3 7538.32h36912.4V9513.6H2089.3z" stroke="#000" stroke-opacity="0" stroke-width="1.67" fill-opacity="0"/><use xlink:href="#c" transform="matrix(1,0,0,1,20.48996827314166,8.888799999999998) translate(20.369213867187497 20.1675)"/><use xlink:href="#d" transform="matrix(1,0,0,1,20.48996827314166,8.888799999999998) translate(116.0843017578125 20.1675)"/><path d="M38.95 630.28v-86.63" fill="none"/><path d="M38.95 630.28v-5.78m0-5.77v-11.55m0-5.78v-11.55m0-5.77v-11.55m0-5.78V555.2m0-5.77v-5.78M38.95 630.26v.57M49.13 560.95l-10.18-17.22-10.18 17.22" stroke="#000" stroke-width="1.11" fill="none"/><path d="M182.9 196.68H29.17c-10.56 0-19.2 8.62-19.2 19.25v79.6c0 10.64 8.64 19.26 19.2 19.26h153.7c10.57 0 19.22-8.63 19.22-19.26v-79.6c0-10.64-8.65-19.26-19.2-19.26z" stroke="#000" stroke-width="1.11" fill="#a5a5a5"/><use xlink:href="#e" transform="matrix(1,0,0,1,18.809968272822918,205.5392500015699) translate(38.3783935546875 56.055)"/><use xlink:href="#b" transform="matrix(1,0,0,1,18.809968272822918,205.5392500015699) translate(91.64997558593751 56.055)"/><path d="M182.9 405.6H29.17c-10.56 0-19.2 8.63-19.2 19.26v79.6c0 10.63 8.64 19.26 19.2 19.26h153.7c10.57 0 19.22-8.63 19.22-19.26v-79.6c0-10.63-8.65-19.26-19.2-19.26z" stroke="#000" stroke-width="1.11" fill="url(#f)"/><use xlink:href="#g" transform="matrix(1,0,0,1,18.809968272823475,414.46324998064) translate(68.220244140625 42.723)"/><use xlink:href="#h" transform="matrix(1,0,0,1,18.809968272823475,414.46324998064) translate(10.630517578124994 69.387)"/><path d="M38.95 731.06v-86.62M38.95 731.05v.57M49.13 661.73l-10.18-17.2-10.18 17.2" stroke="#000" stroke-width="1.11" fill="none"/><path d="M12.2 337.98c-.3 0-.55.25-.55.56v43.32c0 .3.25.56.56.56h191.02c.3 0 .56-.25.56-.56v-43.32c0-.3-.25-.56-.56-.56z" stroke="#000" stroke-width="1.11" fill="#fff"/><use xlink:href="#i" transform="matrix(1,0,0,1,20.48996827314167,346.8648000000001) translate(26.41669921875001 19.055)"/><use xlink:href="#j" transform="matrix(1,0,0,1,20.48996827314167,346.8648000000001) translate(66.636201171875 19.055)"/><path d="M813.75 219.87h-153.7c-10.57 0-19.2 8.62-19.2 19.25v79.6c0 10.63 8.63 19.26 19.2 19.26h153.7c10.57 0 19.2-8.63 19.2-19.26v-79.6c0-10.63-8.63-19.25-19.2-19.25z" stroke="#000" stroke-width="1.11" fill="url(#k)"/><use xlink:href="#l" transform="matrix(1,0,0,1,649.6759682731738,228.72424998064) translate(65.7085595703125 56.055)"/><path d="M468.75 219.87h-153.7c-10.57 0-19.2 8.62-19.2 19.25v79.6c0 10.63 8.63 19.26 19.2 19.26h153.7c10.57 0 19.2-8.63 19.2-19.26v-79.6c0-10.63-8.63-19.25-19.2-19.25z" stroke="#000" stroke-width="1.11" fill="url(#m)"/><use xlink:href="#n" transform="matrix(1,0,0,1,304.6759682731739,228.72424998064) translate(7.0447216796875125 42.723)"/><use xlink:href="#o" transform="matrix(1,0,0,1,304.6759682731739,228.72424998064) translate(42.58804199218751 42.723)"/><use xlink:href="#p" transform="matrix(1,0,0,1,304.6759682731739,228.72424998064) translate(37.835913085937506 69.387)"/><path d="M638.75 415h-153.7c-10.57 0-19.2 8.62-19.2 19.25v79.6c0 10.64 8.63 19.26 19.2 19.26h153.7c10.57 0 19.2-8.6 19.2-19.24v-79.6c0-10.64-8.63-19.26-19.2-19.26z" stroke="#000" stroke-width="1.11" fill="url(#q)"/><use xlink:href="#r" transform="matrix(1,0,0,1,474.67596827317385,423.85825000156973) translate(22.125678710937507 42.723)"/><use xlink:href="#s" transform="matrix(1,0,0,1,474.67596827317385,423.85825000156973) translate(70.7319287109375 42.723)"/><use xlink:href="#t" transform="matrix(1,0,0,1,474.67596827317385,423.85825000156973) translate(134.3757373046875 42.723)"/><use xlink:href="#u" transform="matrix(1,0,0,1,474.67596827317385,423.85825000156973) translate(35.05298828125001 69.387)"/><path d="M813.75 605h-153.7c-10.57 0-19.2 8.62-19.2 19.25v79.6c0 10.64 8.63 19.26 19.2 19.26h153.7c10.57 0 19.2-8.6 19.2-19.24v-79.6c0-10.64-8.63-19.26-19.2-19.26z" stroke="#000" stroke-width="1.11" fill="url(#v)"/><use xlink:href="#w" transform="matrix(1,0,0,1,649.6759682731738,613.8582500015698) translate(4.668657226562502 29.391)"/><use xlink:href="#x" transform="matrix(1,0,0,1,649.6759682731738,613.8582500015698) translate(50.8662939453125 29.391)"/><use xlink:href="#y" transform="matrix(1,0,0,1,649.6759682731738,613.8582500015698) translate(126.7484619140625 29.391)"/><use xlink:href="#s" transform="matrix(1,0,0,1,649.6759682731738,613.8582500015698) translate(46.42880371093751 56.055)"/><use xlink:href="#t" transform="matrix(1,0,0,1,649.6759682731738,613.8582500015698) translate(110.0726123046875 56.055)"/><use xlink:href="#u" transform="matrix(1,0,0,1,649.6759682731738,613.8582500015698) translate(35.05298828125001 82.719)"/><path d="M8516.35 35582.98h27865.3v1975.27H8516.34z" stroke="#000" stroke-opacity="0" stroke-width="1.67" fill-opacity="0"/><use xlink:href="#z" transform="matrix(1,0,0,1,60.39440927314164,583.0164273618142) translate(0 19.055)"/><path d="M8516.35 40163.14h27865.3v1975.27H8516.34z" stroke="#000" stroke-opacity="0" stroke-width="1.67" fill-opacity="0"/><use xlink:href="#A" transform="matrix(1,0,0,1,60.39440927314164,683.8034273618142) translate(0 19.055)"/><path d="M440.8 218.94l71.87-64.6" fill="none"/><path d="M440.8 218.94l4-3.6m3.98-3.58l8-7.18m3.98-3.58l8-7.18m3.98-3.6l8-7.17m3.98-3.6l7.98-7.17m4-3.58l7.98-7.18m4-3.6l4-3.58" stroke="#000" stroke-width="1.11" fill="none"/><path d="M441.15 219.3h-1.6l.9-.78zM507.14 173.64l-1.06-.33 5.72-18.18-18.7 3.75-.2-1.08 20.52-4.13z"/><path d="M688 218.95l-76.84-64.64" fill="none"/><path d="M688 218.95l-4.28-3.6m-4.26-3.58l-8.54-7.18m-4.27-3.6l-8.54-7.18m-4.26-3.6l-8.53-7.18m-4.26-3.6l-8.54-7.17m-4.27-3.6l-8.54-7.17m-4.27-3.6l-4.27-3.6" stroke="#000" stroke-width="1.11" fill="none"/><path d="M689.28 219.3h-1.6l.66-.78zM631.04 157.1l-.2 1.1-18.8-3.13 6.32 18-1.05.35-6.92-19.75zM513.42 413.66l-.8.8-27.14-27.17h1.57zm-47.97-47.97h-1.57l-26.05-26.06.78-.8z"/><path d="M514.2 414.44h-1.57l.78-.8zM457.78 343.74l-.27 1.07-18.45-4.73 4.74 18.47-1.1.27-5.2-20.27z"/><use xlink:href="#B" transform="matrix(1,0,0,1,432.06127132312844,365.6879999895351) translate(0 14.4)"/><use xlink:href="#C" transform="matrix(1,0,0,1,432.06127132312844,365.6879999895351) translate(17.95 14.4)"/><use xlink:href="#D" transform="matrix(1,0,0,1,432.06127132312844,365.6879999895351) translate(71.8 14.4)"/><path d="M617.54 414.45l-.8-.8 26.4-26.36h1.56zm74.82-74.8l-26.05 26.04h-1.56l26.84-26.85z"/><path d="M617.55 414.44h-1.58l.8-.8zM687.47 358.8l-1.07-.27 4.74-18.46-18.46 4.74-.28-1.06 20.28-5.2z"/><use xlink:href="#B" transform="matrix(1,0,0,1,611.3193657470403,365.6879999895351) translate(0 14.4)"/><use xlink:href="#C" transform="matrix(1,0,0,1,611.3193657470403,365.6879999895351) translate(17.95 14.4)"/><use xlink:href="#D" transform="matrix(1,0,0,1,611.3193657470403,365.6879999895351) translate(71.8 14.4)"/><path d="M638.75 35h-153.7c-10.57 0-19.2 8.62-19.2 19.25v79.6c0 10.64 8.63 19.26 19.2 19.26h153.7c10.57 0 19.2-8.6 19.2-19.24v-79.6c0-10.64-8.63-19.26-19.2-19.26z" stroke="#000" stroke-width="1.11" fill="#fff"/><use xlink:href="#E" transform="matrix(1,0,0,1,474.67596827317385,43.858250001569736) translate(29.704130859375 56.055)"/><path d="M688.4 603.66l-.77.8-17.35-17.15h1.58zM650 565.7h-1.6l-31.32-30.93.78-.8z"/><path d="M689.2 604.45h-1.57l.77-.8zM637.07 538.75l-.27 1.07-18.5-4.62 4.86 18.43-1.07.28-5.35-20.23z"/><use xlink:href="#B" transform="matrix(1,0,0,1,616.7396094600729,565.7149681315225) translate(0 14.4)"/><use xlink:href="#C" transform="matrix(1,0,0,1,616.7396094600729,565.7149681315225) translate(17.95 14.4)"/><use xlink:href="#D" transform="matrix(1,0,0,1,616.7396094600729,565.7149681315225) translate(71.8 14.4)"/><path d="M988.75 382.42h-153.7c-10.57 0-19.2 8.62-19.2 19.25v79.6c0 10.64 8.63 19.26 19.2 19.26h153.7c10.57 0 19.2-8.62 19.2-19.25v-79.6c0-10.64-8.63-19.26-19.2-19.26z" stroke="#000" stroke-width="1.11" fill="#a5a5a5"/><use xlink:href="#F" transform="matrix(1,0,0,1,824.6759682731742,391.2782500015699) translate(58.189780273437506 56.055)"/><path d="M785.72 604l77.1-102.1" fill="none"/><path d="M785.72 604l3.2-4.25m3.22-4.26l6.43-8.52m3.2-4.25l6.43-8.5m3.22-4.27l6.42-8.5m3.2-4.26l6.44-8.5m3.2-4.26l6.43-8.5m3.23-4.27l6.42-8.5m3.2-4.26l6.44-8.5m3.2-4.25l3.2-4.26" stroke="#000" stroke-width="1.11" fill="none"/><path d="M786.17 604.33l-.1.12h-1.38l.58-.8zM861.07 521.9l-1.1-.13 2.13-18.94-17.63 7.24-.42-1.02 19.37-7.96z"/><path d="M659.06 473.94l155.24-32.26" fill="none"/><path d="M659.06 473.94l5.18-1.07m5.17-1.08l10.36-2.16m5.17-1.07l10.35-2.16m5.18-1.06l10.35-2.15m5.18-1.1l10.35-2.14m5.17-1.07l10.35-2.16m5.18-1.08l10.35-2.15m5.17-1.07l10.35-2.15m5.17-1.07l10.35-2.14m5.18-1.08l10.35-2.15m5.17-1.07l5.18-1.08" stroke="#000" stroke-width="1.11" fill="none"/><path d="M659.2 474.48l-.68.14v-1.13l.44-.1zM815.28 441.48l-15.47 14.1-.74-.82 14.1-12.84-18.05-6.16.37-1.05zM515.08 573.22l-.62 1.5-1.5.6h-5.3v-1.1h5.1l.85-.36.37-.87v-7.1h1.1zm-12.65 2.1h-1.04v-1.1h1.03zm-6.25 0h-1.04v-1.1h1.04zm-6.26 0H479.5v-1.1h10.42zm-15.63 0h-1.06v-1.1h1.05zm-6.27 0H467v-1.1h1.03zm-6.25 0h-10.43v-1.1h10.43zm-15.64 0h-1.04v-1.1h1.04zm-6.25 0h-1.06v-1.1h1.05zm-6.27 0H423.2v-1.1h10.43zm-15.64 0h-1.05v-1.1H418zm-6.26 0h-1.04v-1.1h1.04zm-6.26 0h-10.42v-1.1h10.42zm-15.63 0h-1.05v-1.1h1.05zm-6.26 0h-1.05v-1.1h1.04zm-6.26 0H366.9v-1.1h10.44zm-15.64 0h-1.04v-1.1h1.04zm-6.25 0h-1.05v-1.1h1.05zm-12.6-2.33l.37.86.87.36h5.1v1.1h-5.33l-1.5-.6-.62-1.5v-5.47h1.1zm0-10.6h-1.1v-1.1h1.1zm172.23-3.7h-1.1v-1.44h1.1zm-172.22-2.75h-1.1v-1.07h1.1zm172.22-5.9h-1.1v-1.43h1.1zm-172.22-.53h-1.1V538.8h1.1zm172.22-8.1h-1.1v-7.2h1.1zm-172.22-7.98h-1.1v-1.07h1.1zm0-6.43h-1.1v-1.06h1.1zm0-6.42h-1.1v-10.72h1.1zm0-16.08h-1.1v-1.07h1.1zm0-28.94h-1.1v-1.08h1.1zm0-6.44h-1.1v-1.07h1.1zm0-6.43h-1.1v-10.73h1.1zm0-16.1h-1.1v-1.06h1.1zm0-6.42h-1.1v-1.07h1.1zm0-6.43h-1.1v-10.72h1.1zm0-16.08h-1.1v-1.07h1.1zm0-6.43h-1.1v-1.08h1.1zm0-6.44h-1.1v-10.7h1.1zm0-16.07h-1.1v-1.08h1.1zm0-6.44h-1.1v-1.08h1.1zm0-6.44h-1.1v-10.72h1.1zm0-16.08h-1.1v-1.07h1.1zm0-6.43h-1.1v-1.07h1.1zm0-6.43h-1.1v-5.36h1.1z"/><path d="M512.86 573.1h-5.73V572h4.62v-6.54h1.1zm-10.9 0h-1.04V572h1.03zm-6.22 0h-1.04V572h1.04zm-6.22 0h-10.35V572h10.35zm-15.53 0h-1.05V572H474zm-6.23 0h-1.03V572h1.03zm-6.2 0H451.2V572h10.36zm-15.55 0H445V572H446zm-6.2 0h-1.04V572h1.03zm-6.22 0h-10.36V572h10.36zm-15.54 0h-1.03V572h1.03zm-6.2 0h-1.05V572h1.05zm-6.23 0h-10.35V572h10.35zm-15.53 0h-1.04V572h1.04zm-6.22 0h-1.03V572h1.03zm-6.2 0H367.3V572h10.37zm-15.55 0h-1.03V572h1.03zm-6.2 0h-1.04V572h1.02zm-10.85-1.1h4.63v1.1h-5.73v-5.9h1.1zm0-10.14h-1.1v-1.07h1.1zm167.78-3.5h-1.1v-1.42h1.1zm-167.78-2.92h-1.1v-1.07h1.1zm167.78-5.6h-1.1v-1.42h1.1zm-167.78-.8h-1.1v-10.7h1.1zm167.78-7.72h-1.1v-7.1h1.1zM345.08 533h-1.1v-1.08h1.1zm0-6.43h-1.1v-1.07h1.1zm0-6.42h-1.1v-10.7h1.1zm0-16.04h-1.1v-1.06h1.1zm0-28.86h-1.1v-1.07h1.1zm0-6.42h-1.1v-1.07h1.1zm0-6.42h-1.1v-10.7h1.1zm0-16.04h-1.1v-1.07h1.1zm0-6.4h-1.1v-1.08h1.1zm0-6.43h-1.1v-10.7h1.1zm0-16.04h-1.1v-1.08h1.1zm0-6.43h-1.1V410h1.1zm0-6.42h-1.1v-10.7h1.1zm0-16.04h-1.1v-1.06h1.1zm0-6.4h-1.1v-1.07h1.1zm0-6.42h-1.1v-10.7h1.1zm0-16.04h-1.1v-1.07h1.1zm0-6.42h-1.1v-1.07h1.1zm0-6.4h-1.1v-5.36h1.1zM515.08 534.23h-1.1v-.57h1.1z"/><path d="M512.86 534.23h-1.1v-.57h1.1zM354.08 356.55l-.96.57-9.7-16.4-9.7 16.4-.96-.57 10.66-18.02z"/><path d="M690.08 763.22l-.62 1.5-1.5.6h-5.9v-1.1h5.7l.85-.36.37-.87v-7.1h1.1zm-13.8 2.1h-1.16v-1.1h1.16zm-6.95 0h-1.16v-1.1h1.16zm-6.94 0h-11.6v-1.1h11.6zm-17.38 0h-1.16v-1.1h1.16zm-6.95 0h-1.16v-1.1h1.17zm-6.95 0h-11.57v-1.1h11.57zm-17.36 0h-1.16v-1.1h1.16zm-6.95 0h-1.15v-1.1h1.16zm-6.94 0h-11.58v-1.1h11.58zm-17.37 0h-1.16v-1.1h1.15zm-6.95 0h-1.16v-1.1h1.15zm-6.95 0h-11.58v-1.1h11.58zm-17.37 0h-1.16v-1.1h1.16zm-6.94 0h-1.17v-1.1h1.16zm-6.96 0h-11.58v-1.1h11.58zm-17.37 0h-1.16v-1.1h1.17zm-6.95 0h-1.15v-1.1h1.15zm-6.94 0H494.5v-1.1h11.58zm-17.37 0h-1.15v-1.1h1.16zm-6.94 0h-1.16v-1.1h1.16zm-6.95 0h-11.56v-1.1h11.57zm-17.35 0h-1.16v-1.1h1.15zm-6.95 0h-1.16v-1.1h1.16zm-6.95 0h-11.58v-1.1h11.58zm-17.36 0h-1.17v-1.1h1.16zm-6.96 0h-1.16v-1.1h1.16zm-6.95 0h-11.6v-1.1h11.6zm-17.38 0h-1.15v-1.1h1.15zm-6.94 0h-1.16v-1.1h1.16zm-6.95 0h-11.58v-1.1h11.58zm-17.37 0h-1.16v-1.1h1.16zm-6.95 0h-1.14v-1.1h1.15zM342.87 763l.36.86.87.36h5.67v1.1h-5.9l-1.5-.6-.62-1.5v-5.7h1.1zm0-11.05h-1.1v-1.1h1.1zm347.22-3.25h-1.1v-1.44h1.1zm-347.22-3.44h-1.1v-1.1h1.1zm347.22-5.2h-1.1v-1.44h1.1zm-347.22-1.5h-1.1v-11.14h1.1zm347.22-7.14h-1.1v-7.2h1.1zm-347.22-9.58h-1.1v-1.1h1.1zm0-6.7h-1.1v-1.1h1.1zm0-6.68h-1.1V697.3h1.1zm0-16.73h-1.1v-1.1h1.1zm0-6.7h-1.1v-1.1h1.1zm0-6.68h-1.1V667.2h1.1zm0-16.73h-1.1v-1.1h1.1zm0-6.7h-1.1v-1.1h1.1zm0-6.68h-1.1V637.1h1.1zm0-16.73h-1.1v-1.1h1.1zm0-6.68h-1.1v-1.12h1.1zm0-6.7h-1.1V607h1.1zm0-16.72h-1.1v-1.1h1.1zm0-6.7h-1.1v-1.1h1.1zm0-6.68h-1.1v-11.15h1.1zm0-16.73h-1.1v-1.13h1.1zm0-6.7h-1.1v-1.12h1.1zm0-6.7h-1.1v-11.14h1.1zm0-16.72h-1.1v-1.12h1.1zm0-6.7h-1.1v-1.1h1.1zm0-6.68h-1.1v-11.15h1.1zm0-16.73h-1.1v-1.12h1.1zm0-6.7h-1.1v-1.1h1.1zm0-30.1h-1.1v-1.12h1.1zm0-6.7h-1.1v-11.15h1.1zm0-16.72h-1.1v-1.12h1.1zm0-6.7h-1.1v-1.1h1.1zm0-6.68h-1.1V426.3h1.1zm0-16.73h-1.1v-1.12h1.1zm0-6.7h-1.1v-1.1h1.1zm0-6.68h-1.1V396.2h1.1zm0-16.73h-1.1v-1.12h1.1zm0-6.7h-1.1v-1.1h1.1zm0-6.7h-1.1V366.1h1.1zm0-16.7h-1.1v-1.13h1.1zm0-6.7h-1.1v-1.12h1.1zm0-6.7h-1.1v-5.57h1.1z"/><path d="M687.86 763.1h-6.32V762h5.2v-6.54h1.12zm-12.1 0h-1.15V762h1.17zm-6.92 0h-1.15V762h1.14zm-6.92 0h-11.54V762h11.54zm-17.3 0h-1.17V762h1.16zm-6.94 0h-1.15V762h1.15zm-6.92 0H619.2V762h11.56zm-17.32 0h-1.15V762h1.14zm-6.92 0h-1.16V762h1.16zm-6.93 0h-11.55V762h11.54zm-17.32 0h-1.15V762h1.15zm-6.92 0h-1.16V762h1.16zm-6.93 0H556.9V762h11.53zm-17.3 0h-1.16V762h1.15zm-6.94 0h-1.16V762h1.15zm-6.93 0h-11.54V762h11.54zm-17.3 0h-1.17V762h1.16zm-6.94 0h-1.15V762h1.15zm-6.92 0h-11.53V762h11.54zm-17.3 0h-1.16V762h1.16zm-6.93 0h-1.15V762h1.15zm-6.92 0H463.4V762h11.55zm-17.32 0h-1.15V762h1.15zm-6.92 0h-1.14V762h1.15zm-6.92 0h-11.54V762h11.54zm-17.3 0h-1.16V762h1.15zm-6.93 0h-1.16V762h1.15zm-6.93 0h-11.54V762h11.54zm-17.3 0h-1.16V762h1.15zm-6.93 0h-1.17V762h1.16zm-6.94 0h-11.54V762h11.54zm-17.3 0h-1.17V762h1.15zm-6.94 0h-1.15V762h1.15zm-12.14-1.1h5.22v1.1h-6.33V757h1.1zm0-10.58h-1.1v-1.12h1.1zm342.78-3.06h-1.1v-1.42h1.1zm-342.78-3.62h-1.1v-1.12h1.1zm342.78-4.9h-1.1v-1.42h1.1zm-342.78-1.8h-1.1v-11.12h1.1zm342.78-6.72h-1.1v-7.1h1.1zm-342.78-9.97h-1.1v-1.12h1.1zm0-6.7h-1.1v-1.1h1.1zm0-6.67h-1.1v-11.14h1.1zm0-16.7h-1.1v-1.12h1.1zm0-6.7h-1.1v-1.1h1.1zm0-6.67h-1.1v-11.13h1.1zm0-16.7h-1.1v-1.1h1.1zm0-6.68h-1.1v-1.1h1.1zm0-6.68h-1.1V636.7h1.1zm0-16.7h-1.1V630h1.1zm0-6.7h-1.1v-1.1h1.1zm0-6.67h-1.1v-11.14h1.1zm0-16.7h-1.1v-1.12h1.1zm0-6.7h-1.1v-1.1h1.1zm0-6.67h-1.1v-11.14h1.1zm0-16.7h-1.1v-1.12h1.1zm0-6.7h-1.1v-1.1h1.1zm0-6.67h-1.1V546.5h1.1zm0-16.7h-1.1v-1.12h1.1zm0-6.7h-1.1v-1.1h1.1zm0-6.68h-1.1v-11.13h1.1zm0-16.7h-1.1v-1.12h1.1zm0-6.68h-1.1v-1.12h1.1zm0-30.08h-1.1v-1.12h1.1zm0-6.7h-1.1v-11.13h1.1zm0-16.7h-1.1v-1.1h1.1zm0-6.68h-1.1v-1.1h1.1zm0-6.68h-1.1V426.2h1.1zm0-16.7h-1.1v-1.12h1.1zm0-6.7h-1.1v-1.1h1.1zm0-6.67h-1.1v-11.14h1.1zm0-16.7h-1.1v-1.12h1.1zm0-6.7h-1.1v-1.1h1.1zm0-6.67h-1.1v-11.14h1.1zm0-16.7h-1.1v-1.12h1.1zm0-6.7h-1.1v-1.1h1.1zm0-6.67h-1.1v-5.57h1.1zM690.08 724.23h-1.1v-.57h1.1z"/><path d="M687.86 724.23h-1.1v-.57h1.1zM354.08 356.55l-.96.57-9.7-16.4-9.7 16.4-.96-.57 10.66-18.02z"/><g><use xlink:href="#B" transform="matrix(1,0,0,1,261.5932713506163,477.20000000000005) translate(0 14.4)"/><use xlink:href="#G" transform="matrix(1,0,0,1,261.5932713506163,477.20000000000005) translate(17.95 14.4)"/><use xlink:href="#C" transform="matrix(1,0,0,1,261.5932713506163,477.20000000000005) translate(94.80000000000001 14.4)"/><use xlink:href="#D" transform="matrix(1,0,0,1,261.5932713506163,477.20000000000005) translate(148.65 14.4)"/></g><path d="M787.05 762h4.8v1.1h-5.9v-7.64h1.1zm11.25 1.1h-1.08V762h1.08zm6.43 0h-1.07V762h1.07zm16.1 0H810.1V762h10.73zm6.44 0h-1.08V762h1.07zm6.44 0h-1.07V762h1.08zm16.1 0h-10.73V762h10.73zm6.44 0h-1.08V762h1.08zm6.44 0h-1.08V762h1.08zm16.1 0h-10.74V762h10.73zm6.43 0h-1.06V762h1.07zm6.45 0h-1.08V762h1.08zm16.1 0H897V762h10.74zm6.43 0h-1.07V762h1.08zm6.44 0h-1.08V762h1.08zm16.1 0h-10.74V762h10.73zm6.43 0h-1.07V762h1.07zm6.44 0h-1.1V762h1.1zm16.08 0h-10.73V762h10.73zm6.44 0h-1.07V762h1.07zm6.44 0h-1.08V762h1.08zm16.1 0H983.9V762h10.73zm6.43 0H1000V762h1.07zm6.43 0h-1.08V762h1.08zm16.1 0h-10.74V762h10.72zm6.43 0H1029V762h1.06zm6.44 0h-1.07V762h1.07zm11.28 0h-5.92V762h4.8v-5.03h1.12zm0-11.7h-1.1v-1.13h1.1zm-260.73-3.04h-1.1v-1.42h1.1zm260.73-3.68h-1.1v-1.1h1.1zm-260.73-4.84h-1.1v-1.42h1.1zm260.73-1.86h-1.1V726.8h1.1zm-260.73-6.66h-1.1v-7.1h1.1zm260.73-10.1h-1.1v-1.1h1.1zm0-6.7h-1.1v-1.1h1.1zm0-6.7h-1.1v-11.17h1.1zm0-16.75h-1.1v-1.12h1.1zm0-6.7h-1.1v-1.12h1.1zm0-6.7h-1.1V666.5h1.1zm0-16.76h-1.1v-1.1h1.1zm0-44.34h-1.1v-10.38h1.1zm0-15.96h-1.1v-1.12h1.1zm0-6.7h-1.1v-1.12h1.1zm0-6.7h-1.1V576h1.1zm0-16.76h-1.1v-1.12h1.1zm0-6.7h-1.1v-1.12h1.1zm0-6.7h-1.1v-11.17h1.1zm0-16.76h-1.1v-1.12h1.1zm0-6.7h-1.1v-1.12h1.1zm0-6.7h-1.1V515.7h1.1zm0-16.76h-1.1v-1.1h1.1zm0-6.7h-1.1v-1.12h1.1zm0-6.7h-1.1v-11.17h1.1zm0-16.75h-1.1v-1.12h1.1zm0-6.7h-1.1v-1.12h1.1zm0-6.7h-1.1v-11.18h1.1zm0-16.76h-1.1v-1.1h1.1zm0-6.7h-1.1V442h1.1zm0-6.7h-1.1v-11.17h1.1zm0-16.75h-1.1v-1.12h1.1zm0-6.7h-1.1v-1.12h1.1zm0-6.7h-1.1v-11.17h1.1zm0-16.76h-1.1v-1.12h1.1zm0-6.7h-1.1v-1.13h1.1zm0-6.7h-1.1V364.9h1.1zm0-16.77h-1.1v-1.1h1.1zm0-6.7h-1.1v-1.1h1.1zm0-6.7h-1.1v-11.17h1.1zm0-16.75h-1.1v-1.12h1.1zm0-6.7h-1.1v-1.12h1.1zm0-6.7h-1.1V304.6h1.1zm0-16.76h-1.1v-1.12h1.1zm0-6.7h-1.1v-1.12h1.1zm0-6.7h-1.1v-5.03h-5.03v-1.12h6.13zm-11.7-5.03h-1.1v-1.12h1.1zm-6.7 0h-1.1v-1.12h1.1zm-6.68 0h-11.14v-1.12h11.14zm-16.72 0h-1.1v-1.12h1.1zm-6.68 0h-1.12v-1.12h1.12zm-6.7 0h-11.14v-1.12h11.15zm-16.7 0h-1.13v-1.12h1.12zm-6.7 0h-1.12v-1.12h1.12zm-6.7 0h-11.14v-1.12h11.15zm-16.7 0h-1.13v-1.12h1.12zm-6.7 0H938v-1.12h1.1zm-6.7 0h-11.13v-1.12h11.14zm-16.7 0h-1.12v-1.12h1.1zm-6.7 0h-1.1v-1.12h1.1zm-6.7 0h-11.13v-1.12h11.14zm-16.7 0h-1.12v-1.12h1.1zm-6.7 0h-1.1v-1.12h1.1zm-6.68 0h-11.15v-1.12h11.15zm-16.72 0h-1.12v-1.12h1.12zm-6.7 0h-1.1v-1.12h1.1zm-6.68 0h-5.57v-1.12h5.57z"/><path d="M784.83 763l.36.86.85.36h5.28v1.1h-5.5l-1.5-.6-.6-1.5v-7.32h1.1zm12.97 2.33h-1.08v-1.1h1.08zm6.46 0h-1.08v-1.1h1.08zm16.16 0h-10.77v-1.1h10.77zm6.47 0h-1.1v-1.1h1.1zm6.45 0h-1.07v-1.1h1.07zm16.17 0h-10.78v-1.1h10.78zm6.46 0h-1.08v-1.1h1.08zm6.47 0h-1.08v-1.1h1.08zm16.16 0h-10.77v-1.1h10.78zm6.47 0H884v-1.1h1.07zm6.47 0h-1.08v-1.1h1.08zm16.16 0h-10.77v-1.1h10.77zm6.47 0h-1.08v-1.1h1.07zm6.46 0h-1.08v-1.1h1.08zm16.16 0H926v-1.1h10.77zm6.46 0h-1.08v-1.1h1.08zm6.47 0h-1.08v-1.1h1.08zm16.16 0h-10.8v-1.1h10.8zm6.45 0h-1.07v-1.1h1.07zm6.47 0h-1.08v-1.1h1.08zm16.16 0H984.2v-1.1H995zm6.47 0h-1.08v-1.1h1.08zm6.46 0h-1.07v-1.1h1.08zm16.17 0h-10.77v-1.1h10.77zm6.47 0h-1.08v-1.1h1.08zm6.46 0h-1.07v-1.1h1.07zm13-2.1l-.62 1.48-1.5.63h-5.5v-1.1h5.3l.85-.37.36-.87v-5.5h1.1zm0-11.32h-1.1v-1.1h1.1zm-265.17-3.2h-1.1v-1.44h1.1zm265.17-3.5h-1.1v-1.13h1.1zm-265.17-5.14h-1.1v-1.44h1.1zm265.17-1.58h-1.1v-11.2h1.1zm-265.17-7.06h-1.1v-7.2h1.1zm265.17-9.74h-1.1v-1.12h1.1zm0-6.7h-1.1v-1.13h1.1zm0-6.73h-1.1v-11.2h1.1zm0-16.8h-1.1v-1.1h1.1zm0-6.7h-1.1v-1.13h1.1zm0-6.73h-1.1v-11.2h1.1zm0-16.8h-1.1v-1.1h1.1zm0-44.66h-1.1v-10.18h1.1zm0-15.78h-1.1v-1.12h1.1zm0-6.72h-1.1v-1.12h1.1zm0-6.72h-1.1v-11.2h1.1zm0-16.8h-1.1v-1.1h1.1zm0-6.7h-1.1v-1.13h1.1zm0-6.72h-1.1v-11.2h1.1zm0-16.8h-1.1v-1.12h1.1zm0-6.7h-1.1v-1.13h1.1zm0-6.73h-1.1v-11.2h1.1zm0-16.8h-1.1v-1.12h1.1zm0-6.72h-1.1v-1.12h1.1zm0-6.72h-1.1v-11.2h1.1zm0-16.8h-1.1v-1.1h1.1zm0-6.7h-1.1v-1.13h1.1zm0-6.72h-1.1v-11.2h1.1zm0-16.8h-1.1v-1.1h1.1zm0-6.7h-1.1v-1.13h1.1zm0-6.73h-1.1v-11.18h1.1zm0-16.78h-1.1v-1.12h1.1zm0-6.72h-1.1v-1.12h1.1zm0-6.72h-1.1v-11.2h1.1zm0-16.8h-1.1v-1.1h1.1zm0-6.7h-1.1v-1.12h1.1zm0-6.72h-1.1v-11.2h1.1zm0-16.8h-1.1v-1.1h1.1zm0-6.7h-1.1v-1.13h1.1zm0-6.73h-1.1v-11.2h1.1zm0-16.8h-1.1v-1.1h1.1zm0-6.7h-1.1v-1.13h1.1zm0-6.72h-1.1v-11.2h1.1zm0-16.8h-1.1v-1.1h1.1zm0-6.7h-1.1v-1.12h1.1zm-.62-13.92l.62 1.5v5.7h-1.1v-5.5l-.37-.86-.86-.35h-5.48v-1.1h5.7zm-12.78.5h-1.12v-1.12h1.12zm-6.7 0h-1.12v-1.12h1.12zm-6.7 0H1012v-1.12h11.2zm-16.77 0h-1.12v-1.12h1.13zm-6.7 0h-1.13v-1.12h1.12zm-6.72 0h-11.16v-1.12H993zm-16.75 0h-1.12v-1.12h1.12zm-6.7 0h-1.12v-1.12h1.1zm-6.7 0h-11.2v-1.12h11.2zm-16.78 0h-1.1v-1.12h1.1zm-6.7 0h-1.12v-1.12h1.12zm-6.7 0h-11.18v-1.12h11.16zm-16.77 0h-1.12v-1.12h1.12zm-6.7 0h-1.13v-1.12h1.12zm-6.7 0h-11.2v-1.12h11.2zm-16.78 0h-1.12v-1.12h1.12zm-6.7 0h-1.12v-1.12h1.12zm-6.7 0h-11.2v-1.12h11.2zm-16.77 0h-1.12v-1.12h1.12zm-6.7 0h-1.13v-1.12h1.12zm-6.72 0h-5.58v-1.12h5.58zM787.05 724.23h-1.1v-.57h1.1z"/><path d="M784.83 724.23h-1.1v-.57h1.1zM852.1 269.22l-16.4 9.7 16.4 9.7-.56.96-18.02-10.66 18.02-10.66z"/><g><use xlink:href="#B" transform="matrix(1,0,0,1,1003.4381722731417,616.5620287121318) translate(0.005000000000002558 14.4)"/><use xlink:href="#H" transform="matrix(1,0,0,1,1003.4381722731417,616.5620287121318) translate(17.955000000000002 14.4)"/><use xlink:href="#I" transform="matrix(1,0,0,1,1003.4381722731417,616.5620287121318) translate(10.480000000000011 36)"/><use xlink:href="#D" transform="matrix(1,0,0,1,1003.4381722731417,616.5620287121318) translate(64.33000000000001 36)"/></g><path d="M37.84 844.52v-84.6" fill="none"/><path d="M37.84 844.52v-5.22m0-5.23v-1.04m0-5.22v-1.04m0-5.22V811.1m0-5.23v-1.04m0-5.23v-1.04m0-5.22V782.9m0-5.23v-1.05m0-5.22v-1.04m0-5.23v-5.22" stroke="#000" stroke-width="1.11" fill="none"/><path d="M40.06 844.52v-84.6" fill="none"/><path d="M40.06 844.52v-5.22m0-5.23v-1.04m0-5.22v-1.04m0-5.22V811.1m0-5.23v-1.04m0-5.23v-1.04m0-5.22V782.9m0-5.23v-1.05m0-5.22v-1.04m0-5.23v-5.22M37.84 844.5v.57M40.06 844.5v.57M49.13 775.2l-10.18-17.23-10.18 17.22" stroke="#000" stroke-width="1.11" fill="none"/><path d="M8516.35 40276.6h27865.3v1975.27H8516.34z" stroke="#000" stroke-opacity="0" stroke-width="1.67" fill-opacity="0"/><g><use xlink:href="#J" transform="matrix(1,0,0,1,60.39440927314164,797.2594427902786) translate(0 5.7230000000000025)"/><use xlink:href="#K" transform="matrix(1,0,0,1,60.39440927314164,797.2594427902786) translate(0 32.387)"/></g><defs><path d="M575-854c-119 2-197 63-259 134V0H140v-978c55 7 141-23 150 36l15 104c78-83 170-155 321-155 223 0 325 146 325 370V0H775v-623c0-140-61-233-200-231" id="L"/><path d="M75-490c0-310 160-503 466-503s464 194 464 503c0 310-158 504-464 504C234 14 75-180 75-490zm181 1c0 215 74 366 285 366 210 0 283-152 283-366s-74-367-283-367c-211 0-285 152-285 367" id="M"/><path d="M75-653h478v149H75v-149" id="N"/><path d="M994-906c0 279-183 411-470 416H329V0H147v-1314h377c290 3 470 124 470 408zm-182 0c0-176-103-265-288-265H329v537h195c180-4 288-94 288-272" id="O"/><path d="M969-949c0 213-127 324-301 372 24 16 43 33 61 57L1082 0c-87-8-195 23-235-37L536-505c-21-29-36-41-85-41H329V0H147v-1314h360c275 2 462 97 462 365zM500-679c179-3 292-82 292-257 0-157-95-235-285-235H329v492h171" id="P"/><path d="M1240-928c58 159 58 383 0 542-85 230-258 400-561 400S201-157 116-386c-59-159-59-383 0-542 86-230 259-401 563-401s477 171 561 401zm-172 486c38-122 39-308 0-430-56-173-170-300-389-300-293 0-420 215-420 515 0 237 85 404 247 479 99 47 246 46 346 0 107-49 178-142 216-264" id="Q"/><path d="M882-1314v148H321v455h477v148H321V0H138v-1314h744" id="R"/><g id="a"><use transform="matrix(0.010849609375,0,0,0.010849609375,0,0)" xlink:href="#L"/><use transform="matrix(0.010849609375,0,0,0.010849609375,11.674179687499999,0)" xlink:href="#M"/><use transform="matrix(0.010849609375,0,0,0.010849609375,23.391757812499993,0)" xlink:href="#L"/><use transform="matrix(0.010849609375,0,0,0.010849609375,35.0659375,0)" xlink:href="#N"/><use transform="matrix(0.010849609375,0,0,0.010849609375,41.868642578125,0)" xlink:href="#O"/><use transform="matrix(0.010849609375,0,0,0.010849609375,53.347529296874995,0)" xlink:href="#P"/><use transform="matrix(0.010849609375,0,0,0.010849609375,65.19530273437499,0)" xlink:href="#Q"/><use transform="matrix(0.010849609375,0,0,0.010849609375,79.907373046875,0)" xlink:href="#R"/></g><path d="M1052-184C961-66 832 17 628 14c-289-4-447-172-522-398-53-160-53-388 3-546 81-226 241-394 534-399 180-3 301 72 392 167-25 33-46 70-75 99-51 21-73-33-114-51-77-60-256-80-362-23-152 81-231 248-231 480 0 233 83 400 235 481 113 60 301 37 376-30 33-15 74-101 116-56" id="S"/><path d="M323-1422V0H147v-1422h176" id="T"/><path d="M514-995c228 0 341 142 341 370V0c-56-5-123 17-137-41l-22-91C610-53 522 18 358 15 189 12 84-73 84-244c0-178 154-235 319-276 76-19 169-27 280-30 12-176-30-304-190-304-107 0-171 42-231 86-34 25-81 14-98-16l-32-56c98-93 207-155 382-155zM253-253c0 98 61 145 158 145 133 0 205-61 272-130v-202c-134 6-246 19-333 58-57 26-97 59-97 129" id="U"/><path d="M95-709c0-188 136-281 332-284 128-2 226 47 291 114-25 33-46 112-108 74-47-29-100-60-179-58-97 2-169 47-169 140 0 121 140 131 235 168 118 46 235 94 235 255C732-91 595 11 381 15 247 17 139-38 70-104c26-39 56-126 124-80 51 35 104 76 195 74 109-2 179-54 179-159 0-126-138-136-236-173C209-488 95-543 95-709" id="V"/><g id="b"><use transform="matrix(0.010849609375,0,0,0.010849609375,0,0)" xlink:href="#S"/><use transform="matrix(0.010849609375,0,0,0.010849609375,11.847773437499999,0)" xlink:href="#T"/><use transform="matrix(0.010849609375,0,0,0.010849609375,16.94708984375,0)" xlink:href="#U"/><use transform="matrix(0.010849609375,0,0,0.010849609375,27.590556640625,0)" xlink:href="#V"/><use transform="matrix(0.010849609375,0,0,0.010849609375,36.28109375,0)" xlink:href="#V"/></g><path d="M913-1314v148H328v431h471v143H328v444h586L913 0H145v-1314h768" id="W"/><path d="M544 14C232 14 75-190 75-509c0-226 105-376 267-447 57-25 122-37 193-37 265 0 410 167 410 437 0 47-2 68-42 68H249c7 217 94 359 310 364 110 2 183-39 248-80 70-44 93 39 123 67C847-42 716 14 544 14zm243-610c-5-164-86-266-249-269-173-3-262 113-284 269h533" id="X"/><path d="M545-854c-104 0-170 61-222 126V0H147v-978c54 8 140-23 149 36l15 100c68-77 143-150 284-151 143-1 221 88 255 203 52-123 153-201 320-203 220-2 335 143 335 370V0h-176v-623c1-143-65-231-201-231-139 0-216 89-216 231V0H736v-623c1-145-55-231-191-231" id="Y"/><path d="M650-73c-53 51-136 87-233 88-153 0-235-95-235-251v-596c-55-8-148 24-148-39v-70l154-20 41-301c4-50 80-28 129-33v335h269v128H358v584c-2 72 34 118 99 120 56 2 78-32 116-46 15 0 19 7 25 17" id="Z"/><g id="c"><use transform="matrix(0.0130224609375,0,0,0.0130224609375,0,0)" xlink:href="#W"/><use transform="matrix(0.0130224609375,0,0,0.0130224609375,13.0224609375,0)" xlink:href="#T"/><use transform="matrix(0.0130224609375,0,0,0.0130224609375,19.143017578125,0)" xlink:href="#X"/><use transform="matrix(0.0130224609375,0,0,0.0130224609375,32.4129052734375,0)" xlink:href="#Y"/><use transform="matrix(0.0130224609375,0,0,0.0130224609375,53.7176513671875,0)" xlink:href="#X"/><use transform="matrix(0.0130224609375,0,0,0.0130224609375,66.9875390625,0)" xlink:href="#L"/><use transform="matrix(0.0130224609375,0,0,0.0130224609375,80.7522802734375,0)" xlink:href="#Z"/><path d="M-1.33.08h98.38V2.6H-1.33z"/></g><path d="M306-740c60 2 107 0 133-38l339-494c22-28 41-41 86-42h156L620-750c-21 29-44 49-67 61 31 11 60 31 83 65L1049 0c-85-7-198 21-238-38L463-558c-23-30-38-42-90-42h-67V0H124v-1314h182v574" id="aa"/><path d="M409 288c-14 65-120 35-192 42L385-58 11-978h152c30-1 46 16 53 36 86 232 175 459 256 696 80-235 169-463 250-696 20-58 122-29 191-36" id="ab"/><g id="d"><use transform="matrix(0.0130224609375,0,0,0.0130224609375,0,0)" xlink:href="#aa"/><use transform="matrix(0.0130224609375,0,0,0.0130224609375,13.3740673828125,0)" xlink:href="#X"/><use transform="matrix(0.0130224609375,0,0,0.0130224609375,26.4746630859375,0)" xlink:href="#ab"/><path d="M-1.33.08h41.2V2.6h-41.2z"/></g><g id="e"><use transform="matrix(0.010849609375,0,0,0.010849609375,0,0)" xlink:href="#O"/><use transform="matrix(0.010849609375,0,0,0.010849609375,11.47888671875,0)" xlink:href="#P"/><use transform="matrix(0.010849609375,0,0,0.010849609375,23.32666015625,0)" xlink:href="#Q"/><use transform="matrix(0.010849609375,0,0,0.010849609375,38.03873046875,0)" xlink:href="#R"/></g><linearGradient gradientUnits="userSpaceOnUse" id="f" x1="9.97" y1="405.6" x2="9.97" y2="523.72"><stop offset="0%" stop-color="#fff"/><stop offset="12.18%" stop-color="#fff"/><stop offset="100%" stop-color="#dbdbdb"/></linearGradient><path d="M21-978c68 8 173-25 191 37 66 230 131 458 192 691 6 21 9 43 12 64 75-256 159-506 233-760 13-43 73-33 125-34 27 0 43 14 50 34 75 254 156 502 227 760 7-43 18-87 31-132l179-624c15-59 116-29 182-36L1136 0H996c-17 0-28-11-35-33-73-235-147-469-219-705-4-15-7-30-10-45-7 32-14 62-23 92L501-33C485 26 391-10 329 0" id="ac"/><path d="M271-232c74 0 125 50 125 125 0 74-52 123-125 123S149-34 149-107c0-74 48-125 122-125zm-6-678c74 0 125 50 125 125 0 74-52 123-125 123s-122-50-122-123c0-74 48-125 122-125" id="ad"/><g id="g"><use transform="matrix(0.010849609375,0,0,0.010849609375,0,0)" xlink:href="#M"/><use transform="matrix(0.010849609375,0,0,0.010849609375,11.63078125,0)" xlink:href="#ac"/><use transform="matrix(0.010849609375,0,0,0.010849609375,27.514609375,0)" xlink:href="#T"/><use transform="matrix(0.010849609375,0,0,0.010849609375,32.613925781249996,0)" xlink:href="#ad"/></g><path d="M304-1012c2 28 4 55 4 84V0H148v-1314c60 5 126-11 157 31l714 983c-2-29-5-61-5-91v-923h160V0c-61-3-126 10-156-32" id="ae"/><path d="M492-995c127 0 201 45 264 114v-541h176V0c-55-7-141 23-150-36l-18-117C688-64 595 14 440 14 170 14 74-204 74-486c0-228 88-392 242-470 52-26 111-39 176-39zM255-486c2 201 49 359 242 359 130 0 195-67 259-146v-473c-54-73-114-114-224-114-197 0-279 159-277 374" id="af"/><path d="M349 0H167v-1314h182V0" id="ag"/><path d="M323-978V0H147v-978h176zm-91-431c74 0 125 50 125 125 0 74-52 123-125 123s-122-50-122-123c0-74 48-125 122-125" id="ah"/><path d="M542 0H383L19-978h145c26-1 46 18 53 36 77 231 156 461 231 694 7 22 12 44 17 67 10-48 25-91 40-135l212-626c18-58 121-29 189-36" id="ai"/><path d="M450 15c-223 0-325-146-325-370v-623h176v623c0 141 61 233 200 231 119-1 195-63 259-133v-721h176V0c-55-7-141 23-150-36l-16-104C692-57 602 15 450 15" id="aj"/><g id="h"><use transform="matrix(0.010849609375,0,0,0.010849609375,0,0)" xlink:href="#ae"/><use transform="matrix(0.010849609375,0,0,0.010849609375,14.34318359375,0)" xlink:href="#U"/><use transform="matrix(0.010849609375,0,0,0.010849609375,24.986650390625005,0)" xlink:href="#Y"/><use transform="matrix(0.010849609375,0,0,0.010849609375,42.736611328125,0)" xlink:href="#X"/><use transform="matrix(0.010849609375,0,0,0.010849609375,53.792363281250005,0)" xlink:href="#af"/><use transform="matrix(0.010849609375,0,0,0.010849609375,65.46654296875,0)" xlink:href="#ag"/><use transform="matrix(0.010849609375,0,0,0.010849609375,71.06494140625,0)" xlink:href="#L"/><use transform="matrix(0.010849609375,0,0,0.010849609375,82.73912109375,0)" xlink:href="#af"/><use transform="matrix(0.010849609375,0,0,0.010849609375,94.41330078125,0)" xlink:href="#ah"/><use transform="matrix(0.010849609375,0,0,0.010849609375,99.5126171875,0)" xlink:href="#ai"/><use transform="matrix(0.010849609375,0,0,0.010849609375,109.548505859375,0)" xlink:href="#ah"/><use transform="matrix(0.010849609375,0,0,0.010849609375,114.647822265625,0)" xlink:href="#af"/><use transform="matrix(0.010849609375,0,0,0.010849609375,126.322001953125,0)" xlink:href="#aj"/><use transform="matrix(0.010849609375,0,0,0.010849609375,137.996181640625,0)" xlink:href="#U"/><use transform="matrix(0.010849609375,0,0,0.010849609375,148.6396484375,0)" xlink:href="#T"/></g><path d="M407-674L27-1314h181c27 0 37 9 46 25l289 512c93-171 187-340 282-509 9-15 19-27 41-28h174L658-684 1052 0H871c-27 1-41-18-50-34L524-570C428-389 328-212 228-34c-9 16-22 34-47 34H11" id="ak"/><path d="M454-137c154-4 244-84 244-236 0-172-165-194-295-240-161-57-303-135-295-354 9-227 154-362 390-362 152 0 266 55 344 137l-45 85c-37 63-91-1-127-21-44-25-97-52-170-50-136 3-221 69-221 201 0 166 169 187 295 236 153 60 300 130 295 341-6 260-155 414-419 414-174 0-309-76-395-172 24-34 40-77 71-104 55-23 84 36 125 60 52 30 115 67 203 65" id="al"/><path d="M1148-926c58 156 58 382 0 538C1064-162 892 0 593 0H139v-1314h454c298 6 472 162 555 388zM976-442c38-121 39-309 0-430-55-171-167-295-383-295H322v1020c157-7 329 19 441-35 105-50 176-139 213-260" id="am"/><g id="i"><use transform="matrix(0.010849609375,0,0,0.010849609375,0,0)" xlink:href="#ak"/><use transform="matrix(0.010849609375,0,0,0.010849609375,11.316142578125,0)" xlink:href="#al"/><use transform="matrix(0.010849609375,0,0,0.010849609375,21.525624999999998,0)" xlink:href="#am"/></g><path d="M581 14c-127 0-201-47-264-114v430H141V-978c55 7 141-23 150 36l17 114c76-89 171-167 326-167 271 0 368 217 368 499 0 229-91 393-245 471-52 26-111 39-176 39zm240-510c-2-202-50-358-245-358-128 0-197 66-259 146v472c53 73 114 114 225 114 198 0 281-159 279-374" id="an"/><g id="j"><use transform="matrix(0.010849609375,0,0,0.010849609375,0,0)" xlink:href="#am"/><use transform="matrix(0.010849609375,0,0,0.010849609375,13.670507812499999,0)" xlink:href="#U"/><use transform="matrix(0.010849609375,0,0,0.010849609375,24.10783203125,0)" xlink:href="#Z"/><use transform="matrix(0.010849609375,0,0,0.010849609375,31.279423828124997,0)" xlink:href="#U"/><use transform="matrix(0.010849609375,0,0,0.010849609375,41.716748046875,0)" xlink:href="#Z"/><use transform="matrix(0.010849609375,0,0,0.010849609375,49.159580078124996,0)" xlink:href="#ab"/><use transform="matrix(0.010849609375,0,0,0.010849609375,59.21716796875,0)" xlink:href="#an"/><use transform="matrix(0.010849609375,0,0,0.010849609375,70.89134765624999,0)" xlink:href="#X"/></g><linearGradient gradientUnits="userSpaceOnUse" id="k" x1="640.84" y1="219.87" x2="640.84" y2="337.98"><stop offset="0%" stop-color="#fff"/><stop offset="12.18%" stop-color="#fff"/><stop offset="100%" stop-color="#dbdbdb"/></linearGradient><path d="M12-1314c77 9 194-28 214 42l255 907c9 32 18 69 26 112 8-39 17-78 28-113l293-905c10-59 158-61 176-1 97 321 208 636 308 958 5 18 9 38 13 58 8-37 15-76 25-109l254-906c17-65 129-37 206-43L1411 0h-165c-111-354-226-705-335-1062-5 24-11 46-18 66L575 0H411" id="ao"/><path d="M320-153h507V0H138v-1314h182v1161" id="ap"/><g id="l"><use transform="matrix(0.010849609375,0,0,0.010849609375,0,0)" xlink:href="#Q"/><use transform="matrix(0.010849609375,0,0,0.010849609375,14.47337890625,0)" xlink:href="#ao"/><use transform="matrix(0.010849609375,0,0,0.010849609375,34.241367187499996,0)" xlink:href="#ap"/></g><linearGradient gradientUnits="userSpaceOnUse" id="m" x1="295.84" y1="219.87" x2="295.84" y2="337.98"><stop offset="0%" stop-color="#fff"/><stop offset="12.18%" stop-color="#fff"/><stop offset="100%" stop-color="#dbdbdb"/></linearGradient><g id="n"><use transform="matrix(0.010849609375,0,0,0.010849609375,0,0)" xlink:href="#ag"/><use transform="matrix(0.010849609375,0,0,0.010849609375,5.598398437499999,0)" xlink:href="#al"/><use transform="matrix(0.010849609375,0,0,0.010849609375,15.807880859375002,0)" xlink:href="#Q"/></g><path d="M255-128h273c2-322-4-651 3-968L308-900c-25 26-63 14-78-6l-53-73 383-339h136v1190h250V0H255v-128" id="aq"/><path d="M727-618c-80 71-247 106-374 54-132-54-222-167-222-352 0-197 110-320 255-381 99-42 240-41 340-1 171 68 277 257 232 502-22 119-80 208-139 296L510-39C475 19 358-5 270 0c152-206 309-408 457-618zm-181-49c163-3 261-98 261-256 0-164-89-267-251-267s-253 100-257 262c-4 161 91 264 247 261" id="ar"/><path d="M523 15C238 15 92-170 92-458c0-173 68-287 155-413l322-470c36-61 157-38 250-42-146 199-294 396-439 596 80-61 238-82 352-34 142 60 235 185 235 385 0 213-110 349-263 416-54 23-115 35-181 35zm5-729c-170 0-266 117-266 287 0 178 83 297 258 297 174 0 271-117 271-293 0-177-89-291-263-291" id="as"/><path d="M949-956c47 159 47 439 0 598C887-148 769 14 518 14 268 14 151-149 89-358c-47-159-47-439 0-598 62-210 178-373 429-373 250 0 369 164 431 373zM722-242c117-170 114-650 0-830-59-93-195-155-314-89-142 79-181 270-182 504-1 177 29 313 88 415 55 96 193 148 315 88 35-18 65-47 93-88" id="at"/><path d="M118-957c35-227 168-372 421-372 237 0 388 129 388 367 0 234-144 350-265 476L325-135c155-43 377-15 567-23 76-4 57 87 59 158H92c-1-54 1-99 31-129 169-170 344-341 501-522 70-81 131-166 131-307 0-146-81-228-225-228-138 0-213 81-243 193-11 42-31 58-82 50" id="au"/><path d="M748-436c0-175-99-265-277-267-65 0-133 12-206 36l-104-32 104-615h612c7 92-4 154-98 154H382l-57 340c59-13 115-21 181-21 258 0 411 142 411 397 0 224-117 360-281 426C479 45 264 2 162-72c-25-18-49-34-69-53 32-38 64-127 137-81 61 38 128 80 232 77 187-5 286-118 286-307" id="av"/><g id="o"><use transform="matrix(0.010849609375,0,0,0.010849609375,0,0)" xlink:href="#aq"/><use transform="matrix(0.010849609375,0,0,0.010849609375,11.26189453125,0)" xlink:href="#ar"/><use transform="matrix(0.010849609375,0,0,0.010849609375,22.5237890625,0)" xlink:href="#aq"/><use transform="matrix(0.010849609375,0,0,0.010849609375,33.78568359375,0)" xlink:href="#as"/><use transform="matrix(0.010849609375,0,0,0.010849609375,45.047578125,0)" xlink:href="#at"/><use transform="matrix(0.010849609375,0,0,0.010849609375,56.309472656249994,0)" xlink:href="#N"/><use transform="matrix(0.010849609375,0,0,0.010849609375,63.11217773437501,0)" xlink:href="#aq"/><use transform="matrix(0.010849609375,0,0,0.010849609375,74.374072265625,0)" xlink:href="#ad"/><use transform="matrix(0.010849609375,0,0,0.010849609375,80.319658203125,0)" xlink:href="#au"/><use transform="matrix(0.010849609375,0,0,0.010849609375,91.58155273437501,0)" xlink:href="#at"/><use transform="matrix(0.010849609375,0,0,0.010849609375,102.84344726562499,0)" xlink:href="#aq"/><use transform="matrix(0.010849609375,0,0,0.010849609375,114.105341796875,0)" xlink:href="#av"/></g><path d="M1178 0c-74-7-179 24-202-42L864-358H322L211-43C194 22 84-6 8 0l493-1314h185zM368-488h450c-69-195-137-390-206-585-7-21-13-44-19-69-68 226-151 434-225 654" id="aw"/><path d="M536-823c-141 7-187 99-229 205V0H131v-978c60 8 148-26 154 48l12 144c58-123 149-234 328-202 18 3 34 11 49 21l-14 130c-12 52-78 12-124 14" id="ax"/><path d="M107-679c0-208 143-315 355-315 85 0 156 21 210 54h256c-2 50 12 98-40 106l-104 15c21 43 31 89 31 140 0 207-143 315-353 315-43 0-82-5-118-15-46 21-87 104-30 135 178 96 598-48 598 268 0 166-119 253-254 300-155 54-396 24-493-50-56-42-101-97-101-181 0-110 73-167 160-201-52-25-92-64-89-140 3-77 56-136 120-167-84-50-148-136-148-264zm369 904c144 0 274-38 274-172C750-83 557-56 422-70c-32-3-63-4-93-9C273-48 218-8 218 71c0 125 123 154 258 154zM268-675c2 124 69 192 194 195 124 3 196-76 196-195 0-121-71-194-196-194-123 0-196 74-194 194" id="ay"/><g id="p"><use transform="matrix(0.010849609375,0,0,0.010849609375,0,0)" xlink:href="#aw"/><use transform="matrix(0.010849609375,0,0,0.010849609375,12.856787109374999,0)" xlink:href="#af"/><use transform="matrix(0.010849609375,0,0,0.010849609375,24.530966796875,0)" xlink:href="#af"/><use transform="matrix(0.010849609375,0,0,0.010849609375,36.205146484375,0)" xlink:href="#ax"/><use transform="matrix(0.010849609375,0,0,0.010849609375,43.658828125,0)" xlink:href="#X"/><use transform="matrix(0.010849609375,0,0,0.010849609375,54.714580078124996,0)" xlink:href="#V"/><use transform="matrix(0.010849609375,0,0,0.010849609375,63.4051171875,0)" xlink:href="#V"/><use transform="matrix(0.010849609375,0,0,0.010849609375,72.095654296875,0)" xlink:href="#ah"/><use transform="matrix(0.010849609375,0,0,0.010849609375,77.194970703125,0)" xlink:href="#L"/><use transform="matrix(0.010849609375,0,0,0.010849609375,88.869150390625,0)" xlink:href="#ay"/></g><linearGradient gradientUnits="userSpaceOnUse" id="q" x1="465.84" y1="415" x2="465.84" y2="533.11"><stop offset="0%" stop-color="#fff"/><stop offset="12.18%" stop-color="#fff"/><stop offset="100%" stop-color="#dbdbdb"/></linearGradient><g id="r"><use transform="matrix(0.010849609375,0,0,0.010849609375,0,0)" xlink:href="#Q"/><use transform="matrix(0.010849609375,0,0,0.010849609375,14.47337890625,0)" xlink:href="#ao"/><use transform="matrix(0.010849609375,0,0,0.010849609375,34.241367187499996,0)" xlink:href="#ap"/></g><path d="M523-1269c-167-5-192 134-183 309h263v128H346V0H170v-831c-44-9-102-4-133-26-23-17-9-67-13-103h146c-18-271 76-439 324-444 44 0 83 8 117 19-9 39 11 106-29 113-15 2-34 3-59 3" id="az"/><g id="s"><use transform="matrix(0.010849609375,0,0,0.010849609375,0,0)" xlink:href="#O"/><use transform="matrix(0.010849609375,0,0,0.010849609375,11.47888671875,0)" xlink:href="#ax"/><use transform="matrix(0.010849609375,0,0,0.010849609375,18.867470703125,0)" xlink:href="#M"/><use transform="matrix(0.010849609375,0,0,0.010849609375,30.585048828125,0)" xlink:href="#az"/><use transform="matrix(0.010849609375,0,0,0.010849609375,37.3660546875,0)" xlink:href="#ah"/><use transform="matrix(0.010849609375,0,0,0.010849609375,42.465371093749994,0)" xlink:href="#T"/><use transform="matrix(0.010849609375,0,0,0.010849609375,47.56468749999999,0)" xlink:href="#X"/></g><g id="t"><use transform="matrix(0.010849609375,0,0,0.010849609375,0,0)" xlink:href="#M"/><use transform="matrix(0.010849609375,0,0,0.010849609375,11.717578125,0)" xlink:href="#az"/></g><g id="u"><use transform="matrix(0.010849609375,0,0,0.010849609375,0,0)" xlink:href="#ag"/><use transform="matrix(0.010849609375,0,0,0.010849609375,5.598398437499999,0)" xlink:href="#al"/><use transform="matrix(0.010849609375,0,0,0.010849609375,15.807880859375002,0)" xlink:href="#Q"/><use transform="matrix(0.010849609375,0,0,0.010849609375,30.519951171874997,0)" xlink:href="#aq"/><use transform="matrix(0.010849609375,0,0,0.010849609375,41.781845703125,0)" xlink:href="#ar"/><use transform="matrix(0.010849609375,0,0,0.010849609375,53.043740234374994,0)" xlink:href="#aq"/><use transform="matrix(0.010849609375,0,0,0.010849609375,64.305634765625,0)" xlink:href="#as"/><use transform="matrix(0.010849609375,0,0,0.010849609375,75.567529296875,0)" xlink:href="#at"/><use transform="matrix(0.010849609375,0,0,0.010849609375,86.82942382812499,0)" xlink:href="#N"/><use transform="matrix(0.010849609375,0,0,0.010849609375,93.63212890624999,0)" xlink:href="#aq"/></g><linearGradient gradientUnits="userSpaceOnUse" id="v" x1="640.84" y1="605" x2="640.84" y2="723.11"><stop offset="0%" stop-color="#fff"/><stop offset="12.18%" stop-color="#fff"/><stop offset="100%" stop-color="#dbdbdb"/></linearGradient><g id="w"><use transform="matrix(0.010849609375,0,0,0.010849609375,0,0)" xlink:href="#ae"/><use transform="matrix(0.010849609375,0,0,0.010849609375,14.34318359375,0)" xlink:href="#X"/><use transform="matrix(0.010849609375,0,0,0.010849609375,25.290439453125,0)" xlink:href="#ac"/></g><path d="M910-1314c-1 52 2 92-19 127L276-148h621V0H56c1-47 0-93 18-124l614-1042H90v-148h820" id="aA"/><g id="x"><use transform="matrix(0.010849609375,0,0,0.010849609375,0,0)" xlink:href="#aA"/><use transform="matrix(0.010849609375,0,0,0.010849609375,10.0684375,0)" xlink:href="#X"/><use transform="matrix(0.010849609375,0,0,0.010849609375,21.124189453125,0)" xlink:href="#U"/><use transform="matrix(0.010849609375,0,0,0.010849609375,31.767656249999998,0)" xlink:href="#T"/><use transform="matrix(0.010849609375,0,0,0.010849609375,36.86697265625,0)" xlink:href="#U"/><use transform="matrix(0.010849609375,0,0,0.010849609375,47.510439453124995,0)" xlink:href="#L"/><use transform="matrix(0.010849609375,0,0,0.010849609375,59.18461914062501,0)" xlink:href="#af"/></g><g id="y"><use transform="matrix(0.010849609375,0,0,0.010849609375,0,0)" xlink:href="#Q"/><use transform="matrix(0.010849609375,0,0,0.010849609375,14.47337890625,0)" xlink:href="#ao"/><use transform="matrix(0.010849609375,0,0,0.010849609375,34.241367187499996,0)" xlink:href="#ap"/></g><g id="z"><use transform="matrix(0.010849609375,0,0,0.010849609375,0,0)" xlink:href="#ax"/><use transform="matrix(0.010849609375,0,0,0.010849609375,7.44283203125,0)" xlink:href="#af"/><use transform="matrix(0.010849609375,0,0,0.010849609375,19.11701171875,0)" xlink:href="#az"/><use transform="matrix(0.010849609375,0,0,0.010849609375,25.898017578125,0)" xlink:href="#ad"/><use transform="matrix(0.010849609375,0,0,0.010849609375,31.843603515625,0)" xlink:href="#Z"/><use transform="matrix(0.010849609375,0,0,0.010849609375,39.286435546875,0)" xlink:href="#ab"/><use transform="matrix(0.010849609375,0,0,0.010849609375,49.3440234375,0)" xlink:href="#an"/><use transform="matrix(0.010849609375,0,0,0.010849609375,61.018203125,0)" xlink:href="#X"/></g><g id="A"><use transform="matrix(0.010849609375,0,0,0.010849609375,0,0)" xlink:href="#ax"/><use transform="matrix(0.010849609375,0,0,0.010849609375,7.44283203125,0)" xlink:href="#af"/><use transform="matrix(0.010849609375,0,0,0.010849609375,19.11701171875,0)" xlink:href="#az"/><use transform="matrix(0.010849609375,0,0,0.010849609375,25.898017578125,0)" xlink:href="#ad"/><use transform="matrix(0.010849609375,0,0,0.010849609375,31.843603515625,0)" xlink:href="#an"/><use transform="matrix(0.010849609375,0,0,0.010849609375,43.517783203125,0)" xlink:href="#ax"/><use transform="matrix(0.010849609375,0,0,0.010849609375,50.90636718750001,0)" xlink:href="#M"/><use transform="matrix(0.010849609375,0,0,0.010849609375,62.6239453125,0)" xlink:href="#an"/><use transform="matrix(0.010849609375,0,0,0.010849609375,74.298125,0)" xlink:href="#X"/><use transform="matrix(0.010849609375,0,0,0.010849609375,85.353876953125,0)" xlink:href="#ax"/><use transform="matrix(0.010849609375,0,0,0.010849609375,93.10049804687499,0)" xlink:href="#Z"/><use transform="matrix(0.010849609375,0,0,0.010849609375,100.543330078125,0)" xlink:href="#ab"/></g><path d="M24-231v-30h32v30H24zM24 0v-190h32V0H24" id="aB"/><path d="M135-143c-3-34-86-38-87 0 15 53 115 12 119 90S17 21 10-45l28-5c4 36 97 45 98 0-10-56-113-15-118-90-4-57 82-63 122-42 12 7 21 19 24 35" id="aC"/><g id="B"><use transform="matrix(0.05,0,0,0.05,0,0)" xlink:href="#aB"/><use transform="matrix(0.05,0,0,0.05,3.95,0)" xlink:href="#aC"/></g><path d="M115-194c55 1 70 41 70 98S169 2 115 4C84 4 66-9 55-30l1 105H24l-1-265h31l2 30c10-21 28-34 59-34zm-8 174c40 0 45-34 45-75s-6-73-45-74c-42 0-51 32-51 76 0 43 10 73 51 73" id="aD"/><path d="M114-163C36-179 61-72 57 0H25l-1-190h30c1 12-1 29 2 39 6-27 23-49 58-41v29" id="aE"/><path d="M100-194c62-1 85 37 85 99 1 63-27 99-86 99S16-35 15-95c0-66 28-99 85-99zM99-20c44 1 53-31 53-75 0-43-8-75-51-75s-53 32-53 75 10 74 51 75" id="aF"/><path d="M101-234c-31-9-42 10-38 44h38v23H63V0H32v-167H5v-23h27c-7-52 17-82 69-68v24" id="aG"/><path d="M24 0v-261h32V0H24" id="aH"/><path d="M100-194c63 0 86 42 84 106H49c0 40 14 67 53 68 26 1 43-12 49-29l28 8c-11 28-37 45-77 45C44 4 14-33 15-96c1-61 26-98 85-98zm52 81c6-60-76-77-97-28-3 7-6 17-6 28h103" id="aI"/><g id="C"><use transform="matrix(0.05,0,0,0.05,0,0)" xlink:href="#aD"/><use transform="matrix(0.05,0,0,0.05,10,0)" xlink:href="#aE"/><use transform="matrix(0.05,0,0,0.05,15.949999999999998,0)" xlink:href="#aF"/><use transform="matrix(0.05,0,0,0.05,25.950000000000003,0)" xlink:href="#aG"/><use transform="matrix(0.05,0,0,0.05,30.950000000000003,0)" xlink:href="#aB"/><use transform="matrix(0.05,0,0,0.05,34.9,0)" xlink:href="#aH"/><use transform="matrix(0.05,0,0,0.05,38.85,0)" xlink:href="#aI"/></g><g id="D"><use transform="matrix(0.05,0,0,0.05,0,0)" xlink:href="#aF"/><use transform="matrix(0.05,0,0,0.05,10,0)" xlink:href="#aG"/></g><path d="M69-490c0-299 140-503 438-503 143 0 234 53 308 127-20 26-37 58-61 80-40 18-64-17-93-32-37-19-81-40-143-39-201 7-269 160-269 367 0 204 66 360 261 368 96 4 149-38 198-81 21-19 50-20 67 2l51 64C751-46 640 14 479 14 199 14 69-199 69-490" id="aJ"/><g id="E"><use transform="matrix(0.010849609375,0,0,0.010849609375,0,0)" xlink:href="#af"/><use transform="matrix(0.010849609375,0,0,0.010849609375,11.674179687499999,0)" xlink:href="#aJ"/><use transform="matrix(0.010849609375,0,0,0.010849609375,21.06994140625,0)" xlink:href="#Z"/><use transform="matrix(0.010849609375,0,0,0.010849609375,28.512773437499998,0)" xlink:href="#ad"/><use transform="matrix(0.010849609375,0,0,0.010849609375,34.458359375,0)" xlink:href="#al"/><use transform="matrix(0.010849609375,0,0,0.010849609375,44.667841796874995,0)" xlink:href="#Z"/><use transform="matrix(0.010849609375,0,0,0.010849609375,51.839433593749995,0)" xlink:href="#U"/><use transform="matrix(0.010849609375,0,0,0.010849609375,62.482900390625005,0)" xlink:href="#L"/><use transform="matrix(0.010849609375,0,0,0.010849609375,74.157080078125,0)" xlink:href="#af"/><use transform="matrix(0.010849609375,0,0,0.010849609375,85.831259765625,0)" xlink:href="#U"/><use transform="matrix(0.010849609375,0,0,0.010849609375,96.47472656250001,0)" xlink:href="#ax"/><use transform="matrix(0.010849609375,0,0,0.010849609375,103.91755859375,0)" xlink:href="#af"/></g><g id="F"><use transform="matrix(0.010849609375,0,0,0.010849609375,0,0)" xlink:href="#O"/><use transform="matrix(0.010849609375,0,0,0.010849609375,11.47888671875,0)" xlink:href="#ax"/><use transform="matrix(0.010849609375,0,0,0.010849609375,18.867470703125,0)" xlink:href="#M"/><use transform="matrix(0.010849609375,0,0,0.010849609375,30.585048828125,0)" xlink:href="#az"/><use transform="matrix(0.010849609375,0,0,0.010849609375,37.3660546875,0)" xlink:href="#ah"/><use transform="matrix(0.010849609375,0,0,0.010849609375,42.465371093749994,0)" xlink:href="#T"/><use transform="matrix(0.010849609375,0,0,0.010849609375,47.56468749999999,0)" xlink:href="#X"/></g><path d="M59-47c-2 24 18 29 38 22v24C64 9 27 4 27-40v-127H5v-23h24l9-43h21v43h35v23H59v120" id="aK"/><path d="M141-36C126-15 110 5 73 4 37 3 15-17 15-53c-1-64 63-63 125-63 3-35-9-54-41-54-24 1-41 7-42 31l-33-3c5-37 33-52 76-52 45 0 72 20 72 64v82c-1 20 7 32 28 27v20c-31 9-61-2-59-35zM48-53c0 20 12 33 32 33 41-3 63-29 60-74-43 2-92-5-92 41" id="aL"/><path d="M117-194c89-4 53 116 60 194h-32v-121c0-31-8-49-39-48C34-167 62-67 57 0H25l-1-190h30c1 10-1 24 2 32 11-22 29-35 61-36" id="aM"/><path d="M108 0H70L1-190h34L89-25l56-165h34" id="aN"/><g id="G"><use transform="matrix(0.05,0,0,0.05,0,0)" xlink:href="#aK"/><use transform="matrix(0.05,0,0,0.05,5,0)" xlink:href="#aE"/><use transform="matrix(0.05,0,0,0.05,10.95,0)" xlink:href="#aL"/><use transform="matrix(0.05,0,0,0.05,20.95,0)" xlink:href="#aM"/><use transform="matrix(0.05,0,0,0.05,30.950000000000003,0)" xlink:href="#aC"/><use transform="matrix(0.05,0,0,0.05,39.95,0)" xlink:href="#aB"/><use transform="matrix(0.05,0,0,0.05,43.900000000000006,0)" xlink:href="#aK"/><use transform="matrix(0.05,0,0,0.05,48.900000000000006,0)" xlink:href="#aB"/><use transform="matrix(0.05,0,0,0.05,52.85,0)" xlink:href="#aN"/><use transform="matrix(0.05,0,0,0.05,61.85,0)" xlink:href="#aI"/></g><g id="H"><use transform="matrix(0.05,0,0,0.05,0,0)" xlink:href="#aK"/><use transform="matrix(0.05,0,0,0.05,5,0)" xlink:href="#aE"/><use transform="matrix(0.05,0,0,0.05,10.95,0)" xlink:href="#aL"/><use transform="matrix(0.05,0,0,0.05,20.95,0)" xlink:href="#aM"/><use transform="matrix(0.05,0,0,0.05,30.950000000000003,0)" xlink:href="#aC"/><use transform="matrix(0.05,0,0,0.05,39.95,0)" xlink:href="#aB"/><use transform="matrix(0.05,0,0,0.05,43.900000000000006,0)" xlink:href="#aK"/><use transform="matrix(0.05,0,0,0.05,48.900000000000006,0)" xlink:href="#aB"/><use transform="matrix(0.05,0,0,0.05,52.85,0)" xlink:href="#aN"/><use transform="matrix(0.05,0,0,0.05,61.85,0)" xlink:href="#aI"/></g><g id="I"><use transform="matrix(0.05,0,0,0.05,0,0)" xlink:href="#aD"/><use transform="matrix(0.05,0,0,0.05,10,0)" xlink:href="#aE"/><use transform="matrix(0.05,0,0,0.05,15.949999999999998,0)" xlink:href="#aF"/><use transform="matrix(0.05,0,0,0.05,25.950000000000003,0)" xlink:href="#aG"/><use transform="matrix(0.05,0,0,0.05,30.950000000000003,0)" xlink:href="#aB"/><use transform="matrix(0.05,0,0,0.05,34.9,0)" xlink:href="#aH"/><use transform="matrix(0.05,0,0,0.05,38.85,0)" xlink:href="#aI"/></g><g id="J"><use transform="matrix(0.010849609375,0,0,0.010849609375,0,0)" xlink:href="#ah"/><use transform="matrix(0.010849609375,0,0,0.010849609375,5.09931640625,0)" xlink:href="#L"/><use transform="matrix(0.010849609375,0,0,0.010849609375,16.643300781249998,0)" xlink:href="#az"/><use transform="matrix(0.010849609375,0,0,0.010849609375,22.870976562499997,0)" xlink:href="#X"/><use transform="matrix(0.010849609375,0,0,0.010849609375,33.926728515625,0)" xlink:href="#ax"/><use transform="matrix(0.010849609375,0,0,0.010849609375,41.673349609375,0)" xlink:href="#ax"/><use transform="matrix(0.010849609375,0,0,0.010849609375,49.127031249999995,0)" xlink:href="#X"/><use transform="matrix(0.010849609375,0,0,0.010849609375,60.182783203125,0)" xlink:href="#af"/></g><g id="K"><use transform="matrix(0.010849609375,0,0,0.010849609375,0,0)" xlink:href="#ax"/><use transform="matrix(0.010849609375,0,0,0.010849609375,7.44283203125,0)" xlink:href="#af"/><use transform="matrix(0.010849609375,0,0,0.010849609375,19.11701171875,0)" xlink:href="#az"/><use transform="matrix(0.010849609375,0,0,0.010849609375,25.898017578125,0)" xlink:href="#ad"/><use transform="matrix(0.010849609375,0,0,0.010849609375,31.843603515625,0)" xlink:href="#an"/><use transform="matrix(0.010849609375,0,0,0.010849609375,43.517783203125,0)" xlink:href="#ax"/><use transform="matrix(0.010849609375,0,0,0.010849609375,50.90636718750001,0)" xlink:href="#M"/><use transform="matrix(0.010849609375,0,0,0.010849609375,62.6239453125,0)" xlink:href="#an"/><use transform="matrix(0.010849609375,0,0,0.010849609375,74.298125,0)" xlink:href="#X"/><use transform="matrix(0.010849609375,0,0,0.010849609375,85.353876953125,0)" xlink:href="#ax"/><use transform="matrix(0.010849609375,0,0,0.010849609375,93.10049804687499,0)" xlink:href="#Z"/><use transform="matrix(0.010849609375,0,0,0.010849609375,100.543330078125,0)" xlink:href="#ab"/></g></defs></g></svg>