<svg xmlns="http://www.w3.org/2000/svg" xmlns:xlink="http://www.w3.org/1999/xlink" xmlns:lucid="lucid" width="1127.67" height="866.67"><g transform="translate(0 0)" lucid:page-tab-id="KaaVrleRCrLHn"><path d="M0 0h1127.67v866.67H0z" fill="#fff"/><path d="M876.5 794.2h28.46" stroke="#000" stroke-width="1.11" fill="none"/><path d="M876.5 794.75v-1.1z"/><path d="M919.77 794.2l-14.26 4.63v-9.27z" fill="#fff"/><path d="M921.57 794.2l-16.62 5.4v-10.8zm-15.5 3.87l11.9-3.87-11.9-3.87z"/><path d="M1095.04 735.14h-153.7c-10.57 0-19.2 8.63-19.2 19.25V834c0 10.63 8.63 19.25 19.2 19.25h153.7c10.57 0 19.2-8.62 19.2-19.25v-79.6c0-10.63-8.63-19.26-19.2-19.26z" stroke="#000" stroke-width="1.11" fill="#fff"/><use xlink:href="#a" transform="matrix(1,0,0,1,930.9637960003834,744.0012499806603) translate(27.946494140625006 56.055)"/><path d="M856.73 735.14h-153.7c-10.57 0-19.2 8.63-19.2 19.25V834c0 10.63 8.63 19.25 19.2 19.25h153.7c10.57 0 19.22-8.62 19.22-19.25v-79.6c0-10.63-8.65-19.26-19.22-19.26z" stroke="#000" stroke-width="1.11" fill="#a5a5a5"/><use xlink:href="#b" transform="matrix(1,0,0,1,692.6567960000314,744.001249980661) translate(23.9050146484375 56.055)"/><use xlink:href="#c" transform="matrix(1,0,0,1,692.6567960000314,744.001249980661) translate(111.61325683593749 56.055)"/><path d="M601.6 735.14H447.9c-10.55 0-19.2 8.63-19.2 19.25V834c0 10.63 8.65 19.25 19.2 19.25h153.7c10.58 0 19.23-8.62 19.23-19.25v-79.6c0-10.63-8.65-19.26-19.22-19.26z" stroke="#000" stroke-width="1.11" fill="#fff"/><use xlink:href="#d" transform="matrix(1,0,0,1,437.53879600003427,744.0012499806617) translate(26.036962890625006 56.055)"/><path d="M397.9 517.82H244.2c-10.55 0-19.2 8.62-19.2 19.25v79.6c0 10.64 8.65 19.26 19.2 19.26h153.7c10.58 0 19.23-8.62 19.23-19.25v-79.6c0-10.64-8.65-19.26-19.22-19.26z" stroke="#000" stroke-width="1.11" fill="#fff"/><use xlink:href="#e" transform="matrix(1,0,0,1,233.83779600003226,526.678249980664) translate(70.2708203125 29.391)"/><use xlink:href="#f" transform="matrix(1,0,0,1,233.83779600003226,526.678249980664) translate(37.4616015625 56.055)"/><use xlink:href="#g" transform="matrix(1,0,0,1,233.83779600003226,526.678249980664) translate(47.416118164062496 82.719)"/><path d="M722.87 13h-153.7c-10.56 0-19.2 8.63-19.2 19.26v79.6c0 10.64 8.64 19.26 19.2 19.26h153.7c10.57 0 19.22-8.62 19.22-19.25v-79.6c0-10.64-8.66-19.26-19.23-19.26z" stroke="#000" stroke-width="1.11" fill="#fff"/><use xlink:href="#h" transform="matrix(1,0,0,1,558.7987960000335,21.866249980663042) translate(29.704130859375 56.055)"/><path d="M1845.13 591.14h36912.4V2566.4H1845.13z" stroke="#000" stroke-opacity="0" stroke-width="1.67" fill-opacity="0"/><use xlink:href="#i" transform="matrix(1,0,0,1,18.391796000000003,21.896800000000006) translate(20.369213867187497 20.1675)"/><use xlink:href="#j" transform="matrix(1,0,0,1,18.391796000000003,21.896800000000006) translate(116.0843017578125 20.1675)"/><path d="M598.55 258.65h-1.1v-45.98h1.1zm0-68.2h-1.1v-58.32h1.1z"/><path d="M598.55 258.65h-1.1l1.1-.02zM608.65 149.14l-.95.57-9.7-16.4-9.7 16.4-.97-.56 10.33-17.47h.66z"/><use xlink:href="#k" transform="matrix(1,0,0,1,547.4165458987885,190.45419999999996) translate(0.005000000000002558 16.665)"/><use xlink:href="#l" transform="matrix(1,0,0,1,547.4165458987885,190.45419999999996) translate(18.81822265625 16.665)"/><use xlink:href="#m" transform="matrix(1,0,0,1,547.4165458987885,190.45419999999996) translate(82.65732421875 16.665)"/><path d="M722.87 259.2h-153.7c-10.56 0-19.2 8.62-19.2 19.25v79.6c0 10.64 8.64 19.26 19.2 19.26h153.7c10.57 0 19.22-8.6 19.22-19.24v-79.6c0-10.64-8.66-19.26-19.23-19.26z" stroke="#000" stroke-width="1.11" fill="#a5a5a5"/><use xlink:href="#n" transform="matrix(1,0,0,1,558.7987960000319,268.06024998066204) translate(58.189780273437506 56.055)"/><path d="M1019.6 543.45l-.57.96-98.87-58.6h2.18zm-134.75-79.87h-2.17l-149.3-88.5.55-.96z"/><path d="M733.38 375.1l-.27-.18.68-.5zM1020.18 544.45l-20.94-.03v-1.1h19.07l-9.16-16.7.97-.53z"/><use xlink:href="#o" transform="matrix(1,0,0,1,858.9632227737891,463.58293000000003) translate(0.005000000000002558 16.665)"/><use xlink:href="#p" transform="matrix(1,0,0,1,858.9632227737891,463.58293000000003) translate(36.036552734375 16.665)"/><path d="M694.5 258.1V148.28" stroke="#000" stroke-width="1.11" fill="none"/><path d="M695.06 258.65h-1.1v-.57h1.1z"/><path d="M699.14 147.74h-9.27l4.64-14.27z" fill="#fff"/><path d="M699.9 148.3h-10.8l5.4-16.63zm-9.26-1.12h7.74l-3.87-11.9z"/><path d="M722.87 517.82h-153.7c-10.56 0-19.2 8.62-19.2 19.25v79.6c0 10.64 8.64 19.26 19.2 19.26h153.7c10.57 0 19.22-8.62 19.22-19.25v-79.6c0-10.64-8.66-19.26-19.23-19.26z" stroke="#000" stroke-width="1.11" fill="#a5a5a5"/><use xlink:href="#q" transform="matrix(1,0,0,1,558.7987960000336,526.6782499806633) translate(46.1575634765625 42.723)"/><use xlink:href="#r" transform="matrix(1,0,0,1,558.7987960000336,526.6782499806633) translate(40.5374658203125 69.387)"/><path d="M598.55 517.26h-1.1v-74.04h1.1zm0-96.26h-1.1v-42.68h1.1zM598.55 517.26h-1.1 1.1z"/><path d="M608.65 395.33l-.95.57-9.7-16.4-9.7 16.4-.97-.57 10.33-17.46h.66z"/><use xlink:href="#k" transform="matrix(1,0,0,1,523.1134208987885,420.99973) translate(0.0049999999999954525 16.665)"/><use xlink:href="#s" transform="matrix(1,0,0,1,523.1134208987885,420.99973) translate(18.818222656249993 16.665)"/><use xlink:href="#t" transform="matrix(1,0,0,1,523.1134208987885,420.99973) translate(106.12502929687497 16.665)"/><path d="M694.6 516.8h-1.1v-39.86h1.1zm0-62.08h-1.1v-76.85h1.1zM694.6 377.88h-1.1 1.1z"/><path d="M704.7 499.8l-10.32 17.46h-.65L683.4 499.8l.95-.57 9.7 16.4 9.7-16.4z"/><use xlink:href="#o" transform="matrix(1,0,0,1,636.8070361331635,454.72241) translate(0.005000000000002558 16.665)"/><use xlink:href="#u" transform="matrix(1,0,0,1,636.8070361331635,454.72241) translate(36.036552734375 16.665)"/><path d="M435.6 577.43h-17.46v-1.1h17.47zm113.8 0H531.5v-1.1h17.93zM549.4 577.43v-1.1z"/><path d="M435.6 567v.23l-16.3 9.64 16.3 9.65v.23l-.45.78-17.47-10.33v-.65l17.47-10.33z"/><use xlink:href="#v" transform="matrix(1,0,0,1,435.6099257816011,565.765) translate(0.005000000000002558 16.665)"/><path d="M525.8 734.66l-.88-.66 27.57-37.35h1.37zm72.3-97.95l-27.83 37.73h-1.38l28.32-38.38z"/><path d="M598.1 636.72l-.3-.24h.47zM528 714.43l-1.94 18.96 17.55-7.45.44 1.02-17.97 7.62h-1.25l2.07-20.3z"/><use xlink:href="#o" transform="matrix(1,0,0,1,510.981564453476,674.4264999999999) translate(0.005000000000002558 16.665)"/><use xlink:href="#w" transform="matrix(1,0,0,1,510.981564453476,674.4264999999999) translate(36.036552734375 16.665)"/><path d="M779.64 734.02l-.84.72-32.95-38.1h1.46zm-51.55-59.6h-1.48L694 636.73l.84-.73zM694 636.72l-.2-.24h.48z"/><path d="M779.78 734.6h-1.55l-18.2-6.1.35-1.07 18.08 6.06-3.4-18.76 1.1-.2z"/><use xlink:href="#o" transform="matrix(1,0,0,1,701.3221083987885,674.4264999999999) translate(0.005000000000002558 16.665)"/><use xlink:href="#x" transform="matrix(1,0,0,1,701.3221083987885,674.4264999999999) translate(36.036552734375 16.665)"/><path d="M801.96 410.24l-1.92.3-2.2 1.6-.87 2.67.22 1.32 1.6 2.2 3.16 1.04v157.07l-.3.7-.7.3h-58.32v-1.1h58.1l.08-.04.03-.1V420.17l-2.74-.9-1.97-2.7-.3-1.85 1.07-3.25 2.7-1.98 1.25-.2V241.77h1.1zm-.3-338.44l.3.7v147.06h-1.1V72.73l-.04-.08-.1-.03H743.1v-1.1h57.86zM742.66 577.43l-.02-1.1z"/><path d="M760.67 62.36l-16.4 9.7 16.4 9.7-.56.96-17.46-10.33v-.67L760.1 61.4z"/><use xlink:href="#y" transform="matrix(1,0,0,1,731.544365234726,219.5566666666665) translate(0.0049999999999954525 16.665)"/><path d="M182.05 65H28.35C17.78 65 9.13 73.62 9.13 84.25v79.6c0 10.64 8.65 19.26 19.22 19.26h153.7c10.56 0 19.2-8.6 19.2-19.24v-79.6c0-10.64-8.64-19.26-19.2-19.26z" stroke="#000" stroke-width="1.11" fill="#fff"/><use xlink:href="#z" transform="matrix(1,0,0,1,17.971795999681873,73.85825000156974) translate(17.44407226562501 56.055)"/><use xlink:href="#A" transform="matrix(1,0,0,1,17.971795999681873,73.85825000156974) translate(112.58429687499999 56.055)"/><path d="M38.1 630.92V559.9M38.1 630.9v.57" stroke="#000" stroke-width="1.11" fill="none"/><path d="M38.1 545.08l4.65 14.27h-9.28z" stroke="#000" stroke-width="1.11" fill="#fff"/><path d="M38.1 738v-86.62" fill="none"/><path d="M38.1 738v-5.77m0-5.78V714.9m0-5.77v-11.55m0-5.77v-11.54m0-5.78v-11.55m0-5.77v-5.78M38.1 738v.56M48.3 668.68l-10.2-17.22-10.17 17.22" stroke="#000" stroke-width="1.11" fill="none"/><path d="M7986.54 30814.63h27865.3v1975.27H7986.53z" stroke="#000" stroke-opacity="0" stroke-width="1.67" fill-opacity="0"/><use xlink:href="#B" transform="matrix(1,0,0,1,56.40623700000001,574.0447845715355) translate(0 19.055)"/><path d="M8515.5 35681.1h27865.3v1975.26H8515.5z" stroke="#000" stroke-opacity="0" stroke-width="1.67" fill-opacity="0"/><use xlink:href="#C" transform="matrix(1,0,0,1,59.55623699999999,681.1317845715355) translate(0 19.055)"/><path d="M182.05 206.3H28.35c-10.57 0-19.22 8.62-19.22 19.25v79.6c0 10.63 8.65 19.26 19.22 19.26h153.7c10.56 0 19.2-8.62 19.2-19.25v-79.6c0-10.63-8.64-19.25-19.2-19.25z" stroke="#000" stroke-width="1.11" fill="#a5a5a5"/><g><use xlink:href="#D" transform="matrix(1,0,0,1,17.971795999681266,215.15325000156992) translate(38.3783935546875 56.055)"/><use xlink:href="#A" transform="matrix(1,0,0,1,17.971795999681266,215.15325000156992) translate(91.64997558593751 56.055)"/></g><path d="M182.05 415.22H28.35c-10.57 0-19.22 8.62-19.22 19.25v79.6c0 10.64 8.65 19.26 19.22 19.26h153.7c10.56 0 19.2-8.62 19.2-19.25v-79.6c0-10.64-8.64-19.26-19.2-19.26z" stroke="#000" stroke-width="1.11" fill="url(#E)"/><g><use xlink:href="#F" transform="matrix(1,0,0,1,17.971795999681838,424.07724998064015) translate(68.220244140625 42.723)"/><use xlink:href="#G" transform="matrix(1,0,0,1,17.971795999681838,424.07724998064015) translate(10.630517578124994 69.387)"/></g><path d="M38.1 838.8v-86.63M38.1 838.78v.57M48.3 769.46l-10.2-17.2-10.17 17.2" stroke="#000" stroke-width="1.11" fill="none"/><path d="M8515.5 40261.26h27865.3v1975.27H8515.5z" stroke="#000" stroke-opacity="0" stroke-width="1.67" fill-opacity="0"/><g><use xlink:href="#H" transform="matrix(1,0,0,1,59.55623699999999,781.9187845715355) translate(0 19.055)"/></g><path d="M11.37 347.6c-.3 0-.56.24-.56.55v43.32c0 .3.26.56.57.56h191c.32 0 .57-.25.57-.56v-43.32c0-.3-.25-.56-.56-.56z" stroke="#000" stroke-width="1.11" fill="#fff"/><g><use xlink:href="#I" transform="matrix(1,0,0,1,19.65179600000002,356.4788000000002) translate(26.41669921875001 19.055)"/><use xlink:href="#J" transform="matrix(1,0,0,1,19.65179600000002,356.4788000000002) translate(66.636201171875 19.055)"/></g><path d="M922.7 545c-.32 0-.57.25-.57.56v43.32c0 .3.25.56.56.56h191c.3 0 .55-.25.55-.56v-43.32c0-.3-.25-.56-.56-.56z" stroke="#000" stroke-width="1.11" fill="#fff"/><g><use xlink:href="#K" transform="matrix(1,0,0,1,930.9637960010534,553.8888000000001) translate(44.069013671875005 19.055)"/></g><defs><path d="M95-709c0-188 136-281 332-284 128-2 226 47 291 114-25 33-46 112-108 74-47-29-100-60-179-58-97 2-169 47-169 140 0 121 140 131 235 168 118 46 235 94 235 255C732-91 595 11 381 15 247 17 139-38 70-104c26-39 56-126 124-80 51 35 104 76 195 74 109-2 179-54 179-159 0-126-138-136-236-173C209-488 95-543 95-709" id="L"/><path d="M304-1422v836c44 0 73 1 95-27l260-331c33-56 146-27 227-34L579-593c-18 19-36 36-58 50 24 15 42 36 58 59L906 0c-79-8-188 23-224-33L415-434c-19-25-25-32-66-33h-45V0H128v-1422h176" id="M"/><path d="M75-490c0-310 160-503 466-503s464 194 464 503c0 310-158 504-464 504C234 14 75-180 75-490zm181 1c0 215 74 366 285 366 210 0 283-152 283-366s-74-367-283-367c-211 0-285 152-285 367" id="N"/><path d="M271-232c74 0 125 50 125 125 0 74-52 123-125 123S149-34 149-107c0-74 48-125 122-125zm-6-678c74 0 125 50 125 125 0 74-52 123-125 123s-122-50-122-123c0-74 48-125 122-125" id="O"/><path d="M1052-184C961-66 832 17 628 14c-289-4-447-172-522-398-53-160-53-388 3-546 81-226 241-394 534-399 180-3 301 72 392 167-25 33-46 70-75 99-51 21-73-33-114-51-77-60-256-80-362-23-152 81-231 248-231 480 0 233 83 400 235 481 113 60 301 37 376-30 33-15 74-101 116-56" id="P"/><path d="M575-854c-119 2-197 63-259 134V0H140v-978c55 7 141-23 150 36l15 104c78-83 170-155 321-155 223 0 325 146 325 370V0H775v-623c0-140-61-233-200-231" id="Q"/><path d="M69-490c0-299 140-503 438-503 143 0 234 53 308 127-20 26-37 58-61 80-40 18-64-17-93-32-37-19-81-40-143-39-201 7-269 160-269 367 0 204 66 360 261 368 96 4 149-38 198-81 21-19 50-20 67 2l51 64C751-46 640 14 479 14 199 14 69-199 69-490" id="R"/><path d="M544 14C232 14 75-190 75-509c0-226 105-376 267-447 57-25 122-37 193-37 265 0 410 167 410 437 0 47-2 68-42 68H249c7 217 94 359 310 364 110 2 183-39 248-80 70-44 93 39 123 67C847-42 716 14 544 14zm243-610c-5-164-86-266-249-269-173-3-262 113-284 269h533" id="S"/><path d="M581 14c-127 0-201-47-264-114v430H141V-978c55 7 141-23 150 36l17 114c76-89 171-167 326-167 271 0 368 217 368 499 0 229-91 393-245 471-52 26-111 39-176 39zm240-510c-2-202-50-358-245-358-128 0-197 66-259 146v472c53 73 114 114 225 114 198 0 281-159 279-374" id="T"/><path d="M650-73c-53 51-136 87-233 88-153 0-235-95-235-251v-596c-55-8-148 24-148-39v-70l154-20 41-301c4-50 80-28 129-33v335h269v128H358v584c-2 72 34 118 99 120 56 2 78-32 116-46 15 0 19 7 25 17" id="U"/><g id="a"><use transform="matrix(0.010849609375,0,0,0.010849609375,0,0)" xlink:href="#L"/><use transform="matrix(0.010849609375,0,0,0.010849609375,8.690537109374999,0)" xlink:href="#M"/><use transform="matrix(0.010849609375,0,0,0.010849609375,18.042900390625,0)" xlink:href="#N"/><use transform="matrix(0.010849609375,0,0,0.010849609375,29.760478515625,0)" xlink:href="#L"/><use transform="matrix(0.010849609375,0,0,0.010849609375,38.451015625,0)" xlink:href="#O"/><use transform="matrix(0.010849609375,0,0,0.010849609375,44.396601562499995,0)" xlink:href="#P"/><use transform="matrix(0.010849609375,0,0,0.010849609375,56.244374999999984,0)" xlink:href="#N"/><use transform="matrix(0.010849609375,0,0,0.010849609375,67.961953125,0)" xlink:href="#Q"/><use transform="matrix(0.010849609375,0,0,0.010849609375,79.6361328125,0)" xlink:href="#R"/><use transform="matrix(0.010849609375,0,0,0.010849609375,89.03189453124999,0)" xlink:href="#S"/><use transform="matrix(0.010849609375,0,0,0.010849609375,100.087646484375,0)" xlink:href="#T"/><use transform="matrix(0.010849609375,0,0,0.010849609375,111.66417968749998,0)" xlink:href="#U"/></g><path d="M969-949c0 213-127 324-301 372 24 16 43 33 61 57L1082 0c-87-8-195 23-235-37L536-505c-21-29-36-41-85-41H329V0H147v-1314h360c275 2 462 97 462 365zM500-679c179-3 292-82 292-257 0-157-95-235-285-235H329v492h171" id="V"/><path d="M450 15c-223 0-325-146-325-370v-623h176v623c0 141 61 233 200 231 119-1 195-63 259-133v-721h176V0c-55-7-141 23-150-36l-16-104C692-57 602 15 450 15" id="W"/><path d="M536-823c-141 7-187 99-229 205V0H131v-978c60 8 148-26 154 48l12 144c58-123 149-234 328-202 18 3 34 11 49 21l-14 130c-12 52-78 12-124 14" id="X"/><g id="b"><use transform="matrix(0.010849609375,0,0,0.010849609375,0,0)" xlink:href="#V"/><use transform="matrix(0.010849609375,0,0,0.010849609375,11.674179687499999,0)" xlink:href="#S"/><use transform="matrix(0.010849609375,0,0,0.010849609375,22.729931640624997,0)" xlink:href="#L"/><use transform="matrix(0.010849609375,0,0,0.010849609375,31.420468749999998,0)" xlink:href="#N"/><use transform="matrix(0.010849609375,0,0,0.010849609375,43.138046875,0)" xlink:href="#W"/><use transform="matrix(0.010849609375,0,0,0.010849609375,54.812226562499994,0)" xlink:href="#X"/><use transform="matrix(0.010849609375,0,0,0.010849609375,62.233359375,0)" xlink:href="#R"/><use transform="matrix(0.010849609375,0,0,0.010849609375,71.62912109375,0)" xlink:href="#S"/></g><path d="M323-1422V0H147v-1422h176" id="Y"/><g id="c"><use transform="matrix(0.010849609375,0,0,0.010849609375,0,0)" xlink:href="#V"/><use transform="matrix(0.010849609375,0,0,0.010849609375,11.609082031249999,0)" xlink:href="#N"/><use transform="matrix(0.010849609375,0,0,0.010849609375,23.32666015625,0)" xlink:href="#Y"/><use transform="matrix(0.010849609375,0,0,0.010849609375,28.425976562499997,0)" xlink:href="#S"/></g><path d="M492-995c127 0 201 45 264 114v-541h176V0c-55-7-141 23-150-36l-18-117C688-64 595 14 440 14 170 14 74-204 74-486c0-228 88-392 242-470 52-26 111-39 176-39zM255-486c2 201 49 359 242 359 130 0 195-67 259-146v-473c-54-73-114-114-224-114-197 0-279 159-277 374" id="Z"/><path d="M523-1269c-167-5-192 134-183 309h263v128H346V0H170v-831c-44-9-102-4-133-26-23-17-9-67-13-103h146c-18-271 76-439 324-444 44 0 83 8 117 19-9 39 11 106-29 113-15 2-34 3-59 3" id="aa"/><g id="d"><use transform="matrix(0.010849609375,0,0,0.010849609375,0,0)" xlink:href="#X"/><use transform="matrix(0.010849609375,0,0,0.010849609375,7.44283203125,0)" xlink:href="#Z"/><use transform="matrix(0.010849609375,0,0,0.010849609375,19.11701171875,0)" xlink:href="#aa"/><use transform="matrix(0.010849609375,0,0,0.010849609375,25.605078125,0)" xlink:href="#L"/><use transform="matrix(0.010849609375,0,0,0.010849609375,34.295615234375,0)" xlink:href="#O"/><use transform="matrix(0.010849609375,0,0,0.010849609375,40.241201171875,0)" xlink:href="#V"/><use transform="matrix(0.010849609375,0,0,0.010849609375,51.915380859375,0)" xlink:href="#S"/><use transform="matrix(0.010849609375,0,0,0.010849609375,62.97113281250001,0)" xlink:href="#L"/><use transform="matrix(0.010849609375,0,0,0.010849609375,71.661669921875,0)" xlink:href="#N"/><use transform="matrix(0.010849609375,0,0,0.010849609375,83.379248046875,0)" xlink:href="#W"/><use transform="matrix(0.010849609375,0,0,0.010849609375,95.05342773437502,0)" xlink:href="#X"/><use transform="matrix(0.010849609375,0,0,0.010849609375,102.474560546875,0)" xlink:href="#R"/><use transform="matrix(0.010849609375,0,0,0.010849609375,111.87032226562499,0)" xlink:href="#S"/></g><g id="e"><use transform="matrix(0.010849609375,0,0,0.010849609375,0,0)" xlink:href="#Z"/><use transform="matrix(0.010849609375,0,0,0.010849609375,11.674179687499999,0)" xlink:href="#R"/><use transform="matrix(0.010849609375,0,0,0.010849609375,21.06994140625,0)" xlink:href="#U"/><use transform="matrix(0.010849609375,0,0,0.010849609375,28.512773437499998,0)" xlink:href="#O"/></g><path d="M835-479c17 30 30 62 44 96 13-34 27-66 43-96l464-805c25-53 129-21 198-30V0h-161c1-334-2-672 1-1004 1-16 3-32 4-49L959-229c-25 56-126 55-158 0l-480-823c4 33 6 64 6 93V0H167v-1314c56 2 123-6 171 4 9 2 18 12 27 27" id="ab"/><path d="M323-978V0H147v-978h176zm-91-431c74 0 125 50 125 125 0 74-52 123-125 123s-122-50-122-123c0-74 48-125 122-125" id="ac"/><path d="M514-995c228 0 341 142 341 370V0c-56-5-123 17-137-41l-22-91C610-53 522 18 358 15 189 12 84-73 84-244c0-178 154-235 319-276 76-19 169-27 280-30 12-176-30-304-190-304-107 0-171 42-231 86-34 25-81 14-98-16l-32-56c98-93 207-155 382-155zM253-253c0 98 61 145 158 145 133 0 205-61 272-130v-202c-134 6-246 19-333 58-57 26-97 59-97 129" id="ad"/><path d="M974-1314v152H591V0H408v-1162H24v-152h950" id="ae"/><path d="M409 288c-14 65-120 35-192 42L385-58 11-978h152c30-1 46 16 53 36 86 232 175 459 256 696 80-235 169-463 250-696 20-58 122-29 191-36" id="af"/><g id="f"><use transform="matrix(0.010849609375,0,0,0.010849609375,0,0)" xlink:href="#ab"/><use transform="matrix(0.010849609375,0,0,0.010849609375,18.997666015625,0)" xlink:href="#S"/><use transform="matrix(0.010849609375,0,0,0.010849609375,30.053417968749997,0)" xlink:href="#Z"/><use transform="matrix(0.010849609375,0,0,0.010849609375,41.72759765625,0)" xlink:href="#ac"/><use transform="matrix(0.010849609375,0,0,0.010849609375,46.826914062499995,0)" xlink:href="#ad"/><use transform="matrix(0.010849609375,0,0,0.010849609375,57.470380859375,0)" xlink:href="#ae"/><use transform="matrix(0.010849609375,0,0,0.010849609375,67.28927734375,0)" xlink:href="#af"/><use transform="matrix(0.010849609375,0,0,0.010849609375,77.346865234375,0)" xlink:href="#T"/><use transform="matrix(0.010849609375,0,0,0.010849609375,89.02104492187499,0)" xlink:href="#S"/></g><path d="M1240-928c58 159 58 383 0 542-85 230-258 400-561 400S201-157 116-386c-59-159-59-383 0-542 86-230 259-401 563-401s477 171 561 401zm-172 486c38-122 39-308 0-430-56-173-170-300-389-300-293 0-420 215-420 515 0 237 85 404 247 479 99 47 246 46 346 0 107-49 178-142 216-264" id="ag"/><path d="M913-1314v148H328v431h471v143H328v444h586L913 0H145v-1314h768" id="ah"/><path d="M327-502L36-978h168c28 0 37 9 47 26l204 355c6-16 13-28 21-43l171-308c11-15 20-29 43-30h161L559-511 864 0H695c-27 1-44-19-53-36L435-406c-5 15-11 28-18 39L230-36c-11 17-23 37-50 36H23" id="ai"/><g id="g"><use transform="matrix(0.010849609375,0,0,0.010849609375,0,0)" xlink:href="#ag"/><use transform="matrix(0.010849609375,0,0,0.010849609375,14.7120703125,0)" xlink:href="#X"/><use transform="matrix(0.010849609375,0,0,0.010849609375,22.458691406249997,0)" xlink:href="#ah"/><use transform="matrix(0.010849609375,0,0,0.010849609375,33.30830078125,0)" xlink:href="#ai"/><use transform="matrix(0.010849609375,0,0,0.010849609375,42.997001953125,0)" xlink:href="#U"/><use transform="matrix(0.010849609375,0,0,0.010849609375,50.201142578124994,0)" xlink:href="#S"/><use transform="matrix(0.010849609375,0,0,0.010849609375,61.25689453125,0)" xlink:href="#Q"/><use transform="matrix(0.010849609375,0,0,0.010849609375,72.724931640625,0)" xlink:href="#U"/></g><path d="M454-137c154-4 244-84 244-236 0-172-165-194-295-240-161-57-303-135-295-354 9-227 154-362 390-362 152 0 266 55 344 137l-45 85c-37 63-91-1-127-21-44-25-97-52-170-50-136 3-221 69-221 201 0 166 169 187 295 236 153 60 300 130 295 341-6 260-155 414-419 414-174 0-309-76-395-172 24-34 40-77 71-104 55-23 84 36 125 60 52 30 115 67 203 65" id="aj"/><g id="h"><use transform="matrix(0.010849609375,0,0,0.010849609375,0,0)" xlink:href="#Z"/><use transform="matrix(0.010849609375,0,0,0.010849609375,11.674179687499999,0)" xlink:href="#R"/><use transform="matrix(0.010849609375,0,0,0.010849609375,21.06994140625,0)" xlink:href="#U"/><use transform="matrix(0.010849609375,0,0,0.010849609375,28.512773437499998,0)" xlink:href="#O"/><use transform="matrix(0.010849609375,0,0,0.010849609375,34.458359375,0)" xlink:href="#aj"/><use transform="matrix(0.010849609375,0,0,0.010849609375,44.667841796874995,0)" xlink:href="#U"/><use transform="matrix(0.010849609375,0,0,0.010849609375,51.839433593749995,0)" xlink:href="#ad"/><use transform="matrix(0.010849609375,0,0,0.010849609375,62.482900390625005,0)" xlink:href="#Q"/><use transform="matrix(0.010849609375,0,0,0.010849609375,74.157080078125,0)" xlink:href="#Z"/><use transform="matrix(0.010849609375,0,0,0.010849609375,85.831259765625,0)" xlink:href="#ad"/><use transform="matrix(0.010849609375,0,0,0.010849609375,96.47472656250001,0)" xlink:href="#X"/><use transform="matrix(0.010849609375,0,0,0.010849609375,103.91755859375,0)" xlink:href="#Z"/></g><path d="M545-854c-104 0-170 61-222 126V0H147v-978c54 8 140-23 149 36l15 100c68-77 143-150 284-151 143-1 221 88 255 203 52-123 153-201 320-203 220-2 335 143 335 370V0h-176v-623c1-143-65-231-201-231-139 0-216 89-216 231V0H736v-623c1-145-55-231-191-231" id="ak"/><g id="i"><use transform="matrix(0.0130224609375,0,0,0.0130224609375,0,0)" xlink:href="#ah"/><use transform="matrix(0.0130224609375,0,0,0.0130224609375,13.0224609375,0)" xlink:href="#Y"/><use transform="matrix(0.0130224609375,0,0,0.0130224609375,19.143017578125,0)" xlink:href="#S"/><use transform="matrix(0.0130224609375,0,0,0.0130224609375,32.4129052734375,0)" xlink:href="#ak"/><use transform="matrix(0.0130224609375,0,0,0.0130224609375,53.7176513671875,0)" xlink:href="#S"/><use transform="matrix(0.0130224609375,0,0,0.0130224609375,66.9875390625,0)" xlink:href="#Q"/><use transform="matrix(0.0130224609375,0,0,0.0130224609375,80.7522802734375,0)" xlink:href="#U"/><path d="M-1.33.08h98.38V2.6H-1.33z"/></g><path d="M306-740c60 2 107 0 133-38l339-494c22-28 41-41 86-42h156L620-750c-21 29-44 49-67 61 31 11 60 31 83 65L1049 0c-85-7-198 21-238-38L463-558c-23-30-38-42-90-42h-67V0H124v-1314h182v574" id="al"/><g id="j"><use transform="matrix(0.0130224609375,0,0,0.0130224609375,0,0)" xlink:href="#al"/><use transform="matrix(0.0130224609375,0,0,0.0130224609375,13.3740673828125,0)" xlink:href="#S"/><use transform="matrix(0.0130224609375,0,0,0.0130224609375,26.4746630859375,0)" xlink:href="#af"/><path d="M-1.33.08h41.2V2.6h-41.2z"/></g><g id="k"><use transform="matrix(0.010849609375,0,0,0.010849609375,0,0)" xlink:href="#ac"/><use transform="matrix(0.010849609375,0,0,0.010849609375,5.09931640625,0)" xlink:href="#L"/></g><g id="l"><use transform="matrix(0.010849609375,0,0,0.010849609375,0,0)" xlink:href="#T"/><use transform="matrix(0.010849609375,0,0,0.010849609375,11.674179687499999,0)" xlink:href="#X"/><use transform="matrix(0.010849609375,0,0,0.010849609375,19.062763671875,0)" xlink:href="#N"/><use transform="matrix(0.010849609375,0,0,0.010849609375,30.780341796875,0)" xlink:href="#aa"/><use transform="matrix(0.010849609375,0,0,0.010849609375,37.56134765625,0)" xlink:href="#ac"/><use transform="matrix(0.010849609375,0,0,0.010849609375,42.6606640625,0)" xlink:href="#Y"/><use transform="matrix(0.010849609375,0,0,0.010849609375,47.759980468749994,0)" xlink:href="#S"/></g><g id="m"><use transform="matrix(0.010849609375,0,0,0.010849609375,0,0)" xlink:href="#N"/><use transform="matrix(0.010849609375,0,0,0.010849609375,11.717578125,0)" xlink:href="#aa"/></g><path d="M994-906c0 279-183 411-470 416H329V0H147v-1314h377c290 3 470 124 470 408zm-182 0c0-176-103-265-288-265H329v537h195c180-4 288-94 288-272" id="am"/><g id="n"><use transform="matrix(0.010849609375,0,0,0.010849609375,0,0)" xlink:href="#am"/><use transform="matrix(0.010849609375,0,0,0.010849609375,11.47888671875,0)" xlink:href="#X"/><use transform="matrix(0.010849609375,0,0,0.010849609375,18.867470703125,0)" xlink:href="#N"/><use transform="matrix(0.010849609375,0,0,0.010849609375,30.585048828125,0)" xlink:href="#aa"/><use transform="matrix(0.010849609375,0,0,0.010849609375,37.3660546875,0)" xlink:href="#ac"/><use transform="matrix(0.010849609375,0,0,0.010849609375,42.465371093749994,0)" xlink:href="#Y"/><use transform="matrix(0.010849609375,0,0,0.010849609375,47.56468749999999,0)" xlink:href="#S"/></g><path d="M576-854c-119 2-194 64-257 135V0H143v-1422h176v573c76-79 163-144 308-144 223 0 324 146 324 370V0H775v-623c0-140-60-233-199-231" id="an"/><g id="o"><use transform="matrix(0.010849609375,0,0,0.010849609375,0,0)" xlink:href="#an"/><use transform="matrix(0.010849609375,0,0,0.010849609375,11.674179687499999,0)" xlink:href="#ad"/><use transform="matrix(0.010849609375,0,0,0.010849609375,22.317646484375,0)" xlink:href="#L"/></g><g id="p"><use transform="matrix(0.010849609375,0,0,0.010849609375,0,0)" xlink:href="#U"/><use transform="matrix(0.010849609375,0,0,0.010849609375,7.225839843749999,0)" xlink:href="#N"/><use transform="matrix(0.010849609375,0,0,0.010849609375,18.943417968749998,0)" xlink:href="#M"/><use transform="matrix(0.010849609375,0,0,0.010849609375,28.328330078125,0)" xlink:href="#S"/><use transform="matrix(0.010849609375,0,0,0.010849609375,39.38408203125,0)" xlink:href="#Q"/></g><g id="q"><use transform="matrix(0.010849609375,0,0,0.010849609375,0,0)" xlink:href="#V"/><use transform="matrix(0.010849609375,0,0,0.010849609375,11.674179687499999,0)" xlink:href="#S"/><use transform="matrix(0.010849609375,0,0,0.010849609375,22.729931640624997,0)" xlink:href="#L"/><use transform="matrix(0.010849609375,0,0,0.010849609375,31.420468749999998,0)" xlink:href="#N"/><use transform="matrix(0.010849609375,0,0,0.010849609375,43.138046875,0)" xlink:href="#W"/><use transform="matrix(0.010849609375,0,0,0.010849609375,54.812226562499994,0)" xlink:href="#X"/><use transform="matrix(0.010849609375,0,0,0.010849609375,62.233359375,0)" xlink:href="#R"/><use transform="matrix(0.010849609375,0,0,0.010849609375,71.62912109375,0)" xlink:href="#S"/></g><path d="M1148-926c58 156 58 382 0 538C1064-162 892 0 593 0H139v-1314h454c298 6 472 162 555 388zM976-442c38-121 39-309 0-430-55-171-167-295-383-295H322v1020c157-7 329 19 441-35 105-50 176-139 213-260" id="ao"/><g id="r"><use transform="matrix(0.010849609375,0,0,0.010849609375,0,0)" xlink:href="#ao"/><use transform="matrix(0.010849609375,0,0,0.010849609375,13.670507812499999,0)" xlink:href="#S"/><use transform="matrix(0.010849609375,0,0,0.010849609375,24.726259765625,0)" xlink:href="#L"/><use transform="matrix(0.010849609375,0,0,0.010849609375,33.416796874999996,0)" xlink:href="#R"/><use transform="matrix(0.010849609375,0,0,0.010849609375,42.81255859375,0)" xlink:href="#X"/><use transform="matrix(0.010849609375,0,0,0.010849609375,50.5591796875,0)" xlink:href="#ac"/><use transform="matrix(0.010849609375,0,0,0.010849609375,55.658496093749996,0)" xlink:href="#T"/><use transform="matrix(0.010849609375,0,0,0.010849609375,67.235029296875,0)" xlink:href="#U"/><use transform="matrix(0.010849609375,0,0,0.010849609375,74.46086914062501,0)" xlink:href="#N"/><use transform="matrix(0.010849609375,0,0,0.010849609375,86.17844726562501,0)" xlink:href="#X"/></g><g id="s"><use transform="matrix(0.010849609375,0,0,0.010849609375,0,0)" xlink:href="#ac"/><use transform="matrix(0.010849609375,0,0,0.010849609375,5.09931640625,0)" xlink:href="#Q"/><use transform="matrix(0.010849609375,0,0,0.010849609375,16.773496093749998,0)" xlink:href="#an"/><use transform="matrix(0.010849609375,0,0,0.010849609375,28.44767578125,0)" xlink:href="#S"/><use transform="matrix(0.010849609375,0,0,0.010849609375,39.503427734374995,0)" xlink:href="#X"/><use transform="matrix(0.010849609375,0,0,0.010849609375,47.250048828124996,0)" xlink:href="#ac"/><use transform="matrix(0.010849609375,0,0,0.010849609375,52.349365234375,0)" xlink:href="#U"/><use transform="matrix(0.010849609375,0,0,0.010849609375,59.553505859374994,0)" xlink:href="#S"/><use transform="matrix(0.010849609375,0,0,0.010849609375,70.60925781249999,0)" xlink:href="#Z"/></g><g id="t"><use transform="matrix(0.010849609375,0,0,0.010849609375,0,0)" xlink:href="#aa"/><use transform="matrix(0.010849609375,0,0,0.010849609375,6.781005859375,0)" xlink:href="#X"/><use transform="matrix(0.010849609375,0,0,0.010849609375,14.16958984375,0)" xlink:href="#N"/><use transform="matrix(0.010849609375,0,0,0.010849609375,25.88716796875,0)" xlink:href="#ak"/></g><g id="u"><use transform="matrix(0.010849609375,0,0,0.010849609375,0,0)" xlink:href="#X"/><use transform="matrix(0.010849609375,0,0,0.010849609375,7.453681640625,0)" xlink:href="#S"/><use transform="matrix(0.010849609375,0,0,0.010849609375,18.50943359375,0)" xlink:href="#L"/><use transform="matrix(0.010849609375,0,0,0.010849609375,27.199970703124997,0)" xlink:href="#N"/><use transform="matrix(0.010849609375,0,0,0.010849609375,38.91754882812499,0)" xlink:href="#W"/><use transform="matrix(0.010849609375,0,0,0.010849609375,50.591728515625,0)" xlink:href="#X"/><use transform="matrix(0.010849609375,0,0,0.010849609375,58.012861328124984,0)" xlink:href="#R"/><use transform="matrix(0.010849609375,0,0,0.010849609375,67.408623046875,0)" xlink:href="#S"/></g><g id="v"><use transform="matrix(0.010849609375,0,0,0.010849609375,0,0)" xlink:href="#Z"/><use transform="matrix(0.010849609375,0,0,0.010849609375,11.674179687499999,0)" xlink:href="#R"/><use transform="matrix(0.010849609375,0,0,0.010849609375,21.06994140625,0)" xlink:href="#U"/><use transform="matrix(0.010849609375,0,0,0.010849609375,28.512773437499998,0)" xlink:href="#O"/><use transform="matrix(0.010849609375,0,0,0.010849609375,34.458359375,0)" xlink:href="#aa"/><use transform="matrix(0.010849609375,0,0,0.010849609375,40.77283203125,0)" xlink:href="#N"/><use transform="matrix(0.010849609375,0,0,0.010849609375,52.49041015625,0)" xlink:href="#X"/><use transform="matrix(0.010849609375,0,0,0.010849609375,60.237031249999994,0)" xlink:href="#ak"/><use transform="matrix(0.010849609375,0,0,0.010849609375,77.9869921875,0)" xlink:href="#ad"/><use transform="matrix(0.010849609375,0,0,0.010849609375,88.42431640625,0)" xlink:href="#U"/></g><g id="w"><use transform="matrix(0.010849609375,0,0,0.010849609375,0,0)" xlink:href="#ad"/><use transform="matrix(0.010849609375,0,0,0.010849609375,10.643466796875,0)" xlink:href="#X"/><use transform="matrix(0.010849609375,0,0,0.010849609375,18.390087890625,0)" xlink:href="#U"/><use transform="matrix(0.010849609375,0,0,0.010849609375,25.832919921875,0)" xlink:href="#ac"/><use transform="matrix(0.010849609375,0,0,0.010849609375,30.932236328124997,0)" xlink:href="#aa"/><use transform="matrix(0.010849609375,0,0,0.010849609375,37.2792578125,0)" xlink:href="#ad"/><use transform="matrix(0.010849609375,0,0,0.010849609375,47.922724609374995,0)" xlink:href="#R"/><use transform="matrix(0.010849609375,0,0,0.010849609375,57.318486328125,0)" xlink:href="#U"/></g><g id="x"><use transform="matrix(0.010849609375,0,0,0.010849609375,0,0)" xlink:href="#X"/><use transform="matrix(0.010849609375,0,0,0.010849609375,7.388583984375,0)" xlink:href="#N"/><use transform="matrix(0.010849609375,0,0,0.010849609375,19.106162109375,0)" xlink:href="#Y"/><use transform="matrix(0.010849609375,0,0,0.010849609375,24.205478515625,0)" xlink:href="#S"/></g><g id="y"><use transform="matrix(0.010849609375,0,0,0.010849609375,0,0)" xlink:href="#Z"/><use transform="matrix(0.010849609375,0,0,0.010849609375,11.674179687499999,0)" xlink:href="#R"/><use transform="matrix(0.010849609375,0,0,0.010849609375,21.06994140625,0)" xlink:href="#U"/><use transform="matrix(0.010849609375,0,0,0.010849609375,28.512773437499998,0)" xlink:href="#O"/><use transform="matrix(0.010849609375,0,0,0.010849609375,34.458359375,0)" xlink:href="#R"/><use transform="matrix(0.010849609375,0,0,0.010849609375,43.669677734375,0)" xlink:href="#N"/><use transform="matrix(0.010849609375,0,0,0.010849609375,55.38725585937501,0)" xlink:href="#Q"/><use transform="matrix(0.010849609375,0,0,0.010849609375,66.931240234375,0)" xlink:href="#aa"/><use transform="matrix(0.010849609375,0,0,0.010849609375,73.245712890625,0)" xlink:href="#N"/><use transform="matrix(0.010849609375,0,0,0.010849609375,84.963291015625,0)" xlink:href="#X"/><use transform="matrix(0.010849609375,0,0,0.010849609375,92.709912109375,0)" xlink:href="#ak"/><use transform="matrix(0.010849609375,0,0,0.010849609375,110.45987304687499,0)" xlink:href="#L"/><use transform="matrix(0.010849609375,0,0,0.010849609375,119.15041015625002,0)" xlink:href="#ae"/><use transform="matrix(0.010849609375,0,0,0.010849609375,128.00369140625,0)" xlink:href="#N"/></g><path d="M75-653h478v149H75v-149" id="ap"/><path d="M882-1314v148H321v455h477v148H321V0H138v-1314h744" id="aq"/><g id="z"><use transform="matrix(0.010849609375,0,0,0.010849609375,0,0)" xlink:href="#Q"/><use transform="matrix(0.010849609375,0,0,0.010849609375,11.674179687499999,0)" xlink:href="#N"/><use transform="matrix(0.010849609375,0,0,0.010849609375,23.391757812499993,0)" xlink:href="#Q"/><use transform="matrix(0.010849609375,0,0,0.010849609375,35.0659375,0)" xlink:href="#ap"/><use transform="matrix(0.010849609375,0,0,0.010849609375,41.868642578125,0)" xlink:href="#am"/><use transform="matrix(0.010849609375,0,0,0.010849609375,53.347529296874995,0)" xlink:href="#V"/><use transform="matrix(0.010849609375,0,0,0.010849609375,65.19530273437499,0)" xlink:href="#ag"/><use transform="matrix(0.010849609375,0,0,0.010849609375,79.907373046875,0)" xlink:href="#aq"/></g><g id="A"><use transform="matrix(0.010849609375,0,0,0.010849609375,0,0)" xlink:href="#P"/><use transform="matrix(0.010849609375,0,0,0.010849609375,11.847773437499999,0)" xlink:href="#Y"/><use transform="matrix(0.010849609375,0,0,0.010849609375,16.94708984375,0)" xlink:href="#ad"/><use transform="matrix(0.010849609375,0,0,0.010849609375,27.590556640625,0)" xlink:href="#L"/><use transform="matrix(0.010849609375,0,0,0.010849609375,36.28109375,0)" xlink:href="#L"/></g><path d="M586 14c-139 0-211-58-275-138-12 47 7 124-53 124H144v-1422h176v583c74-85 165-154 314-154 264 0 368 206 368 479 0 238-85 409-243 490-51 25-109 38-173 38zm235-522c0-208-63-346-246-346-127 0-194 66-255 146v472c53 73 113 114 222 114 204 0 279-159 279-386" id="ar"/><g id="B"><use transform="matrix(0.010849609375,0,0,0.010849609375,0,0)" xlink:href="#X"/><use transform="matrix(0.010849609375,0,0,0.010849609375,7.44283203125,0)" xlink:href="#Z"/><use transform="matrix(0.010849609375,0,0,0.010849609375,19.11701171875,0)" xlink:href="#aa"/><use transform="matrix(0.010849609375,0,0,0.010849609375,25.605078125,0)" xlink:href="#L"/><use transform="matrix(0.010849609375,0,0,0.010849609375,34.295615234375,0)" xlink:href="#O"/><use transform="matrix(0.010849609375,0,0,0.010849609375,40.241201171875,0)" xlink:href="#L"/><use transform="matrix(0.010849609375,0,0,0.010849609375,48.93173828125,0)" xlink:href="#W"/><use transform="matrix(0.010849609375,0,0,0.010849609375,60.60591796875,0)" xlink:href="#ar"/><use transform="matrix(0.010849609375,0,0,0.010849609375,72.28009765624999,0)" xlink:href="#P"/><use transform="matrix(0.010849609375,0,0,0.010849609375,84.12787109374999,0)" xlink:href="#Y"/><use transform="matrix(0.010849609375,0,0,0.010849609375,89.22718749999997,0)" xlink:href="#ad"/><use transform="matrix(0.010849609375,0,0,0.010849609375,99.87065429687499,0)" xlink:href="#L"/><use transform="matrix(0.010849609375,0,0,0.010849609375,108.56119140624999,0)" xlink:href="#L"/><use transform="matrix(0.010849609375,0,0,0.010849609375,117.25172851562499,0)" xlink:href="#ag"/><use transform="matrix(0.010849609375,0,0,0.010849609375,131.963798828125,0)" xlink:href="#aa"/></g><g id="C"><use transform="matrix(0.010849609375,0,0,0.010849609375,0,0)" xlink:href="#X"/><use transform="matrix(0.010849609375,0,0,0.010849609375,7.44283203125,0)" xlink:href="#Z"/><use transform="matrix(0.010849609375,0,0,0.010849609375,19.11701171875,0)" xlink:href="#aa"/><use transform="matrix(0.010849609375,0,0,0.010849609375,25.898017578125,0)" xlink:href="#O"/><use transform="matrix(0.010849609375,0,0,0.010849609375,31.843603515625,0)" xlink:href="#U"/><use transform="matrix(0.010849609375,0,0,0.010849609375,39.286435546875,0)" xlink:href="#af"/><use transform="matrix(0.010849609375,0,0,0.010849609375,49.3440234375,0)" xlink:href="#T"/><use transform="matrix(0.010849609375,0,0,0.010849609375,61.018203125,0)" xlink:href="#S"/></g><g id="D"><use transform="matrix(0.010849609375,0,0,0.010849609375,0,0)" xlink:href="#am"/><use transform="matrix(0.010849609375,0,0,0.010849609375,11.47888671875,0)" xlink:href="#V"/><use transform="matrix(0.010849609375,0,0,0.010849609375,23.32666015625,0)" xlink:href="#ag"/><use transform="matrix(0.010849609375,0,0,0.010849609375,38.03873046875,0)" xlink:href="#aq"/></g><linearGradient gradientUnits="userSpaceOnUse" id="E" x1="9.13" y1="415.22" x2="9.13" y2="533.33"><stop offset="0%" stop-color="#fff"/><stop offset="12.18%" stop-color="#fff"/><stop offset="100%" stop-color="#dbdbdb"/></linearGradient><path d="M21-978c68 8 173-25 191 37 66 230 131 458 192 691 6 21 9 43 12 64 75-256 159-506 233-760 13-43 73-33 125-34 27 0 43 14 50 34 75 254 156 502 227 760 7-43 18-87 31-132l179-624c15-59 116-29 182-36L1136 0H996c-17 0-28-11-35-33-73-235-147-469-219-705-4-15-7-30-10-45-7 32-14 62-23 92L501-33C485 26 391-10 329 0" id="as"/><g id="F"><use transform="matrix(0.010849609375,0,0,0.010849609375,0,0)" xlink:href="#N"/><use transform="matrix(0.010849609375,0,0,0.010849609375,11.63078125,0)" xlink:href="#as"/><use transform="matrix(0.010849609375,0,0,0.010849609375,27.514609375,0)" xlink:href="#Y"/><use transform="matrix(0.010849609375,0,0,0.010849609375,32.613925781249996,0)" xlink:href="#O"/></g><path d="M304-1012c2 28 4 55 4 84V0H148v-1314c60 5 126-11 157 31l714 983c-2-29-5-61-5-91v-923h160V0c-61-3-126 10-156-32" id="at"/><path d="M349 0H167v-1314h182V0" id="au"/><path d="M542 0H383L19-978h145c26-1 46 18 53 36 77 231 156 461 231 694 7 22 12 44 17 67 10-48 25-91 40-135l212-626c18-58 121-29 189-36" id="av"/><g id="G"><use transform="matrix(0.010849609375,0,0,0.010849609375,0,0)" xlink:href="#at"/><use transform="matrix(0.010849609375,0,0,0.010849609375,14.34318359375,0)" xlink:href="#ad"/><use transform="matrix(0.010849609375,0,0,0.010849609375,24.986650390625005,0)" xlink:href="#ak"/><use transform="matrix(0.010849609375,0,0,0.010849609375,42.736611328125,0)" xlink:href="#S"/><use transform="matrix(0.010849609375,0,0,0.010849609375,53.792363281250005,0)" xlink:href="#Z"/><use transform="matrix(0.010849609375,0,0,0.010849609375,65.46654296875,0)" xlink:href="#au"/><use transform="matrix(0.010849609375,0,0,0.010849609375,71.06494140625,0)" xlink:href="#Q"/><use transform="matrix(0.010849609375,0,0,0.010849609375,82.73912109375,0)" xlink:href="#Z"/><use transform="matrix(0.010849609375,0,0,0.010849609375,94.41330078125,0)" xlink:href="#ac"/><use transform="matrix(0.010849609375,0,0,0.010849609375,99.5126171875,0)" xlink:href="#av"/><use transform="matrix(0.010849609375,0,0,0.010849609375,109.548505859375,0)" xlink:href="#ac"/><use transform="matrix(0.010849609375,0,0,0.010849609375,114.647822265625,0)" xlink:href="#Z"/><use transform="matrix(0.010849609375,0,0,0.010849609375,126.322001953125,0)" xlink:href="#W"/><use transform="matrix(0.010849609375,0,0,0.010849609375,137.996181640625,0)" xlink:href="#ad"/><use transform="matrix(0.010849609375,0,0,0.010849609375,148.6396484375,0)" xlink:href="#Y"/></g><g id="H"><use transform="matrix(0.010849609375,0,0,0.010849609375,0,0)" xlink:href="#X"/><use transform="matrix(0.010849609375,0,0,0.010849609375,7.44283203125,0)" xlink:href="#Z"/><use transform="matrix(0.010849609375,0,0,0.010849609375,19.11701171875,0)" xlink:href="#aa"/><use transform="matrix(0.010849609375,0,0,0.010849609375,25.898017578125,0)" xlink:href="#O"/><use transform="matrix(0.010849609375,0,0,0.010849609375,31.843603515625,0)" xlink:href="#T"/><use transform="matrix(0.010849609375,0,0,0.010849609375,43.517783203125,0)" xlink:href="#X"/><use transform="matrix(0.010849609375,0,0,0.010849609375,50.90636718750001,0)" xlink:href="#N"/><use transform="matrix(0.010849609375,0,0,0.010849609375,62.6239453125,0)" xlink:href="#T"/><use transform="matrix(0.010849609375,0,0,0.010849609375,74.298125,0)" xlink:href="#S"/><use transform="matrix(0.010849609375,0,0,0.010849609375,85.353876953125,0)" xlink:href="#X"/><use transform="matrix(0.010849609375,0,0,0.010849609375,93.10049804687499,0)" xlink:href="#U"/><use transform="matrix(0.010849609375,0,0,0.010849609375,100.543330078125,0)" xlink:href="#af"/></g><path d="M407-674L27-1314h181c27 0 37 9 46 25l289 512c93-171 187-340 282-509 9-15 19-27 41-28h174L658-684 1052 0H871c-27 1-41-18-50-34L524-570C428-389 328-212 228-34c-9 16-22 34-47 34H11" id="aw"/><g id="I"><use transform="matrix(0.010849609375,0,0,0.010849609375,0,0)" xlink:href="#aw"/><use transform="matrix(0.010849609375,0,0,0.010849609375,11.316142578125,0)" xlink:href="#aj"/><use transform="matrix(0.010849609375,0,0,0.010849609375,21.525624999999998,0)" xlink:href="#ao"/></g><g id="J"><use transform="matrix(0.010849609375,0,0,0.010849609375,0,0)" xlink:href="#ao"/><use transform="matrix(0.010849609375,0,0,0.010849609375,13.670507812499999,0)" xlink:href="#ad"/><use transform="matrix(0.010849609375,0,0,0.010849609375,24.10783203125,0)" xlink:href="#U"/><use transform="matrix(0.010849609375,0,0,0.010849609375,31.279423828124997,0)" xlink:href="#ad"/><use transform="matrix(0.010849609375,0,0,0.010849609375,41.716748046875,0)" xlink:href="#U"/><use transform="matrix(0.010849609375,0,0,0.010849609375,49.159580078124996,0)" xlink:href="#af"/><use transform="matrix(0.010849609375,0,0,0.010849609375,59.21716796875,0)" xlink:href="#T"/><use transform="matrix(0.010849609375,0,0,0.010849609375,70.89134765624999,0)" xlink:href="#S"/></g><g id="K"><use transform="matrix(0.010849609375,0,0,0.010849609375,0,0)" xlink:href="#ai"/><use transform="matrix(0.010849609375,0,0,0.010849609375,9.493408203125,0)" xlink:href="#L"/><use transform="matrix(0.010849609375,0,0,0.010849609375,18.1839453125,0)" xlink:href="#Z"/><use transform="matrix(0.010849609375,0,0,0.010849609375,29.858125000000005,0)" xlink:href="#O"/><use transform="matrix(0.010849609375,0,0,0.010849609375,35.8037109375,0)" xlink:href="#U"/><use transform="matrix(0.010849609375,0,0,0.010849609375,43.02955078125,0)" xlink:href="#N"/><use transform="matrix(0.010849609375,0,0,0.010849609375,54.74712890625,0)" xlink:href="#M"/><use transform="matrix(0.010849609375,0,0,0.010849609375,64.13204101562499,0)" xlink:href="#S"/><use transform="matrix(0.010849609375,0,0,0.010849609375,75.18779296874999,0)" xlink:href="#Q"/></g></defs></g></svg>