<svg xmlns="http://www.w3.org/2000/svg" xmlns:xlink="http://www.w3.org/1999/xlink" xmlns:lucid="lucid" width="1333.67" height="950.67"><g transform="translate(0 0)" lucid:page-tab-id="jywGCS1rU53hZ"><path d="M0 0h1333.67v950.67H0z" fill="#fff"/><path d="M2696.62 113.06h36912.4v1975.27H2696.62z" stroke="#000" stroke-opacity="0" stroke-width="1.67" fill-opacity="0"/><use xlink:href="#a" transform="matrix(1,0,0,1,22.800795999999995,11.376800000000001) translate(20.369213867187497 20.1675)"/><use xlink:href="#b" transform="matrix(1,0,0,1,22.800795999999995,11.376800000000001) translate(116.0843017578125 20.1675)"/><path d="M840.07 416.27h-153.7c-10.56 0-19.2 8.62-19.2 19.25v79.6c0 10.64 8.64 19.26 19.2 19.26h153.7c10.57 0 19.22-8.62 19.22-19.25v-79.6c0-10.64-8.66-19.26-19.23-19.26z" stroke="#000" stroke-width="5" fill="url(#c)"/><use xlink:href="#d" transform="matrix(1,0,0,1,675.9987960080119,425.1262499806625) translate(59.6327783203125 56.055)"/><path d="M840.07 236.74h-153.7c-10.56 0-19.2 8.62-19.2 19.25v79.6c0 10.63 8.64 19.25 19.2 19.25h153.7c10.57 0 19.22-8.62 19.22-19.25V256c0-10.64-8.66-19.26-19.23-19.26z" stroke="#000" stroke-width="1.11" fill="url(#e)"/><use xlink:href="#f" transform="matrix(1,0,0,1,675.9987960080113,245.5982499806644) translate(20.747778320312506 56.055)"/><use xlink:href="#g" transform="matrix(1,0,0,1,675.9987960080113,245.5982499806644) translate(73.2381884765625 56.055)"/><path d="M763.78 415.7h-1.1v-19.47h1.1zm0-40.8h-1.1v-19.04h1.1z"/><path/><path d="M773.88 372.87l-.95.57-9.7-16.4-9.7 16.4-.96-.57 10.33-17.47h.65z"/><use xlink:href="#h" transform="matrix(1,0,0,1,720.3598024774661,374.8918333333333) translate(0.005000000000002558 14.222222222222223)"/><use xlink:href="#i" transform="matrix(1,0,0,1,720.3598024774661,374.8918333333333) translate(17.733395061728398 14.222222222222223)"/><use xlink:href="#j" transform="matrix(1,0,0,1,720.3598024774661,374.8918333333333) translate(70.91858024691359 14.222222222222223)"/><path d="M593.07 612.74h-153.7c-10.56 0-19.2 4.45-19.2 9.94v41.12c0 5.5 8.64 9.95 19.2 9.95h153.7c10.57 0 19.22-4.46 19.22-9.95v-41.12c0-5.5-8.66-9.94-19.23-9.94z" stroke="#000" fill="#fff"/><use xlink:href="#k" transform="matrix(1,0,0,1,437.45234001047334,621.6437519717647) translate(37.6575634765625 14.223000000000003)"/><use xlink:href="#l" transform="matrix(1,0,0,1,437.45234001047334,621.6437519717647) translate(32.0374658203125 40.887)"/><path d="M1087.14 612.74h-153.7c-10.56 0-19.2 4.45-19.2 9.94v41.12c0 5.5 8.64 9.95 19.2 9.95h153.7c10.57 0 19.22-4.46 19.22-9.95v-41.12c0-5.5-8.65-9.94-19.22-9.94z" stroke="#000" fill="#fff"/><use xlink:href="#k" transform="matrix(1,0,0,1,931.5218400059747,621.6437519717647) translate(37.6575634765625 14.223000000000003)"/><use xlink:href="#l" transform="matrix(1,0,0,1,931.5218400059747,621.6437519717647) translate(32.0374658203125 40.887)"/><path d="M600.37 613.15l-.62-.92 41.95-28.53h1.97zm114.68-78l-40 27.2h-2l41.37-28.12z"/><path/><path d="M609.14 594.78l-8.1 17.25 19-1.2.08 1.1-19.65 1.25-1.14-.15 8.8-18.72z"/><use xlink:href="#m" transform="matrix(1,0,0,1,607.0599733265208,562.3625333333334) translate(0.005000000000002558 14.222222222222223)"/><use xlink:href="#n" transform="matrix(1,0,0,1,607.0599733265208,562.3625333333334) translate(33.58524691358026 14.222222222222223)"/><path d="M927.32 612.14l-.63.92L889 587.6h2zm-67.9-45.88h-1.98l-46.04-31.1.63-.93z"/><path/><path d="M927.74 612.95l-1.16.14-19.64-1.2.07-1.1 19.03 1.15-8.16-17.23 1-.48z"/><use xlink:href="#m" transform="matrix(1,0,0,1,822.9029972411323,566.2573933333332) translate(0.005000000000002558 14.222222222222223)"/><use xlink:href="#n" transform="matrix(1,0,0,1,822.9029972411323,566.2573933333332) translate(33.58524691358026 14.222222222222223)"/><path d="M377.9 757.3H224.2c-10.55 0-19.2 8.6-19.2 19.24v79.6c0 10.64 8.65 19.26 19.2 19.26h153.7c10.58 0 19.23-8.62 19.23-19.25v-79.6c0-10.64-8.65-19.26-19.22-19.26z" stroke="#000" fill="url(#o)"/><use xlink:href="#p" transform="matrix(1,0,0,1,213.83779600003209,766.1492499806516) translate(32.84509277343749 56.055)"/><path d="M589.93 757.3h-153.7c-10.57 0-19.22 8.6-19.22 19.24v79.6c0 10.64 8.66 19.26 19.22 19.26h153.7c10.57 0 19.22-8.62 19.22-19.25v-79.6c0-10.64-8.65-19.26-19.2-19.26z" stroke="#000" stroke-width="1.11" fill="url(#q)"/><use xlink:href="#r" transform="matrix(1,0,0,1,425.84979600801137,766.1492499806635) translate(60.994404296875004 56.055)"/><path d="M872.9 757.3H719.2c-10.55 0-19.2 8.6-19.2 19.24v79.6c0 10.64 8.65 19.26 19.2 19.26h153.7c10.58 0 19.23-8.62 19.23-19.25v-79.6c0-10.64-8.65-19.26-19.22-19.26z" stroke="#000" fill="url(#s)"/><use xlink:href="#t" transform="matrix(1,0,0,1,708.8377960000323,766.149249980661) translate(37.374804687499996 56.055)"/><path d="M1301.37 757.3h-153.7c-10.56 0-19.2 8.6-19.2 19.24v79.6c0 10.64 8.64 19.26 19.2 19.26h153.7c10.57 0 19.22-8.62 19.22-19.25v-79.6c0-10.64-8.66-19.26-19.23-19.26z" stroke="#000" stroke-width="1.11" fill="url(#u)"/><use xlink:href="#v" transform="matrix(1,0,0,1,1137.2987960118503,766.1492499806521) translate(33.1271826171875 56.055)"/><path d="M1087.14 757.3h-153.7c-10.56 0-19.2 8.6-19.2 19.24v79.6c0 10.64 8.64 19.26 19.2 19.26h153.7c10.57 0 19.22-8.62 19.22-19.25v-79.6c0-10.64-8.65-19.26-19.22-19.26z" stroke="#000" stroke-width="1.11" fill="url(#w)"/><use xlink:href="#x" transform="matrix(1,0,0,1,923.0682960059435,766.1492499806592) translate(67.5638427734375 56.055)"/><path d="M350.24 757.17l-.64-.9 44.06-30.92h1.94zm117.82-82.65L426 704.02h-1.93l43.35-30.4z"/><path d="M468.05 674.53l-.2-.28h.6zM358.74 738.67l-7.86 17.37 19-1.48.1 1.1-14.46 1.13h-6.2l8.4-18.58z"/><use xlink:href="#m" transform="matrix(1,0,0,1,378.2794162702412,704.0174033333286) translate(0.004999999999999005 14.222222222222223)"/><use xlink:href="#y" transform="matrix(1,0,0,1,378.2794162702412,704.0174033333286) translate(33.58524691358025 14.222222222222223)"/><path d="M516.78 755.73h-1.1v-40.6h1.1zm0-61.94h-1.1v-19.5h1.1z"/><path d="M516.78 674.32h-1.1l1.1-.07zM526.88 738.7l-10.66 18.04-10.66-18.03.96-.55 9.7 16.4 9.7-16.4z"/><use xlink:href="#z" transform="matrix(1,0,0,1,476.7662419688828,693.786893325598) translate(0.005000000000002558 14.222222222222223)"/><path d="M845.24 757.16l-.64-.9 43.7-30.9h1.93zm116.9-82.64l-41.73 29.5h-1.9l43-30.4z"/><path d="M962.12 674.53l-.2-.28h.6zM853.67 738.64l-7.8 17.4 19-1.56.1 1.1-14.74 1.2h-5.9l8.33-18.6z"/><use xlink:href="#m" transform="matrix(1,0,0,1,872.8043712679396,704.0174033333335) translate(0.004999999999999005 14.222222222222223)"/><use xlink:href="#y" transform="matrix(1,0,0,1,872.8043712679396,704.0174033333335) translate(33.58524691358025 14.222222222222223)"/><path d="M1010.85 755.73h-1.1V725.9h1.1zm0-51.15h-1.1V674.3h1.1z"/><path d="M1010.85 674.32h-1.1l1.1-.07zM1020.95 738.7l-10.66 18.04-10.67-18.03.96-.55 9.7 16.4 9.7-16.4z"/><use xlink:href="#z" transform="matrix(1,0,0,1,970.8357419643721,704.5753333228778) translate(0.005000000000002558 14.222222222222223)"/><path d="M1176 756.26l-.65.9-15.46-10.92h1.92zm-44.36-31.36h-1.92l-71.26-50.38.64-.9z"/><path d="M1058.47 674.53l-.4-.28h.6zM1176.24 756.74h-6.56l-14.06-1.15.1-1.12 19 1.55-4.4-9.8h1.22z"/><use xlink:href="#A" transform="matrix(1,0,0,1,1085.5956146745848,724.9031533333333) translate(0.005000000000002558 14.222222222222223)"/><path d="M1130.47 416.27h-153.7c-10.57 0-19.22 8.62-19.22 19.25v79.6c0 10.64 8.65 19.26 19.22 19.26h153.7c10.56 0 19.2-8.62 19.2-19.25v-79.6c0-10.64-8.64-19.26-19.2-19.26z" stroke="#000" stroke-width="1.11" fill="#a5a5a5"/><use xlink:href="#B" transform="matrix(1,0,0,1,966.391796008009,425.12624998066224) translate(58.189780273437506 56.055)"/><path d="M859.84 475.32h96.7" fill="none"/><path d="M859.84 475.32h5.37m5.4 0h10.73m5.37 0h10.75m5.37 0h10.75m5.37 0h10.74m5.38 0h10.74m5.37 0h5.38" stroke="#000" stroke-width="1.11" fill="none"/><path/><path d="M939.25 485.5l17.2-10.18-17.2-10.18" stroke="#000" stroke-width="1.11" fill="none"/><path d="M763.78 236.2h-1.1v-18.9h1.1zm0-40.22h-1.1v-19.65h1.1z"/><path d="M763.78 236.2h-1.1l1.1-.03zM773.88 193.35l-.95.56-9.7-16.4-9.7 16.4-.96-.55 10.33-17.47h.65z"/><use xlink:href="#C" transform="matrix(1,0,0,1,716.8536296379599,195.97900333333328) translate(0.005000000000002558 14.222222222222223)"/><use xlink:href="#D" transform="matrix(1,0,0,1,716.8536296379599,195.97900333333328) translate(77.93092592592592 14.222222222222223)"/><path d="M840.07 57.2h-153.7c-10.56 0-19.2 8.64-19.2 19.26v79.6c0 10.64 8.64 19.26 19.2 19.26h153.7c10.57 0 19.22-8.62 19.22-19.25v-79.6c0-10.63-8.66-19.26-19.23-19.26z" stroke="#000" stroke-width="1.11" fill="url(#E)"/><use xlink:href="#F" transform="matrix(1,0,0,1,675.9987960080116,66.07124998066556) translate(66.061171875 42.723)"/><use xlink:href="#G" transform="matrix(1,0,0,1,675.9987960080116,66.07124998066556) translate(7.53295410156251 69.387)"/><path d="M859.8 116.5L1129.53 247" fill="none"/><path d="M859.8 116.5l4.98 2.43m5 2.4l10 4.85m4.98 2.4l10 4.85m5 2.4l9.98 4.85m5 2.4l10 4.84m4.98 2.42l10 4.83m5 2.42l9.98 4.82m5 2.42l10 4.83m4.98 2.42l10 4.82m5 2.42l9.98 4.83m5 2.42l10 4.82m4.98 2.42l10 4.83m5 2.42l9.98 4.82m5 2.42l9.98 4.83m5 2.42l10 4.82m5 2.42l9.98 4.83m5 2.42l9.98 4.82m5 2.42l10 4.83m5 2.42l4.98 2.4" stroke="#000" stroke-width="1.11" fill="none"/><path d="M860.04 116.02l-.2.4v-.5zM1130.17 247.03l-.2.45-20.4 1.7-.08-1.1 19-1.6-10.56-15.87.93-.6z"/><path d="M589.93 57.2h-153.7c-10.57 0-19.22 8.64-19.22 19.26v79.6c0 10.64 8.66 19.26 19.22 19.26h153.7c10.57 0 19.22-8.62 19.22-19.25v-79.6c0-10.63-8.65-19.26-19.2-19.26z" stroke="#000" stroke-width="1.11" fill="url(#H)"/><use xlink:href="#I" transform="matrix(1,0,0,1,425.8497960080113,66.07124998066575) translate(41.38916015625 56.055)"/><use xlink:href="#J" transform="matrix(1,0,0,1,425.8497960080113,66.07124998066575) translate(89.290185546875 56.055)"/><path d="M1301.37 236.74h-153.7c-10.56 0-19.2 8.62-19.2 19.25v79.6c0 10.63 8.64 19.25 19.2 19.25h153.7c10.57 0 19.22-8.62 19.22-19.25V256c0-10.64-8.66-19.26-19.23-19.26z" stroke="#000" stroke-width="1.11" fill="#fff"/><use xlink:href="#K" transform="matrix(1,0,0,1,1137.298796011849,245.59824998066443) translate(29.704130859375 56.055)"/><path d="M1225.08 756.74h-1.1v-5.57h1.1zm0-11.14h-1.1v-11.13h1.1zm0-16.7h-1.1v-11.14h1.1zm0-16.7h-1.1v-11.14h1.1zm0-16.7h-1.1v-11.14h1.1zm0-16.7h-1.1v-11.15h1.1zm0-16.72h-1.1v-11.13h1.1zm0-16.7h-1.1v-11.13h1.1zm0-16.7h-1.1v-11.14h1.1zm0-16.7h-1.1v-11.14h1.1zm0-16.7h-1.1v-11.14h1.1zm0-16.7h-1.1v-11.15h1.1zm0-16.7h-1.1v-11.15h1.1zm0-16.72h-1.1v-11.13h1.1zm0-16.7h-1.1v-11.14h1.1zm0-16.7h-1.1v-11.14h1.1zm0-16.7h-1.1V483.9h1.1zm0-16.7h-1.1V467.2h1.1zm0-16.7h-1.1V450.5h1.1zm0-16.72h-1.1V433.8h1.1zm0-16.7h-1.1V417.1h1.1zm0-16.7h-1.1V400.4h1.1zm0-16.7h-1.1V383.7h1.1zm0-16.7h-1.1v-11.15h1.1zm0-16.7h-1.1v-5.58h1.1z"/><path d="M1225.08 756.74h-1.1l1.1-.02zM1235.18 372.87l-.95.57-9.7-16.4-9.7 16.4-.96-.57 10.33-17.47h.65zM513.63 611.68h-1.1V408.82h1.1zm0-224.2h-1.1V176.33h1.1z"/><path d="M513.63 612.24h-1.1v-.57h1.1zM523.73 193.35l-.95.56-9.7-16.4-9.7 16.4-.96-.55 10.33-17.47h.65z"/><use xlink:href="#C" transform="matrix(1,0,0,1,466.70462963795757,387.4819633164578) translate(0.005000000000002558 14.222222222222223)"/><use xlink:href="#D" transform="matrix(1,0,0,1,466.70462963795757,387.4819633164578) translate(77.93092592592592 14.222222222222223)"/><path d="M859.84 295.8h267.6" fill="none"/><path d="M859.84 295.8h5.58m5.57 0h11.14m5.58 0h11.15m5.57 0h11.15m5.57 0h11.15m5.57 0h11.15m5.57 0h11.15m5.58 0h11.15m5.57 0h11.15m5.58 0h11.15m5.57 0h11.15m5.58 0h11.15m5.57 0h11.15m5.58 0h11.15m5.58 0h11.15m5.57 0h11.15m5.58 0h5.57" stroke="#000" stroke-width="1.11" fill="none"/><path d="M859.86 296.35h-.02v-1.1h.02zM1127.9 295.47v.65l-17.46 10.33-.57-.95 16.4-9.7-16.4-9.7.57-.96z"/><path d="M1101.9 415.77l24.95-51.6" stroke="#000" stroke-width="1.11" fill="none"/><path d="M1101.8 415.7h-.5l.1-.2z"/><path d="M1131.27 365.7l-8.35-4.04 10.4-10.82z" fill="#fff"/><path d="M1134 349.82l-2.3 16.7-9.7-4.7 11.73-12.22zm-10.15 11.68l6.97 3.37 1.7-12.4z"/><path d="M182.05 55.4H28.35C17.78 55.4 9.13 64 9.13 74.63v79.6c0 10.63 8.65 19.26 19.22 19.26h153.7c10.56 0 19.2-8.63 19.2-19.26v-79.6c0-10.63-8.64-19.25-19.2-19.25z" stroke="#000" stroke-width="1.11" fill="#fff"/><use xlink:href="#L" transform="matrix(1,0,0,1,17.971795999681873,64.2442500015697) translate(17.44407226562501 56.055)"/><use xlink:href="#M" transform="matrix(1,0,0,1,17.971795999681873,64.2442500015697) translate(112.58429687499999 56.055)"/><path d="M38.1 728.63V657.6M38.1 728.62v.56" stroke="#000" stroke-width="1.11" fill="none"/><path d="M38.1 642.8l4.65 14.26h-9.28z" stroke="#000" stroke-width="1.11" fill="#fff"/><path d="M38.1 835.72V749.1" fill="none"/><path d="M38.1 835.72v-5.78m0-5.77v-11.55m0-5.78V795.3m0-5.78v-11.55m0-5.78v-11.56m0-5.77v-5.78M38.1 835.7v.57M48.3 766.4l-10.2-17.23-10.17 17.22" stroke="#000" stroke-width="1.11" fill="none"/><path d="M182.05 196.68H28.35c-10.57 0-19.22 8.62-19.22 19.25v79.6c0 10.64 8.65 19.26 19.22 19.26h153.7c10.56 0 19.2-8.63 19.2-19.26v-79.6c0-10.64-8.64-19.26-19.2-19.26z" stroke="#000" stroke-width="1.11" fill="#a5a5a5"/><use xlink:href="#N" transform="matrix(1,0,0,1,17.971795999681266,205.5392500015699) translate(38.3783935546875 56.055)"/><use xlink:href="#M" transform="matrix(1,0,0,1,17.971795999681266,205.5392500015699) translate(91.64997558593751 56.055)"/><path d="M182.05 405.6H28.35c-10.57 0-19.22 8.63-19.22 19.26v79.6c0 10.63 8.65 19.26 19.22 19.26h153.7c10.56 0 19.2-8.63 19.2-19.26v-79.6c0-10.63-8.64-19.26-19.2-19.26z" stroke="#000" stroke-width="1.11" fill="url(#O)"/><use xlink:href="#P" transform="matrix(1,0,0,1,17.971795999681838,414.46324998063994) translate(68.220244140625 42.723)"/><use xlink:href="#Q" transform="matrix(1,0,0,1,17.971795999681838,414.46324998063994) translate(10.630517578124994 69.387)"/><path d="M38.1 936.5v-86.62M38.1 936.5v.56M48.3 867.17l-10.2-17.2-10.17 17.2" stroke="#000" stroke-width="1.11" fill="none"/><path d="M11.37 337.98c-.3 0-.56.25-.56.56v43.32c0 .3.26.56.57.56h191c.32 0 .57-.25.57-.56v-43.32c0-.3-.25-.56-.56-.56z" stroke="#000" stroke-width="1.11" fill="#fff"/><g><use xlink:href="#R" transform="matrix(1,0,0,1,19.65179600000002,346.8648000000001) translate(26.41669921875001 19.055)"/><use xlink:href="#S" transform="matrix(1,0,0,1,19.65179600000002,346.8648000000001) translate(66.636201171875 19.055)"/></g><path d="M7986.54 30921.96h27865.3v1975.27H7986.53z" stroke="#000" stroke-opacity="0" stroke-width="1.67" fill-opacity="0"/><g><use xlink:href="#T" transform="matrix(1,0,0,1,56.40623700000001,681.3701714606694) translate(0 19.055)"/></g><path d="M8515.5 35788.42h27865.3v1975.27H8515.5z" stroke="#000" stroke-opacity="0" stroke-width="1.67" fill-opacity="0"/><g><use xlink:href="#U" transform="matrix(1,0,0,1,59.55623699999999,788.4571714606694) translate(0 19.055)"/></g><path d="M8515.5 40368.58h27865.3v1975.27H8515.5z" stroke="#000" stroke-opacity="0" stroke-width="1.67" fill-opacity="0"/><g><use xlink:href="#V" transform="matrix(1,0,0,1,59.55623699999999,889.2441714606695) translate(0 19.055)"/></g><path d="M1225.08 235.18h-1.1v-5.6h1.1zm0-11.18h-1.1v-11.18h1.1zm0-16.77h-1.1v-11.17h1.1zm0-16.76h-1.1V179.3h1.1zm0-16.77h-1.1v-11.18h1.1zm0-16.77h-1.1v-11.17h1.1zm0-16.76h-1.1V129h1.1zm0-16.77h-1.1v-11.17h1.1zm0-16.76h-1.1V95.46h1.1zm0-16.77h-1.1V78.7h1.1zm0-16.77h-1.1V61.93h1.1zm0-16.76h-1.1V45.16h1.1zm-711.45-.24h-1.1v-6.48h1.1zm0-12.96h-1.1V30.18h1.1zm711.45-3.57h-1.1V28.4h1.1zM519.14 17.2h-5.4l-.08.05-.03.08v6.37h-1.1v-6.6l.28-.7.72-.3h5.62zm705.64-.8l.3.7v5.7h-1.1v-5.47l-.04-.08-.1-.04h-5.38v-1.1h5.6zm-689.12.8h-11v-1.1h11zm16.52 0h-11v-1.1h11zm16.52 0h-11v-1.1h11zm16.52 0h-11v-1.1h11zm16.52 0h-11.02v-1.1h11.02zm16.52 0h-11.02v-1.1h11.02zm16.52 0h-11.02v-1.1h11.02zm16.52 0h-11.02v-1.1h11.02zm16.5 0h-11v-1.1h11zm16.53 0h-11v-1.1h11zm16.52 0h-11v-1.1h11zm16.52 0h-11v-1.1h11zm16.52 0h-11.02v-1.1h11zm16.5 0h-11v-1.1h11zm16.53 0h-11v-1.1h11zm16.52 0h-11v-1.1h11zm16.52 0h-11v-1.1h11zm16.52 0h-11.02v-1.1h11zm16.5 0h-11v-1.1h11zm16.53 0H838.5v-1.1h11.03zm16.52 0h-11.02v-1.1h11.02zm16.52 0h-11.02v-1.1h11.02zm16.5 0h-11v-1.1h11zm16.53 0h-11v-1.1h11zm16.52 0h-11v-1.1h11zm16.52 0h-11v-1.1h11zm16.52 0h-11v-1.1h11zm16.52 0h-11v-1.1h11zm16.52 0h-11v-1.1h11zm16.52 0h-11v-1.1h11zm16.52 0h-11v-1.1h11zm16.52 0h-11v-1.1h11zm16.52 0h-11.02v-1.1h11.02zm16.52 0h-11.02v-1.1h11.02zm16.52 0h-11.02v-1.1h11.02zm16.52 0h-11.02v-1.1h11.02zm16.5 0h-11v-1.1h11zm16.53 0h-11v-1.1h11zm16.52 0h-11.02v-1.1h11zm16.5 0h-11v-1.1h11zm16.53 0h-11v-1.1h11zm16.52 0h-11v-1.1h11z"/><path d="M513.63 56.66h-1.1v-.57h1.1zM1235.18 218.16l-10.66 18.03-10.65-18.04.95-.56 9.7 16.4 9.7-16.4z"/><path d="M183.73 546.9H30.03c-10.57 0-19.22 4.45-19.22 9.94v41.13c0 5.5 8.66 9.94 19.23 9.94h153.7c10.56 0 19.2-4.44 19.2-9.93v-41.13c0-5.5-8.64-9.94-19.2-9.94z" stroke="#000" fill="#fff"/><g><use xlink:href="#W" transform="matrix(1,0,0,1,28.10534000000002,555.8077519839255) translate(27.290761718750005 27.555)"/><use xlink:href="#X" transform="matrix(1,0,0,1,28.10534000000002,555.8077519839255) translate(81.918544921875 27.555)"/></g><defs><path d="M913-1314v148H328v431h471v143H328v444h586L913 0H145v-1314h768" id="Y"/><path d="M323-1422V0H147v-1422h176" id="Z"/><path d="M544 14C232 14 75-190 75-509c0-226 105-376 267-447 57-25 122-37 193-37 265 0 410 167 410 437 0 47-2 68-42 68H249c7 217 94 359 310 364 110 2 183-39 248-80 70-44 93 39 123 67C847-42 716 14 544 14zm243-610c-5-164-86-266-249-269-173-3-262 113-284 269h533" id="aa"/><path d="M545-854c-104 0-170 61-222 126V0H147v-978c54 8 140-23 149 36l15 100c68-77 143-150 284-151 143-1 221 88 255 203 52-123 153-201 320-203 220-2 335 143 335 370V0h-176v-623c1-143-65-231-201-231-139 0-216 89-216 231V0H736v-623c1-145-55-231-191-231" id="ab"/><path d="M575-854c-119 2-197 63-259 134V0H140v-978c55 7 141-23 150 36l15 104c78-83 170-155 321-155 223 0 325 146 325 370V0H775v-623c0-140-61-233-200-231" id="ac"/><path d="M650-73c-53 51-136 87-233 88-153 0-235-95-235-251v-596c-55-8-148 24-148-39v-70l154-20 41-301c4-50 80-28 129-33v335h269v128H358v584c-2 72 34 118 99 120 56 2 78-32 116-46 15 0 19 7 25 17" id="ad"/><g id="a"><use transform="matrix(0.0130224609375,0,0,0.0130224609375,0,0)" xlink:href="#Y"/><use transform="matrix(0.0130224609375,0,0,0.0130224609375,13.0224609375,0)" xlink:href="#Z"/><use transform="matrix(0.0130224609375,0,0,0.0130224609375,19.143017578125,0)" xlink:href="#aa"/><use transform="matrix(0.0130224609375,0,0,0.0130224609375,32.4129052734375,0)" xlink:href="#ab"/><use transform="matrix(0.0130224609375,0,0,0.0130224609375,53.7176513671875,0)" xlink:href="#aa"/><use transform="matrix(0.0130224609375,0,0,0.0130224609375,66.9875390625,0)" xlink:href="#ac"/><use transform="matrix(0.0130224609375,0,0,0.0130224609375,80.7522802734375,0)" xlink:href="#ad"/><path d="M-1.33.08h98.38V2.6H-1.33z"/></g><path d="M306-740c60 2 107 0 133-38l339-494c22-28 41-41 86-42h156L620-750c-21 29-44 49-67 61 31 11 60 31 83 65L1049 0c-85-7-198 21-238-38L463-558c-23-30-38-42-90-42h-67V0H124v-1314h182v574" id="ae"/><path d="M409 288c-14 65-120 35-192 42L385-58 11-978h152c30-1 46 16 53 36 86 232 175 459 256 696 80-235 169-463 250-696 20-58 122-29 191-36" id="af"/><g id="b"><use transform="matrix(0.0130224609375,0,0,0.0130224609375,0,0)" xlink:href="#ae"/><use transform="matrix(0.0130224609375,0,0,0.0130224609375,13.3740673828125,0)" xlink:href="#aa"/><use transform="matrix(0.0130224609375,0,0,0.0130224609375,26.4746630859375,0)" xlink:href="#af"/><path d="M-1.33.08h41.2V2.6h-41.2z"/></g><linearGradient gradientUnits="userSpaceOnUse" id="c" x1="667.16" y1="416.27" x2="667.16" y2="534.38"><stop offset="0%" stop-color="#fff"/><stop offset="20%" stop-color="#fff"/><stop offset="100%" stop-color="#dbdbdb"/></linearGradient><path d="M1178 0c-74-7-179 24-202-42L864-358H322L211-43C194 22 84-6 8 0l493-1314h185zM368-488h450c-69-195-137-390-206-585-7-21-13-44-19-69-68 226-151 434-225 654" id="ag"/><path d="M1148-926c58 156 58 382 0 538C1064-162 892 0 593 0H139v-1314h454c298 6 472 162 555 388zM976-442c38-121 39-309 0-430-55-171-167-295-383-295H322v1020c157-7 329 19 441-35 105-50 176-139 213-260" id="ah"/><path d="M835-479c17 30 30 62 44 96 13-34 27-66 43-96l464-805c25-53 129-21 198-30V0h-161c1-334-2-672 1-1004 1-16 3-32 4-49L959-229c-25 56-126 55-158 0l-480-823c4 33 6 64 6 93V0H167v-1314c56 2 123-6 171 4 9 2 18 12 27 27" id="ai"/><path d="M454-137c154-4 244-84 244-236 0-172-165-194-295-240-161-57-303-135-295-354 9-227 154-362 390-362 152 0 266 55 344 137l-45 85c-37 63-91-1-127-21-44-25-97-52-170-50-136 3-221 69-221 201 0 166 169 187 295 236 153 60 300 130 295 341-6 260-155 414-419 414-174 0-309-76-395-172 24-34 40-77 71-104 55-23 84 36 125 60 52 30 115 67 203 65" id="aj"/><g id="d"><use transform="matrix(0.010849609375,0,0,0.010849609375,0,0)" xlink:href="#ag"/><use transform="matrix(0.010849609375,0,0,0.010849609375,12.856787109374999,0)" xlink:href="#ah"/><use transform="matrix(0.010849609375,0,0,0.010849609375,26.527294921874997,0)" xlink:href="#ai"/><use transform="matrix(0.010849609375,0,0,0.010849609375,45.5249609375,0)" xlink:href="#aj"/></g><linearGradient gradientUnits="userSpaceOnUse" id="e" x1="667.16" y1="236.74" x2="667.16" y2="354.85"><stop offset="0%" stop-color="#fff"/><stop offset="20%" stop-color="#fff"/><stop offset="100%" stop-color="#dbdbdb"/></linearGradient><path d="M1052-184C961-66 832 17 628 14c-289-4-447-172-522-398-53-160-53-388 3-546 81-226 241-394 534-399 180-3 301 72 392 167-25 33-46 70-75 99-51 21-73-33-114-51-77-60-256-80-362-23-152 81-231 248-231 480 0 233 83 400 235 481 113 60 301 37 376-30 33-15 74-101 116-56" id="ak"/><path d="M974-1314v152H591V0H408v-1162H24v-152h950" id="al"/><g id="f"><use transform="matrix(0.010849609375,0,0,0.010849609375,0,0)" xlink:href="#ah"/><use transform="matrix(0.010849609375,0,0,0.010849609375,13.670507812499999,0)" xlink:href="#ak"/><use transform="matrix(0.010849609375,0,0,0.010849609375,25.518281249999998,0)" xlink:href="#ag"/><use transform="matrix(0.010849609375,0,0,0.010849609375,36.639130859375,0)" xlink:href="#al"/></g><path d="M415 284C228 8 104-369 164-836c34-266 128-472 251-661 37 33 133 46 93 119-117 213-205 462-205 771 0 310 84 561 205 772 20 35 8 57-15 71" id="am"/><path d="M75-490c0-310 160-503 466-503s464 194 464 503c0 310-158 504-464 504C234 14 75-180 75-490zm181 1c0 215 74 366 285 366 210 0 283-152 283-366s-74-367-283-367c-211 0-285 152-285 367" id="an"/><path d="M536-823c-141 7-187 99-229 205V0H131v-978c60 8 148-26 154 48l12 144c58-123 149-234 328-202 18 3 34 11 49 21l-14 130c-12 52-78 12-124 14" id="ao"/><path d="M323-978V0H147v-978h176zm-91-431c74 0 125 50 125 125 0 74-52 123-125 123s-122-50-122-123c0-74 48-125 122-125" id="ap"/><path d="M107-679c0-208 143-315 355-315 85 0 156 21 210 54h256c-2 50 12 98-40 106l-104 15c21 43 31 89 31 140 0 207-143 315-353 315-43 0-82-5-118-15-46 21-87 104-30 135 178 96 598-48 598 268 0 166-119 253-254 300-155 54-396 24-493-50-56-42-101-97-101-181 0-110 73-167 160-201-52-25-92-64-89-140 3-77 56-136 120-167-84-50-148-136-148-264zm369 904c144 0 274-38 274-172C750-83 557-56 422-70c-32-3-63-4-93-9C273-48 218-8 218 71c0 125 123 154 258 154zM268-675c2 124 69 192 194 195 124 3 196-76 196-195 0-121-71-194-196-194-123 0-196 74-194 194" id="aq"/><path d="M514-995c228 0 341 142 341 370V0c-56-5-123 17-137-41l-22-91C610-53 522 18 358 15 189 12 84-73 84-244c0-178 154-235 319-276 76-19 169-27 280-30 12-176-30-304-190-304-107 0-171 42-231 86-34 25-81 14-98-16l-32-56c98-93 207-155 382-155zM253-253c0 98 61 145 158 145 133 0 205-61 272-130v-202c-134 6-246 19-333 58-57 26-97 59-97 129" id="ar"/><path d="M206-1498c187 277 310 653 250 1120-34 266-128 473-250 662-30-20-65-35-92-58-16-13-12-41-1-61C234-46 318-297 318-607c0-309-82-562-205-771-16-28-6-59 15-72" id="as"/><g id="g"><use transform="matrix(0.010849609375,0,0,0.010849609375,0,0)" xlink:href="#am"/><use transform="matrix(0.010849609375,0,0,0.010849609375,6.7376074218749995,0)" xlink:href="#an"/><use transform="matrix(0.010849609375,0,0,0.010849609375,18.455185546875,0)" xlink:href="#ao"/><use transform="matrix(0.010849609375,0,0,0.010849609375,26.201806640625005,0)" xlink:href="#ap"/><use transform="matrix(0.010849609375,0,0,0.010849609375,31.301123046875002,0)" xlink:href="#aq"/><use transform="matrix(0.010849609375,0,0,0.010849609375,41.760146484375,0)" xlink:href="#ap"/><use transform="matrix(0.010849609375,0,0,0.010849609375,46.859462890625,0)" xlink:href="#ac"/><use transform="matrix(0.010849609375,0,0,0.010849609375,58.533642578125,0)" xlink:href="#ar"/><use transform="matrix(0.010849609375,0,0,0.010849609375,69.177109375,0)" xlink:href="#Z"/><use transform="matrix(0.010849609375,0,0,0.010849609375,74.27642578125,0)" xlink:href="#as"/></g><path d="M24-231v-30h32v30H24zM24 0v-190h32V0H24" id="at"/><path d="M135-143c-3-34-86-38-87 0 15 53 115 12 119 90S17 21 10-45l28-5c4 36 97 45 98 0-10-56-113-15-118-90-4-57 82-63 122-42 12 7 21 19 24 35" id="au"/><g id="h"><use transform="matrix(0.04938271604938272,0,0,0.04938271604938272,0,0)" xlink:href="#at"/><use transform="matrix(0.04938271604938272,0,0,0.04938271604938272,3.901234567901235,0)" xlink:href="#au"/></g><path d="M115-194c55 1 70 41 70 98S169 2 115 4C84 4 66-9 55-30l1 105H24l-1-265h31l2 30c10-21 28-34 59-34zm-8 174c40 0 45-34 45-75s-6-73-45-74c-42 0-51 32-51 76 0 43 10 73 51 73" id="av"/><path d="M114-163C36-179 61-72 57 0H25l-1-190h30c1 12-1 29 2 39 6-27 23-49 58-41v29" id="aw"/><path d="M100-194c62-1 85 37 85 99 1 63-27 99-86 99S16-35 15-95c0-66 28-99 85-99zM99-20c44 1 53-31 53-75 0-43-8-75-51-75s-53 32-53 75 10 74 51 75" id="ax"/><path d="M101-234c-31-9-42 10-38 44h38v23H63V0H32v-167H5v-23h27c-7-52 17-82 69-68v24" id="ay"/><path d="M24 0v-261h32V0H24" id="az"/><path d="M100-194c63 0 86 42 84 106H49c0 40 14 67 53 68 26 1 43-12 49-29l28 8c-11 28-37 45-77 45C44 4 14-33 15-96c1-61 26-98 85-98zm52 81c6-60-76-77-97-28-3 7-6 17-6 28h103" id="aA"/><g id="i"><use transform="matrix(0.04938271604938272,0,0,0.04938271604938272,0,0)" xlink:href="#av"/><use transform="matrix(0.04938271604938272,0,0,0.04938271604938272,9.876543209876544,0)" xlink:href="#aw"/><use transform="matrix(0.04938271604938272,0,0,0.04938271604938272,15.753086419753087,0)" xlink:href="#ax"/><use transform="matrix(0.04938271604938272,0,0,0.04938271604938272,25.629629629629633,0)" xlink:href="#ay"/><use transform="matrix(0.04938271604938272,0,0,0.04938271604938272,30.567901234567906,0)" xlink:href="#at"/><use transform="matrix(0.04938271604938272,0,0,0.04938271604938272,34.46913580246914,0)" xlink:href="#az"/><use transform="matrix(0.04938271604938272,0,0,0.04938271604938272,38.370370370370374,0)" xlink:href="#aA"/></g><g id="j"><use transform="matrix(0.04938271604938272,0,0,0.04938271604938272,0,0)" xlink:href="#ax"/><use transform="matrix(0.04938271604938272,0,0,0.04938271604938272,9.876543209876544,0)" xlink:href="#ay"/></g><path d="M969-949c0 213-127 324-301 372 24 16 43 33 61 57L1082 0c-87-8-195 23-235-37L536-505c-21-29-36-41-85-41H329V0H147v-1314h360c275 2 462 97 462 365zM500-679c179-3 292-82 292-257 0-157-95-235-285-235H329v492h171" id="aB"/><path d="M95-709c0-188 136-281 332-284 128-2 226 47 291 114-25 33-46 112-108 74-47-29-100-60-179-58-97 2-169 47-169 140 0 121 140 131 235 168 118 46 235 94 235 255C732-91 595 11 381 15 247 17 139-38 70-104c26-39 56-126 124-80 51 35 104 76 195 74 109-2 179-54 179-159 0-126-138-136-236-173C209-488 95-543 95-709" id="aC"/><path d="M450 15c-223 0-325-146-325-370v-623h176v623c0 141 61 233 200 231 119-1 195-63 259-133v-721h176V0c-55-7-141 23-150-36l-16-104C692-57 602 15 450 15" id="aD"/><path d="M69-490c0-299 140-503 438-503 143 0 234 53 308 127-20 26-37 58-61 80-40 18-64-17-93-32-37-19-81-40-143-39-201 7-269 160-269 367 0 204 66 360 261 368 96 4 149-38 198-81 21-19 50-20 67 2l51 64C751-46 640 14 479 14 199 14 69-199 69-490" id="aE"/><g id="k"><use transform="matrix(0.010849609375,0,0,0.010849609375,0,0)" xlink:href="#aB"/><use transform="matrix(0.010849609375,0,0,0.010849609375,11.674179687499999,0)" xlink:href="#aa"/><use transform="matrix(0.010849609375,0,0,0.010849609375,22.729931640624997,0)" xlink:href="#aC"/><use transform="matrix(0.010849609375,0,0,0.010849609375,31.420468749999998,0)" xlink:href="#an"/><use transform="matrix(0.010849609375,0,0,0.010849609375,43.138046875,0)" xlink:href="#aD"/><use transform="matrix(0.010849609375,0,0,0.010849609375,54.812226562499994,0)" xlink:href="#ao"/><use transform="matrix(0.010849609375,0,0,0.010849609375,62.233359375,0)" xlink:href="#aE"/><use transform="matrix(0.010849609375,0,0,0.010849609375,71.62912109375,0)" xlink:href="#aa"/></g><path d="M581 14c-127 0-201-47-264-114v430H141V-978c55 7 141-23 150 36l17 114c76-89 171-167 326-167 271 0 368 217 368 499 0 229-91 393-245 471-52 26-111 39-176 39zm240-510c-2-202-50-358-245-358-128 0-197 66-259 146v472c53 73 114 114 225 114 198 0 281-159 279-374" id="aF"/><g id="l"><use transform="matrix(0.010849609375,0,0,0.010849609375,0,0)" xlink:href="#ah"/><use transform="matrix(0.010849609375,0,0,0.010849609375,13.670507812499999,0)" xlink:href="#aa"/><use transform="matrix(0.010849609375,0,0,0.010849609375,24.726259765625,0)" xlink:href="#aC"/><use transform="matrix(0.010849609375,0,0,0.010849609375,33.416796874999996,0)" xlink:href="#aE"/><use transform="matrix(0.010849609375,0,0,0.010849609375,42.81255859375,0)" xlink:href="#ao"/><use transform="matrix(0.010849609375,0,0,0.010849609375,50.5591796875,0)" xlink:href="#ap"/><use transform="matrix(0.010849609375,0,0,0.010849609375,55.658496093749996,0)" xlink:href="#aF"/><use transform="matrix(0.010849609375,0,0,0.010849609375,67.235029296875,0)" xlink:href="#ad"/><use transform="matrix(0.010849609375,0,0,0.010849609375,74.46086914062501,0)" xlink:href="#an"/><use transform="matrix(0.010849609375,0,0,0.010849609375,86.17844726562501,0)" xlink:href="#ao"/></g><path d="M106-169C34-169 62-67 57 0H25v-261h32l-1 103c12-21 28-36 61-36 89 0 53 116 60 194h-32v-121c2-32-8-49-39-48" id="aG"/><path d="M141-36C126-15 110 5 73 4 37 3 15-17 15-53c-1-64 63-63 125-63 3-35-9-54-41-54-24 1-41 7-42 31l-33-3c5-37 33-52 76-52 45 0 72 20 72 64v82c-1 20 7 32 28 27v20c-31 9-61-2-59-35zM48-53c0 20 12 33 32 33 41-3 63-29 60-74-43 2-92-5-92 41" id="aH"/><g id="m"><use transform="matrix(0.04938271604938272,0,0,0.04938271604938272,0,0)" xlink:href="#aG"/><use transform="matrix(0.04938271604938272,0,0,0.04938271604938272,9.876543209876544,0)" xlink:href="#aH"/><use transform="matrix(0.04938271604938272,0,0,0.04938271604938272,19.75308641975309,0)" xlink:href="#au"/></g><path d="M84 4C-5 8 30-112 23-190h32v120c0 31 7 50 39 49 72-2 45-101 50-169h31l1 190h-30c-1-10 1-25-2-33-11 22-28 36-60 37" id="aI"/><path d="M96-169c-40 0-48 33-48 73s9 75 48 75c24 0 41-14 43-38l32 2c-6 37-31 61-74 61-59 0-76-41-82-99-10-93 101-131 147-64 4 7 5 14 7 22l-32 3c-4-21-16-35-41-35" id="aJ"/><g id="n"><use transform="matrix(0.04938271604938272,0,0,0.04938271604938272,0,0)" xlink:href="#aw"/><use transform="matrix(0.04938271604938272,0,0,0.04938271604938272,5.8765432098765435,0)" xlink:href="#aA"/><use transform="matrix(0.04938271604938272,0,0,0.04938271604938272,15.753086419753087,0)" xlink:href="#au"/><use transform="matrix(0.04938271604938272,0,0,0.04938271604938272,24.641975308641978,0)" xlink:href="#ax"/><use transform="matrix(0.04938271604938272,0,0,0.04938271604938272,34.51851851851852,0)" xlink:href="#aI"/><use transform="matrix(0.04938271604938272,0,0,0.04938271604938272,44.39506172839506,0)" xlink:href="#aw"/><use transform="matrix(0.04938271604938272,0,0,0.04938271604938272,50.27160493827161,0)" xlink:href="#aJ"/><use transform="matrix(0.04938271604938272,0,0,0.04938271604938272,59.1604938271605,0)" xlink:href="#aA"/></g><linearGradient gradientUnits="userSpaceOnUse" id="o" x1="205" y1="757.29" x2="205" y2="875.4"><stop offset="0%" stop-color="#fff"/><stop offset="20%" stop-color="#fff"/><stop offset="100%" stop-color="#dbdbdb"/></linearGradient><path d="M523-1269c-167-5-192 134-183 309h263v128H346V0H170v-831c-44-9-102-4-133-26-23-17-9-67-13-103h146c-18-271 76-439 324-444 44 0 83 8 117 19-9 39 11 106-29 113-15 2-34 3-59 3" id="aK"/><g id="p"><use transform="matrix(0.010849609375,0,0,0.010849609375,0,0)" xlink:href="#aj"/><use transform="matrix(0.010849609375,0,0,0.010849609375,10.209482421875,0)" xlink:href="#aF"/><use transform="matrix(0.010849609375,0,0,0.010849609375,21.883662109375,0)" xlink:href="#aa"/><use transform="matrix(0.010849609375,0,0,0.010849609375,32.9394140625,0)" xlink:href="#aE"/><use transform="matrix(0.010849609375,0,0,0.010849609375,42.33517578125,0)" xlink:href="#ap"/><use transform="matrix(0.010849609375,0,0,0.010849609375,47.4344921875,0)" xlink:href="#aK"/><use transform="matrix(0.010849609375,0,0,0.010849609375,53.727265624999994,0)" xlink:href="#aE"/><use transform="matrix(0.010849609375,0,0,0.010849609375,62.93858398437499,0)" xlink:href="#ar"/><use transform="matrix(0.010849609375,0,0,0.010849609375,73.37590820312501,0)" xlink:href="#ad"/><use transform="matrix(0.010849609375,0,0,0.010849609375,80.81874023437501,0)" xlink:href="#ap"/><use transform="matrix(0.010849609375,0,0,0.010849609375,85.91805664062501,0)" xlink:href="#an"/><use transform="matrix(0.010849609375,0,0,0.010849609375,97.63563476562501,0)" xlink:href="#ac"/></g><linearGradient gradientUnits="userSpaceOnUse" id="q" x1="417.01" y1="757.29" x2="417.01" y2="875.4"><stop offset="0%" stop-color="#fff"/><stop offset="20%" stop-color="#fff"/><stop offset="100%" stop-color="#dbdbdb"/></linearGradient><path d="M1136 0H953v-596H323V0H140v-1314h183v585h630v-585h183V0" id="aL"/><path d="M320-153h507V0H138v-1314h182v1161" id="aM"/><g id="r"><use transform="matrix(0.010849609375,0,0,0.010849609375,0,0)" xlink:href="#aL"/><use transform="matrix(0.010849609375,0,0,0.010849609375,13.844101562499999,0)" xlink:href="#al"/><use transform="matrix(0.010849609375,0,0,0.010849609375,24.67201171875,0)" xlink:href="#ai"/><use transform="matrix(0.010849609375,0,0,0.010849609375,43.669677734375,0)" xlink:href="#aM"/></g><linearGradient gradientUnits="userSpaceOnUse" id="s" x1="700" y1="757.29" x2="700" y2="875.4"><stop offset="0%" stop-color="#fff"/><stop offset="20%" stop-color="#fff"/><stop offset="100%" stop-color="#dbdbdb"/></linearGradient><path d="M6-1314h147c33-1 53 19 61 42 117 329 232 658 348 988 8 24 15 50 21 77 10-51 26-100 41-144l324-920c17-66 131-36 208-43L663 0H499" id="aN"/><path d="M586 14c-139 0-211-58-275-138-12 47 7 124-53 124H144v-1422h176v583c74-85 165-154 314-154 264 0 368 206 368 479 0 238-85 409-243 490-51 25-109 38-173 38zm235-522c0-208-63-346-246-346-127 0-194 66-255 146v472c53 73 113 114 222 114 204 0 279-159 279-386" id="aO"/><g id="t"><use transform="matrix(0.010849609375,0,0,0.010849609375,0,0)" xlink:href="#aN"/><use transform="matrix(0.010849609375,0,0,0.010849609375,11.674179687499999,0)" xlink:href="#an"/><use transform="matrix(0.010849609375,0,0,0.010849609375,23.3917578125,0)" xlink:href="#aE"/><use transform="matrix(0.010849609375,0,0,0.010849609375,32.603076171875,0)" xlink:href="#ar"/><use transform="matrix(0.010849609375,0,0,0.010849609375,43.246542968750006,0)" xlink:href="#aO"/><use transform="matrix(0.010849609375,0,0,0.010849609375,54.92072265625001,0)" xlink:href="#aD"/><use transform="matrix(0.010849609375,0,0,0.010849609375,66.59490234375001,0)" xlink:href="#Z"/><use transform="matrix(0.010849609375,0,0,0.010849609375,71.69421875,0)" xlink:href="#ar"/><use transform="matrix(0.010849609375,0,0,0.010849609375,82.33768554687501,0)" xlink:href="#ao"/><use transform="matrix(0.010849609375,0,0,0.010849609375,90.19280273437502,0)" xlink:href="#af"/></g><linearGradient gradientUnits="userSpaceOnUse" id="u" x1="1128.46" y1="757.29" x2="1128.46" y2="875.4"><stop offset="0%" stop-color="#fff"/><stop offset="20%" stop-color="#fff"/><stop offset="100%" stop-color="#dbdbdb"/></linearGradient><path d="M576-854c-119 2-194 64-257 135V0H143v-1422h176v573c76-79 163-144 308-144 223 0 324 146 324 370V0H775v-623c0-140-60-233-199-231" id="aP"/><g id="v"><use transform="matrix(0.010849609375,0,0,0.010849609375,0,0)" xlink:href="#aj"/><use transform="matrix(0.010849609375,0,0,0.010849609375,10.209482421875,0)" xlink:href="#aE"/><use transform="matrix(0.010849609375,0,0,0.010849609375,19.605244140625,0)" xlink:href="#aP"/><use transform="matrix(0.010849609375,0,0,0.010849609375,31.279423828124997,0)" xlink:href="#aa"/><use transform="matrix(0.010849609375,0,0,0.010849609375,42.33517578125,0)" xlink:href="#ab"/><use transform="matrix(0.010849609375,0,0,0.010849609375,60.08513671875,0)" xlink:href="#ar"/><use transform="matrix(0.010849609375,0,0,0.010849609375,70.5224609375,0)" xlink:href="#ad"/><use transform="matrix(0.010849609375,0,0,0.010849609375,77.96529296875,0)" xlink:href="#ao"/><use transform="matrix(0.010849609375,0,0,0.010849609375,85.353876953125,0)" xlink:href="#an"/><use transform="matrix(0.010849609375,0,0,0.010849609375,97.071455078125,0)" xlink:href="#ac"/></g><linearGradient gradientUnits="userSpaceOnUse" id="w" x1="914.23" y1="757.29" x2="914.23" y2="875.4"><stop offset="0%" stop-color="#fff"/><stop offset="20%" stop-color="#fff"/><stop offset="100%" stop-color="#dbdbdb"/></linearGradient><path d="M407-674L27-1314h181c27 0 37 9 46 25l289 512c93-171 187-340 282-509 9-15 19-27 41-28h174L658-684 1052 0H871c-27 1-41-18-50-34L524-570C428-389 328-212 228-34c-9 16-22 34-47 34H11" id="aQ"/><g id="x"><use transform="matrix(0.010849609375,0,0,0.010849609375,0,0)" xlink:href="#aQ"/><use transform="matrix(0.010849609375,0,0,0.010849609375,11.533134765625,0)" xlink:href="#ai"/><use transform="matrix(0.010849609375,0,0,0.010849609375,30.530800781249997,0)" xlink:href="#aM"/></g><g id="y"><use transform="matrix(0.04938271604938272,0,0,0.04938271604938272,0,0)" xlink:href="#aw"/><use transform="matrix(0.04938271604938272,0,0,0.04938271604938272,5.8765432098765435,0)" xlink:href="#ax"/><use transform="matrix(0.04938271604938272,0,0,0.04938271604938272,15.753086419753087,0)" xlink:href="#az"/><use transform="matrix(0.04938271604938272,0,0,0.04938271604938272,19.654320987654323,0)" xlink:href="#aA"/></g><path d="M85-194c31 0 48 13 60 33l-1-100h32l1 261h-30c-2-10 0-23-3-31C134-8 116 4 85 4 32 4 16-35 15-94c0-66 23-100 70-100zm9 24c-40 0-46 34-46 75 0 40 6 74 45 74 42 0 51-32 51-76 0-42-9-74-50-73" id="aR"/><path d="M59-47c-2 24 18 29 38 22v24C64 9 27 4 27-40v-127H5v-23h24l9-43h21v43h35v23H59v120" id="aS"/><path d="M33-154v-36h34v36H33zM33 0v-36h34V0H33" id="aT"/><path d="M210-169c-67 3-38 105-44 169h-31v-121c0-29-5-50-35-48C34-165 62-65 56 0H25l-1-190h30c1 10-1 24 2 32 10-44 99-50 107 0 11-21 27-35 58-36 85-2 47 119 55 194h-31v-121c0-29-5-49-35-48" id="aU"/><g id="z"><use transform="matrix(0.04938271604938272,0,0,0.04938271604938272,0,0)" xlink:href="#aR"/><use transform="matrix(0.04938271604938272,0,0,0.04938271604938272,9.876543209876544,0)" xlink:href="#aJ"/><use transform="matrix(0.04938271604938272,0,0,0.04938271604938272,18.765432098765434,0)" xlink:href="#aS"/><use transform="matrix(0.04938271604938272,0,0,0.04938271604938272,23.703703703703706,0)" xlink:href="#aT"/><use transform="matrix(0.04938271604938272,0,0,0.04938271604938272,28.641975308641978,0)" xlink:href="#ay"/><use transform="matrix(0.04938271604938272,0,0,0.04938271604938272,33.580246913580254,0)" xlink:href="#ax"/><use transform="matrix(0.04938271604938272,0,0,0.04938271604938272,43.4567901234568,0)" xlink:href="#aw"/><use transform="matrix(0.04938271604938272,0,0,0.04938271604938272,49.33333333333334,0)" xlink:href="#aU"/><use transform="matrix(0.04938271604938272,0,0,0.04938271604938272,64.09876543209877,0)" xlink:href="#aH"/><use transform="matrix(0.04938271604938272,0,0,0.04938271604938272,73.97530864197532,0)" xlink:href="#aS"/></g><path d="M117-194c89-4 53 116 60 194h-32v-121c0-31-8-49-39-48C34-167 62-67 57 0H25l-1-190h30c1 10-1 24 2 32 11-22 29-35 61-36" id="aV"/><path d="M127-220V0H93v-220H8v-28h204v28h-85" id="aW"/><g id="A"><use transform="matrix(0.04938271604938272,0,0,0.04938271604938272,0,0)" xlink:href="#aR"/><use transform="matrix(0.04938271604938272,0,0,0.04938271604938272,9.876543209876544,0)" xlink:href="#aJ"/><use transform="matrix(0.04938271604938272,0,0,0.04938271604938272,18.765432098765434,0)" xlink:href="#aS"/><use transform="matrix(0.04938271604938272,0,0,0.04938271604938272,23.703703703703706,0)" xlink:href="#aT"/><use transform="matrix(0.04938271604938272,0,0,0.04938271604938272,28.641975308641978,0)" xlink:href="#aJ"/><use transform="matrix(0.04938271604938272,0,0,0.04938271604938272,37.53086419753087,0)" xlink:href="#ax"/><use transform="matrix(0.04938271604938272,0,0,0.04938271604938272,47.40740740740741,0)" xlink:href="#aV"/><use transform="matrix(0.04938271604938272,0,0,0.04938271604938272,57.283950617283956,0)" xlink:href="#ay"/><use transform="matrix(0.04938271604938272,0,0,0.04938271604938272,62.22222222222223,0)" xlink:href="#ax"/><use transform="matrix(0.04938271604938272,0,0,0.04938271604938272,72.09876543209877,0)" xlink:href="#aw"/><use transform="matrix(0.04938271604938272,0,0,0.04938271604938272,77.97530864197532,0)" xlink:href="#aU"/><use transform="matrix(0.04938271604938272,0,0,0.04938271604938272,92.74074074074075,0)" xlink:href="#au"/><use transform="matrix(0.04938271604938272,0,0,0.04938271604938272,101.62962962962963,0)" xlink:href="#aW"/><use transform="matrix(0.04938271604938272,0,0,0.04938271604938272,110.46913580246914,0)" xlink:href="#ax"/></g><path d="M994-906c0 279-183 411-470 416H329V0H147v-1314h377c290 3 470 124 470 408zm-182 0c0-176-103-265-288-265H329v537h195c180-4 288-94 288-272" id="aX"/><g id="B"><use transform="matrix(0.010849609375,0,0,0.010849609375,0,0)" xlink:href="#aX"/><use transform="matrix(0.010849609375,0,0,0.010849609375,11.47888671875,0)" xlink:href="#ao"/><use transform="matrix(0.010849609375,0,0,0.010849609375,18.867470703125,0)" xlink:href="#an"/><use transform="matrix(0.010849609375,0,0,0.010849609375,30.585048828125,0)" xlink:href="#aK"/><use transform="matrix(0.010849609375,0,0,0.010849609375,37.3660546875,0)" xlink:href="#ap"/><use transform="matrix(0.010849609375,0,0,0.010849609375,42.465371093749994,0)" xlink:href="#Z"/><use transform="matrix(0.010849609375,0,0,0.010849609375,47.56468749999999,0)" xlink:href="#aa"/></g><g id="C"><use transform="matrix(0.04938271604938272,0,0,0.04938271604938272,0,0)" xlink:href="#aJ"/><use transform="matrix(0.04938271604938272,0,0,0.04938271604938272,8.88888888888889,0)" xlink:href="#ax"/><use transform="matrix(0.04938271604938272,0,0,0.04938271604938272,18.765432098765434,0)" xlink:href="#aV"/><use transform="matrix(0.04938271604938272,0,0,0.04938271604938272,28.641975308641978,0)" xlink:href="#ay"/><use transform="matrix(0.04938271604938272,0,0,0.04938271604938272,33.580246913580254,0)" xlink:href="#ax"/><use transform="matrix(0.04938271604938272,0,0,0.04938271604938272,43.4567901234568,0)" xlink:href="#aw"/><use transform="matrix(0.04938271604938272,0,0,0.04938271604938272,49.33333333333334,0)" xlink:href="#aU"/><use transform="matrix(0.04938271604938272,0,0,0.04938271604938272,64.09876543209877,0)" xlink:href="#au"/></g><g id="D"><use transform="matrix(0.04938271604938272,0,0,0.04938271604938272,0,0)" xlink:href="#aS"/><use transform="matrix(0.04938271604938272,0,0,0.04938271604938272,4.938271604938272,0)" xlink:href="#ax"/></g><linearGradient gradientUnits="userSpaceOnUse" id="E" x1="667.16" y1="57.21" x2="667.16" y2="175.32"><stop offset="0%" stop-color="#fff"/><stop offset="20%" stop-color="#fff"/><stop offset="100%" stop-color="#dbdbdb"/></linearGradient><path d="M12-1314c77 9 194-28 214 42l255 907c9 32 18 69 26 112 8-39 17-78 28-113l293-905c10-59 158-61 176-1 97 321 208 636 308 958 5 18 9 38 13 58 8-37 15-76 25-109l254-906c17-65 129-37 206-43L1411 0h-165c-111-354-226-705-335-1062-5 24-11 46-18 66L575 0H411" id="aY"/><path d="M133-957c36-227 169-372 422-372 224 0 376 114 376 336 0 173-90 260-222 302 151 40 251 135 251 313 0 198-114 310-263 365-98 37-246 34-340 1C213-61 139-178 95-327c44-18 136-74 166-8 49 106 110 211 268 207 159-4 256-94 263-245 8-191-130-240-325-240v-121c175-4 300-59 300-230 0-143-79-222-221-222-138 0-212 82-243 193-12 42-31 58-82 50" id="aZ"/><g id="F"><use transform="matrix(0.010849609375,0,0,0.010849609375,0,0)" xlink:href="#aY"/><use transform="matrix(0.010849609375,0,0,0.010849609375,19.76798828125,0)" xlink:href="#aZ"/><use transform="matrix(0.010849609375,0,0,0.010849609375,31.0298828125,0)" xlink:href="#ak"/></g><path d="M492-995c127 0 201 45 264 114v-541h176V0c-55-7-141 23-150-36l-18-117C688-64 595 14 440 14 170 14 74-204 74-486c0-228 88-392 242-470 52-26 111-39 176-39zM255-486c2 201 49 359 242 359 130 0 195-67 259-146v-473c-54-73-114-114-224-114-197 0-279 159-277 374" id="ba"/><g id="G"><use transform="matrix(0.010849609375,0,0,0.010849609375,0,0)" xlink:href="#aB"/><use transform="matrix(0.010849609375,0,0,0.010849609375,11.674179687499999,0)" xlink:href="#aa"/><use transform="matrix(0.010849609375,0,0,0.010849609375,22.729931640624997,0)" xlink:href="#aE"/><use transform="matrix(0.010849609375,0,0,0.010849609375,31.941250000000004,0)" xlink:href="#an"/><use transform="matrix(0.010849609375,0,0,0.010849609375,43.658828125,0)" xlink:href="#ab"/><use transform="matrix(0.010849609375,0,0,0.010849609375,61.4087890625,0)" xlink:href="#ab"/><use transform="matrix(0.010849609375,0,0,0.010849609375,79.15875,0)" xlink:href="#aa"/><use transform="matrix(0.010849609375,0,0,0.010849609375,90.214501953125,0)" xlink:href="#ac"/><use transform="matrix(0.010849609375,0,0,0.010849609375,101.888681640625,0)" xlink:href="#ba"/><use transform="matrix(0.010849609375,0,0,0.010849609375,113.562861328125,0)" xlink:href="#ar"/><use transform="matrix(0.010849609375,0,0,0.010849609375,124.00018554687499,0)" xlink:href="#ad"/><use transform="matrix(0.010849609375,0,0,0.010849609375,131.443017578125,0)" xlink:href="#ap"/><use transform="matrix(0.010849609375,0,0,0.010849609375,136.542333984375,0)" xlink:href="#an"/><use transform="matrix(0.010849609375,0,0,0.010849609375,148.259912109375,0)" xlink:href="#ac"/></g><linearGradient gradientUnits="userSpaceOnUse" id="H" x1="417.01" y1="57.21" x2="417.01" y2="175.32"><stop offset="0%" stop-color="#fff"/><stop offset="20%" stop-color="#fff"/><stop offset="100%" stop-color="#dbdbdb"/></linearGradient><g id="I"><use transform="matrix(0.010849609375,0,0,0.010849609375,0,0)" xlink:href="#aY"/><use transform="matrix(0.010849609375,0,0,0.010849609375,19.76798828125,0)" xlink:href="#aZ"/><use transform="matrix(0.010849609375,0,0,0.010849609375,31.0298828125,0)" xlink:href="#ak"/></g><path d="M304-1012c2 28 4 55 4 84V0H148v-1314c60 5 126-11 157 31l714 983c-2-29-5-61-5-91v-923h160V0c-61-3-126 10-156-32" id="bb"/><g id="J"><use transform="matrix(0.010849609375,0,0,0.010849609375,0,0)" xlink:href="#bb"/><use transform="matrix(0.010849609375,0,0,0.010849609375,14.34318359375,0)" xlink:href="#an"/><use transform="matrix(0.010849609375,0,0,0.010849609375,26.060761718750005,0)" xlink:href="#ad"/><use transform="matrix(0.010849609375,0,0,0.010849609375,33.26490234375,0)" xlink:href="#aa"/></g><path d="M271-232c74 0 125 50 125 125 0 74-52 123-125 123S149-34 149-107c0-74 48-125 122-125zm-6-678c74 0 125 50 125 125 0 74-52 123-125 123s-122-50-122-123c0-74 48-125 122-125" id="bc"/><g id="K"><use transform="matrix(0.010849609375,0,0,0.010849609375,0,0)" xlink:href="#ba"/><use transform="matrix(0.010849609375,0,0,0.010849609375,11.674179687499999,0)" xlink:href="#aE"/><use transform="matrix(0.010849609375,0,0,0.010849609375,21.06994140625,0)" xlink:href="#ad"/><use transform="matrix(0.010849609375,0,0,0.010849609375,28.512773437499998,0)" xlink:href="#bc"/><use transform="matrix(0.010849609375,0,0,0.010849609375,34.458359375,0)" xlink:href="#aj"/><use transform="matrix(0.010849609375,0,0,0.010849609375,44.667841796874995,0)" xlink:href="#ad"/><use transform="matrix(0.010849609375,0,0,0.010849609375,51.839433593749995,0)" xlink:href="#ar"/><use transform="matrix(0.010849609375,0,0,0.010849609375,62.482900390625005,0)" xlink:href="#ac"/><use transform="matrix(0.010849609375,0,0,0.010849609375,74.157080078125,0)" xlink:href="#ba"/><use transform="matrix(0.010849609375,0,0,0.010849609375,85.831259765625,0)" xlink:href="#ar"/><use transform="matrix(0.010849609375,0,0,0.010849609375,96.47472656250001,0)" xlink:href="#ao"/><use transform="matrix(0.010849609375,0,0,0.010849609375,103.91755859375,0)" xlink:href="#ba"/></g><path d="M75-653h478v149H75v-149" id="bd"/><path d="M1240-928c58 159 58 383 0 542-85 230-258 400-561 400S201-157 116-386c-59-159-59-383 0-542 86-230 259-401 563-401s477 171 561 401zm-172 486c38-122 39-308 0-430-56-173-170-300-389-300-293 0-420 215-420 515 0 237 85 404 247 479 99 47 246 46 346 0 107-49 178-142 216-264" id="be"/><path d="M882-1314v148H321v455h477v148H321V0H138v-1314h744" id="bf"/><g id="L"><use transform="matrix(0.010849609375,0,0,0.010849609375,0,0)" xlink:href="#ac"/><use transform="matrix(0.010849609375,0,0,0.010849609375,11.674179687499999,0)" xlink:href="#an"/><use transform="matrix(0.010849609375,0,0,0.010849609375,23.391757812499993,0)" xlink:href="#ac"/><use transform="matrix(0.010849609375,0,0,0.010849609375,35.0659375,0)" xlink:href="#bd"/><use transform="matrix(0.010849609375,0,0,0.010849609375,41.868642578125,0)" xlink:href="#aX"/><use transform="matrix(0.010849609375,0,0,0.010849609375,53.347529296874995,0)" xlink:href="#aB"/><use transform="matrix(0.010849609375,0,0,0.010849609375,65.19530273437499,0)" xlink:href="#be"/><use transform="matrix(0.010849609375,0,0,0.010849609375,79.907373046875,0)" xlink:href="#bf"/></g><g id="M"><use transform="matrix(0.010849609375,0,0,0.010849609375,0,0)" xlink:href="#ak"/><use transform="matrix(0.010849609375,0,0,0.010849609375,11.847773437499999,0)" xlink:href="#Z"/><use transform="matrix(0.010849609375,0,0,0.010849609375,16.94708984375,0)" xlink:href="#ar"/><use transform="matrix(0.010849609375,0,0,0.010849609375,27.590556640625,0)" xlink:href="#aC"/><use transform="matrix(0.010849609375,0,0,0.010849609375,36.28109375,0)" xlink:href="#aC"/></g><g id="N"><use transform="matrix(0.010849609375,0,0,0.010849609375,0,0)" xlink:href="#aX"/><use transform="matrix(0.010849609375,0,0,0.010849609375,11.47888671875,0)" xlink:href="#aB"/><use transform="matrix(0.010849609375,0,0,0.010849609375,23.32666015625,0)" xlink:href="#be"/><use transform="matrix(0.010849609375,0,0,0.010849609375,38.03873046875,0)" xlink:href="#bf"/></g><linearGradient gradientUnits="userSpaceOnUse" id="O" x1="9.13" y1="405.6" x2="9.13" y2="523.72"><stop offset="0%" stop-color="#fff"/><stop offset="12.18%" stop-color="#fff"/><stop offset="100%" stop-color="#dbdbdb"/></linearGradient><path d="M21-978c68 8 173-25 191 37 66 230 131 458 192 691 6 21 9 43 12 64 75-256 159-506 233-760 13-43 73-33 125-34 27 0 43 14 50 34 75 254 156 502 227 760 7-43 18-87 31-132l179-624c15-59 116-29 182-36L1136 0H996c-17 0-28-11-35-33-73-235-147-469-219-705-4-15-7-30-10-45-7 32-14 62-23 92L501-33C485 26 391-10 329 0" id="bg"/><g id="P"><use transform="matrix(0.010849609375,0,0,0.010849609375,0,0)" xlink:href="#an"/><use transform="matrix(0.010849609375,0,0,0.010849609375,11.63078125,0)" xlink:href="#bg"/><use transform="matrix(0.010849609375,0,0,0.010849609375,27.514609375,0)" xlink:href="#Z"/><use transform="matrix(0.010849609375,0,0,0.010849609375,32.613925781249996,0)" xlink:href="#bc"/></g><path d="M349 0H167v-1314h182V0" id="bh"/><path d="M542 0H383L19-978h145c26-1 46 18 53 36 77 231 156 461 231 694 7 22 12 44 17 67 10-48 25-91 40-135l212-626c18-58 121-29 189-36" id="bi"/><g id="Q"><use transform="matrix(0.010849609375,0,0,0.010849609375,0,0)" xlink:href="#bb"/><use transform="matrix(0.010849609375,0,0,0.010849609375,14.34318359375,0)" xlink:href="#ar"/><use transform="matrix(0.010849609375,0,0,0.010849609375,24.986650390625005,0)" xlink:href="#ab"/><use transform="matrix(0.010849609375,0,0,0.010849609375,42.736611328125,0)" xlink:href="#aa"/><use transform="matrix(0.010849609375,0,0,0.010849609375,53.792363281250005,0)" xlink:href="#ba"/><use transform="matrix(0.010849609375,0,0,0.010849609375,65.46654296875,0)" xlink:href="#bh"/><use transform="matrix(0.010849609375,0,0,0.010849609375,71.06494140625,0)" xlink:href="#ac"/><use transform="matrix(0.010849609375,0,0,0.010849609375,82.73912109375,0)" xlink:href="#ba"/><use transform="matrix(0.010849609375,0,0,0.010849609375,94.41330078125,0)" xlink:href="#ap"/><use transform="matrix(0.010849609375,0,0,0.010849609375,99.5126171875,0)" xlink:href="#bi"/><use transform="matrix(0.010849609375,0,0,0.010849609375,109.548505859375,0)" xlink:href="#ap"/><use transform="matrix(0.010849609375,0,0,0.010849609375,114.647822265625,0)" xlink:href="#ba"/><use transform="matrix(0.010849609375,0,0,0.010849609375,126.322001953125,0)" xlink:href="#aD"/><use transform="matrix(0.010849609375,0,0,0.010849609375,137.996181640625,0)" xlink:href="#ar"/><use transform="matrix(0.010849609375,0,0,0.010849609375,148.6396484375,0)" xlink:href="#Z"/></g><g id="R"><use transform="matrix(0.010849609375,0,0,0.010849609375,0,0)" xlink:href="#aQ"/><use transform="matrix(0.010849609375,0,0,0.010849609375,11.316142578125,0)" xlink:href="#aj"/><use transform="matrix(0.010849609375,0,0,0.010849609375,21.525624999999998,0)" xlink:href="#ah"/></g><g id="S"><use transform="matrix(0.010849609375,0,0,0.010849609375,0,0)" xlink:href="#ah"/><use transform="matrix(0.010849609375,0,0,0.010849609375,13.670507812499999,0)" xlink:href="#ar"/><use transform="matrix(0.010849609375,0,0,0.010849609375,24.10783203125,0)" xlink:href="#ad"/><use transform="matrix(0.010849609375,0,0,0.010849609375,31.279423828124997,0)" xlink:href="#ar"/><use transform="matrix(0.010849609375,0,0,0.010849609375,41.716748046875,0)" xlink:href="#ad"/><use transform="matrix(0.010849609375,0,0,0.010849609375,49.159580078124996,0)" xlink:href="#af"/><use transform="matrix(0.010849609375,0,0,0.010849609375,59.21716796875,0)" xlink:href="#aF"/><use transform="matrix(0.010849609375,0,0,0.010849609375,70.89134765624999,0)" xlink:href="#aa"/></g><g id="T"><use transform="matrix(0.010849609375,0,0,0.010849609375,0,0)" xlink:href="#ao"/><use transform="matrix(0.010849609375,0,0,0.010849609375,7.44283203125,0)" xlink:href="#ba"/><use transform="matrix(0.010849609375,0,0,0.010849609375,19.11701171875,0)" xlink:href="#aK"/><use transform="matrix(0.010849609375,0,0,0.010849609375,25.605078125,0)" xlink:href="#aC"/><use transform="matrix(0.010849609375,0,0,0.010849609375,34.295615234375,0)" xlink:href="#bc"/><use transform="matrix(0.010849609375,0,0,0.010849609375,40.241201171875,0)" xlink:href="#aC"/><use transform="matrix(0.010849609375,0,0,0.010849609375,48.93173828125,0)" xlink:href="#aD"/><use transform="matrix(0.010849609375,0,0,0.010849609375,60.60591796875,0)" xlink:href="#aO"/><use transform="matrix(0.010849609375,0,0,0.010849609375,72.28009765624999,0)" xlink:href="#ak"/><use transform="matrix(0.010849609375,0,0,0.010849609375,84.12787109374999,0)" xlink:href="#Z"/><use transform="matrix(0.010849609375,0,0,0.010849609375,89.22718749999997,0)" xlink:href="#ar"/><use transform="matrix(0.010849609375,0,0,0.010849609375,99.87065429687499,0)" xlink:href="#aC"/><use transform="matrix(0.010849609375,0,0,0.010849609375,108.56119140624999,0)" xlink:href="#aC"/><use transform="matrix(0.010849609375,0,0,0.010849609375,117.25172851562499,0)" xlink:href="#be"/><use transform="matrix(0.010849609375,0,0,0.010849609375,131.963798828125,0)" xlink:href="#aK"/></g><g id="U"><use transform="matrix(0.010849609375,0,0,0.010849609375,0,0)" xlink:href="#ao"/><use transform="matrix(0.010849609375,0,0,0.010849609375,7.44283203125,0)" xlink:href="#ba"/><use transform="matrix(0.010849609375,0,0,0.010849609375,19.11701171875,0)" xlink:href="#aK"/><use transform="matrix(0.010849609375,0,0,0.010849609375,25.898017578125,0)" xlink:href="#bc"/><use transform="matrix(0.010849609375,0,0,0.010849609375,31.843603515625,0)" xlink:href="#ad"/><use transform="matrix(0.010849609375,0,0,0.010849609375,39.286435546875,0)" xlink:href="#af"/><use transform="matrix(0.010849609375,0,0,0.010849609375,49.3440234375,0)" xlink:href="#aF"/><use transform="matrix(0.010849609375,0,0,0.010849609375,61.018203125,0)" xlink:href="#aa"/></g><g id="V"><use transform="matrix(0.010849609375,0,0,0.010849609375,0,0)" xlink:href="#ao"/><use transform="matrix(0.010849609375,0,0,0.010849609375,7.44283203125,0)" xlink:href="#ba"/><use transform="matrix(0.010849609375,0,0,0.010849609375,19.11701171875,0)" xlink:href="#aK"/><use transform="matrix(0.010849609375,0,0,0.010849609375,25.898017578125,0)" xlink:href="#bc"/><use transform="matrix(0.010849609375,0,0,0.010849609375,31.843603515625,0)" xlink:href="#aF"/><use transform="matrix(0.010849609375,0,0,0.010849609375,43.517783203125,0)" xlink:href="#ao"/><use transform="matrix(0.010849609375,0,0,0.010849609375,50.90636718750001,0)" xlink:href="#an"/><use transform="matrix(0.010849609375,0,0,0.010849609375,62.6239453125,0)" xlink:href="#aF"/><use transform="matrix(0.010849609375,0,0,0.010849609375,74.298125,0)" xlink:href="#aa"/><use transform="matrix(0.010849609375,0,0,0.010849609375,85.353876953125,0)" xlink:href="#ao"/><use transform="matrix(0.010849609375,0,0,0.010849609375,93.10049804687499,0)" xlink:href="#ad"/><use transform="matrix(0.010849609375,0,0,0.010849609375,100.543330078125,0)" xlink:href="#af"/></g><path d="M1026-375C1026-119 851 0 588 0H144v-1314h401c262 1 440 88 440 343 0 167-103 249-235 295 165 32 276 118 276 301zm-181-4c0-148-98-219-260-219H326v454h259c164-1 260-74 260-235zm-41-570c0-163-89-221-259-222H326v445h212c160-3 266-67 266-223" id="bj"/><path d="M304-1422v836c44 0 73 1 95-27l260-331c33-56 146-27 227-34L579-593c-18 19-36 36-58 50 24 15 42 36 58 59L906 0c-79-8-188 23-224-33L415-434c-19-25-25-32-66-33h-45V0H128v-1422h176" id="bk"/><g id="W"><use transform="matrix(0.010849609375,0,0,0.010849609375,0,0)" xlink:href="#bj"/><use transform="matrix(0.010849609375,0,0,0.010849609375,12.086464843749999,0)" xlink:href="#Z"/><use transform="matrix(0.010849609375,0,0,0.010849609375,17.185781249999998,0)" xlink:href="#ar"/><use transform="matrix(0.010849609375,0,0,0.010849609375,27.829248046874998,0)" xlink:href="#ac"/><use transform="matrix(0.010849609375,0,0,0.010849609375,39.503427734374995,0)" xlink:href="#bk"/></g><g id="X"><use transform="matrix(0.010849609375,0,0,0.010849609375,0,0)" xlink:href="#bb"/><use transform="matrix(0.010849609375,0,0,0.010849609375,14.34318359375,0)" xlink:href="#an"/><use transform="matrix(0.010849609375,0,0,0.010849609375,26.060761718750005,0)" xlink:href="#ba"/><use transform="matrix(0.010849609375,0,0,0.010849609375,37.73494140625,0)" xlink:href="#aa"/></g></defs></g></svg>