<svg xmlns="http://www.w3.org/2000/svg" xmlns:xlink="http://www.w3.org/1999/xlink" xmlns:lucid="lucid" width="1420" height="866.67"><g transform="translate(0 0)" lucid:page-tab-id="QJvNB5pmmzd9T"><path d="M0 0h1420v866.67H0z" fill="#fff"/><path d="M182.05 53.67H28.35c-10.57 0-19.22 8.62-19.22 19.25v79.6c0 10.63 8.65 19.26 19.22 19.26h153.7c10.56 0 19.2-8.63 19.2-19.26v-79.6c0-10.63-8.64-19.25-19.2-19.25z" stroke="#000" stroke-width="1.11" fill="#fff"/><use xlink:href="#a" transform="matrix(1,0,0,1,17.971795999681888,62.52424998066394) translate(45.7344287109375 56.055)"/><path d="M2088.46-93.02h36912.4v1975.27H2088.46z" stroke="#000" stroke-opacity="0" stroke-width="1.67" fill-opacity="0"/><use xlink:href="#b" transform="matrix(1,0,0,1,19.651796000000008,6.841799999999999) translate(20.369213867187497 20.1675)"/><use xlink:href="#c" transform="matrix(1,0,0,1,19.651796000000008,6.841799999999999) translate(116.0843017578125 20.1675)"/><path d="M30 649.38v-71.02M30 649.37v.57" stroke="#000" stroke-width="1.11" fill="none"/><path d="M30 563.54l4.64 14.27h-9.28z" stroke="#000" stroke-width="1.11" fill="#fff"/><path d="M30 756.47v-86.63" fill="none"/><path d="M30 756.47v-5.78m0-5.78v-11.55m0-5.78v-11.56m0-5.77v-11.55m0-5.78V681.4m0-5.78v-5.78M30 756.45v.57M40.18 687.14L30 669.92l-10.18 17.22" stroke="#000" stroke-width="1.11" fill="none"/><path d="M7978.43 23203.8h27865.3v1975.26H7978.42z" stroke="#000" stroke-opacity="0" stroke-width="1.67" fill-opacity="0"/><use xlink:href="#d" transform="matrix(1,0,0,1,48.29623700000001,592.5087999914194) translate(0 19.055)"/><path d="M8507.4 28070.2h27865.3v1975.28H8507.4z" stroke="#000" stroke-opacity="0" stroke-width="1.67" fill-opacity="0"/><use xlink:href="#e" transform="matrix(1,0,0,1,51.446237,699.5947999914196) translate(0 19.055)"/><path d="M182.05 194.96H28.35c-10.57 0-19.22 8.62-19.22 19.25v79.62c0 10.63 8.65 19.25 19.22 19.25h153.7c10.56 0 19.2-8.62 19.2-19.25v-79.6c0-10.64-8.64-19.26-19.2-19.26z" stroke="#000" stroke-width="1.11" fill="#a5a5a5"/><use xlink:href="#f" transform="matrix(1,0,0,1,17.971795999682108,203.81924998066367) translate(38.3783935546875 56.055)"/><use xlink:href="#g" transform="matrix(1,0,0,1,17.971795999682108,203.81924998066367) translate(91.64997558593751 56.055)"/><path d="M30 857.26v-86.63M30 857.24v.57M40.18 787.93L30 770.7l-10.18 17.23" stroke="#000" stroke-width="1.11" fill="none"/><path d="M8507.4 32650.42h27865.3v1975.27H8507.4z" stroke="#000" stroke-opacity="0" stroke-width="1.67" fill-opacity="0"/><use xlink:href="#h" transform="matrix(1,0,0,1,51.446237,800.3827999914196) translate(0 19.055)"/><path d="M712.9 12.6H559.2c-10.55 0-19.2 8.62-19.2 19.25v79.6c0 10.64 8.65 19.26 19.2 19.26h153.7c10.58 0 19.23-8.6 19.23-19.24v-79.6c0-10.64-8.65-19.26-19.22-19.26z" stroke="#000" stroke-width="1.11" fill="#a5a5a5"/><use xlink:href="#i" transform="matrix(1,0,0,1,548.837796000033,21.456249980664087) translate(58.189780273437506 56.055)"/><path d="M412.9 12.6H259.2c-10.55 0-19.2 8.62-19.2 19.25v79.6c0 10.64 8.65 19.26 19.2 19.26h153.7c10.58 0 19.23-8.6 19.23-19.24v-79.6c0-10.64-8.65-19.26-19.22-19.26z" stroke="#000" stroke-width="1.11" fill="url(#j)"/><use xlink:href="#k" transform="matrix(1,0,0,1,248.83779600003217,21.456249980665653) translate(60.994404296875004 56.055)"/><path d="M412.9 386.6H259.2c-10.55 0-19.2 8.64-19.2 19.27v79.6c0 10.63 8.65 19.25 19.2 19.25h153.7c10.58 0 19.23-8.62 19.23-19.25v-79.6c0-10.63-8.65-19.26-19.22-19.26z" stroke="#000" stroke-width="1.11" fill="url(#l)"/><use xlink:href="#m" transform="matrix(1,0,0,1,248.8377960000326,395.4722499806621) translate(66.061171875 42.723)"/><use xlink:href="#n" transform="matrix(1,0,0,1,248.8377960000326,395.4722499806621) translate(7.53295410156251 69.387)"/><path d="M714.25 386.6h-153.7c-10.57 0-19.22 8.64-19.22 19.27v79.6c0 10.63 8.65 19.25 19.22 19.25h153.7c10.56 0 19.2-8.62 19.2-19.25v-79.6c0-10.63-8.64-19.26-19.2-19.26z" stroke="#000" stroke-width="1.11" fill="url(#o)"/><use xlink:href="#p" transform="matrix(1,0,0,1,550.1711293333677,395.4722499806653) translate(20.747778320312506 56.055)"/><use xlink:href="#q" transform="matrix(1,0,0,1,550.1711293333677,395.4722499806653) translate(73.2381884765625 56.055)"/><path d="M714.25 196.82h-153.7c-10.57 0-19.22 8.62-19.22 19.25v79.6c0 10.63 8.65 19.26 19.22 19.26h153.7c10.56 0 19.2-8.63 19.2-19.26v-79.6c0-10.63-8.64-19.25-19.2-19.25z" stroke="#000" stroke-width="5" fill="url(#r)"/><use xlink:href="#p" transform="matrix(1,0,0,1,550.1711293333656,205.6742499806648) translate(22.038881835937502 56.055)"/><use xlink:href="#s" transform="matrix(1,0,0,1,550.1711293333656,205.6742499806648) translate(74.5292919921875 56.055)"/><path d="M637.9 386.1h-1V361.9h1zm0-46.44h-1v-23.82h1z"/><path/><path d="M627.65 333.38l-.86-.5 9.12-15.45h1.16zm20.36-.5l-.85.5-9.44-15.95h1.17z"/><use xlink:href="#t" transform="matrix(1,0,0,1,586.8208792321224,339.65999999999997) translate(0.005000000000002558 16.665)"/><use xlink:href="#u" transform="matrix(1,0,0,1,586.8208792321224,339.65999999999997) translate(18.81822265625 16.665)"/><use xlink:href="#v" transform="matrix(1,0,0,1,586.8208792321224,339.65999999999997) translate(82.65732421875 16.665)"/><path d="M336.56 385.7h-1v-36.9h1zm0-58.23h-1v-37.3h1z"/><path d="M336.56 290.18h-1v-.5h1zM346.67 368.67l-10.28 17.4h-.66l-10.3-17.4.87-.5 9.76 16.48 9.75-16.5z"/><use xlink:href="#w" transform="matrix(1,0,0,1,275.8901604945279,327.4738333197983) translate(0.005000000000002558 14.222222222222223)"/><path d="M637.4 196.32v-32c0-.3-.25-.56-.56-.56h-.22c-.3 0-.56-.25-.56-.56v-31.58" fill="none"/><path d="M637.4 196.32v-5.34m0-5.33V175m0-5.35v-5.33l-.17-.4-.4-.16h-.2l-.4-.16-.17-.4v-5.26m0-5.27v-10.52m0-5.27v-5.26" stroke="#000" fill="none"/><path/><path d="M646.67 148.65l-.86.5-9.74-16.48-9.75 16.5-.85-.52 10.3-17.4h.64z"/><path d="M738.4 446.17h-4.44v-1h4.45zm9.97-.96l-.28.7-.7.27h-4.54v-1h4.35l.13-.05.04-.1v-5h1zm0-10.27h-1v-10.2h1zm0-15.28h-1v-10.18h1zm0-15.27h-1v-10.2h1zm0-15.28h-1v-10.18h1zm0-15.27h-1v-10.18h1zm0-15.28h-1v-10.18h1zm0-15.27h-1V333.1h1zm0-15.28h-1v-10.18h1zm0-15.27h-1v-10.18h1zm0-15.28h-1v-10.18h1zm0-15.27h-1V272h1zm0-15.27h-1v-10.18h1zm0-15.27h-1v-10.18h1zm0-15.27h-1v-10.2h1zm0-15.28h-1V210.9h1zm0-15.27h-1v-10.18h1zm0-15.27h-1v-10.18h1zm0-15.27h-1v-10.2h1zm-.28-21.15l.27.7v5.18h-1v-5l-.04-.1-.12-.05h-5.16v-1h5.37zm-11.33.73h-10.54v-1h10.54zm-15.8 0H710.4v-1h10.54zm-15.82 0H694.6v-1h10.55zm-15.82 0H678.8v-1h10.53zm-15.8 0h-10.55v-1h10.54zm-15.82 0h-10.54v-1h10.55zm-21.14-1.16l.05.1.12.06h5.17v1h-5.38l-.68-.28-.28-.68v-7.48h1zm0-14.67h-1v-7.38h1z"/><path/><path d="M646.67 148.65l-.86.5-9.74-16.48-9.75 16.5-.85-.52 10.3-17.4h.64zM336.56 227.16h-1v-37.03h1zm0-58.37h-1v-36.63h1z"/><path d="M336.56 227.66h-1v-.52h1zM346.67 149.2l-.86.52-9.74-16.5-9.75 16.5-.85-.5 10.6-17.96z"/><use xlink:href="#x" transform="matrix(1,0,0,1,296.60620987724394,168.79233330934628) translate(0.005000000000002558 14.222222222222223)"/><path d="M452.46 259.16h-18.93v-1h18.93zm88.37-2.8H521.5v-1h19.33z"/><path/><path d="M451.08 248.9l-16.5 9.76 16.5 9.75-.5.87-17.95-10.6 17.94-10.62z"/><use xlink:href="#y" transform="matrix(1,0,0,1,452.46109146579533,233.79933332811234) translate(20.202530864197534 14.222222222222223)"/><use xlink:href="#z" transform="matrix(1,0,0,1,452.46109146579533,233.79933332811234) translate(0.005000000000002558 39.82222222222222)"/><path d="M412.9 546.8H259.2c-10.55 0-19.2 8.6-19.2 19.24v79.6c0 10.63 8.65 19.26 19.2 19.26h153.7c10.58 0 19.23-8.63 19.23-19.25v-79.6c0-10.64-8.65-19.26-19.22-19.26z" stroke="#000" stroke-width="1.11" fill="#fff"/><use xlink:href="#A" transform="matrix(1,0,0,1,248.83779600073294,555.645249982523) translate(29.704130859375 56.055)"/><path d="M336.06 505.23V545.88" fill="none"/><path d="M336.06 505.23v6.84m0 6.84v13.56m0 6.7v6.72" stroke="#000" fill="none"/><path/><path d="M346.67 528.84l-10.28 17.4h-.66l-10.3-17.4.87-.5 9.76 16.48 9.75-16.5z"/><path d="M1184.48 386.6h-153.7c-10.56 0-19.2 8.64-19.2 19.27v79.6c0 10.63 8.64 19.25 19.2 19.25h153.7c10.57 0 19.22-8.62 19.22-19.25v-79.6c0-10.63-8.65-19.26-19.22-19.26z" stroke="#000" fill="url(#B)"/><use xlink:href="#C" transform="matrix(1,0,0,1,1020.4071293337172,395.47224998065803) translate(32.84509277343749 56.055)"/><path d="M1058.73 335.07l.68.28.3.68v49.17h-1v-48.97l-.05-.12-.12-.03h-63.26v-1zm-156.88-.05l.1.05h30.2v1h-30.4l-.67-.28-.28-.7v-49.58h1v49.4z"/><path d="M901.8 285.53h-1v-.5h1zM1069.8 368.17l-10.6 17.94-10.62-17.93.86-.5 9.75 16.48 9.74-16.5z"/><use xlink:href="#D" transform="matrix(1,0,0,1,932.1597509011181,324.90133330934253) translate(0.004999999999999005 14.222222222222223)"/><use xlink:href="#E" transform="matrix(1,0,0,1,932.1597509011181,324.90133330934253) translate(33.58524691358025 14.222222222222223)"/><path d="M1108.13 385.7h-1v-43.78h1zm-1.33-65.1h-1v-33.22h1z"/><path d="M1106.8 287.4h-1v-.52h1zM1118.24 368.67l-10.3 17.44h-.6l-10.32-17.43.86-.5 9.75 16.48 9.75-16.5z"/><use xlink:href="#D" transform="matrix(1,0,0,1,1074.7434444447963,320.58540182923343) translate(0.004999999999999005 14.222222222222223)"/><use xlink:href="#E" transform="matrix(1,0,0,1,1074.7434444447963,320.58540182923343) translate(33.58524691358025 14.222222222222223)"/><path d="M1209.7 336.07h-52.97l-.1.04-.06.13v48.97h-1v-49.17l.28-.68.68-.28h53.16zm101.86-.96l-.28.7-.68.27h-37.8v-1h37.6l.1-.05.06-.1v-49.4h1zM1311.56 285.53h-1v-.5h1z"/><path d="M1166.68 368.17l-10.6 17.94-10.62-17.93.86-.5 9.75 16.48 9.75-16.5z"/><use xlink:href="#D" transform="matrix(1,0,0,1,1209.6910798434988,324.90133330934253) translate(0.004999999999999005 14.222222222222223)"/><use xlink:href="#E" transform="matrix(1,0,0,1,1209.6910798434988,324.90133330934253) translate(33.58524691358025 14.222222222222223)"/><path d="M182.05 336.26H28.35c-10.57 0-19.22 8.62-19.22 19.25v79.6c0 10.64 8.65 19.27 19.22 19.27h153.7c10.56 0 19.2-8.63 19.2-19.26v-79.6c0-10.62-8.64-19.24-19.2-19.24z" stroke="#000" stroke-width="1.11" fill="url(#F)"/><use xlink:href="#G" transform="matrix(1,0,0,1,17.971795999681866,345.11424998066366) translate(68.220244140625 42.723)"/><use xlink:href="#H" transform="matrix(1,0,0,1,17.971795999681866,345.11424998066366) translate(10.630517578124994 69.387)"/><path d="M183.73 477.55H30.03c-10.57 0-19.22 4.45-19.22 9.95v41.12c0 5.5 8.66 9.94 19.23 9.94h153.7c10.56 0 19.2-4.45 19.2-9.94V487.5c0-5.5-8.64-9.95-19.2-9.95z" stroke="#000" fill="#fff"/><use xlink:href="#I" transform="matrix(1,0,0,1,28.105340000000076,486.45875198394896) translate(27.290761718750005 27.555)"/><use xlink:href="#J" transform="matrix(1,0,0,1,28.105340000000076,486.45875198394896) translate(81.918544921875 27.555)"/><path d="M978.15 223.5h-153.7c-10.57 0-19.2 4.46-19.2 9.95v41.13c0 5.5 8.63 9.94 19.2 9.94h153.7c10.57 0 19.2-4.45 19.2-9.94v-41.13c0-5.5-8.63-9.94-19.2-9.94z" stroke="#000" fill="#fff"/><use xlink:href="#K" transform="matrix(1,0,0,1,822.527340000352,232.41775197778634) translate(37.6575634765625 14.223000000000003)"/><use xlink:href="#L" transform="matrix(1,0,0,1,822.527340000352,232.41775197778634) translate(32.0374658203125 40.887)"/><path d="M1183.15 225.36h-153.7c-10.57 0-19.2 4.46-19.2 9.95v41.13c0 5.5 8.63 9.95 19.2 9.95h153.7c10.57 0 19.2-4.46 19.2-9.95V235.3c0-5.48-8.63-9.94-19.2-9.94z" stroke="#000" fill="#fff"/><use xlink:href="#K" transform="matrix(1,0,0,1,1027.527340000352,234.272751977788) translate(37.6575634765625 14.223000000000003)"/><use xlink:href="#L" transform="matrix(1,0,0,1,1027.527340000352,234.272751977788) translate(32.0374658203125 40.887)"/><path d="M1387.9 223.5h-153.7c-10.56 0-19.2 4.46-19.2 9.95v41.13c0 5.5 8.64 9.94 19.2 9.94h153.7c10.58 0 19.22-4.45 19.22-9.94v-41.13c0-5.5-8.64-9.94-19.2-9.94z" stroke="#000" fill="#fff"/><use xlink:href="#K" transform="matrix(1,0,0,1,1232.2863400010508,232.41775197778634) translate(37.6575634765625 14.223000000000003)"/><use xlink:href="#L" transform="matrix(1,0,0,1,1232.2863400010508,232.41775197778634) translate(32.0374658203125 40.887)"/><path d="M736.46 255.87h6.4c0-2.76 2.25-5 5-5 2.78 0 5 2.24 5 5h12.74c2.76 0 5-2.24 5-5V188c0-2.75 2.24-5 5-5h120.7c2.76 0 5 2.25 5 5v34.1" stroke="#000" fill="none"/><path d="M736.47 256.37h-.5v-1h.5zM911.9 205.07L901.3 223l-10.6-17.93.85-.5 9.75 16.48 9.75-16.5z"/><path d="M1104.56 183.55l1.96 2.68.28 1.74v36h-1v-35.92l-.23-1.42-1.63-2.23-2.72-.9h-44.54v-1h44.7zm-151.78-.04h-46.44l-1.42.24-2.23 1.63-.9 2.72v34.4h-1v-34.57l1.04-3.18 2.68-1.96 1.74-.3h46.52z"/><path d="M901.8 223h-1v-.5h1zM1116.9 206.92l-10.6 17.95-10.6-17.95.85-.5 9.75 16.48 9.75-16.5z"/><g><use xlink:href="#M" transform="matrix(1,0,0,1,952.7765000003528,172.20999997293092) translate(0 14.4)"/><use xlink:href="#N" transform="matrix(1,0,0,1,952.7765000003528,172.20999997293092) translate(34 14.4)"/></g><path d="M1106.3 224.36V188c0-2.75 2.24-5 5-5h194.76c2.76 0 5 2.25 5 5v34.1" stroke="#000" fill="none"/><path d="M1106.8 224.87h-1v-.52h1zM1321.67 205.07l-10.6 17.94-10.62-17.93.86-.5 9.76 16.48 9.75-16.5z"/><path d="M412.9 228.15H259.2c-10.55 0-19.2 4.46-19.2 9.95v41.12c0 5.5 8.65 9.95 19.2 9.95h153.7c10.58 0 19.23-4.46 19.23-9.95V238.1c0-5.5-8.65-9.95-19.22-9.95z" stroke="#000" fill="#fff"/><g><use xlink:href="#K" transform="matrix(1,0,0,1,257.29134000070076,237.06275197778535) translate(37.6575634765625 14.223000000000003)"/><use xlink:href="#L" transform="matrix(1,0,0,1,257.29134000070076,237.06275197778535) translate(32.0374658203125 40.887)"/></g><path d="M385.38 310l.05.12.1.05h91.5l.7.28.27.68v233.43l.05.12.1.04h42.65v1h-42.84l-.68-.28-.28-.68V311.33l-.05-.12-.1-.03h-91.5l-.7-.28-.27-.7v-20.03h1zm674.3 234.76l-.27.68-.67.28H583.9v-1h474.63l.12-.04.04-.12v-38.43h1z"/><path d="M385.38 290.18h-1v-.5h1zM1069.8 523.17l-.86.5-9.75-16.48-9.76 16.48-.86-.5 10.6-17.96z"/><g><use xlink:href="#D" transform="matrix(1,0,0,1,520.7966651218352,534.5573333124208) translate(0.004999999999999005 14.222222222222223)"/><use xlink:href="#E" transform="matrix(1,0,0,1,520.7966651218352,534.5573333124208) translate(33.58524691358025 14.222222222222223)"/></g><defs><path d="M75-490c0-310 160-503 466-503s464 194 464 503c0 310-158 504-464 504C234 14 75-180 75-490zm181 1c0 215 74 366 285 366 210 0 283-152 283-366s-74-367-283-367c-211 0-285 152-285 367" id="O"/><path d="M21-978c68 8 173-25 191 37 66 230 131 458 192 691 6 21 9 43 12 64 75-256 159-506 233-760 13-43 73-33 125-34 27 0 43 14 50 34 75 254 156 502 227 760 7-43 18-87 31-132l179-624c15-59 116-29 182-36L1136 0H996c-17 0-28-11-35-33-73-235-147-469-219-705-4-15-7-30-10-45-7 32-14 62-23 92L501-33C485 26 391-10 329 0" id="P"/><path d="M323-1422V0H147v-1422h176" id="Q"/><path d="M271-232c74 0 125 50 125 125 0 74-52 123-125 123S149-34 149-107c0-74 48-125 122-125zm-6-678c74 0 125 50 125 125 0 74-52 123-125 123s-122-50-122-123c0-74 48-125 122-125" id="R"/><path d="M1052-184C961-66 832 17 628 14c-289-4-447-172-522-398-53-160-53-388 3-546 81-226 241-394 534-399 180-3 301 72 392 167-25 33-46 70-75 99-51 21-73-33-114-51-77-60-256-80-362-23-152 81-231 248-231 480 0 233 83 400 235 481 113 60 301 37 376-30 33-15 74-101 116-56" id="S"/><path d="M514-995c228 0 341 142 341 370V0c-56-5-123 17-137-41l-22-91C610-53 522 18 358 15 189 12 84-73 84-244c0-178 154-235 319-276 76-19 169-27 280-30 12-176-30-304-190-304-107 0-171 42-231 86-34 25-81 14-98-16l-32-56c98-93 207-155 382-155zM253-253c0 98 61 145 158 145 133 0 205-61 272-130v-202c-134 6-246 19-333 58-57 26-97 59-97 129" id="T"/><path d="M95-709c0-188 136-281 332-284 128-2 226 47 291 114-25 33-46 112-108 74-47-29-100-60-179-58-97 2-169 47-169 140 0 121 140 131 235 168 118 46 235 94 235 255C732-91 595 11 381 15 247 17 139-38 70-104c26-39 56-126 124-80 51 35 104 76 195 74 109-2 179-54 179-159 0-126-138-136-236-173C209-488 95-543 95-709" id="U"/><g id="a"><use transform="matrix(0.010849609375,0,0,0.010849609375,0,0)" xlink:href="#O"/><use transform="matrix(0.010849609375,0,0,0.010849609375,11.63078125,0)" xlink:href="#P"/><use transform="matrix(0.010849609375,0,0,0.010849609375,27.514609375,0)" xlink:href="#Q"/><use transform="matrix(0.010849609375,0,0,0.010849609375,32.613925781249996,0)" xlink:href="#R"/><use transform="matrix(0.010849609375,0,0,0.010849609375,38.559511718749995,0)" xlink:href="#S"/><use transform="matrix(0.010849609375,0,0,0.010849609375,50.40728515625,0)" xlink:href="#Q"/><use transform="matrix(0.010849609375,0,0,0.010849609375,55.506601562499995,0)" xlink:href="#T"/><use transform="matrix(0.010849609375,0,0,0.010849609375,66.150068359375,0)" xlink:href="#U"/><use transform="matrix(0.010849609375,0,0,0.010849609375,74.84060546875,0)" xlink:href="#U"/></g><path d="M913-1314v148H328v431h471v143H328v444h586L913 0H145v-1314h768" id="V"/><path d="M544 14C232 14 75-190 75-509c0-226 105-376 267-447 57-25 122-37 193-37 265 0 410 167 410 437 0 47-2 68-42 68H249c7 217 94 359 310 364 110 2 183-39 248-80 70-44 93 39 123 67C847-42 716 14 544 14zm243-610c-5-164-86-266-249-269-173-3-262 113-284 269h533" id="W"/><path d="M545-854c-104 0-170 61-222 126V0H147v-978c54 8 140-23 149 36l15 100c68-77 143-150 284-151 143-1 221 88 255 203 52-123 153-201 320-203 220-2 335 143 335 370V0h-176v-623c1-143-65-231-201-231-139 0-216 89-216 231V0H736v-623c1-145-55-231-191-231" id="X"/><path d="M575-854c-119 2-197 63-259 134V0H140v-978c55 7 141-23 150 36l15 104c78-83 170-155 321-155 223 0 325 146 325 370V0H775v-623c0-140-61-233-200-231" id="Y"/><path d="M650-73c-53 51-136 87-233 88-153 0-235-95-235-251v-596c-55-8-148 24-148-39v-70l154-20 41-301c4-50 80-28 129-33v335h269v128H358v584c-2 72 34 118 99 120 56 2 78-32 116-46 15 0 19 7 25 17" id="Z"/><g id="b"><use transform="matrix(0.0130224609375,0,0,0.0130224609375,0,0)" xlink:href="#V"/><use transform="matrix(0.0130224609375,0,0,0.0130224609375,13.0224609375,0)" xlink:href="#Q"/><use transform="matrix(0.0130224609375,0,0,0.0130224609375,19.143017578125,0)" xlink:href="#W"/><use transform="matrix(0.0130224609375,0,0,0.0130224609375,32.4129052734375,0)" xlink:href="#X"/><use transform="matrix(0.0130224609375,0,0,0.0130224609375,53.7176513671875,0)" xlink:href="#W"/><use transform="matrix(0.0130224609375,0,0,0.0130224609375,66.9875390625,0)" xlink:href="#Y"/><use transform="matrix(0.0130224609375,0,0,0.0130224609375,80.7522802734375,0)" xlink:href="#Z"/><path d="M-1.33.08h98.38V2.6H-1.33z"/></g><path d="M306-740c60 2 107 0 133-38l339-494c22-28 41-41 86-42h156L620-750c-21 29-44 49-67 61 31 11 60 31 83 65L1049 0c-85-7-198 21-238-38L463-558c-23-30-38-42-90-42h-67V0H124v-1314h182v574" id="aa"/><path d="M409 288c-14 65-120 35-192 42L385-58 11-978h152c30-1 46 16 53 36 86 232 175 459 256 696 80-235 169-463 250-696 20-58 122-29 191-36" id="ab"/><g id="c"><use transform="matrix(0.0130224609375,0,0,0.0130224609375,0,0)" xlink:href="#aa"/><use transform="matrix(0.0130224609375,0,0,0.0130224609375,13.3740673828125,0)" xlink:href="#W"/><use transform="matrix(0.0130224609375,0,0,0.0130224609375,26.4746630859375,0)" xlink:href="#ab"/><path d="M-1.33.08h41.2V2.6h-41.2z"/></g><path d="M536-823c-141 7-187 99-229 205V0H131v-978c60 8 148-26 154 48l12 144c58-123 149-234 328-202 18 3 34 11 49 21l-14 130c-12 52-78 12-124 14" id="ac"/><path d="M492-995c127 0 201 45 264 114v-541h176V0c-55-7-141 23-150-36l-18-117C688-64 595 14 440 14 170 14 74-204 74-486c0-228 88-392 242-470 52-26 111-39 176-39zM255-486c2 201 49 359 242 359 130 0 195-67 259-146v-473c-54-73-114-114-224-114-197 0-279 159-277 374" id="ad"/><path d="M523-1269c-167-5-192 134-183 309h263v128H346V0H170v-831c-44-9-102-4-133-26-23-17-9-67-13-103h146c-18-271 76-439 324-444 44 0 83 8 117 19-9 39 11 106-29 113-15 2-34 3-59 3" id="ae"/><path d="M450 15c-223 0-325-146-325-370v-623h176v623c0 141 61 233 200 231 119-1 195-63 259-133v-721h176V0c-55-7-141 23-150-36l-16-104C692-57 602 15 450 15" id="af"/><path d="M586 14c-139 0-211-58-275-138-12 47 7 124-53 124H144v-1422h176v583c74-85 165-154 314-154 264 0 368 206 368 479 0 238-85 409-243 490-51 25-109 38-173 38zm235-522c0-208-63-346-246-346-127 0-194 66-255 146v472c53 73 113 114 222 114 204 0 279-159 279-386" id="ag"/><path d="M1240-928c58 159 58 383 0 542-85 230-258 400-561 400S201-157 116-386c-59-159-59-383 0-542 86-230 259-401 563-401s477 171 561 401zm-172 486c38-122 39-308 0-430-56-173-170-300-389-300-293 0-420 215-420 515 0 237 85 404 247 479 99 47 246 46 346 0 107-49 178-142 216-264" id="ah"/><g id="d"><use transform="matrix(0.010849609375,0,0,0.010849609375,0,0)" xlink:href="#ac"/><use transform="matrix(0.010849609375,0,0,0.010849609375,7.44283203125,0)" xlink:href="#ad"/><use transform="matrix(0.010849609375,0,0,0.010849609375,19.11701171875,0)" xlink:href="#ae"/><use transform="matrix(0.010849609375,0,0,0.010849609375,25.605078125,0)" xlink:href="#U"/><use transform="matrix(0.010849609375,0,0,0.010849609375,34.295615234375,0)" xlink:href="#R"/><use transform="matrix(0.010849609375,0,0,0.010849609375,40.241201171875,0)" xlink:href="#U"/><use transform="matrix(0.010849609375,0,0,0.010849609375,48.93173828125,0)" xlink:href="#af"/><use transform="matrix(0.010849609375,0,0,0.010849609375,60.60591796875,0)" xlink:href="#ag"/><use transform="matrix(0.010849609375,0,0,0.010849609375,72.28009765624999,0)" xlink:href="#S"/><use transform="matrix(0.010849609375,0,0,0.010849609375,84.12787109374999,0)" xlink:href="#Q"/><use transform="matrix(0.010849609375,0,0,0.010849609375,89.22718749999997,0)" xlink:href="#T"/><use transform="matrix(0.010849609375,0,0,0.010849609375,99.87065429687499,0)" xlink:href="#U"/><use transform="matrix(0.010849609375,0,0,0.010849609375,108.56119140624999,0)" xlink:href="#U"/><use transform="matrix(0.010849609375,0,0,0.010849609375,117.25172851562499,0)" xlink:href="#ah"/><use transform="matrix(0.010849609375,0,0,0.010849609375,131.963798828125,0)" xlink:href="#ae"/></g><path d="M581 14c-127 0-201-47-264-114v430H141V-978c55 7 141-23 150 36l17 114c76-89 171-167 326-167 271 0 368 217 368 499 0 229-91 393-245 471-52 26-111 39-176 39zm240-510c-2-202-50-358-245-358-128 0-197 66-259 146v472c53 73 114 114 225 114 198 0 281-159 279-374" id="ai"/><g id="e"><use transform="matrix(0.010849609375,0,0,0.010849609375,0,0)" xlink:href="#ac"/><use transform="matrix(0.010849609375,0,0,0.010849609375,7.44283203125,0)" xlink:href="#ad"/><use transform="matrix(0.010849609375,0,0,0.010849609375,19.11701171875,0)" xlink:href="#ae"/><use transform="matrix(0.010849609375,0,0,0.010849609375,25.898017578125,0)" xlink:href="#R"/><use transform="matrix(0.010849609375,0,0,0.010849609375,31.843603515625,0)" xlink:href="#Z"/><use transform="matrix(0.010849609375,0,0,0.010849609375,39.286435546875,0)" xlink:href="#ab"/><use transform="matrix(0.010849609375,0,0,0.010849609375,49.3440234375,0)" xlink:href="#ai"/><use transform="matrix(0.010849609375,0,0,0.010849609375,61.018203125,0)" xlink:href="#W"/></g><path d="M994-906c0 279-183 411-470 416H329V0H147v-1314h377c290 3 470 124 470 408zm-182 0c0-176-103-265-288-265H329v537h195c180-4 288-94 288-272" id="aj"/><path d="M969-949c0 213-127 324-301 372 24 16 43 33 61 57L1082 0c-87-8-195 23-235-37L536-505c-21-29-36-41-85-41H329V0H147v-1314h360c275 2 462 97 462 365zM500-679c179-3 292-82 292-257 0-157-95-235-285-235H329v492h171" id="ak"/><path d="M882-1314v148H321v455h477v148H321V0H138v-1314h744" id="al"/><g id="f"><use transform="matrix(0.010849609375,0,0,0.010849609375,0,0)" xlink:href="#aj"/><use transform="matrix(0.010849609375,0,0,0.010849609375,11.47888671875,0)" xlink:href="#ak"/><use transform="matrix(0.010849609375,0,0,0.010849609375,23.32666015625,0)" xlink:href="#ah"/><use transform="matrix(0.010849609375,0,0,0.010849609375,38.03873046875,0)" xlink:href="#al"/></g><g id="g"><use transform="matrix(0.010849609375,0,0,0.010849609375,0,0)" xlink:href="#S"/><use transform="matrix(0.010849609375,0,0,0.010849609375,11.847773437499999,0)" xlink:href="#Q"/><use transform="matrix(0.010849609375,0,0,0.010849609375,16.94708984375,0)" xlink:href="#T"/><use transform="matrix(0.010849609375,0,0,0.010849609375,27.590556640625,0)" xlink:href="#U"/><use transform="matrix(0.010849609375,0,0,0.010849609375,36.28109375,0)" xlink:href="#U"/></g><g id="h"><use transform="matrix(0.010849609375,0,0,0.010849609375,0,0)" xlink:href="#ac"/><use transform="matrix(0.010849609375,0,0,0.010849609375,7.44283203125,0)" xlink:href="#ad"/><use transform="matrix(0.010849609375,0,0,0.010849609375,19.11701171875,0)" xlink:href="#ae"/><use transform="matrix(0.010849609375,0,0,0.010849609375,25.898017578125,0)" xlink:href="#R"/><use transform="matrix(0.010849609375,0,0,0.010849609375,31.843603515625,0)" xlink:href="#ai"/><use transform="matrix(0.010849609375,0,0,0.010849609375,43.517783203125,0)" xlink:href="#ac"/><use transform="matrix(0.010849609375,0,0,0.010849609375,50.90636718750001,0)" xlink:href="#O"/><use transform="matrix(0.010849609375,0,0,0.010849609375,62.6239453125,0)" xlink:href="#ai"/><use transform="matrix(0.010849609375,0,0,0.010849609375,74.298125,0)" xlink:href="#W"/><use transform="matrix(0.010849609375,0,0,0.010849609375,85.353876953125,0)" xlink:href="#ac"/><use transform="matrix(0.010849609375,0,0,0.010849609375,93.10049804687499,0)" xlink:href="#Z"/><use transform="matrix(0.010849609375,0,0,0.010849609375,100.543330078125,0)" xlink:href="#ab"/></g><path d="M323-978V0H147v-978h176zm-91-431c74 0 125 50 125 125 0 74-52 123-125 123s-122-50-122-123c0-74 48-125 122-125" id="am"/><g id="i"><use transform="matrix(0.010849609375,0,0,0.010849609375,0,0)" xlink:href="#aj"/><use transform="matrix(0.010849609375,0,0,0.010849609375,11.47888671875,0)" xlink:href="#ac"/><use transform="matrix(0.010849609375,0,0,0.010849609375,18.867470703125,0)" xlink:href="#O"/><use transform="matrix(0.010849609375,0,0,0.010849609375,30.585048828125,0)" xlink:href="#ae"/><use transform="matrix(0.010849609375,0,0,0.010849609375,37.3660546875,0)" xlink:href="#am"/><use transform="matrix(0.010849609375,0,0,0.010849609375,42.465371093749994,0)" xlink:href="#Q"/><use transform="matrix(0.010849609375,0,0,0.010849609375,47.56468749999999,0)" xlink:href="#W"/></g><linearGradient gradientUnits="userSpaceOnUse" id="j" x1="240" y1="12.6" x2="240" y2="130.71"><stop offset="0%" stop-color="#fff"/><stop offset="20%" stop-color="#fff"/><stop offset="100%" stop-color="#dbdbdb"/></linearGradient><path d="M1136 0H953v-596H323V0H140v-1314h183v585h630v-585h183V0" id="an"/><path d="M974-1314v152H591V0H408v-1162H24v-152h950" id="ao"/><path d="M835-479c17 30 30 62 44 96 13-34 27-66 43-96l464-805c25-53 129-21 198-30V0h-161c1-334-2-672 1-1004 1-16 3-32 4-49L959-229c-25 56-126 55-158 0l-480-823c4 33 6 64 6 93V0H167v-1314c56 2 123-6 171 4 9 2 18 12 27 27" id="ap"/><path d="M320-153h507V0H138v-1314h182v1161" id="aq"/><g id="k"><use transform="matrix(0.010849609375,0,0,0.010849609375,0,0)" xlink:href="#an"/><use transform="matrix(0.010849609375,0,0,0.010849609375,13.844101562499999,0)" xlink:href="#ao"/><use transform="matrix(0.010849609375,0,0,0.010849609375,24.67201171875,0)" xlink:href="#ap"/><use transform="matrix(0.010849609375,0,0,0.010849609375,43.669677734375,0)" xlink:href="#aq"/></g><linearGradient gradientUnits="userSpaceOnUse" id="l" x1="240" y1="386.61" x2="240" y2="504.72"><stop offset="0%" stop-color="#fff"/><stop offset="20%" stop-color="#fff"/><stop offset="100%" stop-color="#dbdbdb"/></linearGradient><path d="M12-1314c77 9 194-28 214 42l255 907c9 32 18 69 26 112 8-39 17-78 28-113l293-905c10-59 158-61 176-1 97 321 208 636 308 958 5 18 9 38 13 58 8-37 15-76 25-109l254-906c17-65 129-37 206-43L1411 0h-165c-111-354-226-705-335-1062-5 24-11 46-18 66L575 0H411" id="ar"/><path d="M133-957c36-227 169-372 422-372 224 0 376 114 376 336 0 173-90 260-222 302 151 40 251 135 251 313 0 198-114 310-263 365-98 37-246 34-340 1C213-61 139-178 95-327c44-18 136-74 166-8 49 106 110 211 268 207 159-4 256-94 263-245 8-191-130-240-325-240v-121c175-4 300-59 300-230 0-143-79-222-221-222-138 0-212 82-243 193-12 42-31 58-82 50" id="as"/><g id="m"><use transform="matrix(0.010849609375,0,0,0.010849609375,0,0)" xlink:href="#ar"/><use transform="matrix(0.010849609375,0,0,0.010849609375,19.76798828125,0)" xlink:href="#as"/><use transform="matrix(0.010849609375,0,0,0.010849609375,31.0298828125,0)" xlink:href="#S"/></g><path d="M69-490c0-299 140-503 438-503 143 0 234 53 308 127-20 26-37 58-61 80-40 18-64-17-93-32-37-19-81-40-143-39-201 7-269 160-269 367 0 204 66 360 261 368 96 4 149-38 198-81 21-19 50-20 67 2l51 64C751-46 640 14 479 14 199 14 69-199 69-490" id="at"/><g id="n"><use transform="matrix(0.010849609375,0,0,0.010849609375,0,0)" xlink:href="#ak"/><use transform="matrix(0.010849609375,0,0,0.010849609375,11.674179687499999,0)" xlink:href="#W"/><use transform="matrix(0.010849609375,0,0,0.010849609375,22.729931640624997,0)" xlink:href="#at"/><use transform="matrix(0.010849609375,0,0,0.010849609375,31.941250000000004,0)" xlink:href="#O"/><use transform="matrix(0.010849609375,0,0,0.010849609375,43.658828125,0)" xlink:href="#X"/><use transform="matrix(0.010849609375,0,0,0.010849609375,61.4087890625,0)" xlink:href="#X"/><use transform="matrix(0.010849609375,0,0,0.010849609375,79.15875,0)" xlink:href="#W"/><use transform="matrix(0.010849609375,0,0,0.010849609375,90.214501953125,0)" xlink:href="#Y"/><use transform="matrix(0.010849609375,0,0,0.010849609375,101.888681640625,0)" xlink:href="#ad"/><use transform="matrix(0.010849609375,0,0,0.010849609375,113.562861328125,0)" xlink:href="#T"/><use transform="matrix(0.010849609375,0,0,0.010849609375,124.00018554687499,0)" xlink:href="#Z"/><use transform="matrix(0.010849609375,0,0,0.010849609375,131.443017578125,0)" xlink:href="#am"/><use transform="matrix(0.010849609375,0,0,0.010849609375,136.542333984375,0)" xlink:href="#O"/><use transform="matrix(0.010849609375,0,0,0.010849609375,148.259912109375,0)" xlink:href="#Y"/></g><linearGradient gradientUnits="userSpaceOnUse" id="o" x1="541.33" y1="386.61" x2="541.33" y2="504.72"><stop offset="0%" stop-color="#fff"/><stop offset="20%" stop-color="#fff"/><stop offset="100%" stop-color="#dbdbdb"/></linearGradient><path d="M1148-926c58 156 58 382 0 538C1064-162 892 0 593 0H139v-1314h454c298 6 472 162 555 388zM976-442c38-121 39-309 0-430-55-171-167-295-383-295H322v1020c157-7 329 19 441-35 105-50 176-139 213-260" id="au"/><path d="M1178 0c-74-7-179 24-202-42L864-358H322L211-43C194 22 84-6 8 0l493-1314h185zM368-488h450c-69-195-137-390-206-585-7-21-13-44-19-69-68 226-151 434-225 654" id="av"/><g id="p"><use transform="matrix(0.010849609375,0,0,0.010849609375,0,0)" xlink:href="#au"/><use transform="matrix(0.010849609375,0,0,0.010849609375,13.670507812499999,0)" xlink:href="#S"/><use transform="matrix(0.010849609375,0,0,0.010849609375,25.518281249999998,0)" xlink:href="#av"/><use transform="matrix(0.010849609375,0,0,0.010849609375,36.639130859375,0)" xlink:href="#ao"/></g><path d="M415 284C228 8 104-369 164-836c34-266 128-472 251-661 37 33 133 46 93 119-117 213-205 462-205 771 0 310 84 561 205 772 20 35 8 57-15 71" id="aw"/><path d="M107-679c0-208 143-315 355-315 85 0 156 21 210 54h256c-2 50 12 98-40 106l-104 15c21 43 31 89 31 140 0 207-143 315-353 315-43 0-82-5-118-15-46 21-87 104-30 135 178 96 598-48 598 268 0 166-119 253-254 300-155 54-396 24-493-50-56-42-101-97-101-181 0-110 73-167 160-201-52-25-92-64-89-140 3-77 56-136 120-167-84-50-148-136-148-264zm369 904c144 0 274-38 274-172C750-83 557-56 422-70c-32-3-63-4-93-9C273-48 218-8 218 71c0 125 123 154 258 154zM268-675c2 124 69 192 194 195 124 3 196-76 196-195 0-121-71-194-196-194-123 0-196 74-194 194" id="ax"/><path d="M206-1498c187 277 310 653 250 1120-34 266-128 473-250 662-30-20-65-35-92-58-16-13-12-41-1-61C234-46 318-297 318-607c0-309-82-562-205-771-16-28-6-59 15-72" id="ay"/><g id="q"><use transform="matrix(0.010849609375,0,0,0.010849609375,0,0)" xlink:href="#aw"/><use transform="matrix(0.010849609375,0,0,0.010849609375,6.7376074218749995,0)" xlink:href="#O"/><use transform="matrix(0.010849609375,0,0,0.010849609375,18.455185546875,0)" xlink:href="#ac"/><use transform="matrix(0.010849609375,0,0,0.010849609375,26.201806640625005,0)" xlink:href="#am"/><use transform="matrix(0.010849609375,0,0,0.010849609375,31.301123046875002,0)" xlink:href="#ax"/><use transform="matrix(0.010849609375,0,0,0.010849609375,41.760146484375,0)" xlink:href="#am"/><use transform="matrix(0.010849609375,0,0,0.010849609375,46.859462890625,0)" xlink:href="#Y"/><use transform="matrix(0.010849609375,0,0,0.010849609375,58.533642578125,0)" xlink:href="#T"/><use transform="matrix(0.010849609375,0,0,0.010849609375,69.177109375,0)" xlink:href="#Q"/><use transform="matrix(0.010849609375,0,0,0.010849609375,74.27642578125,0)" xlink:href="#ay"/></g><linearGradient gradientUnits="userSpaceOnUse" id="r" x1="541.33" y1="196.82" x2="541.33" y2="314.93"><stop offset="0%" stop-color="#fff"/><stop offset="20%" stop-color="#fff"/><stop offset="100%" stop-color="#dbdbdb"/></linearGradient><path d="M542 0H383L19-978h145c26-1 46 18 53 36 77 231 156 461 231 694 7 22 12 44 17 67 10-48 25-91 40-135l212-626c18-58 121-29 189-36" id="az"/><g id="s"><use transform="matrix(0.010849609375,0,0,0.010849609375,0,0)" xlink:href="#aw"/><use transform="matrix(0.010849609375,0,0,0.010849609375,6.7376074218749995,0)" xlink:href="#ac"/><use transform="matrix(0.010849609375,0,0,0.010849609375,14.1912890625,0)" xlink:href="#W"/><use transform="matrix(0.010849609375,0,0,0.010849609375,25.138544921875,0)" xlink:href="#az"/><use transform="matrix(0.010849609375,0,0,0.010849609375,35.174433593749995,0)" xlink:href="#am"/><use transform="matrix(0.010849609375,0,0,0.010849609375,40.27374999999999,0)" xlink:href="#U"/><use transform="matrix(0.010849609375,0,0,0.010849609375,48.964287109375,0)" xlink:href="#W"/><use transform="matrix(0.010849609375,0,0,0.010849609375,60.02003906249999,0)" xlink:href="#ad"/><use transform="matrix(0.010849609375,0,0,0.010849609375,71.69421874999999,0)" xlink:href="#ay"/></g><g id="t"><use transform="matrix(0.010849609375,0,0,0.010849609375,0,0)" xlink:href="#am"/><use transform="matrix(0.010849609375,0,0,0.010849609375,5.09931640625,0)" xlink:href="#U"/></g><g id="u"><use transform="matrix(0.010849609375,0,0,0.010849609375,0,0)" xlink:href="#ai"/><use transform="matrix(0.010849609375,0,0,0.010849609375,11.674179687499999,0)" xlink:href="#ac"/><use transform="matrix(0.010849609375,0,0,0.010849609375,19.062763671875,0)" xlink:href="#O"/><use transform="matrix(0.010849609375,0,0,0.010849609375,30.780341796875,0)" xlink:href="#ae"/><use transform="matrix(0.010849609375,0,0,0.010849609375,37.56134765625,0)" xlink:href="#am"/><use transform="matrix(0.010849609375,0,0,0.010849609375,42.6606640625,0)" xlink:href="#Q"/><use transform="matrix(0.010849609375,0,0,0.010849609375,47.759980468749994,0)" xlink:href="#W"/></g><g id="v"><use transform="matrix(0.010849609375,0,0,0.010849609375,0,0)" xlink:href="#O"/><use transform="matrix(0.010849609375,0,0,0.010849609375,11.717578125,0)" xlink:href="#ae"/></g><path d="M85-194c31 0 48 13 60 33l-1-100h32l1 261h-30c-2-10 0-23-3-31C134-8 116 4 85 4 32 4 16-35 15-94c0-66 23-100 70-100zm9 24c-40 0-46 34-46 75 0 40 6 74 45 74 42 0 51-32 51-76 0-42-9-74-50-73" id="aA"/><path d="M96-169c-40 0-48 33-48 73s9 75 48 75c24 0 41-14 43-38l32 2c-6 37-31 61-74 61-59 0-76-41-82-99-10-93 101-131 147-64 4 7 5 14 7 22l-32 3c-4-21-16-35-41-35" id="aB"/><path d="M59-47c-2 24 18 29 38 22v24C64 9 27 4 27-40v-127H5v-23h24l9-43h21v43h35v23H59v120" id="aC"/><path d="M33-154v-36h34v36H33zM33 0v-36h34V0H33" id="aD"/><path d="M100-194c62-1 85 37 85 99 1 63-27 99-86 99S16-35 15-95c0-66 28-99 85-99zM99-20c44 1 53-31 53-75 0-43-8-75-51-75s-53 32-53 75 10 74 51 75" id="aE"/><path d="M117-194c89-4 53 116 60 194h-32v-121c0-31-8-49-39-48C34-167 62-67 57 0H25l-1-190h30c1 10-1 24 2 32 11-22 29-35 61-36" id="aF"/><path d="M101-234c-31-9-42 10-38 44h38v23H63V0H32v-167H5v-23h27c-7-52 17-82 69-68v24" id="aG"/><path d="M114-163C36-179 61-72 57 0H25l-1-190h30c1 12-1 29 2 39 6-27 23-49 58-41v29" id="aH"/><path d="M210-169c-67 3-38 105-44 169h-31v-121c0-29-5-50-35-48C34-165 62-65 56 0H25l-1-190h30c1 10-1 24 2 32 10-44 99-50 107 0 11-21 27-35 58-36 85-2 47 119 55 194h-31v-121c0-29-5-49-35-48" id="aI"/><path d="M135-143c-3-34-86-38-87 0 15 53 115 12 119 90S17 21 10-45l28-5c4 36 97 45 98 0-10-56-113-15-118-90-4-57 82-63 122-42 12 7 21 19 24 35" id="aJ"/><path d="M127-220V0H93v-220H8v-28h204v28h-85" id="aK"/><g id="w"><use transform="matrix(0.04938271604938272,0,0,0.04938271604938272,0,0)" xlink:href="#aA"/><use transform="matrix(0.04938271604938272,0,0,0.04938271604938272,9.876543209876544,0)" xlink:href="#aB"/><use transform="matrix(0.04938271604938272,0,0,0.04938271604938272,18.765432098765434,0)" xlink:href="#aC"/><use transform="matrix(0.04938271604938272,0,0,0.04938271604938272,23.703703703703706,0)" xlink:href="#aD"/><use transform="matrix(0.04938271604938272,0,0,0.04938271604938272,28.641975308641978,0)" xlink:href="#aB"/><use transform="matrix(0.04938271604938272,0,0,0.04938271604938272,37.53086419753087,0)" xlink:href="#aE"/><use transform="matrix(0.04938271604938272,0,0,0.04938271604938272,47.40740740740741,0)" xlink:href="#aF"/><use transform="matrix(0.04938271604938272,0,0,0.04938271604938272,57.283950617283956,0)" xlink:href="#aG"/><use transform="matrix(0.04938271604938272,0,0,0.04938271604938272,62.22222222222223,0)" xlink:href="#aE"/><use transform="matrix(0.04938271604938272,0,0,0.04938271604938272,72.09876543209877,0)" xlink:href="#aH"/><use transform="matrix(0.04938271604938272,0,0,0.04938271604938272,77.97530864197532,0)" xlink:href="#aI"/><use transform="matrix(0.04938271604938272,0,0,0.04938271604938272,92.74074074074075,0)" xlink:href="#aJ"/><use transform="matrix(0.04938271604938272,0,0,0.04938271604938272,101.62962962962963,0)" xlink:href="#aK"/><use transform="matrix(0.04938271604938272,0,0,0.04938271604938272,110.46913580246914,0)" xlink:href="#aE"/></g><path d="M141-36C126-15 110 5 73 4 37 3 15-17 15-53c-1-64 63-63 125-63 3-35-9-54-41-54-24 1-41 7-42 31l-33-3c5-37 33-52 76-52 45 0 72 20 72 64v82c-1 20 7 32 28 27v20c-31 9-61-2-59-35zM48-53c0 20 12 33 32 33 41-3 63-29 60-74-43 2-92-5-92 41" id="aL"/><g id="x"><use transform="matrix(0.04938271604938272,0,0,0.04938271604938272,0,0)" xlink:href="#aA"/><use transform="matrix(0.04938271604938272,0,0,0.04938271604938272,9.876543209876544,0)" xlink:href="#aB"/><use transform="matrix(0.04938271604938272,0,0,0.04938271604938272,18.765432098765434,0)" xlink:href="#aC"/><use transform="matrix(0.04938271604938272,0,0,0.04938271604938272,23.703703703703706,0)" xlink:href="#aD"/><use transform="matrix(0.04938271604938272,0,0,0.04938271604938272,28.641975308641978,0)" xlink:href="#aG"/><use transform="matrix(0.04938271604938272,0,0,0.04938271604938272,33.580246913580254,0)" xlink:href="#aE"/><use transform="matrix(0.04938271604938272,0,0,0.04938271604938272,43.4567901234568,0)" xlink:href="#aH"/><use transform="matrix(0.04938271604938272,0,0,0.04938271604938272,49.33333333333334,0)" xlink:href="#aI"/><use transform="matrix(0.04938271604938272,0,0,0.04938271604938272,64.09876543209877,0)" xlink:href="#aL"/><use transform="matrix(0.04938271604938272,0,0,0.04938271604938272,73.97530864197532,0)" xlink:href="#aC"/></g><path d="M106-169C34-169 62-67 57 0H25v-261h32l-1 103c12-21 28-36 61-36 89 0 53 116 60 194h-32v-121c2-32-8-49-39-48" id="aM"/><g id="y"><use transform="matrix(0.04938271604938272,0,0,0.04938271604938272,0,0)" xlink:href="#aM"/><use transform="matrix(0.04938271604938272,0,0,0.04938271604938272,9.876543209876544,0)" xlink:href="#aL"/><use transform="matrix(0.04938271604938272,0,0,0.04938271604938272,19.75308641975309,0)" xlink:href="#aJ"/></g><path d="M100-194c63 0 86 42 84 106H49c0 40 14 67 53 68 26 1 43-12 49-29l28 8c-11 28-37 45-77 45C44 4 14-33 15-96c1-61 26-98 85-98zm52 81c6-60-76-77-97-28-3 7-6 17-6 28h103" id="aN"/><path d="M84 4C-5 8 30-112 23-190h32v120c0 31 7 50 39 49 72-2 45-101 50-169h31l1 190h-30c-1-10 1-25-2-33-11 22-28 36-60 37" id="aO"/><g id="z"><use transform="matrix(0.04938271604938272,0,0,0.04938271604938272,0,0)" xlink:href="#aH"/><use transform="matrix(0.04938271604938272,0,0,0.04938271604938272,5.8765432098765435,0)" xlink:href="#aN"/><use transform="matrix(0.04938271604938272,0,0,0.04938271604938272,15.753086419753087,0)" xlink:href="#aJ"/><use transform="matrix(0.04938271604938272,0,0,0.04938271604938272,24.641975308641978,0)" xlink:href="#aE"/><use transform="matrix(0.04938271604938272,0,0,0.04938271604938272,34.51851851851852,0)" xlink:href="#aO"/><use transform="matrix(0.04938271604938272,0,0,0.04938271604938272,44.39506172839506,0)" xlink:href="#aH"/><use transform="matrix(0.04938271604938272,0,0,0.04938271604938272,50.27160493827161,0)" xlink:href="#aB"/><use transform="matrix(0.04938271604938272,0,0,0.04938271604938272,59.1604938271605,0)" xlink:href="#aN"/></g><path d="M454-137c154-4 244-84 244-236 0-172-165-194-295-240-161-57-303-135-295-354 9-227 154-362 390-362 152 0 266 55 344 137l-45 85c-37 63-91-1-127-21-44-25-97-52-170-50-136 3-221 69-221 201 0 166 169 187 295 236 153 60 300 130 295 341-6 260-155 414-419 414-174 0-309-76-395-172 24-34 40-77 71-104 55-23 84 36 125 60 52 30 115 67 203 65" id="aP"/><g id="A"><use transform="matrix(0.010849609375,0,0,0.010849609375,0,0)" xlink:href="#ad"/><use transform="matrix(0.010849609375,0,0,0.010849609375,11.674179687499999,0)" xlink:href="#at"/><use transform="matrix(0.010849609375,0,0,0.010849609375,21.06994140625,0)" xlink:href="#Z"/><use transform="matrix(0.010849609375,0,0,0.010849609375,28.512773437499998,0)" xlink:href="#R"/><use transform="matrix(0.010849609375,0,0,0.010849609375,34.458359375,0)" xlink:href="#aP"/><use transform="matrix(0.010849609375,0,0,0.010849609375,44.667841796874995,0)" xlink:href="#Z"/><use transform="matrix(0.010849609375,0,0,0.010849609375,51.839433593749995,0)" xlink:href="#T"/><use transform="matrix(0.010849609375,0,0,0.010849609375,62.482900390625005,0)" xlink:href="#Y"/><use transform="matrix(0.010849609375,0,0,0.010849609375,74.157080078125,0)" xlink:href="#ad"/><use transform="matrix(0.010849609375,0,0,0.010849609375,85.831259765625,0)" xlink:href="#T"/><use transform="matrix(0.010849609375,0,0,0.010849609375,96.47472656250001,0)" xlink:href="#ac"/><use transform="matrix(0.010849609375,0,0,0.010849609375,103.91755859375,0)" xlink:href="#ad"/></g><linearGradient gradientUnits="userSpaceOnUse" id="B" x1="1011.57" y1="386.61" x2="1011.57" y2="504.72"><stop offset="0%" stop-color="#fff"/><stop offset="20%" stop-color="#fff"/><stop offset="100%" stop-color="#dbdbdb"/></linearGradient><g id="C"><use transform="matrix(0.010849609375,0,0,0.010849609375,0,0)" xlink:href="#aP"/><use transform="matrix(0.010849609375,0,0,0.010849609375,10.209482421875,0)" xlink:href="#ai"/><use transform="matrix(0.010849609375,0,0,0.010849609375,21.883662109375,0)" xlink:href="#W"/><use transform="matrix(0.010849609375,0,0,0.010849609375,32.9394140625,0)" xlink:href="#at"/><use transform="matrix(0.010849609375,0,0,0.010849609375,42.33517578125,0)" xlink:href="#am"/><use transform="matrix(0.010849609375,0,0,0.010849609375,47.4344921875,0)" xlink:href="#ae"/><use transform="matrix(0.010849609375,0,0,0.010849609375,53.727265624999994,0)" xlink:href="#at"/><use transform="matrix(0.010849609375,0,0,0.010849609375,62.93858398437499,0)" xlink:href="#T"/><use transform="matrix(0.010849609375,0,0,0.010849609375,73.37590820312501,0)" xlink:href="#Z"/><use transform="matrix(0.010849609375,0,0,0.010849609375,80.81874023437501,0)" xlink:href="#am"/><use transform="matrix(0.010849609375,0,0,0.010849609375,85.91805664062501,0)" xlink:href="#O"/><use transform="matrix(0.010849609375,0,0,0.010849609375,97.63563476562501,0)" xlink:href="#Y"/></g><g id="D"><use transform="matrix(0.04938271604938272,0,0,0.04938271604938272,0,0)" xlink:href="#aM"/><use transform="matrix(0.04938271604938272,0,0,0.04938271604938272,9.876543209876544,0)" xlink:href="#aL"/><use transform="matrix(0.04938271604938272,0,0,0.04938271604938272,19.75308641975309,0)" xlink:href="#aJ"/></g><path d="M24 0v-261h32V0H24" id="aQ"/><g id="E"><use transform="matrix(0.04938271604938272,0,0,0.04938271604938272,0,0)" xlink:href="#aH"/><use transform="matrix(0.04938271604938272,0,0,0.04938271604938272,5.8765432098765435,0)" xlink:href="#aE"/><use transform="matrix(0.04938271604938272,0,0,0.04938271604938272,15.753086419753087,0)" xlink:href="#aQ"/><use transform="matrix(0.04938271604938272,0,0,0.04938271604938272,19.654320987654323,0)" xlink:href="#aN"/></g><linearGradient gradientUnits="userSpaceOnUse" id="F" x1="9.13" y1="336.26" x2="9.13" y2="454.37"><stop offset="0%" stop-color="#fff"/><stop offset="12.18%" stop-color="#fff"/><stop offset="100%" stop-color="#dbdbdb"/></linearGradient><g id="G"><use transform="matrix(0.010849609375,0,0,0.010849609375,0,0)" xlink:href="#O"/><use transform="matrix(0.010849609375,0,0,0.010849609375,11.63078125,0)" xlink:href="#P"/><use transform="matrix(0.010849609375,0,0,0.010849609375,27.514609375,0)" xlink:href="#Q"/><use transform="matrix(0.010849609375,0,0,0.010849609375,32.613925781249996,0)" xlink:href="#R"/></g><path d="M304-1012c2 28 4 55 4 84V0H148v-1314c60 5 126-11 157 31l714 983c-2-29-5-61-5-91v-923h160V0c-61-3-126 10-156-32" id="aR"/><path d="M349 0H167v-1314h182V0" id="aS"/><g id="H"><use transform="matrix(0.010849609375,0,0,0.010849609375,0,0)" xlink:href="#aR"/><use transform="matrix(0.010849609375,0,0,0.010849609375,14.34318359375,0)" xlink:href="#T"/><use transform="matrix(0.010849609375,0,0,0.010849609375,24.986650390625005,0)" xlink:href="#X"/><use transform="matrix(0.010849609375,0,0,0.010849609375,42.736611328125,0)" xlink:href="#W"/><use transform="matrix(0.010849609375,0,0,0.010849609375,53.792363281250005,0)" xlink:href="#ad"/><use transform="matrix(0.010849609375,0,0,0.010849609375,65.46654296875,0)" xlink:href="#aS"/><use transform="matrix(0.010849609375,0,0,0.010849609375,71.06494140625,0)" xlink:href="#Y"/><use transform="matrix(0.010849609375,0,0,0.010849609375,82.73912109375,0)" xlink:href="#ad"/><use transform="matrix(0.010849609375,0,0,0.010849609375,94.41330078125,0)" xlink:href="#am"/><use transform="matrix(0.010849609375,0,0,0.010849609375,99.5126171875,0)" xlink:href="#az"/><use transform="matrix(0.010849609375,0,0,0.010849609375,109.548505859375,0)" xlink:href="#am"/><use transform="matrix(0.010849609375,0,0,0.010849609375,114.647822265625,0)" xlink:href="#ad"/><use transform="matrix(0.010849609375,0,0,0.010849609375,126.322001953125,0)" xlink:href="#af"/><use transform="matrix(0.010849609375,0,0,0.010849609375,137.996181640625,0)" xlink:href="#T"/><use transform="matrix(0.010849609375,0,0,0.010849609375,148.6396484375,0)" xlink:href="#Q"/></g><path d="M1026-375C1026-119 851 0 588 0H144v-1314h401c262 1 440 88 440 343 0 167-103 249-235 295 165 32 276 118 276 301zm-181-4c0-148-98-219-260-219H326v454h259c164-1 260-74 260-235zm-41-570c0-163-89-221-259-222H326v445h212c160-3 266-67 266-223" id="aT"/><path d="M304-1422v836c44 0 73 1 95-27l260-331c33-56 146-27 227-34L579-593c-18 19-36 36-58 50 24 15 42 36 58 59L906 0c-79-8-188 23-224-33L415-434c-19-25-25-32-66-33h-45V0H128v-1422h176" id="aU"/><g id="I"><use transform="matrix(0.010849609375,0,0,0.010849609375,0,0)" xlink:href="#aT"/><use transform="matrix(0.010849609375,0,0,0.010849609375,12.086464843749999,0)" xlink:href="#Q"/><use transform="matrix(0.010849609375,0,0,0.010849609375,17.185781249999998,0)" xlink:href="#T"/><use transform="matrix(0.010849609375,0,0,0.010849609375,27.829248046874998,0)" xlink:href="#Y"/><use transform="matrix(0.010849609375,0,0,0.010849609375,39.503427734374995,0)" xlink:href="#aU"/></g><g id="J"><use transform="matrix(0.010849609375,0,0,0.010849609375,0,0)" xlink:href="#aR"/><use transform="matrix(0.010849609375,0,0,0.010849609375,14.34318359375,0)" xlink:href="#O"/><use transform="matrix(0.010849609375,0,0,0.010849609375,26.060761718750005,0)" xlink:href="#ad"/><use transform="matrix(0.010849609375,0,0,0.010849609375,37.73494140625,0)" xlink:href="#W"/></g><g id="K"><use transform="matrix(0.010849609375,0,0,0.010849609375,0,0)" xlink:href="#ak"/><use transform="matrix(0.010849609375,0,0,0.010849609375,11.674179687499999,0)" xlink:href="#W"/><use transform="matrix(0.010849609375,0,0,0.010849609375,22.729931640624997,0)" xlink:href="#U"/><use transform="matrix(0.010849609375,0,0,0.010849609375,31.420468749999998,0)" xlink:href="#O"/><use transform="matrix(0.010849609375,0,0,0.010849609375,43.138046875,0)" xlink:href="#af"/><use transform="matrix(0.010849609375,0,0,0.010849609375,54.812226562499994,0)" xlink:href="#ac"/><use transform="matrix(0.010849609375,0,0,0.010849609375,62.233359375,0)" xlink:href="#at"/><use transform="matrix(0.010849609375,0,0,0.010849609375,71.62912109375,0)" xlink:href="#W"/></g><g id="L"><use transform="matrix(0.010849609375,0,0,0.010849609375,0,0)" xlink:href="#au"/><use transform="matrix(0.010849609375,0,0,0.010849609375,13.670507812499999,0)" xlink:href="#W"/><use transform="matrix(0.010849609375,0,0,0.010849609375,24.726259765625,0)" xlink:href="#U"/><use transform="matrix(0.010849609375,0,0,0.010849609375,33.416796874999996,0)" xlink:href="#at"/><use transform="matrix(0.010849609375,0,0,0.010849609375,42.81255859375,0)" xlink:href="#ac"/><use transform="matrix(0.010849609375,0,0,0.010849609375,50.5591796875,0)" xlink:href="#am"/><use transform="matrix(0.010849609375,0,0,0.010849609375,55.658496093749996,0)" xlink:href="#ai"/><use transform="matrix(0.010849609375,0,0,0.010849609375,67.235029296875,0)" xlink:href="#Z"/><use transform="matrix(0.010849609375,0,0,0.010849609375,74.46086914062501,0)" xlink:href="#O"/><use transform="matrix(0.010849609375,0,0,0.010849609375,86.17844726562501,0)" xlink:href="#ac"/></g><g id="M"><use transform="matrix(0.05,0,0,0.05,0,0)" xlink:href="#aM"/><use transform="matrix(0.05,0,0,0.05,10,0)" xlink:href="#aL"/><use transform="matrix(0.05,0,0,0.05,20,0)" xlink:href="#aJ"/></g><g id="N"><use transform="matrix(0.05,0,0,0.05,0,0)" xlink:href="#aH"/><use transform="matrix(0.05,0,0,0.05,5.95,0)" xlink:href="#aN"/><use transform="matrix(0.05,0,0,0.05,15.949999999999998,0)" xlink:href="#aJ"/><use transform="matrix(0.05,0,0,0.05,24.95,0)" xlink:href="#aE"/><use transform="matrix(0.05,0,0,0.05,34.95,0)" xlink:href="#aO"/><use transform="matrix(0.05,0,0,0.05,44.95,0)" xlink:href="#aH"/><use transform="matrix(0.05,0,0,0.05,50.900000000000006,0)" xlink:href="#aB"/><use transform="matrix(0.05,0,0,0.05,59.900000000000006,0)" xlink:href="#aN"/></g></defs></g></svg>