<svg xmlns="http://www.w3.org/2000/svg" xmlns:xlink="http://www.w3.org/1999/xlink" xmlns:lucid="lucid" width="1478.67" height="847"><g transform="translate(0 0)" lucid:page-tab-id="FPPdakJgml8PM"><path d="M0 0h1478.67v847H0z" fill="#fff"/><path d="M2088.46-285.9h36912.4V1689.4H2088.46z" stroke="#000" stroke-opacity="0" stroke-width="1.67" fill-opacity="0"/><use xlink:href="#a" transform="matrix(1,0,0,1,19.651796000000008,2.597800000000001) translate(20.369213867187497 20.1675)"/><use xlink:href="#b" transform="matrix(1,0,0,1,19.651796000000008,2.597800000000001) translate(116.0843017578125 20.1675)"/><path d="M667.24 192.13h-153.7c-10.57 0-19.2 8.63-19.2 19.26V291c0 10.62 8.63 19.24 19.2 19.24h153.7c10.57 0 19.2-8.62 19.2-19.25v-79.6c0-10.64-8.63-19.27-19.2-19.27z" stroke="#000" stroke-width="1.67" fill="url(#c)"/><use xlink:href="#d" transform="matrix(1,0,0,1,503.1631293333642,200.99224998066524) translate(49.0652587890625 56.055)"/><path d="M667.24 12.6h-153.7c-10.57 0-19.2 8.63-19.2 19.26v79.6c0 10.63 8.63 19.26 19.2 19.26h153.7c10.57 0 19.2-8.63 19.2-19.26v-79.6c0-10.63-8.63-19.25-19.2-19.25z" stroke="#000" stroke-width="1.11" fill="url(#e)"/><use xlink:href="#f" transform="matrix(1,0,0,1,503.1631293333653,21.464249980664672) translate(63.7664794921875 56.055)"/><path d="M951.43 12.6h-153.7c-10.56 0-19.2 8.63-19.2 19.26v79.6c0 10.63 8.64 19.26 19.2 19.26h153.7c10.57 0 19.22-8.63 19.22-19.26v-79.6c0-10.63-8.65-19.25-19.22-19.25z" stroke="#000" stroke-width="1.11" fill="#fff"/><use xlink:href="#g" transform="matrix(1,0,0,1,787.3577960000314,21.464249980663656) translate(29.704130859375 56.055)"/><path d="M687 71.66h90.5" fill="none"/><path d="M687 71.66h6.04m6.03 0h12.07m6.03 0h12.07m6.04 0h12.06m6.04 0h12.06m6.04 0h6.03" stroke="#000" stroke-width="1.11" fill="none"/><path d="M687.02 72.22v-1.1zM777.97 71.33V72L760.5 82.3l-.57-.96 16.4-9.7-16.4-9.7.57-.96zM590.94 191.58h-1.1v-19.04h1.1zm0-41.26h-1.1v-18.6h1.1z"/><path/><path d="M601.05 148.74l-.96.56-9.7-16.4-9.7 16.4-.97-.56 10.33-17.47h.66z"/><use xlink:href="#h" transform="matrix(1,0,0,1,539.81287923212,150.3155) translate(0.005000000000002558 16.665)"/><use xlink:href="#i" transform="matrix(1,0,0,1,539.81287923212,150.3155) translate(18.81822265625 16.665)"/><use xlink:href="#j" transform="matrix(1,0,0,1,539.81287923212,150.3155) translate(82.65732421875 16.665)"/><path d="M667.24 388.6h-153.7c-10.57 0-19.2 8.62-19.2 19.25v79.6c0 10.64 8.63 19.26 19.2 19.26h153.7c10.57 0 19.2-8.6 19.2-19.24v-79.6c0-10.64-8.63-19.26-19.2-19.26z" stroke="#000" stroke-width="1.67" fill="url(#k)"/><use xlink:href="#l" transform="matrix(1,0,0,1,503.16312933336536,397.4602499806655) translate(46.1575634765625 42.723)"/><use xlink:href="#m" transform="matrix(1,0,0,1,503.16312933336536,397.4602499806655) translate(32.394833984375 69.387)"/><use xlink:href="#n" transform="matrix(1,0,0,1,503.16312933336536,397.4602499806655) translate(131.343271484375 69.387)"/><path d="M1220.24 388.6h-153.7c-10.57 0-19.22 8.62-19.22 19.25v79.6c0 10.64 8.65 19.26 19.22 19.26h153.7c10.56 0 19.2-8.6 19.2-19.24v-79.6c0-10.64-8.64-19.26-19.2-19.26z" stroke="#000" stroke-width="1.67" fill="url(#o)"/><use xlink:href="#l" transform="matrix(1,0,0,1,1056.1607960000342,397.4602499806656) translate(46.1575634765625 42.723)"/><use xlink:href="#m" transform="matrix(1,0,0,1,1056.1607960000342,397.4602499806656) translate(32.394833984375 69.387)"/><use xlink:href="#p" transform="matrix(1,0,0,1,1056.1607960000342,397.4602499806656) translate(131.343271484375 69.387)"/><path d="M590.94 387.6h-1.1v-27.07h1.1zm0-49.3h-1.1v-27.5h1.1z"/><path/><path d="M601.05 370.58l-10.17 17.2h-1l-10.15-17.2.96-.57 9.7 16.42 9.7-16.4z"/><use xlink:href="#q" transform="matrix(1,0,0,1,533.140369466495,338.313) translate(0.005000000000002558 16.665)"/><use xlink:href="#r" transform="matrix(1,0,0,1,533.140369466495,338.313) translate(36.036552734375 16.665)"/><path d="M1046.5 420.78l-.3 1.08-407.4-110.93.3-1.08z"/><path/><path d="M1047.32 421.6l-20.2 5.53-.28-1.07 18.38-5.05-13.28-13.66.8-.77z"/><use xlink:href="#q" transform="matrix(1,0,0,1,851.6835981021952,349.46897465070526) translate(0.005000000000002558 16.665)"/><use xlink:href="#r" transform="matrix(1,0,0,1,851.6835981021952,349.46897465070526) translate(36.036552734375 16.665)"/><path d="M404.25 519.85h-153.7c-10.57 0-19.22 8.62-19.22 19.25v79.6c0 10.64 8.65 19.26 19.22 19.26h153.7c10.56 0 19.2-8.62 19.2-19.25v-79.6c0-10.63-8.64-19.25-19.2-19.25z" stroke="#000" stroke-width="1.67" fill="url(#s)"/><use xlink:href="#t" transform="matrix(1,0,0,1,240.17112933336543,528.7082499806634) translate(44.882734375000005 56.055)"/><path d="M909.76 519.85h-153.7c-10.57 0-19.2 8.62-19.2 19.25v79.6c0 10.64 8.63 19.26 19.2 19.26h153.7c10.57 0 19.2-8.62 19.2-19.25v-79.6c0-10.63-8.63-19.25-19.2-19.25z" stroke="#000" stroke-width="1.67" fill="url(#u)"/><use xlink:href="#v" transform="matrix(1,0,0,1,745.683129333362,528.708249980664) translate(36.6207568359375 56.055)"/><path d="M1440.7 708.2H1287c-10.56 0-19.2 8.62-19.2 19.25v79.6c0 10.63 8.64 19.26 19.2 19.26h153.7c10.58 0 19.22-8.62 19.22-19.24v-79.6c0-10.64-8.64-19.26-19.2-19.26z" stroke="#000" stroke-width="1.11" fill="url(#w)"/><use xlink:href="#x" transform="matrix(1,0,0,1,1276.6337960000342,717.0552499806703) translate(58.53154296875 56.055)"/><path d="M1220.24 708.2h-153.7c-10.57 0-19.22 8.62-19.22 19.25v79.6c0 10.63 8.65 19.26 19.22 19.26h153.7c10.56 0 19.2-8.62 19.2-19.24v-79.6c0-10.64-8.64-19.26-19.2-19.26z" stroke="#000" stroke-width="1.11" fill="url(#y)"/><use xlink:href="#z" transform="matrix(1,0,0,1,1056.1607960000315,717.0552499806619) translate(34.043974609375006 56.055)"/><use xlink:href="#A" transform="matrix(1,0,0,1,1056.1607960000315,717.0552499806619) translate(75.01209960937501 56.055)"/><path d="M541.8 506.76l-165.37 13" stroke="#000" stroke-width="1.11" fill="none"/><path/><path d="M392.88 508.26l-16.36 11.5 17.96 8.8" stroke="#000" stroke-width="1.11" fill="none"/><use xlink:href="#q" transform="matrix(1,0,0,1,415.23993143196026,487.30558594180263) translate(0.005000000000002558 16.665)"/><use xlink:href="#B" transform="matrix(1,0,0,1,415.23993143196026,487.30558594180263) translate(36.036552734375 16.665)"/><path d="M608.96 707.14l-1.1.1-4.72-52.4h1.12zm-6.7-74.53h-1.1l-11.27-125.3 1.1-.08z"/><path/><path d="M617.5 689.3l-8.74 18.34h-.66l-11.83-16.44.9-.65 11.13 15.48 8.2-17.2z"/><use xlink:href="#C" transform="matrix(1,0,0,1,571.9987388024325,632.6118) translate(0.004999999999999005 16.665)"/><path d="M1094.8 506.75L881.95 519.8" stroke="#000" stroke-width="1.11" fill="none"/><path/><path d="M898.6 508.57l-16.57 11.2 17.8 9.12" stroke="#000" stroke-width="1.11" fill="none"/><use xlink:href="#q" transform="matrix(1,0,0,1,947.0385021883646,487.1608752478275) translate(0.005000000000002558 16.665)"/><use xlink:href="#B" transform="matrix(1,0,0,1,947.0385021883646,487.1608752478275) translate(36.036552734375 16.665)"/><path d="M1096.13 707.34l-1.08-.25L1108 652.8h1.13zm47.67-199.96l-29.38 123.22h-1.14l29.44-123.48z"/><path/><path d="M1095.86 706.08l13.24-13.7.8.76-14 14.5h-.72l-6-19.45 1.05-.33z"/><use xlink:href="#C" transform="matrix(1,0,0,1,1080.5008354690992,630.59695) translate(0.004999999999999005 16.665)"/><path d="M1315.77 707.05l-.95.58-35.08-56.83h1.3zm-48.45-78.47h-1.3l-74.78-121.1.94-.6z"/><path/><path d="M1315.82 707.64h-1.05l-17.48-9.18.5-.98 16.88 8.86-.36-19.06 1.1-.02z"/><use xlink:href="#D" transform="matrix(1,0,0,1,1219.1985210550367,628.5821) translate(0.005000000000002558 16.665)"/><use xlink:href="#E" transform="matrix(1,0,0,1,1219.1985210550367,628.5821) translate(89.72041992187499 16.665)"/><path d="M951.43 192.13h-153.7c-10.56 0-19.2 8.63-19.2 19.26V291c0 10.62 8.64 19.24 19.2 19.24h153.7c10.57 0 19.22-8.62 19.22-19.25v-79.6c0-10.64-8.65-19.27-19.22-19.27z" stroke="#000" stroke-width="1.11" fill="#a5a5a5"/><use xlink:href="#F" transform="matrix(1,0,0,1,787.3577960000299,200.99224998066552) translate(58.189780273437506 56.055)"/><path d="M687 251.2h90.5" fill="none"/><path d="M687 251.2h6.04m6.03 0h12.07m6.03 0h12.07m6.04 0h12.06m6.04 0h12.06m6.04 0h6.03" stroke="#000" stroke-width="1.11" fill="none"/><path/><path d="M777.97 250.86v.66l-17.47 10.33-.57-.96 16.4-9.7-16.4-9.7.57-.97z"/><path d="M733.38 708.2h-153.7c-10.57 0-19.2 8.62-19.2 19.25v79.6c0 10.63 8.63 19.26 19.2 19.26h153.7c10.57 0 19.2-8.62 19.2-19.24v-79.6c0-10.64-8.63-19.26-19.2-19.26z" stroke="#000" stroke-width="1.11" fill="url(#G)"/><use xlink:href="#H" transform="matrix(1,0,0,1,569.3051293333672,717.0552499806621) translate(69.8205615234375 56.055)"/><path d="M484.56 708.2h-153.7c-10.57 0-19.2 8.62-19.2 19.25v79.6c0 10.63 8.63 19.26 19.2 19.26h153.7c10.57 0 19.2-8.62 19.2-19.24v-79.6c0-10.64-8.63-19.26-19.2-19.26z" stroke="#000" stroke-width="1.11" fill="url(#I)"/><use xlink:href="#J" transform="matrix(1,0,0,1,320.486129333367,717.0552499806641) translate(16.646625976562518 56.055)"/><path d="M439.2 707.56l-1-.5 46.77-90.5h1.25zm103.4-200.1l-44.9 86.87h-1.25l45.16-87.38z"/><path/><path d="M439.23 706.26l16.16-10.12.57.94-16.85 10.56h-.92l-1.16-20.35 1.1-.07z"/><use xlink:href="#q" transform="matrix(1,0,0,1,440.9391577868075,594.32965) translate(0.005000000000002558 16.665)"/><use xlink:href="#K" transform="matrix(1,0,0,1,440.9391577868075,594.32965) translate(36.036552734375 16.665)"/><path d="M999.76 708.2h-153.7c-10.56 0-19.2 8.62-19.2 19.25v79.6c0 10.63 8.64 19.26 19.2 19.26h153.7c10.57 0 19.22-8.62 19.22-19.24v-79.6c0-10.64-8.65-19.26-19.22-19.26z" stroke="#000" stroke-width="1.11" fill="url(#L)"/><use xlink:href="#M" transform="matrix(1,0,0,1,835.6887960000283,717.0552499806579) translate(15.12768066406251 56.055)"/><path d="M924 707.8l-.85-.73 79.2-92.54h1.46zm171.42-200.3l-72.6 84.8h-1.46l73.2-85.53z"/><path/><path d="M927.63 687.77l-3.3 18.77 18.04-6.16.36 1.05-18.2 6.2h-1.52l3.53-20.06z"/><use xlink:href="#q" transform="matrix(1,0,0,1,962.1868844534742,592.3148) translate(0.005000000000002558 16.665)"/><use xlink:href="#K" transform="matrix(1,0,0,1,962.1868844534742,592.3148) translate(36.036552734375 16.665)"/><path d="M1364.4 707.64h-1.1v-5.57h1.1zm0-11.15h-1.1v-11.15h1.1zm0-16.73h-1.1v-11.15h1.1zm0-16.72h-1.1V651.9h1.1zm0-16.72h-1.1v-11.15h1.1zm0-16.72h-1.1v-11.14h1.1zm0-16.7h-1.1v-11.16h1.1zm0-16.74h-1.1v-11.14h1.1zm0-16.72h-1.1V568.3h1.1zm0-16.72h-1.1v-11.15h1.1zm0-16.72h-1.1v-11.15h1.1zm0-16.72h-1.1v-11.15h1.1zm0-16.72h-1.1V501.4h1.1zm0-16.73h-1.1V484.7h1.1zm0-16.72h-1.1v-11.13h1.1zm0-16.7h-1.1v-11.16h1.1zm0-16.73h-1.1v-11.15h1.1zm0-16.72h-1.1V417.8h1.1zm0-16.72h-1.1v-11.15h1.1zm0-16.73h-1.1v-11.14h1.1zm0-16.72h-1.1v-11.14h1.1zm0-16.72h-1.1V350.9h1.1zm0-16.72h-1.1V334.2h1.1zm0-16.72h-1.1v-11.15h1.1zm0-16.72h-1.1v-11.15h1.1zm0-16.72h-1.1v-11.15h1.1zm0-16.73h-1.1V267.3h1.1zm0-16.72h-1.1v-11.15h1.1zm0-16.72h-1.1v-11.14h1.1zm0-16.7h-1.1v-11.16h1.1zm0-16.73h-1.1v-11.15h1.1zm0-16.72h-1.1V183.7h1.1zm0-16.73h-1.1v-11.14h1.1zm0-16.72h-1.1v-11.14h1.1zm0-16.72h-1.1v-11.15h1.1zm0-16.72h-1.1V116.8h1.1zm0-16.72h-1.1V100.1h1.1zm0-16.72h-1.1V83.37h1.1zm-.28-23.12l.3.7v5.7h-1.12v-5.47l-.03-.08-.08-.03h-5.34v-1.1h5.55zm-11.7.82h-10.88v-1.1h10.88zm-16.32 0h-10.88v-1.1h10.88zm-16.32 0h-10.88v-1.1h10.88zm-16.32 0h-10.87v-1.1h10.86zm-16.3 0h-10.9v-1.1h10.9zm-16.33 0h-10.88v-1.1h10.88zm-16.32 0h-10.87v-1.1h10.88zm-16.3 0h-10.9v-1.1h10.9zm-16.33 0H1211v-1.1h10.87zm-16.32 0h-10.88v-1.1h10.88zm-16.3 0h-10.9v-1.1h10.9zm-16.33 0h-10.88v-1.1h10.88zm-16.32 0h-10.88v-1.1h10.88zm-16.32 0h-10.88v-1.1h10.88zm-16.32 0h-10.88v-1.1h10.88zm-16.32 0h-10.88v-1.1h10.88zm-16.32 0h-10.87v-1.1h10.87zm-16.3 0h-10.9v-1.1h10.9zm-16.33 0h-10.9v-1.1h10.9zm-16.33 0h-10.88v-1.1h10.87zm-16.32 0h-10.88v-1.1h10.88zm-16.32 0h-10.88v-1.1h10.88zm-16.32 0h-10.86v-1.1h10.87zm-16.3 0h-5.44v-1.1h5.44zM1364.4 707.64h-1.1 1.1z"/><path d="M989.23 61.96l-16.4 9.7 16.4 9.7-.56.96L971.2 72v-.67L988.67 61z"/><path d="M182.05 55.4H28.35C17.78 55.4 9.13 64 9.13 74.63v79.6c0 10.63 8.65 19.26 19.22 19.26h153.7c10.56 0 19.2-8.63 19.2-19.26v-79.6c0-10.63-8.64-19.25-19.2-19.25z" stroke="#000" stroke-width="1.11" fill="#fff"/><use xlink:href="#N" transform="matrix(1,0,0,1,17.971795999681873,64.2442500015697) translate(17.44407226562501 56.055)"/><use xlink:href="#O" transform="matrix(1,0,0,1,17.971795999681873,64.2442500015697) translate(112.58429687499999 56.055)"/><path d="M38.1 621.3v-71M38.1 621.3v.56" stroke="#000" stroke-width="1.11" fill="none"/><path d="M38.1 535.47l4.65 14.26h-9.28z" stroke="#000" stroke-width="1.11" fill="#fff"/><path d="M38.1 728.4v-86.63" fill="none"/><path d="M38.1 728.4v-5.78m0-5.78V705.3m0-5.78v-11.55m0-5.78v-11.56m0-5.77v-11.55m0-5.78v-5.77M38.1 728.38v.57M48.3 659.06l-10.2-17.2-10.17 17.2" stroke="#000" stroke-width="1.11" fill="none"/><path d="M182.05 196.68H28.35c-10.57 0-19.22 8.62-19.22 19.25v79.6c0 10.64 8.65 19.26 19.22 19.26h153.7c10.56 0 19.2-8.63 19.2-19.26v-79.6c0-10.64-8.64-19.26-19.2-19.26z" stroke="#000" stroke-width="1.11" fill="#a5a5a5"/><g><use xlink:href="#P" transform="matrix(1,0,0,1,17.971795999681266,205.5392500015699) translate(38.3783935546875 56.055)"/><use xlink:href="#O" transform="matrix(1,0,0,1,17.971795999681266,205.5392500015699) translate(91.64997558593751 56.055)"/></g><path d="M182.05 405.6H28.35c-10.57 0-19.22 8.63-19.22 19.26v79.6c0 10.63 8.65 19.26 19.22 19.26h153.7c10.56 0 19.2-8.63 19.2-19.26v-79.6c0-10.63-8.64-19.26-19.2-19.26z" stroke="#000" stroke-width="1.11" fill="url(#Q)"/><g><use xlink:href="#R" transform="matrix(1,0,0,1,17.971795999681838,414.46324998063994) translate(68.220244140625 42.723)"/><use xlink:href="#S" transform="matrix(1,0,0,1,17.971795999681838,414.46324998063994) translate(10.630517578124994 69.387)"/></g><path d="M38.1 829.18v-86.63M38.1 829.16v.57M48.3 759.85l-10.2-17.22-10.17 17.22" stroke="#000" stroke-width="1.11" fill="none"/><path d="M11.37 337.98c-.3 0-.56.25-.56.56v43.32c0 .3.26.56.57.56h191c.32 0 .57-.25.57-.56v-43.32c0-.3-.25-.56-.56-.56z" stroke="#000" stroke-width="1.11" fill="#fff"/><g><use xlink:href="#T" transform="matrix(1,0,0,1,19.65179600000002,346.8648000000001) translate(26.41669921875001 19.055)"/><use xlink:href="#U" transform="matrix(1,0,0,1,19.65179600000002,346.8648000000001) translate(66.636201171875 19.055)"/></g><path d="M7986.54 30814.63h27865.3v1975.27H7986.53z" stroke="#000" stroke-opacity="0" stroke-width="1.67" fill-opacity="0"/><g><use xlink:href="#V" transform="matrix(1,0,0,1,56.40623700000001,574.0447845715355) translate(0 19.055)"/></g><path d="M8515.5 35681.1h27865.3v1975.26H8515.5z" stroke="#000" stroke-opacity="0" stroke-width="1.67" fill-opacity="0"/><g><use xlink:href="#W" transform="matrix(1,0,0,1,59.55623699999999,681.1317845715355) translate(0 19.055)"/></g><path d="M8515.5 40261.26h27865.3v1975.27H8515.5z" stroke="#000" stroke-opacity="0" stroke-width="1.67" fill-opacity="0"/><g><use xlink:href="#X" transform="matrix(1,0,0,1,59.55623699999999,781.9187845715355) translate(0 19.055)"/></g><defs><path d="M913-1314v148H328v431h471v143H328v444h586L913 0H145v-1314h768" id="Y"/><path d="M323-1422V0H147v-1422h176" id="Z"/><path d="M544 14C232 14 75-190 75-509c0-226 105-376 267-447 57-25 122-37 193-37 265 0 410 167 410 437 0 47-2 68-42 68H249c7 217 94 359 310 364 110 2 183-39 248-80 70-44 93 39 123 67C847-42 716 14 544 14zm243-610c-5-164-86-266-249-269-173-3-262 113-284 269h533" id="aa"/><path d="M545-854c-104 0-170 61-222 126V0H147v-978c54 8 140-23 149 36l15 100c68-77 143-150 284-151 143-1 221 88 255 203 52-123 153-201 320-203 220-2 335 143 335 370V0h-176v-623c1-143-65-231-201-231-139 0-216 89-216 231V0H736v-623c1-145-55-231-191-231" id="ab"/><path d="M575-854c-119 2-197 63-259 134V0H140v-978c55 7 141-23 150 36l15 104c78-83 170-155 321-155 223 0 325 146 325 370V0H775v-623c0-140-61-233-200-231" id="ac"/><path d="M650-73c-53 51-136 87-233 88-153 0-235-95-235-251v-596c-55-8-148 24-148-39v-70l154-20 41-301c4-50 80-28 129-33v335h269v128H358v584c-2 72 34 118 99 120 56 2 78-32 116-46 15 0 19 7 25 17" id="ad"/><g id="a"><use transform="matrix(0.0130224609375,0,0,0.0130224609375,0,0)" xlink:href="#Y"/><use transform="matrix(0.0130224609375,0,0,0.0130224609375,13.0224609375,0)" xlink:href="#Z"/><use transform="matrix(0.0130224609375,0,0,0.0130224609375,19.143017578125,0)" xlink:href="#aa"/><use transform="matrix(0.0130224609375,0,0,0.0130224609375,32.4129052734375,0)" xlink:href="#ab"/><use transform="matrix(0.0130224609375,0,0,0.0130224609375,53.7176513671875,0)" xlink:href="#aa"/><use transform="matrix(0.0130224609375,0,0,0.0130224609375,66.9875390625,0)" xlink:href="#ac"/><use transform="matrix(0.0130224609375,0,0,0.0130224609375,80.7522802734375,0)" xlink:href="#ad"/><path d="M-1.33.08h98.38V2.6H-1.33z"/></g><path d="M306-740c60 2 107 0 133-38l339-494c22-28 41-41 86-42h156L620-750c-21 29-44 49-67 61 31 11 60 31 83 65L1049 0c-85-7-198 21-238-38L463-558c-23-30-38-42-90-42h-67V0H124v-1314h182v574" id="ae"/><path d="M409 288c-14 65-120 35-192 42L385-58 11-978h152c30-1 46 16 53 36 86 232 175 459 256 696 80-235 169-463 250-696 20-58 122-29 191-36" id="af"/><g id="b"><use transform="matrix(0.0130224609375,0,0,0.0130224609375,0,0)" xlink:href="#ae"/><use transform="matrix(0.0130224609375,0,0,0.0130224609375,13.3740673828125,0)" xlink:href="#aa"/><use transform="matrix(0.0130224609375,0,0,0.0130224609375,26.4746630859375,0)" xlink:href="#af"/><path d="M-1.33.08h41.2V2.6h-41.2z"/></g><linearGradient gradientUnits="userSpaceOnUse" id="c" x1="494.33" y1="192.13" x2="494.33" y2="310.24"><stop offset="0%" stop-color="#fff"/><stop offset="20%" stop-color="#fff"/><stop offset="100%" stop-color="#dbdbdb"/></linearGradient><path d="M1148-926c58 156 58 382 0 538C1064-162 892 0 593 0H139v-1314h454c298 6 472 162 555 388zM976-442c38-121 39-309 0-430-55-171-167-295-383-295H322v1020c157-7 329 19 441-35 105-50 176-139 213-260" id="ag"/><path d="M1052-184C961-66 832 17 628 14c-289-4-447-172-522-398-53-160-53-388 3-546 81-226 241-394 534-399 180-3 301 72 392 167-25 33-46 70-75 99-51 21-73-33-114-51-77-60-256-80-362-23-152 81-231 248-231 480 0 233 83 400 235 481 113 60 301 37 376-30 33-15 74-101 116-56" id="ah"/><path d="M1178 0c-74-7-179 24-202-42L864-358H322L211-43C194 22 84-6 8 0l493-1314h185zM368-488h450c-69-195-137-390-206-585-7-21-13-44-19-69-68 226-151 434-225 654" id="ai"/><path d="M974-1314v152H591V0H408v-1162H24v-152h950" id="aj"/><path d="M75-653h478v149H75v-149" id="ak"/><path d="M994-906c0 279-183 411-470 416H329V0H147v-1314h377c290 3 470 124 470 408zm-182 0c0-176-103-265-288-265H329v537h195c180-4 288-94 288-272" id="al"/><g id="d"><use transform="matrix(0.010849609375,0,0,0.010849609375,0,0)" xlink:href="#ag"/><use transform="matrix(0.010849609375,0,0,0.010849609375,13.670507812499999,0)" xlink:href="#ah"/><use transform="matrix(0.010849609375,0,0,0.010849609375,25.518281249999998,0)" xlink:href="#ai"/><use transform="matrix(0.010849609375,0,0,0.010849609375,36.639130859375,0)" xlink:href="#aj"/><use transform="matrix(0.010849609375,0,0,0.010849609375,45.731103515624994,0)" xlink:href="#ak"/><use transform="matrix(0.010849609375,0,0,0.010849609375,52.53380859375001,0)" xlink:href="#ai"/><use transform="matrix(0.010849609375,0,0,0.010849609375,65.390595703125,0)" xlink:href="#al"/></g><linearGradient gradientUnits="userSpaceOnUse" id="e" x1="494.33" y1="12.61" x2="494.33" y2="130.72"><stop offset="0%" stop-color="#fff"/><stop offset="20%" stop-color="#fff"/><stop offset="100%" stop-color="#dbdbdb"/></linearGradient><g id="f"><use transform="matrix(0.010849609375,0,0,0.010849609375,0,0)" xlink:href="#ag"/><use transform="matrix(0.010849609375,0,0,0.010849609375,13.670507812499999,0)" xlink:href="#ah"/><use transform="matrix(0.010849609375,0,0,0.010849609375,25.518281249999998,0)" xlink:href="#ai"/><use transform="matrix(0.010849609375,0,0,0.010849609375,36.639130859375,0)" xlink:href="#aj"/></g><path d="M492-995c127 0 201 45 264 114v-541h176V0c-55-7-141 23-150-36l-18-117C688-64 595 14 440 14 170 14 74-204 74-486c0-228 88-392 242-470 52-26 111-39 176-39zM255-486c2 201 49 359 242 359 130 0 195-67 259-146v-473c-54-73-114-114-224-114-197 0-279 159-277 374" id="am"/><path d="M69-490c0-299 140-503 438-503 143 0 234 53 308 127-20 26-37 58-61 80-40 18-64-17-93-32-37-19-81-40-143-39-201 7-269 160-269 367 0 204 66 360 261 368 96 4 149-38 198-81 21-19 50-20 67 2l51 64C751-46 640 14 479 14 199 14 69-199 69-490" id="an"/><path d="M271-232c74 0 125 50 125 125 0 74-52 123-125 123S149-34 149-107c0-74 48-125 122-125zm-6-678c74 0 125 50 125 125 0 74-52 123-125 123s-122-50-122-123c0-74 48-125 122-125" id="ao"/><path d="M454-137c154-4 244-84 244-236 0-172-165-194-295-240-161-57-303-135-295-354 9-227 154-362 390-362 152 0 266 55 344 137l-45 85c-37 63-91-1-127-21-44-25-97-52-170-50-136 3-221 69-221 201 0 166 169 187 295 236 153 60 300 130 295 341-6 260-155 414-419 414-174 0-309-76-395-172 24-34 40-77 71-104 55-23 84 36 125 60 52 30 115 67 203 65" id="ap"/><path d="M514-995c228 0 341 142 341 370V0c-56-5-123 17-137-41l-22-91C610-53 522 18 358 15 189 12 84-73 84-244c0-178 154-235 319-276 76-19 169-27 280-30 12-176-30-304-190-304-107 0-171 42-231 86-34 25-81 14-98-16l-32-56c98-93 207-155 382-155zM253-253c0 98 61 145 158 145 133 0 205-61 272-130v-202c-134 6-246 19-333 58-57 26-97 59-97 129" id="aq"/><path d="M536-823c-141 7-187 99-229 205V0H131v-978c60 8 148-26 154 48l12 144c58-123 149-234 328-202 18 3 34 11 49 21l-14 130c-12 52-78 12-124 14" id="ar"/><g id="g"><use transform="matrix(0.010849609375,0,0,0.010849609375,0,0)" xlink:href="#am"/><use transform="matrix(0.010849609375,0,0,0.010849609375,11.674179687499999,0)" xlink:href="#an"/><use transform="matrix(0.010849609375,0,0,0.010849609375,21.06994140625,0)" xlink:href="#ad"/><use transform="matrix(0.010849609375,0,0,0.010849609375,28.512773437499998,0)" xlink:href="#ao"/><use transform="matrix(0.010849609375,0,0,0.010849609375,34.458359375,0)" xlink:href="#ap"/><use transform="matrix(0.010849609375,0,0,0.010849609375,44.667841796874995,0)" xlink:href="#ad"/><use transform="matrix(0.010849609375,0,0,0.010849609375,51.839433593749995,0)" xlink:href="#aq"/><use transform="matrix(0.010849609375,0,0,0.010849609375,62.482900390625005,0)" xlink:href="#ac"/><use transform="matrix(0.010849609375,0,0,0.010849609375,74.157080078125,0)" xlink:href="#am"/><use transform="matrix(0.010849609375,0,0,0.010849609375,85.831259765625,0)" xlink:href="#aq"/><use transform="matrix(0.010849609375,0,0,0.010849609375,96.47472656250001,0)" xlink:href="#ar"/><use transform="matrix(0.010849609375,0,0,0.010849609375,103.91755859375,0)" xlink:href="#am"/></g><path d="M323-978V0H147v-978h176zm-91-431c74 0 125 50 125 125 0 74-52 123-125 123s-122-50-122-123c0-74 48-125 122-125" id="as"/><path d="M95-709c0-188 136-281 332-284 128-2 226 47 291 114-25 33-46 112-108 74-47-29-100-60-179-58-97 2-169 47-169 140 0 121 140 131 235 168 118 46 235 94 235 255C732-91 595 11 381 15 247 17 139-38 70-104c26-39 56-126 124-80 51 35 104 76 195 74 109-2 179-54 179-159 0-126-138-136-236-173C209-488 95-543 95-709" id="at"/><g id="h"><use transform="matrix(0.010849609375,0,0,0.010849609375,0,0)" xlink:href="#as"/><use transform="matrix(0.010849609375,0,0,0.010849609375,5.09931640625,0)" xlink:href="#at"/></g><path d="M581 14c-127 0-201-47-264-114v430H141V-978c55 7 141-23 150 36l17 114c76-89 171-167 326-167 271 0 368 217 368 499 0 229-91 393-245 471-52 26-111 39-176 39zm240-510c-2-202-50-358-245-358-128 0-197 66-259 146v472c53 73 114 114 225 114 198 0 281-159 279-374" id="au"/><path d="M75-490c0-310 160-503 466-503s464 194 464 503c0 310-158 504-464 504C234 14 75-180 75-490zm181 1c0 215 74 366 285 366 210 0 283-152 283-366s-74-367-283-367c-211 0-285 152-285 367" id="av"/><path d="M523-1269c-167-5-192 134-183 309h263v128H346V0H170v-831c-44-9-102-4-133-26-23-17-9-67-13-103h146c-18-271 76-439 324-444 44 0 83 8 117 19-9 39 11 106-29 113-15 2-34 3-59 3" id="aw"/><g id="i"><use transform="matrix(0.010849609375,0,0,0.010849609375,0,0)" xlink:href="#au"/><use transform="matrix(0.010849609375,0,0,0.010849609375,11.674179687499999,0)" xlink:href="#ar"/><use transform="matrix(0.010849609375,0,0,0.010849609375,19.062763671875,0)" xlink:href="#av"/><use transform="matrix(0.010849609375,0,0,0.010849609375,30.780341796875,0)" xlink:href="#aw"/><use transform="matrix(0.010849609375,0,0,0.010849609375,37.56134765625,0)" xlink:href="#as"/><use transform="matrix(0.010849609375,0,0,0.010849609375,42.6606640625,0)" xlink:href="#Z"/><use transform="matrix(0.010849609375,0,0,0.010849609375,47.759980468749994,0)" xlink:href="#aa"/></g><g id="j"><use transform="matrix(0.010849609375,0,0,0.010849609375,0,0)" xlink:href="#av"/><use transform="matrix(0.010849609375,0,0,0.010849609375,11.717578125,0)" xlink:href="#aw"/></g><linearGradient gradientUnits="userSpaceOnUse" id="k" x1="494.33" y1="388.6" x2="494.33" y2="506.71"><stop offset="0%" stop-color="#fff"/><stop offset="20%" stop-color="#fff"/><stop offset="100%" stop-color="#dbdbdb"/></linearGradient><path d="M969-949c0 213-127 324-301 372 24 16 43 33 61 57L1082 0c-87-8-195 23-235-37L536-505c-21-29-36-41-85-41H329V0H147v-1314h360c275 2 462 97 462 365zM500-679c179-3 292-82 292-257 0-157-95-235-285-235H329v492h171" id="ax"/><path d="M450 15c-223 0-325-146-325-370v-623h176v623c0 141 61 233 200 231 119-1 195-63 259-133v-721h176V0c-55-7-141 23-150-36l-16-104C692-57 602 15 450 15" id="ay"/><g id="l"><use transform="matrix(0.010849609375,0,0,0.010849609375,0,0)" xlink:href="#ax"/><use transform="matrix(0.010849609375,0,0,0.010849609375,11.674179687499999,0)" xlink:href="#aa"/><use transform="matrix(0.010849609375,0,0,0.010849609375,22.729931640624997,0)" xlink:href="#at"/><use transform="matrix(0.010849609375,0,0,0.010849609375,31.420468749999998,0)" xlink:href="#av"/><use transform="matrix(0.010849609375,0,0,0.010849609375,43.138046875,0)" xlink:href="#ay"/><use transform="matrix(0.010849609375,0,0,0.010849609375,54.812226562499994,0)" xlink:href="#ar"/><use transform="matrix(0.010849609375,0,0,0.010849609375,62.233359375,0)" xlink:href="#an"/><use transform="matrix(0.010849609375,0,0,0.010849609375,71.62912109375,0)" xlink:href="#aa"/></g><g id="m"><use transform="matrix(0.010849609375,0,0,0.010849609375,0,0)" xlink:href="#ag"/><use transform="matrix(0.010849609375,0,0,0.010849609375,13.670507812499999,0)" xlink:href="#aa"/><use transform="matrix(0.010849609375,0,0,0.010849609375,24.726259765625,0)" xlink:href="#at"/><use transform="matrix(0.010849609375,0,0,0.010849609375,33.416796874999996,0)" xlink:href="#an"/><use transform="matrix(0.010849609375,0,0,0.010849609375,42.81255859375,0)" xlink:href="#ar"/><use transform="matrix(0.010849609375,0,0,0.010849609375,50.5591796875,0)" xlink:href="#as"/><use transform="matrix(0.010849609375,0,0,0.010849609375,55.658496093749996,0)" xlink:href="#au"/><use transform="matrix(0.010849609375,0,0,0.010849609375,67.235029296875,0)" xlink:href="#ad"/><use transform="matrix(0.010849609375,0,0,0.010849609375,74.46086914062501,0)" xlink:href="#av"/><use transform="matrix(0.010849609375,0,0,0.010849609375,86.17844726562501,0)" xlink:href="#ar"/></g><path d="M255-128h273c2-322-4-651 3-968L308-900c-25 26-63 14-78-6l-53-73 383-339h136v1190h250V0H255v-128" id="az"/><use transform="matrix(0.010849609375,0,0,0.010849609375,0,0)" xlink:href="#az" id="n"/><linearGradient gradientUnits="userSpaceOnUse" id="o" x1="1047.32" y1="388.6" x2="1047.32" y2="506.71"><stop offset="0%" stop-color="#fff"/><stop offset="20%" stop-color="#fff"/><stop offset="100%" stop-color="#dbdbdb"/></linearGradient><path d="M118-957c35-227 168-372 421-372 237 0 388 129 388 367 0 234-144 350-265 476L325-135c155-43 377-15 567-23 76-4 57 87 59 158H92c-1-54 1-99 31-129 169-170 344-341 501-522 70-81 131-166 131-307 0-146-81-228-225-228-138 0-213 81-243 193-11 42-31 58-82 50" id="aA"/><use transform="matrix(0.010849609375,0,0,0.010849609375,0,0)" xlink:href="#aA" id="p"/><path d="M576-854c-119 2-194 64-257 135V0H143v-1422h176v573c76-79 163-144 308-144 223 0 324 146 324 370V0H775v-623c0-140-60-233-199-231" id="aB"/><g id="q"><use transform="matrix(0.010849609375,0,0,0.010849609375,0,0)" xlink:href="#aB"/><use transform="matrix(0.010849609375,0,0,0.010849609375,11.674179687499999,0)" xlink:href="#aq"/><use transform="matrix(0.010849609375,0,0,0.010849609375,22.317646484375,0)" xlink:href="#at"/></g><g id="r"><use transform="matrix(0.010849609375,0,0,0.010849609375,0,0)" xlink:href="#ar"/><use transform="matrix(0.010849609375,0,0,0.010849609375,7.453681640625,0)" xlink:href="#aa"/><use transform="matrix(0.010849609375,0,0,0.010849609375,18.50943359375,0)" xlink:href="#at"/><use transform="matrix(0.010849609375,0,0,0.010849609375,27.199970703124997,0)" xlink:href="#av"/><use transform="matrix(0.010849609375,0,0,0.010849609375,38.91754882812499,0)" xlink:href="#ay"/><use transform="matrix(0.010849609375,0,0,0.010849609375,50.591728515625,0)" xlink:href="#ar"/><use transform="matrix(0.010849609375,0,0,0.010849609375,58.012861328124984,0)" xlink:href="#an"/><use transform="matrix(0.010849609375,0,0,0.010849609375,67.408623046875,0)" xlink:href="#aa"/></g><linearGradient gradientUnits="userSpaceOnUse" id="s" x1="231.33" y1="519.85" x2="231.33" y2="637.96"><stop offset="0%" stop-color="#fff"/><stop offset="20%" stop-color="#fff"/><stop offset="100%" stop-color="#dbdbdb"/></linearGradient><path d="M1185-127C1068-41 935 14 745 14c-326 0-527-159-621-398-63-159-60-385-2-546 98-271 362-446 744-388 132 20 229 80 308 155l-51 82c-30 54-91 8-125-15-70-46-159-79-279-76-306 8-456 204-456 515 0 322 159 524 477 524 121 0 198-31 280-74v-288H831c-62 2-34-84-40-138h394v506" id="aC"/><g id="t"><use transform="matrix(0.010849609375,0,0,0.010849609375,0,0)" xlink:href="#aC"/><use transform="matrix(0.010849609375,0,0,0.010849609375,14.017695312499999,0)" xlink:href="#ay"/><use transform="matrix(0.010849609375,0,0,0.010849609375,25.691874999999992,0)" xlink:href="#as"/><use transform="matrix(0.010849609375,0,0,0.010849609375,30.791191406249997,0)" xlink:href="#am"/><use transform="matrix(0.010849609375,0,0,0.010849609375,42.465371093749994,0)" xlink:href="#aq"/><use transform="matrix(0.010849609375,0,0,0.010849609375,53.108837890625,0)" xlink:href="#ac"/><use transform="matrix(0.010849609375,0,0,0.010849609375,64.783017578125,0)" xlink:href="#an"/><use transform="matrix(0.010849609375,0,0,0.010849609375,74.17877929687499,0)" xlink:href="#aa"/></g><linearGradient gradientUnits="userSpaceOnUse" id="u" x1="736.85" y1="519.85" x2="736.85" y2="637.96"><stop offset="0%" stop-color="#fff"/><stop offset="20%" stop-color="#fff"/><stop offset="100%" stop-color="#dbdbdb"/></linearGradient><g id="v"><use transform="matrix(0.010849609375,0,0,0.010849609375,0,0)" xlink:href="#ah"/><use transform="matrix(0.010849609375,0,0,0.010849609375,11.847773437499999,0)" xlink:href="#av"/><use transform="matrix(0.010849609375,0,0,0.010849609375,23.5653515625,0)" xlink:href="#ac"/><use transform="matrix(0.010849609375,0,0,0.010849609375,35.23953125,0)" xlink:href="#at"/><use transform="matrix(0.010849609375,0,0,0.010849609375,43.68052734375,0)" xlink:href="#ad"/><use transform="matrix(0.010849609375,0,0,0.010849609375,51.123359375,0)" xlink:href="#ar"/><use transform="matrix(0.010849609375,0,0,0.010849609375,58.414296875,0)" xlink:href="#aq"/><use transform="matrix(0.010849609375,0,0,0.010849609375,69.057763671875,0)" xlink:href="#as"/><use transform="matrix(0.010849609375,0,0,0.010849609375,74.15708007812499,0)" xlink:href="#ac"/><use transform="matrix(0.010849609375,0,0,0.010849609375,85.6251171875,0)" xlink:href="#ad"/><use transform="matrix(0.010849609375,0,0,0.010849609375,93.06794921875,0)" xlink:href="#at"/></g><linearGradient gradientUnits="userSpaceOnUse" id="w" x1="1267.8" y1="708.2" x2="1267.8" y2="826.31"><stop offset="0%" stop-color="#fff"/><stop offset="20%" stop-color="#fff"/><stop offset="100%" stop-color="#dbdbdb"/></linearGradient><path d="M1136 0H953v-596H323V0H140v-1314h183v585h630v-585h183V0" id="aD"/><path d="M320-153h507V0H138v-1314h182v1161" id="aE"/><g id="x"><use transform="matrix(0.010849609375,0,0,0.010849609375,0,0)" xlink:href="#ap"/><use transform="matrix(0.010849609375,0,0,0.010849609375,10.209482421875,0)" xlink:href="#aD"/><use transform="matrix(0.010849609375,0,0,0.010849609375,24.053583984375,0)" xlink:href="#ai"/><use transform="matrix(0.010849609375,0,0,0.010849609375,36.74762695312499,0)" xlink:href="#ah"/><use transform="matrix(0.010849609375,0,0,0.010849609375,48.59540039062499,0)" xlink:href="#aE"/></g><linearGradient gradientUnits="userSpaceOnUse" id="y" x1="1047.32" y1="708.2" x2="1047.32" y2="826.31"><stop offset="0%" stop-color="#fff"/><stop offset="20%" stop-color="#fff"/><stop offset="100%" stop-color="#dbdbdb"/></linearGradient><path d="M882-1314v148H321v455h477v148H321V0H138v-1314h744" id="aF"/><g id="z"><use transform="matrix(0.010849609375,0,0,0.010849609375,0,0)" xlink:href="#ax"/><use transform="matrix(0.010849609375,0,0,0.010849609375,12.064765625,0)" xlink:href="#ag"/><use transform="matrix(0.010849609375,0,0,0.010849609375,25.7352734375,0)" xlink:href="#aF"/></g><path d="M415 284C228 8 104-369 164-836c34-266 128-472 251-661 37 33 133 46 93 119-117 213-205 462-205 771 0 310 84 561 205 772 20 35 8 57-15 71" id="aG"/><path d="M206-1498c187 277 310 653 250 1120-34 266-128 473-250 662-30-20-65-35-92-58-16-13-12-41-1-61C234-46 318-297 318-607c0-309-82-562-205-771-16-28-6-59 15-72" id="aH"/><g id="A"><use transform="matrix(0.010849609375,0,0,0.010849609375,0,0)" xlink:href="#aG"/><use transform="matrix(0.010849609375,0,0,0.010849609375,6.7376074218749995,0)" xlink:href="#aj"/><use transform="matrix(0.010849609375,0,0,0.010849609375,16.1876171875,0)" xlink:href="#ay"/><use transform="matrix(0.010849609375,0,0,0.010849609375,27.861796874999992,0)" xlink:href="#ar"/><use transform="matrix(0.010849609375,0,0,0.010849609375,35.60841796875,0)" xlink:href="#ad"/><use transform="matrix(0.010849609375,0,0,0.010849609375,43.051249999999996,0)" xlink:href="#Z"/><use transform="matrix(0.010849609375,0,0,0.010849609375,48.15056640625,0)" xlink:href="#aa"/><use transform="matrix(0.010849609375,0,0,0.010849609375,59.20631835937499,0)" xlink:href="#aH"/></g><g id="B"><use transform="matrix(0.010849609375,0,0,0.010849609375,0,0)" xlink:href="#ar"/><use transform="matrix(0.010849609375,0,0,0.010849609375,7.388583984375,0)" xlink:href="#av"/><use transform="matrix(0.010849609375,0,0,0.010849609375,19.106162109375,0)" xlink:href="#Z"/><use transform="matrix(0.010849609375,0,0,0.010849609375,24.205478515625,0)" xlink:href="#aa"/></g><g id="C"><use transform="matrix(0.010849609375,0,0,0.010849609375,0,0)" xlink:href="#aw"/><use transform="matrix(0.010849609375,0,0,0.010849609375,6.314472656250001,0)" xlink:href="#av"/><use transform="matrix(0.010849609375,0,0,0.010849609375,18.03205078125,0)" xlink:href="#ar"/><use transform="matrix(0.010849609375,0,0,0.010849609375,25.778671874999997,0)" xlink:href="#ab"/><use transform="matrix(0.010849609375,0,0,0.010849609375,43.5286328125,0)" xlink:href="#aq"/><use transform="matrix(0.010849609375,0,0,0.010849609375,53.96595703125,0)" xlink:href="#ad"/></g><g id="D"><use transform="matrix(0.010849609375,0,0,0.010849609375,0,0)" xlink:href="#an"/><use transform="matrix(0.010849609375,0,0,0.010849609375,9.211318359375,0)" xlink:href="#av"/><use transform="matrix(0.010849609375,0,0,0.010849609375,20.928896484375,0)" xlink:href="#ac"/><use transform="matrix(0.010849609375,0,0,0.010849609375,32.472880859374996,0)" xlink:href="#aw"/><use transform="matrix(0.010849609375,0,0,0.010849609375,38.78735351562499,0)" xlink:href="#av"/><use transform="matrix(0.010849609375,0,0,0.010849609375,50.50493164062499,0)" xlink:href="#ar"/><use transform="matrix(0.010849609375,0,0,0.010849609375,58.25155273437499,0)" xlink:href="#ab"/><use transform="matrix(0.010849609375,0,0,0.010849609375,76.00151367187499,0)" xlink:href="#at"/></g><g id="E"><use transform="matrix(0.010849609375,0,0,0.010849609375,0,0)" xlink:href="#ad"/><use transform="matrix(0.010849609375,0,0,0.010849609375,7.225839843749999,0)" xlink:href="#av"/></g><g id="F"><use transform="matrix(0.010849609375,0,0,0.010849609375,0,0)" xlink:href="#al"/><use transform="matrix(0.010849609375,0,0,0.010849609375,11.47888671875,0)" xlink:href="#ar"/><use transform="matrix(0.010849609375,0,0,0.010849609375,18.867470703125,0)" xlink:href="#av"/><use transform="matrix(0.010849609375,0,0,0.010849609375,30.585048828125,0)" xlink:href="#aw"/><use transform="matrix(0.010849609375,0,0,0.010849609375,37.3660546875,0)" xlink:href="#as"/><use transform="matrix(0.010849609375,0,0,0.010849609375,42.465371093749994,0)" xlink:href="#Z"/><use transform="matrix(0.010849609375,0,0,0.010849609375,47.56468749999999,0)" xlink:href="#aa"/></g><linearGradient gradientUnits="userSpaceOnUse" id="G" x1="560.47" y1="708.2" x2="560.47" y2="826.31"><stop offset="0%" stop-color="#fff"/><stop offset="20%" stop-color="#fff"/><stop offset="100%" stop-color="#dbdbdb"/></linearGradient><g id="H"><use transform="matrix(0.010849609375,0,0,0.010849609375,0,0)" xlink:href="#al"/><use transform="matrix(0.010849609375,0,0,0.010849609375,11.47888671875,0)" xlink:href="#ag"/><use transform="matrix(0.010849609375,0,0,0.010849609375,25.149394531249992,0)" xlink:href="#aF"/></g><linearGradient gradientUnits="userSpaceOnUse" id="I" x1="311.65" y1="708.2" x2="311.65" y2="826.31"><stop offset="0%" stop-color="#fff"/><stop offset="20%" stop-color="#fff"/><stop offset="100%" stop-color="#dbdbdb"/></linearGradient><path d="M586 14c-139 0-211-58-275-138-12 47 7 124-53 124H144v-1422h176v583c74-85 165-154 314-154 264 0 368 206 368 479 0 238-85 409-243 490-51 25-109 38-173 38zm235-522c0-208-63-346-246-346-127 0-194 66-255 146v472c53 73 113 114 222 114 204 0 279-159 279-386" id="aI"/><path d="M748-436c0-175-99-265-277-267-65 0-133 12-206 36l-104-32 104-615h612c7 92-4 154-98 154H382l-57 340c59-13 115-21 181-21 258 0 411 142 411 397 0 224-117 360-281 426C479 45 264 2 162-72c-25-18-49-34-69-53 32-38 64-127 137-81 61 38 128 80 232 77 187-5 286-118 286-307" id="aJ"/><path d="M133-957c36-227 169-372 422-372 224 0 376 114 376 336 0 173-90 260-222 302 151 40 251 135 251 313 0 198-114 310-263 365-98 37-246 34-340 1C213-61 139-178 95-327c44-18 136-74 166-8 49 106 110 211 268 207 159-4 256-94 263-245 8-191-130-240-325-240v-121c175-4 300-59 300-230 0-143-79-222-221-222-138 0-212 82-243 193-12 42-31 58-82 50" id="aK"/><path d="M1004-475c-6 51 20 132-37 131H814V0H667v-344H102c-63 0-52-74-67-122l622-849h157v840h190zm-337 0c3-213-7-437 6-641L214-475h453" id="aL"/><path d="M949-956c47 159 47 439 0 598C887-148 769 14 518 14 268 14 151-149 89-358c-47-159-47-439 0-598 62-210 178-373 429-373 250 0 369 164 431 373zM722-242c117-170 114-650 0-830-59-93-195-155-314-89-142 79-181 270-182 504-1 177 29 313 88 415 55 96 193 148 315 88 35-18 65-47 93-88" id="aM"/><path d="M139-1160c-63-1-35-95-41-154h874c1 60-2 122-21 161L426-59c-16 30-44 59-91 59H213l534-1079c16-31 34-58 54-81H139" id="aN"/><g id="J"><use transform="matrix(0.010849609375,0,0,0.010849609375,0,0)" xlink:href="#aI"/><use transform="matrix(0.010849609375,0,0,0.010849609375,11.674179687499999,0)" xlink:href="#aI"/><use transform="matrix(0.010849609375,0,0,0.010849609375,23.348359374999998,0)" xlink:href="#aJ"/><use transform="matrix(0.010849609375,0,0,0.010849609375,34.610253906249994,0)" xlink:href="#aK"/><use transform="matrix(0.010849609375,0,0,0.010849609375,45.872148437499995,0)" xlink:href="#an"/><use transform="matrix(0.010849609375,0,0,0.010849609375,55.26791015625,0)" xlink:href="#aI"/><use transform="matrix(0.010849609375,0,0,0.010849609375,66.94208984375,0)" xlink:href="#aL"/><use transform="matrix(0.010849609375,0,0,0.010849609375,78.203984375,0)" xlink:href="#aw"/><use transform="matrix(0.010849609375,0,0,0.010849609375,84.984990234375,0)" xlink:href="#aM"/><use transform="matrix(0.010849609375,0,0,0.010849609375,96.246884765625,0)" xlink:href="#az"/><use transform="matrix(0.010849609375,0,0,0.010849609375,107.50877929687499,0)" xlink:href="#aN"/><use transform="matrix(0.010849609375,0,0,0.010849609375,118.770673828125,0)" xlink:href="#am"/><use transform="matrix(0.010849609375,0,0,0.010849609375,130.44485351562497,0)" xlink:href="#aL"/></g><g id="K"><use transform="matrix(0.010849609375,0,0,0.010849609375,0,0)" xlink:href="#aq"/><use transform="matrix(0.010849609375,0,0,0.010849609375,10.643466796875,0)" xlink:href="#ar"/><use transform="matrix(0.010849609375,0,0,0.010849609375,18.390087890625,0)" xlink:href="#ad"/><use transform="matrix(0.010849609375,0,0,0.010849609375,25.832919921875,0)" xlink:href="#as"/><use transform="matrix(0.010849609375,0,0,0.010849609375,30.932236328124997,0)" xlink:href="#aw"/><use transform="matrix(0.010849609375,0,0,0.010849609375,37.2792578125,0)" xlink:href="#aq"/><use transform="matrix(0.010849609375,0,0,0.010849609375,47.922724609374995,0)" xlink:href="#an"/><use transform="matrix(0.010849609375,0,0,0.010849609375,57.318486328125,0)" xlink:href="#ad"/></g><linearGradient gradientUnits="userSpaceOnUse" id="L" x1="826.85" y1="708.2" x2="826.85" y2="826.31"><stop offset="0%" stop-color="#fff"/><stop offset="20%" stop-color="#fff"/><stop offset="100%" stop-color="#dbdbdb"/></linearGradient><path d="M706-721c154 44 250 152 250 342 0 260-174 394-437 394C255 15 82-119 82-379c0-190 96-298 249-342-125-48-205-151-205-314 0-231 157-364 393-364 186 0 307 90 365 221 19 44 28 92 28 143-2 163-81 267-206 314zM263-382c0 163 92 258 256 258 163 0 255-95 255-258 0-170-89-265-255-265-167 0-256 95-256 265zm35-650c0 148 70 245 221 245s221-97 221-245c0-143-77-232-221-232s-221 89-221 232" id="aO"/><path d="M727-618c-80 71-247 106-374 54-132-54-222-167-222-352 0-197 110-320 255-381 99-42 240-41 340-1 171 68 277 257 232 502-22 119-80 208-139 296L510-39C475 19 358-5 270 0c152-206 309-408 457-618zm-181-49c163-3 261-98 261-256 0-164-89-267-251-267s-253 100-257 262c-4 161 91 264 247 261" id="aP"/><path d="M523 15C238 15 92-170 92-458c0-173 68-287 155-413l322-470c36-61 157-38 250-42-146 199-294 396-439 596 80-61 238-82 352-34 142 60 235 185 235 385 0 213-110 349-263 416-54 23-115 35-181 35zm5-729c-170 0-266 117-266 287 0 178 83 297 258 297 174 0 271-117 271-293 0-177-89-291-263-291" id="aQ"/><g id="M"><use transform="matrix(0.010849609375,0,0,0.010849609375,0,0)" xlink:href="#aI"/><use transform="matrix(0.010849609375,0,0,0.010849609375,11.674179687499999,0)" xlink:href="#aN"/><use transform="matrix(0.010849609375,0,0,0.010849609375,22.936074218749997,0)" xlink:href="#aJ"/><use transform="matrix(0.010849609375,0,0,0.010849609375,34.19796875,0)" xlink:href="#aO"/><use transform="matrix(0.010849609375,0,0,0.010849609375,45.459863281249994,0)" xlink:href="#aa"/><use transform="matrix(0.010849609375,0,0,0.010849609375,56.515615234375005,0)" xlink:href="#aN"/><use transform="matrix(0.010849609375,0,0,0.010849609375,67.77750976562501,0)" xlink:href="#aL"/><use transform="matrix(0.010849609375,0,0,0.010849609375,79.039404296875,0)" xlink:href="#aM"/><use transform="matrix(0.010849609375,0,0,0.010849609375,90.301298828125,0)" xlink:href="#az"/><use transform="matrix(0.010849609375,0,0,0.010849609375,101.56319335937499,0)" xlink:href="#an"/><use transform="matrix(0.010849609375,0,0,0.010849609375,110.958955078125,0)" xlink:href="#aM"/><use transform="matrix(0.010849609375,0,0,0.010849609375,122.220849609375,0)" xlink:href="#aP"/><use transform="matrix(0.010849609375,0,0,0.010849609375,133.482744140625,0)" xlink:href="#aQ"/></g><path d="M1240-928c58 159 58 383 0 542-85 230-258 400-561 400S201-157 116-386c-59-159-59-383 0-542 86-230 259-401 563-401s477 171 561 401zm-172 486c38-122 39-308 0-430-56-173-170-300-389-300-293 0-420 215-420 515 0 237 85 404 247 479 99 47 246 46 346 0 107-49 178-142 216-264" id="aR"/><g id="N"><use transform="matrix(0.010849609375,0,0,0.010849609375,0,0)" xlink:href="#ac"/><use transform="matrix(0.010849609375,0,0,0.010849609375,11.674179687499999,0)" xlink:href="#av"/><use transform="matrix(0.010849609375,0,0,0.010849609375,23.391757812499993,0)" xlink:href="#ac"/><use transform="matrix(0.010849609375,0,0,0.010849609375,35.0659375,0)" xlink:href="#ak"/><use transform="matrix(0.010849609375,0,0,0.010849609375,41.868642578125,0)" xlink:href="#al"/><use transform="matrix(0.010849609375,0,0,0.010849609375,53.347529296874995,0)" xlink:href="#ax"/><use transform="matrix(0.010849609375,0,0,0.010849609375,65.19530273437499,0)" xlink:href="#aR"/><use transform="matrix(0.010849609375,0,0,0.010849609375,79.907373046875,0)" xlink:href="#aF"/></g><g id="O"><use transform="matrix(0.010849609375,0,0,0.010849609375,0,0)" xlink:href="#ah"/><use transform="matrix(0.010849609375,0,0,0.010849609375,11.847773437499999,0)" xlink:href="#Z"/><use transform="matrix(0.010849609375,0,0,0.010849609375,16.94708984375,0)" xlink:href="#aq"/><use transform="matrix(0.010849609375,0,0,0.010849609375,27.590556640625,0)" xlink:href="#at"/><use transform="matrix(0.010849609375,0,0,0.010849609375,36.28109375,0)" xlink:href="#at"/></g><g id="P"><use transform="matrix(0.010849609375,0,0,0.010849609375,0,0)" xlink:href="#al"/><use transform="matrix(0.010849609375,0,0,0.010849609375,11.47888671875,0)" xlink:href="#ax"/><use transform="matrix(0.010849609375,0,0,0.010849609375,23.32666015625,0)" xlink:href="#aR"/><use transform="matrix(0.010849609375,0,0,0.010849609375,38.03873046875,0)" xlink:href="#aF"/></g><linearGradient gradientUnits="userSpaceOnUse" id="Q" x1="9.13" y1="405.6" x2="9.13" y2="523.72"><stop offset="0%" stop-color="#fff"/><stop offset="12.18%" stop-color="#fff"/><stop offset="100%" stop-color="#dbdbdb"/></linearGradient><path d="M21-978c68 8 173-25 191 37 66 230 131 458 192 691 6 21 9 43 12 64 75-256 159-506 233-760 13-43 73-33 125-34 27 0 43 14 50 34 75 254 156 502 227 760 7-43 18-87 31-132l179-624c15-59 116-29 182-36L1136 0H996c-17 0-28-11-35-33-73-235-147-469-219-705-4-15-7-30-10-45-7 32-14 62-23 92L501-33C485 26 391-10 329 0" id="aS"/><g id="R"><use transform="matrix(0.010849609375,0,0,0.010849609375,0,0)" xlink:href="#av"/><use transform="matrix(0.010849609375,0,0,0.010849609375,11.63078125,0)" xlink:href="#aS"/><use transform="matrix(0.010849609375,0,0,0.010849609375,27.514609375,0)" xlink:href="#Z"/><use transform="matrix(0.010849609375,0,0,0.010849609375,32.613925781249996,0)" xlink:href="#ao"/></g><path d="M304-1012c2 28 4 55 4 84V0H148v-1314c60 5 126-11 157 31l714 983c-2-29-5-61-5-91v-923h160V0c-61-3-126 10-156-32" id="aT"/><path d="M349 0H167v-1314h182V0" id="aU"/><path d="M542 0H383L19-978h145c26-1 46 18 53 36 77 231 156 461 231 694 7 22 12 44 17 67 10-48 25-91 40-135l212-626c18-58 121-29 189-36" id="aV"/><g id="S"><use transform="matrix(0.010849609375,0,0,0.010849609375,0,0)" xlink:href="#aT"/><use transform="matrix(0.010849609375,0,0,0.010849609375,14.34318359375,0)" xlink:href="#aq"/><use transform="matrix(0.010849609375,0,0,0.010849609375,24.986650390625005,0)" xlink:href="#ab"/><use transform="matrix(0.010849609375,0,0,0.010849609375,42.736611328125,0)" xlink:href="#aa"/><use transform="matrix(0.010849609375,0,0,0.010849609375,53.792363281250005,0)" xlink:href="#am"/><use transform="matrix(0.010849609375,0,0,0.010849609375,65.46654296875,0)" xlink:href="#aU"/><use transform="matrix(0.010849609375,0,0,0.010849609375,71.06494140625,0)" xlink:href="#ac"/><use transform="matrix(0.010849609375,0,0,0.010849609375,82.73912109375,0)" xlink:href="#am"/><use transform="matrix(0.010849609375,0,0,0.010849609375,94.41330078125,0)" xlink:href="#as"/><use transform="matrix(0.010849609375,0,0,0.010849609375,99.5126171875,0)" xlink:href="#aV"/><use transform="matrix(0.010849609375,0,0,0.010849609375,109.548505859375,0)" xlink:href="#as"/><use transform="matrix(0.010849609375,0,0,0.010849609375,114.647822265625,0)" xlink:href="#am"/><use transform="matrix(0.010849609375,0,0,0.010849609375,126.322001953125,0)" xlink:href="#ay"/><use transform="matrix(0.010849609375,0,0,0.010849609375,137.996181640625,0)" xlink:href="#aq"/><use transform="matrix(0.010849609375,0,0,0.010849609375,148.6396484375,0)" xlink:href="#Z"/></g><path d="M407-674L27-1314h181c27 0 37 9 46 25l289 512c93-171 187-340 282-509 9-15 19-27 41-28h174L658-684 1052 0H871c-27 1-41-18-50-34L524-570C428-389 328-212 228-34c-9 16-22 34-47 34H11" id="aW"/><g id="T"><use transform="matrix(0.010849609375,0,0,0.010849609375,0,0)" xlink:href="#aW"/><use transform="matrix(0.010849609375,0,0,0.010849609375,11.316142578125,0)" xlink:href="#ap"/><use transform="matrix(0.010849609375,0,0,0.010849609375,21.525624999999998,0)" xlink:href="#ag"/></g><g id="U"><use transform="matrix(0.010849609375,0,0,0.010849609375,0,0)" xlink:href="#ag"/><use transform="matrix(0.010849609375,0,0,0.010849609375,13.670507812499999,0)" xlink:href="#aq"/><use transform="matrix(0.010849609375,0,0,0.010849609375,24.10783203125,0)" xlink:href="#ad"/><use transform="matrix(0.010849609375,0,0,0.010849609375,31.279423828124997,0)" xlink:href="#aq"/><use transform="matrix(0.010849609375,0,0,0.010849609375,41.716748046875,0)" xlink:href="#ad"/><use transform="matrix(0.010849609375,0,0,0.010849609375,49.159580078124996,0)" xlink:href="#af"/><use transform="matrix(0.010849609375,0,0,0.010849609375,59.21716796875,0)" xlink:href="#au"/><use transform="matrix(0.010849609375,0,0,0.010849609375,70.89134765624999,0)" xlink:href="#aa"/></g><g id="V"><use transform="matrix(0.010849609375,0,0,0.010849609375,0,0)" xlink:href="#ar"/><use transform="matrix(0.010849609375,0,0,0.010849609375,7.44283203125,0)" xlink:href="#am"/><use transform="matrix(0.010849609375,0,0,0.010849609375,19.11701171875,0)" xlink:href="#aw"/><use transform="matrix(0.010849609375,0,0,0.010849609375,25.605078125,0)" xlink:href="#at"/><use transform="matrix(0.010849609375,0,0,0.010849609375,34.295615234375,0)" xlink:href="#ao"/><use transform="matrix(0.010849609375,0,0,0.010849609375,40.241201171875,0)" xlink:href="#at"/><use transform="matrix(0.010849609375,0,0,0.010849609375,48.93173828125,0)" xlink:href="#ay"/><use transform="matrix(0.010849609375,0,0,0.010849609375,60.60591796875,0)" xlink:href="#aI"/><use transform="matrix(0.010849609375,0,0,0.010849609375,72.28009765624999,0)" xlink:href="#ah"/><use transform="matrix(0.010849609375,0,0,0.010849609375,84.12787109374999,0)" xlink:href="#Z"/><use transform="matrix(0.010849609375,0,0,0.010849609375,89.22718749999997,0)" xlink:href="#aq"/><use transform="matrix(0.010849609375,0,0,0.010849609375,99.87065429687499,0)" xlink:href="#at"/><use transform="matrix(0.010849609375,0,0,0.010849609375,108.56119140624999,0)" xlink:href="#at"/><use transform="matrix(0.010849609375,0,0,0.010849609375,117.25172851562499,0)" xlink:href="#aR"/><use transform="matrix(0.010849609375,0,0,0.010849609375,131.963798828125,0)" xlink:href="#aw"/></g><g id="W"><use transform="matrix(0.010849609375,0,0,0.010849609375,0,0)" xlink:href="#ar"/><use transform="matrix(0.010849609375,0,0,0.010849609375,7.44283203125,0)" xlink:href="#am"/><use transform="matrix(0.010849609375,0,0,0.010849609375,19.11701171875,0)" xlink:href="#aw"/><use transform="matrix(0.010849609375,0,0,0.010849609375,25.898017578125,0)" xlink:href="#ao"/><use transform="matrix(0.010849609375,0,0,0.010849609375,31.843603515625,0)" xlink:href="#ad"/><use transform="matrix(0.010849609375,0,0,0.010849609375,39.286435546875,0)" xlink:href="#af"/><use transform="matrix(0.010849609375,0,0,0.010849609375,49.3440234375,0)" xlink:href="#au"/><use transform="matrix(0.010849609375,0,0,0.010849609375,61.018203125,0)" xlink:href="#aa"/></g><g id="X"><use transform="matrix(0.010849609375,0,0,0.010849609375,0,0)" xlink:href="#ar"/><use transform="matrix(0.010849609375,0,0,0.010849609375,7.44283203125,0)" xlink:href="#am"/><use transform="matrix(0.010849609375,0,0,0.010849609375,19.11701171875,0)" xlink:href="#aw"/><use transform="matrix(0.010849609375,0,0,0.010849609375,25.898017578125,0)" xlink:href="#ao"/><use transform="matrix(0.010849609375,0,0,0.010849609375,31.843603515625,0)" xlink:href="#au"/><use transform="matrix(0.010849609375,0,0,0.010849609375,43.517783203125,0)" xlink:href="#ar"/><use transform="matrix(0.010849609375,0,0,0.010849609375,50.90636718750001,0)" xlink:href="#av"/><use transform="matrix(0.010849609375,0,0,0.010849609375,62.6239453125,0)" xlink:href="#au"/><use transform="matrix(0.010849609375,0,0,0.010849609375,74.298125,0)" xlink:href="#aa"/><use transform="matrix(0.010849609375,0,0,0.010849609375,85.353876953125,0)" xlink:href="#ar"/><use transform="matrix(0.010849609375,0,0,0.010849609375,93.10049804687499,0)" xlink:href="#ad"/><use transform="matrix(0.010849609375,0,0,0.010849609375,100.543330078125,0)" xlink:href="#af"/></g></defs></g></svg>