<svg xmlns="http://www.w3.org/2000/svg" xmlns:xlink="http://www.w3.org/1999/xlink" xmlns:lucid="lucid" width="1705" height="870.33"><g transform="translate(0 0)" lucid:page-tab-id="4UZd3qEssswt9"><path d="M0 0h1705v870.33H0z" fill="#fff"/><path d="M972.9 218.42H819.2c-10.55 0-19.2 8.62-19.2 19.25v79.6c0 10.63 8.65 19.26 19.2 19.26h153.7c10.58 0 19.23-8.63 19.23-19.25v-79.6c0-10.64-8.65-19.26-19.22-19.26z" stroke="#000" stroke-width="5" fill="url(#a)"/><use xlink:href="#b" transform="matrix(1,0,0,1,808.8377959996817,227.27524998066468) translate(37.59758333333334 54.944)"/><use xlink:href="#c" transform="matrix(1,0,0,1,808.8377959996817,227.27524998066468) translate(74.63091666666668 54.944)"/><path d="M972.9 38.9H819.2c-10.55 0-19.2 8.6-19.2 19.24v79.6c0 10.64 8.65 19.26 19.2 19.26h153.7c10.58 0 19.23-8.62 19.23-19.25v-79.6c0-10.64-8.65-19.26-19.22-19.26z" stroke="#000" stroke-width="1.11" fill="url(#d)"/><use xlink:href="#e" transform="matrix(1,0,0,1,808.8377959996818,47.74824998066379) translate(0.718555555555568 54.944)"/><path d="M896.62 217.86h-1.1v-19.48h1.1zm0-40.82h-1.1V158h1.1z"/><path/><path d="M906.72 175.02l-.95.57-9.7-16.42-9.7 16.4-.97-.56 10.34-17.47h.65z"/><use xlink:href="#f" transform="matrix(1,0,0,1,853.1988024691359,177.04183333333236) translate(0.005000000000002558 14.222222222222223)"/><use xlink:href="#g" transform="matrix(1,0,0,1,853.1988024691359,177.04183333333236) translate(17.733395061728398 14.222222222222223)"/><use xlink:href="#h" transform="matrix(1,0,0,1,853.1988024691359,177.04183333333236) translate(70.91858024691359 14.222222222222223)"/><path d="M544 420.48l-.3-1.07 113.8-31.2h4.2zm303.64-83.27L739.5 366.88h-4.2l112.05-30.73z"/><path/><path d="M558.23 405.94l-13.25 13.7 18.4 5-.3 1.1-20.2-5.53 14.56-15.03z"/><use xlink:href="#i" transform="matrix(1,0,0,1,647.196303942332,366.86698331704866) translate(0.005000000000002558 14.222222222222223)"/><use xlink:href="#j" transform="matrix(1,0,0,1,647.196303942332,366.86698331704866) translate(33.58524691358026 14.222222222222223)"/><path d="M774.3 420.1l-.63-.9 44.28-30.16h1.97zm121.62-82.8l-44.66 30.4h-1.97l46-31.32z"/><path/><path d="M783.05 401.73l-8.1 17.26 19.02-1.23.07 1.1-20.9 1.34 8.9-18.94z"/><use xlink:href="#i" transform="matrix(1,0,0,1,783.2968080263529,367.7033333167186) translate(0.005000000000002558 14.222222222222223)"/><use xlink:href="#j" transform="matrix(1,0,0,1,783.2968080263529,367.7033333167186) translate(33.58524691358026 14.222222222222223)"/><path d="M1284.2 423.42l-.28 1.07-130.1-33.47h4.45zm-208.88-53.72h-4.46L944.5 337.2l.27-1.07z"/><path/><path d="M1285.04 424.2l-20.1 5.84-.32-1.06 18.3-5.3-13.47-13.5.8-.78z"/><use xlink:href="#i" transform="matrix(1,0,0,1,1063.258484639518,369.7010833197997) translate(0.005000000000002558 14.222222222222223)"/><use xlink:href="#j" transform="matrix(1,0,0,1,1063.258484639518,369.7010833197997) translate(33.58524691358026 14.222222222222223)"/><path d="M422.9 546.13H269.2c-10.55 0-19.2 8.63-19.2 19.26V645c0 10.62 8.65 19.24 19.2 19.24h153.7c10.58 0 19.23-8.62 19.23-19.25v-79.6c0-10.64-8.65-19.27-19.22-19.27z" stroke="#000" fill="url(#k)"/><use xlink:href="#l" transform="matrix(1,0,0,1,258.83779600003226,554.9922499806635) translate(40.00475 54.944)"/><path d="M570.9 728.65H417.2c-10.56 0-19.2 8.63-19.2 19.25v79.6c0 10.64 8.64 19.26 19.2 19.26h153.7c10.57 0 19.22-8.62 19.22-19.25v-79.6c0-10.62-8.65-19.25-19.2-19.25z" stroke="#000" stroke-width="1.11" fill="url(#m)"/><use xlink:href="#n" transform="matrix(1,0,0,1,406.83079600002964,737.5112499806658) translate(57.34869444444445 54.944)"/><path d="M805.98 728.65h-153.7c-10.56 0-19.2 8.63-19.2 19.25v79.6c0 10.64 8.64 19.26 19.2 19.26h153.7c10.57 0 19.22-8.62 19.22-19.25v-79.6c0-10.62-8.65-19.25-19.22-19.25z" stroke="#000" stroke-width="1.11" fill="url(#o)"/><use xlink:href="#p" transform="matrix(1,0,0,1,641.9087959996825,737.511249980671) translate(65.34172222222222 54.944)"/><path d="M1672.9 546.13h-153.7c-10.55 0-19.2 8.63-19.2 19.26V645c0 10.62 8.65 19.24 19.2 19.24h153.7c10.58 0 19.23-8.62 19.23-19.25v-79.6c0-10.64-8.65-19.27-19.22-19.27z" stroke="#000" fill="url(#q)"/><use xlink:href="#r" transform="matrix(1,0,0,1,1508.837796000032,554.9922499806606) translate(31.42536111111111 54.944)"/><path d="M1624.88 728.65h-153.7c-10.57 0-19.2 8.63-19.2 19.25v79.6c0 10.64 8.63 19.26 19.2 19.26h153.7c10.57 0 19.2-8.62 19.2-19.25v-79.6c0-10.62-8.63-19.25-19.2-19.25z" stroke="#000" stroke-width="1.11" fill="url(#s)"/><use xlink:href="#t" transform="matrix(1,0,0,1,1460.8057959996809,737.5112499806545) translate(27.691166666666675 54.944)"/><path d="M1410.7 728.65H1257c-10.56 0-19.2 8.63-19.2 19.25v79.6c0 10.64 8.64 19.26 19.2 19.26h153.7c10.58 0 19.22-8.62 19.22-19.25v-79.6c0-10.62-8.64-19.25-19.2-19.25z" stroke="#000" stroke-width="1.11" fill="url(#u)"/><use xlink:href="#v" transform="matrix(1,0,0,1,1246.632795999676,737.511249980667) translate(64.6936388888889 54.944)"/><path d="M395.24 546.06l-.6-.94 32.72-20.9h2.06zM493.9 483l-31.1 19.87h-2.07l32.56-20.8z"/><path d="M493.88 483l-.5-.77h1.7zM404.53 527.95l-8.6 17 19.05-.65.04 1.1-6.55.23h-14.12l9.2-18.18z"/><use xlink:href="#i" transform="matrix(1,0,0,1,413.5195544446151,502.87374331638404) translate(0.004999999999999005 14.222222222222223)"/><use xlink:href="#w" transform="matrix(1,0,0,1,413.5195544446151,502.87374331638404) translate(33.58524691358025 14.222222222222223)"/><path d="M494.6 727.1h-1.1v-25.22h1.1zm0-46.55h-1.1V482.78h1.1z"/><path d="M494.6 482.8h-1.1v-.57h1.1zM504.7 710.08l-10.64 18.02-10.66-18.02.95-.57 9.7 16.42 9.7-16.4z"/><use xlink:href="#x" transform="matrix(1,0,0,1,454.59920987654044,680.5503833105801) translate(0.005000000000002558 14.222222222222223)"/><path d="M847.14 544.6l-.66.9-33.56-24.5h1.9zm-61.56-44.94h-1.88l-30.8-22.5.65-.88z"/><path d="M753.56 476.28l-.65.9-.45-.33.66-.9zM847.62 545.63l-20.84-2 .1-1.12 18.98 1.85-7.53-17.5 1.02-.45z"/><use xlink:href="#i" transform="matrix(1,0,0,1,767.6973515491577,499.65646330621615) translate(0.004999999999999005 14.222222222222223)"/><use xlink:href="#w" transform="matrix(1,0,0,1,767.6973515491577,499.65646330621615) translate(33.58524691358025 14.222222222222223)"/><path d="M729.7 727.64h-1.12v-24.97h1.1zm0-244.86v198.55h-1.12V482.78z"/><path d="M729.7 482.8h-1.12v-.57h1.1zM729.13 726.47l9.7-16.4.96.56-10.34 17.47h-.66l-10.33-17.47.96-.56z"/><use xlink:href="#x" transform="matrix(1,0,0,1,689.6763586137222,681.3333406331515) translate(0.005000000000002558 14.222222222222223)"/><path d="M1546.86 544.77l-.37 1.04-55.02-19.8h3.27zm-111.33-40.1h-3.28L1383 486.93l.4-1.04z"/><path d="M1383.02 486.94l-1.98-.72h2.24zM1547.62 545.63l-20.56 3.92-.2-1.1 18.7-3.55-12.13-14.7.85-.7z"/><use xlink:href="#i" transform="matrix(1,0,0,1,1431.9457531895605,504.6664483092831) translate(0.004999999999999005 14.222222222222223)"/><use xlink:href="#w" transform="matrix(1,0,0,1,1431.9457531895605,504.6664483092831) translate(33.58524691358025 14.222222222222223)"/><path d="M1334.4 727.1h-1.1V586.37h1.1zm0-162.05h-1.1v-78.27h1.1z"/><path d="M1334.4 486.8h-1.1v-.58h1.1zM1344.52 710.08l-10.66 18.02-10.66-18.02.95-.57 9.7 16.42 9.7-16.4z"/><use xlink:href="#x" transform="matrix(1,0,0,1,1294.401209876894,565.0485083085471) translate(0.005000000000002558 14.222222222222223)"/><path d="M1500.06 727.5l-1 .5-13.08-27.04h1.23zm-23.17-47.87h-1.24l-93.24-192.67 1-.48z"/><path d="M1383.42 486.5l-1 .47-.36-.75h1.23zM1501.74 707.8l-1.7 20.3h-.88l-16.6-11.03.6-.92 15.9 10.54 1.58-19z"/><use xlink:href="#y" transform="matrix(1,0,0,1,1421.2630003693205,679.6277680013483) translate(0.005000000000002558 14.222222222222223)"/><path d="M570.9 218.15H417.2c-10.56 0-19.2 8.62-19.2 19.25V317c0 10.63 8.64 19.26 19.2 19.26h153.7c10.57 0 19.22-8.63 19.22-19.26v-79.6c0-10.63-8.65-19.25-19.2-19.25z" stroke="#000" stroke-width="1.11" fill="#a5a5a5"/><use xlink:href="#z" transform="matrix(1,0,0,1,406.83079599932853,227.00424995973492) translate(56.114250000000006 54.944)"/><path d="M799.45 277.47H695.2c-.08 0-.14-.06-.14-.13 0-.08-.06-.14-.14-.14h-103.8" fill="none"/><path d="M799.45 277.47h-5.8m-5.8 0H776.3m-5.8 0H758.9m-5.8 0h-11.57m-5.8 0h-11.58m-5.8 0H706.8m-5.8 0h-5.78l-.1-.04-.04-.1-.04-.1-.1-.03h-5.76m-5.77 0h-11.54m-5.77 0h-11.54m-5.77 0h-11.54m-5.77 0h-11.54m-5.77 0h-11.54m-5.77 0h-5.77" stroke="#000" stroke-width="1.11" fill="none"/><path/><path d="M608.7 267.5l-16.4 9.7 16.4 9.7-.56.96-17.47-10.33v-.66l17.47-10.33z"/><path d="M972.9 546.13H819.2c-10.55 0-19.2 8.63-19.2 19.26V645c0 10.62 8.65 19.24 19.2 19.24h153.7c10.58 0 19.23-8.62 19.23-19.25v-79.6c0-10.64-8.65-19.27-19.22-19.27z" stroke="#000" fill="url(#A)"/><use xlink:href="#B" transform="matrix(1,0,0,1,808.8377959996812,554.9922499806659) translate(24.635916666666667 54.944)"/><path d="M1154.02 728.65h-153.7c-10.57 0-19.22 8.63-19.22 19.25v79.6c0 10.64 8.65 19.26 19.2 19.26h153.72c10.56 0 19.2-8.62 19.2-19.25v-79.6c0-10.62-8.64-19.25-19.2-19.25z" stroke="#000" stroke-width="1.11" fill="url(#C)"/><use xlink:href="#D" transform="matrix(1,0,0,1,989.9397959996847,737.5112499806647) translate(21.302916666666675 38.9456)"/><use xlink:href="#E" transform="matrix(1,0,0,1,989.9397959996847,737.5112499806647) translate(72.28547222222223 38.9456)"/><use xlink:href="#F" transform="matrix(1,0,0,1,989.9397959996847,737.5112499806647) translate(41.33177777777777 70.94239999999999)"/><path d="M945.1 545.6l-.92-.6 12.98-19.92h1.32zm39.7-60.9l-12.4 19.04h-1.34l12.8-19.65z"/><path d="M985.1 484.23l-.3.48-.94-.6.3-.47zM946.1 525.26l-.82 19.05 17.1-8.44.48 1-17.75 8.77h-.98l.9-20.4z"/><use xlink:href="#i" transform="matrix(1,0,0,1,933.2153744444445,503.7427833333333) translate(0.004999999999999005 14.222222222222223)"/><use xlink:href="#w" transform="matrix(1,0,0,1,933.2153744444445,503.7427833333333) translate(33.58524691358025 14.222222222222223)"/><path d="M1077.72 727.1h-1.1v-25.77h1.1zm0-47.1h-1.1V482.78h1.1z"/><path d="M1077.72 482.8h-1.1v-.57h1.1zM1087.82 710.08l-10.65 18.02-10.66-18.02.96-.57 9.7 16.42 9.7-16.4z"/><use xlink:href="#y" transform="matrix(1,0,0,1,1016.9921604941773,680) translate(0.005000000000002558 14.222222222222223)"/><path d="M1027.8 419.2l-.6.94-49.17-31.1h2.07zm-81.42-51.5h-2.07l-48.06-30.4.6-.94z"/><path/><path d="M1028.35 420.2l-20.93-.6.03-1.12 19.05.57-8.67-16.97.98-.5z"/><use xlink:href="#i" transform="matrix(1,0,0,1,910.8959846395176,367.7038333167186) translate(0.005000000000002558 14.222222222222223)"/><use xlink:href="#j" transform="matrix(1,0,0,1,910.8959846395176,367.7038333167186) translate(33.58524691358026 14.222222222222223)"/><path d="M1275.57 727.5l-.95.58-16.2-26.7h1.3zm-28.82-47.45h-1.3L1125.8 483l.95-.6z"/><path d="M1126.75 482.42l-.95.58-.47-.77h1.3zM1275.6 728.1h-1.02l-17.43-9.32.52-.98 16.8 9-.2-19.07h1.1z"/><use xlink:href="#x" transform="matrix(1,0,0,1,1213.1250156692936,680.0515279261199) translate(0.005000000000002558 14.222222222222223)"/><path d="M182.05 53.67H28.35c-10.57 0-19.22 8.62-19.22 19.25v79.6c0 10.63 8.65 19.26 19.22 19.26h153.7c10.56 0 19.2-8.63 19.2-19.26v-79.6c0-10.63-8.64-19.25-19.2-19.25z" stroke="#000" stroke-width="1.11" fill="#fff"/><use xlink:href="#G" transform="matrix(1,0,0,1,17.971795999681888,62.52424998066394) translate(40.09733333333333 54.944)"/><path d="M2088.46-93.02h36912.4v1975.27H2088.46z" stroke="#000" stroke-opacity="0" stroke-width="1.67" fill-opacity="0"/><use xlink:href="#H" transform="matrix(1,0,0,1,19.651796000000008,6.841799999999999) translate(12.009083333333336 18.834)"/><use xlink:href="#I" transform="matrix(1,0,0,1,19.651796000000008,6.841799999999999) translate(117.05925 18.834)"/><path d="M30 649.38v-71.02M30 649.37v.57" stroke="#000" stroke-width="1.11" fill="none"/><path d="M30 563.54l4.64 14.27h-9.28z" stroke="#000" stroke-width="1.11" fill="#fff"/><path d="M30 756.47v-86.63" fill="none"/><path d="M30 756.47v-5.78m0-5.78v-11.55m0-5.78v-11.56m0-5.77v-11.55m0-5.78V681.4m0-5.78v-5.78M30 756.45v.57M40.18 687.14L30 669.92l-10.18 17.22" stroke="#000" stroke-width="1.11" fill="none"/><path d="M7978.43 23203.8h27865.3v1975.26H7978.42z" stroke="#000" stroke-opacity="0" stroke-width="1.67" fill-opacity="0"/><use xlink:href="#J" transform="matrix(1,0,0,1,48.29623700000001,592.5087999914194) translate(0 17.944)"/><path d="M8507.4 28070.2h27865.3v1975.28H8507.4z" stroke="#000" stroke-opacity="0" stroke-width="1.67" fill-opacity="0"/><use xlink:href="#K" transform="matrix(1,0,0,1,51.446237,699.5947999914196) translate(0 17.944)"/><path d="M182.05 194.96H28.35c-10.57 0-19.22 8.62-19.22 19.25v79.62c0 10.63 8.65 19.25 19.22 19.25h153.7c10.56 0 19.2-8.62 19.2-19.25v-79.6c0-10.64-8.64-19.26-19.2-19.26z" stroke="#000" stroke-width="1.11" fill="#a5a5a5"/><use xlink:href="#L" transform="matrix(1,0,0,1,17.971795999682108,203.81924998066367) translate(25.901222222222223 54.944)"/><use xlink:href="#M" transform="matrix(1,0,0,1,17.971795999682108,203.81924998066367) translate(93.67222222222222 54.944)"/><path d="M30 857.26v-86.63M30 857.24v.57M40.18 787.93L30 770.7l-10.18 17.23" stroke="#000" stroke-width="1.11" fill="none"/><path d="M8507.4 32650.42h27865.3v1975.27H8507.4z" stroke="#000" stroke-opacity="0" stroke-width="1.67" fill-opacity="0"/><use xlink:href="#N" transform="matrix(1,0,0,1,51.446237,800.3827999914196) translate(0 17.944)"/><path d="M182.05 336.26H28.35c-10.57 0-19.22 8.62-19.22 19.25v79.6c0 10.64 8.65 19.27 19.22 19.27h153.7c10.56 0 19.2-8.63 19.2-19.26v-79.6c0-10.62-8.64-19.24-19.2-19.24z" stroke="#000" stroke-width="1.11" fill="url(#O)"/><use xlink:href="#P" transform="matrix(1,0,0,1,17.971795999681866,345.11424998066366) translate(67.81061111111111 38.9456)"/><use xlink:href="#Q" transform="matrix(1,0,0,1,17.971795999681866,345.11424998066366) translate(4.9465277777777885 70.94239999999999)"/><path d="M183.73 477.55H30.03c-10.57 0-19.22 4.45-19.22 9.95v41.12c0 5.5 8.66 9.94 19.23 9.94h153.7c10.56 0 19.2-4.45 19.2-9.94V487.5c0-5.5-8.64-9.95-19.2-9.95z" stroke="#000" fill="#fff"/><g><use xlink:href="#R" transform="matrix(1,0,0,1,28.105340000000076,486.45875198394896) translate(21.66005555555556 26.444)"/><use xlink:href="#S" transform="matrix(1,0,0,1,28.105340000000076,486.45875198394896) translate(83.32055555555556 26.444)"/></g><path d="M570.9 38.9H417.2c-10.56 0-19.2 8.6-19.2 19.24v79.6c0 10.64 8.64 19.26 19.2 19.26h153.7c10.57 0 19.22-8.62 19.22-19.25v-79.6c0-10.64-8.65-19.26-19.2-19.26z" stroke="#000" stroke-width="1.11" fill="#fff"/><g><use xlink:href="#T" transform="matrix(1,0,0,1,406.8307960000332,47.74824998066394) translate(24.574194444444437 54.944)"/></g><path d="M798.9 97.94H591.67" fill="none"/><path d="M798.9 97.94h-5.78m-5.77 0h-11.53m-5.77 0H758.5m-5.76 0H741.2m-5.76 0H723.9m-5.77 0H706.6m-5.77 0h-11.51m-5.75 0H672.1m-5.76 0h-11.48m-5.75 0h-11.47m-5.74 0h-11.5m-5.74 0h-11.5m-5.73 0h-5.75" stroke="#000" stroke-width="1.11" fill="none"/><path d="M799.45 98.5h-.57v-1.1h.57zM609.26 88.24l-16.4 9.7 16.4 9.7-.56.96-18.02-10.66L608.7 87.3z"/><path d="M570.9 420.7H417.2c-10.56 0-19.2 4.47-19.2 9.96v41.12c0 5.5 8.64 9.95 19.2 9.95h153.7c10.57 0 19.22-4.46 19.22-9.95v-41.12c0-5.5-8.65-9.95-19.2-9.95z" stroke="#000" fill="#fff"/><g><use xlink:href="#R" transform="matrix(1,0,0,1,415.2843399999972,429.6207519716214) translate(21.66005555555556 26.444)"/><use xlink:href="#S" transform="matrix(1,0,0,1,415.2843399999972,429.6207519716214) translate(83.32055555555556 26.444)"/></g><path d="M805.98 420.7h-153.7c-10.56 0-19.2 4.47-19.2 9.96v41.12c0 5.5 8.64 9.95 19.2 9.95h153.7c10.57 0 19.22-4.46 19.22-9.95v-41.12c0-5.5-8.65-9.95-19.22-9.95z" stroke="#000" fill="#fff"/><g><use xlink:href="#R" transform="matrix(1,0,0,1,650.3623400003504,429.62075197162596) translate(21.66005555555556 26.444)"/><use xlink:href="#S" transform="matrix(1,0,0,1,650.3623400003504,429.62075197162596) translate(83.32055555555556 26.444)"/></g><path d="M1154.02 420.7h-153.7c-10.57 0-19.22 4.47-19.22 9.96v41.12c0 5.5 8.65 9.95 19.2 9.95h153.72c10.56 0 19.2-4.46 19.2-9.95v-41.12c0-5.5-8.64-9.95-19.2-9.95z" stroke="#000" fill="#fff"/><g><use xlink:href="#R" transform="matrix(1,0,0,1,998.3933400003502,429.62075197162596) translate(21.66005555555556 26.444)"/><use xlink:href="#S" transform="matrix(1,0,0,1,998.3933400003502,429.62075197162596) translate(83.32055555555556 26.444)"/></g><path d="M1410.7 424.7H1257c-10.56 0-19.2 4.46-19.2 9.95v41.13c0 5.5 8.64 9.94 19.2 9.94h153.7c10.58 0 19.22-4.45 19.22-9.94v-41.13c0-5.5-8.64-9.94-19.2-9.94z" stroke="#000" fill="#fff"/><g><use xlink:href="#R" transform="matrix(1,0,0,1,1255.0863400003507,433.6162519777881) translate(21.66005555555556 26.444)"/><use xlink:href="#S" transform="matrix(1,0,0,1,1255.0863400003507,433.6162519777881) translate(83.32055555555556 26.444)"/></g><defs><linearGradient gradientUnits="userSpaceOnUse" id="a" x1="800" y1="218.42" x2="800" y2="336.53"><stop offset="0%" stop-color="#fff"/><stop offset="20%" stop-color="#fff"/><stop offset="100%" stop-color="#dbdbdb"/></linearGradient><path d="M143 4C61 4 22-44 18-125c-5-107 100-154 193-111 17 8 29 25 37 43l-32 9c-13-25-37-40-76-40-61 0-88 39-88 99 0 61 29 100 91 101 35 0 62-11 79-27v-45h-74v-28h105v86C228-13 192 4 143 4" id="U"/><path d="M205 0l-28-72H64L36 0H1l101-248h38L239 0h-34zm-38-99l-47-123c-12 45-31 82-46 123h93" id="V"/><g id="b"><use transform="matrix(0.06172222222222222,0,0,0.06172222222222222,0,0)" xlink:href="#U"/><use transform="matrix(0.06172222222222222,0,0,0.06172222222222222,17.28222222222222,0)" xlink:href="#V"/></g><path d="M30-248c87 1 191-15 191 75 0 78-77 80-158 76V0H30v-248zm33 125c57 0 124 11 124-50 0-59-68-47-124-48v98" id="W"/><path d="M114-163C36-179 61-72 57 0H25l-1-190h30c1 12-1 29 2 39 6-27 23-49 58-41v29" id="X"/><path d="M100-194c62-1 85 37 85 99 1 63-27 99-86 99S16-35 15-95c0-66 28-99 85-99zM99-20c44 1 53-31 53-75 0-43-8-75-51-75s-53 32-53 75 10 74 51 75" id="Y"/><path d="M101-234c-31-9-42 10-38 44h38v23H63V0H32v-167H5v-23h27c-7-52 17-82 69-68v24" id="Z"/><path d="M24-231v-30h32v30H24zM24 0v-190h32V0H24" id="aa"/><path d="M24 0v-261h32V0H24" id="ab"/><path d="M100-194c63 0 86 42 84 106H49c0 40 14 67 53 68 26 1 43-12 49-29l28 8c-11 28-37 45-77 45C44 4 14-33 15-96c1-61 26-98 85-98zm52 81c6-60-76-77-97-28-3 7-6 17-6 28h103" id="ac"/><g id="c"><use transform="matrix(0.06172222222222222,0,0,0.06172222222222222,0,0)" xlink:href="#W"/><use transform="matrix(0.06172222222222222,0,0,0.06172222222222222,14.813333333333333,0)" xlink:href="#X"/><use transform="matrix(0.06172222222222222,0,0,0.06172222222222222,22.158277777777776,0)" xlink:href="#Y"/><use transform="matrix(0.06172222222222222,0,0,0.06172222222222222,34.50272222222222,0)" xlink:href="#Z"/><use transform="matrix(0.06172222222222222,0,0,0.06172222222222222,40.67494444444444,0)" xlink:href="#aa"/><use transform="matrix(0.06172222222222222,0,0,0.06172222222222222,45.550999999999995,0)" xlink:href="#ab"/><use transform="matrix(0.06172222222222222,0,0,0.06172222222222222,50.42705555555555,0)" xlink:href="#ac"/></g><linearGradient gradientUnits="userSpaceOnUse" id="d" x1="800" y1="38.89" x2="800" y2="157"><stop offset="0%" stop-color="#fff"/><stop offset="20%" stop-color="#fff"/><stop offset="100%" stop-color="#dbdbdb"/></linearGradient><path d="M33 0v-248h34V0H33" id="ad"/><path d="M185-189c-5-48-123-54-124 2 14 75 158 14 163 119 3 78-121 87-175 55-17-10-28-26-33-46l33-7c5 56 141 63 141-1 0-78-155-14-162-118-5-82 145-84 179-34 5 7 8 16 11 25" id="ae"/><path d="M140-251c81 0 123 46 123 126C263-46 219 4 140 4 59 4 17-45 17-125s42-126 123-126zm0 227c63 0 89-41 89-101s-29-99-89-99c-61 0-89 39-89 99S79-25 140-24" id="af"/><path d="M27 0v-27h64v-190l-56 39v-29l58-41h29v221h61V0H27" id="ag"/><path d="M99-251c64 0 84 50 84 122C183-37 130 33 47-8c-14-7-20-23-25-40l30-5c6 39 69 39 84 7 9-19 16-44 16-74-10 22-31 35-62 35-49 0-73-33-73-83 0-54 28-83 82-83zm-1 141c31-1 51-18 51-49 0-36-14-67-51-67-34 0-49 23-49 58 0 34 15 58 49 58" id="ah"/><path d="M54-142c48-35 137-8 131 61C196 18 31 33 14-55l32-4c7 23 22 37 52 37 35-1 51-22 54-58 4-55-73-65-99-34H22l8-134h141v27H59" id="ai"/><path d="M16-82v-28h88v28H16" id="aj"/><path d="M33-154v-36h34v36H33zM33 0v-36h34V0H33" id="ak"/><path d="M101-251c82-7 93 87 43 132L82-64C71-53 59-42 53-27h129V0H18c2-99 128-94 128-182 0-28-16-43-45-43s-46 15-49 41l-32-3c6-41 34-60 81-64" id="al"/><path d="M101-251c68 0 85 55 85 127S166 4 100 4C33 4 14-52 14-124c0-73 17-127 87-127zm-1 229c47 0 54-49 54-102s-4-102-53-102c-51 0-55 48-55 102 0 53 5 102 54 102" id="am"/><path d="M155-56V0h-30v-56H8v-25l114-167h33v167h35v25h-35zm-30-156c-27 46-58 90-88 131h88v-131" id="an"/><g id="e"><use transform="matrix(0.06172222222222222,0,0,0.06172222222222222,0,0)" xlink:href="#ad"/><use transform="matrix(0.06172222222222222,0,0,0.06172222222222222,6.172222222222222,0)" xlink:href="#ae"/><use transform="matrix(0.06172222222222222,0,0,0.06172222222222222,20.985555555555553,0)" xlink:href="#af"/><use transform="matrix(0.06172222222222222,0,0,0.06172222222222222,38.26777777777777,0)" xlink:href="#ag"/><use transform="matrix(0.06172222222222222,0,0,0.06172222222222222,50.612222222222215,0)" xlink:href="#ah"/><use transform="matrix(0.06172222222222222,0,0,0.06172222222222222,62.956666666666656,0)" xlink:href="#ag"/><use transform="matrix(0.06172222222222222,0,0,0.06172222222222222,73.6346111111111,0)" xlink:href="#ag"/><use transform="matrix(0.06172222222222222,0,0,0.06172222222222222,85.97905555555555,0)" xlink:href="#ai"/><use transform="matrix(0.06172222222222222,0,0,0.06172222222222222,98.3235,0)" xlink:href="#aj"/><use transform="matrix(0.06172222222222222,0,0,0.06172222222222222,105.66844444444445,0)" xlink:href="#ag"/><use transform="matrix(0.06172222222222222,0,0,0.06172222222222222,118.0128888888889,0)" xlink:href="#ak"/><use transform="matrix(0.06172222222222222,0,0,0.06172222222222222,124.18511111111111,0)" xlink:href="#al"/><use transform="matrix(0.06172222222222222,0,0,0.06172222222222222,136.52955555555556,0)" xlink:href="#am"/><use transform="matrix(0.06172222222222222,0,0,0.06172222222222222,148.874,0)" xlink:href="#ag"/><use transform="matrix(0.06172222222222222,0,0,0.06172222222222222,161.21844444444443,0)" xlink:href="#an"/></g><path d="M135-143c-3-34-86-38-87 0 15 53 115 12 119 90S17 21 10-45l28-5c4 36 97 45 98 0-10-56-113-15-118-90-4-57 82-63 122-42 12 7 21 19 24 35" id="ao"/><g id="f"><use transform="matrix(0.04938271604938272,0,0,0.04938271604938272,0,0)" xlink:href="#aa"/><use transform="matrix(0.04938271604938272,0,0,0.04938271604938272,3.901234567901235,0)" xlink:href="#ao"/></g><path d="M115-194c55 1 70 41 70 98S169 2 115 4C84 4 66-9 55-30l1 105H24l-1-265h31l2 30c10-21 28-34 59-34zm-8 174c40 0 45-34 45-75s-6-73-45-74c-42 0-51 32-51 76 0 43 10 73 51 73" id="ap"/><g id="g"><use transform="matrix(0.04938271604938272,0,0,0.04938271604938272,0,0)" xlink:href="#ap"/><use transform="matrix(0.04938271604938272,0,0,0.04938271604938272,9.876543209876544,0)" xlink:href="#X"/><use transform="matrix(0.04938271604938272,0,0,0.04938271604938272,15.753086419753087,0)" xlink:href="#Y"/><use transform="matrix(0.04938271604938272,0,0,0.04938271604938272,25.629629629629633,0)" xlink:href="#Z"/><use transform="matrix(0.04938271604938272,0,0,0.04938271604938272,30.567901234567906,0)" xlink:href="#aa"/><use transform="matrix(0.04938271604938272,0,0,0.04938271604938272,34.46913580246914,0)" xlink:href="#ab"/><use transform="matrix(0.04938271604938272,0,0,0.04938271604938272,38.370370370370374,0)" xlink:href="#ac"/></g><g id="h"><use transform="matrix(0.04938271604938272,0,0,0.04938271604938272,0,0)" xlink:href="#Y"/><use transform="matrix(0.04938271604938272,0,0,0.04938271604938272,9.876543209876544,0)" xlink:href="#Z"/></g><path d="M106-169C34-169 62-67 57 0H25v-261h32l-1 103c12-21 28-36 61-36 89 0 53 116 60 194h-32v-121c2-32-8-49-39-48" id="aq"/><path d="M141-36C126-15 110 5 73 4 37 3 15-17 15-53c-1-64 63-63 125-63 3-35-9-54-41-54-24 1-41 7-42 31l-33-3c5-37 33-52 76-52 45 0 72 20 72 64v82c-1 20 7 32 28 27v20c-31 9-61-2-59-35zM48-53c0 20 12 33 32 33 41-3 63-29 60-74-43 2-92-5-92 41" id="ar"/><g id="i"><use transform="matrix(0.04938271604938272,0,0,0.04938271604938272,0,0)" xlink:href="#aq"/><use transform="matrix(0.04938271604938272,0,0,0.04938271604938272,9.876543209876544,0)" xlink:href="#ar"/><use transform="matrix(0.04938271604938272,0,0,0.04938271604938272,19.75308641975309,0)" xlink:href="#ao"/></g><path d="M84 4C-5 8 30-112 23-190h32v120c0 31 7 50 39 49 72-2 45-101 50-169h31l1 190h-30c-1-10 1-25-2-33-11 22-28 36-60 37" id="as"/><path d="M96-169c-40 0-48 33-48 73s9 75 48 75c24 0 41-14 43-38l32 2c-6 37-31 61-74 61-59 0-76-41-82-99-10-93 101-131 147-64 4 7 5 14 7 22l-32 3c-4-21-16-35-41-35" id="at"/><g id="j"><use transform="matrix(0.04938271604938272,0,0,0.04938271604938272,0,0)" xlink:href="#X"/><use transform="matrix(0.04938271604938272,0,0,0.04938271604938272,5.8765432098765435,0)" xlink:href="#ac"/><use transform="matrix(0.04938271604938272,0,0,0.04938271604938272,15.753086419753087,0)" xlink:href="#ao"/><use transform="matrix(0.04938271604938272,0,0,0.04938271604938272,24.641975308641978,0)" xlink:href="#Y"/><use transform="matrix(0.04938271604938272,0,0,0.04938271604938272,34.51851851851852,0)" xlink:href="#as"/><use transform="matrix(0.04938271604938272,0,0,0.04938271604938272,44.39506172839506,0)" xlink:href="#X"/><use transform="matrix(0.04938271604938272,0,0,0.04938271604938272,50.27160493827161,0)" xlink:href="#at"/><use transform="matrix(0.04938271604938272,0,0,0.04938271604938272,59.1604938271605,0)" xlink:href="#ac"/></g><linearGradient gradientUnits="userSpaceOnUse" id="k" x1="250" y1="546.13" x2="250" y2="664.24"><stop offset="0%" stop-color="#fff"/><stop offset="20%" stop-color="#fff"/><stop offset="100%" stop-color="#dbdbdb"/></linearGradient><path d="M85-194c31 0 48 13 60 33l-1-100h32l1 261h-30c-2-10 0-23-3-31C134-8 116 4 85 4 32 4 16-35 15-94c0-66 23-100 70-100zm9 24c-40 0-46 34-46 75 0 40 6 74 45 74 42 0 51-32 51-76 0-42-9-74-50-73" id="au"/><path d="M117-194c89-4 53 116 60 194h-32v-121c0-31-8-49-39-48C34-167 62-67 57 0H25l-1-190h30c1 10-1 24 2 32 11-22 29-35 61-36" id="av"/><g id="l"><use transform="matrix(0.06172222222222222,0,0,0.06172222222222222,0,0)" xlink:href="#U"/><use transform="matrix(0.06172222222222222,0,0,0.06172222222222222,17.28222222222222,0)" xlink:href="#as"/><use transform="matrix(0.06172222222222222,0,0,0.06172222222222222,29.626666666666665,0)" xlink:href="#aa"/><use transform="matrix(0.06172222222222222,0,0,0.06172222222222222,34.50272222222222,0)" xlink:href="#au"/><use transform="matrix(0.06172222222222222,0,0,0.06172222222222222,46.84716666666666,0)" xlink:href="#ar"/><use transform="matrix(0.06172222222222222,0,0,0.06172222222222222,59.1916111111111,0)" xlink:href="#av"/><use transform="matrix(0.06172222222222222,0,0,0.06172222222222222,71.53605555555555,0)" xlink:href="#at"/><use transform="matrix(0.06172222222222222,0,0,0.06172222222222222,82.64605555555555,0)" xlink:href="#ac"/></g><linearGradient gradientUnits="userSpaceOnUse" id="m" x1="397.99" y1="728.65" x2="397.99" y2="846.76"><stop offset="0%" stop-color="#fff"/><stop offset="20%" stop-color="#fff"/><stop offset="100%" stop-color="#dbdbdb"/></linearGradient><path d="M197 0v-115H63V0H30v-248h33v105h134v-105h34V0h-34" id="aw"/><path d="M127-220V0H93v-220H8v-28h204v28h-85" id="ax"/><path d="M240 0l2-218c-23 76-54 145-80 218h-23L58-218 59 0H30v-248h44l77 211c21-75 51-140 76-211h43V0h-30" id="ay"/><path d="M30 0v-248h33v221h125V0H30" id="az"/><g id="n"><use transform="matrix(0.06172222222222222,0,0,0.06172222222222222,0,0)" xlink:href="#aw"/><use transform="matrix(0.06172222222222222,0,0,0.06172222222222222,15.986055555555556,0)" xlink:href="#ax"/><use transform="matrix(0.06172222222222222,0,0,0.06172222222222222,29.50322222222222,0)" xlink:href="#ay"/><use transform="matrix(0.06172222222222222,0,0,0.06172222222222222,47.95816666666666,0)" xlink:href="#az"/></g><linearGradient gradientUnits="userSpaceOnUse" id="o" x1="633.07" y1="728.65" x2="633.07" y2="846.76"><stop offset="0%" stop-color="#fff"/><stop offset="20%" stop-color="#fff"/><stop offset="100%" stop-color="#dbdbdb"/></linearGradient><path d="M30-248c118-7 216 8 213 122C240-48 200 0 122 0H30v-248zM63-27c89 8 146-16 146-99s-60-101-146-95v194" id="aA"/><path d="M63-220v92h138v28H63V0H30v-248h175v28H63" id="aB"/><g id="p"><use transform="matrix(0.06172222222222222,0,0,0.06172222222222222,0,0)" xlink:href="#W"/><use transform="matrix(0.06172222222222222,0,0,0.06172222222222222,14.813333333333333,0)" xlink:href="#aA"/><use transform="matrix(0.06172222222222222,0,0,0.06172222222222222,30.79938888888889,0)" xlink:href="#aB"/></g><linearGradient gradientUnits="userSpaceOnUse" id="q" x1="1500" y1="546.13" x2="1500" y2="664.24"><stop offset="0%" stop-color="#fff"/><stop offset="20%" stop-color="#fff"/><stop offset="100%" stop-color="#dbdbdb"/></linearGradient><path d="M212-179c-10-28-35-45-73-45-59 0-87 40-87 99 0 60 29 101 89 101 43 0 62-24 78-52l27 14C228-24 195 4 139 4 59 4 22-46 18-125c-6-104 99-153 187-111 19 9 31 26 39 46" id="aC"/><path d="M59-47c-2 24 18 29 38 22v24C64 9 27 4 27-40v-127H5v-23h24l9-43h21v43h35v23H59v120" id="aD"/><g id="r"><use transform="matrix(0.06172222222222222,0,0,0.06172222222222222,0,0)" xlink:href="#aC"/><use transform="matrix(0.06172222222222222,0,0,0.06172222222222222,15.986055555555556,0)" xlink:href="#Y"/><use transform="matrix(0.06172222222222222,0,0,0.06172222222222222,28.3305,0)" xlink:href="#av"/><use transform="matrix(0.06172222222222222,0,0,0.06172222222222222,40.67494444444444,0)" xlink:href="#ao"/><use transform="matrix(0.06172222222222222,0,0,0.06172222222222222,51.78494444444444,0)" xlink:href="#aD"/><use transform="matrix(0.06172222222222222,0,0,0.06172222222222222,57.957166666666666,0)" xlink:href="#X"/><use transform="matrix(0.06172222222222222,0,0,0.06172222222222222,65.30211111111112,0)" xlink:href="#ar"/><use transform="matrix(0.06172222222222222,0,0,0.06172222222222222,77.64655555555557,0)" xlink:href="#aa"/><use transform="matrix(0.06172222222222222,0,0,0.06172222222222222,82.52261111111112,0)" xlink:href="#av"/><use transform="matrix(0.06172222222222222,0,0,0.06172222222222222,94.86705555555557,0)" xlink:href="#aD"/><use transform="matrix(0.06172222222222222,0,0,0.06172222222222222,101.03927777777778,0)" xlink:href="#ao"/></g><linearGradient gradientUnits="userSpaceOnUse" id="s" x1="1451.97" y1="728.65" x2="1451.97" y2="846.76"><stop offset="0%" stop-color="#fff"/><stop offset="20%" stop-color="#fff"/><stop offset="100%" stop-color="#dbdbdb"/></linearGradient><path d="M210-169c-67 3-38 105-44 169h-31v-121c0-29-5-50-35-48C34-165 62-65 56 0H25l-1-190h30c1 10-1 24 2 32 10-44 99-50 107 0 11-21 27-35 58-36 85-2 47 119 55 194h-31v-121c0-29-5-49-35-48" id="aE"/><g id="t"><use transform="matrix(0.06172222222222222,0,0,0.06172222222222222,0,0)" xlink:href="#ae"/><use transform="matrix(0.06172222222222222,0,0,0.06172222222222222,14.813333333333333,0)" xlink:href="#at"/><use transform="matrix(0.06172222222222222,0,0,0.06172222222222222,25.923333333333332,0)" xlink:href="#aq"/><use transform="matrix(0.06172222222222222,0,0,0.06172222222222222,38.26777777777777,0)" xlink:href="#ac"/><use transform="matrix(0.06172222222222222,0,0,0.06172222222222222,50.612222222222215,0)" xlink:href="#aE"/><use transform="matrix(0.06172222222222222,0,0,0.06172222222222222,69.06716666666665,0)" xlink:href="#ar"/><use transform="matrix(0.06172222222222222,0,0,0.06172222222222222,81.4116111111111,0)" xlink:href="#aD"/><use transform="matrix(0.06172222222222222,0,0,0.06172222222222222,87.58383333333332,0)" xlink:href="#X"/><use transform="matrix(0.06172222222222222,0,0,0.06172222222222222,94.92877777777775,0)" xlink:href="#Y"/><use transform="matrix(0.06172222222222222,0,0,0.06172222222222222,107.2732222222222,0)" xlink:href="#av"/></g><linearGradient gradientUnits="userSpaceOnUse" id="u" x1="1237.79" y1="728.65" x2="1237.79" y2="846.76"><stop offset="0%" stop-color="#fff"/><stop offset="20%" stop-color="#fff"/><stop offset="100%" stop-color="#dbdbdb"/></linearGradient><path d="M195 0l-74-108L45 0H8l94-129-87-119h37l69 98 67-98h37l-84 118L233 0h-38" id="aF"/><g id="v"><use transform="matrix(0.06172222222222222,0,0,0.06172222222222222,0,0)" xlink:href="#aF"/><use transform="matrix(0.06172222222222222,0,0,0.06172222222222222,14.813333333333333,0)" xlink:href="#ay"/><use transform="matrix(0.06172222222222222,0,0,0.06172222222222222,33.268277777777776,0)" xlink:href="#az"/></g><g id="w"><use transform="matrix(0.04938271604938272,0,0,0.04938271604938272,0,0)" xlink:href="#X"/><use transform="matrix(0.04938271604938272,0,0,0.04938271604938272,5.8765432098765435,0)" xlink:href="#Y"/><use transform="matrix(0.04938271604938272,0,0,0.04938271604938272,15.753086419753087,0)" xlink:href="#ab"/><use transform="matrix(0.04938271604938272,0,0,0.04938271604938272,19.654320987654323,0)" xlink:href="#ac"/></g><g id="x"><use transform="matrix(0.04938271604938272,0,0,0.04938271604938272,0,0)" xlink:href="#au"/><use transform="matrix(0.04938271604938272,0,0,0.04938271604938272,9.876543209876544,0)" xlink:href="#at"/><use transform="matrix(0.04938271604938272,0,0,0.04938271604938272,18.765432098765434,0)" xlink:href="#aD"/><use transform="matrix(0.04938271604938272,0,0,0.04938271604938272,23.703703703703706,0)" xlink:href="#ak"/><use transform="matrix(0.04938271604938272,0,0,0.04938271604938272,28.641975308641978,0)" xlink:href="#Z"/><use transform="matrix(0.04938271604938272,0,0,0.04938271604938272,33.580246913580254,0)" xlink:href="#Y"/><use transform="matrix(0.04938271604938272,0,0,0.04938271604938272,43.4567901234568,0)" xlink:href="#X"/><use transform="matrix(0.04938271604938272,0,0,0.04938271604938272,49.33333333333334,0)" xlink:href="#aE"/><use transform="matrix(0.04938271604938272,0,0,0.04938271604938272,64.09876543209877,0)" xlink:href="#ar"/><use transform="matrix(0.04938271604938272,0,0,0.04938271604938272,73.97530864197532,0)" xlink:href="#aD"/></g><g id="y"><use transform="matrix(0.04938271604938272,0,0,0.04938271604938272,0,0)" xlink:href="#au"/><use transform="matrix(0.04938271604938272,0,0,0.04938271604938272,9.876543209876544,0)" xlink:href="#at"/><use transform="matrix(0.04938271604938272,0,0,0.04938271604938272,18.765432098765434,0)" xlink:href="#aD"/><use transform="matrix(0.04938271604938272,0,0,0.04938271604938272,23.703703703703706,0)" xlink:href="#ak"/><use transform="matrix(0.04938271604938272,0,0,0.04938271604938272,28.641975308641978,0)" xlink:href="#at"/><use transform="matrix(0.04938271604938272,0,0,0.04938271604938272,37.53086419753087,0)" xlink:href="#Y"/><use transform="matrix(0.04938271604938272,0,0,0.04938271604938272,47.40740740740741,0)" xlink:href="#av"/><use transform="matrix(0.04938271604938272,0,0,0.04938271604938272,57.283950617283956,0)" xlink:href="#Z"/><use transform="matrix(0.04938271604938272,0,0,0.04938271604938272,62.22222222222223,0)" xlink:href="#Y"/><use transform="matrix(0.04938271604938272,0,0,0.04938271604938272,72.09876543209877,0)" xlink:href="#X"/><use transform="matrix(0.04938271604938272,0,0,0.04938271604938272,77.97530864197532,0)" xlink:href="#aE"/><use transform="matrix(0.04938271604938272,0,0,0.04938271604938272,92.74074074074075,0)" xlink:href="#ao"/><use transform="matrix(0.04938271604938272,0,0,0.04938271604938272,101.62962962962963,0)" xlink:href="#ax"/><use transform="matrix(0.04938271604938272,0,0,0.04938271604938272,110.46913580246914,0)" xlink:href="#Y"/></g><g id="z"><use transform="matrix(0.06172222222222222,0,0,0.06172222222222222,0,0)" xlink:href="#W"/><use transform="matrix(0.06172222222222222,0,0,0.06172222222222222,14.813333333333333,0)" xlink:href="#X"/><use transform="matrix(0.06172222222222222,0,0,0.06172222222222222,22.158277777777776,0)" xlink:href="#Y"/><use transform="matrix(0.06172222222222222,0,0,0.06172222222222222,34.50272222222222,0)" xlink:href="#Z"/><use transform="matrix(0.06172222222222222,0,0,0.06172222222222222,40.67494444444444,0)" xlink:href="#aa"/><use transform="matrix(0.06172222222222222,0,0,0.06172222222222222,45.550999999999995,0)" xlink:href="#ab"/><use transform="matrix(0.06172222222222222,0,0,0.06172222222222222,50.42705555555555,0)" xlink:href="#ac"/></g><linearGradient gradientUnits="userSpaceOnUse" id="A" x1="800" y1="546.13" x2="800" y2="664.24"><stop offset="0%" stop-color="#fff"/><stop offset="20%" stop-color="#fff"/><stop offset="100%" stop-color="#dbdbdb"/></linearGradient><g id="B"><use transform="matrix(0.06172222222222222,0,0,0.06172222222222222,0,0)" xlink:href="#ae"/><use transform="matrix(0.06172222222222222,0,0,0.06172222222222222,14.813333333333333,0)" xlink:href="#ap"/><use transform="matrix(0.06172222222222222,0,0,0.06172222222222222,27.157777777777774,0)" xlink:href="#ac"/><use transform="matrix(0.06172222222222222,0,0,0.06172222222222222,39.502222222222215,0)" xlink:href="#at"/><use transform="matrix(0.06172222222222222,0,0,0.06172222222222222,50.612222222222215,0)" xlink:href="#aa"/><use transform="matrix(0.06172222222222222,0,0,0.06172222222222222,55.48827777777777,0)" xlink:href="#Z"/><use transform="matrix(0.06172222222222222,0,0,0.06172222222222222,61.66049999999999,0)" xlink:href="#aa"/><use transform="matrix(0.06172222222222222,0,0,0.06172222222222222,66.53655555555555,0)" xlink:href="#at"/><use transform="matrix(0.06172222222222222,0,0,0.06172222222222222,77.64655555555555,0)" xlink:href="#ar"/><use transform="matrix(0.06172222222222222,0,0,0.06172222222222222,89.991,0)" xlink:href="#aD"/><use transform="matrix(0.06172222222222222,0,0,0.06172222222222222,96.16322222222222,0)" xlink:href="#aa"/><use transform="matrix(0.06172222222222222,0,0,0.06172222222222222,101.03927777777777,0)" xlink:href="#Y"/><use transform="matrix(0.06172222222222222,0,0,0.06172222222222222,113.38372222222222,0)" xlink:href="#av"/></g><linearGradient gradientUnits="userSpaceOnUse" id="C" x1="981.1" y1="728.65" x2="981.1" y2="846.76"><stop offset="0%" stop-color="#fff"/><stop offset="20%" stop-color="#fff"/><stop offset="100%" stop-color="#dbdbdb"/></linearGradient><g id="D"><use transform="matrix(0.06172222222222222,0,0,0.06172222222222222,0,0)" xlink:href="#aF"/><use transform="matrix(0.06172222222222222,0,0,0.06172222222222222,14.813333333333333,0)" xlink:href="#ay"/><use transform="matrix(0.06172222222222222,0,0,0.06172222222222222,33.268277777777776,0)" xlink:href="#az"/></g><g id="E"><use transform="matrix(0.06172222222222222,0,0,0.06172222222222222,0,0)" xlink:href="#ae"/><use transform="matrix(0.06172222222222222,0,0,0.06172222222222222,14.813333333333333,0)" xlink:href="#at"/><use transform="matrix(0.06172222222222222,0,0,0.06172222222222222,25.923333333333332,0)" xlink:href="#aq"/><use transform="matrix(0.06172222222222222,0,0,0.06172222222222222,38.26777777777777,0)" xlink:href="#ac"/><use transform="matrix(0.06172222222222222,0,0,0.06172222222222222,50.612222222222215,0)" xlink:href="#aE"/><use transform="matrix(0.06172222222222222,0,0,0.06172222222222222,69.06716666666665,0)" xlink:href="#ar"/></g><g id="F"><use transform="matrix(0.06172222222222222,0,0,0.06172222222222222,0,0)" xlink:href="#aA"/><use transform="matrix(0.06172222222222222,0,0,0.06172222222222222,15.986055555555556,0)" xlink:href="#ac"/><use transform="matrix(0.06172222222222222,0,0,0.06172222222222222,28.3305,0)" xlink:href="#Z"/><use transform="matrix(0.06172222222222222,0,0,0.06172222222222222,34.502722222222225,0)" xlink:href="#aa"/><use transform="matrix(0.06172222222222222,0,0,0.06172222222222222,39.37877777777778,0)" xlink:href="#av"/><use transform="matrix(0.06172222222222222,0,0,0.06172222222222222,51.72322222222222,0)" xlink:href="#aa"/><use transform="matrix(0.06172222222222222,0,0,0.06172222222222222,56.59927777777777,0)" xlink:href="#aD"/><use transform="matrix(0.06172222222222222,0,0,0.06172222222222222,62.771499999999996,0)" xlink:href="#aa"/><use transform="matrix(0.06172222222222222,0,0,0.06172222222222222,67.64755555555556,0)" xlink:href="#Y"/><use transform="matrix(0.06172222222222222,0,0,0.06172222222222222,79.992,0)" xlink:href="#av"/></g><path d="M206 0h-36l-40-164L89 0H53L-1-190h32L70-26l43-164h34l41 164 42-164h31" id="aG"/><g id="G"><use transform="matrix(0.06172222222222222,0,0,0.06172222222222222,0,0)" xlink:href="#Y"/><use transform="matrix(0.06172222222222222,0,0,0.06172222222222222,12.344444444444443,0)" xlink:href="#aG"/><use transform="matrix(0.06172222222222222,0,0,0.06172222222222222,28.3305,0)" xlink:href="#ab"/><use transform="matrix(0.06172222222222222,0,0,0.06172222222222222,33.20655555555555,0)" xlink:href="#ak"/><use transform="matrix(0.06172222222222222,0,0,0.06172222222222222,39.37877777777778,0)" xlink:href="#aC"/><use transform="matrix(0.06172222222222222,0,0,0.06172222222222222,55.36483333333334,0)" xlink:href="#ab"/><use transform="matrix(0.06172222222222222,0,0,0.06172222222222222,60.24088888888889,0)" xlink:href="#ar"/><use transform="matrix(0.06172222222222222,0,0,0.06172222222222222,72.58533333333334,0)" xlink:href="#ao"/><use transform="matrix(0.06172222222222222,0,0,0.06172222222222222,83.69533333333334,0)" xlink:href="#ao"/></g><path d="M30 0v-248h187v28H63v79h144v27H63v87h162V0H30" id="aH"/><g id="H"><use transform="matrix(0.07408333333333333,0,0,0.07408333333333333,0,0)" xlink:href="#aH"/><use transform="matrix(0.07408333333333333,0,0,0.07408333333333333,17.78,0)" xlink:href="#ab"/><use transform="matrix(0.07408333333333333,0,0,0.07408333333333333,23.632583333333336,0)" xlink:href="#ac"/><use transform="matrix(0.07408333333333333,0,0,0.07408333333333333,38.449250000000006,0)" xlink:href="#aE"/><use transform="matrix(0.07408333333333333,0,0,0.07408333333333333,60.600166666666674,0)" xlink:href="#ac"/><use transform="matrix(0.07408333333333333,0,0,0.07408333333333333,75.41683333333334,0)" xlink:href="#av"/><use transform="matrix(0.07408333333333333,0,0,0.07408333333333333,90.2335,0)" xlink:href="#aD"/><path d="M-1.33 1.85H106.4V3.8H-1.34z"/></g><path d="M194 0L95-120 63-95V0H30v-248h33v124l119-124h40L117-140 236 0h-42" id="aI"/><path d="M179-190L93 31C79 59 56 82 12 73V49c39 6 53-20 64-50L1-190h34L92-34l54-156h33" id="aJ"/><g id="I"><use transform="matrix(0.07408333333333333,0,0,0.07408333333333333,0,0)" xlink:href="#aI"/><use transform="matrix(0.07408333333333333,0,0,0.07408333333333333,17.78,0)" xlink:href="#ac"/><use transform="matrix(0.07408333333333333,0,0,0.07408333333333333,32.596666666666664,0)" xlink:href="#aJ"/><path d="M-1.33 1.85h48.6V3.8h-48.6z"/></g><path d="M115-194c53 0 69 39 70 98 0 66-23 100-70 100C84 3 66-7 56-30L54 0H23l1-261h32v101c10-23 28-34 59-34zm-8 174c40 0 45-34 45-75 0-40-5-75-45-74-42 0-51 32-51 76 0 43 10 73 51 73" id="aK"/><g id="J"><use transform="matrix(0.06172222222222222,0,0,0.06172222222222222,0,0)" xlink:href="#X"/><use transform="matrix(0.06172222222222222,0,0,0.06172222222222222,7.344944444444444,0)" xlink:href="#au"/><use transform="matrix(0.06172222222222222,0,0,0.06172222222222222,19.689388888888885,0)" xlink:href="#Z"/><use transform="matrix(0.06172222222222222,0,0,0.06172222222222222,25.861611111111106,0)" xlink:href="#ao"/><use transform="matrix(0.06172222222222222,0,0,0.06172222222222222,36.9716111111111,0)" xlink:href="#ak"/><use transform="matrix(0.06172222222222222,0,0,0.06172222222222222,43.143833333333326,0)" xlink:href="#ao"/><use transform="matrix(0.06172222222222222,0,0,0.06172222222222222,54.253833333333326,0)" xlink:href="#as"/><use transform="matrix(0.06172222222222222,0,0,0.06172222222222222,66.59827777777777,0)" xlink:href="#aK"/><use transform="matrix(0.06172222222222222,0,0,0.06172222222222222,78.94272222222222,0)" xlink:href="#aC"/><use transform="matrix(0.06172222222222222,0,0,0.06172222222222222,94.92877777777777,0)" xlink:href="#ab"/><use transform="matrix(0.06172222222222222,0,0,0.06172222222222222,99.80483333333332,0)" xlink:href="#ar"/><use transform="matrix(0.06172222222222222,0,0,0.06172222222222222,112.14927777777777,0)" xlink:href="#ao"/><use transform="matrix(0.06172222222222222,0,0,0.06172222222222222,123.25927777777777,0)" xlink:href="#ao"/><use transform="matrix(0.06172222222222222,0,0,0.06172222222222222,134.36927777777777,0)" xlink:href="#af"/><use transform="matrix(0.06172222222222222,0,0,0.06172222222222222,151.6515,0)" xlink:href="#Z"/></g><g id="K"><use transform="matrix(0.06172222222222222,0,0,0.06172222222222222,0,0)" xlink:href="#X"/><use transform="matrix(0.06172222222222222,0,0,0.06172222222222222,7.344944444444444,0)" xlink:href="#au"/><use transform="matrix(0.06172222222222222,0,0,0.06172222222222222,19.689388888888885,0)" xlink:href="#Z"/><use transform="matrix(0.06172222222222222,0,0,0.06172222222222222,25.861611111111106,0)" xlink:href="#ak"/><use transform="matrix(0.06172222222222222,0,0,0.06172222222222222,32.03383333333333,0)" xlink:href="#aD"/><use transform="matrix(0.06172222222222222,0,0,0.06172222222222222,38.20605555555555,0)" xlink:href="#aJ"/><use transform="matrix(0.06172222222222222,0,0,0.06172222222222222,49.31605555555555,0)" xlink:href="#ap"/><use transform="matrix(0.06172222222222222,0,0,0.06172222222222222,61.66049999999999,0)" xlink:href="#ac"/></g><path d="M233-177c-1 41-23 64-60 70L243 0h-38l-65-103H63V0H30v-248c88 3 205-21 203 71zM63-129c60-2 137 13 137-47 0-61-80-42-137-45v92" id="aL"/><g id="L"><use transform="matrix(0.06172222222222222,0,0,0.06172222222222222,0,0)" xlink:href="#W"/><use transform="matrix(0.06172222222222222,0,0,0.06172222222222222,14.813333333333333,0)" xlink:href="#aL"/><use transform="matrix(0.06172222222222222,0,0,0.06172222222222222,30.79938888888889,0)" xlink:href="#af"/><use transform="matrix(0.06172222222222222,0,0,0.06172222222222222,48.08161111111111,0)" xlink:href="#aB"/></g><g id="M"><use transform="matrix(0.06172222222222222,0,0,0.06172222222222222,0,0)" xlink:href="#aC"/><use transform="matrix(0.06172222222222222,0,0,0.06172222222222222,15.986055555555556,0)" xlink:href="#ab"/><use transform="matrix(0.06172222222222222,0,0,0.06172222222222222,20.862111111111112,0)" xlink:href="#ar"/><use transform="matrix(0.06172222222222222,0,0,0.06172222222222222,33.20655555555555,0)" xlink:href="#ao"/><use transform="matrix(0.06172222222222222,0,0,0.06172222222222222,44.31655555555555,0)" xlink:href="#ao"/></g><g id="N"><use transform="matrix(0.06172222222222222,0,0,0.06172222222222222,0,0)" xlink:href="#X"/><use transform="matrix(0.06172222222222222,0,0,0.06172222222222222,7.344944444444444,0)" xlink:href="#au"/><use transform="matrix(0.06172222222222222,0,0,0.06172222222222222,19.689388888888885,0)" xlink:href="#Z"/><use transform="matrix(0.06172222222222222,0,0,0.06172222222222222,25.861611111111106,0)" xlink:href="#ak"/><use transform="matrix(0.06172222222222222,0,0,0.06172222222222222,32.03383333333333,0)" xlink:href="#ap"/><use transform="matrix(0.06172222222222222,0,0,0.06172222222222222,44.37827777777777,0)" xlink:href="#X"/><use transform="matrix(0.06172222222222222,0,0,0.06172222222222222,51.72322222222221,0)" xlink:href="#Y"/><use transform="matrix(0.06172222222222222,0,0,0.06172222222222222,64.06766666666665,0)" xlink:href="#ap"/><use transform="matrix(0.06172222222222222,0,0,0.06172222222222222,76.4121111111111,0)" xlink:href="#ac"/><use transform="matrix(0.06172222222222222,0,0,0.06172222222222222,88.75655555555555,0)" xlink:href="#X"/><use transform="matrix(0.06172222222222222,0,0,0.06172222222222222,96.10149999999999,0)" xlink:href="#aD"/><use transform="matrix(0.06172222222222222,0,0,0.06172222222222222,102.2737222222222,0)" xlink:href="#aJ"/></g><linearGradient gradientUnits="userSpaceOnUse" id="O" x1="9.13" y1="336.26" x2="9.13" y2="454.37"><stop offset="0%" stop-color="#fff"/><stop offset="12.18%" stop-color="#fff"/><stop offset="100%" stop-color="#dbdbdb"/></linearGradient><g id="P"><use transform="matrix(0.06172222222222222,0,0,0.06172222222222222,0,0)" xlink:href="#Y"/><use transform="matrix(0.06172222222222222,0,0,0.06172222222222222,12.344444444444443,0)" xlink:href="#aG"/><use transform="matrix(0.06172222222222222,0,0,0.06172222222222222,28.3305,0)" xlink:href="#ab"/><use transform="matrix(0.06172222222222222,0,0,0.06172222222222222,33.20655555555555,0)" xlink:href="#ak"/></g><path d="M190 0L58-211 59 0H30v-248h39L202-35l-2-213h31V0h-41" id="aM"/><path d="M108 0H70L1-190h34L89-25l56-165h34" id="aN"/><g id="Q"><use transform="matrix(0.06172222222222222,0,0,0.06172222222222222,0,0)" xlink:href="#aM"/><use transform="matrix(0.06172222222222222,0,0,0.06172222222222222,15.986055555555556,0)" xlink:href="#ar"/><use transform="matrix(0.06172222222222222,0,0,0.06172222222222222,28.3305,0)" xlink:href="#aE"/><use transform="matrix(0.06172222222222222,0,0,0.06172222222222222,46.785444444444444,0)" xlink:href="#ac"/><use transform="matrix(0.06172222222222222,0,0,0.06172222222222222,59.129888888888885,0)" xlink:href="#au"/><use transform="matrix(0.06172222222222222,0,0,0.06172222222222222,71.47433333333333,0)" xlink:href="#ad"/><use transform="matrix(0.06172222222222222,0,0,0.06172222222222222,77.64655555555555,0)" xlink:href="#av"/><use transform="matrix(0.06172222222222222,0,0,0.06172222222222222,89.991,0)" xlink:href="#au"/><use transform="matrix(0.06172222222222222,0,0,0.06172222222222222,102.33544444444445,0)" xlink:href="#aa"/><use transform="matrix(0.06172222222222222,0,0,0.06172222222222222,107.2115,0)" xlink:href="#aN"/><use transform="matrix(0.06172222222222222,0,0,0.06172222222222222,118.3215,0)" xlink:href="#aa"/><use transform="matrix(0.06172222222222222,0,0,0.06172222222222222,123.19755555555555,0)" xlink:href="#au"/><use transform="matrix(0.06172222222222222,0,0,0.06172222222222222,135.542,0)" xlink:href="#as"/><use transform="matrix(0.06172222222222222,0,0,0.06172222222222222,147.88644444444444,0)" xlink:href="#ar"/><use transform="matrix(0.06172222222222222,0,0,0.06172222222222222,160.23088888888887,0)" xlink:href="#ab"/></g><path d="M160-131c35 5 61 23 61 61C221 17 115-2 30 0v-248c76 3 177-17 177 60 0 33-19 50-47 57zm-97-11c50-1 110 9 110-42 0-47-63-36-110-37v79zm0 115c55-2 124 14 124-45 0-56-70-42-124-44v89" id="aO"/><path d="M143 0L79-87 56-68V0H24v-261h32v163l83-92h37l-77 82L181 0h-38" id="aP"/><g id="R"><use transform="matrix(0.06172222222222222,0,0,0.06172222222222222,0,0)" xlink:href="#aO"/><use transform="matrix(0.06172222222222222,0,0,0.06172222222222222,14.813333333333333,0)" xlink:href="#ab"/><use transform="matrix(0.06172222222222222,0,0,0.06172222222222222,19.68938888888889,0)" xlink:href="#ar"/><use transform="matrix(0.06172222222222222,0,0,0.06172222222222222,32.033833333333334,0)" xlink:href="#av"/><use transform="matrix(0.06172222222222222,0,0,0.06172222222222222,44.378277777777775,0)" xlink:href="#aP"/></g><g id="S"><use transform="matrix(0.06172222222222222,0,0,0.06172222222222222,0,0)" xlink:href="#aM"/><use transform="matrix(0.06172222222222222,0,0,0.06172222222222222,15.986055555555556,0)" xlink:href="#Y"/><use transform="matrix(0.06172222222222222,0,0,0.06172222222222222,28.3305,0)" xlink:href="#au"/><use transform="matrix(0.06172222222222222,0,0,0.06172222222222222,40.67494444444444,0)" xlink:href="#ac"/></g><g id="T"><use transform="matrix(0.06172222222222222,0,0,0.06172222222222222,0,0)" xlink:href="#au"/><use transform="matrix(0.06172222222222222,0,0,0.06172222222222222,12.344444444444443,0)" xlink:href="#at"/><use transform="matrix(0.06172222222222222,0,0,0.06172222222222222,23.45444444444444,0)" xlink:href="#aD"/><use transform="matrix(0.06172222222222222,0,0,0.06172222222222222,29.62666666666666,0)" xlink:href="#ak"/><use transform="matrix(0.06172222222222222,0,0,0.06172222222222222,35.79888888888888,0)" xlink:href="#ae"/><use transform="matrix(0.06172222222222222,0,0,0.06172222222222222,50.612222222222215,0)" xlink:href="#aD"/><use transform="matrix(0.06172222222222222,0,0,0.06172222222222222,56.78444444444444,0)" xlink:href="#ar"/><use transform="matrix(0.06172222222222222,0,0,0.06172222222222222,69.12888888888888,0)" xlink:href="#av"/><use transform="matrix(0.06172222222222222,0,0,0.06172222222222222,81.47333333333333,0)" xlink:href="#au"/><use transform="matrix(0.06172222222222222,0,0,0.06172222222222222,93.81777777777778,0)" xlink:href="#ar"/><use transform="matrix(0.06172222222222222,0,0,0.06172222222222222,106.16222222222223,0)" xlink:href="#X"/><use transform="matrix(0.06172222222222222,0,0,0.06172222222222222,113.50716666666668,0)" xlink:href="#au"/></g></defs></g></svg>