<svg xmlns="http://www.w3.org/2000/svg" xmlns:xlink="http://www.w3.org/1999/xlink" xmlns:lucid="lucid" width="970" height="894"><g transform="translate(0 0)" lucid:page-tab-id="nhCRt6Ic3q7Hg"><path d="M0 0h970v894H0z" fill="#fff"/><path d="M631.18 169.6h-153.7c-10.57 0-19.2 8.6-19.2 19.24v79.6c0 10.64 8.63 19.26 19.2 19.26h153.7c10.57 0 19.2-8.62 19.2-19.25v-79.6c0-10.64-8.63-19.26-19.2-19.26z" stroke="#000" fill="url(#a)"/><use xlink:href="#b" transform="matrix(1,0,0,1,467.1057959996821,178.44824998066437) translate(63.7664794921875 56.055)"/><path d="M631.18 349.14h-153.7c-10.57 0-19.2 8.62-19.2 19.25V448c0 10.62 8.63 19.25 19.2 19.25h153.7c10.57 0 19.2-8.63 19.2-19.26v-79.6c0-10.64-8.63-19.26-19.2-19.26z" stroke="#000" fill="url(#c)"/><use xlink:href="#d" transform="matrix(1,0,0,1,467.1057959996812,357.9942499806659) translate(49.0652587890625 56.055)"/><path d="M903.62 515.3h-153.7c-10.57 0-19.2 8.63-19.2 19.26v79.6c0 10.64 8.63 19.26 19.2 19.26h153.7c10.57 0 19.22-8.62 19.22-19.25v-79.6c0-10.64-8.65-19.26-19.22-19.26z" stroke="#000" fill="url(#e)"/><use xlink:href="#f" transform="matrix(1,0,0,1,739.5467959996791,524.1702499806678) translate(31.434643554687497 56.055)"/><path d="M396.54 698h-153.7c-10.57 0-19.22 8.6-19.22 19.24v79.6c0 10.64 8.65 19.26 19.2 19.26h153.72c10.56 0 19.2-8.62 19.2-19.25v-79.6c0-10.64-8.64-19.26-19.2-19.26z" stroke="#000" fill="url(#g)"/><use xlink:href="#h" transform="matrix(1,0,0,1,232.45979599968007,706.8472499806649) translate(16.92329101562501 56.055)"/><path d="M631.18 698h-153.7c-10.57 0-19.2 8.6-19.2 19.24v79.6c0 10.64 8.63 19.26 19.2 19.26h153.7c10.57 0 19.2-8.62 19.2-19.25v-79.6c0-10.64-8.63-19.26-19.2-19.26z" stroke="#000" fill="url(#i)"/><use xlink:href="#j" transform="matrix(1,0,0,1,467.1057959996813,706.8472499806641) translate(49.76505859375 56.055)"/><path d="M938.27 757.73h-153.7c-10.57 0-19.22 8.62-19.22 19.25v79.6c0 10.63 8.65 19.26 19.22 19.26h153.7c10.56 0 19.2-8.63 19.2-19.25v-79.62c0-10.63-8.64-19.25-19.2-19.25z" stroke="#000" stroke-width="1.11" fill="url(#k)"/><use xlink:href="#l" transform="matrix(1,0,0,1,774.1917959996782,766.5852499806648) translate(82.3518603515625 56.055)"/><path d="M631.18 4.24h-153.7c-10.57 0-19.2 8.62-19.2 19.25v79.6c0 10.62 8.63 19.25 19.2 19.25h153.7c10.57 0 19.2-8.63 19.2-19.26V23.5c0-10.64-8.63-19.26-19.2-19.26z" stroke="#000" fill="#fff"/><use xlink:href="#m" transform="matrix(1,0,0,1,467.1057959996821,13.094249980665474) translate(29.704130859375 56.055)"/><path d="M554.33 169.03v-45.67" fill="none"/><path d="M554.33 169.03v-5.07m0-5.08v-10.15m0-5.07V133.5m0-5.07v-5.07" stroke="#000" stroke-width="1.11" fill="none"/><path d="M554.9 169.1h-1.12V169h1.1zM565 140.37l-.97.56-9.7-16.4-9.7 16.4-.96-.56 10.37-17.52h.6zM554.9 348.58h-1.12v-19.05h1.1zm0-41.27h-1.12v-18.6h1.1z"/><path d="M554.9 348.64h-1.12l1.1-.07zM565 305.72l-.97.57-9.7-16.42-9.7 16.4-.96-.56 10.37-17.52h.6z"/><use xlink:href="#n" transform="matrix(1,0,0,1,503.7555458984375,307.3085) translate(0.005000000000002558 16.665)"/><use xlink:href="#o" transform="matrix(1,0,0,1,503.7555458984375,307.3085) translate(18.81822265625 16.665)"/><use xlink:href="#p" transform="matrix(1,0,0,1,503.7555458984375,307.3085) translate(82.65732421875 16.665)"/><path d="M368.9 514.75l-.84-.72 26.9-31.82h1.46zm89.14-105.43L415.2 460h-1.45l43.44-51.4z"/><path d="M368.9 514.74l-1.5.07.67-.78zM457.77 411.14l-3 17.7-1.1-.2 3.2-18.78-18 6.26-.38-1.05 19.27-6.7z"/><use xlink:href="#n" transform="matrix(1,0,0,1,354.5070947313666,459.9873899876661) translate(0.005000000000002558 16.665)"/><use xlink:href="#o" transform="matrix(1,0,0,1,354.5070947313666,459.9873899876661) translate(18.81822265625 16.665)"/><use xlink:href="#p" transform="matrix(1,0,0,1,354.5070947313666,459.9873899876661) translate(82.65732421875 16.665)"/><path d="M778.48 514.57l-.48 1-41.87-19.98h2.58zm-86.32-41.2h-2.58l-39.35-18.8.47-1z"/><path d="M778.98 514.8h-.63l.12-.23zM670.5 452.9l-18.98 1.7 10.63 15.8-.92.63-11.38-16.95.2-.48 20.36-1.8z"/><use xlink:href="#n" transform="matrix(1,0,0,1,663.5720458984375,473.369) translate(0.005000000000002558 16.665)"/><use xlink:href="#o" transform="matrix(1,0,0,1,663.5720458984375,473.369) translate(18.81822265625 16.665)"/><use xlink:href="#p" transform="matrix(1,0,0,1,663.5720458984375,473.369) translate(82.65732421875 16.665)"/><path d="M554.9 697.43h-1.12v-103.7h1.1zm0-125.92h-1.12V468.27h1.1z"/><path d="M554.9 698h-1.12v-.58h1.1zM565 485.27l-.97.56-9.7-16.4-9.7 16.4-.96-.56 10.37-17.52h.6z"/><use xlink:href="#n" transform="matrix(1,0,0,1,503.7555458984375,571.5079999999999) translate(0.005000000000002558 16.665)"/><use xlink:href="#o" transform="matrix(1,0,0,1,503.7555458984375,571.5079999999999) translate(18.81822265625 16.665)"/><use xlink:href="#p" transform="matrix(1,0,0,1,503.7555458984375,571.5079999999999) translate(82.65732421875 16.665)"/><path d="M320.24 697.43h-1.1v-20.36h1.1zm0-42.58h-1.1v-19.92h1.1z"/><path d="M320.24 697.5h-1.1l1.1-.08zM330.34 651.95l-.95.56-9.7-16.4-9.72 16.4-.95-.55 10.66-18.03z"/><use xlink:href="#n" transform="matrix(1,0,0,1,269.1095458984375,654.8454999895476) translate(0.005000000000002558 16.665)"/><use xlink:href="#o" transform="matrix(1,0,0,1,269.1095458984375,654.8454999895476) translate(18.81822265625 16.665)"/><use xlink:href="#p" transform="matrix(1,0,0,1,269.1095458984375,654.8454999895476) translate(82.65732421875 16.665)"/><path d="M861.8 757.04l-1.07.3-14.12-50.66h1.17zm-20.23-72.58h-1.15l-13.9-49.92 1.06-.3z"/><path d="M861.84 757.17h-.55l.5-.14zM841.88 647.92l-.77.8-13.74-13.2-4.95 18.4-1.06-.28 5.3-19.72h.65z"/><use xlink:href="#n" transform="matrix(1,0,0,1,793.5185458984375,684.4644999999999) translate(0.005000000000002558 16.665)"/><use xlink:href="#o" transform="matrix(1,0,0,1,793.5185458984375,684.4644999999999) translate(18.81822265625 16.665)"/><use xlink:href="#p" transform="matrix(1,0,0,1,793.5185458984375,684.4644999999999) translate(82.65732421875 16.665)"/><path d="M765.12 816.03l-.5 1-36.57-19h2.4zM687.7 775.8h-2.4L651.02 758l.5-.98z"/><path d="M764.8 817.12l-.2-.1.2-.4zM671.36 757l-19.03 1.05 10.08 16.18-.93.58-11.08-17.75 20.9-1.15z"/><use xlink:href="#n" transform="matrix(1,0,0,1,657.2980458984375,775.804) translate(0.005000000000002558 16.665)"/><use xlink:href="#o" transform="matrix(1,0,0,1,657.2980458984375,775.804) translate(18.81822265625 16.665)"/><use xlink:href="#p" transform="matrix(1,0,0,1,657.2980458984375,775.804) translate(82.65732421875 16.665)"/><path d="M2088.46-285.9h36912.4V1689.4H2088.46z" stroke="#000" stroke-opacity="0" stroke-width="1.67" fill-opacity="0"/><use xlink:href="#q" transform="matrix(1,0,0,1,19.651796000000008,2.597800000000001) translate(20.369213867187497 20.1675)"/><use xlink:href="#r" transform="matrix(1,0,0,1,19.651796000000008,2.597800000000001) translate(116.0843017578125 20.1675)"/><path d="M182.05 55.4H28.35C17.78 55.4 9.13 64 9.13 74.63v79.6c0 10.63 8.65 19.26 19.22 19.26h153.7c10.56 0 19.2-8.63 19.2-19.26v-79.6c0-10.63-8.64-19.25-19.2-19.25z" stroke="#000" fill="#fff"/><use xlink:href="#s" transform="matrix(1,0,0,1,17.971795999681873,64.2442500015697) translate(17.44407226562501 56.055)"/><use xlink:href="#t" transform="matrix(1,0,0,1,17.971795999681873,64.2442500015697) translate(112.58429687499999 56.055)"/><path d="M38.1 621.36v-71.3M38.1 621.35v.5" stroke="#000" fill="none"/><path d="M38.1 535.3l4.65 14.25h-9.28z" stroke="#000" fill="#fff"/><path d="M38.1 728.45v-86.78" fill="none"/><path d="M38.1 728.45v-4.83m0-4.82v-9.64m0-4.82v-9.64m0-4.82v-9.65m0-4.82v-9.63m0-4.82v-9.64m0-4.8v-4.83M38.1 728.43v.52M48.3 658.95l-10.2-17.2-10.17 17.2" stroke="#000" fill="none"/><path d="M182.05 196.68H28.35c-10.57 0-19.22 8.62-19.22 19.25v79.6c0 10.64 8.65 19.26 19.22 19.26h153.7c10.56 0 19.2-8.63 19.2-19.26v-79.6c0-10.64-8.64-19.26-19.2-19.26z" stroke="#000" fill="#a5a5a5"/><use xlink:href="#u" transform="matrix(1,0,0,1,17.971795999681266,205.5392500015699) translate(38.3783935546875 56.055)"/><use xlink:href="#t" transform="matrix(1,0,0,1,17.971795999681266,205.5392500015699) translate(91.64997558593751 56.055)"/><path d="M182.05 405.6H28.35c-10.57 0-19.22 8.63-19.22 19.26v79.6c0 10.63 8.65 19.26 19.22 19.26h153.7c10.56 0 19.2-8.63 19.2-19.26v-79.6c0-10.63-8.64-19.26-19.2-19.26z" stroke="#000" fill="url(#v)"/><g><use xlink:href="#w" transform="matrix(1,0,0,1,17.971795999681838,414.46324998063994) translate(68.220244140625 42.723)"/><use xlink:href="#x" transform="matrix(1,0,0,1,17.971795999681838,414.46324998063994) translate(10.630517578124994 69.387)"/></g><path d="M38.1 829.23v-86.78M38.1 829.22v.5M48.3 759.74l-10.2-17.2-10.17 17.2" stroke="#000" fill="none"/><path d="M11.37 337.98c-.3 0-.56.25-.56.56v43.32c0 .3.26.56.57.56h191c.32 0 .57-.25.57-.56v-43.32c0-.3-.25-.56-.56-.56z" stroke="#000" stroke-width="1.11" fill="#fff"/><g><use xlink:href="#y" transform="matrix(1,0,0,1,19.65179600000002,346.8648000000001) translate(26.41669921875001 19.055)"/><use xlink:href="#z" transform="matrix(1,0,0,1,19.65179600000002,346.8648000000001) translate(66.636201171875 19.055)"/></g><path d="M7986.54 30814.63h27865.3v1975.27H7986.53z" stroke="#000" stroke-opacity="0" stroke-width="1.67" fill-opacity="0"/><g><use xlink:href="#A" transform="matrix(1,0,0,1,56.40623700000001,574.0447845715355) translate(0 19.055)"/></g><path d="M8515.5 35681.1h27865.3v1975.26H8515.5z" stroke="#000" stroke-opacity="0" stroke-width="1.67" fill-opacity="0"/><g><use xlink:href="#B" transform="matrix(1,0,0,1,59.55623699999999,681.1317845715355) translate(0 19.055)"/></g><path d="M8515.5 40261.26h27865.3v1975.27H8515.5z" stroke="#000" stroke-opacity="0" stroke-width="1.67" fill-opacity="0"/><g><use xlink:href="#C" transform="matrix(1,0,0,1,59.55623699999999,781.9187845715355) translate(0 19.055)"/></g><path d="M396.54 515.3h-153.7c-10.57 0-19.22 8.63-19.22 19.26v79.6c0 10.64 8.65 19.26 19.2 19.26h153.72c10.56 0 19.2-8.62 19.2-19.25v-79.6c0-10.64-8.64-19.26-19.2-19.26z" stroke="#000" fill="url(#D)"/><g><use xlink:href="#E" transform="matrix(1,0,0,1,232.45979599968007,524.1702499806648) translate(30.669746093750007 56.055)"/></g><defs><linearGradient gradientUnits="userSpaceOnUse" id="a" x1="458.27" y1="169.59" x2="458.27" y2="287.7"><stop offset="0%" stop-color="#fff"/><stop offset="20%" stop-color="#fff"/><stop offset="100%" stop-color="#dbdbdb"/></linearGradient><path d="M1148-926c58 156 58 382 0 538C1064-162 892 0 593 0H139v-1314h454c298 6 472 162 555 388zM976-442c38-121 39-309 0-430-55-171-167-295-383-295H322v1020c157-7 329 19 441-35 105-50 176-139 213-260" id="F"/><path d="M1052-184C961-66 832 17 628 14c-289-4-447-172-522-398-53-160-53-388 3-546 81-226 241-394 534-399 180-3 301 72 392 167-25 33-46 70-75 99-51 21-73-33-114-51-77-60-256-80-362-23-152 81-231 248-231 480 0 233 83 400 235 481 113 60 301 37 376-30 33-15 74-101 116-56" id="G"/><path d="M1178 0c-74-7-179 24-202-42L864-358H322L211-43C194 22 84-6 8 0l493-1314h185zM368-488h450c-69-195-137-390-206-585-7-21-13-44-19-69-68 226-151 434-225 654" id="H"/><path d="M974-1314v152H591V0H408v-1162H24v-152h950" id="I"/><g id="b"><use transform="matrix(0.010849609375,0,0,0.010849609375,0,0)" xlink:href="#F"/><use transform="matrix(0.010849609375,0,0,0.010849609375,13.670507812499999,0)" xlink:href="#G"/><use transform="matrix(0.010849609375,0,0,0.010849609375,25.518281249999998,0)" xlink:href="#H"/><use transform="matrix(0.010849609375,0,0,0.010849609375,36.639130859375,0)" xlink:href="#I"/></g><linearGradient gradientUnits="userSpaceOnUse" id="c" x1="458.27" y1="349.14" x2="458.27" y2="467.25"><stop offset="0%" stop-color="#fff"/><stop offset="20%" stop-color="#fff"/><stop offset="100%" stop-color="#dbdbdb"/></linearGradient><path d="M75-653h478v149H75v-149" id="J"/><path d="M994-906c0 279-183 411-470 416H329V0H147v-1314h377c290 3 470 124 470 408zm-182 0c0-176-103-265-288-265H329v537h195c180-4 288-94 288-272" id="K"/><g id="d"><use transform="matrix(0.010849609375,0,0,0.010849609375,0,0)" xlink:href="#F"/><use transform="matrix(0.010849609375,0,0,0.010849609375,13.670507812499999,0)" xlink:href="#G"/><use transform="matrix(0.010849609375,0,0,0.010849609375,25.518281249999998,0)" xlink:href="#H"/><use transform="matrix(0.010849609375,0,0,0.010849609375,36.639130859375,0)" xlink:href="#I"/><use transform="matrix(0.010849609375,0,0,0.010849609375,45.731103515624994,0)" xlink:href="#J"/><use transform="matrix(0.010849609375,0,0,0.010849609375,52.53380859375001,0)" xlink:href="#H"/><use transform="matrix(0.010849609375,0,0,0.010849609375,65.390595703125,0)" xlink:href="#K"/></g><linearGradient gradientUnits="userSpaceOnUse" id="e" x1="730.71" y1="515.31" x2="730.71" y2="633.42"><stop offset="0%" stop-color="#fff"/><stop offset="20%" stop-color="#fff"/><stop offset="100%" stop-color="#dbdbdb"/></linearGradient><path d="M454-137c154-4 244-84 244-236 0-172-165-194-295-240-161-57-303-135-295-354 9-227 154-362 390-362 152 0 266 55 344 137l-45 85c-37 63-91-1-127-21-44-25-97-52-170-50-136 3-221 69-221 201 0 166 169 187 295 236 153 60 300 130 295 341-6 260-155 414-419 414-174 0-309-76-395-172 24-34 40-77 71-104 55-23 84 36 125 60 52 30 115 67 203 65" id="L"/><path d="M650-73c-53 51-136 87-233 88-153 0-235-95-235-251v-596c-55-8-148 24-148-39v-70l154-20 41-301c4-50 80-28 129-33v335h269v128H358v584c-2 72 34 118 99 120 56 2 78-32 116-46 15 0 19 7 25 17" id="M"/><path d="M514-995c228 0 341 142 341 370V0c-56-5-123 17-137-41l-22-91C610-53 522 18 358 15 189 12 84-73 84-244c0-178 154-235 319-276 76-19 169-27 280-30 12-176-30-304-190-304-107 0-171 42-231 86-34 25-81 14-98-16l-32-56c98-93 207-155 382-155zM253-253c0 98 61 145 158 145 133 0 205-61 272-130v-202c-134 6-246 19-333 58-57 26-97 59-97 129" id="N"/><g id="f"><use transform="matrix(0.010849609375,0,0,0.010849609375,0,0)" xlink:href="#L"/><use transform="matrix(0.010849609375,0,0,0.010849609375,10.209482421875,0)" xlink:href="#M"/><use transform="matrix(0.010849609375,0,0,0.010849609375,17.38107421875,0)" xlink:href="#N"/><use transform="matrix(0.010849609375,0,0,0.010849609375,27.818398437499997,0)" xlink:href="#M"/><use transform="matrix(0.010849609375,0,0,0.010849609375,35.26123046875,0)" xlink:href="#F"/><use transform="matrix(0.010849609375,0,0,0.010849609375,48.93173828125,0)" xlink:href="#G"/><use transform="matrix(0.010849609375,0,0,0.010849609375,60.779511718749994,0)" xlink:href="#H"/><use transform="matrix(0.010849609375,0,0,0.010849609375,71.900361328125,0)" xlink:href="#I"/><use transform="matrix(0.010849609375,0,0,0.010849609375,80.992333984375,0)" xlink:href="#J"/><use transform="matrix(0.010849609375,0,0,0.010849609375,87.7950390625,0)" xlink:href="#H"/><use transform="matrix(0.010849609375,0,0,0.010849609375,100.651826171875,0)" xlink:href="#K"/></g><linearGradient gradientUnits="userSpaceOnUse" id="g" x1="223.62" y1="697.99" x2="223.62" y2="816.1"><stop offset="0%" stop-color="#fff"/><stop offset="20%" stop-color="#fff"/><stop offset="100%" stop-color="#dbdbdb"/></linearGradient><path d="M1185-127C1068-41 935 14 745 14c-326 0-527-159-621-398-63-159-60-385-2-546 98-271 362-446 744-388 132 20 229 80 308 155l-51 82c-30 54-91 8-125-15-70-46-159-79-279-76-306 8-456 204-456 515 0 322 159 524 477 524 121 0 198-31 280-74v-288H831c-62 2-34-84-40-138h394v506" id="O"/><path d="M544 14C232 14 75-190 75-509c0-226 105-376 267-447 57-25 122-37 193-37 265 0 410 167 410 437 0 47-2 68-42 68H249c7 217 94 359 310 364 110 2 183-39 248-80 70-44 93 39 123 67C847-42 716 14 544 14zm243-610c-5-164-86-266-249-269-173-3-262 113-284 269h533" id="P"/><path d="M75-490c0-310 160-503 466-503s464 194 464 503c0 310-158 504-464 504C234 14 75-180 75-490zm181 1c0 215 74 366 285 366 210 0 283-152 283-366s-74-367-283-367c-211 0-285 152-285 367" id="Q"/><path d="M1020 158v117H0V158h1020" id="R"/><path d="M349 0H167v-1314h182V0" id="S"/><g id="h"><use transform="matrix(0.010849609375,0,0,0.010849609375,0,0)" xlink:href="#O"/><use transform="matrix(0.010849609375,0,0,0.010849609375,14.017695312499999,0)" xlink:href="#P"/><use transform="matrix(0.010849609375,0,0,0.010849609375,25.073447265625,0)" xlink:href="#Q"/><use transform="matrix(0.010849609375,0,0,0.010849609375,36.791025390624995,0)" xlink:href="#F"/><use transform="matrix(0.010849609375,0,0,0.010849609375,50.461533203125,0)" xlink:href="#G"/><use transform="matrix(0.010849609375,0,0,0.010849609375,62.309306640624996,0)" xlink:href="#H"/><use transform="matrix(0.010849609375,0,0,0.010849609375,73.43015625,0)" xlink:href="#I"/><use transform="matrix(0.010849609375,0,0,0.010849609375,82.52212890624999,0)" xlink:href="#J"/><use transform="matrix(0.010849609375,0,0,0.010849609375,89.32483398437499,0)" xlink:href="#H"/><use transform="matrix(0.010849609375,0,0,0.010849609375,102.18162109374998,0)" xlink:href="#K"/><use transform="matrix(0.010849609375,0,0,0.010849609375,113.6605078125,0)" xlink:href="#R"/><use transform="matrix(0.010849609375,0,0,0.010849609375,124.72710937499997,0)" xlink:href="#S"/><use transform="matrix(0.010849609375,0,0,0.010849609375,130.32550781249998,0)" xlink:href="#I"/></g><linearGradient gradientUnits="userSpaceOnUse" id="i" x1="458.27" y1="697.99" x2="458.27" y2="816.1"><stop offset="0%" stop-color="#fff"/><stop offset="20%" stop-color="#fff"/><stop offset="100%" stop-color="#dbdbdb"/></linearGradient><path d="M1026-375C1026-119 851 0 588 0H144v-1314h401c262 1 440 88 440 343 0 167-103 249-235 295 165 32 276 118 276 301zm-181-4c0-148-98-219-260-219H326v454h259c164-1 260-74 260-235zm-41-570c0-163-89-221-259-222H326v445h212c160-3 266-67 266-223" id="T"/><path d="M913-1314v148H328v431h471v143H328v444h586L913 0H145v-1314h768" id="U"/><g id="j"><use transform="matrix(0.010849609375,0,0,0.010849609375,0,0)" xlink:href="#F"/><use transform="matrix(0.010849609375,0,0,0.010849609375,13.670507812499999,0)" xlink:href="#G"/><use transform="matrix(0.010849609375,0,0,0.010849609375,25.518281249999998,0)" xlink:href="#H"/><use transform="matrix(0.010849609375,0,0,0.010849609375,36.639130859375,0)" xlink:href="#I"/><use transform="matrix(0.010849609375,0,0,0.010849609375,45.731103515624994,0)" xlink:href="#J"/><use transform="matrix(0.010849609375,0,0,0.010849609375,52.53380859375001,0)" xlink:href="#T"/><use transform="matrix(0.010849609375,0,0,0.010849609375,64.6202734375,0)" xlink:href="#U"/></g><linearGradient gradientUnits="userSpaceOnUse" id="k" x1="765.35" y1="757.73" x2="765.35" y2="875.84"><stop offset="0%" stop-color="#fff"/><stop offset="20%" stop-color="#fff"/><stop offset="100%" stop-color="#dbdbdb"/></linearGradient><path d="M663-1075c7-185-245-218-379-135-36 22-82 77-115 24l-46-74c84-76 189-139 347-139 211 0 352 106 357 314 6 226-169 287-283 397-46 44-30 133-46 205H378c1-80-34-175 4-236 80-129 273-153 281-356zM418 14c-75 0-123-47-123-121s48-123 123-123c74 0 122 49 122 123S492 14 418 14" id="V"/><use transform="matrix(0.010849609375,0,0,0.010849609375,0,0)" xlink:href="#V" id="l"/><path d="M492-995c127 0 201 45 264 114v-541h176V0c-55-7-141 23-150-36l-18-117C688-64 595 14 440 14 170 14 74-204 74-486c0-228 88-392 242-470 52-26 111-39 176-39zM255-486c2 201 49 359 242 359 130 0 195-67 259-146v-473c-54-73-114-114-224-114-197 0-279 159-277 374" id="W"/><path d="M69-490c0-299 140-503 438-503 143 0 234 53 308 127-20 26-37 58-61 80-40 18-64-17-93-32-37-19-81-40-143-39-201 7-269 160-269 367 0 204 66 360 261 368 96 4 149-38 198-81 21-19 50-20 67 2l51 64C751-46 640 14 479 14 199 14 69-199 69-490" id="X"/><path d="M271-232c74 0 125 50 125 125 0 74-52 123-125 123S149-34 149-107c0-74 48-125 122-125zm-6-678c74 0 125 50 125 125 0 74-52 123-125 123s-122-50-122-123c0-74 48-125 122-125" id="Y"/><path d="M575-854c-119 2-197 63-259 134V0H140v-978c55 7 141-23 150 36l15 104c78-83 170-155 321-155 223 0 325 146 325 370V0H775v-623c0-140-61-233-200-231" id="Z"/><path d="M536-823c-141 7-187 99-229 205V0H131v-978c60 8 148-26 154 48l12 144c58-123 149-234 328-202 18 3 34 11 49 21l-14 130c-12 52-78 12-124 14" id="aa"/><g id="m"><use transform="matrix(0.010849609375,0,0,0.010849609375,0,0)" xlink:href="#W"/><use transform="matrix(0.010849609375,0,0,0.010849609375,11.674179687499999,0)" xlink:href="#X"/><use transform="matrix(0.010849609375,0,0,0.010849609375,21.06994140625,0)" xlink:href="#M"/><use transform="matrix(0.010849609375,0,0,0.010849609375,28.512773437499998,0)" xlink:href="#Y"/><use transform="matrix(0.010849609375,0,0,0.010849609375,34.458359375,0)" xlink:href="#L"/><use transform="matrix(0.010849609375,0,0,0.010849609375,44.667841796874995,0)" xlink:href="#M"/><use transform="matrix(0.010849609375,0,0,0.010849609375,51.839433593749995,0)" xlink:href="#N"/><use transform="matrix(0.010849609375,0,0,0.010849609375,62.482900390625005,0)" xlink:href="#Z"/><use transform="matrix(0.010849609375,0,0,0.010849609375,74.157080078125,0)" xlink:href="#W"/><use transform="matrix(0.010849609375,0,0,0.010849609375,85.831259765625,0)" xlink:href="#N"/><use transform="matrix(0.010849609375,0,0,0.010849609375,96.47472656250001,0)" xlink:href="#aa"/><use transform="matrix(0.010849609375,0,0,0.010849609375,103.91755859375,0)" xlink:href="#W"/></g><path d="M323-978V0H147v-978h176zm-91-431c74 0 125 50 125 125 0 74-52 123-125 123s-122-50-122-123c0-74 48-125 122-125" id="ab"/><path d="M95-709c0-188 136-281 332-284 128-2 226 47 291 114-25 33-46 112-108 74-47-29-100-60-179-58-97 2-169 47-169 140 0 121 140 131 235 168 118 46 235 94 235 255C732-91 595 11 381 15 247 17 139-38 70-104c26-39 56-126 124-80 51 35 104 76 195 74 109-2 179-54 179-159 0-126-138-136-236-173C209-488 95-543 95-709" id="ac"/><g id="n"><use transform="matrix(0.010849609375,0,0,0.010849609375,0,0)" xlink:href="#ab"/><use transform="matrix(0.010849609375,0,0,0.010849609375,5.09931640625,0)" xlink:href="#ac"/></g><path d="M581 14c-127 0-201-47-264-114v430H141V-978c55 7 141-23 150 36l17 114c76-89 171-167 326-167 271 0 368 217 368 499 0 229-91 393-245 471-52 26-111 39-176 39zm240-510c-2-202-50-358-245-358-128 0-197 66-259 146v472c53 73 114 114 225 114 198 0 281-159 279-374" id="ad"/><path d="M523-1269c-167-5-192 134-183 309h263v128H346V0H170v-831c-44-9-102-4-133-26-23-17-9-67-13-103h146c-18-271 76-439 324-444 44 0 83 8 117 19-9 39 11 106-29 113-15 2-34 3-59 3" id="ae"/><path d="M323-1422V0H147v-1422h176" id="af"/><g id="o"><use transform="matrix(0.010849609375,0,0,0.010849609375,0,0)" xlink:href="#ad"/><use transform="matrix(0.010849609375,0,0,0.010849609375,11.674179687499999,0)" xlink:href="#aa"/><use transform="matrix(0.010849609375,0,0,0.010849609375,19.062763671875,0)" xlink:href="#Q"/><use transform="matrix(0.010849609375,0,0,0.010849609375,30.780341796875,0)" xlink:href="#ae"/><use transform="matrix(0.010849609375,0,0,0.010849609375,37.56134765625,0)" xlink:href="#ab"/><use transform="matrix(0.010849609375,0,0,0.010849609375,42.6606640625,0)" xlink:href="#af"/><use transform="matrix(0.010849609375,0,0,0.010849609375,47.759980468749994,0)" xlink:href="#P"/></g><g id="p"><use transform="matrix(0.010849609375,0,0,0.010849609375,0,0)" xlink:href="#Q"/><use transform="matrix(0.010849609375,0,0,0.010849609375,11.717578125,0)" xlink:href="#ae"/></g><path d="M545-854c-104 0-170 61-222 126V0H147v-978c54 8 140-23 149 36l15 100c68-77 143-150 284-151 143-1 221 88 255 203 52-123 153-201 320-203 220-2 335 143 335 370V0h-176v-623c1-143-65-231-201-231-139 0-216 89-216 231V0H736v-623c1-145-55-231-191-231" id="ag"/><g id="q"><use transform="matrix(0.0130224609375,0,0,0.0130224609375,0,0)" xlink:href="#U"/><use transform="matrix(0.0130224609375,0,0,0.0130224609375,13.0224609375,0)" xlink:href="#af"/><use transform="matrix(0.0130224609375,0,0,0.0130224609375,19.143017578125,0)" xlink:href="#P"/><use transform="matrix(0.0130224609375,0,0,0.0130224609375,32.4129052734375,0)" xlink:href="#ag"/><use transform="matrix(0.0130224609375,0,0,0.0130224609375,53.7176513671875,0)" xlink:href="#P"/><use transform="matrix(0.0130224609375,0,0,0.0130224609375,66.9875390625,0)" xlink:href="#Z"/><use transform="matrix(0.0130224609375,0,0,0.0130224609375,80.7522802734375,0)" xlink:href="#M"/><path d="M-1.33.08h98.38V2.6H-1.33z"/></g><path d="M306-740c60 2 107 0 133-38l339-494c22-28 41-41 86-42h156L620-750c-21 29-44 49-67 61 31 11 60 31 83 65L1049 0c-85-7-198 21-238-38L463-558c-23-30-38-42-90-42h-67V0H124v-1314h182v574" id="ah"/><path d="M409 288c-14 65-120 35-192 42L385-58 11-978h152c30-1 46 16 53 36 86 232 175 459 256 696 80-235 169-463 250-696 20-58 122-29 191-36" id="ai"/><g id="r"><use transform="matrix(0.0130224609375,0,0,0.0130224609375,0,0)" xlink:href="#ah"/><use transform="matrix(0.0130224609375,0,0,0.0130224609375,13.3740673828125,0)" xlink:href="#P"/><use transform="matrix(0.0130224609375,0,0,0.0130224609375,26.4746630859375,0)" xlink:href="#ai"/><path d="M-1.33.08h41.2V2.6h-41.2z"/></g><path d="M969-949c0 213-127 324-301 372 24 16 43 33 61 57L1082 0c-87-8-195 23-235-37L536-505c-21-29-36-41-85-41H329V0H147v-1314h360c275 2 462 97 462 365zM500-679c179-3 292-82 292-257 0-157-95-235-285-235H329v492h171" id="aj"/><path d="M1240-928c58 159 58 383 0 542-85 230-258 400-561 400S201-157 116-386c-59-159-59-383 0-542 86-230 259-401 563-401s477 171 561 401zm-172 486c38-122 39-308 0-430-56-173-170-300-389-300-293 0-420 215-420 515 0 237 85 404 247 479 99 47 246 46 346 0 107-49 178-142 216-264" id="ak"/><path d="M882-1314v148H321v455h477v148H321V0H138v-1314h744" id="al"/><g id="s"><use transform="matrix(0.010849609375,0,0,0.010849609375,0,0)" xlink:href="#Z"/><use transform="matrix(0.010849609375,0,0,0.010849609375,11.674179687499999,0)" xlink:href="#Q"/><use transform="matrix(0.010849609375,0,0,0.010849609375,23.391757812499993,0)" xlink:href="#Z"/><use transform="matrix(0.010849609375,0,0,0.010849609375,35.0659375,0)" xlink:href="#J"/><use transform="matrix(0.010849609375,0,0,0.010849609375,41.868642578125,0)" xlink:href="#K"/><use transform="matrix(0.010849609375,0,0,0.010849609375,53.347529296874995,0)" xlink:href="#aj"/><use transform="matrix(0.010849609375,0,0,0.010849609375,65.19530273437499,0)" xlink:href="#ak"/><use transform="matrix(0.010849609375,0,0,0.010849609375,79.907373046875,0)" xlink:href="#al"/></g><g id="t"><use transform="matrix(0.010849609375,0,0,0.010849609375,0,0)" xlink:href="#G"/><use transform="matrix(0.010849609375,0,0,0.010849609375,11.847773437499999,0)" xlink:href="#af"/><use transform="matrix(0.010849609375,0,0,0.010849609375,16.94708984375,0)" xlink:href="#N"/><use transform="matrix(0.010849609375,0,0,0.010849609375,27.590556640625,0)" xlink:href="#ac"/><use transform="matrix(0.010849609375,0,0,0.010849609375,36.28109375,0)" xlink:href="#ac"/></g><g id="u"><use transform="matrix(0.010849609375,0,0,0.010849609375,0,0)" xlink:href="#K"/><use transform="matrix(0.010849609375,0,0,0.010849609375,11.47888671875,0)" xlink:href="#aj"/><use transform="matrix(0.010849609375,0,0,0.010849609375,23.32666015625,0)" xlink:href="#ak"/><use transform="matrix(0.010849609375,0,0,0.010849609375,38.03873046875,0)" xlink:href="#al"/></g><linearGradient gradientUnits="userSpaceOnUse" id="v" x1="9.13" y1="405.6" x2="9.13" y2="523.72"><stop offset="0%" stop-color="#fff"/><stop offset="12.18%" stop-color="#fff"/><stop offset="100%" stop-color="#dbdbdb"/></linearGradient><path d="M21-978c68 8 173-25 191 37 66 230 131 458 192 691 6 21 9 43 12 64 75-256 159-506 233-760 13-43 73-33 125-34 27 0 43 14 50 34 75 254 156 502 227 760 7-43 18-87 31-132l179-624c15-59 116-29 182-36L1136 0H996c-17 0-28-11-35-33-73-235-147-469-219-705-4-15-7-30-10-45-7 32-14 62-23 92L501-33C485 26 391-10 329 0" id="am"/><g id="w"><use transform="matrix(0.010849609375,0,0,0.010849609375,0,0)" xlink:href="#Q"/><use transform="matrix(0.010849609375,0,0,0.010849609375,11.63078125,0)" xlink:href="#am"/><use transform="matrix(0.010849609375,0,0,0.010849609375,27.514609375,0)" xlink:href="#af"/><use transform="matrix(0.010849609375,0,0,0.010849609375,32.613925781249996,0)" xlink:href="#Y"/></g><path d="M304-1012c2 28 4 55 4 84V0H148v-1314c60 5 126-11 157 31l714 983c-2-29-5-61-5-91v-923h160V0c-61-3-126 10-156-32" id="an"/><path d="M542 0H383L19-978h145c26-1 46 18 53 36 77 231 156 461 231 694 7 22 12 44 17 67 10-48 25-91 40-135l212-626c18-58 121-29 189-36" id="ao"/><path d="M450 15c-223 0-325-146-325-370v-623h176v623c0 141 61 233 200 231 119-1 195-63 259-133v-721h176V0c-55-7-141 23-150-36l-16-104C692-57 602 15 450 15" id="ap"/><g id="x"><use transform="matrix(0.010849609375,0,0,0.010849609375,0,0)" xlink:href="#an"/><use transform="matrix(0.010849609375,0,0,0.010849609375,14.34318359375,0)" xlink:href="#N"/><use transform="matrix(0.010849609375,0,0,0.010849609375,24.986650390625005,0)" xlink:href="#ag"/><use transform="matrix(0.010849609375,0,0,0.010849609375,42.736611328125,0)" xlink:href="#P"/><use transform="matrix(0.010849609375,0,0,0.010849609375,53.792363281250005,0)" xlink:href="#W"/><use transform="matrix(0.010849609375,0,0,0.010849609375,65.46654296875,0)" xlink:href="#S"/><use transform="matrix(0.010849609375,0,0,0.010849609375,71.06494140625,0)" xlink:href="#Z"/><use transform="matrix(0.010849609375,0,0,0.010849609375,82.73912109375,0)" xlink:href="#W"/><use transform="matrix(0.010849609375,0,0,0.010849609375,94.41330078125,0)" xlink:href="#ab"/><use transform="matrix(0.010849609375,0,0,0.010849609375,99.5126171875,0)" xlink:href="#ao"/><use transform="matrix(0.010849609375,0,0,0.010849609375,109.548505859375,0)" xlink:href="#ab"/><use transform="matrix(0.010849609375,0,0,0.010849609375,114.647822265625,0)" xlink:href="#W"/><use transform="matrix(0.010849609375,0,0,0.010849609375,126.322001953125,0)" xlink:href="#ap"/><use transform="matrix(0.010849609375,0,0,0.010849609375,137.996181640625,0)" xlink:href="#N"/><use transform="matrix(0.010849609375,0,0,0.010849609375,148.6396484375,0)" xlink:href="#af"/></g><path d="M407-674L27-1314h181c27 0 37 9 46 25l289 512c93-171 187-340 282-509 9-15 19-27 41-28h174L658-684 1052 0H871c-27 1-41-18-50-34L524-570C428-389 328-212 228-34c-9 16-22 34-47 34H11" id="aq"/><g id="y"><use transform="matrix(0.010849609375,0,0,0.010849609375,0,0)" xlink:href="#aq"/><use transform="matrix(0.010849609375,0,0,0.010849609375,11.316142578125,0)" xlink:href="#L"/><use transform="matrix(0.010849609375,0,0,0.010849609375,21.525624999999998,0)" xlink:href="#F"/></g><g id="z"><use transform="matrix(0.010849609375,0,0,0.010849609375,0,0)" xlink:href="#F"/><use transform="matrix(0.010849609375,0,0,0.010849609375,13.670507812499999,0)" xlink:href="#N"/><use transform="matrix(0.010849609375,0,0,0.010849609375,24.10783203125,0)" xlink:href="#M"/><use transform="matrix(0.010849609375,0,0,0.010849609375,31.279423828124997,0)" xlink:href="#N"/><use transform="matrix(0.010849609375,0,0,0.010849609375,41.716748046875,0)" xlink:href="#M"/><use transform="matrix(0.010849609375,0,0,0.010849609375,49.159580078124996,0)" xlink:href="#ai"/><use transform="matrix(0.010849609375,0,0,0.010849609375,59.21716796875,0)" xlink:href="#ad"/><use transform="matrix(0.010849609375,0,0,0.010849609375,70.89134765624999,0)" xlink:href="#P"/></g><path d="M586 14c-139 0-211-58-275-138-12 47 7 124-53 124H144v-1422h176v583c74-85 165-154 314-154 264 0 368 206 368 479 0 238-85 409-243 490-51 25-109 38-173 38zm235-522c0-208-63-346-246-346-127 0-194 66-255 146v472c53 73 113 114 222 114 204 0 279-159 279-386" id="ar"/><g id="A"><use transform="matrix(0.010849609375,0,0,0.010849609375,0,0)" xlink:href="#aa"/><use transform="matrix(0.010849609375,0,0,0.010849609375,7.44283203125,0)" xlink:href="#W"/><use transform="matrix(0.010849609375,0,0,0.010849609375,19.11701171875,0)" xlink:href="#ae"/><use transform="matrix(0.010849609375,0,0,0.010849609375,25.605078125,0)" xlink:href="#ac"/><use transform="matrix(0.010849609375,0,0,0.010849609375,34.295615234375,0)" xlink:href="#Y"/><use transform="matrix(0.010849609375,0,0,0.010849609375,40.241201171875,0)" xlink:href="#ac"/><use transform="matrix(0.010849609375,0,0,0.010849609375,48.93173828125,0)" xlink:href="#ap"/><use transform="matrix(0.010849609375,0,0,0.010849609375,60.60591796875,0)" xlink:href="#ar"/><use transform="matrix(0.010849609375,0,0,0.010849609375,72.28009765624999,0)" xlink:href="#G"/><use transform="matrix(0.010849609375,0,0,0.010849609375,84.12787109374999,0)" xlink:href="#af"/><use transform="matrix(0.010849609375,0,0,0.010849609375,89.22718749999997,0)" xlink:href="#N"/><use transform="matrix(0.010849609375,0,0,0.010849609375,99.87065429687499,0)" xlink:href="#ac"/><use transform="matrix(0.010849609375,0,0,0.010849609375,108.56119140624999,0)" xlink:href="#ac"/><use transform="matrix(0.010849609375,0,0,0.010849609375,117.25172851562499,0)" xlink:href="#ak"/><use transform="matrix(0.010849609375,0,0,0.010849609375,131.963798828125,0)" xlink:href="#ae"/></g><g id="B"><use transform="matrix(0.010849609375,0,0,0.010849609375,0,0)" xlink:href="#aa"/><use transform="matrix(0.010849609375,0,0,0.010849609375,7.44283203125,0)" xlink:href="#W"/><use transform="matrix(0.010849609375,0,0,0.010849609375,19.11701171875,0)" xlink:href="#ae"/><use transform="matrix(0.010849609375,0,0,0.010849609375,25.898017578125,0)" xlink:href="#Y"/><use transform="matrix(0.010849609375,0,0,0.010849609375,31.843603515625,0)" xlink:href="#M"/><use transform="matrix(0.010849609375,0,0,0.010849609375,39.286435546875,0)" xlink:href="#ai"/><use transform="matrix(0.010849609375,0,0,0.010849609375,49.3440234375,0)" xlink:href="#ad"/><use transform="matrix(0.010849609375,0,0,0.010849609375,61.018203125,0)" xlink:href="#P"/></g><g id="C"><use transform="matrix(0.010849609375,0,0,0.010849609375,0,0)" xlink:href="#aa"/><use transform="matrix(0.010849609375,0,0,0.010849609375,7.44283203125,0)" xlink:href="#W"/><use transform="matrix(0.010849609375,0,0,0.010849609375,19.11701171875,0)" xlink:href="#ae"/><use transform="matrix(0.010849609375,0,0,0.010849609375,25.898017578125,0)" xlink:href="#Y"/><use transform="matrix(0.010849609375,0,0,0.010849609375,31.843603515625,0)" xlink:href="#ad"/><use transform="matrix(0.010849609375,0,0,0.010849609375,43.517783203125,0)" xlink:href="#aa"/><use transform="matrix(0.010849609375,0,0,0.010849609375,50.90636718750001,0)" xlink:href="#Q"/><use transform="matrix(0.010849609375,0,0,0.010849609375,62.6239453125,0)" xlink:href="#ad"/><use transform="matrix(0.010849609375,0,0,0.010849609375,74.298125,0)" xlink:href="#P"/><use transform="matrix(0.010849609375,0,0,0.010849609375,85.353876953125,0)" xlink:href="#aa"/><use transform="matrix(0.010849609375,0,0,0.010849609375,93.10049804687499,0)" xlink:href="#M"/><use transform="matrix(0.010849609375,0,0,0.010849609375,100.543330078125,0)" xlink:href="#ai"/></g><linearGradient gradientUnits="userSpaceOnUse" id="D" x1="223.62" y1="515.31" x2="223.62" y2="633.42"><stop offset="0%" stop-color="#fff"/><stop offset="20%" stop-color="#fff"/><stop offset="100%" stop-color="#dbdbdb"/></linearGradient><g id="E"><use transform="matrix(0.010849609375,0,0,0.010849609375,0,0)" xlink:href="#O"/><use transform="matrix(0.010849609375,0,0,0.010849609375,14.017695312499999,0)" xlink:href="#P"/><use transform="matrix(0.010849609375,0,0,0.010849609375,25.073447265625,0)" xlink:href="#Q"/><use transform="matrix(0.010849609375,0,0,0.010849609375,36.791025390624995,0)" xlink:href="#F"/><use transform="matrix(0.010849609375,0,0,0.010849609375,50.461533203125,0)" xlink:href="#G"/><use transform="matrix(0.010849609375,0,0,0.010849609375,62.309306640624996,0)" xlink:href="#H"/><use transform="matrix(0.010849609375,0,0,0.010849609375,73.43015625,0)" xlink:href="#I"/><use transform="matrix(0.010849609375,0,0,0.010849609375,82.52212890624999,0)" xlink:href="#J"/><use transform="matrix(0.010849609375,0,0,0.010849609375,89.32483398437499,0)" xlink:href="#H"/><use transform="matrix(0.010849609375,0,0,0.010849609375,102.18162109374998,0)" xlink:href="#K"/></g></defs></g></svg>