<svg xmlns="http://www.w3.org/2000/svg" xmlns:xlink="http://www.w3.org/1999/xlink" xmlns:lucid="lucid" width="980" height="509"><g transform="translate(0 0)" lucid:page-tab-id="TmRGqqltqGnUl"><path d="M0 0h980v509H0z" fill="#fff"/><path d="M2088.46-91.98h36912.4V1883.3H2088.46z" stroke="#000" stroke-opacity="0" stroke-width="1.67" fill-opacity="0"/><use xlink:href="#a" transform="matrix(1,0,0,1,19.651796000000008,6.864800000000001) translate(20.369213867187497 20.1675)"/><use xlink:href="#b" transform="matrix(1,0,0,1,19.651796000000008,6.864800000000001) translate(116.0843017578125 20.1675)"/><path d="M182.05 44.12H28.35c-10.57 0-19.22 8.62-19.22 19.25v79.6c0 10.64 8.65 19.26 19.22 19.26h153.7c10.56 0 19.2-8.62 19.2-19.25v-79.6c0-10.64-8.64-19.26-19.2-19.26z" stroke="#000" stroke-width="1.11" fill="url(#c)"/><use xlink:href="#d" transform="matrix(1,0,0,1,17.971795999681902,52.97624998066406) translate(68.220244140625 42.723)"/><use xlink:href="#e" transform="matrix(1,0,0,1,17.971795999681902,52.97624998066406) translate(10.630517578124994 69.387)"/><path d="M38.1 267.94V181.3M38.1 267.92v.57M48.3 198.6l-10.2-17.2-10.17 17.2" stroke="#000" stroke-width="1.11" fill="none"/><path d="M8515.5 9187.7h27865.3v1975.26H8515.5z" stroke="#000" stroke-opacity="0" stroke-width="1.67" fill-opacity="0"/><use xlink:href="#f" transform="matrix(1,0,0,1,59.55623699999999,211.0648) translate(0 19.055)"/><path d="M420.8 12.62H267.1c-10.58 0-19.23 8.62-19.23 19.25v79.6c0 10.64 8.65 19.26 19.22 19.26h153.7c10.55 0 19.2-8.62 19.2-19.25v-79.6c0-10.64-8.65-19.26-19.2-19.26z" stroke="#000" stroke-width="1.11" fill="url(#g)"/><use xlink:href="#h" transform="matrix(1,0,0,1,256.711795999682,21.48024998066413) translate(38.65505859375001 56.055)"/><use xlink:href="#i" transform="matrix(1,0,0,1,256.711795999682,21.48024998066413) translate(124.811806640625 56.055)"/><path d="M809.76 12.62h-153.7c-10.56 0-19.2 8.62-19.2 19.25v79.6c0 10.64 8.64 19.26 19.2 19.26h153.7c10.57 0 19.22-8.62 19.22-19.25v-79.6c0-10.64-8.65-19.26-19.22-19.26z" stroke="#000" stroke-width="1.11" fill="url(#j)"/><use xlink:href="#k" transform="matrix(1,0,0,1,645.6877959996815,21.480249980662396) translate(50.26414062500001 56.055)"/><use xlink:href="#l" transform="matrix(1,0,0,1,645.6877959996815,21.480249980662396) translate(113.90794921874999 56.055)"/><path d="M682.68 191.05h-153.7c-10.57 0-19.22 8.62-19.22 19.25v79.6c0 10.63 8.65 19.26 19.22 19.26h153.7c10.56 0 19.2-8.63 19.2-19.25v-79.6c0-10.63-8.64-19.25-19.2-19.25z" stroke="#000" stroke-width="1.11" fill="url(#m)"/><use xlink:href="#k" transform="matrix(1,0,0,1,518.6017959996826,199.9052499806653) translate(48.85911621093751 29.391)"/><use xlink:href="#n" transform="matrix(1,0,0,1,518.6017959996826,199.9052499806653) translate(112.5029248046875 29.391)"/><use xlink:href="#o" transform="matrix(1,0,0,1,518.6017959996826,199.9052499806653) translate(46.1575634765625 56.055)"/><use xlink:href="#p" transform="matrix(1,0,0,1,518.6017959996826,199.9052499806653) translate(32.394833984375 82.719)"/><use xlink:href="#q" transform="matrix(1,0,0,1,518.6017959996826,199.9052499806653) translate(131.343271484375 82.719)"/><path d="M420.8 191.05H267.1c-10.58 0-19.23 8.62-19.23 19.25v79.6c0 10.63 8.65 19.26 19.22 19.26h153.7c10.55 0 19.2-8.63 19.2-19.25v-79.6c0-10.63-8.65-19.25-19.2-19.25z" stroke="#000" stroke-width="1.11" fill="url(#r)"/><use xlink:href="#h" transform="matrix(1,0,0,1,256.71179599968184,199.90524998066363) translate(35.88298339843751 29.391)"/><use xlink:href="#s" transform="matrix(1,0,0,1,256.71179599968184,199.90524998066363) translate(122.0397314453125 29.391)"/><use xlink:href="#o" transform="matrix(1,0,0,1,256.71179599968184,199.90524998066363) translate(46.1575634765625 56.055)"/><use xlink:href="#p" transform="matrix(1,0,0,1,256.71179599968184,199.90524998066363) translate(32.394833984375 82.719)"/><use xlink:href="#t" transform="matrix(1,0,0,1,256.71179599968184,199.90524998066363) translate(131.343271484375 82.719)"/><path d="M655 190.88l-.68-.9 26.5-20.2h1.83zm77.8-59.37L705.96 152h-1.83l28.02-21.37z"/><path d="M732.8 131.52l-.18-.23h.48zM662.75 172.06l-7.16 17.66 18.92-2.23.13 1.1-16.1 1.9h-4.47l7.64-18.86z"/><use xlink:href="#u" transform="matrix(1,0,0,1,647.5768232421875,151.9995) translate(0.005000000000002558 13.335)"/><use xlink:href="#v" transform="matrix(1,0,0,1,647.5768232421875,151.9995) translate(28.836728515625005 13.335)"/><path d="M344.5 190.04h-1.12v-20.26h1.1zm0-38.04h-1.12v-20.7h1.1zM344.5 131.3h-1.12 1.1z"/><path d="M354.6 173.02l-10.33 17.47h-.66L333.3 173l.95-.56 9.7 16.4 9.7-16.4z"/><use xlink:href="#u" transform="matrix(1,0,0,1,298.1283232421875,151.9995) translate(0.005000000000002558 13.335)"/><use xlink:href="#v" transform="matrix(1,0,0,1,298.1283232421875,151.9995) translate(28.836728515625005 13.335)"/><path d="M819.17 190.02l-.63.9-7-4.86h1.95zm-31.26-21.74h-1.93l-52.92-36.78.64-.9z"/><path d="M733.06 131.5l-.32-.2h.48zM819.43 190.5h-7.3l-13.33-1 .08-1.1 19 1.4-1.7-3.74h1.22z"/><use xlink:href="#u" transform="matrix(1,0,0,1,753.9187632421875,168.28455000000002) translate(0.005000000000002558 13.335)"/><use xlink:href="#v" transform="matrix(1,0,0,1,753.9187632421875,168.28455000000002) translate(28.836728515625005 13.335)"/><path d="M944.57 191.05h-153.7c-10.57 0-19.22 8.62-19.22 19.25v79.6c0 10.63 8.65 19.26 19.22 19.26h153.7c10.56 0 19.2-8.63 19.2-19.25v-79.6c0-10.63-8.64-19.25-19.2-19.25z" stroke="#000" stroke-width="1.11" fill="url(#w)"/><use xlink:href="#k" transform="matrix(1,0,0,1,780.4917959996808,199.90524998066354) translate(48.85911621093751 29.391)"/><use xlink:href="#n" transform="matrix(1,0,0,1,780.4917959996808,199.90524998066354) translate(112.5029248046875 29.391)"/><use xlink:href="#o" transform="matrix(1,0,0,1,780.4917959996808,199.90524998066354) translate(46.1575634765625 56.055)"/><use xlink:href="#p" transform="matrix(1,0,0,1,780.4917959996808,199.90524998066354) translate(32.394833984375 82.719)"/><use xlink:href="#x" transform="matrix(1,0,0,1,780.4917959996808,199.90524998066354) translate(131.343271484375 82.719)"/><path d="M556.64 186.97l-2.93 5.23-43-24H523zm-73.44-41h-12.3l-31.5-17.57 2.93-5.24z"/><path d="M559.26 188.43l-1.16 2.06h-3.52l2-3.57zM461.32 128.5l-14.93.37 7.5 12.9-5.18 3-12.62-21.65 25.07-.63z"/><use xlink:href="#y" transform="matrix(1,0,0,1,420.22273958333335,145.9728888888889) translate(0.0049999999999954525 16.666666666666664)"/><use xlink:href="#z" transform="matrix(1,0,0,1,420.22273958333335,145.9728888888889) translate(19.35178819444444 16.666666666666664)"/><use xlink:href="#A" transform="matrix(1,0,0,1,420.22273958333335,145.9728888888889) translate(108.7723611111111 16.666666666666664)"/><path d="M420.8 369.47H267.1c-10.58 0-19.23 8.62-19.23 19.25v79.6c0 10.64 8.65 19.26 19.22 19.26h153.7c10.55 0 19.2-8.62 19.2-19.25v-79.6c0-10.64-8.65-19.26-19.2-19.26z" stroke="#000" stroke-width="1.11" fill="url(#B)"/><g><use xlink:href="#C" transform="matrix(1,0,0,1,256.71179599968195,378.3302499806642) translate(25.537880859374994 56.055)"/></g><path d="M944.57 369.47h-153.7c-10.57 0-19.22 8.62-19.22 19.25v79.6c0 10.64 8.65 19.26 19.22 19.26h153.7c10.56 0 19.2-8.62 19.2-19.25v-79.6c0-10.64-8.64-19.26-19.2-19.26z" stroke="#000" stroke-width="1.11" fill="url(#D)"/><g><use xlink:href="#E" transform="matrix(1,0,0,1,780.4917959996808,378.3302499806633) translate(38.2047998046875 42.723)"/><use xlink:href="#F" transform="matrix(1,0,0,1,780.4917959996808,378.3302499806633) translate(25.537880859374994 69.387)"/></g><path d="M344.5 368.46h-1.12V348.2h1.1zm0-38.04h-1.12v-20.7h1.1z"/><path d="M344.5 309.73h-1.12l1.1-.02zM354.6 351.45l-10.33 17.47h-.66l-10.32-17.47.95-.57 9.7 16.4 9.7-16.4z"/><g><use xlink:href="#u" transform="matrix(1,0,0,1,303.610779296875,330.42449999999997) translate(0.005000000000002558 13.335)"/><use xlink:href="#G" transform="matrix(1,0,0,1,303.610779296875,330.42449999999997) translate(28.836728515625005 13.335)"/></g><path d="M868.27 368.46h-1.1V348.2h1.1zm0-38.04h-1.1v-20.7h1.1z"/><path d="M868.27 309.73h-1.1l1.1-.02zM878.38 351.45l-10.33 17.47h-.66l-10.34-17.47.95-.57 9.72 16.4 9.7-16.4z"/><g><use xlink:href="#u" transform="matrix(1,0,0,1,827.3907792968749,330.42449999999997) translate(0.005000000000002558 13.335)"/><use xlink:href="#G" transform="matrix(1,0,0,1,827.3907792968749,330.42449999999997) translate(28.836728515625005 13.335)"/></g><path d="M441.14 428.4l-.65-.9 69.1-49.77h1.9zM605.7 309.92l-69.5 50.02h-1.9l70.75-50.92z"/><path d="M605.7 309.94l-.18-.23h.5zM449.42 409.8l-7.65 17.45 18.98-1.7.1 1.1-20.3 1.83v-1.22l7.85-17.9z"/><g><use xlink:href="#u" transform="matrix(1,0,0,1,482.587279296875,359.95300000000003) translate(0.005000000000002558 13.335)"/><use xlink:href="#G" transform="matrix(1,0,0,1,482.587279296875,359.95300000000003) translate(28.836728515625005 13.335)"/></g><path d="M497.96 72.23H441v-1.1h56.96zm138.33 0h-57.4v-1.1h57.4zM636.3 72.23l-.02-1.1z"/><path d="M458.6 61.97l-16.42 9.7 16.4 9.7-.56.97L440.56 72v-.65L458 61.02z"/><g><use xlink:href="#H" transform="matrix(1,0,0,1,497.95553222656247,62.787000000000006) translate(0.005000000000002558 13.335)"/><use xlink:href="#I" transform="matrix(1,0,0,1,497.95553222656247,62.787000000000006) translate(15.058964843750005 13.335)"/><use xlink:href="#J" transform="matrix(1,0,0,1,497.95553222656247,62.787000000000006) translate(66.14173828125001 13.335)"/></g><defs><path d="M913-1314v148H328v431h471v143H328v444h586L913 0H145v-1314h768" id="K"/><path d="M323-1422V0H147v-1422h176" id="L"/><path d="M544 14C232 14 75-190 75-509c0-226 105-376 267-447 57-25 122-37 193-37 265 0 410 167 410 437 0 47-2 68-42 68H249c7 217 94 359 310 364 110 2 183-39 248-80 70-44 93 39 123 67C847-42 716 14 544 14zm243-610c-5-164-86-266-249-269-173-3-262 113-284 269h533" id="M"/><path d="M545-854c-104 0-170 61-222 126V0H147v-978c54 8 140-23 149 36l15 100c68-77 143-150 284-151 143-1 221 88 255 203 52-123 153-201 320-203 220-2 335 143 335 370V0h-176v-623c1-143-65-231-201-231-139 0-216 89-216 231V0H736v-623c1-145-55-231-191-231" id="N"/><path d="M575-854c-119 2-197 63-259 134V0H140v-978c55 7 141-23 150 36l15 104c78-83 170-155 321-155 223 0 325 146 325 370V0H775v-623c0-140-61-233-200-231" id="O"/><path d="M650-73c-53 51-136 87-233 88-153 0-235-95-235-251v-596c-55-8-148 24-148-39v-70l154-20 41-301c4-50 80-28 129-33v335h269v128H358v584c-2 72 34 118 99 120 56 2 78-32 116-46 15 0 19 7 25 17" id="P"/><g id="a"><use transform="matrix(0.0130224609375,0,0,0.0130224609375,0,0)" xlink:href="#K"/><use transform="matrix(0.0130224609375,0,0,0.0130224609375,13.0224609375,0)" xlink:href="#L"/><use transform="matrix(0.0130224609375,0,0,0.0130224609375,19.143017578125,0)" xlink:href="#M"/><use transform="matrix(0.0130224609375,0,0,0.0130224609375,32.4129052734375,0)" xlink:href="#N"/><use transform="matrix(0.0130224609375,0,0,0.0130224609375,53.7176513671875,0)" xlink:href="#M"/><use transform="matrix(0.0130224609375,0,0,0.0130224609375,66.9875390625,0)" xlink:href="#O"/><use transform="matrix(0.0130224609375,0,0,0.0130224609375,80.7522802734375,0)" xlink:href="#P"/><path d="M-1.33.08h98.38V2.6H-1.33z"/></g><path d="M306-740c60 2 107 0 133-38l339-494c22-28 41-41 86-42h156L620-750c-21 29-44 49-67 61 31 11 60 31 83 65L1049 0c-85-7-198 21-238-38L463-558c-23-30-38-42-90-42h-67V0H124v-1314h182v574" id="Q"/><path d="M409 288c-14 65-120 35-192 42L385-58 11-978h152c30-1 46 16 53 36 86 232 175 459 256 696 80-235 169-463 250-696 20-58 122-29 191-36" id="R"/><g id="b"><use transform="matrix(0.0130224609375,0,0,0.0130224609375,0,0)" xlink:href="#Q"/><use transform="matrix(0.0130224609375,0,0,0.0130224609375,13.3740673828125,0)" xlink:href="#M"/><use transform="matrix(0.0130224609375,0,0,0.0130224609375,26.4746630859375,0)" xlink:href="#R"/><path d="M-1.33.08h41.2V2.6h-41.2z"/></g><linearGradient gradientUnits="userSpaceOnUse" id="c" x1="9.13" y1="44.12" x2="9.13" y2="162.23"><stop offset="0%" stop-color="#fff"/><stop offset="20%" stop-color="#fff"/><stop offset="100%" stop-color="#dbdbdb"/></linearGradient><path d="M75-490c0-310 160-503 466-503s464 194 464 503c0 310-158 504-464 504C234 14 75-180 75-490zm181 1c0 215 74 366 285 366 210 0 283-152 283-366s-74-367-283-367c-211 0-285 152-285 367" id="S"/><path d="M21-978c68 8 173-25 191 37 66 230 131 458 192 691 6 21 9 43 12 64 75-256 159-506 233-760 13-43 73-33 125-34 27 0 43 14 50 34 75 254 156 502 227 760 7-43 18-87 31-132l179-624c15-59 116-29 182-36L1136 0H996c-17 0-28-11-35-33-73-235-147-469-219-705-4-15-7-30-10-45-7 32-14 62-23 92L501-33C485 26 391-10 329 0" id="T"/><path d="M271-232c74 0 125 50 125 125 0 74-52 123-125 123S149-34 149-107c0-74 48-125 122-125zm-6-678c74 0 125 50 125 125 0 74-52 123-125 123s-122-50-122-123c0-74 48-125 122-125" id="U"/><g id="d"><use transform="matrix(0.010849609375,0,0,0.010849609375,0,0)" xlink:href="#S"/><use transform="matrix(0.010849609375,0,0,0.010849609375,11.63078125,0)" xlink:href="#T"/><use transform="matrix(0.010849609375,0,0,0.010849609375,27.514609375,0)" xlink:href="#L"/><use transform="matrix(0.010849609375,0,0,0.010849609375,32.613925781249996,0)" xlink:href="#U"/></g><path d="M304-1012c2 28 4 55 4 84V0H148v-1314c60 5 126-11 157 31l714 983c-2-29-5-61-5-91v-923h160V0c-61-3-126 10-156-32" id="V"/><path d="M514-995c228 0 341 142 341 370V0c-56-5-123 17-137-41l-22-91C610-53 522 18 358 15 189 12 84-73 84-244c0-178 154-235 319-276 76-19 169-27 280-30 12-176-30-304-190-304-107 0-171 42-231 86-34 25-81 14-98-16l-32-56c98-93 207-155 382-155zM253-253c0 98 61 145 158 145 133 0 205-61 272-130v-202c-134 6-246 19-333 58-57 26-97 59-97 129" id="W"/><path d="M492-995c127 0 201 45 264 114v-541h176V0c-55-7-141 23-150-36l-18-117C688-64 595 14 440 14 170 14 74-204 74-486c0-228 88-392 242-470 52-26 111-39 176-39zM255-486c2 201 49 359 242 359 130 0 195-67 259-146v-473c-54-73-114-114-224-114-197 0-279 159-277 374" id="X"/><path d="M349 0H167v-1314h182V0" id="Y"/><path d="M323-978V0H147v-978h176zm-91-431c74 0 125 50 125 125 0 74-52 123-125 123s-122-50-122-123c0-74 48-125 122-125" id="Z"/><path d="M542 0H383L19-978h145c26-1 46 18 53 36 77 231 156 461 231 694 7 22 12 44 17 67 10-48 25-91 40-135l212-626c18-58 121-29 189-36" id="aa"/><path d="M450 15c-223 0-325-146-325-370v-623h176v623c0 141 61 233 200 231 119-1 195-63 259-133v-721h176V0c-55-7-141 23-150-36l-16-104C692-57 602 15 450 15" id="ab"/><g id="e"><use transform="matrix(0.010849609375,0,0,0.010849609375,0,0)" xlink:href="#V"/><use transform="matrix(0.010849609375,0,0,0.010849609375,14.34318359375,0)" xlink:href="#W"/><use transform="matrix(0.010849609375,0,0,0.010849609375,24.986650390625005,0)" xlink:href="#N"/><use transform="matrix(0.010849609375,0,0,0.010849609375,42.736611328125,0)" xlink:href="#M"/><use transform="matrix(0.010849609375,0,0,0.010849609375,53.792363281250005,0)" xlink:href="#X"/><use transform="matrix(0.010849609375,0,0,0.010849609375,65.46654296875,0)" xlink:href="#Y"/><use transform="matrix(0.010849609375,0,0,0.010849609375,71.06494140625,0)" xlink:href="#O"/><use transform="matrix(0.010849609375,0,0,0.010849609375,82.73912109375,0)" xlink:href="#X"/><use transform="matrix(0.010849609375,0,0,0.010849609375,94.41330078125,0)" xlink:href="#Z"/><use transform="matrix(0.010849609375,0,0,0.010849609375,99.5126171875,0)" xlink:href="#aa"/><use transform="matrix(0.010849609375,0,0,0.010849609375,109.548505859375,0)" xlink:href="#Z"/><use transform="matrix(0.010849609375,0,0,0.010849609375,114.647822265625,0)" xlink:href="#X"/><use transform="matrix(0.010849609375,0,0,0.010849609375,126.322001953125,0)" xlink:href="#ab"/><use transform="matrix(0.010849609375,0,0,0.010849609375,137.996181640625,0)" xlink:href="#W"/><use transform="matrix(0.010849609375,0,0,0.010849609375,148.6396484375,0)" xlink:href="#L"/></g><path d="M536-823c-141 7-187 99-229 205V0H131v-978c60 8 148-26 154 48l12 144c58-123 149-234 328-202 18 3 34 11 49 21l-14 130c-12 52-78 12-124 14" id="ac"/><path d="M523-1269c-167-5-192 134-183 309h263v128H346V0H170v-831c-44-9-102-4-133-26-23-17-9-67-13-103h146c-18-271 76-439 324-444 44 0 83 8 117 19-9 39 11 106-29 113-15 2-34 3-59 3" id="ad"/><path d="M581 14c-127 0-201-47-264-114v430H141V-978c55 7 141-23 150 36l17 114c76-89 171-167 326-167 271 0 368 217 368 499 0 229-91 393-245 471-52 26-111 39-176 39zm240-510c-2-202-50-358-245-358-128 0-197 66-259 146v472c53 73 114 114 225 114 198 0 281-159 279-374" id="ae"/><g id="f"><use transform="matrix(0.010849609375,0,0,0.010849609375,0,0)" xlink:href="#ac"/><use transform="matrix(0.010849609375,0,0,0.010849609375,7.44283203125,0)" xlink:href="#X"/><use transform="matrix(0.010849609375,0,0,0.010849609375,19.11701171875,0)" xlink:href="#ad"/><use transform="matrix(0.010849609375,0,0,0.010849609375,25.898017578125,0)" xlink:href="#U"/><use transform="matrix(0.010849609375,0,0,0.010849609375,31.843603515625,0)" xlink:href="#ae"/><use transform="matrix(0.010849609375,0,0,0.010849609375,43.517783203125,0)" xlink:href="#ac"/><use transform="matrix(0.010849609375,0,0,0.010849609375,50.90636718750001,0)" xlink:href="#S"/><use transform="matrix(0.010849609375,0,0,0.010849609375,62.6239453125,0)" xlink:href="#ae"/><use transform="matrix(0.010849609375,0,0,0.010849609375,74.298125,0)" xlink:href="#M"/><use transform="matrix(0.010849609375,0,0,0.010849609375,85.353876953125,0)" xlink:href="#ac"/><use transform="matrix(0.010849609375,0,0,0.010849609375,93.10049804687499,0)" xlink:href="#P"/><use transform="matrix(0.010849609375,0,0,0.010849609375,100.543330078125,0)" xlink:href="#R"/></g><linearGradient gradientUnits="userSpaceOnUse" id="g" x1="247.87" y1="12.62" x2="247.87" y2="130.73"><stop offset="0%" stop-color="#fff"/><stop offset="20%" stop-color="#fff"/><stop offset="100%" stop-color="#dbdbdb"/></linearGradient><path d="M454-137c154-4 244-84 244-236 0-172-165-194-295-240-161-57-303-135-295-354 9-227 154-362 390-362 152 0 266 55 344 137l-45 85c-37 63-91-1-127-21-44-25-97-52-170-50-136 3-221 69-221 201 0 166 169 187 295 236 153 60 300 130 295 341-6 260-155 414-419 414-174 0-309-76-395-172 24-34 40-77 71-104 55-23 84 36 125 60 52 30 115 67 203 65" id="af"/><g id="h"><use transform="matrix(0.010849609375,0,0,0.010849609375,0,0)" xlink:href="#af"/><use transform="matrix(0.010849609375,0,0,0.010849609375,10.209482421875,0)" xlink:href="#P"/><use transform="matrix(0.010849609375,0,0,0.010849609375,17.38107421875,0)" xlink:href="#W"/><use transform="matrix(0.010849609375,0,0,0.010849609375,28.024541015624997,0)" xlink:href="#O"/><use transform="matrix(0.010849609375,0,0,0.010849609375,39.698720703125,0)" xlink:href="#X"/><use transform="matrix(0.010849609375,0,0,0.010849609375,51.372900390625,0)" xlink:href="#W"/><use transform="matrix(0.010849609375,0,0,0.010849609375,62.016367187499995,0)" xlink:href="#ac"/><use transform="matrix(0.010849609375,0,0,0.010849609375,69.45919921874999,0)" xlink:href="#X"/></g><path d="M407-674L27-1314h181c27 0 37 9 46 25l289 512c93-171 187-340 282-509 9-15 19-27 41-28h174L658-684 1052 0H871c-27 1-41-18-50-34L524-570C428-389 328-212 228-34c-9 16-22 34-47 34H11" id="ag"/><use transform="matrix(0.010849609375,0,0,0.010849609375,0,0)" xlink:href="#ag" id="i"/><linearGradient gradientUnits="userSpaceOnUse" id="j" x1="636.85" y1="12.62" x2="636.85" y2="130.73"><stop offset="0%" stop-color="#fff"/><stop offset="20%" stop-color="#fff"/><stop offset="100%" stop-color="#dbdbdb"/></linearGradient><path d="M994-906c0 279-183 411-470 416H329V0H147v-1314h377c290 3 470 124 470 408zm-182 0c0-176-103-265-288-265H329v537h195c180-4 288-94 288-272" id="ah"/><g id="k"><use transform="matrix(0.010849609375,0,0,0.010849609375,0,0)" xlink:href="#ah"/><use transform="matrix(0.010849609375,0,0,0.010849609375,11.47888671875,0)" xlink:href="#ac"/><use transform="matrix(0.010849609375,0,0,0.010849609375,18.867470703125,0)" xlink:href="#S"/><use transform="matrix(0.010849609375,0,0,0.010849609375,30.585048828125,0)" xlink:href="#ad"/><use transform="matrix(0.010849609375,0,0,0.010849609375,37.3660546875,0)" xlink:href="#Z"/><use transform="matrix(0.010849609375,0,0,0.010849609375,42.465371093749994,0)" xlink:href="#L"/><use transform="matrix(0.010849609375,0,0,0.010849609375,47.56468749999999,0)" xlink:href="#M"/></g><path d="M590-525V0H408v-523L0-1314h160c34 0 51 18 62 42 87 187 165 383 255 566 9 18 16 36 23 54 15-40 35-73 52-112l223-508c11-19 30-42 61-42h162" id="ai"/><use transform="matrix(0.010849609375,0,0,0.010849609375,0,0)" xlink:href="#ai" id="l"/><linearGradient gradientUnits="userSpaceOnUse" id="m" x1="509.76" y1="191.05" x2="509.76" y2="309.16"><stop offset="0%" stop-color="#fff"/><stop offset="20%" stop-color="#fff"/><stop offset="100%" stop-color="#dbdbdb"/></linearGradient><path d="M265 0c-76 6-128-49-125-120 2-68 46-108 116-110 160-3 129 224 72 322-36 63-81 124-136 170-20-19-63-47-29-82 44-45 88-104 102-180" id="aj"/><g id="n"><use transform="matrix(0.010849609375,0,0,0.010849609375,0,0)" xlink:href="#ai"/><use transform="matrix(0.010849609375,0,0,0.010849609375,8.09380859375,0)" xlink:href="#aj"/></g><path d="M969-949c0 213-127 324-301 372 24 16 43 33 61 57L1082 0c-87-8-195 23-235-37L536-505c-21-29-36-41-85-41H329V0H147v-1314h360c275 2 462 97 462 365zM500-679c179-3 292-82 292-257 0-157-95-235-285-235H329v492h171" id="ak"/><path d="M95-709c0-188 136-281 332-284 128-2 226 47 291 114-25 33-46 112-108 74-47-29-100-60-179-58-97 2-169 47-169 140 0 121 140 131 235 168 118 46 235 94 235 255C732-91 595 11 381 15 247 17 139-38 70-104c26-39 56-126 124-80 51 35 104 76 195 74 109-2 179-54 179-159 0-126-138-136-236-173C209-488 95-543 95-709" id="al"/><path d="M69-490c0-299 140-503 438-503 143 0 234 53 308 127-20 26-37 58-61 80-40 18-64-17-93-32-37-19-81-40-143-39-201 7-269 160-269 367 0 204 66 360 261 368 96 4 149-38 198-81 21-19 50-20 67 2l51 64C751-46 640 14 479 14 199 14 69-199 69-490" id="am"/><g id="o"><use transform="matrix(0.010849609375,0,0,0.010849609375,0,0)" xlink:href="#ak"/><use transform="matrix(0.010849609375,0,0,0.010849609375,11.674179687499999,0)" xlink:href="#M"/><use transform="matrix(0.010849609375,0,0,0.010849609375,22.729931640624997,0)" xlink:href="#al"/><use transform="matrix(0.010849609375,0,0,0.010849609375,31.420468749999998,0)" xlink:href="#S"/><use transform="matrix(0.010849609375,0,0,0.010849609375,43.138046875,0)" xlink:href="#ab"/><use transform="matrix(0.010849609375,0,0,0.010849609375,54.812226562499994,0)" xlink:href="#ac"/><use transform="matrix(0.010849609375,0,0,0.010849609375,62.233359375,0)" xlink:href="#am"/><use transform="matrix(0.010849609375,0,0,0.010849609375,71.62912109375,0)" xlink:href="#M"/></g><path d="M1148-926c58 156 58 382 0 538C1064-162 892 0 593 0H139v-1314h454c298 6 472 162 555 388zM976-442c38-121 39-309 0-430-55-171-167-295-383-295H322v1020c157-7 329 19 441-35 105-50 176-139 213-260" id="an"/><g id="p"><use transform="matrix(0.010849609375,0,0,0.010849609375,0,0)" xlink:href="#an"/><use transform="matrix(0.010849609375,0,0,0.010849609375,13.670507812499999,0)" xlink:href="#M"/><use transform="matrix(0.010849609375,0,0,0.010849609375,24.726259765625,0)" xlink:href="#al"/><use transform="matrix(0.010849609375,0,0,0.010849609375,33.416796874999996,0)" xlink:href="#am"/><use transform="matrix(0.010849609375,0,0,0.010849609375,42.81255859375,0)" xlink:href="#ac"/><use transform="matrix(0.010849609375,0,0,0.010849609375,50.5591796875,0)" xlink:href="#Z"/><use transform="matrix(0.010849609375,0,0,0.010849609375,55.658496093749996,0)" xlink:href="#ae"/><use transform="matrix(0.010849609375,0,0,0.010849609375,67.235029296875,0)" xlink:href="#P"/><use transform="matrix(0.010849609375,0,0,0.010849609375,74.46086914062501,0)" xlink:href="#S"/><use transform="matrix(0.010849609375,0,0,0.010849609375,86.17844726562501,0)" xlink:href="#ac"/></g><path d="M118-957c35-227 168-372 421-372 237 0 388 129 388 367 0 234-144 350-265 476L325-135c155-43 377-15 567-23 76-4 57 87 59 158H92c-1-54 1-99 31-129 169-170 344-341 501-522 70-81 131-166 131-307 0-146-81-228-225-228-138 0-213 81-243 193-11 42-31 58-82 50" id="ao"/><use transform="matrix(0.010849609375,0,0,0.010849609375,0,0)" xlink:href="#ao" id="q"/><linearGradient gradientUnits="userSpaceOnUse" id="r" x1="247.87" y1="191.05" x2="247.87" y2="309.16"><stop offset="0%" stop-color="#fff"/><stop offset="20%" stop-color="#fff"/><stop offset="100%" stop-color="#dbdbdb"/></linearGradient><g id="s"><use transform="matrix(0.010849609375,0,0,0.010849609375,0,0)" xlink:href="#ag"/><use transform="matrix(0.010849609375,0,0,0.010849609375,11.533134765625,0)" xlink:href="#aj"/></g><path d="M255-128h273c2-322-4-651 3-968L308-900c-25 26-63 14-78-6l-53-73 383-339h136v1190h250V0H255v-128" id="ap"/><use transform="matrix(0.010849609375,0,0,0.010849609375,0,0)" xlink:href="#ap" id="t"/><path d="M576-854c-119 2-194 64-257 135V0H143v-1422h176v573c76-79 163-144 308-144 223 0 324 146 324 370V0H775v-623c0-140-60-233-199-231" id="aq"/><g id="u"><use transform="matrix(0.008681640625,0,0,0.008681640625,0,0)" xlink:href="#aq"/><use transform="matrix(0.008681640625,0,0,0.008681640625,9.341445312500001,0)" xlink:href="#W"/><use transform="matrix(0.008681640625,0,0,0.008681640625,17.858134765625007,0)" xlink:href="#al"/></g><g id="v"><use transform="matrix(0.008681640625,0,0,0.008681640625,0,0)" xlink:href="#ac"/><use transform="matrix(0.008681640625,0,0,0.008681640625,5.964287109375,0)" xlink:href="#M"/><use transform="matrix(0.008681640625,0,0,0.008681640625,14.81087890625,0)" xlink:href="#al"/><use transform="matrix(0.008681640625,0,0,0.008681640625,21.764873046875003,0)" xlink:href="#S"/><use transform="matrix(0.008681640625,0,0,0.008681640625,31.141044921875,0)" xlink:href="#ab"/><use transform="matrix(0.008681640625,0,0,0.008681640625,40.482490234375,0)" xlink:href="#ac"/><use transform="matrix(0.008681640625,0,0,0.008681640625,46.420732421875,0)" xlink:href="#am"/><use transform="matrix(0.008681640625,0,0,0.008681640625,53.93903320312501,0)" xlink:href="#M"/></g><linearGradient gradientUnits="userSpaceOnUse" id="w" x1="771.65" y1="191.05" x2="771.65" y2="309.16"><stop offset="0%" stop-color="#fff"/><stop offset="20%" stop-color="#fff"/><stop offset="100%" stop-color="#dbdbdb"/></linearGradient><path d="M133-957c36-227 169-372 422-372 224 0 376 114 376 336 0 173-90 260-222 302 151 40 251 135 251 313 0 198-114 310-263 365-98 37-246 34-340 1C213-61 139-178 95-327c44-18 136-74 166-8 49 106 110 211 268 207 159-4 256-94 263-245 8-191-130-240-325-240v-121c175-4 300-59 300-230 0-143-79-222-221-222-138 0-212 82-243 193-12 42-31 58-82 50" id="ar"/><use transform="matrix(0.010849609375,0,0,0.010849609375,0,0)" xlink:href="#ar" id="x"/><path d="M379-993V0H125v-993h254zm-132-444c97 0 163 62 163 159 0 96-66 158-163 158-94 0-157-63-157-158s62-159 157-159" id="as"/><path d="M80-702c6-234 206-338 457-298 93 15 166 59 220 115-26 37-46 85-79 115-8 4-17 7-28 7-73 0-113-61-203-61-94 0-160 79-107 152 93 83 270 88 356 179 39 42 70 95 69 176C761-63 553 47 286 6 191-9 109-52 51-106c29-40 47-92 85-123 77-33 115 38 178 55 22 6 48 12 80 12 81 0 133-35 133-110 0-69-60-91-116-111C252-440 75-483 80-702" id="at"/><g id="y"><use transform="matrix(0.010850694444444444,0,0,0.010850694444444444,0,0)" xlink:href="#as"/><use transform="matrix(0.010850694444444444,0,0,0.010850694444444444,5.457899305555555,0)" xlink:href="#at"/></g><path d="M582-811c-92 1-152 44-204 95V0H124v-993c65 5 150-14 196 11 30 17 27 71 39 107 74-72 158-134 301-134 225 0 332 151 332 377V0H738v-632c0-109-49-180-156-179" id="au"/><path d="M583-811c-92 1-152 44-204 95V0H125v-1437h254v544c73-64 150-119 282-116 225 4 332 151 332 377V0H739v-632c0-109-49-180-156-179" id="av"/><path d="M960-149C871-45 736 15 551 15 231 15 63-191 63-518c0-229 113-378 277-452 59-26 125-39 199-39 278 0 430 170 430 452 0 55-4 97-59 97H316c14 166 83 276 257 279 98 1 159-38 221-71 33-18 71-20 93 9zM741-612c-4-130-65-216-197-216-140 0-203 89-223 216h420" id="aw"/><path d="M545-767c-109 4-148 72-181 151V0H110v-993c66 5 161-12 204 14 28 28 23 102 33 150 53-94 116-183 244-183 43 0 79 10 107 31l-19 190c-6 59-87 22-134 24" id="ax"/><path d="M680-72c-61 52-150 86-256 87-172 2-267-108-267-279v-542c-63-2-138 16-138-53v-101l151-29 53-262c11-66 119-33 188-41v306h245v180H411v525c0 54 23 90 73 93 51 3 85-62 119-7" id="ay"/><path d="M483-1012c112 0 179 37 238 92v-517h254V0H818c-73 2-64-82-83-135C661-54 570 15 422 15 157 15 63-214 63-494c0-232 92-397 247-478 52-26 110-40 173-40zM325-494c0 166 29 308 186 308 106 0 161-51 210-111v-438c-43-55-93-85-178-85-170 0-218 146-218 326" id="az"/><g id="z"><use transform="matrix(0.010850694444444444,0,0,0.010850694444444444,0,0)" xlink:href="#as"/><use transform="matrix(0.010850694444444444,0,0,0.010850694444444444,5.457899305555555,0)" xlink:href="#au"/><use transform="matrix(0.010850694444444444,0,0,0.010850694444444444,17.3828125,0)" xlink:href="#av"/><use transform="matrix(0.010850694444444444,0,0,0.010850694444444444,29.307725694444443,0)" xlink:href="#aw"/><use transform="matrix(0.010850694444444444,0,0,0.010850694444444444,40.494791666666664,0)" xlink:href="#ax"/><use transform="matrix(0.010850694444444444,0,0,0.010850694444444444,48.39409722222222,0)" xlink:href="#as"/><use transform="matrix(0.010850694444444444,0,0,0.010850694444444444,53.85199652777778,0)" xlink:href="#ay"/><use transform="matrix(0.010850694444444444,0,0,0.010850694444444444,61.28472222222222,0)" xlink:href="#aw"/><use transform="matrix(0.010850694444444444,0,0,0.010850694444444444,72.47178819444444,0)" xlink:href="#az"/></g><path d="M562-1233c-141 0-169 100-160 247h230v180H410V0H156v-806c-55-15-135-9-136-77v-103h136c-14-277 106-437 363-437 48 0 83 7 122 18l-6 127c-1 39-36 45-73 45" id="aA"/><path d="M352-974c116-47 283-48 399 0 177 72 288 230 288 475 0 247-110 405-288 478-116 48-283 48-399 0C173-94 62-251 62-499c0-246 112-403 290-475zm-28 477c0 189 54 318 228 318 172 0 225-131 225-318s-53-318-225-318c-174 0-228 130-228 318" id="aB"/><path d="M559-811c-82 0-133 41-177 88V0H128v-993c65 5 150-14 196 11 30 16 27 69 39 104 67-68 139-130 270-131 135-1 210 82 248 184 57-113 162-184 324-184 235 0 350 140 350 377V0h-254v-632c0-119-53-179-160-179-110 0-172 67-172 179V0H715v-632c1-120-46-179-156-179" id="aC"/><g id="A"><use transform="matrix(0.010850694444444444,0,0,0.010850694444444444,0,0)" xlink:href="#aA"/><use transform="matrix(0.010850694444444444,0,0,0.010850694444444444,7.03125,0)" xlink:href="#ax"/><use transform="matrix(0.010850694444444444,0,0,0.010850694444444444,14.659288194444445,0)" xlink:href="#aB"/><use transform="matrix(0.010850694444444444,0,0,0.010850694444444444,26.60590277777778,0)" xlink:href="#aC"/></g><linearGradient gradientUnits="userSpaceOnUse" id="B" x1="247.87" y1="369.47" x2="247.87" y2="487.58"><stop offset="0%" stop-color="#fff"/><stop offset="20%" stop-color="#fff"/><stop offset="100%" stop-color="#dbdbdb"/></linearGradient><path d="M256-232c74 0 125 50 125 125 0 74-52 123-125 123S134-34 134-107c0-74 48-125 122-125" id="aD"/><g id="C"><use transform="matrix(0.010849609375,0,0,0.010849609375,0,0)" xlink:href="#am"/><use transform="matrix(0.010849609375,0,0,0.010849609375,9.211318359375,0)" xlink:href="#S"/><use transform="matrix(0.010849609375,0,0,0.010849609375,20.928896484375,0)" xlink:href="#O"/><use transform="matrix(0.010849609375,0,0,0.010849609375,32.603076171874996,0)" xlink:href="#al"/><use transform="matrix(0.010849609375,0,0,0.010849609375,41.044072265625,0)" xlink:href="#P"/><use transform="matrix(0.010849609375,0,0,0.010849609375,48.486904296875,0)" xlink:href="#ac"/><use transform="matrix(0.010849609375,0,0,0.010849609375,55.777841796874995,0)" xlink:href="#W"/><use transform="matrix(0.010849609375,0,0,0.010849609375,66.42130859375,0)" xlink:href="#Z"/><use transform="matrix(0.010849609375,0,0,0.010849609375,71.520625,0)" xlink:href="#O"/><use transform="matrix(0.010849609375,0,0,0.010849609375,82.988662109375,0)" xlink:href="#P"/><use transform="matrix(0.010849609375,0,0,0.010849609375,90.43149414062502,0)" xlink:href="#al"/><use transform="matrix(0.010849609375,0,0,0.010849609375,99.12203125000002,0)" xlink:href="#aD"/><use transform="matrix(0.010849609375,0,0,0.010849609375,104.25389648437502,0)" xlink:href="#P"/><use transform="matrix(0.010849609375,0,0,0.010849609375,111.38208984375001,0)" xlink:href="#P"/><use transform="matrix(0.010849609375,0,0,0.010849609375,118.82492187500002,0)" xlink:href="#L"/></g><linearGradient gradientUnits="userSpaceOnUse" id="D" x1="771.65" y1="369.47" x2="771.65" y2="487.58"><stop offset="0%" stop-color="#fff"/><stop offset="20%" stop-color="#fff"/><stop offset="100%" stop-color="#dbdbdb"/></linearGradient><path d="M327-502L36-978h168c28 0 37 9 47 26l204 355c6-16 13-28 21-43l171-308c11-15 20-29 43-30h161L559-511 864 0H695c-27 1-44-19-53-36L435-406c-5 15-11 28-18 39L230-36c-11 17-23 37-50 36H23" id="aE"/><path d="M1020 158v117H0V158h1020" id="aF"/><g id="E"><use transform="matrix(0.010849609375,0,0,0.010849609375,0,0)" xlink:href="#M"/><use transform="matrix(0.010849609375,0,0,0.010849609375,10.7194140625,0)" xlink:href="#aE"/><use transform="matrix(0.010849609375,0,0,0.010849609375,20.408115234375,0)" xlink:href="#P"/><use transform="matrix(0.010849609375,0,0,0.010849609375,27.612255859374997,0)" xlink:href="#M"/><use transform="matrix(0.010849609375,0,0,0.010849609375,38.6680078125,0)" xlink:href="#O"/><use transform="matrix(0.010849609375,0,0,0.010849609375,50.342187499999994,0)" xlink:href="#al"/><use transform="matrix(0.010849609375,0,0,0.010849609375,59.03272460937501,0)" xlink:href="#Z"/><use transform="matrix(0.010849609375,0,0,0.010849609375,64.132041015625,0)" xlink:href="#S"/><use transform="matrix(0.010849609375,0,0,0.010849609375,75.84961914062501,0)" xlink:href="#O"/><use transform="matrix(0.010849609375,0,0,0.010849609375,87.52379882812501,0)" xlink:href="#aF"/></g><g id="F"><use transform="matrix(0.010849609375,0,0,0.010849609375,0,0)" xlink:href="#am"/><use transform="matrix(0.010849609375,0,0,0.010849609375,9.211318359375,0)" xlink:href="#S"/><use transform="matrix(0.010849609375,0,0,0.010849609375,20.928896484375,0)" xlink:href="#O"/><use transform="matrix(0.010849609375,0,0,0.010849609375,32.603076171874996,0)" xlink:href="#al"/><use transform="matrix(0.010849609375,0,0,0.010849609375,41.044072265625,0)" xlink:href="#P"/><use transform="matrix(0.010849609375,0,0,0.010849609375,48.486904296875,0)" xlink:href="#ac"/><use transform="matrix(0.010849609375,0,0,0.010849609375,55.777841796874995,0)" xlink:href="#W"/><use transform="matrix(0.010849609375,0,0,0.010849609375,66.42130859375,0)" xlink:href="#Z"/><use transform="matrix(0.010849609375,0,0,0.010849609375,71.520625,0)" xlink:href="#O"/><use transform="matrix(0.010849609375,0,0,0.010849609375,82.988662109375,0)" xlink:href="#P"/><use transform="matrix(0.010849609375,0,0,0.010849609375,90.43149414062502,0)" xlink:href="#al"/><use transform="matrix(0.010849609375,0,0,0.010849609375,99.12203125000002,0)" xlink:href="#aD"/><use transform="matrix(0.010849609375,0,0,0.010849609375,104.25389648437502,0)" xlink:href="#P"/><use transform="matrix(0.010849609375,0,0,0.010849609375,111.38208984375001,0)" xlink:href="#P"/><use transform="matrix(0.010849609375,0,0,0.010849609375,118.82492187500002,0)" xlink:href="#L"/></g><g id="G"><use transform="matrix(0.008681640625,0,0,0.008681640625,0,0)" xlink:href="#W"/><use transform="matrix(0.008681640625,0,0,0.008681640625,8.516689453125,0)" xlink:href="#ac"/><use transform="matrix(0.008681640625,0,0,0.008681640625,14.715380859375,0)" xlink:href="#P"/><use transform="matrix(0.008681640625,0,0,0.008681640625,20.670986328125,0)" xlink:href="#Z"/><use transform="matrix(0.008681640625,0,0,0.008681640625,24.751357421874996,0)" xlink:href="#ad"/><use transform="matrix(0.008681640625,0,0,0.008681640625,29.8301171875,0)" xlink:href="#W"/><use transform="matrix(0.008681640625,0,0,0.008681640625,38.346806640625005,0)" xlink:href="#am"/><use transform="matrix(0.008681640625,0,0,0.008681640625,45.865107421875,0)" xlink:href="#P"/></g><g id="H"><use transform="matrix(0.008681640625,0,0,0.008681640625,0,0)" xlink:href="#Z"/><use transform="matrix(0.008681640625,0,0,0.008681640625,4.08037109375,0)" xlink:href="#al"/></g><g id="I"><use transform="matrix(0.008681640625,0,0,0.008681640625,0,0)" xlink:href="#ae"/><use transform="matrix(0.008681640625,0,0,0.008681640625,9.341445312500001,0)" xlink:href="#ac"/><use transform="matrix(0.008681640625,0,0,0.008681640625,15.253642578125,0)" xlink:href="#S"/><use transform="matrix(0.008681640625,0,0,0.008681640625,24.629814453125,0)" xlink:href="#ad"/><use transform="matrix(0.008681640625,0,0,0.008681640625,30.05583984375,0)" xlink:href="#Z"/><use transform="matrix(0.008681640625,0,0,0.008681640625,34.1362109375,0)" xlink:href="#L"/><use transform="matrix(0.008681640625,0,0,0.008681640625,38.216582031250006,0)" xlink:href="#M"/></g><g id="J"><use transform="matrix(0.008681640625,0,0,0.008681640625,0,0)" xlink:href="#S"/><use transform="matrix(0.008681640625,0,0,0.008681640625,9.376171875,0)" xlink:href="#ad"/></g></defs></g></svg>