<svg xmlns="http://www.w3.org/2000/svg" xmlns:xlink="http://www.w3.org/1999/xlink" xmlns:lucid="lucid" width="841.33" height="811.98"><g transform="translate(0 0)" lucid:page-tab-id="KaaVrleRCrLHn"><path d="M0 0h841.33v811.98H0z" fill="#fff"/><path d="M621.1 741.2h111.55c.3 0 .56-.26.56-.57V600.1" stroke="#000" stroke-width="1.11" fill="none"/><path d="M621.12 741.75h-.57v-1.12h.57z"/><path d="M737.84 599.54h-9.27l4.64-14.27z" fill="#fff"/><path d="M738.6 600.1h-10.8l5.4-16.62zm-9.26-1.12h7.74l-3.87-11.9z"/><path d="M810.06 464.8h-153.7c-10.57 0-19.22 8.63-19.22 19.26v79.6c0 10.64 8.65 19.26 19.22 19.26h153.7c10.57 0 19.2-8.62 19.2-19.25v-79.6c0-10.64-8.63-19.26-19.2-19.26z" stroke="#000" stroke-width="1.11" fill="#fff"/><use xlink:href="#a" transform="matrix(1,0,0,1,645.9825418890963,473.6702500015737) translate(27.946494140625006 56.055)"/><path d="M600.8 682.13H447.1c-10.58 0-19.23 8.63-19.23 19.26V781c0 10.62 8.65 19.25 19.22 19.25h153.7c10.55 0 19.2-8.63 19.2-19.26v-79.6c0-10.64-8.65-19.27-19.2-19.27z" stroke="#000" stroke-width="1.11" fill="#a5a5a5"/><use xlink:href="#b" transform="matrix(1,0,0,1,436.71179599933,690.9932500015639) translate(23.9050146484375 56.055)"/><use xlink:href="#c" transform="matrix(1,0,0,1,436.71179599933,690.9932500015639) translate(111.61325683593749 56.055)"/><path d="M382.9 682.13H229.2c-10.55 0-19.2 8.63-19.2 19.26V781c0 10.62 8.65 19.25 19.2 19.25h153.7c10.58 0 19.23-8.63 19.23-19.26v-79.6c0-10.64-8.65-19.27-19.22-19.27z" stroke="#000" stroke-width="1.11" fill="#fff"/><use xlink:href="#d" transform="matrix(1,0,0,1,218.83779600003217,690.9932500015675) translate(26.036962890625006 56.055)"/><path d="M177.9 464.8H24.2c-10.55 0-19.2 8.63-19.2 19.26v79.6c0 10.64 8.65 19.26 19.2 19.26h153.7c10.58 0 19.23-8.62 19.23-19.25v-79.6c0-10.64-8.65-19.26-19.22-19.26z" stroke="#000" stroke-width="1.11" fill="#fff"/><use xlink:href="#e" transform="matrix(1,0,0,1,13.83779600003226,473.67025000156974) translate(70.2708203125 29.391)"/><use xlink:href="#f" transform="matrix(1,0,0,1,13.83779600003226,473.67025000156974) translate(37.4616015625 56.055)"/><use xlink:href="#g" transform="matrix(1,0,0,1,13.83779600003226,473.67025000156974) translate(47.416118164062496 82.719)"/><path d="M487.87 5h-153.7c-10.56 0-19.2 8.62-19.2 19.25v79.6c0 10.64 8.64 19.26 19.2 19.26h153.7c10.57 0 19.22-8.6 19.22-19.24v-79.6C507.1 13.6 498.43 5 487.86 5z" stroke="#000" stroke-width="1.11" fill="#fff"/><use xlink:href="#h" transform="matrix(1,0,0,1,323.79879600003363,13.858250001569814) translate(29.704130859375 56.055)"/><path d="M487.87 206.2h-153.7c-10.56 0-19.2 8.62-19.2 19.25v79.6c0 10.63 8.64 19.25 19.2 19.25h153.7c10.57 0 19.22-8.62 19.22-19.25v-79.6c0-10.63-8.66-19.26-19.23-19.26z" stroke="#000" stroke-width="1.11" fill="#a5a5a5"/><use xlink:href="#i" transform="matrix(1,0,0,1,323.79879600003187,215.05225000156878) translate(58.189780273437506 56.055)"/><path d="M534.9 265.8h-26.7v-1.1h26.7zm100.68 0h-26.25v-1.1h26.25z"/><path d="M508.2 265.8h-.56v-1.1h.57zM636.6 265.25l-18.03 10.66-.57-.95 16.4-9.7-16.4-9.7.57-.96z"/><use xlink:href="#j" transform="matrix(1,0,0,1,534.9036189325258,255.7547062249176) translate(0.005000000000002558 14.241440678320934)"/><use xlink:href="#k" transform="matrix(1,0,0,1,534.9036189325258,255.7547062249176) translate(30.796552404104055 14.241440678320934)"/><path d="M411.02 205.08v-64.8" stroke="#000" stroke-width="1.11" fill="none"/><path d="M411.58 205.64h-1.1v-.57h1.1z"/><path d="M415.66 139.73h-9.27l4.62-14.27z" fill="#fff"/><path d="M416.42 140.28h-10.8l5.4-16.6zm-9.27-1.1h7.75l-3.88-11.92z"/><path d="M487.87 464.8h-153.7c-10.56 0-19.2 8.63-19.2 19.26v79.6c0 10.64 8.64 19.26 19.2 19.26h153.7c10.57 0 19.22-8.62 19.22-19.25v-79.6c0-10.64-8.66-19.26-19.23-19.26z" stroke="#000" stroke-width="1.11" fill="#a5a5a5"/><use xlink:href="#l" transform="matrix(1,0,0,1,323.79879600003363,473.67025000157) translate(46.1575634765625 42.723)"/><use xlink:href="#m" transform="matrix(1,0,0,1,323.79879600003363,473.67025000157) translate(40.5374658203125 69.387)"/><path d="M363.55 464.26h-1.1V388.6h1.1zm0-94.65h-1.1v-44.3h1.1z"/><path d="M363.55 464.26h-1.1l1.1-.02zM373.65 342.33l-.95.56-9.7-16.42-9.7 16.4-.97-.55 10.33-17.47h.66z"/><use xlink:href="#n" transform="matrix(1,0,0,1,299.0028705462938,369.60743623535944) translate(0.005000000000002558 14.241440678320934)"/><use xlink:href="#o" transform="matrix(1,0,0,1,299.0028705462938,369.60743623535944) translate(16.082251390760746 14.241440678320934)"/><use xlink:href="#p" transform="matrix(1,0,0,1,299.0028705462938,369.60743623535944) translate(90.69219484027153 14.241440678320934)"/><path d="M459.6 463.8h-1.1v-41.48h1.1zm0-60.47h-1.1v-78.47h1.1zM459.6 324.87h-1.1 1.1z"/><path d="M469.7 446.8l-10.32 17.46h-.65L448.4 446.8l.95-.58 9.7 16.4 9.7-16.4z"/><use xlink:href="#j" transform="matrix(1,0,0,1,410.1324988680852,403.33011623535947) translate(0.005000000000002558 14.241440678320934)"/><use xlink:href="#q" transform="matrix(1,0,0,1,410.1324988680852,403.33011623535947) translate(30.796552404104055 14.241440678320934)"/><path d="M229.8 524.42h-31.66v-1.1h31.66zm84.6 0H282.3v-1.1h32.13zM314.4 524.42v-1.1z"/><path d="M215.7 514.16l-16.4 9.7 16.4 9.7-.55.97-17.47-10.33v-.66l17.47-10.33z"/><use xlink:href="#r" transform="matrix(1,0,0,1,229.80438729224673,502.97955369270227) translate(11.520539923486071 14.241440678320934)"/><use xlink:href="#s" transform="matrix(1,0,0,1,229.80438729224673,502.97955369270227) translate(0.004999999999999005 37.02774576363443)"/><path d="M307.05 681.54l-.97-.56 22.36-38.96h1.28zm56.15-97.86l-22.58 39.35h-1.28l22.9-39.9z"/><path d="M363.2 583.7l-.38-.22h.5zM307.15 680.24l16.58-9.4.55.97-17.24 9.78h-.98l-.27-20.38 1.1-.02z"/><use xlink:href="#j" transform="matrix(1,0,0,1,291.4601224282141,623.034206235359) translate(0.005000000000002558 14.241440678320934)"/><use xlink:href="#t" transform="matrix(1,0,0,1,291.4601224282141,623.034206235359) translate(30.796552404104055 14.241440678320934)"/><path d="M523.85 681l-.93.6L497.04 642h1.33zm-37.9-57.97h-1.33L458.9 583.7l.92-.62z"/><path d="M458.9 583.7l-.15-.22h.5zM523.9 681.58h-1.1l-17.65-8.7.5-1 17.1 8.43-.87-19.03 1.1-.05z"/><use xlink:href="#j" transform="matrix(1,0,0,1,461.03359547615696,623.0342062353576) translate(0.004999999999999005 14.241440678320934)"/><use xlink:href="#u" transform="matrix(1,0,0,1,461.03359547615696,623.0342062353576) translate(30.79655240410405 14.241440678320934)"/><path d="M637.7 243.03c-.3 0-.56.25-.56.56v43.3c0 .32.26.57.56.57h191c.32 0 .57-.25.57-.56v-43.3c0-.32-.25-.57-.56-.57z" stroke="#000" stroke-width="1.11" fill="#fff"/><use xlink:href="#v" transform="matrix(1,0,0,1,645.982541889064,251.91580001046486) translate(44.069013671875005 19.055)"/><path d="M274.9 260.2l.24 1.43 1.62 2.23 2.73.9h34.4v1h-34.57l-3.2-1.05-1.94-2.67-.3-1.74v-84.25h1zm38.6-195.64h-34.05l-1.43.22-2.22 1.63-.9 2.73v84.13h-1V68.98l1.05-3.2 2.68-1.94 1.74-.3 34.13.02zM314.4 265.75h-.5v-1h.5z"/><path d="M314.4 64.06l-17.94 10.6-.5-.85 16.48-9.74-16.5-9.76.52-.86z"/><g><use xlink:href="#w" transform="matrix(1,0,0,1,228.62240552302893,153.25884746780753) translate(0 15.190870056875665)"/><use xlink:href="#x" transform="matrix(1,0,0,1,228.62240552302893,153.25884746780753) translate(18.935841494508207 15.190870056875665)"/><use xlink:href="#y" transform="matrix(1,0,0,1,228.62240552302893,153.25884746780753) translate(75.74336597803283 15.190870056875665)"/></g><path d="M533.14 64.56h-24.6v-1h24.6zm102.95 0h-25v-1h25z"/><path d="M526.1 54.3l-16.5 9.76 16.5 9.75-.52.87-17.94-10.6 17.94-10.63zM636.6 64.56h-.52v-1h.5z"/><g><use xlink:href="#z" transform="matrix(1,0,0,1,533.1365223468524,29.87554238249519) translate(23.68798838728185 15.190870056875665)"/><use xlink:href="#A" transform="matrix(1,0,0,1,533.1365223468524,29.87554238249519) translate(0.005000000000002558 37.97717514218916)"/><use xlink:href="#B" transform="matrix(1,0,0,1,533.1365223468524,29.87554238249519) translate(28.98896908421242 60.76348022750266)"/></g><path d="M810.06 5h-153.7c-10.57 0-19.22 8.62-19.22 19.25v79.6c0 10.64 8.65 19.26 19.22 19.26h153.7c10.57 0 19.2-8.6 19.2-19.24v-79.6c0-10.64-8.63-19.26-19.2-19.26z" stroke="#000" stroke-width="1.11" fill="#fff"/><g><use xlink:href="#C" transform="matrix(1,0,0,1,645.9825418883961,13.858250001569814) translate(30.235761718750005 56.055)"/></g><defs><path d="M95-709c0-188 136-281 332-284 128-2 226 47 291 114-25 33-46 112-108 74-47-29-100-60-179-58-97 2-169 47-169 140 0 121 140 131 235 168 118 46 235 94 235 255C732-91 595 11 381 15 247 17 139-38 70-104c26-39 56-126 124-80 51 35 104 76 195 74 109-2 179-54 179-159 0-126-138-136-236-173C209-488 95-543 95-709" id="D"/><path d="M304-1422v836c44 0 73 1 95-27l260-331c33-56 146-27 227-34L579-593c-18 19-36 36-58 50 24 15 42 36 58 59L906 0c-79-8-188 23-224-33L415-434c-19-25-25-32-66-33h-45V0H128v-1422h176" id="E"/><path d="M75-490c0-310 160-503 466-503s464 194 464 503c0 310-158 504-464 504C234 14 75-180 75-490zm181 1c0 215 74 366 285 366 210 0 283-152 283-366s-74-367-283-367c-211 0-285 152-285 367" id="F"/><path d="M271-232c74 0 125 50 125 125 0 74-52 123-125 123S149-34 149-107c0-74 48-125 122-125zm-6-678c74 0 125 50 125 125 0 74-52 123-125 123s-122-50-122-123c0-74 48-125 122-125" id="G"/><path d="M1052-184C961-66 832 17 628 14c-289-4-447-172-522-398-53-160-53-388 3-546 81-226 241-394 534-399 180-3 301 72 392 167-25 33-46 70-75 99-51 21-73-33-114-51-77-60-256-80-362-23-152 81-231 248-231 480 0 233 83 400 235 481 113 60 301 37 376-30 33-15 74-101 116-56" id="H"/><path d="M575-854c-119 2-197 63-259 134V0H140v-978c55 7 141-23 150 36l15 104c78-83 170-155 321-155 223 0 325 146 325 370V0H775v-623c0-140-61-233-200-231" id="I"/><path d="M69-490c0-299 140-503 438-503 143 0 234 53 308 127-20 26-37 58-61 80-40 18-64-17-93-32-37-19-81-40-143-39-201 7-269 160-269 367 0 204 66 360 261 368 96 4 149-38 198-81 21-19 50-20 67 2l51 64C751-46 640 14 479 14 199 14 69-199 69-490" id="J"/><path d="M544 14C232 14 75-190 75-509c0-226 105-376 267-447 57-25 122-37 193-37 265 0 410 167 410 437 0 47-2 68-42 68H249c7 217 94 359 310 364 110 2 183-39 248-80 70-44 93 39 123 67C847-42 716 14 544 14zm243-610c-5-164-86-266-249-269-173-3-262 113-284 269h533" id="K"/><path d="M581 14c-127 0-201-47-264-114v430H141V-978c55 7 141-23 150 36l17 114c76-89 171-167 326-167 271 0 368 217 368 499 0 229-91 393-245 471-52 26-111 39-176 39zm240-510c-2-202-50-358-245-358-128 0-197 66-259 146v472c53 73 114 114 225 114 198 0 281-159 279-374" id="L"/><path d="M650-73c-53 51-136 87-233 88-153 0-235-95-235-251v-596c-55-8-148 24-148-39v-70l154-20 41-301c4-50 80-28 129-33v335h269v128H358v584c-2 72 34 118 99 120 56 2 78-32 116-46 15 0 19 7 25 17" id="M"/><g id="a"><use transform="matrix(0.010849609375,0,0,0.010849609375,0,0)" xlink:href="#D"/><use transform="matrix(0.010849609375,0,0,0.010849609375,8.690537109374999,0)" xlink:href="#E"/><use transform="matrix(0.010849609375,0,0,0.010849609375,18.042900390625,0)" xlink:href="#F"/><use transform="matrix(0.010849609375,0,0,0.010849609375,29.760478515625,0)" xlink:href="#D"/><use transform="matrix(0.010849609375,0,0,0.010849609375,38.451015625,0)" xlink:href="#G"/><use transform="matrix(0.010849609375,0,0,0.010849609375,44.396601562499995,0)" xlink:href="#H"/><use transform="matrix(0.010849609375,0,0,0.010849609375,56.244374999999984,0)" xlink:href="#F"/><use transform="matrix(0.010849609375,0,0,0.010849609375,67.961953125,0)" xlink:href="#I"/><use transform="matrix(0.010849609375,0,0,0.010849609375,79.6361328125,0)" xlink:href="#J"/><use transform="matrix(0.010849609375,0,0,0.010849609375,89.03189453124999,0)" xlink:href="#K"/><use transform="matrix(0.010849609375,0,0,0.010849609375,100.087646484375,0)" xlink:href="#L"/><use transform="matrix(0.010849609375,0,0,0.010849609375,111.66417968749998,0)" xlink:href="#M"/></g><path d="M969-949c0 213-127 324-301 372 24 16 43 33 61 57L1082 0c-87-8-195 23-235-37L536-505c-21-29-36-41-85-41H329V0H147v-1314h360c275 2 462 97 462 365zM500-679c179-3 292-82 292-257 0-157-95-235-285-235H329v492h171" id="N"/><path d="M450 15c-223 0-325-146-325-370v-623h176v623c0 141 61 233 200 231 119-1 195-63 259-133v-721h176V0c-55-7-141 23-150-36l-16-104C692-57 602 15 450 15" id="O"/><path d="M536-823c-141 7-187 99-229 205V0H131v-978c60 8 148-26 154 48l12 144c58-123 149-234 328-202 18 3 34 11 49 21l-14 130c-12 52-78 12-124 14" id="P"/><g id="b"><use transform="matrix(0.010849609375,0,0,0.010849609375,0,0)" xlink:href="#N"/><use transform="matrix(0.010849609375,0,0,0.010849609375,11.674179687499999,0)" xlink:href="#K"/><use transform="matrix(0.010849609375,0,0,0.010849609375,22.729931640624997,0)" xlink:href="#D"/><use transform="matrix(0.010849609375,0,0,0.010849609375,31.420468749999998,0)" xlink:href="#F"/><use transform="matrix(0.010849609375,0,0,0.010849609375,43.138046875,0)" xlink:href="#O"/><use transform="matrix(0.010849609375,0,0,0.010849609375,54.812226562499994,0)" xlink:href="#P"/><use transform="matrix(0.010849609375,0,0,0.010849609375,62.233359375,0)" xlink:href="#J"/><use transform="matrix(0.010849609375,0,0,0.010849609375,71.62912109375,0)" xlink:href="#K"/></g><path d="M323-1422V0H147v-1422h176" id="Q"/><g id="c"><use transform="matrix(0.010849609375,0,0,0.010849609375,0,0)" xlink:href="#N"/><use transform="matrix(0.010849609375,0,0,0.010849609375,11.609082031249999,0)" xlink:href="#F"/><use transform="matrix(0.010849609375,0,0,0.010849609375,23.32666015625,0)" xlink:href="#Q"/><use transform="matrix(0.010849609375,0,0,0.010849609375,28.425976562499997,0)" xlink:href="#K"/></g><path d="M492-995c127 0 201 45 264 114v-541h176V0c-55-7-141 23-150-36l-18-117C688-64 595 14 440 14 170 14 74-204 74-486c0-228 88-392 242-470 52-26 111-39 176-39zM255-486c2 201 49 359 242 359 130 0 195-67 259-146v-473c-54-73-114-114-224-114-197 0-279 159-277 374" id="R"/><path d="M523-1269c-167-5-192 134-183 309h263v128H346V0H170v-831c-44-9-102-4-133-26-23-17-9-67-13-103h146c-18-271 76-439 324-444 44 0 83 8 117 19-9 39 11 106-29 113-15 2-34 3-59 3" id="S"/><g id="d"><use transform="matrix(0.010849609375,0,0,0.010849609375,0,0)" xlink:href="#P"/><use transform="matrix(0.010849609375,0,0,0.010849609375,7.44283203125,0)" xlink:href="#R"/><use transform="matrix(0.010849609375,0,0,0.010849609375,19.11701171875,0)" xlink:href="#S"/><use transform="matrix(0.010849609375,0,0,0.010849609375,25.605078125,0)" xlink:href="#D"/><use transform="matrix(0.010849609375,0,0,0.010849609375,34.295615234375,0)" xlink:href="#G"/><use transform="matrix(0.010849609375,0,0,0.010849609375,40.241201171875,0)" xlink:href="#N"/><use transform="matrix(0.010849609375,0,0,0.010849609375,51.915380859375,0)" xlink:href="#K"/><use transform="matrix(0.010849609375,0,0,0.010849609375,62.97113281250001,0)" xlink:href="#D"/><use transform="matrix(0.010849609375,0,0,0.010849609375,71.661669921875,0)" xlink:href="#F"/><use transform="matrix(0.010849609375,0,0,0.010849609375,83.379248046875,0)" xlink:href="#O"/><use transform="matrix(0.010849609375,0,0,0.010849609375,95.05342773437502,0)" xlink:href="#P"/><use transform="matrix(0.010849609375,0,0,0.010849609375,102.474560546875,0)" xlink:href="#J"/><use transform="matrix(0.010849609375,0,0,0.010849609375,111.87032226562499,0)" xlink:href="#K"/></g><g id="e"><use transform="matrix(0.010849609375,0,0,0.010849609375,0,0)" xlink:href="#R"/><use transform="matrix(0.010849609375,0,0,0.010849609375,11.674179687499999,0)" xlink:href="#J"/><use transform="matrix(0.010849609375,0,0,0.010849609375,21.06994140625,0)" xlink:href="#M"/><use transform="matrix(0.010849609375,0,0,0.010849609375,28.512773437499998,0)" xlink:href="#G"/></g><path d="M835-479c17 30 30 62 44 96 13-34 27-66 43-96l464-805c25-53 129-21 198-30V0h-161c1-334-2-672 1-1004 1-16 3-32 4-49L959-229c-25 56-126 55-158 0l-480-823c4 33 6 64 6 93V0H167v-1314c56 2 123-6 171 4 9 2 18 12 27 27" id="T"/><path d="M323-978V0H147v-978h176zm-91-431c74 0 125 50 125 125 0 74-52 123-125 123s-122-50-122-123c0-74 48-125 122-125" id="U"/><path d="M514-995c228 0 341 142 341 370V0c-56-5-123 17-137-41l-22-91C610-53 522 18 358 15 189 12 84-73 84-244c0-178 154-235 319-276 76-19 169-27 280-30 12-176-30-304-190-304-107 0-171 42-231 86-34 25-81 14-98-16l-32-56c98-93 207-155 382-155zM253-253c0 98 61 145 158 145 133 0 205-61 272-130v-202c-134 6-246 19-333 58-57 26-97 59-97 129" id="V"/><path d="M974-1314v152H591V0H408v-1162H24v-152h950" id="W"/><path d="M409 288c-14 65-120 35-192 42L385-58 11-978h152c30-1 46 16 53 36 86 232 175 459 256 696 80-235 169-463 250-696 20-58 122-29 191-36" id="X"/><g id="f"><use transform="matrix(0.010849609375,0,0,0.010849609375,0,0)" xlink:href="#T"/><use transform="matrix(0.010849609375,0,0,0.010849609375,18.997666015625,0)" xlink:href="#K"/><use transform="matrix(0.010849609375,0,0,0.010849609375,30.053417968749997,0)" xlink:href="#R"/><use transform="matrix(0.010849609375,0,0,0.010849609375,41.72759765625,0)" xlink:href="#U"/><use transform="matrix(0.010849609375,0,0,0.010849609375,46.826914062499995,0)" xlink:href="#V"/><use transform="matrix(0.010849609375,0,0,0.010849609375,57.470380859375,0)" xlink:href="#W"/><use transform="matrix(0.010849609375,0,0,0.010849609375,67.28927734375,0)" xlink:href="#X"/><use transform="matrix(0.010849609375,0,0,0.010849609375,77.346865234375,0)" xlink:href="#L"/><use transform="matrix(0.010849609375,0,0,0.010849609375,89.02104492187499,0)" xlink:href="#K"/></g><path d="M1240-928c58 159 58 383 0 542-85 230-258 400-561 400S201-157 116-386c-59-159-59-383 0-542 86-230 259-401 563-401s477 171 561 401zm-172 486c38-122 39-308 0-430-56-173-170-300-389-300-293 0-420 215-420 515 0 237 85 404 247 479 99 47 246 46 346 0 107-49 178-142 216-264" id="Y"/><path d="M913-1314v148H328v431h471v143H328v444h586L913 0H145v-1314h768" id="Z"/><path d="M327-502L36-978h168c28 0 37 9 47 26l204 355c6-16 13-28 21-43l171-308c11-15 20-29 43-30h161L559-511 864 0H695c-27 1-44-19-53-36L435-406c-5 15-11 28-18 39L230-36c-11 17-23 37-50 36H23" id="aa"/><g id="g"><use transform="matrix(0.010849609375,0,0,0.010849609375,0,0)" xlink:href="#Y"/><use transform="matrix(0.010849609375,0,0,0.010849609375,14.7120703125,0)" xlink:href="#P"/><use transform="matrix(0.010849609375,0,0,0.010849609375,22.458691406249997,0)" xlink:href="#Z"/><use transform="matrix(0.010849609375,0,0,0.010849609375,33.30830078125,0)" xlink:href="#aa"/><use transform="matrix(0.010849609375,0,0,0.010849609375,42.997001953125,0)" xlink:href="#M"/><use transform="matrix(0.010849609375,0,0,0.010849609375,50.201142578124994,0)" xlink:href="#K"/><use transform="matrix(0.010849609375,0,0,0.010849609375,61.25689453125,0)" xlink:href="#I"/><use transform="matrix(0.010849609375,0,0,0.010849609375,72.724931640625,0)" xlink:href="#M"/></g><path d="M454-137c154-4 244-84 244-236 0-172-165-194-295-240-161-57-303-135-295-354 9-227 154-362 390-362 152 0 266 55 344 137l-45 85c-37 63-91-1-127-21-44-25-97-52-170-50-136 3-221 69-221 201 0 166 169 187 295 236 153 60 300 130 295 341-6 260-155 414-419 414-174 0-309-76-395-172 24-34 40-77 71-104 55-23 84 36 125 60 52 30 115 67 203 65" id="ab"/><g id="h"><use transform="matrix(0.010849609375,0,0,0.010849609375,0,0)" xlink:href="#R"/><use transform="matrix(0.010849609375,0,0,0.010849609375,11.674179687499999,0)" xlink:href="#J"/><use transform="matrix(0.010849609375,0,0,0.010849609375,21.06994140625,0)" xlink:href="#M"/><use transform="matrix(0.010849609375,0,0,0.010849609375,28.512773437499998,0)" xlink:href="#G"/><use transform="matrix(0.010849609375,0,0,0.010849609375,34.458359375,0)" xlink:href="#ab"/><use transform="matrix(0.010849609375,0,0,0.010849609375,44.667841796874995,0)" xlink:href="#M"/><use transform="matrix(0.010849609375,0,0,0.010849609375,51.839433593749995,0)" xlink:href="#V"/><use transform="matrix(0.010849609375,0,0,0.010849609375,62.482900390625005,0)" xlink:href="#I"/><use transform="matrix(0.010849609375,0,0,0.010849609375,74.157080078125,0)" xlink:href="#R"/><use transform="matrix(0.010849609375,0,0,0.010849609375,85.831259765625,0)" xlink:href="#V"/><use transform="matrix(0.010849609375,0,0,0.010849609375,96.47472656250001,0)" xlink:href="#P"/><use transform="matrix(0.010849609375,0,0,0.010849609375,103.91755859375,0)" xlink:href="#R"/></g><path d="M994-906c0 279-183 411-470 416H329V0H147v-1314h377c290 3 470 124 470 408zm-182 0c0-176-103-265-288-265H329v537h195c180-4 288-94 288-272" id="ac"/><g id="i"><use transform="matrix(0.010849609375,0,0,0.010849609375,0,0)" xlink:href="#ac"/><use transform="matrix(0.010849609375,0,0,0.010849609375,11.47888671875,0)" xlink:href="#P"/><use transform="matrix(0.010849609375,0,0,0.010849609375,18.867470703125,0)" xlink:href="#F"/><use transform="matrix(0.010849609375,0,0,0.010849609375,30.585048828125,0)" xlink:href="#S"/><use transform="matrix(0.010849609375,0,0,0.010849609375,37.3660546875,0)" xlink:href="#U"/><use transform="matrix(0.010849609375,0,0,0.010849609375,42.465371093749994,0)" xlink:href="#Q"/><use transform="matrix(0.010849609375,0,0,0.010849609375,47.56468749999999,0)" xlink:href="#K"/></g><path d="M576-854c-119 2-194 64-257 135V0H143v-1422h176v573c76-79 163-144 308-144 223 0 324 146 324 370V0H775v-623c0-140-60-233-199-231" id="ad"/><g id="j"><use transform="matrix(0.009271771274948526,0,0,0.009271771274948526,0,0)" xlink:href="#ad"/><use transform="matrix(0.009271771274948526,0,0,0.009271771274948526,9.976425891844613,0)" xlink:href="#V"/><use transform="matrix(0.009271771274948526,0,0,0.009271771274948526,19.072033512569117,0)" xlink:href="#D"/></g><g id="k"><use transform="matrix(0.009271771274948526,0,0,0.009271771274948526,0,0)" xlink:href="#M"/><use transform="matrix(0.009271771274948526,0,0,0.009271771274948526,6.174999669115718,0)" xlink:href="#F"/><use transform="matrix(0.009271771274948526,0,0,0.009271771274948526,16.188512646060126,0)" xlink:href="#E"/><use transform="matrix(0.009271771274948526,0,0,0.009271771274948526,24.2085947988906,0)" xlink:href="#K"/><use transform="matrix(0.009271771274948526,0,0,0.009271771274948526,33.65652972806315,0)" xlink:href="#I"/></g><g id="l"><use transform="matrix(0.010849609375,0,0,0.010849609375,0,0)" xlink:href="#N"/><use transform="matrix(0.010849609375,0,0,0.010849609375,11.674179687499999,0)" xlink:href="#K"/><use transform="matrix(0.010849609375,0,0,0.010849609375,22.729931640624997,0)" xlink:href="#D"/><use transform="matrix(0.010849609375,0,0,0.010849609375,31.420468749999998,0)" xlink:href="#F"/><use transform="matrix(0.010849609375,0,0,0.010849609375,43.138046875,0)" xlink:href="#O"/><use transform="matrix(0.010849609375,0,0,0.010849609375,54.812226562499994,0)" xlink:href="#P"/><use transform="matrix(0.010849609375,0,0,0.010849609375,62.233359375,0)" xlink:href="#J"/><use transform="matrix(0.010849609375,0,0,0.010849609375,71.62912109375,0)" xlink:href="#K"/></g><path d="M1148-926c58 156 58 382 0 538C1064-162 892 0 593 0H139v-1314h454c298 6 472 162 555 388zM976-442c38-121 39-309 0-430-55-171-167-295-383-295H322v1020c157-7 329 19 441-35 105-50 176-139 213-260" id="ae"/><g id="m"><use transform="matrix(0.010849609375,0,0,0.010849609375,0,0)" xlink:href="#ae"/><use transform="matrix(0.010849609375,0,0,0.010849609375,13.670507812499999,0)" xlink:href="#K"/><use transform="matrix(0.010849609375,0,0,0.010849609375,24.726259765625,0)" xlink:href="#D"/><use transform="matrix(0.010849609375,0,0,0.010849609375,33.416796874999996,0)" xlink:href="#J"/><use transform="matrix(0.010849609375,0,0,0.010849609375,42.81255859375,0)" xlink:href="#P"/><use transform="matrix(0.010849609375,0,0,0.010849609375,50.5591796875,0)" xlink:href="#U"/><use transform="matrix(0.010849609375,0,0,0.010849609375,55.658496093749996,0)" xlink:href="#L"/><use transform="matrix(0.010849609375,0,0,0.010849609375,67.235029296875,0)" xlink:href="#M"/><use transform="matrix(0.010849609375,0,0,0.010849609375,74.46086914062501,0)" xlink:href="#F"/><use transform="matrix(0.010849609375,0,0,0.010849609375,86.17844726562501,0)" xlink:href="#P"/></g><g id="n"><use transform="matrix(0.009271771274948526,0,0,0.009271771274948526,0,0)" xlink:href="#U"/><use transform="matrix(0.009271771274948526,0,0,0.009271771274948526,4.357732499225807,0)" xlink:href="#D"/></g><g id="o"><use transform="matrix(0.009271771274948526,0,0,0.009271771274948526,0,0)" xlink:href="#U"/><use transform="matrix(0.009271771274948526,0,0,0.009271771274948526,4.357732499225807,0)" xlink:href="#I"/><use transform="matrix(0.009271771274948526,0,0,0.009271771274948526,14.334158391070421,0)" xlink:href="#ad"/><use transform="matrix(0.009271771274948526,0,0,0.009271771274948526,24.310584282915034,0)" xlink:href="#K"/><use transform="matrix(0.009271771274948526,0,0,0.009271771274948526,33.75851921208758,0)" xlink:href="#P"/><use transform="matrix(0.009271771274948526,0,0,0.009271771274948526,40.37856390240083,0)" xlink:href="#U"/><use transform="matrix(0.009271771274948526,0,0,0.009271771274948526,44.73629640162664,0)" xlink:href="#M"/><use transform="matrix(0.009271771274948526,0,0,0.009271771274948526,50.89275252819246,0)" xlink:href="#K"/><use transform="matrix(0.009271771274948526,0,0,0.009271771274948526,60.34068745736499,0)" xlink:href="#R"/></g><path d="M545-854c-104 0-170 61-222 126V0H147v-978c54 8 140-23 149 36l15 100c68-77 143-150 284-151 143-1 221 88 255 203 52-123 153-201 320-203 220-2 335 143 335 370V0h-176v-623c1-143-65-231-201-231-139 0-216 89-216 231V0H736v-623c1-145-55-231-191-231" id="af"/><g id="p"><use transform="matrix(0.009271771274948526,0,0,0.009271771274948526,0,0)" xlink:href="#S"/><use transform="matrix(0.009271771274948526,0,0,0.009271771274948526,5.794857046842829,0)" xlink:href="#P"/><use transform="matrix(0.009271771274948526,0,0,0.009271771274948526,12.108933285082774,0)" xlink:href="#F"/><use transform="matrix(0.009271771274948526,0,0,0.009271771274948526,22.122446262027182,0)" xlink:href="#af"/></g><g id="q"><use transform="matrix(0.009271771274948526,0,0,0.009271771274948526,0,0)" xlink:href="#P"/><use transform="matrix(0.009271771274948526,0,0,0.009271771274948526,6.369706865889637,0)" xlink:href="#K"/><use transform="matrix(0.009271771274948526,0,0,0.009271771274948526,15.817641795062183,0)" xlink:href="#D"/><use transform="matrix(0.009271771274948526,0,0,0.009271771274948526,23.244330586295952,0)" xlink:href="#F"/><use transform="matrix(0.009271771274948526,0,0,0.009271771274948526,33.25784356324036,0)" xlink:href="#O"/><use transform="matrix(0.009271771274948526,0,0,0.009271771274948526,43.23426945508496,0)" xlink:href="#P"/><use transform="matrix(0.009271771274948526,0,0,0.009271771274948526,49.576161007149764,0)" xlink:href="#J"/><use transform="matrix(0.009271771274948526,0,0,0.009271771274948526,57.605514931255186,0)" xlink:href="#K"/></g><g id="r"><use transform="matrix(0.009271771274948526,0,0,0.009271771274948526,0,0)" xlink:href="#R"/><use transform="matrix(0.009271771274948526,0,0,0.009271771274948526,9.976425891844613,0)" xlink:href="#J"/><use transform="matrix(0.009271771274948526,0,0,0.009271771274948526,18.005779815950035,0)" xlink:href="#M"/><use transform="matrix(0.009271771274948526,0,0,0.009271771274948526,24.36621491056472,0)" xlink:href="#G"/></g><g id="s"><use transform="matrix(0.009271771274948526,0,0,0.009271771274948526,0,0)" xlink:href="#S"/><use transform="matrix(0.009271771274948526,0,0,0.009271771274948526,5.396170882020043,0)" xlink:href="#F"/><use transform="matrix(0.009271771274948526,0,0,0.009271771274948526,15.409683858964451,0)" xlink:href="#P"/><use transform="matrix(0.009271771274948526,0,0,0.009271771274948526,22.0297285492777,0)" xlink:href="#af"/><use transform="matrix(0.009271771274948526,0,0,0.009271771274948526,37.19834635509349,0)" xlink:href="#V"/><use transform="matrix(0.009271771274948526,0,0,0.009271771274948526,46.11779032159397,0)" xlink:href="#M"/></g><g id="t"><use transform="matrix(0.009271771274948526,0,0,0.009271771274948526,0,0)" xlink:href="#V"/><use transform="matrix(0.009271771274948526,0,0,0.009271771274948526,9.095607620724504,0)" xlink:href="#P"/><use transform="matrix(0.009271771274948526,0,0,0.009271771274948526,15.71565231103775,0)" xlink:href="#M"/><use transform="matrix(0.009271771274948526,0,0,0.009271771274948526,22.076087405652434,0)" xlink:href="#U"/><use transform="matrix(0.009271771274948526,0,0,0.009271771274948526,26.433819904878245,0)" xlink:href="#S"/><use transform="matrix(0.009271771274948526,0,0,0.009271771274948526,31.85780610072313,0)" xlink:href="#V"/><use transform="matrix(0.009271771274948526,0,0,0.009271771274948526,40.95341372144763,0)" xlink:href="#J"/><use transform="matrix(0.009271771274948526,0,0,0.009271771274948526,48.982767645553054,0)" xlink:href="#M"/></g><g id="u"><use transform="matrix(0.009271771274948526,0,0,0.009271771274948526,0,0)" xlink:href="#P"/><use transform="matrix(0.009271771274948526,0,0,0.009271771274948526,6.314076238239946,0)" xlink:href="#F"/><use transform="matrix(0.009271771274948526,0,0,0.009271771274948526,16.327589215184354,0)" xlink:href="#Q"/><use transform="matrix(0.009271771274948526,0,0,0.009271771274948526,20.68532171441016,0)" xlink:href="#K"/></g><g id="v"><use transform="matrix(0.010849609375,0,0,0.010849609375,0,0)" xlink:href="#aa"/><use transform="matrix(0.010849609375,0,0,0.010849609375,9.493408203125,0)" xlink:href="#D"/><use transform="matrix(0.010849609375,0,0,0.010849609375,18.1839453125,0)" xlink:href="#R"/><use transform="matrix(0.010849609375,0,0,0.010849609375,29.858125000000005,0)" xlink:href="#G"/><use transform="matrix(0.010849609375,0,0,0.010849609375,35.8037109375,0)" xlink:href="#M"/><use transform="matrix(0.010849609375,0,0,0.010849609375,43.02955078125,0)" xlink:href="#F"/><use transform="matrix(0.010849609375,0,0,0.010849609375,54.74712890625,0)" xlink:href="#E"/><use transform="matrix(0.010849609375,0,0,0.010849609375,64.13204101562499,0)" xlink:href="#K"/><use transform="matrix(0.010849609375,0,0,0.010849609375,75.18779296874999,0)" xlink:href="#I"/></g><path d="M24-231v-30h32v30H24zM24 0v-190h32V0H24" id="ag"/><path d="M135-143c-3-34-86-38-87 0 15 53 115 12 119 90S17 21 10-45l28-5c4 36 97 45 98 0-10-56-113-15-118-90-4-57 82-63 122-42 12 7 21 19 24 35" id="ah"/><g id="w"><use transform="matrix(0.052746076586373834,0,0,0.052746076586373834,0,0)" xlink:href="#ag"/><use transform="matrix(0.052746076586373834,0,0,0.052746076586373834,4.166940050323533,0)" xlink:href="#ah"/></g><path d="M115-194c55 1 70 41 70 98S169 2 115 4C84 4 66-9 55-30l1 105H24l-1-265h31l2 30c10-21 28-34 59-34zm-8 174c40 0 45-34 45-75s-6-73-45-74c-42 0-51 32-51 76 0 43 10 73 51 73" id="ai"/><path d="M114-163C36-179 61-72 57 0H25l-1-190h30c1 12-1 29 2 39 6-27 23-49 58-41v29" id="aj"/><path d="M100-194c62-1 85 37 85 99 1 63-27 99-86 99S16-35 15-95c0-66 28-99 85-99zM99-20c44 1 53-31 53-75 0-43-8-75-51-75s-53 32-53 75 10 74 51 75" id="ak"/><path d="M101-234c-31-9-42 10-38 44h38v23H63V0H32v-167H5v-23h27c-7-52 17-82 69-68v24" id="al"/><path d="M24 0v-261h32V0H24" id="am"/><path d="M100-194c63 0 86 42 84 106H49c0 40 14 67 53 68 26 1 43-12 49-29l28 8c-11 28-37 45-77 45C44 4 14-33 15-96c1-61 26-98 85-98zm52 81c6-60-76-77-97-28-3 7-6 17-6 28h103" id="an"/><g id="x"><use transform="matrix(0.052746076586373834,0,0,0.052746076586373834,0,0)" xlink:href="#ai"/><use transform="matrix(0.052746076586373834,0,0,0.052746076586373834,10.549215317274767,0)" xlink:href="#aj"/><use transform="matrix(0.052746076586373834,0,0,0.052746076586373834,16.825998431053254,0)" xlink:href="#ak"/><use transform="matrix(0.052746076586373834,0,0,0.052746076586373834,27.37521374832802,0)" xlink:href="#al"/><use transform="matrix(0.052746076586373834,0,0,0.052746076586373834,32.64982140696541,0)" xlink:href="#ag"/><use transform="matrix(0.052746076586373834,0,0,0.052746076586373834,36.81676145728894,0)" xlink:href="#am"/><use transform="matrix(0.052746076586373834,0,0,0.052746076586373834,40.98370150761247,0)" xlink:href="#an"/></g><g id="y"><use transform="matrix(0.052746076586373834,0,0,0.052746076586373834,0,0)" xlink:href="#ak"/><use transform="matrix(0.052746076586373834,0,0,0.052746076586373834,10.549215317274767,0)" xlink:href="#al"/></g><path d="M85-194c31 0 48 13 60 33l-1-100h32l1 261h-30c-2-10 0-23-3-31C134-8 116 4 85 4 32 4 16-35 15-94c0-66 23-100 70-100zm9 24c-40 0-46 34-46 75 0 40 6 74 45 74 42 0 51-32 51-76 0-42-9-74-50-73" id="ao"/><path d="M96-169c-40 0-48 33-48 73s9 75 48 75c24 0 41-14 43-38l32 2c-6 37-31 61-74 61-59 0-76-41-82-99-10-93 101-131 147-64 4 7 5 14 7 22l-32 3c-4-21-16-35-41-35" id="ap"/><path d="M59-47c-2 24 18 29 38 22v24C64 9 27 4 27-40v-127H5v-23h24l9-43h21v43h35v23H59v120" id="aq"/><path d="M33-154v-36h34v36H33zM33 0v-36h34V0H33" id="ar"/><g id="z"><use transform="matrix(0.052746076586373834,0,0,0.052746076586373834,0,0)" xlink:href="#ao"/><use transform="matrix(0.052746076586373834,0,0,0.052746076586373834,10.549215317274767,0)" xlink:href="#ap"/><use transform="matrix(0.052746076586373834,0,0,0.052746076586373834,20.043509102822057,0)" xlink:href="#aq"/><use transform="matrix(0.052746076586373834,0,0,0.052746076586373834,25.31811676145944,0)" xlink:href="#ar"/></g><path d="M117-194c89-4 53 116 60 194h-32v-121c0-31-8-49-39-48C34-167 62-67 57 0H25l-1-190h30c1 10-1 24 2 32 11-22 29-35 61-36" id="as"/><path d="M210-169c-67 3-38 105-44 169h-31v-121c0-29-5-50-35-48C34-165 62-65 56 0H25l-1-190h30c1 10-1 24 2 32 10-44 99-50 107 0 11-21 27-35 58-36 85-2 47 119 55 194h-31v-121c0-29-5-49-35-48" id="at"/><g id="A"><use transform="matrix(0.052746076586373834,0,0,0.052746076586373834,0,0)" xlink:href="#ap"/><use transform="matrix(0.052746076586373834,0,0,0.052746076586373834,9.49429378554729,0)" xlink:href="#ak"/><use transform="matrix(0.052746076586373834,0,0,0.052746076586373834,20.043509102822057,0)" xlink:href="#as"/><use transform="matrix(0.052746076586373834,0,0,0.052746076586373834,30.592724420096825,0)" xlink:href="#al"/><use transform="matrix(0.052746076586373834,0,0,0.052746076586373834,35.86733207873421,0)" xlink:href="#ak"/><use transform="matrix(0.052746076586373834,0,0,0.052746076586373834,46.41654739600897,0)" xlink:href="#aj"/><use transform="matrix(0.052746076586373834,0,0,0.052746076586373834,52.69333050978746,0)" xlink:href="#at"/><use transform="matrix(0.052746076586373834,0,0,0.052746076586373834,68.46440740911324,0)" xlink:href="#ah"/></g><path d="M127-220V0H93v-220H8v-28h204v28h-85" id="au"/><g id="B"><use transform="matrix(0.052746076586373834,0,0,0.052746076586373834,0,0)" xlink:href="#au"/><use transform="matrix(0.052746076586373834,0,0,0.052746076586373834,9.441547708960917,0)" xlink:href="#ak"/></g><g id="C"><use transform="matrix(0.010849609375,0,0,0.010849609375,0,0)" xlink:href="#P"/><use transform="matrix(0.010849609375,0,0,0.010849609375,7.44283203125,0)" xlink:href="#R"/><use transform="matrix(0.010849609375,0,0,0.010849609375,19.11701171875,0)" xlink:href="#S"/><use transform="matrix(0.010849609375,0,0,0.010849609375,25.898017578125,0)" xlink:href="#G"/><use transform="matrix(0.010849609375,0,0,0.010849609375,31.843603515625,0)" xlink:href="#N"/><use transform="matrix(0.010849609375,0,0,0.010849609375,43.517783203125,0)" xlink:href="#K"/><use transform="matrix(0.010849609375,0,0,0.010849609375,54.57353515625001,0)" xlink:href="#D"/><use transform="matrix(0.010849609375,0,0,0.010849609375,63.264072265625,0)" xlink:href="#F"/><use transform="matrix(0.010849609375,0,0,0.010849609375,74.981650390625,0)" xlink:href="#O"/><use transform="matrix(0.010849609375,0,0,0.010849609375,86.655830078125,0)" xlink:href="#P"/><use transform="matrix(0.010849609375,0,0,0.010849609375,94.076962890625,0)" xlink:href="#J"/><use transform="matrix(0.010849609375,0,0,0.010849609375,103.47272460937499,0)" xlink:href="#K"/></g></defs></g></svg>