<svg xmlns="http://www.w3.org/2000/svg" xmlns:xlink="http://www.w3.org/1999/xlink" xmlns:lucid="lucid" width="472.67" height="456.67"><g transform="translate(0 0)" lucid:page-tab-id="SOG3GcMHgkU0"><path d="M0 0h472.67v456.67H0z" fill="#fff"/><path d="M2088.46-279.6h36912.4v1975.27H2088.46z" stroke="#000" stroke-opacity="0" stroke-width="1.67" fill-opacity="0"/><use xlink:href="#a" transform="matrix(1,0,0,1,19.651796000000008,8.888800000000002) translate(20.369213867187497 20.1675)"/><use xlink:href="#b" transform="matrix(1,0,0,1,19.651796000000008,8.888800000000002) translate(116.0843017578125 20.1675)"/><path d="M182.05 61.68H28.35c-10.57 0-19.22 8.62-19.22 19.25v79.6c0 10.63 8.65 19.26 19.22 19.26h153.7c10.56 0 19.2-8.64 19.2-19.26v-79.6c0-10.64-8.64-19.26-19.2-19.26z" stroke="#000" fill="#fff"/><use xlink:href="#c" transform="matrix(1,0,0,1,17.971795999681873,70.53525000156968) translate(17.44407226562501 56.055)"/><use xlink:href="#d" transform="matrix(1,0,0,1,17.971795999681873,70.53525000156968) translate(112.58429687499999 56.055)"/><path d="M38.1 432.7v-71.32M38.1 432.68v.5" stroke="#000" fill="none"/><path d="M38.1 346.62l4.65 14.26h-9.28z" stroke="#000" fill="#fff"/><path d="M182.05 202.97H28.35c-10.57 0-19.22 8.62-19.22 19.25v79.6c0 10.64 8.65 19.26 19.22 19.26h153.7c10.56 0 19.2-8.62 19.2-19.25v-79.6c0-10.64-8.64-19.26-19.2-19.26z" stroke="#000" fill="#a5a5a5"/><use xlink:href="#e" transform="matrix(1,0,0,1,17.971795999681266,211.83025000156994) translate(38.3783935546875 56.055)"/><use xlink:href="#d" transform="matrix(1,0,0,1,17.971795999681266,211.83025000156994) translate(91.64997558593751 56.055)"/><path d="M7986.54 30625.96h27865.3v1975.27H7986.53z" stroke="#000" stroke-opacity="0" stroke-width="1.67" fill-opacity="0"/><use xlink:href="#f" transform="matrix(1,0,0,1,56.40623700000001,385.3748) translate(0 19.055)"/><path d="M417.9 201.28H264.2c-10.55 0-19.2 8.62-19.2 19.25v79.6c0 10.64 8.65 19.26 19.2 19.26h153.7c10.58 0 19.23-8.63 19.23-19.26v-79.6c0-10.64-8.65-19.26-19.22-19.26z" stroke="#000" fill="#a5a5a5"/><use xlink:href="#g" transform="matrix(1,0,0,1,253.83779600003294,210.1365833244381) translate(58.189780273437506 56.055)"/><path d="M417.9 20H264.2c-10.55 0-19.2 8.62-19.2 19.25v79.6c0 10.64 8.65 19.26 19.2 19.26h153.7c10.58 0 19.23-8.6 19.23-19.24v-79.6c0-10.64-8.65-19.26-19.22-19.26z" stroke="#000" fill="#fff"/><use xlink:href="#h" transform="matrix(1,0,0,1,253.8377960000329,28.858250001569928) translate(70.2708203125 42.723)"/><use xlink:href="#i" transform="matrix(1,0,0,1,253.8377960000329,28.858250001569928) translate(46.933310546875006 69.387)"/><path d="M341.06 200.28v-45.3" stroke="#000" fill="none"/><path d="M341.56 200.78h-1v-.5h1z"/><path d="M345.7 154.5h-9.27l4.63-14.27z" fill="#fff"/><path d="M346.4 155h-10.66l5.32-16.4zm-9.28-1h7.9l-3.96-12.15z"/><defs><path d="M913-1314v148H328v431h471v143H328v444h586L913 0H145v-1314h768" id="j"/><path d="M323-1422V0H147v-1422h176" id="k"/><path d="M544 14C232 14 75-190 75-509c0-226 105-376 267-447 57-25 122-37 193-37 265 0 410 167 410 437 0 47-2 68-42 68H249c7 217 94 359 310 364 110 2 183-39 248-80 70-44 93 39 123 67C847-42 716 14 544 14zm243-610c-5-164-86-266-249-269-173-3-262 113-284 269h533" id="l"/><path d="M545-854c-104 0-170 61-222 126V0H147v-978c54 8 140-23 149 36l15 100c68-77 143-150 284-151 143-1 221 88 255 203 52-123 153-201 320-203 220-2 335 143 335 370V0h-176v-623c1-143-65-231-201-231-139 0-216 89-216 231V0H736v-623c1-145-55-231-191-231" id="m"/><path d="M575-854c-119 2-197 63-259 134V0H140v-978c55 7 141-23 150 36l15 104c78-83 170-155 321-155 223 0 325 146 325 370V0H775v-623c0-140-61-233-200-231" id="n"/><path d="M650-73c-53 51-136 87-233 88-153 0-235-95-235-251v-596c-55-8-148 24-148-39v-70l154-20 41-301c4-50 80-28 129-33v335h269v128H358v584c-2 72 34 118 99 120 56 2 78-32 116-46 15 0 19 7 25 17" id="o"/><g id="a"><use transform="matrix(0.0130224609375,0,0,0.0130224609375,0,0)" xlink:href="#j"/><use transform="matrix(0.0130224609375,0,0,0.0130224609375,13.0224609375,0)" xlink:href="#k"/><use transform="matrix(0.0130224609375,0,0,0.0130224609375,19.143017578125,0)" xlink:href="#l"/><use transform="matrix(0.0130224609375,0,0,0.0130224609375,32.4129052734375,0)" xlink:href="#m"/><use transform="matrix(0.0130224609375,0,0,0.0130224609375,53.7176513671875,0)" xlink:href="#l"/><use transform="matrix(0.0130224609375,0,0,0.0130224609375,66.9875390625,0)" xlink:href="#n"/><use transform="matrix(0.0130224609375,0,0,0.0130224609375,80.7522802734375,0)" xlink:href="#o"/><path d="M-1.33.08h98.38V2.6H-1.33z"/></g><path d="M306-740c60 2 107 0 133-38l339-494c22-28 41-41 86-42h156L620-750c-21 29-44 49-67 61 31 11 60 31 83 65L1049 0c-85-7-198 21-238-38L463-558c-23-30-38-42-90-42h-67V0H124v-1314h182v574" id="p"/><path d="M409 288c-14 65-120 35-192 42L385-58 11-978h152c30-1 46 16 53 36 86 232 175 459 256 696 80-235 169-463 250-696 20-58 122-29 191-36" id="q"/><g id="b"><use transform="matrix(0.0130224609375,0,0,0.0130224609375,0,0)" xlink:href="#p"/><use transform="matrix(0.0130224609375,0,0,0.0130224609375,13.3740673828125,0)" xlink:href="#l"/><use transform="matrix(0.0130224609375,0,0,0.0130224609375,26.4746630859375,0)" xlink:href="#q"/><path d="M-1.33.08h41.2V2.6h-41.2z"/></g><path d="M75-490c0-310 160-503 466-503s464 194 464 503c0 310-158 504-464 504C234 14 75-180 75-490zm181 1c0 215 74 366 285 366 210 0 283-152 283-366s-74-367-283-367c-211 0-285 152-285 367" id="r"/><path d="M75-653h478v149H75v-149" id="s"/><path d="M994-906c0 279-183 411-470 416H329V0H147v-1314h377c290 3 470 124 470 408zm-182 0c0-176-103-265-288-265H329v537h195c180-4 288-94 288-272" id="t"/><path d="M969-949c0 213-127 324-301 372 24 16 43 33 61 57L1082 0c-87-8-195 23-235-37L536-505c-21-29-36-41-85-41H329V0H147v-1314h360c275 2 462 97 462 365zM500-679c179-3 292-82 292-257 0-157-95-235-285-235H329v492h171" id="u"/><path d="M1240-928c58 159 58 383 0 542-85 230-258 400-561 400S201-157 116-386c-59-159-59-383 0-542 86-230 259-401 563-401s477 171 561 401zm-172 486c38-122 39-308 0-430-56-173-170-300-389-300-293 0-420 215-420 515 0 237 85 404 247 479 99 47 246 46 346 0 107-49 178-142 216-264" id="v"/><path d="M882-1314v148H321v455h477v148H321V0H138v-1314h744" id="w"/><g id="c"><use transform="matrix(0.010849609375,0,0,0.010849609375,0,0)" xlink:href="#n"/><use transform="matrix(0.010849609375,0,0,0.010849609375,11.674179687499999,0)" xlink:href="#r"/><use transform="matrix(0.010849609375,0,0,0.010849609375,23.391757812499993,0)" xlink:href="#n"/><use transform="matrix(0.010849609375,0,0,0.010849609375,35.0659375,0)" xlink:href="#s"/><use transform="matrix(0.010849609375,0,0,0.010849609375,41.868642578125,0)" xlink:href="#t"/><use transform="matrix(0.010849609375,0,0,0.010849609375,53.347529296874995,0)" xlink:href="#u"/><use transform="matrix(0.010849609375,0,0,0.010849609375,65.19530273437499,0)" xlink:href="#v"/><use transform="matrix(0.010849609375,0,0,0.010849609375,79.907373046875,0)" xlink:href="#w"/></g><path d="M1052-184C961-66 832 17 628 14c-289-4-447-172-522-398-53-160-53-388 3-546 81-226 241-394 534-399 180-3 301 72 392 167-25 33-46 70-75 99-51 21-73-33-114-51-77-60-256-80-362-23-152 81-231 248-231 480 0 233 83 400 235 481 113 60 301 37 376-30 33-15 74-101 116-56" id="x"/><path d="M514-995c228 0 341 142 341 370V0c-56-5-123 17-137-41l-22-91C610-53 522 18 358 15 189 12 84-73 84-244c0-178 154-235 319-276 76-19 169-27 280-30 12-176-30-304-190-304-107 0-171 42-231 86-34 25-81 14-98-16l-32-56c98-93 207-155 382-155zM253-253c0 98 61 145 158 145 133 0 205-61 272-130v-202c-134 6-246 19-333 58-57 26-97 59-97 129" id="y"/><path d="M95-709c0-188 136-281 332-284 128-2 226 47 291 114-25 33-46 112-108 74-47-29-100-60-179-58-97 2-169 47-169 140 0 121 140 131 235 168 118 46 235 94 235 255C732-91 595 11 381 15 247 17 139-38 70-104c26-39 56-126 124-80 51 35 104 76 195 74 109-2 179-54 179-159 0-126-138-136-236-173C209-488 95-543 95-709" id="z"/><g id="d"><use transform="matrix(0.010849609375,0,0,0.010849609375,0,0)" xlink:href="#x"/><use transform="matrix(0.010849609375,0,0,0.010849609375,11.847773437499999,0)" xlink:href="#k"/><use transform="matrix(0.010849609375,0,0,0.010849609375,16.94708984375,0)" xlink:href="#y"/><use transform="matrix(0.010849609375,0,0,0.010849609375,27.590556640625,0)" xlink:href="#z"/><use transform="matrix(0.010849609375,0,0,0.010849609375,36.28109375,0)" xlink:href="#z"/></g><g id="e"><use transform="matrix(0.010849609375,0,0,0.010849609375,0,0)" xlink:href="#t"/><use transform="matrix(0.010849609375,0,0,0.010849609375,11.47888671875,0)" xlink:href="#u"/><use transform="matrix(0.010849609375,0,0,0.010849609375,23.32666015625,0)" xlink:href="#v"/><use transform="matrix(0.010849609375,0,0,0.010849609375,38.03873046875,0)" xlink:href="#w"/></g><path d="M536-823c-141 7-187 99-229 205V0H131v-978c60 8 148-26 154 48l12 144c58-123 149-234 328-202 18 3 34 11 49 21l-14 130c-12 52-78 12-124 14" id="A"/><path d="M492-995c127 0 201 45 264 114v-541h176V0c-55-7-141 23-150-36l-18-117C688-64 595 14 440 14 170 14 74-204 74-486c0-228 88-392 242-470 52-26 111-39 176-39zM255-486c2 201 49 359 242 359 130 0 195-67 259-146v-473c-54-73-114-114-224-114-197 0-279 159-277 374" id="B"/><path d="M523-1269c-167-5-192 134-183 309h263v128H346V0H170v-831c-44-9-102-4-133-26-23-17-9-67-13-103h146c-18-271 76-439 324-444 44 0 83 8 117 19-9 39 11 106-29 113-15 2-34 3-59 3" id="C"/><path d="M271-232c74 0 125 50 125 125 0 74-52 123-125 123S149-34 149-107c0-74 48-125 122-125zm-6-678c74 0 125 50 125 125 0 74-52 123-125 123s-122-50-122-123c0-74 48-125 122-125" id="D"/><path d="M450 15c-223 0-325-146-325-370v-623h176v623c0 141 61 233 200 231 119-1 195-63 259-133v-721h176V0c-55-7-141 23-150-36l-16-104C692-57 602 15 450 15" id="E"/><path d="M586 14c-139 0-211-58-275-138-12 47 7 124-53 124H144v-1422h176v583c74-85 165-154 314-154 264 0 368 206 368 479 0 238-85 409-243 490-51 25-109 38-173 38zm235-522c0-208-63-346-246-346-127 0-194 66-255 146v472c53 73 113 114 222 114 204 0 279-159 279-386" id="F"/><g id="f"><use transform="matrix(0.010849609375,0,0,0.010849609375,0,0)" xlink:href="#A"/><use transform="matrix(0.010849609375,0,0,0.010849609375,7.44283203125,0)" xlink:href="#B"/><use transform="matrix(0.010849609375,0,0,0.010849609375,19.11701171875,0)" xlink:href="#C"/><use transform="matrix(0.010849609375,0,0,0.010849609375,25.605078125,0)" xlink:href="#z"/><use transform="matrix(0.010849609375,0,0,0.010849609375,34.295615234375,0)" xlink:href="#D"/><use transform="matrix(0.010849609375,0,0,0.010849609375,40.241201171875,0)" xlink:href="#z"/><use transform="matrix(0.010849609375,0,0,0.010849609375,48.93173828125,0)" xlink:href="#E"/><use transform="matrix(0.010849609375,0,0,0.010849609375,60.60591796875,0)" xlink:href="#F"/><use transform="matrix(0.010849609375,0,0,0.010849609375,72.28009765624999,0)" xlink:href="#x"/><use transform="matrix(0.010849609375,0,0,0.010849609375,84.12787109374999,0)" xlink:href="#k"/><use transform="matrix(0.010849609375,0,0,0.010849609375,89.22718749999997,0)" xlink:href="#y"/><use transform="matrix(0.010849609375,0,0,0.010849609375,99.87065429687499,0)" xlink:href="#z"/><use transform="matrix(0.010849609375,0,0,0.010849609375,108.56119140624999,0)" xlink:href="#z"/><use transform="matrix(0.010849609375,0,0,0.010849609375,117.25172851562499,0)" xlink:href="#v"/><use transform="matrix(0.010849609375,0,0,0.010849609375,131.963798828125,0)" xlink:href="#C"/></g><path d="M323-978V0H147v-978h176zm-91-431c74 0 125 50 125 125 0 74-52 123-125 123s-122-50-122-123c0-74 48-125 122-125" id="G"/><g id="g"><use transform="matrix(0.010849609375,0,0,0.010849609375,0,0)" xlink:href="#t"/><use transform="matrix(0.010849609375,0,0,0.010849609375,11.47888671875,0)" xlink:href="#A"/><use transform="matrix(0.010849609375,0,0,0.010849609375,18.867470703125,0)" xlink:href="#r"/><use transform="matrix(0.010849609375,0,0,0.010849609375,30.585048828125,0)" xlink:href="#C"/><use transform="matrix(0.010849609375,0,0,0.010849609375,37.3660546875,0)" xlink:href="#G"/><use transform="matrix(0.010849609375,0,0,0.010849609375,42.465371093749994,0)" xlink:href="#k"/><use transform="matrix(0.010849609375,0,0,0.010849609375,47.56468749999999,0)" xlink:href="#l"/></g><path d="M69-490c0-299 140-503 438-503 143 0 234 53 308 127-20 26-37 58-61 80-40 18-64-17-93-32-37-19-81-40-143-39-201 7-269 160-269 367 0 204 66 360 261 368 96 4 149-38 198-81 21-19 50-20 67 2l51 64C751-46 640 14 479 14 199 14 69-199 69-490" id="H"/><g id="h"><use transform="matrix(0.010849609375,0,0,0.010849609375,0,0)" xlink:href="#B"/><use transform="matrix(0.010849609375,0,0,0.010849609375,11.674179687499999,0)" xlink:href="#H"/><use transform="matrix(0.010849609375,0,0,0.010849609375,21.06994140625,0)" xlink:href="#o"/><use transform="matrix(0.010849609375,0,0,0.010849609375,28.512773437499998,0)" xlink:href="#D"/></g><path d="M454-137c154-4 244-84 244-236 0-172-165-194-295-240-161-57-303-135-295-354 9-227 154-362 390-362 152 0 266 55 344 137l-45 85c-37 63-91-1-127-21-44-25-97-52-170-50-136 3-221 69-221 201 0 166 169 187 295 236 153 60 300 130 295 341-6 260-155 414-419 414-174 0-309-76-395-172 24-34 40-77 71-104 55-23 84 36 125 60 52 30 115 67 203 65" id="I"/><g id="i"><use transform="matrix(0.010849609375,0,0,0.010849609375,0,0)" xlink:href="#I"/><use transform="matrix(0.010849609375,0,0,0.010849609375,10.209482421875,0)" xlink:href="#o"/><use transform="matrix(0.010849609375,0,0,0.010849609375,17.38107421875,0)" xlink:href="#y"/><use transform="matrix(0.010849609375,0,0,0.010849609375,28.024541015624997,0)" xlink:href="#n"/><use transform="matrix(0.010849609375,0,0,0.010849609375,39.698720703125,0)" xlink:href="#B"/><use transform="matrix(0.010849609375,0,0,0.010849609375,51.372900390625,0)" xlink:href="#y"/><use transform="matrix(0.010849609375,0,0,0.010849609375,62.016367187499995,0)" xlink:href="#A"/><use transform="matrix(0.010849609375,0,0,0.010849609375,69.45919921874999,0)" xlink:href="#B"/></g></defs></g></svg>