<svg xmlns="http://www.w3.org/2000/svg" xmlns:xlink="http://www.w3.org/1999/xlink" xmlns:lucid="lucid" width="1106" height="656.67"><g transform="translate(0 0)" lucid:page-tab-id="b2A3xEbbgpNo"><path d="M0 0h1106v656.67H0z" fill="#fff"/><path d="M2088.46-279.6h36912.4v1975.27H2088.46z" stroke="#000" stroke-opacity="0" stroke-width="1.67" fill-opacity="0"/><use xlink:href="#a" transform="matrix(1,0,0,1,19.651796000000008,8.888800000000002) translate(20.369213867187497 20.1675)"/><use xlink:href="#b" transform="matrix(1,0,0,1,19.651796000000008,8.888800000000002) translate(116.0843017578125 20.1675)"/><path d="M182.05 61.68H28.35c-10.57 0-19.22 8.62-19.22 19.25v79.6c0 10.63 8.65 19.26 19.22 19.26h153.7c10.56 0 19.2-8.64 19.2-19.26v-79.6c0-10.64-8.64-19.26-19.2-19.26z" stroke="#000" fill="#fff"/><use xlink:href="#c" transform="matrix(1,0,0,1,17.971795999681873,70.53525000156968) translate(17.44407226562501 56.055)"/><use xlink:href="#d" transform="matrix(1,0,0,1,17.971795999681873,70.53525000156968) translate(112.58429687499999 56.055)"/><path d="M38.1 432.7v-71.32M38.1 432.68v.5" stroke="#000" fill="none"/><path d="M38.1 346.62l4.65 14.26h-9.28z" stroke="#000" fill="#fff"/><path d="M182.05 202.97H28.35c-10.57 0-19.22 8.62-19.22 19.25v79.6c0 10.64 8.65 19.26 19.22 19.26h153.7c10.56 0 19.2-8.62 19.2-19.25v-79.6c0-10.64-8.64-19.26-19.2-19.26z" stroke="#000" fill="#a5a5a5"/><use xlink:href="#e" transform="matrix(1,0,0,1,17.971795999681266,211.83025000156994) translate(38.3783935546875 56.055)"/><use xlink:href="#d" transform="matrix(1,0,0,1,17.971795999681266,211.83025000156994) translate(91.64997558593751 56.055)"/><path d="M7986.54 30625.96h27865.3v1975.27H7986.53z" stroke="#000" stroke-opacity="0" stroke-width="1.67" fill-opacity="0"/><use xlink:href="#f" transform="matrix(1,0,0,1,56.40623700000001,385.3748) translate(0 19.055)"/><path d="M412.9 413.92H259.2c-10.55 0-19.2 8.62-19.2 19.25v79.6c0 10.63 8.65 19.26 19.2 19.26h153.7c10.58 0 19.23-8.63 19.23-19.25v-79.6c0-10.64-8.65-19.26-19.22-19.26z" stroke="#000" fill="#fff"/><use xlink:href="#g" transform="matrix(1,0,0,1,248.8377960000344,422.77524999110483) translate(65.10640624999999 42.723)"/><use xlink:href="#h" transform="matrix(1,0,0,1,248.8377960000344,422.77524999110483) translate(37.374804687499996 69.387)"/><path d="M38.1 642.63V556M38.1 642.62v.57M48.3 573.3l-10.2-17.2-10.17 17.2" stroke="#000" stroke-width="1.11" fill="none"/><path d="M8515.5 9562.38h27865.3v1975.27H8515.5z" stroke="#000" stroke-opacity="0" stroke-width="1.67" fill-opacity="0"/><use xlink:href="#i" transform="matrix(1,0,0,1,59.55623699999999,585.7608) translate(0 19.055)"/><path d="M38.1 537.63V451" fill="none"/><path d="M38.1 537.63v-5.77m0-5.78v-11.55m0-5.77V497.2m0-5.77v-11.55m0-5.77v-11.54m0-5.78V451M38.1 537.62v.57M48.3 468.3l-10.2-17.2-10.17 17.2" stroke="#000" stroke-width="1.11" fill="none"/><path d="M8515.5 35490.34h27865.3v1975.27H8515.5z" stroke="#000" stroke-opacity="0" stroke-width="1.67" fill-opacity="0"/><use xlink:href="#j" transform="matrix(1,0,0,1,59.55623700000002,490.3748) translate(0 19.055)"/><path d="M568.94 472.97h-135.3" fill="none"/><path d="M568.94 472.97h-5.63m-5.63 0H546.4m-5.64 0h-11.28m-5.64 0h-11.27m-5.64 0h-11.28m-5.64 0h-11.26m-5.64 0h-11.28m-5.63 0h-11.3m-5.63 0h-5.63" stroke="#000" stroke-width="1.11" fill="none"/><path d="M569.5 473.53h-.57v-1.1h.57zM451.2 463.27l-16.4 9.7 16.4 9.7-.55.96-18.02-10.66 18.02-10.66zM771.33 276.57h-8.15v-1.1h8.15zm127.16 0h-22.37v-1.1h22.36z"/><path d="M763.2 276.57h-.57v-1.1h.57zM899.5 276l-18.02 10.67-.57-.95 16.42-9.7-16.4-9.7.56-.97z"/><use xlink:href="#k" transform="matrix(1,0,0,1,771.3326613133236,265.21350000523256) translate(0 14.4)"/><use xlink:href="#l" transform="matrix(1,0,0,1,771.3326613133236,265.21350000523256) translate(74.9 14.4)"/><path d="M742.9 413.92H589.2c-10.55 0-19.2 8.62-19.2 19.25v79.6c0 10.63 8.65 19.26 19.2 19.26h153.7c10.58 0 19.23-8.63 19.23-19.25v-79.6c0-10.64-8.65-19.26-19.22-19.26z" stroke="#000" fill="url(#m)"/><use xlink:href="#n" transform="matrix(1,0,0,1,578.8377960000306,422.7752499911047) translate(38.231923828125005 56.055)"/><use xlink:href="#o" transform="matrix(1,0,0,1,578.8377960000306,422.7752499911047) translate(125.940166015625 56.055)"/><path d="M1072.9 413.92H919.2c-10.55 0-19.2 8.62-19.2 19.25v79.6c0 10.63 8.65 19.26 19.2 19.26h153.7c10.58 0 19.23-8.63 19.23-19.25v-79.6c0-10.64-8.65-19.26-19.22-19.26z" stroke="#000" fill="#fff"/><use xlink:href="#p" transform="matrix(1,0,0,1,908.8377960000286,422.7752499911037) translate(71.5781982421875 42.723)"/><use xlink:href="#q" transform="matrix(1,0,0,1,908.8377960000286,422.7752499911037) translate(46.1575634765625 69.387)"/><path d="M763.18 472.97H898.5" fill="none"/><path d="M763.18 472.97h5.66m5.65 0h11.3m5.67 0h11.3m5.67 0h11.3m5.67 0H836.7m5.62 0h11.24m5.62 0h11.24m5.6 0h11.25m5.62 0h5.62" stroke="#000" stroke-width="1.11" fill="none"/><path d="M763.2 473.53h-.57v-1.1h.57zM899.5 472.97l-18.02 10.66-.57-.95 16.42-9.7-16.4-9.7.56-.97z"/><path d="M742.9 216.96H589.2c-10.55 0-19.2 8.62-19.2 19.25v79.62c0 10.63 8.65 19.25 19.2 19.25h153.7c10.58 0 19.23-8.62 19.23-19.25v-79.6c0-10.64-8.65-19.26-19.22-19.26z" stroke="#000" fill="url(#r)"/><use xlink:href="#s" transform="matrix(1,0,0,1,578.8377960000306,225.81674999633776) translate(46.1575634765625 42.723)"/><use xlink:href="#t" transform="matrix(1,0,0,1,578.8377960000306,225.81674999633776) translate(32.611826171875 69.387)"/><use xlink:href="#o" transform="matrix(1,0,0,1,578.8377960000306,225.81674999633776) translate(131.560263671875 69.387)"/><path d="M666.62 412.4h-1.1v-36.14h1.1zm0-57.74h-1.1v-18.54h1.1z"/><path d="M666.62 336.14h-1.1v-.57h1.1zM676.72 395.4l-10.66 18.02-10.66-18.03.96-.57 9.7 16.4 9.7-16.4z"/><use xlink:href="#u" transform="matrix(1,0,0,1,622.1130000003495,354.66221443085936) translate(0 14.4)"/><use xlink:href="#v" transform="matrix(1,0,0,1,622.1130000003495,354.66221443085936) translate(34 14.4)"/><path d="M1072.9 216.96H919.2c-10.55 0-19.2 8.62-19.2 19.25v79.62c0 10.63 8.65 19.25 19.2 19.25h153.7c10.58 0 19.23-8.62 19.23-19.25v-79.6c0-10.64-8.65-19.26-19.22-19.26z" stroke="#000" fill="url(#w)"/><use xlink:href="#x" transform="matrix(1,0,0,1,908.8377960000287,225.81674999633776) translate(37.374804687499996 56.055)"/><path d="M1072.9 15H919.2c-10.55 0-19.2 8.62-19.2 19.25v79.6c0 10.64 8.65 19.26 19.2 19.26h153.7c10.58 0 19.23-8.6 19.23-19.24v-79.6c0-10.64-8.65-19.26-19.22-19.26z" stroke="#000" fill="#a5a5a5"/><use xlink:href="#n" transform="matrix(1,0,0,1,908.8377960000289,23.858250001569743) translate(23.9050146484375 56.055)"/><use xlink:href="#y" transform="matrix(1,0,0,1,908.8377960000289,23.858250001569743) translate(111.61325683593749 56.055)"/><path d="M996.06 215.9v-81.27" fill="none"/><path d="M996.06 215.9v-6.8m0-6.82v-13.62m0-6.8V168.3m0-6.74V148.1m0-6.74v-6.74" stroke="#000" stroke-width="1.11" fill="none"/><path d="M996.62 216.46h-1.1v-.57h1.1zM1006.72 151.63l-.95.57-9.7-16.4-9.7 16.4-.97-.57 10.66-18.02z"/><path d="M742.9 15H589.2c-10.55 0-19.2 8.62-19.2 19.25v79.6c0 10.64 8.65 19.26 19.2 19.26h153.7c10.58 0 19.23-8.6 19.23-19.24v-79.6c0-10.64-8.65-19.26-19.22-19.26z" stroke="#000" fill="#a5a5a5"/><g><use xlink:href="#s" transform="matrix(1,0,0,1,578.8377960000319,23.858250001569743) translate(46.1575634765625 42.723)"/><use xlink:href="#z" transform="matrix(1,0,0,1,578.8377960000319,23.858250001569743) translate(40.5374658203125 69.387)"/></g><path d="M666.06 215.9v-81.28" fill="none"/><path d="M666.06 215.9v-5.42m0-5.4v-10.85m0-5.42v-10.83m0-5.42V161.7m0-5.4v-10.84m0-5.42v-5.42" stroke="#000" stroke-width="1.11" fill="none"/><path d="M666.62 216.46h-1.1v-.57h1.1zM676.72 151.63l-.95.57-9.7-16.4-9.7 16.4-.97-.57 10.66-18.02z"/><defs><path d="M913-1314v148H328v431h471v143H328v444h586L913 0H145v-1314h768" id="A"/><path d="M323-1422V0H147v-1422h176" id="B"/><path d="M544 14C232 14 75-190 75-509c0-226 105-376 267-447 57-25 122-37 193-37 265 0 410 167 410 437 0 47-2 68-42 68H249c7 217 94 359 310 364 110 2 183-39 248-80 70-44 93 39 123 67C847-42 716 14 544 14zm243-610c-5-164-86-266-249-269-173-3-262 113-284 269h533" id="C"/><path d="M545-854c-104 0-170 61-222 126V0H147v-978c54 8 140-23 149 36l15 100c68-77 143-150 284-151 143-1 221 88 255 203 52-123 153-201 320-203 220-2 335 143 335 370V0h-176v-623c1-143-65-231-201-231-139 0-216 89-216 231V0H736v-623c1-145-55-231-191-231" id="D"/><path d="M575-854c-119 2-197 63-259 134V0H140v-978c55 7 141-23 150 36l15 104c78-83 170-155 321-155 223 0 325 146 325 370V0H775v-623c0-140-61-233-200-231" id="E"/><path d="M650-73c-53 51-136 87-233 88-153 0-235-95-235-251v-596c-55-8-148 24-148-39v-70l154-20 41-301c4-50 80-28 129-33v335h269v128H358v584c-2 72 34 118 99 120 56 2 78-32 116-46 15 0 19 7 25 17" id="F"/><g id="a"><use transform="matrix(0.0130224609375,0,0,0.0130224609375,0,0)" xlink:href="#A"/><use transform="matrix(0.0130224609375,0,0,0.0130224609375,13.0224609375,0)" xlink:href="#B"/><use transform="matrix(0.0130224609375,0,0,0.0130224609375,19.143017578125,0)" xlink:href="#C"/><use transform="matrix(0.0130224609375,0,0,0.0130224609375,32.4129052734375,0)" xlink:href="#D"/><use transform="matrix(0.0130224609375,0,0,0.0130224609375,53.7176513671875,0)" xlink:href="#C"/><use transform="matrix(0.0130224609375,0,0,0.0130224609375,66.9875390625,0)" xlink:href="#E"/><use transform="matrix(0.0130224609375,0,0,0.0130224609375,80.7522802734375,0)" xlink:href="#F"/><path d="M-1.33.08h98.38V2.6H-1.33z"/></g><path d="M306-740c60 2 107 0 133-38l339-494c22-28 41-41 86-42h156L620-750c-21 29-44 49-67 61 31 11 60 31 83 65L1049 0c-85-7-198 21-238-38L463-558c-23-30-38-42-90-42h-67V0H124v-1314h182v574" id="G"/><path d="M409 288c-14 65-120 35-192 42L385-58 11-978h152c30-1 46 16 53 36 86 232 175 459 256 696 80-235 169-463 250-696 20-58 122-29 191-36" id="H"/><g id="b"><use transform="matrix(0.0130224609375,0,0,0.0130224609375,0,0)" xlink:href="#G"/><use transform="matrix(0.0130224609375,0,0,0.0130224609375,13.3740673828125,0)" xlink:href="#C"/><use transform="matrix(0.0130224609375,0,0,0.0130224609375,26.4746630859375,0)" xlink:href="#H"/><path d="M-1.33.08h41.2V2.6h-41.2z"/></g><path d="M75-490c0-310 160-503 466-503s464 194 464 503c0 310-158 504-464 504C234 14 75-180 75-490zm181 1c0 215 74 366 285 366 210 0 283-152 283-366s-74-367-283-367c-211 0-285 152-285 367" id="I"/><path d="M75-653h478v149H75v-149" id="J"/><path d="M994-906c0 279-183 411-470 416H329V0H147v-1314h377c290 3 470 124 470 408zm-182 0c0-176-103-265-288-265H329v537h195c180-4 288-94 288-272" id="K"/><path d="M969-949c0 213-127 324-301 372 24 16 43 33 61 57L1082 0c-87-8-195 23-235-37L536-505c-21-29-36-41-85-41H329V0H147v-1314h360c275 2 462 97 462 365zM500-679c179-3 292-82 292-257 0-157-95-235-285-235H329v492h171" id="L"/><path d="M1240-928c58 159 58 383 0 542-85 230-258 400-561 400S201-157 116-386c-59-159-59-383 0-542 86-230 259-401 563-401s477 171 561 401zm-172 486c38-122 39-308 0-430-56-173-170-300-389-300-293 0-420 215-420 515 0 237 85 404 247 479 99 47 246 46 346 0 107-49 178-142 216-264" id="M"/><path d="M882-1314v148H321v455h477v148H321V0H138v-1314h744" id="N"/><g id="c"><use transform="matrix(0.010849609375,0,0,0.010849609375,0,0)" xlink:href="#E"/><use transform="matrix(0.010849609375,0,0,0.010849609375,11.674179687499999,0)" xlink:href="#I"/><use transform="matrix(0.010849609375,0,0,0.010849609375,23.391757812499993,0)" xlink:href="#E"/><use transform="matrix(0.010849609375,0,0,0.010849609375,35.0659375,0)" xlink:href="#J"/><use transform="matrix(0.010849609375,0,0,0.010849609375,41.868642578125,0)" xlink:href="#K"/><use transform="matrix(0.010849609375,0,0,0.010849609375,53.347529296874995,0)" xlink:href="#L"/><use transform="matrix(0.010849609375,0,0,0.010849609375,65.19530273437499,0)" xlink:href="#M"/><use transform="matrix(0.010849609375,0,0,0.010849609375,79.907373046875,0)" xlink:href="#N"/></g><path d="M1052-184C961-66 832 17 628 14c-289-4-447-172-522-398-53-160-53-388 3-546 81-226 241-394 534-399 180-3 301 72 392 167-25 33-46 70-75 99-51 21-73-33-114-51-77-60-256-80-362-23-152 81-231 248-231 480 0 233 83 400 235 481 113 60 301 37 376-30 33-15 74-101 116-56" id="O"/><path d="M514-995c228 0 341 142 341 370V0c-56-5-123 17-137-41l-22-91C610-53 522 18 358 15 189 12 84-73 84-244c0-178 154-235 319-276 76-19 169-27 280-30 12-176-30-304-190-304-107 0-171 42-231 86-34 25-81 14-98-16l-32-56c98-93 207-155 382-155zM253-253c0 98 61 145 158 145 133 0 205-61 272-130v-202c-134 6-246 19-333 58-57 26-97 59-97 129" id="P"/><path d="M95-709c0-188 136-281 332-284 128-2 226 47 291 114-25 33-46 112-108 74-47-29-100-60-179-58-97 2-169 47-169 140 0 121 140 131 235 168 118 46 235 94 235 255C732-91 595 11 381 15 247 17 139-38 70-104c26-39 56-126 124-80 51 35 104 76 195 74 109-2 179-54 179-159 0-126-138-136-236-173C209-488 95-543 95-709" id="Q"/><g id="d"><use transform="matrix(0.010849609375,0,0,0.010849609375,0,0)" xlink:href="#O"/><use transform="matrix(0.010849609375,0,0,0.010849609375,11.847773437499999,0)" xlink:href="#B"/><use transform="matrix(0.010849609375,0,0,0.010849609375,16.94708984375,0)" xlink:href="#P"/><use transform="matrix(0.010849609375,0,0,0.010849609375,27.590556640625,0)" xlink:href="#Q"/><use transform="matrix(0.010849609375,0,0,0.010849609375,36.28109375,0)" xlink:href="#Q"/></g><g id="e"><use transform="matrix(0.010849609375,0,0,0.010849609375,0,0)" xlink:href="#K"/><use transform="matrix(0.010849609375,0,0,0.010849609375,11.47888671875,0)" xlink:href="#L"/><use transform="matrix(0.010849609375,0,0,0.010849609375,23.32666015625,0)" xlink:href="#M"/><use transform="matrix(0.010849609375,0,0,0.010849609375,38.03873046875,0)" xlink:href="#N"/></g><path d="M536-823c-141 7-187 99-229 205V0H131v-978c60 8 148-26 154 48l12 144c58-123 149-234 328-202 18 3 34 11 49 21l-14 130c-12 52-78 12-124 14" id="R"/><path d="M492-995c127 0 201 45 264 114v-541h176V0c-55-7-141 23-150-36l-18-117C688-64 595 14 440 14 170 14 74-204 74-486c0-228 88-392 242-470 52-26 111-39 176-39zM255-486c2 201 49 359 242 359 130 0 195-67 259-146v-473c-54-73-114-114-224-114-197 0-279 159-277 374" id="S"/><path d="M523-1269c-167-5-192 134-183 309h263v128H346V0H170v-831c-44-9-102-4-133-26-23-17-9-67-13-103h146c-18-271 76-439 324-444 44 0 83 8 117 19-9 39 11 106-29 113-15 2-34 3-59 3" id="T"/><path d="M271-232c74 0 125 50 125 125 0 74-52 123-125 123S149-34 149-107c0-74 48-125 122-125zm-6-678c74 0 125 50 125 125 0 74-52 123-125 123s-122-50-122-123c0-74 48-125 122-125" id="U"/><path d="M450 15c-223 0-325-146-325-370v-623h176v623c0 141 61 233 200 231 119-1 195-63 259-133v-721h176V0c-55-7-141 23-150-36l-16-104C692-57 602 15 450 15" id="V"/><path d="M586 14c-139 0-211-58-275-138-12 47 7 124-53 124H144v-1422h176v583c74-85 165-154 314-154 264 0 368 206 368 479 0 238-85 409-243 490-51 25-109 38-173 38zm235-522c0-208-63-346-246-346-127 0-194 66-255 146v472c53 73 113 114 222 114 204 0 279-159 279-386" id="W"/><g id="f"><use transform="matrix(0.010849609375,0,0,0.010849609375,0,0)" xlink:href="#R"/><use transform="matrix(0.010849609375,0,0,0.010849609375,7.44283203125,0)" xlink:href="#S"/><use transform="matrix(0.010849609375,0,0,0.010849609375,19.11701171875,0)" xlink:href="#T"/><use transform="matrix(0.010849609375,0,0,0.010849609375,25.605078125,0)" xlink:href="#Q"/><use transform="matrix(0.010849609375,0,0,0.010849609375,34.295615234375,0)" xlink:href="#U"/><use transform="matrix(0.010849609375,0,0,0.010849609375,40.241201171875,0)" xlink:href="#Q"/><use transform="matrix(0.010849609375,0,0,0.010849609375,48.93173828125,0)" xlink:href="#V"/><use transform="matrix(0.010849609375,0,0,0.010849609375,60.60591796875,0)" xlink:href="#W"/><use transform="matrix(0.010849609375,0,0,0.010849609375,72.28009765624999,0)" xlink:href="#O"/><use transform="matrix(0.010849609375,0,0,0.010849609375,84.12787109374999,0)" xlink:href="#B"/><use transform="matrix(0.010849609375,0,0,0.010849609375,89.22718749999997,0)" xlink:href="#P"/><use transform="matrix(0.010849609375,0,0,0.010849609375,99.87065429687499,0)" xlink:href="#Q"/><use transform="matrix(0.010849609375,0,0,0.010849609375,108.56119140624999,0)" xlink:href="#Q"/><use transform="matrix(0.010849609375,0,0,0.010849609375,117.25172851562499,0)" xlink:href="#M"/><use transform="matrix(0.010849609375,0,0,0.010849609375,131.963798828125,0)" xlink:href="#T"/></g><path d="M542 0H383L19-978h145c26-1 46 18 53 36 77 231 156 461 231 694 7 22 12 44 17 67 10-48 25-91 40-135l212-626c18-58 121-29 189-36" id="X"/><g id="g"><use transform="matrix(0.010849609375,0,0,0.010849609375,0,0)" xlink:href="#X"/><use transform="matrix(0.010849609375,0,0,0.010849609375,9.82974609375,0)" xlink:href="#I"/><use transform="matrix(0.010849609375,0,0,0.010849609375,21.54732421875,0)" xlink:href="#P"/><use transform="matrix(0.010849609375,0,0,0.010849609375,32.060595703125,0)" xlink:href="#T"/><use transform="matrix(0.010849609375,0,0,0.010849609375,38.8416015625,0)" xlink:href="#U"/></g><path d="M6-1314h147c33-1 53 19 61 42 117 329 232 658 348 988 8 24 15 50 21 77 10-51 26-100 41-144l324-920c17-66 131-36 208-43L663 0H499" id="Y"/><path d="M69-490c0-299 140-503 438-503 143 0 234 53 308 127-20 26-37 58-61 80-40 18-64-17-93-32-37-19-81-40-143-39-201 7-269 160-269 367 0 204 66 360 261 368 96 4 149-38 198-81 21-19 50-20 67 2l51 64C751-46 640 14 479 14 199 14 69-199 69-490" id="Z"/><g id="h"><use transform="matrix(0.010849609375,0,0,0.010849609375,0,0)" xlink:href="#Y"/><use transform="matrix(0.010849609375,0,0,0.010849609375,11.674179687499999,0)" xlink:href="#I"/><use transform="matrix(0.010849609375,0,0,0.010849609375,23.3917578125,0)" xlink:href="#Z"/><use transform="matrix(0.010849609375,0,0,0.010849609375,32.603076171875,0)" xlink:href="#P"/><use transform="matrix(0.010849609375,0,0,0.010849609375,43.246542968750006,0)" xlink:href="#W"/><use transform="matrix(0.010849609375,0,0,0.010849609375,54.92072265625001,0)" xlink:href="#V"/><use transform="matrix(0.010849609375,0,0,0.010849609375,66.59490234375001,0)" xlink:href="#B"/><use transform="matrix(0.010849609375,0,0,0.010849609375,71.69421875,0)" xlink:href="#P"/><use transform="matrix(0.010849609375,0,0,0.010849609375,82.33768554687501,0)" xlink:href="#R"/><use transform="matrix(0.010849609375,0,0,0.010849609375,90.19280273437502,0)" xlink:href="#H"/></g><path d="M581 14c-127 0-201-47-264-114v430H141V-978c55 7 141-23 150 36l17 114c76-89 171-167 326-167 271 0 368 217 368 499 0 229-91 393-245 471-52 26-111 39-176 39zm240-510c-2-202-50-358-245-358-128 0-197 66-259 146v472c53 73 114 114 225 114 198 0 281-159 279-374" id="aa"/><g id="i"><use transform="matrix(0.010849609375,0,0,0.010849609375,0,0)" xlink:href="#R"/><use transform="matrix(0.010849609375,0,0,0.010849609375,7.44283203125,0)" xlink:href="#S"/><use transform="matrix(0.010849609375,0,0,0.010849609375,19.11701171875,0)" xlink:href="#T"/><use transform="matrix(0.010849609375,0,0,0.010849609375,25.898017578125,0)" xlink:href="#U"/><use transform="matrix(0.010849609375,0,0,0.010849609375,31.843603515625,0)" xlink:href="#aa"/><use transform="matrix(0.010849609375,0,0,0.010849609375,43.517783203125,0)" xlink:href="#R"/><use transform="matrix(0.010849609375,0,0,0.010849609375,50.90636718750001,0)" xlink:href="#I"/><use transform="matrix(0.010849609375,0,0,0.010849609375,62.6239453125,0)" xlink:href="#aa"/><use transform="matrix(0.010849609375,0,0,0.010849609375,74.298125,0)" xlink:href="#C"/><use transform="matrix(0.010849609375,0,0,0.010849609375,85.353876953125,0)" xlink:href="#R"/><use transform="matrix(0.010849609375,0,0,0.010849609375,93.10049804687499,0)" xlink:href="#F"/><use transform="matrix(0.010849609375,0,0,0.010849609375,100.543330078125,0)" xlink:href="#H"/></g><g id="j"><use transform="matrix(0.010849609375,0,0,0.010849609375,0,0)" xlink:href="#R"/><use transform="matrix(0.010849609375,0,0,0.010849609375,7.44283203125,0)" xlink:href="#S"/><use transform="matrix(0.010849609375,0,0,0.010849609375,19.11701171875,0)" xlink:href="#T"/><use transform="matrix(0.010849609375,0,0,0.010849609375,25.898017578125,0)" xlink:href="#U"/><use transform="matrix(0.010849609375,0,0,0.010849609375,31.843603515625,0)" xlink:href="#F"/><use transform="matrix(0.010849609375,0,0,0.010849609375,39.286435546875,0)" xlink:href="#H"/><use transform="matrix(0.010849609375,0,0,0.010849609375,49.3440234375,0)" xlink:href="#aa"/><use transform="matrix(0.010849609375,0,0,0.010849609375,61.018203125,0)" xlink:href="#C"/></g><path d="M114-163C36-179 61-72 57 0H25l-1-190h30c1 12-1 29 2 39 6-27 23-49 58-41v29" id="ab"/><path d="M100-194c63 0 86 42 84 106H49c0 40 14 67 53 68 26 1 43-12 49-29l28 8c-11 28-37 45-77 45C44 4 14-33 15-96c1-61 26-98 85-98zm52 81c6-60-76-77-97-28-3 7-6 17-6 28h103" id="ac"/><path d="M135-143c-3-34-86-38-87 0 15 53 115 12 119 90S17 21 10-45l28-5c4 36 97 45 98 0-10-56-113-15-118-90-4-57 82-63 122-42 12 7 21 19 24 35" id="ad"/><path d="M100-194c62-1 85 37 85 99 1 63-27 99-86 99S16-35 15-95c0-66 28-99 85-99zM99-20c44 1 53-31 53-75 0-43-8-75-51-75s-53 32-53 75 10 74 51 75" id="ae"/><path d="M84 4C-5 8 30-112 23-190h32v120c0 31 7 50 39 49 72-2 45-101 50-169h31l1 190h-30c-1-10 1-25-2-33-11 22-28 36-60 37" id="af"/><path d="M96-169c-40 0-48 33-48 73s9 75 48 75c24 0 41-14 43-38l32 2c-6 37-31 61-74 61-59 0-76-41-82-99-10-93 101-131 147-64 4 7 5 14 7 22l-32 3c-4-21-16-35-41-35" id="ag"/><g id="k"><use transform="matrix(0.05,0,0,0.05,0,0)" xlink:href="#ab"/><use transform="matrix(0.05,0,0,0.05,5.95,0)" xlink:href="#ac"/><use transform="matrix(0.05,0,0,0.05,15.949999999999998,0)" xlink:href="#ad"/><use transform="matrix(0.05,0,0,0.05,24.95,0)" xlink:href="#ae"/><use transform="matrix(0.05,0,0,0.05,34.95,0)" xlink:href="#af"/><use transform="matrix(0.05,0,0,0.05,44.95,0)" xlink:href="#ab"/><use transform="matrix(0.05,0,0,0.05,50.900000000000006,0)" xlink:href="#ag"/><use transform="matrix(0.05,0,0,0.05,59.900000000000006,0)" xlink:href="#ac"/></g><path d="M24 0v-261h32V0H24" id="ah"/><g id="l"><use transform="matrix(0.05,0,0,0.05,0,0)" xlink:href="#ab"/><use transform="matrix(0.05,0,0,0.05,5.95,0)" xlink:href="#ae"/><use transform="matrix(0.05,0,0,0.05,15.949999999999998,0)" xlink:href="#ah"/><use transform="matrix(0.05,0,0,0.05,19.9,0)" xlink:href="#ac"/></g><linearGradient gradientUnits="userSpaceOnUse" id="m" x1="570" y1="413.92" x2="570" y2="532.03"><stop offset="0%" stop-color="#fff"/><stop offset="20%" stop-color="#fff"/><stop offset="100%" stop-color="#dbdbdb"/></linearGradient><g id="n"><use transform="matrix(0.010849609375,0,0,0.010849609375,0,0)" xlink:href="#L"/><use transform="matrix(0.010849609375,0,0,0.010849609375,11.674179687499999,0)" xlink:href="#C"/><use transform="matrix(0.010849609375,0,0,0.010849609375,22.729931640624997,0)" xlink:href="#Q"/><use transform="matrix(0.010849609375,0,0,0.010849609375,31.420468749999998,0)" xlink:href="#I"/><use transform="matrix(0.010849609375,0,0,0.010849609375,43.138046875,0)" xlink:href="#V"/><use transform="matrix(0.010849609375,0,0,0.010849609375,54.812226562499994,0)" xlink:href="#R"/><use transform="matrix(0.010849609375,0,0,0.010849609375,62.233359375,0)" xlink:href="#Z"/><use transform="matrix(0.010849609375,0,0,0.010849609375,71.62912109375,0)" xlink:href="#C"/></g><path d="M590-525V0H408v-523L0-1314h160c34 0 51 18 62 42 87 187 165 383 255 566 9 18 16 36 23 54 15-40 35-73 52-112l223-508c11-19 30-42 61-42h162" id="ai"/><use transform="matrix(0.010849609375,0,0,0.010849609375,0,0)" xlink:href="#ai" id="o"/><g id="p"><use transform="matrix(0.010849609375,0,0,0.010849609375,0,0)" xlink:href="#R"/><use transform="matrix(0.010849609375,0,0,0.010849609375,7.44283203125,0)" xlink:href="#S"/><use transform="matrix(0.010849609375,0,0,0.010849609375,19.11701171875,0)" xlink:href="#T"/><use transform="matrix(0.010849609375,0,0,0.010849609375,25.898017578125,0)" xlink:href="#U"/></g><g id="q"><use transform="matrix(0.010849609375,0,0,0.010849609375,0,0)" xlink:href="#L"/><use transform="matrix(0.010849609375,0,0,0.010849609375,11.674179687499999,0)" xlink:href="#C"/><use transform="matrix(0.010849609375,0,0,0.010849609375,22.729931640624997,0)" xlink:href="#Q"/><use transform="matrix(0.010849609375,0,0,0.010849609375,31.420468749999998,0)" xlink:href="#I"/><use transform="matrix(0.010849609375,0,0,0.010849609375,43.138046875,0)" xlink:href="#V"/><use transform="matrix(0.010849609375,0,0,0.010849609375,54.812226562499994,0)" xlink:href="#R"/><use transform="matrix(0.010849609375,0,0,0.010849609375,62.233359375,0)" xlink:href="#Z"/><use transform="matrix(0.010849609375,0,0,0.010849609375,71.62912109375,0)" xlink:href="#C"/></g><linearGradient gradientUnits="userSpaceOnUse" id="r" x1="570" y1="216.96" x2="570" y2="335.07"><stop offset="0%" stop-color="#fff"/><stop offset="20%" stop-color="#fff"/><stop offset="100%" stop-color="#dbdbdb"/></linearGradient><g id="s"><use transform="matrix(0.010849609375,0,0,0.010849609375,0,0)" xlink:href="#L"/><use transform="matrix(0.010849609375,0,0,0.010849609375,11.674179687499999,0)" xlink:href="#C"/><use transform="matrix(0.010849609375,0,0,0.010849609375,22.729931640624997,0)" xlink:href="#Q"/><use transform="matrix(0.010849609375,0,0,0.010849609375,31.420468749999998,0)" xlink:href="#I"/><use transform="matrix(0.010849609375,0,0,0.010849609375,43.138046875,0)" xlink:href="#V"/><use transform="matrix(0.010849609375,0,0,0.010849609375,54.812226562499994,0)" xlink:href="#R"/><use transform="matrix(0.010849609375,0,0,0.010849609375,62.233359375,0)" xlink:href="#Z"/><use transform="matrix(0.010849609375,0,0,0.010849609375,71.62912109375,0)" xlink:href="#C"/></g><path d="M1148-926c58 156 58 382 0 538C1064-162 892 0 593 0H139v-1314h454c298 6 472 162 555 388zM976-442c38-121 39-309 0-430-55-171-167-295-383-295H322v1020c157-7 329 19 441-35 105-50 176-139 213-260" id="aj"/><path d="M323-978V0H147v-978h176zm-91-431c74 0 125 50 125 125 0 74-52 123-125 123s-122-50-122-123c0-74 48-125 122-125" id="ak"/><g id="t"><use transform="matrix(0.010849609375,0,0,0.010849609375,0,0)" xlink:href="#aj"/><use transform="matrix(0.010849609375,0,0,0.010849609375,13.670507812499999,0)" xlink:href="#C"/><use transform="matrix(0.010849609375,0,0,0.010849609375,24.726259765625,0)" xlink:href="#Q"/><use transform="matrix(0.010849609375,0,0,0.010849609375,33.416796874999996,0)" xlink:href="#Z"/><use transform="matrix(0.010849609375,0,0,0.010849609375,42.81255859375,0)" xlink:href="#R"/><use transform="matrix(0.010849609375,0,0,0.010849609375,50.5591796875,0)" xlink:href="#ak"/><use transform="matrix(0.010849609375,0,0,0.010849609375,55.658496093749996,0)" xlink:href="#aa"/><use transform="matrix(0.010849609375,0,0,0.010849609375,67.235029296875,0)" xlink:href="#F"/><use transform="matrix(0.010849609375,0,0,0.010849609375,74.46086914062501,0)" xlink:href="#I"/><use transform="matrix(0.010849609375,0,0,0.010849609375,86.17844726562501,0)" xlink:href="#R"/></g><path d="M106-169C34-169 62-67 57 0H25v-261h32l-1 103c12-21 28-36 61-36 89 0 53 116 60 194h-32v-121c2-32-8-49-39-48" id="al"/><path d="M141-36C126-15 110 5 73 4 37 3 15-17 15-53c-1-64 63-63 125-63 3-35-9-54-41-54-24 1-41 7-42 31l-33-3c5-37 33-52 76-52 45 0 72 20 72 64v82c-1 20 7 32 28 27v20c-31 9-61-2-59-35zM48-53c0 20 12 33 32 33 41-3 63-29 60-74-43 2-92-5-92 41" id="am"/><g id="u"><use transform="matrix(0.05,0,0,0.05,0,0)" xlink:href="#al"/><use transform="matrix(0.05,0,0,0.05,10,0)" xlink:href="#am"/><use transform="matrix(0.05,0,0,0.05,20,0)" xlink:href="#ad"/></g><path d="M59-47c-2 24 18 29 38 22v24C64 9 27 4 27-40v-127H5v-23h24l9-43h21v43h35v23H59v120" id="an"/><path d="M24-231v-30h32v30H24zM24 0v-190h32V0H24" id="ao"/><path d="M101-234c-31-9-42 10-38 44h38v23H63V0H32v-167H5v-23h27c-7-52 17-82 69-68v24" id="ap"/><g id="v"><use transform="matrix(0.05,0,0,0.05,0,0)" xlink:href="#am"/><use transform="matrix(0.05,0,0,0.05,10,0)" xlink:href="#ab"/><use transform="matrix(0.05,0,0,0.05,15.949999999999998,0)" xlink:href="#an"/><use transform="matrix(0.05,0,0,0.05,20.95,0)" xlink:href="#ao"/><use transform="matrix(0.05,0,0,0.05,24.9,0)" xlink:href="#ap"/><use transform="matrix(0.05,0,0,0.05,29.899999999999995,0)" xlink:href="#am"/><use transform="matrix(0.05,0,0,0.05,39.9,0)" xlink:href="#ag"/><use transform="matrix(0.05,0,0,0.05,48.9,0)" xlink:href="#an"/></g><linearGradient gradientUnits="userSpaceOnUse" id="w" x1="900" y1="216.96" x2="900" y2="335.07"><stop offset="0%" stop-color="#fff"/><stop offset="20%" stop-color="#fff"/><stop offset="100%" stop-color="#dbdbdb"/></linearGradient><g id="x"><use transform="matrix(0.010849609375,0,0,0.010849609375,0,0)" xlink:href="#Y"/><use transform="matrix(0.010849609375,0,0,0.010849609375,11.674179687499999,0)" xlink:href="#I"/><use transform="matrix(0.010849609375,0,0,0.010849609375,23.3917578125,0)" xlink:href="#Z"/><use transform="matrix(0.010849609375,0,0,0.010849609375,32.603076171875,0)" xlink:href="#P"/><use transform="matrix(0.010849609375,0,0,0.010849609375,43.246542968750006,0)" xlink:href="#W"/><use transform="matrix(0.010849609375,0,0,0.010849609375,54.92072265625001,0)" xlink:href="#V"/><use transform="matrix(0.010849609375,0,0,0.010849609375,66.59490234375001,0)" xlink:href="#B"/><use transform="matrix(0.010849609375,0,0,0.010849609375,71.69421875,0)" xlink:href="#P"/><use transform="matrix(0.010849609375,0,0,0.010849609375,82.33768554687501,0)" xlink:href="#R"/><use transform="matrix(0.010849609375,0,0,0.010849609375,90.19280273437502,0)" xlink:href="#H"/></g><g id="y"><use transform="matrix(0.010849609375,0,0,0.010849609375,0,0)" xlink:href="#L"/><use transform="matrix(0.010849609375,0,0,0.010849609375,11.609082031249999,0)" xlink:href="#I"/><use transform="matrix(0.010849609375,0,0,0.010849609375,23.32666015625,0)" xlink:href="#B"/><use transform="matrix(0.010849609375,0,0,0.010849609375,28.425976562499997,0)" xlink:href="#C"/></g><g id="z"><use transform="matrix(0.010849609375,0,0,0.010849609375,0,0)" xlink:href="#aj"/><use transform="matrix(0.010849609375,0,0,0.010849609375,13.670507812499999,0)" xlink:href="#C"/><use transform="matrix(0.010849609375,0,0,0.010849609375,24.726259765625,0)" xlink:href="#Q"/><use transform="matrix(0.010849609375,0,0,0.010849609375,33.416796874999996,0)" xlink:href="#Z"/><use transform="matrix(0.010849609375,0,0,0.010849609375,42.81255859375,0)" xlink:href="#R"/><use transform="matrix(0.010849609375,0,0,0.010849609375,50.5591796875,0)" xlink:href="#ak"/><use transform="matrix(0.010849609375,0,0,0.010849609375,55.658496093749996,0)" xlink:href="#aa"/><use transform="matrix(0.010849609375,0,0,0.010849609375,67.235029296875,0)" xlink:href="#F"/><use transform="matrix(0.010849609375,0,0,0.010849609375,74.46086914062501,0)" xlink:href="#I"/><use transform="matrix(0.010849609375,0,0,0.010849609375,86.17844726562501,0)" xlink:href="#R"/></g></defs></g></svg>