<?xml version="1.0" encoding="UTF-8"?><svg xmlns="http://www.w3.org/2000/svg" xmlns:xlink="http://www.w3.org/1999/xlink" fill-opacity="1" color-rendering="auto" color-interpolation="auto" text-rendering="auto" stroke="black" stroke-linecap="square" width="937" stroke-miterlimit="10" shape-rendering="auto" stroke-opacity="1" fill="black" stroke-dasharray="none" font-weight="normal" stroke-width="1" height="743" font-family="'Dialog'" font-style="normal" stroke-linejoin="miter" font-size="12px" stroke-dashoffset="0" image-rendering="auto">
  <!--Generated by ySVG 2.5-->
  <defs id="genericDefs"/>
  <g>
    <defs id="defs1">
      <clipPath clipPathUnits="userSpaceOnUse" id="clipPath1">
        <path d="M0 0 L937 0 L937 743 L0 743 L0 0 Z"/>
      </clipPath>
      <clipPath clipPathUnits="userSpaceOnUse" id="clipPath2">
        <path d="M114 -41 L1051 -41 L1051 702 L114 702 L114 -41 Z"/>
      </clipPath>
    </defs>
    <g fill="white" text-rendering="geometricPrecision" shape-rendering="geometricPrecision" transform="translate(-114,41)" stroke="white">
      <rect x="114" width="937" height="743" y="-41" clip-path="url(#clipPath2)" stroke="none"/>
    </g>
    <g fill="rgb(255,204,0)" text-rendering="geometricPrecision" shape-rendering="geometricPrecision" transform="matrix(1,0,0,1,-114,41)" stroke="rgb(255,204,0)">
      <ellipse rx="160.5" ry="33" clip-path="url(#clipPath2)" cx="436.5" cy="279" stroke="none"/>
    </g>
    <g text-rendering="geometricPrecision" stroke-miterlimit="1.45" shape-rendering="geometricPrecision" transform="matrix(1,0,0,1,-114,41)" stroke-linecap="butt">
      <ellipse rx="160.5" fill="none" ry="33" clip-path="url(#clipPath2)" cx="436.5" cy="279"/>
      <text x="302.4111" xml:space="preserve" y="283.7139" clip-path="url(#clipPath2)" font-family="sans-serif" stroke="none">&lt;https://joinup.ec.europa.eu/release/dcat-ap-v11&gt; </text>
    </g>
    <g fill="rgb(255,204,0)" text-rendering="geometricPrecision" shape-rendering="geometricPrecision" transform="matrix(1,0,0,1,-114,41)" stroke="rgb(255,204,0)">
      <ellipse rx="73" ry="19" clip-path="url(#clipPath2)" cx="759" cy="158" stroke="none"/>
    </g>
    <g text-rendering="geometricPrecision" stroke-miterlimit="1.45" shape-rendering="geometricPrecision" transform="matrix(1,0,0,1,-114,41)" stroke-linecap="butt">
      <ellipse rx="73" fill="none" ry="19" clip-path="url(#clipPath2)" cx="759" cy="158"/>
      <text x="729.9873" xml:space="preserve" y="162.7139" clip-path="url(#clipPath2)" font-family="sans-serif" stroke="none">prof:Profile</text>
    </g>
    <g fill="rgb(255,204,0)" text-rendering="geometricPrecision" shape-rendering="geometricPrecision" transform="matrix(1,0,0,1,-114,41)" stroke="rgb(255,204,0)">
      <rect x="686" width="108" height="30" y="225" clip-path="url(#clipPath2)" stroke="none"/>
    </g>
    <g text-rendering="geometricPrecision" stroke-miterlimit="1.45" shape-rendering="geometricPrecision" transform="matrix(1,0,0,1,-114,41)" stroke-linecap="butt">
      <rect fill="none" x="686" width="108" height="30" y="225" clip-path="url(#clipPath2)"/>
      <text x="719.9873" xml:space="preserve" y="244.7139" clip-path="url(#clipPath2)" font-family="sans-serif" stroke="none">dcat-ap</text>
    </g>
    <g fill="rgb(255,204,0)" text-rendering="geometricPrecision" shape-rendering="geometricPrecision" transform="matrix(1,0,0,1,-114,41)" stroke="rgb(255,204,0)">
      <rect x="686" width="350" height="30" y="303" clip-path="url(#clipPath2)" stroke="none"/>
    </g>
    <g text-rendering="geometricPrecision" stroke-miterlimit="1.45" shape-rendering="geometricPrecision" transform="matrix(1,0,0,1,-114,41)" stroke-linecap="butt">
      <rect fill="none" x="686" width="350" height="30" y="303" clip-path="url(#clipPath2)"/>
      <text x="697.5938" xml:space="preserve" y="322.7139" clip-path="url(#clipPath2)" font-family="sans-serif" stroke="none">DCAT-AP: DCAT application profile for data portals in Europe</text>
    </g>
    <g fill="rgb(255,204,0)" text-rendering="geometricPrecision" shape-rendering="geometricPrecision" transform="matrix(1,0,0,1,-114,41)" stroke="rgb(255,204,0)">
      <rect x="686" width="284" height="30" y="381" clip-path="url(#clipPath2)" stroke="none"/>
    </g>
    <g text-rendering="geometricPrecision" stroke-miterlimit="1.45" shape-rendering="geometricPrecision" transform="matrix(1,0,0,1,-114,41)" stroke-linecap="butt">
      <rect fill="none" x="686" width="284" height="30" y="381" clip-path="url(#clipPath2)"/>
      <text x="780.375" xml:space="preserve" y="400.7139" clip-path="url(#clipPath2)" font-family="sans-serif" stroke="none">"European Union"</text>
    </g>
    <g fill="rgb(255,204,0)" text-rendering="geometricPrecision" shape-rendering="geometricPrecision" transform="matrix(1,0,0,1,-114,41)" stroke="rgb(255,204,0)">
      <ellipse rx="48" ry="15" clip-path="url(#clipPath2)" cx="203" cy="75" stroke="none"/>
    </g>
    <g text-rendering="geometricPrecision" stroke-miterlimit="1.45" shape-rendering="geometricPrecision" transform="matrix(1,0,0,1,-114,41)" stroke-linecap="butt">
      <ellipse rx="48" fill="none" ry="15" clip-path="url(#clipPath2)" cx="203" cy="75"/>
      <text x="189.9922" xml:space="preserve" y="79.7139" clip-path="url(#clipPath2)" font-family="sans-serif" stroke="none">dcat:</text>
    </g>
    <g fill="rgb(255,204,0)" text-rendering="geometricPrecision" shape-rendering="geometricPrecision" transform="matrix(1,0,0,1,-114,41)" stroke="rgb(255,204,0)">
      <ellipse rx="98.5" ry="22.5" clip-path="url(#clipPath2)" cx="381" cy="75" stroke="none"/>
    </g>
    <g text-rendering="geometricPrecision" stroke-miterlimit="1.45" shape-rendering="geometricPrecision" transform="matrix(1,0,0,1,-114,41)" stroke-linecap="butt">
      <ellipse rx="98.5" fill="none" ry="22.5" clip-path="url(#clipPath2)" cx="381" cy="75"/>
      <text x="296.9619" xml:space="preserve" y="79.7139" clip-path="url(#clipPath2)" font-family="sans-serif" stroke="none">&lt;http://www.w3.org/ns/dcat-v1&gt;</text>
    </g>
    <g fill="rgb(255,204,0)" text-rendering="geometricPrecision" shape-rendering="geometricPrecision" transform="matrix(1,0,0,1,-114,41)" stroke="rgb(255,204,0)">
      <ellipse rx="160.5" ry="26.5" clip-path="url(#clipPath2)" cx="671.5" cy="75" stroke="none"/>
    </g>
    <g text-rendering="geometricPrecision" stroke-miterlimit="1.45" shape-rendering="geometricPrecision" transform="matrix(1,0,0,1,-114,41)" stroke-linecap="butt">
      <ellipse rx="160.5" fill="none" ry="26.5" clip-path="url(#clipPath2)" cx="671.5" cy="75"/>
      <text x="529.0674" xml:space="preserve" y="79.7139" clip-path="url(#clipPath2)" font-family="sans-serif" stroke="none">&lt;https://joinup.ec.europa.eu/release/geodcat-ap-v10&gt;</text>
    </g>
    <g fill="rgb(255,204,0)" text-rendering="geometricPrecision" shape-rendering="geometricPrecision" transform="matrix(1,0,0,1,-114,41)" stroke="rgb(255,204,0)">
      <ellipse rx="80" ry="33" clip-path="url(#clipPath2)" cx="436.5" cy="493.5" stroke="none"/>
    </g>
    <g text-rendering="geometricPrecision" stroke-miterlimit="1.45" shape-rendering="geometricPrecision" transform="matrix(1,0,0,1,-114,41)" stroke-linecap="butt">
      <ellipse rx="80" fill="none" ry="33" clip-path="url(#clipPath2)" cx="436.5" cy="493.5"/>
      <text x="400.8135" xml:space="preserve" y="498.2139" clip-path="url(#clipPath2)" font-family="sans-serif" stroke="none">eg:dcat-shacl</text>
    </g>
    <g fill="rgb(255,204,0)" text-rendering="geometricPrecision" shape-rendering="geometricPrecision" transform="matrix(1,0,0,1,-114,41)" stroke="rgb(255,204,0)">
      <ellipse rx="86.5" ry="26.5" clip-path="url(#clipPath2)" cx="218.5" cy="493.5" stroke="none"/>
    </g>
    <g text-rendering="geometricPrecision" stroke-miterlimit="1.45" shape-rendering="geometricPrecision" transform="matrix(1,0,0,1,-114,41)" stroke-linecap="butt">
      <ellipse rx="86.5" fill="none" ry="26.5" clip-path="url(#clipPath2)" cx="218.5" cy="493.5"/>
      <text x="155.8105" xml:space="preserve" y="498.2139" clip-path="url(#clipPath2)" font-family="sans-serif" stroke="none">prof:ImplResourceDesc</text>
    </g>
    <g fill="rgb(255,204,0)" text-rendering="geometricPrecision" shape-rendering="geometricPrecision" transform="matrix(1,0,0,1,-114,41)" stroke="rgb(255,204,0)">
      <rect x="686" width="210" height="30" y="478.5" clip-path="url(#clipPath2)" stroke="none"/>
    </g>
    <g text-rendering="geometricPrecision" stroke-miterlimit="1.45" shape-rendering="geometricPrecision" transform="matrix(1,0,0,1,-114,41)" stroke-linecap="butt">
      <rect fill="none" x="686" width="210" height="30" y="478.5" clip-path="url(#clipPath2)"/>
      <text x="693.7109" xml:space="preserve" y="498.2139" clip-path="url(#clipPath2)" font-family="sans-serif" stroke="none">"DCAT-AP-V1.0 SHACL constraints"</text>
    </g>
    <g fill="rgb(255,204,0)" text-rendering="geometricPrecision" shape-rendering="geometricPrecision" transform="matrix(1,0,0,1,-114,41)" stroke="rgb(255,204,0)">
      <ellipse rx="204.3333" ry="26.5" clip-path="url(#clipPath2)" cx="831.6667" cy="583.5" stroke="none"/>
    </g>
    <g text-rendering="geometricPrecision" stroke-miterlimit="1.45" shape-rendering="geometricPrecision" transform="matrix(1,0,0,1,-114,41)" stroke-linecap="butt">
      <ellipse rx="204.3333" fill="none" ry="26.5" clip-path="url(#clipPath2)" cx="831.6667" cy="583.5"/>
      <text x="640.8415" xml:space="preserve" y="588.2139" clip-path="url(#clipPath2)" font-family="sans-serif" stroke="none">&lt;http://data.europa.eu/w21/016d88c3-a0b3-4506-ae4e-758e7401c096&gt;</text>
    </g>
    <g fill="rgb(255,204,0)" text-rendering="geometricPrecision" shape-rendering="geometricPrecision" transform="matrix(1,0,0,1,-114,41)" stroke="rgb(255,204,0)">
      <ellipse rx="86.5" ry="26.5" clip-path="url(#clipPath2)" cx="639.5" cy="660.5" stroke="none"/>
    </g>
    <g text-rendering="geometricPrecision" stroke-miterlimit="1.45" shape-rendering="geometricPrecision" transform="matrix(1,0,0,1,-114,41)" stroke-linecap="butt">
      <ellipse rx="86.5" fill="none" ry="26.5" clip-path="url(#clipPath2)" cx="639.5" cy="660.5"/>
      <text x="617.1523" xml:space="preserve" y="665.2139" clip-path="url(#clipPath2)" font-family="sans-serif" stroke="none">eg:shacl</text>
    </g>
    <g fill="rgb(255,204,0)" text-rendering="geometricPrecision" shape-rendering="geometricPrecision" transform="matrix(1,0,0,1,-114,41)" stroke="rgb(255,204,0)">
      <ellipse rx="86.5" ry="26.5" clip-path="url(#clipPath2)" cx="436.5" cy="660.5" stroke="none"/>
    </g>
    <g text-rendering="geometricPrecision" stroke-miterlimit="1.45" shape-rendering="geometricPrecision" transform="matrix(1,0,0,1,-114,41)" stroke-linecap="butt">
      <ellipse rx="86.5" fill="none" ry="26.5" clip-path="url(#clipPath2)" cx="436.5" cy="660.5"/>
      <text x="354.7939" xml:space="preserve" y="665.2139" clip-path="url(#clipPath2)" font-family="sans-serif" stroke="none">&lt;http://www.w3.org/ns/shacl#&gt;</text>
    </g>
    <g fill="rgb(255,204,0)" text-rendering="geometricPrecision" shape-rendering="geometricPrecision" transform="matrix(1,0,0,1,-114,41)" stroke="rgb(255,204,0)">
      <rect x="713" width="119" height="30" y="-26" clip-path="url(#clipPath2)" stroke="none"/>
    </g>
    <g text-rendering="geometricPrecision" stroke-miterlimit="1.45" shape-rendering="geometricPrecision" transform="matrix(1,0,0,1,-114,41)" stroke-linecap="butt">
      <rect fill="none" x="713" width="119" height="30" y="-26" clip-path="url(#clipPath2)"/>
      <text x="738.2168" xml:space="preserve" y="-6.2861" clip-path="url(#clipPath2)" font-family="sans-serif" stroke="none">"geodcat-ap"</text>
    </g>
    <g fill="rgb(255,204,0)" text-rendering="geometricPrecision" shape-rendering="geometricPrecision" transform="matrix(1,0,0,1,-114,41)" stroke="rgb(255,204,0)">
      <rect x="129.3333" width="553.6667" height="30" y="-26" clip-path="url(#clipPath2)" stroke="none"/>
    </g>
    <g text-rendering="geometricPrecision" stroke-miterlimit="1.45" shape-rendering="geometricPrecision" transform="matrix(1,0,0,1,-114,41)" stroke-linecap="butt">
      <rect fill="none" x="129.3333" width="553.6667" height="30" y="-26" clip-path="url(#clipPath2)"/>
      <text x="146.4411" xml:space="preserve" y="-6.2861" clip-path="url(#clipPath2)" font-family="sans-serif" stroke="none">"GeoDCAT-AP: A geospatial extension for the DCAT application profile for data portals in Europe"</text>
      <path fill="none" d="M513.6321 250.0605 L709.9009 176.4217" clip-path="url(#clipPath2)"/>
      <path d="M717.3911 173.6114 L704.3994 173.1455 L708.9647 176.773 L707.9122 182.5082 Z" clip-path="url(#clipPath2)" stroke="none"/>
      <text x="638.9805" xml:space="preserve" y="168.1949" clip-path="url(#clipPath2)" font-family="sans-serif" stroke="none">rdf:type</text>
      <path fill="none" d="M572.6049 261.5104 L678.0652 247.9587" clip-path="url(#clipPath2)"/>
      <path d="M686 246.939 L673.4606 243.5092 L677.0734 248.0861 L674.7351 253.4277 Z" clip-path="url(#clipPath2)" stroke="none"/>
      <text x="619.3558" xml:space="preserve" y="226.5412" clip-path="url(#clipPath2)" font-family="sans-serif" stroke="none">prof:token</text>
      <path fill="none" d="M564.2688 298.9719 L678.0663 316.7599" clip-path="url(#clipPath2)"/>
      <path d="M685.9703 317.9954 L674.8864 311.2021 L677.0782 316.6054 L673.342 321.0821 Z" clip-path="url(#clipPath2)" stroke="none"/>
      <text x="656.1086" xml:space="preserve" y="291.4827" clip-path="url(#clipPath2)" font-family="sans-serif" stroke="none">rdfs:label</text>
      <path fill="none" d="M504.6761 308.8749 L678.6736 385.121" clip-path="url(#clipPath2)"/>
      <path d="M686.001 388.3319 L677.0167 378.936 L677.7577 384.7197 L673.0031 388.0952 Z" clip-path="url(#clipPath2)" stroke="none"/>
      <text x="653.8812" xml:space="preserve" y="360.3938" clip-path="url(#clipPath2)" font-family="sans-serif" stroke="none">dc:publisher</text>
      <path fill="none" d="M404.0501 246.6815 L313 156 L228.1936 93.5516" clip-path="url(#clipPath2)"/>
      <path d="M221.7516 88.808 L228.4498 99.9496 L228.9988 94.1446 L234.3793 91.8972 Z" clip-path="url(#clipPath2)" stroke="none"/>
      <text x="251.292" xml:space="preserve" y="103.5567" clip-path="url(#clipPath2)" font-family="sans-serif" stroke="none">prof:profileOf</text>
      <path fill="none" d="M213.922 89.6065 L286 186 L379.0226 243.4824" clip-path="url(#clipPath2)"/>
      <path d="M385.8281 247.6878 L378.2482 237.1263 L378.1719 242.9567 L372.9915 245.6331 Z" clip-path="url(#clipPath2)" stroke="none"/>
      <text x="255.8175" xml:space="preserve" y="231.2345" clip-path="url(#clipPath2)" font-family="sans-serif" stroke="none">prof:hasProfile</text>
      <path fill="none" d="M436.5 246 L436.5 178 L396.8278 104.3741" clip-path="url(#clipPath2)"/>
      <path d="M393.033 97.3315 L394.3236 110.2673 L397.3022 105.2545 L403.1269 105.5237 Z" clip-path="url(#clipPath2)" stroke="none"/>
      <text x="400.2527" xml:space="preserve" y="116.5645" clip-path="url(#clipPath2)" font-family="sans-serif" stroke="none">prof:profileOf</text>
      <path fill="none" d="M381 97.5 L381 188 L409.1194 239.3485" clip-path="url(#clipPath2)"/>
      <path d="M412.9619 246.3652 L411.5836 233.4385 L408.6391 238.4714 L402.8127 238.2417 Z" clip-path="url(#clipPath2)" stroke="none"/>
      <text x="312.3135" xml:space="preserve" y="116.5645" clip-path="url(#clipPath2)" font-family="sans-serif" stroke="none">prof:hasProfile</text>
      <path fill="none" d="M470.5264 246.7501 L561 161 L631.8786 105.8366" clip-path="url(#clipPath2)"/>
      <path d="M638.1918 100.923 L625.651 104.3475 L631.0894 106.4508 L631.7929 112.2391 Z" clip-path="url(#clipPath2)" stroke="none"/>
      <text x="523.0005" xml:space="preserve" y="127.1641" clip-path="url(#clipPath2)" font-family="sans-serif" stroke="none">prof:hasProfile</text>
      <path fill="none" d="M654.9086 101.358 L601 187 L498.8637 244.1218" clip-path="url(#clipPath2)"/>
      <path d="M491.8815 248.0268 L504.7954 246.5332 L499.7365 243.6337 L499.9142 237.8055 Z" clip-path="url(#clipPath2)" stroke="none"/>
      <text x="526.4008" xml:space="preserve" y="214.0386" clip-path="url(#clipPath2)" font-family="sans-serif" stroke="none">prof:profileOf</text>
      <path fill="none" d="M699.0229 101.1075 L733.8797 134.1716" clip-path="url(#clipPath2)"/>
      <path d="M739.6838 139.6772 L734.4186 127.7912 L733.1542 133.4834 L727.5366 135.0464 Z" clip-path="url(#clipPath2)" stroke="none"/>
      <text x="669.1039" xml:space="preserve" y="137.7715" clip-path="url(#clipPath2)" font-family="sans-serif" stroke="none">rdf:type</text>
      <path fill="none" d="M436.5 312 L436.5 452.5" clip-path="url(#clipPath2)"/>
      <path d="M436.5 460.5 L441.5 448.5 L436.5 451.5 L431.5 448.5 Z" clip-path="url(#clipPath2)" stroke="none"/>
      <text x="371.1504" xml:space="preserve" y="426.9639" clip-path="url(#clipPath2)" font-family="sans-serif" stroke="none">prof:resource</text>
      <path fill="none" d="M356.5 493.5 L313 493.5" clip-path="url(#clipPath2)"/>
      <path d="M305 493.5 L317 498.5 L314 493.5 L317 488.5 Z" clip-path="url(#clipPath2)" stroke="none"/>
      <text x="310.2402" xml:space="preserve" y="468.2139" clip-path="url(#clipPath2)" font-family="sans-serif" stroke="none">rdf:type</text>
      <path fill="none" d="M516.5 493.5 L678 493.5" clip-path="url(#clipPath2)"/>
      <path d="M686 493.5 L674 488.5 L677 493.5 L674 498.5 Z" clip-path="url(#clipPath2)" stroke="none"/>
      <text x="630.5771" xml:space="preserve" y="468.2139" clip-path="url(#clipPath2)" font-family="sans-serif" stroke="none">rdfs:label</text>
      <path fill="none" d="M506.5343 509.4504 L722.7556 558.6953" clip-path="url(#clipPath2)"/>
      <path d="M730.5558 560.4718 L719.9658 552.9319 L721.7806 558.4733 L717.7451 562.6823 Z" clip-path="url(#clipPath2)" stroke="none"/>
      <text x="686.6244" xml:space="preserve" y="532.4629" clip-path="url(#clipPath2)" font-family="sans-serif" stroke="none">prof:resource</text>
      <path fill="none" d="M472.3584 522.9993 L603.1346 630.5837" clip-path="url(#clipPath2)"/>
      <path d="M609.3127 635.6661 L603.2222 624.1812 L602.3624 629.9484 L596.869 631.9037 Z" clip-path="url(#clipPath2)" stroke="none"/>
      <text x="493.9336" xml:space="preserve" y="624.3633" clip-path="url(#clipPath2)" font-family="sans-serif" stroke="none">prof:resourceType</text>
      <path fill="none" d="M436.5 526.5 L436.5 626" clip-path="url(#clipPath2)"/>
      <path d="M436.5 634 L441.5 622 L436.5 625 L431.5 622 Z" clip-path="url(#clipPath2)" stroke="none"/>
      <text x="379.8252" xml:space="preserve" y="584.9639" clip-path="url(#clipPath2)" font-family="sans-serif" stroke="none">dct:format</text>
      <path fill="none" d="M702.053 48.9846 L748.7927 9.1864" clip-path="url(#clipPath2)"/>
      <path d="M754.8837 4 L742.5056 7.9727 L748.0313 9.8347 L748.9886 15.5866 Z" clip-path="url(#clipPath2)" stroke="none"/>
      <text x="734.5839" xml:space="preserve" y="42.6803" clip-path="url(#clipPath2)" font-family="sans-serif" stroke="none">prof:token</text>
      <path fill="none" d="M598.6481 51.3872 L460.056 6.4666" clip-path="url(#clipPath2)"/>
      <path d="M452.4457 4 L462.3195 12.4564 L461.0073 6.775 L465.4027 2.9436 Z" clip-path="url(#clipPath2)" stroke="none"/>
      <text x="574.6445" xml:space="preserve" y="24.6755" clip-path="url(#clipPath2)" font-family="sans-serif" stroke="none">rdfs:label</text>
    </g>
  </g>
</svg>
