<svg xmlns="http://www.w3.org/2000/svg" xmlns:xlink="http://www.w3.org/1999/xlink" xmlns:lucid="lucid" width="842.13" height="427.82"><g transform="translate(10 1.2950000000001296)" lucid:page-tab-id="LcaHu4eX5ZIa"><path d="M0 0h1870.4v1323.2H0z" fill="#fff"/><path d="M182.9 62H29.2C18.66 62 10 70.6 10 81.23v79.6c0 10.64 8.65 19.26 19.2 19.26h153.7c10.58 0 19.23-8.62 19.23-19.25v-79.6c0-10.64-8.65-19.26-19.22-19.26z" stroke="#000" stroke-width="1.11" fill="#fff"/><use xlink:href="#a" transform="matrix(1,0,0,1,18.83779600003284,70.85025002247654) translate(20.069677734375006 56.055)"/><use xlink:href="#b" transform="matrix(1,0,0,1,18.83779600003284,70.85025002247654) translate(109.95869140625 56.055)"/><path d="M72.9 360.56H12.22v-1.12H72.9zm126.1 0h-60.2v-1.12H199z"/><path d="M12.25 360.56h-.57v-1.12h.57zM200 360l-18.02 10.66-.57-.96 16.42-9.7-16.4-9.7.56-.96z"/><use xlink:href="#c" transform="matrix(1,0,0,1,72.8900000001755,349.2) translate(0 14.4)"/><path d="M182.9 203.3H29.2c-10.55 0-19.2 8.6-19.2 19.24v79.6c0 10.63 8.65 19.26 19.2 19.26h153.7c10.58 0 19.23-8.63 19.23-19.25v-79.6c0-10.64-8.65-19.26-19.22-19.26z" stroke="#000" stroke-width="1.11" fill="#a5a5a5"/><use xlink:href="#d" transform="matrix(1,0,0,1,18.83779600003226,212.14525002247666) translate(41.0039990234375 56.055)"/><use xlink:href="#b" transform="matrix(1,0,0,1,18.83779600003226,212.14525002247666) translate(89.02437011718749 56.055)"/><path d="M37.74 18.7h140V62h-140z" stroke="#000" stroke-opacity="0" stroke-width="2" fill="#fff" fill-opacity="0"/><use xlink:href="#e" transform="matrix(1,0,0,1,42.743000000351,23.70499999999987) translate(14.049999999999997 20.6)"/><use xlink:href="#f" transform="matrix(1,0,0,1,42.743000000351,23.70499999999987) translate(84.95 20.6)"/><path d="M432.9 238.1H279.2c-10.55 0-19.2 8.63-19.2 19.26v79.6c0 10.64 8.65 19.26 19.2 19.26h153.7c10.58 0 19.23-8.62 19.23-19.25v-79.6c0-10.64-8.65-19.26-19.22-19.26z" stroke="#000" stroke-width="1.11" fill="#fff"/><use xlink:href="#g" transform="matrix(1,0,0,1,268.8377960000323,246.96825002249986) translate(67.3793994140625 42.723)"/><use xlink:href="#h" transform="matrix(1,0,0,1,268.8377960000323,246.96825002249986) translate(46.1575634765625 69.387)"/><path d="M792.9 238.1H639.2c-10.55 0-19.2 8.63-19.2 19.26v79.6c0 10.64 8.65 19.26 19.2 19.26h153.7c10.58 0 19.23-8.62 19.23-19.25v-79.6c0-10.64-8.65-19.26-19.22-19.26z" stroke="#000" stroke-width="1.11" fill="#a5a5a5"/><use xlink:href="#i" transform="matrix(1,0,0,1,628.837796000032,246.96825002249986) translate(15.691860351562497 56.055)"/><path d="M475.23 226.75l-2.44 1.2-6.17 3.33-6.28 3.76-6.43 4.2-6.12 4.4-.65-.9 6.15-4.4 6.46-4.24 6.32-3.78 6.2-3.37 2.95-1.44zm125.7.43l5.9 3.28 5.97 3.67 6.1 4.1 5.76 4.24-.66.9-5.74-4.23-6.06-4.08-5.94-3.64-5.84-3.26-3.34-1.68v-1.25z"/><path d="M447.8 243.64l-.44.33-.4-.53-.37-.3.57-.4zM625.14 243.52l-20.87-1.7.1-1.1 19 1.54-7.8-17.4 1-.45z"/><use xlink:href="#j" transform="matrix(1,0,0,1,475.2270183514483,178.81793686983372) translate(43.93000000000001 14.4)"/><use xlink:href="#k" transform="matrix(1,0,0,1,475.2270183514483,178.81793686983372) translate(0.005000000000002558 36)"/><use xlink:href="#l" transform="matrix(1,0,0,1,475.2270183514483,178.81793686983372) translate(40.93000000000001 57.6)"/><path d="M792.9 20H639.2c-10.55 0-19.2 8.62-19.2 19.25v79.6c0 10.64 8.65 19.26 19.2 19.26h153.7c10.58 0 19.23-8.6 19.23-19.24v-79.6c0-10.64-8.65-19.26-19.22-19.26z" stroke="#000" stroke-width="1.11" fill="#fff"/><use xlink:href="#m" transform="matrix(1,0,0,1,628.837796000032,28.858250001569772) translate(70.2708203125 42.723)"/><use xlink:href="#n" transform="matrix(1,0,0,1,628.837796000032,28.858250001569772) translate(46.933310546875006 69.387)"/><path d="M716.62 237h-1.1v-27.3h1.1zm0-70.5h-1.1v-26.83h1.1zM716.62 237.56h-1.1V237h1.1z"/><path d="M726.72 156.7l-.95.55-9.7-16.4-9.7 16.4-.97-.56 10.66-18.03z"/><use xlink:href="#o" transform="matrix(1,0,0,1,655.1380000003501,166.51000001046506) translate(0.005000000000002558 14.4)"/><use xlink:href="#l" transform="matrix(1,0,0,1,655.1380000003501,166.51000001046506) translate(40.93000000000001 36)"/><path d="M453.77 354.58l6.04 4.1 5.95 3.65 5.83 3.27 3.48 1.76v2.24l-4.42-2.23-5.9-3.32-6-3.7-6.13-4.14-5.4-4 1.2-1.6zm170.45-1.88l-5.5 3.94-6.48 4.22-6.33 3.76-6.2 3.35-2.8 1.36v-2.22l1.9-.9 6.12-3.32 6.26-3.72 6.4-4.17 5.48-3.93z"/><path d="M448.4 350.6l-1.18 1.62-1-.73.57-.43.8-1.05zM616 370.5l-1.82-.84 7.7-16.6-18.27 1.25-.13-1.98 21.64-1.5z"/><g><use xlink:href="#p" transform="matrix(1,0,0,1,475.05502419801525,350.725227152471) translate(15.480000000000004 14.4)"/><use xlink:href="#k" transform="matrix(1,0,0,1,475.05502419801525,350.725227152471) translate(0.005000000000002558 36)"/><use xlink:href="#q" transform="matrix(1,0,0,1,475.05502419801525,350.725227152471) translate(40.93000000000001 57.6)"/></g><path d="M540.55 339.44h-1.1V311.6h1.1zm0-71.04h-1.1v-24.78h1.1z"/><path d="M540.55 340h-1.1v-.57h1.1zM530.3 258.6l-.96-.58 8.52-14.4h1.3zm20.36-.58l-.96.57-8.85-14.98h1.3z"/><g><use xlink:href="#r" transform="matrix(1,0,0,1,482.05,268.4) translate(40.480000000000004 14.4)"/><use xlink:href="#s" transform="matrix(1,0,0,1,482.05,268.4) translate(0.005000000000002558 36)"/></g><defs><path d="M575-854c-119 2-197 63-259 134V0H140v-978c55 7 141-23 150 36l15 104c78-83 170-155 321-155 223 0 325 146 325 370V0H775v-623c0-140-61-233-200-231" id="t"/><path d="M75-490c0-310 160-503 466-503s464 194 464 503c0 310-158 504-464 504C234 14 75-180 75-490zm181 1c0 215 74 366 285 366 210 0 283-152 283-366s-74-367-283-367c-211 0-285 152-285 367" id="u"/><path d="M75-653h478v149H75v-149" id="v"/><path d="M1178 0c-74-7-179 24-202-42L864-358H322L211-43C194 22 84-6 8 0l493-1314h185zM368-488h450c-69-195-137-390-206-585-7-21-13-44-19-69-68 226-151 434-225 654" id="w"/><path d="M323-1422V0H147v-1422h176" id="x"/><path d="M650-73c-53 51-136 87-233 88-153 0-235-95-235-251v-596c-55-8-148 24-148-39v-70l154-20 41-301c4-50 80-28 129-33v335h269v128H358v584c-2 72 34 118 99 120 56 2 78-32 116-46 15 0 19 7 25 17" id="y"/><path d="M994-906c0 279-183 411-470 416H329V0H147v-1314h377c290 3 470 124 470 408zm-182 0c0-176-103-265-288-265H329v537h195c180-4 288-94 288-272" id="z"/><g id="a"><use transform="matrix(0.010849609375,0,0,0.010849609375,0,0)" xlink:href="#t"/><use transform="matrix(0.010849609375,0,0,0.010849609375,11.674179687499999,0)" xlink:href="#u"/><use transform="matrix(0.010849609375,0,0,0.010849609375,23.391757812499993,0)" xlink:href="#t"/><use transform="matrix(0.010849609375,0,0,0.010849609375,35.0659375,0)" xlink:href="#v"/><use transform="matrix(0.010849609375,0,0,0.010849609375,41.868642578125,0)" xlink:href="#w"/><use transform="matrix(0.010849609375,0,0,0.010849609375,54.7254296875,0)" xlink:href="#x"/><use transform="matrix(0.010849609375,0,0,0.010849609375,59.824746093749994,0)" xlink:href="#y"/><use transform="matrix(0.010849609375,0,0,0.010849609375,66.58405273437499,0)" xlink:href="#v"/><use transform="matrix(0.010849609375,0,0,0.010849609375,73.3867578125,0)" xlink:href="#z"/></g><path d="M1052-184C961-66 832 17 628 14c-289-4-447-172-522-398-53-160-53-388 3-546 81-226 241-394 534-399 180-3 301 72 392 167-25 33-46 70-75 99-51 21-73-33-114-51-77-60-256-80-362-23-152 81-231 248-231 480 0 233 83 400 235 481 113 60 301 37 376-30 33-15 74-101 116-56" id="A"/><path d="M514-995c228 0 341 142 341 370V0c-56-5-123 17-137-41l-22-91C610-53 522 18 358 15 189 12 84-73 84-244c0-178 154-235 319-276 76-19 169-27 280-30 12-176-30-304-190-304-107 0-171 42-231 86-34 25-81 14-98-16l-32-56c98-93 207-155 382-155zM253-253c0 98 61 145 158 145 133 0 205-61 272-130v-202c-134 6-246 19-333 58-57 26-97 59-97 129" id="B"/><path d="M95-709c0-188 136-281 332-284 128-2 226 47 291 114-25 33-46 112-108 74-47-29-100-60-179-58-97 2-169 47-169 140 0 121 140 131 235 168 118 46 235 94 235 255C732-91 595 11 381 15 247 17 139-38 70-104c26-39 56-126 124-80 51 35 104 76 195 74 109-2 179-54 179-159 0-126-138-136-236-173C209-488 95-543 95-709" id="C"/><g id="b"><use transform="matrix(0.010849609375,0,0,0.010849609375,0,0)" xlink:href="#A"/><use transform="matrix(0.010849609375,0,0,0.010849609375,11.847773437499999,0)" xlink:href="#x"/><use transform="matrix(0.010849609375,0,0,0.010849609375,16.94708984375,0)" xlink:href="#B"/><use transform="matrix(0.010849609375,0,0,0.010849609375,27.590556640625,0)" xlink:href="#C"/><use transform="matrix(0.010849609375,0,0,0.010849609375,36.28109375,0)" xlink:href="#C"/></g><path d="M115-194c55 1 70 41 70 98S169 2 115 4C84 4 66-9 55-30l1 105H24l-1-265h31l2 30c10-21 28-34 59-34zm-8 174c40 0 45-34 45-75s-6-73-45-74c-42 0-51 32-51 76 0 43 10 73 51 73" id="D"/><path d="M114-163C36-179 61-72 57 0H25l-1-190h30c1 12-1 29 2 39 6-27 23-49 58-41v29" id="E"/><path d="M100-194c62-1 85 37 85 99 1 63-27 99-86 99S16-35 15-95c0-66 28-99 85-99zM99-20c44 1 53-31 53-75 0-43-8-75-51-75s-53 32-53 75 10 74 51 75" id="F"/><path d="M100-194c63 0 86 42 84 106H49c0 40 14 67 53 68 26 1 43-12 49-29l28 8c-11 28-37 45-77 45C44 4 14-33 15-96c1-61 26-98 85-98zm52 81c6-60-76-77-97-28-3 7-6 17-6 28h103" id="G"/><path d="M59-47c-2 24 18 29 38 22v24C64 9 27 4 27-40v-127H5v-23h24l9-43h21v43h35v23H59v120" id="H"/><path d="M179-190L93 31C79 59 56 82 12 73V49c39 6 53-20 64-50L1-190h34L92-34l54-156h33" id="I"/><g id="c"><use transform="matrix(0.05,0,0,0.05,0,0)" xlink:href="#D"/><use transform="matrix(0.05,0,0,0.05,10,0)" xlink:href="#E"/><use transform="matrix(0.05,0,0,0.05,15.949999999999998,0)" xlink:href="#F"/><use transform="matrix(0.05,0,0,0.05,25.950000000000003,0)" xlink:href="#D"/><use transform="matrix(0.05,0,0,0.05,35.95,0)" xlink:href="#G"/><use transform="matrix(0.05,0,0,0.05,45.95,0)" xlink:href="#E"/><use transform="matrix(0.05,0,0,0.05,51.900000000000006,0)" xlink:href="#H"/><use transform="matrix(0.05,0,0,0.05,56.900000000000006,0)" xlink:href="#I"/></g><g id="d"><use transform="matrix(0.010849609375,0,0,0.010849609375,0,0)" xlink:href="#w"/><use transform="matrix(0.010849609375,0,0,0.010849609375,12.856787109374999,0)" xlink:href="#x"/><use transform="matrix(0.010849609375,0,0,0.010849609375,17.956103515625,0)" xlink:href="#y"/><use transform="matrix(0.010849609375,0,0,0.010849609375,24.715410156249998,0)" xlink:href="#v"/><use transform="matrix(0.010849609375,0,0,0.010849609375,31.518115234374992,0)" xlink:href="#z"/></g><path d="M30 0v-248h187v28H63v79h144v27H63v87h162V0H30" id="J"/><path d="M24 0v-261h32V0H24" id="K"/><path d="M210-169c-67 3-38 105-44 169h-31v-121c0-29-5-50-35-48C34-165 62-65 56 0H25l-1-190h30c1 10-1 24 2 32 10-44 99-50 107 0 11-21 27-35 58-36 85-2 47 119 55 194h-31v-121c0-29-5-49-35-48" id="L"/><path d="M117-194c89-4 53 116 60 194h-32v-121c0-31-8-49-39-48C34-167 62-67 57 0H25l-1-190h30c1 10-1 24 2 32 11-22 29-35 61-36" id="M"/><g id="e"><use transform="matrix(0.05,0,0,0.05,0,0)" xlink:href="#J"/><use transform="matrix(0.05,0,0,0.05,12,0)" xlink:href="#K"/><use transform="matrix(0.05,0,0,0.05,15.949999999999998,0)" xlink:href="#G"/><use transform="matrix(0.05,0,0,0.05,25.950000000000003,0)" xlink:href="#L"/><use transform="matrix(0.05,0,0,0.05,40.9,0)" xlink:href="#G"/><use transform="matrix(0.05,0,0,0.05,50.9,0)" xlink:href="#M"/><use transform="matrix(0.05,0,0,0.05,60.900000000000006,0)" xlink:href="#H"/><path d="M-.9 1.25h72.7v1.32H-.9z"/></g><path d="M194 0L95-120 63-95V0H30v-248h33v124l119-124h40L117-140 236 0h-42" id="N"/><g id="f"><use transform="matrix(0.05,0,0,0.05,0,0)" xlink:href="#N"/><use transform="matrix(0.05,0,0,0.05,12,0)" xlink:href="#G"/><use transform="matrix(0.05,0,0,0.05,22,0)" xlink:href="#I"/><path d="M-.9 1.25h32.8v1.32H-.9z"/></g><path d="M536-823c-141 7-187 99-229 205V0H131v-978c60 8 148-26 154 48l12 144c58-123 149-234 328-202 18 3 34 11 49 21l-14 130c-12 52-78 12-124 14" id="O"/><path d="M492-995c127 0 201 45 264 114v-541h176V0c-55-7-141 23-150-36l-18-117C688-64 595 14 440 14 170 14 74-204 74-486c0-228 88-392 242-470 52-26 111-39 176-39zM255-486c2 201 49 359 242 359 130 0 195-67 259-146v-473c-54-73-114-114-224-114-197 0-279 159-277 374" id="P"/><path d="M523-1269c-167-5-192 134-183 309h263v128H346V0H170v-831c-44-9-102-4-133-26-23-17-9-67-13-103h146c-18-271 76-439 324-444 44 0 83 8 117 19-9 39 11 106-29 113-15 2-34 3-59 3" id="Q"/><path d="M271-232c74 0 125 50 125 125 0 74-52 123-125 123S149-34 149-107c0-74 48-125 122-125zm-6-678c74 0 125 50 125 125 0 74-52 123-125 123s-122-50-122-123c0-74 48-125 122-125" id="R"/><g id="g"><use transform="matrix(0.010849609375,0,0,0.010849609375,0,0)" xlink:href="#O"/><use transform="matrix(0.010849609375,0,0,0.010849609375,7.44283203125,0)" xlink:href="#P"/><use transform="matrix(0.010849609375,0,0,0.010849609375,19.11701171875,0)" xlink:href="#Q"/><use transform="matrix(0.010849609375,0,0,0.010849609375,25.605078125,0)" xlink:href="#C"/><use transform="matrix(0.010849609375,0,0,0.010849609375,34.295615234375,0)" xlink:href="#R"/></g><path d="M969-949c0 213-127 324-301 372 24 16 43 33 61 57L1082 0c-87-8-195 23-235-37L536-505c-21-29-36-41-85-41H329V0H147v-1314h360c275 2 462 97 462 365zM500-679c179-3 292-82 292-257 0-157-95-235-285-235H329v492h171" id="S"/><path d="M544 14C232 14 75-190 75-509c0-226 105-376 267-447 57-25 122-37 193-37 265 0 410 167 410 437 0 47-2 68-42 68H249c7 217 94 359 310 364 110 2 183-39 248-80 70-44 93 39 123 67C847-42 716 14 544 14zm243-610c-5-164-86-266-249-269-173-3-262 113-284 269h533" id="T"/><path d="M450 15c-223 0-325-146-325-370v-623h176v623c0 141 61 233 200 231 119-1 195-63 259-133v-721h176V0c-55-7-141 23-150-36l-16-104C692-57 602 15 450 15" id="U"/><path d="M69-490c0-299 140-503 438-503 143 0 234 53 308 127-20 26-37 58-61 80-40 18-64-17-93-32-37-19-81-40-143-39-201 7-269 160-269 367 0 204 66 360 261 368 96 4 149-38 198-81 21-19 50-20 67 2l51 64C751-46 640 14 479 14 199 14 69-199 69-490" id="V"/><g id="h"><use transform="matrix(0.010849609375,0,0,0.010849609375,0,0)" xlink:href="#S"/><use transform="matrix(0.010849609375,0,0,0.010849609375,11.674179687499999,0)" xlink:href="#T"/><use transform="matrix(0.010849609375,0,0,0.010849609375,22.729931640624997,0)" xlink:href="#C"/><use transform="matrix(0.010849609375,0,0,0.010849609375,31.420468749999998,0)" xlink:href="#u"/><use transform="matrix(0.010849609375,0,0,0.010849609375,43.138046875,0)" xlink:href="#U"/><use transform="matrix(0.010849609375,0,0,0.010849609375,54.812226562499994,0)" xlink:href="#O"/><use transform="matrix(0.010849609375,0,0,0.010849609375,62.233359375,0)" xlink:href="#V"/><use transform="matrix(0.010849609375,0,0,0.010849609375,71.62912109375,0)" xlink:href="#T"/></g><path d="M581 14c-127 0-201-47-264-114v430H141V-978c55 7 141-23 150 36l17 114c76-89 171-167 326-167 271 0 368 217 368 499 0 229-91 393-245 471-52 26-111 39-176 39zm240-510c-2-202-50-358-245-358-128 0-197 66-259 146v472c53 73 114 114 225 114 198 0 281-159 279-374" id="W"/><path d="M323-978V0H147v-978h176zm-91-431c74 0 125 50 125 125 0 74-52 123-125 123s-122-50-122-123c0-74 48-125 122-125" id="X"/><g id="i"><use transform="matrix(0.010849609375,0,0,0.010849609375,0,0)" xlink:href="#R"/><use transform="matrix(0.010849609375,0,0,0.010849609375,5.9455859375,0)" xlink:href="#S"/><use transform="matrix(0.010849609375,0,0,0.010849609375,17.619765625,0)" xlink:href="#T"/><use transform="matrix(0.010849609375,0,0,0.010849609375,28.675517578125,0)" xlink:href="#W"/><use transform="matrix(0.010849609375,0,0,0.010849609375,40.349697265625,0)" xlink:href="#O"/><use transform="matrix(0.010849609375,0,0,0.010849609375,47.803378906249996,0)" xlink:href="#T"/><use transform="matrix(0.010849609375,0,0,0.010849609375,58.859130859375,0)" xlink:href="#C"/><use transform="matrix(0.010849609375,0,0,0.010849609375,67.54966796875,0)" xlink:href="#T"/><use transform="matrix(0.010849609375,0,0,0.010849609375,78.605419921875,0)" xlink:href="#t"/><use transform="matrix(0.010849609375,0,0,0.010849609375,90.07345703125,0)" xlink:href="#y"/><use transform="matrix(0.010849609375,0,0,0.010849609375,97.24504882812502,0)" xlink:href="#B"/><use transform="matrix(0.010849609375,0,0,0.010849609375,107.68237304687501,0)" xlink:href="#y"/><use transform="matrix(0.010849609375,0,0,0.010849609375,115.12520507812502,0)" xlink:href="#X"/><use transform="matrix(0.010849609375,0,0,0.010849609375,120.22452148437502,0)" xlink:href="#u"/><use transform="matrix(0.010849609375,0,0,0.010849609375,131.94209960937502,0)" xlink:href="#t"/></g><path d="M33-154v-36h34v36H33zM33 0v-36h34V0H33" id="Y"/><path d="M106-169C34-169 62-67 57 0H25v-261h32l-1 103c12-21 28-36 61-36 89 0 53 116 60 194h-32v-121c2-32-8-49-39-48" id="Z"/><path d="M141-36C126-15 110 5 73 4 37 3 15-17 15-53c-1-64 63-63 125-63 3-35-9-54-41-54-24 1-41 7-42 31l-33-3c5-37 33-52 76-52 45 0 72 20 72 64v82c-1 20 7 32 28 27v20c-31 9-61-2-59-35zM48-53c0 20 12 33 32 33 41-3 63-29 60-74-43 2-92-5-92 41" id="aa"/><path d="M135-143c-3-34-86-38-87 0 15 53 115 12 119 90S17 21 10-45l28-5c4 36 97 45 98 0-10-56-113-15-118-90-4-57 82-63 122-42 12 7 21 19 24 35" id="ab"/><g id="j"><use transform="matrix(0.05,0,0,0.05,0,0)" xlink:href="#Y"/><use transform="matrix(0.05,0,0,0.05,5,0)" xlink:href="#Z"/><use transform="matrix(0.05,0,0,0.05,15,0)" xlink:href="#aa"/><use transform="matrix(0.05,0,0,0.05,25,0)" xlink:href="#ab"/></g><path d="M233-177c-1 41-23 64-60 70L243 0h-38l-65-103H63V0H30v-248c88 3 205-21 203 71zM63-129c60-2 137 13 137-47 0-61-80-42-137-45v92" id="ac"/><path d="M24-231v-30h32v30H24zM24 0v-190h32V0H24" id="ad"/><g id="k"><use transform="matrix(0.05,0,0,0.05,0,0)" xlink:href="#ac"/><use transform="matrix(0.05,0,0,0.05,12.950000000000001,0)" xlink:href="#G"/><use transform="matrix(0.05,0,0,0.05,22.950000000000003,0)" xlink:href="#D"/><use transform="matrix(0.05,0,0,0.05,32.95,0)" xlink:href="#E"/><use transform="matrix(0.05,0,0,0.05,38.900000000000006,0)" xlink:href="#G"/><use transform="matrix(0.05,0,0,0.05,48.900000000000006,0)" xlink:href="#ab"/><use transform="matrix(0.05,0,0,0.05,57.900000000000006,0)" xlink:href="#G"/><use transform="matrix(0.05,0,0,0.05,67.9,0)" xlink:href="#M"/><use transform="matrix(0.05,0,0,0.05,77.9,0)" xlink:href="#H"/><use transform="matrix(0.05,0,0,0.05,82.9,0)" xlink:href="#aa"/><use transform="matrix(0.05,0,0,0.05,92.9,0)" xlink:href="#H"/><use transform="matrix(0.05,0,0,0.05,97.9,0)" xlink:href="#ad"/><use transform="matrix(0.05,0,0,0.05,101.85000000000001,0)" xlink:href="#F"/><use transform="matrix(0.05,0,0,0.05,111.85000000000001,0)" xlink:href="#M"/></g><path d="M26 75v-336h71v23H56V52h41v23H26" id="ae"/><path d="M27 0v-27h64v-190l-56 39v-29l58-41h29v221h61V0H27" id="af"/><path d="M33 0v-38h34V0H33" id="ag"/><path d="M3 75V52h41v-290H3v-23h71V75H3" id="ah"/><g id="l"><use transform="matrix(0.05,0,0,0.05,0,0)" xlink:href="#ae"/><use transform="matrix(0.05,0,0,0.05,5,0)" xlink:href="#af"/><use transform="matrix(0.05,0,0,0.05,15,0)" xlink:href="#ag"/><use transform="matrix(0.05,0,0,0.05,20,0)" xlink:href="#ag"/><use transform="matrix(0.05,0,0,0.05,25,0)" xlink:href="#M"/><use transform="matrix(0.05,0,0,0.05,35,0)" xlink:href="#ah"/></g><g id="m"><use transform="matrix(0.010849609375,0,0,0.010849609375,0,0)" xlink:href="#P"/><use transform="matrix(0.010849609375,0,0,0.010849609375,11.674179687499999,0)" xlink:href="#V"/><use transform="matrix(0.010849609375,0,0,0.010849609375,21.06994140625,0)" xlink:href="#y"/><use transform="matrix(0.010849609375,0,0,0.010849609375,28.512773437499998,0)" xlink:href="#R"/></g><path d="M454-137c154-4 244-84 244-236 0-172-165-194-295-240-161-57-303-135-295-354 9-227 154-362 390-362 152 0 266 55 344 137l-45 85c-37 63-91-1-127-21-44-25-97-52-170-50-136 3-221 69-221 201 0 166 169 187 295 236 153 60 300 130 295 341-6 260-155 414-419 414-174 0-309-76-395-172 24-34 40-77 71-104 55-23 84 36 125 60 52 30 115 67 203 65" id="ai"/><g id="n"><use transform="matrix(0.010849609375,0,0,0.010849609375,0,0)" xlink:href="#ai"/><use transform="matrix(0.010849609375,0,0,0.010849609375,10.209482421875,0)" xlink:href="#y"/><use transform="matrix(0.010849609375,0,0,0.010849609375,17.38107421875,0)" xlink:href="#B"/><use transform="matrix(0.010849609375,0,0,0.010849609375,28.024541015624997,0)" xlink:href="#t"/><use transform="matrix(0.010849609375,0,0,0.010849609375,39.698720703125,0)" xlink:href="#P"/><use transform="matrix(0.010849609375,0,0,0.010849609375,51.372900390625,0)" xlink:href="#B"/><use transform="matrix(0.010849609375,0,0,0.010849609375,62.016367187499995,0)" xlink:href="#O"/><use transform="matrix(0.010849609375,0,0,0.010849609375,69.45919921874999,0)" xlink:href="#P"/></g><path d="M85-194c31 0 48 13 60 33l-1-100h32l1 261h-30c-2-10 0-23-3-31C134-8 116 4 85 4 32 4 16-35 15-94c0-66 23-100 70-100zm9 24c-40 0-46 34-46 75 0 40 6 74 45 74 42 0 51-32 51-76 0-42-9-74-50-73" id="aj"/><path d="M96-169c-40 0-48 33-48 73s9 75 48 75c24 0 41-14 43-38l32 2c-6 37-31 61-74 61-59 0-76-41-82-99-10-93 101-131 147-64 4 7 5 14 7 22l-32 3c-4-21-16-35-41-35" id="ak"/><path d="M101-234c-31-9-42 10-38 44h38v23H63V0H32v-167H5v-23h27c-7-52 17-82 69-68v24" id="al"/><path d="M127-220V0H93v-220H8v-28h204v28h-85" id="am"/><g id="o"><use transform="matrix(0.05,0,0,0.05,0,0)" xlink:href="#aj"/><use transform="matrix(0.05,0,0,0.05,10,0)" xlink:href="#ak"/><use transform="matrix(0.05,0,0,0.05,19,0)" xlink:href="#H"/><use transform="matrix(0.05,0,0,0.05,24,0)" xlink:href="#Y"/><use transform="matrix(0.05,0,0,0.05,29,0)" xlink:href="#ak"/><use transform="matrix(0.05,0,0,0.05,38,0)" xlink:href="#F"/><use transform="matrix(0.05,0,0,0.05,48,0)" xlink:href="#M"/><use transform="matrix(0.05,0,0,0.05,58,0)" xlink:href="#al"/><use transform="matrix(0.05,0,0,0.05,63,0)" xlink:href="#F"/><use transform="matrix(0.05,0,0,0.05,73,0)" xlink:href="#E"/><use transform="matrix(0.05,0,0,0.05,78.95,0)" xlink:href="#L"/><use transform="matrix(0.05,0,0,0.05,93.9,0)" xlink:href="#ab"/><use transform="matrix(0.05,0,0,0.05,102.9,0)" xlink:href="#am"/><use transform="matrix(0.05,0,0,0.05,111.85000000000001,0)" xlink:href="#F"/></g><path d="M30-248c118-7 216 8 213 122C240-48 200 0 122 0H30v-248zM63-27c89 8 146-16 146-99s-60-101-146-95v194" id="an"/><path d="M84 4C-5 8 30-112 23-190h32v120c0 31 7 50 39 49 72-2 45-101 50-169h31l1 190h-30c-1-10 1-25-2-33-11 22-28 36-60 37" id="ao"/><g id="p"><use transform="matrix(0.05,0,0,0.05,0,0)" xlink:href="#Y"/><use transform="matrix(0.05,0,0,0.05,5,0)" xlink:href="#Z"/><use transform="matrix(0.05,0,0,0.05,15,0)" xlink:href="#aa"/><use transform="matrix(0.05,0,0,0.05,25,0)" xlink:href="#ab"/><use transform="matrix(0.05,0,0,0.05,34,0)" xlink:href="#an"/><use transform="matrix(0.05,0,0,0.05,46.95,0)" xlink:href="#G"/><use transform="matrix(0.05,0,0,0.05,56.95,0)" xlink:href="#al"/><use transform="matrix(0.05,0,0,0.05,61.95,0)" xlink:href="#aa"/><use transform="matrix(0.05,0,0,0.05,71.95,0)" xlink:href="#ao"/><use transform="matrix(0.05,0,0,0.05,81.95,0)" xlink:href="#K"/><use transform="matrix(0.05,0,0,0.05,85.9,0)" xlink:href="#H"/></g><path d="M101-251c68 0 85 55 85 127S166 4 100 4C33 4 14-52 14-124c0-73 17-127 87-127zm-1 229c47 0 54-49 54-102s-4-102-53-102c-51 0-55 48-55 102 0 53 5 102 54 102" id="ap"/><g id="q"><use transform="matrix(0.05,0,0,0.05,0,0)" xlink:href="#ae"/><use transform="matrix(0.05,0,0,0.05,5,0)" xlink:href="#ap"/><use transform="matrix(0.05,0,0,0.05,15,0)" xlink:href="#ag"/><use transform="matrix(0.05,0,0,0.05,20,0)" xlink:href="#ag"/><use transform="matrix(0.05,0,0,0.05,25,0)" xlink:href="#af"/><use transform="matrix(0.05,0,0,0.05,35,0)" xlink:href="#ah"/></g><g id="r"><use transform="matrix(0.05,0,0,0.05,0,0)" xlink:href="#E"/><use transform="matrix(0.05,0,0,0.05,5.95,0)" xlink:href="#aj"/><use transform="matrix(0.05,0,0,0.05,15.949999999999998,0)" xlink:href="#al"/><use transform="matrix(0.05,0,0,0.05,20.95,0)" xlink:href="#ab"/><use transform="matrix(0.05,0,0,0.05,29.950000000000003,0)" xlink:href="#Y"/></g><path d="M115-194c53 0 69 39 70 98 0 66-23 100-70 100C84 3 66-7 56-30L54 0H23l1-261h32v101c10-23 28-34 59-34zm-8 174c40 0 45-34 45-75 0-40-5-75-45-74-42 0-51 32-51 76 0 43 10 73 51 73" id="aq"/><path d="M30-248c87 1 191-15 191 75 0 78-77 80-158 76V0H30v-248zm33 125c57 0 124 11 124-50 0-59-68-47-124-48v98" id="ar"/><path d="M140-251c81 0 123 46 123 126C263-46 219 4 140 4 59 4 17-45 17-125s42-126 123-126zm0 227c63 0 89-41 89-101s-29-99-89-99c-61 0-89 39-89 99S79-25 140-24" id="as"/><g id="s"><use transform="matrix(0.05,0,0,0.05,0,0)" xlink:href="#ab"/><use transform="matrix(0.05,0,0,0.05,9,0)" xlink:href="#ao"/><use transform="matrix(0.05,0,0,0.05,19,0)" xlink:href="#aq"/><use transform="matrix(0.05,0,0,0.05,29,0)" xlink:href="#ar"/><use transform="matrix(0.05,0,0,0.05,41,0)" xlink:href="#E"/><use transform="matrix(0.05,0,0,0.05,46.95,0)" xlink:href="#F"/><use transform="matrix(0.05,0,0,0.05,56.95,0)" xlink:href="#D"/><use transform="matrix(0.05,0,0,0.05,66.95,0)" xlink:href="#G"/><use transform="matrix(0.05,0,0,0.05,76.95,0)" xlink:href="#E"/><use transform="matrix(0.05,0,0,0.05,82.9,0)" xlink:href="#H"/><use transform="matrix(0.05,0,0,0.05,87.9,0)" xlink:href="#I"/><use transform="matrix(0.05,0,0,0.05,96.9,0)" xlink:href="#as"/><use transform="matrix(0.05,0,0,0.05,110.9,0)" xlink:href="#al"/></g></defs></g></svg>