<svg xmlns="http://www.w3.org/2000/svg" xmlns:xlink="http://www.w3.org/1999/xlink" xmlns:lucid="lucid" width="802.13" height="469.81"><g transform="translate(9.999999999999375 20)" lucid:page-tab-id="0_0"><path d="M0 0h1870.4v1323.2H0z" fill="#fff"/><path d="M182.9 43.3H29.2C18.66 43.3 10 51.9 10 62.53v79.6c0 10.63 8.65 19.26 19.2 19.26h153.7c10.58 0 19.23-8.63 19.23-19.25v-79.6c0-10.64-8.65-19.26-19.22-19.26z" stroke="#000" stroke-width="1.11" fill="#fff"/><use xlink:href="#a" transform="matrix(1,0,0,1,18.837796000032853,52.145250022476674) translate(65.0141845703125 56.055)"/><path d="M75.02 201.85H14.36v-1.1h60.66zm126.1 0h-60.2v-1.1h60.2z"/><path d="M14.38 201.85h-.57v-1.1h.58zM202.13 201.3l-18.03 10.65-.56-.95 16.4-9.7-16.4-9.7.56-.96z"/><use xlink:href="#b" transform="matrix(1,0,0,1,75.01600000087676,190.49500000000015) translate(0 14.4)"/><path d="M36.06 0h140v43.3h-140z" stroke="#000" stroke-opacity="0" stroke-width="2" fill="#fff" fill-opacity="0"/><use xlink:href="#c" transform="matrix(1,0,0,1,41.063000000350954,5) translate(14.049999999999997 20.6)"/><use xlink:href="#d" transform="matrix(1,0,0,1,41.063000000350954,5) translate(84.95 20.6)"/><path d="M392.9 261.4H239.2c-10.55 0-19.2 8.62-19.2 19.25v79.6c0 10.63 8.65 19.26 19.2 19.26h153.7c10.58 0 19.23-8.62 19.23-19.24v-79.6c0-10.64-8.65-19.26-19.22-19.26z" stroke="#000" stroke-width="1.11" fill="#fff"/><use xlink:href="#e" transform="matrix(1,0,0,1,228.83779600003228,270.2552500434068) translate(46.1575634765625 56.055)"/><path d="M752.9 261.4H599.2c-10.55 0-19.2 8.62-19.2 19.25v79.6c0 10.63 8.65 19.26 19.2 19.26h153.7c10.58 0 19.23-8.62 19.23-19.24v-79.6c0-10.64-8.65-19.26-19.22-19.26z" stroke="#000" stroke-width="1.11" fill="#fff"/><use xlink:href="#f" transform="matrix(1,0,0,1,588.8377960000321,270.2552500434068) translate(18.664653320312496 56.055)"/><path d="M438.73 248.3l-5.95 2.9-6.16 3.35-6.28 3.76-6.43 4.22-6.1 4.4-.66-.9 6.15-4.4 6.45-4.25 6.32-3.78 6.2-3.38 6.1-2.98.36-.16zm116.42-.77l5.8 2.92 5.88 3.28 6 3.67 6.08 4.1 5.77 4.24-.66.9-5.73-4.23-6.06-4.07-5.93-3.64-5.84-3.27-5.76-2.9-1.1-.5v-1.2z"/><path d="M407.8 266.9l-.45.34-.4-.5-.37-.3.58-.43zM585.15 266.8l-20.87-1.72.1-1.1 19 1.56-7.8-17.4 1-.46z"/><use xlink:href="#g" transform="matrix(1,0,0,1,438.7271781576597,202.08552037453418) translate(42.93000000000001 14.4)"/><use xlink:href="#h" transform="matrix(1,0,0,1,438.7271781576597,202.08552037453418) translate(0.005000000000002558 36)"/><use xlink:href="#i" transform="matrix(1,0,0,1,438.7271781576597,202.08552037453418) translate(37.43000000000001 57.6)"/><path d="M752.9 43.3H599.2c-10.55 0-19.2 8.6-19.2 19.24v79.6c0 10.63 8.65 19.26 19.2 19.26h153.7c10.58 0 19.23-8.63 19.23-19.25v-79.6c0-10.64-8.65-19.26-19.22-19.26z" stroke="#000" stroke-width="1.11" fill="#fff"/><use xlink:href="#j" transform="matrix(1,0,0,1,588.8377960000321,52.145250022476674) translate(58.189780273437506 56.055)"/><path d="M676.62 260.3h-1.1V233h1.1zm0-70.5h-1.1v-26.84h1.1z"/><path d="M676.62 260.84h-1.1v-.57h1.1zM686.72 179.97l-.95.57-9.7-16.4-9.7 16.4-.97-.57 10.66-18.02z"/><use xlink:href="#k" transform="matrix(1,0,0,1,629.1130000003501,189.797000031372) translate(0.005000000000002558 14.4)"/><use xlink:href="#l" transform="matrix(1,0,0,1,629.1130000003501,189.797000031372) translate(78.905 14.4)"/><use xlink:href="#i" transform="matrix(1,0,0,1,629.1130000003501,189.797000031372) translate(26.955000000000005 36)"/><path d="M413.77 377.86l6.04 4.1 5.95 3.66 5.83 3.27 5.74 2.9 1.24.56v2.2l-2.1-.96-5.82-2.95-5.9-3.3-6-3.72-6.13-4.13-5.4-4 1.2-1.6zM584.22 376l-5.5 3.93-6.48 4.22-6.33 3.76-6.2 3.36-6.1 2.96-.2.1v-2.22l5.4-2.62 6.12-3.3 6.26-3.73 6.4-4.18 5.48-3.9z"/><path d="M408.4 373.9l-1.18 1.6-1-.72.57-.43.8-1.04zM576 393.8l-1.82-.85 7.7-16.6-18.27 1.25-.13-2 21.64-1.5z"/><use xlink:href="#m" transform="matrix(1,0,0,1,438.55502419801536,374.01222717337794) translate(13.455000000000005 14.4)"/><use xlink:href="#n" transform="matrix(1,0,0,1,438.55502419801536,374.01222717337794) translate(47.455000000000005 14.4)"/><use xlink:href="#h" transform="matrix(1,0,0,1,438.55502419801536,374.01222717337794) translate(0.005000000000002558 36)"/><use xlink:href="#o" transform="matrix(1,0,0,1,438.55502419801536,374.01222717337794) translate(37.43000000000001 57.6)"/><path d="M496.62 364.9h-1.1v-26.83h1.1zm0-48.43h-1.1v-40h1.1z"/><path d="M496.62 365.45h-1.1v-.57h1.1zM506.72 293.47l-.95.57-9.7-16.4-9.7 16.4-.97-.57 10.66-18.02z"/><g><use xlink:href="#p" transform="matrix(1,0,0,1,435.63800000035025,316.4701818704839) translate(0 14.4)"/><use xlink:href="#q" transform="matrix(1,0,0,1,435.63800000035025,316.4701818704839) translate(105.85000000000001 14.4)"/></g><defs><path d="M1052-184C961-66 832 17 628 14c-289-4-447-172-522-398-53-160-53-388 3-546 81-226 241-394 534-399 180-3 301 72 392 167-25 33-46 70-75 99-51 21-73-33-114-51-77-60-256-80-362-23-152 81-231 248-231 480 0 233 83 400 235 481 113 60 301 37 376-30 33-15 74-101 116-56" id="r"/><path d="M323-1422V0H147v-1422h176" id="s"/><path d="M514-995c228 0 341 142 341 370V0c-56-5-123 17-137-41l-22-91C610-53 522 18 358 15 189 12 84-73 84-244c0-178 154-235 319-276 76-19 169-27 280-30 12-176-30-304-190-304-107 0-171 42-231 86-34 25-81 14-98-16l-32-56c98-93 207-155 382-155zM253-253c0 98 61 145 158 145 133 0 205-61 272-130v-202c-134 6-246 19-333 58-57 26-97 59-97 129" id="t"/><path d="M95-709c0-188 136-281 332-284 128-2 226 47 291 114-25 33-46 112-108 74-47-29-100-60-179-58-97 2-169 47-169 140 0 121 140 131 235 168 118 46 235 94 235 255C732-91 595 11 381 15 247 17 139-38 70-104c26-39 56-126 124-80 51 35 104 76 195 74 109-2 179-54 179-159 0-126-138-136-236-173C209-488 95-543 95-709" id="u"/><g id="a"><use transform="matrix(0.010849609375,0,0,0.010849609375,0,0)" xlink:href="#r"/><use transform="matrix(0.010849609375,0,0,0.010849609375,11.847773437499999,0)" xlink:href="#s"/><use transform="matrix(0.010849609375,0,0,0.010849609375,16.94708984375,0)" xlink:href="#t"/><use transform="matrix(0.010849609375,0,0,0.010849609375,27.590556640625,0)" xlink:href="#u"/><use transform="matrix(0.010849609375,0,0,0.010849609375,36.28109375,0)" xlink:href="#u"/></g><path d="M115-194c55 1 70 41 70 98S169 2 115 4C84 4 66-9 55-30l1 105H24l-1-265h31l2 30c10-21 28-34 59-34zm-8 174c40 0 45-34 45-75s-6-73-45-74c-42 0-51 32-51 76 0 43 10 73 51 73" id="v"/><path d="M114-163C36-179 61-72 57 0H25l-1-190h30c1 12-1 29 2 39 6-27 23-49 58-41v29" id="w"/><path d="M100-194c62-1 85 37 85 99 1 63-27 99-86 99S16-35 15-95c0-66 28-99 85-99zM99-20c44 1 53-31 53-75 0-43-8-75-51-75s-53 32-53 75 10 74 51 75" id="x"/><path d="M100-194c63 0 86 42 84 106H49c0 40 14 67 53 68 26 1 43-12 49-29l28 8c-11 28-37 45-77 45C44 4 14-33 15-96c1-61 26-98 85-98zm52 81c6-60-76-77-97-28-3 7-6 17-6 28h103" id="y"/><path d="M59-47c-2 24 18 29 38 22v24C64 9 27 4 27-40v-127H5v-23h24l9-43h21v43h35v23H59v120" id="z"/><path d="M179-190L93 31C79 59 56 82 12 73V49c39 6 53-20 64-50L1-190h34L92-34l54-156h33" id="A"/><g id="b"><use transform="matrix(0.05,0,0,0.05,0,0)" xlink:href="#v"/><use transform="matrix(0.05,0,0,0.05,10,0)" xlink:href="#w"/><use transform="matrix(0.05,0,0,0.05,15.949999999999998,0)" xlink:href="#x"/><use transform="matrix(0.05,0,0,0.05,25.950000000000003,0)" xlink:href="#v"/><use transform="matrix(0.05,0,0,0.05,35.95,0)" xlink:href="#y"/><use transform="matrix(0.05,0,0,0.05,45.95,0)" xlink:href="#w"/><use transform="matrix(0.05,0,0,0.05,51.900000000000006,0)" xlink:href="#z"/><use transform="matrix(0.05,0,0,0.05,56.900000000000006,0)" xlink:href="#A"/></g><path d="M30 0v-248h187v28H63v79h144v27H63v87h162V0H30" id="B"/><path d="M24 0v-261h32V0H24" id="C"/><path d="M210-169c-67 3-38 105-44 169h-31v-121c0-29-5-50-35-48C34-165 62-65 56 0H25l-1-190h30c1 10-1 24 2 32 10-44 99-50 107 0 11-21 27-35 58-36 85-2 47 119 55 194h-31v-121c0-29-5-49-35-48" id="D"/><path d="M117-194c89-4 53 116 60 194h-32v-121c0-31-8-49-39-48C34-167 62-67 57 0H25l-1-190h30c1 10-1 24 2 32 11-22 29-35 61-36" id="E"/><g id="c"><use transform="matrix(0.05,0,0,0.05,0,0)" xlink:href="#B"/><use transform="matrix(0.05,0,0,0.05,12,0)" xlink:href="#C"/><use transform="matrix(0.05,0,0,0.05,15.949999999999998,0)" xlink:href="#y"/><use transform="matrix(0.05,0,0,0.05,25.950000000000003,0)" xlink:href="#D"/><use transform="matrix(0.05,0,0,0.05,40.9,0)" xlink:href="#y"/><use transform="matrix(0.05,0,0,0.05,50.9,0)" xlink:href="#E"/><use transform="matrix(0.05,0,0,0.05,60.900000000000006,0)" xlink:href="#z"/><path d="M-.9 1.25h72.7v1.32H-.9z"/></g><path d="M194 0L95-120 63-95V0H30v-248h33v124l119-124h40L117-140 236 0h-42" id="F"/><g id="d"><use transform="matrix(0.05,0,0,0.05,0,0)" xlink:href="#F"/><use transform="matrix(0.05,0,0,0.05,12,0)" xlink:href="#y"/><use transform="matrix(0.05,0,0,0.05,22,0)" xlink:href="#A"/><path d="M-.9 1.25h32.8v1.32H-.9z"/></g><path d="M969-949c0 213-127 324-301 372 24 16 43 33 61 57L1082 0c-87-8-195 23-235-37L536-505c-21-29-36-41-85-41H329V0H147v-1314h360c275 2 462 97 462 365zM500-679c179-3 292-82 292-257 0-157-95-235-285-235H329v492h171" id="G"/><path d="M544 14C232 14 75-190 75-509c0-226 105-376 267-447 57-25 122-37 193-37 265 0 410 167 410 437 0 47-2 68-42 68H249c7 217 94 359 310 364 110 2 183-39 248-80 70-44 93 39 123 67C847-42 716 14 544 14zm243-610c-5-164-86-266-249-269-173-3-262 113-284 269h533" id="H"/><path d="M75-490c0-310 160-503 466-503s464 194 464 503c0 310-158 504-464 504C234 14 75-180 75-490zm181 1c0 215 74 366 285 366 210 0 283-152 283-366s-74-367-283-367c-211 0-285 152-285 367" id="I"/><path d="M450 15c-223 0-325-146-325-370v-623h176v623c0 141 61 233 200 231 119-1 195-63 259-133v-721h176V0c-55-7-141 23-150-36l-16-104C692-57 602 15 450 15" id="J"/><path d="M536-823c-141 7-187 99-229 205V0H131v-978c60 8 148-26 154 48l12 144c58-123 149-234 328-202 18 3 34 11 49 21l-14 130c-12 52-78 12-124 14" id="K"/><path d="M69-490c0-299 140-503 438-503 143 0 234 53 308 127-20 26-37 58-61 80-40 18-64-17-93-32-37-19-81-40-143-39-201 7-269 160-269 367 0 204 66 360 261 368 96 4 149-38 198-81 21-19 50-20 67 2l51 64C751-46 640 14 479 14 199 14 69-199 69-490" id="L"/><g id="e"><use transform="matrix(0.010849609375,0,0,0.010849609375,0,0)" xlink:href="#G"/><use transform="matrix(0.010849609375,0,0,0.010849609375,11.674179687499999,0)" xlink:href="#H"/><use transform="matrix(0.010849609375,0,0,0.010849609375,22.729931640624997,0)" xlink:href="#u"/><use transform="matrix(0.010849609375,0,0,0.010849609375,31.420468749999998,0)" xlink:href="#I"/><use transform="matrix(0.010849609375,0,0,0.010849609375,43.138046875,0)" xlink:href="#J"/><use transform="matrix(0.010849609375,0,0,0.010849609375,54.812226562499994,0)" xlink:href="#K"/><use transform="matrix(0.010849609375,0,0,0.010849609375,62.233359375,0)" xlink:href="#L"/><use transform="matrix(0.010849609375,0,0,0.010849609375,71.62912109375,0)" xlink:href="#H"/></g><path d="M581 14c-127 0-201-47-264-114v430H141V-978c55 7 141-23 150 36l17 114c76-89 171-167 326-167 271 0 368 217 368 499 0 229-91 393-245 471-52 26-111 39-176 39zm240-510c-2-202-50-358-245-358-128 0-197 66-259 146v472c53 73 114 114 225 114 198 0 281-159 279-374" id="M"/><path d="M575-854c-119 2-197 63-259 134V0H140v-978c55 7 141-23 150 36l15 104c78-83 170-155 321-155 223 0 325 146 325 370V0H775v-623c0-140-61-233-200-231" id="N"/><path d="M650-73c-53 51-136 87-233 88-153 0-235-95-235-251v-596c-55-8-148 24-148-39v-70l154-20 41-301c4-50 80-28 129-33v335h269v128H358v584c-2 72 34 118 99 120 56 2 78-32 116-46 15 0 19 7 25 17" id="O"/><path d="M323-978V0H147v-978h176zm-91-431c74 0 125 50 125 125 0 74-52 123-125 123s-122-50-122-123c0-74 48-125 122-125" id="P"/><g id="f"><use transform="matrix(0.010849609375,0,0,0.010849609375,0,0)" xlink:href="#G"/><use transform="matrix(0.010849609375,0,0,0.010849609375,11.674179687499999,0)" xlink:href="#H"/><use transform="matrix(0.010849609375,0,0,0.010849609375,22.729931640624997,0)" xlink:href="#M"/><use transform="matrix(0.010849609375,0,0,0.010849609375,34.404111328125,0)" xlink:href="#K"/><use transform="matrix(0.010849609375,0,0,0.010849609375,41.85779296875,0)" xlink:href="#H"/><use transform="matrix(0.010849609375,0,0,0.010849609375,52.913544921874994,0)" xlink:href="#u"/><use transform="matrix(0.010849609375,0,0,0.010849609375,61.604082031249995,0)" xlink:href="#H"/><use transform="matrix(0.010849609375,0,0,0.010849609375,72.659833984375,0)" xlink:href="#N"/><use transform="matrix(0.010849609375,0,0,0.010849609375,84.12787109375,0)" xlink:href="#O"/><use transform="matrix(0.010849609375,0,0,0.010849609375,91.29946289062501,0)" xlink:href="#t"/><use transform="matrix(0.010849609375,0,0,0.010849609375,101.73678710937502,0)" xlink:href="#O"/><use transform="matrix(0.010849609375,0,0,0.010849609375,109.17961914062501,0)" xlink:href="#P"/><use transform="matrix(0.010849609375,0,0,0.010849609375,114.27893554687502,0)" xlink:href="#I"/><use transform="matrix(0.010849609375,0,0,0.010849609375,125.99651367187501,0)" xlink:href="#N"/></g><path d="M106-169C34-169 62-67 57 0H25v-261h32l-1 103c12-21 28-36 61-36 89 0 53 116 60 194h-32v-121c2-32-8-49-39-48" id="Q"/><path d="M141-36C126-15 110 5 73 4 37 3 15-17 15-53c-1-64 63-63 125-63 3-35-9-54-41-54-24 1-41 7-42 31l-33-3c5-37 33-52 76-52 45 0 72 20 72 64v82c-1 20 7 32 28 27v20c-31 9-61-2-59-35zM48-53c0 20 12 33 32 33 41-3 63-29 60-74-43 2-92-5-92 41" id="R"/><path d="M135-143c-3-34-86-38-87 0 15 53 115 12 119 90S17 21 10-45l28-5c4 36 97 45 98 0-10-56-113-15-118-90-4-57 82-63 122-42 12 7 21 19 24 35" id="S"/><g id="g"><use transform="matrix(0.05,0,0,0.05,0,0)" xlink:href="#Q"/><use transform="matrix(0.05,0,0,0.05,10,0)" xlink:href="#R"/><use transform="matrix(0.05,0,0,0.05,20,0)" xlink:href="#S"/></g><path d="M24-231v-30h32v30H24zM24 0v-190h32V0H24" id="T"/><g id="h"><use transform="matrix(0.05,0,0,0.05,0,0)" xlink:href="#w"/><use transform="matrix(0.05,0,0,0.05,5.95,0)" xlink:href="#y"/><use transform="matrix(0.05,0,0,0.05,15.949999999999998,0)" xlink:href="#v"/><use transform="matrix(0.05,0,0,0.05,25.950000000000003,0)" xlink:href="#w"/><use transform="matrix(0.05,0,0,0.05,31.899999999999995,0)" xlink:href="#y"/><use transform="matrix(0.05,0,0,0.05,41.9,0)" xlink:href="#S"/><use transform="matrix(0.05,0,0,0.05,50.9,0)" xlink:href="#y"/><use transform="matrix(0.05,0,0,0.05,60.900000000000006,0)" xlink:href="#E"/><use transform="matrix(0.05,0,0,0.05,70.9,0)" xlink:href="#z"/><use transform="matrix(0.05,0,0,0.05,75.9,0)" xlink:href="#R"/><use transform="matrix(0.05,0,0,0.05,85.9,0)" xlink:href="#z"/><use transform="matrix(0.05,0,0,0.05,90.9,0)" xlink:href="#T"/><use transform="matrix(0.05,0,0,0.05,94.85000000000001,0)" xlink:href="#x"/><use transform="matrix(0.05,0,0,0.05,104.85000000000001,0)" xlink:href="#E"/></g><path d="M26 75v-336h71v23H56V52h41v23H26" id="U"/><path d="M27 0v-27h64v-190l-56 39v-29l58-41h29v221h61V0H27" id="V"/><path d="M33 0v-38h34V0H33" id="W"/><path d="M3 75V52h41v-290H3v-23h71V75H3" id="X"/><g id="i"><use transform="matrix(0.05,0,0,0.05,0,0)" xlink:href="#U"/><use transform="matrix(0.05,0,0,0.05,5,0)" xlink:href="#V"/><use transform="matrix(0.05,0,0,0.05,15,0)" xlink:href="#W"/><use transform="matrix(0.05,0,0,0.05,20,0)" xlink:href="#W"/><use transform="matrix(0.05,0,0,0.05,25,0)" xlink:href="#E"/><use transform="matrix(0.05,0,0,0.05,35,0)" xlink:href="#X"/></g><path d="M994-906c0 279-183 411-470 416H329V0H147v-1314h377c290 3 470 124 470 408zm-182 0c0-176-103-265-288-265H329v537h195c180-4 288-94 288-272" id="Y"/><path d="M523-1269c-167-5-192 134-183 309h263v128H346V0H170v-831c-44-9-102-4-133-26-23-17-9-67-13-103h146c-18-271 76-439 324-444 44 0 83 8 117 19-9 39 11 106-29 113-15 2-34 3-59 3" id="Z"/><g id="j"><use transform="matrix(0.010849609375,0,0,0.010849609375,0,0)" xlink:href="#Y"/><use transform="matrix(0.010849609375,0,0,0.010849609375,11.47888671875,0)" xlink:href="#K"/><use transform="matrix(0.010849609375,0,0,0.010849609375,18.867470703125,0)" xlink:href="#I"/><use transform="matrix(0.010849609375,0,0,0.010849609375,30.585048828125,0)" xlink:href="#Z"/><use transform="matrix(0.010849609375,0,0,0.010849609375,37.3660546875,0)" xlink:href="#P"/><use transform="matrix(0.010849609375,0,0,0.010849609375,42.465371093749994,0)" xlink:href="#s"/><use transform="matrix(0.010849609375,0,0,0.010849609375,47.56468749999999,0)" xlink:href="#H"/></g><path d="M96-169c-40 0-48 33-48 73s9 75 48 75c24 0 41-14 43-38l32 2c-6 37-31 61-74 61-59 0-76-41-82-99-10-93 101-131 147-64 4 7 5 14 7 22l-32 3c-4-21-16-35-41-35" id="aa"/><path d="M101-234c-31-9-42 10-38 44h38v23H63V0H32v-167H5v-23h27c-7-52 17-82 69-68v24" id="ab"/><g id="k"><use transform="matrix(0.05,0,0,0.05,0,0)" xlink:href="#aa"/><use transform="matrix(0.05,0,0,0.05,9,0)" xlink:href="#x"/><use transform="matrix(0.05,0,0,0.05,19,0)" xlink:href="#E"/><use transform="matrix(0.05,0,0,0.05,29,0)" xlink:href="#ab"/><use transform="matrix(0.05,0,0,0.05,34,0)" xlink:href="#x"/><use transform="matrix(0.05,0,0,0.05,44,0)" xlink:href="#w"/><use transform="matrix(0.05,0,0,0.05,49.95,0)" xlink:href="#D"/><use transform="matrix(0.05,0,0,0.05,64.9,0)" xlink:href="#S"/></g><g id="l"><use transform="matrix(0.05,0,0,0.05,0,0)" xlink:href="#z"/><use transform="matrix(0.05,0,0,0.05,5,0)" xlink:href="#x"/></g><g id="m"><use transform="matrix(0.05,0,0,0.05,0,0)" xlink:href="#Q"/><use transform="matrix(0.05,0,0,0.05,10,0)" xlink:href="#R"/><use transform="matrix(0.05,0,0,0.05,20,0)" xlink:href="#S"/></g><path d="M85-194c31 0 48 13 60 33l-1-100h32l1 261h-30c-2-10 0-23-3-31C134-8 116 4 85 4 32 4 16-35 15-94c0-66 23-100 70-100zm9 24c-40 0-46 34-46 75 0 40 6 74 45 74 42 0 51-32 51-76 0-42-9-74-50-73" id="ac"/><path d="M84 4C-5 8 30-112 23-190h32v120c0 31 7 50 39 49 72-2 45-101 50-169h31l1 190h-30c-1-10 1-25-2-33-11 22-28 36-60 37" id="ad"/><g id="n"><use transform="matrix(0.05,0,0,0.05,0,0)" xlink:href="#ac"/><use transform="matrix(0.05,0,0,0.05,10,0)" xlink:href="#y"/><use transform="matrix(0.05,0,0,0.05,20,0)" xlink:href="#ab"/><use transform="matrix(0.05,0,0,0.05,25,0)" xlink:href="#R"/><use transform="matrix(0.05,0,0,0.05,35,0)" xlink:href="#ad"/><use transform="matrix(0.05,0,0,0.05,45,0)" xlink:href="#C"/><use transform="matrix(0.05,0,0,0.05,48.95,0)" xlink:href="#z"/></g><path d="M101-251c68 0 85 55 85 127S166 4 100 4C33 4 14-52 14-124c0-73 17-127 87-127zm-1 229c47 0 54-49 54-102s-4-102-53-102c-51 0-55 48-55 102 0 53 5 102 54 102" id="ae"/><g id="o"><use transform="matrix(0.05,0,0,0.05,0,0)" xlink:href="#U"/><use transform="matrix(0.05,0,0,0.05,5,0)" xlink:href="#ae"/><use transform="matrix(0.05,0,0,0.05,15,0)" xlink:href="#W"/><use transform="matrix(0.05,0,0,0.05,20,0)" xlink:href="#W"/><use transform="matrix(0.05,0,0,0.05,25,0)" xlink:href="#V"/><use transform="matrix(0.05,0,0,0.05,35,0)" xlink:href="#X"/></g><path d="M115-194c53 0 69 39 70 98 0 66-23 100-70 100C84 3 66-7 56-30L54 0H23l1-261h32v101c10-23 28-34 59-34zm-8 174c40 0 45-34 45-75 0-40-5-75-45-74-42 0-51 32-51 76 0 43 10 73 51 73" id="af"/><path d="M16-82v-28h88v28H16" id="ag"/><g id="p"><use transform="matrix(0.05,0,0,0.05,0,0)" xlink:href="#S"/><use transform="matrix(0.05,0,0,0.05,9,0)" xlink:href="#ad"/><use transform="matrix(0.05,0,0,0.05,19,0)" xlink:href="#af"/><use transform="matrix(0.05,0,0,0.05,29,0)" xlink:href="#ag"/><use transform="matrix(0.05,0,0,0.05,34.95,0)" xlink:href="#v"/><use transform="matrix(0.05,0,0,0.05,44.95,0)" xlink:href="#w"/><use transform="matrix(0.05,0,0,0.05,50.900000000000006,0)" xlink:href="#x"/><use transform="matrix(0.05,0,0,0.05,60.900000000000006,0)" xlink:href="#v"/><use transform="matrix(0.05,0,0,0.05,70.9,0)" xlink:href="#y"/><use transform="matrix(0.05,0,0,0.05,80.9,0)" xlink:href="#w"/><use transform="matrix(0.05,0,0,0.05,86.85000000000001,0)" xlink:href="#z"/><use transform="matrix(0.05,0,0,0.05,91.85000000000001,0)" xlink:href="#A"/></g><g id="q"><use transform="matrix(0.05,0,0,0.05,0,0)" xlink:href="#x"/><use transform="matrix(0.05,0,0,0.05,10,0)" xlink:href="#ab"/></g></defs></g></svg>