<svg xmlns="http://www.w3.org/2000/svg" xmlns:xlink="http://www.w3.org/1999/xlink" xmlns:lucid="lucid" width="933.68" height="568.11"><g transform="translate(11.549999999999999 10)" lucid:page-tab-id="ZaVGvDusHrd0"><path d="M0 0h1870.4v1323.2H0z" fill="#fff"/><path d="M647.9 20H494.2c-10.55 0-19.2 8.62-19.2 19.25v79.6c0 10.64 8.65 19.26 19.2 19.26h153.7c10.58 0 19.23-8.6 19.23-19.24v-79.6c0-10.64-8.65-19.26-19.22-19.26z" stroke="#000" stroke-width="1.11" fill="#fff"/><use xlink:href="#a" transform="matrix(1,0,0,1,483.8377960000322,28.858250001571093) translate(51.3979248046875 29.391)"/><use xlink:href="#b" transform="matrix(1,0,0,1,483.8377960000322,28.858250001571093) translate(21.008168945312505 56.055)"/><use xlink:href="#c" transform="matrix(1,0,0,1,483.8377960000322,28.858250001571093) translate(132.3685595703125 56.055)"/><use xlink:href="#d" transform="matrix(1,0,0,1,483.8377960000322,28.858250001571093) translate(58.189780273437506 82.719)"/><path d="M1850.15 588.13h36912.4V2563.4H1850.15z" stroke="#000" stroke-opacity="0" stroke-width="1.67" fill-opacity="0"/><use xlink:href="#e" transform="matrix(1,0,0,1,23.417796000350283,18.888800000000003) translate(20.369213867187497 20.1675)"/><use xlink:href="#f" transform="matrix(1,0,0,1,23.417796000350283,18.888800000000003) translate(116.0843017578125 20.1675)"/><path d="M187.5 55H33.8c-10.57 0-19.22 8.62-19.22 19.25v79.6c0 10.64 8.65 19.26 19.2 19.26h153.7c10.58 0 19.23-8.6 19.23-19.24v-79.6c0-10.64-8.64-19.26-19.2-19.26z" stroke="#000" stroke-width="1.11" fill="#fff"/><use xlink:href="#g" transform="matrix(1,0,0,1,23.417795999681815,63.85825000156976) translate(29.704130859375 56.055)"/><path d="M187.5 185H33.8c-10.57 0-19.22 8.62-19.22 19.25v79.6c0 10.64 8.65 19.26 19.2 19.26h153.7c10.58 0 19.23-8.6 19.23-19.24v-79.6c0-10.64-8.64-19.26-19.2-19.26z" stroke="#000" stroke-width="1.11" fill="#a5a5a5"/><use xlink:href="#h" transform="matrix(1,0,0,1,23.417795999681235,193.85825000156976) translate(36.4363134765625 56.055)"/><path d="M54.5 340.56H16v-1.12h38.5zm149.53 0H165.1v-1.12h38.93z"/><path d="M204.58 340.56H204v-1.12h.58zM33.6 330.3L17.17 340l16.4 9.7-.56.96L15 340l18.02-10.66z"/><use xlink:href="#i" transform="matrix(1,0,0,1,54.48954101544949,328.89000004181355) translate(0 16.665)"/><path d="M511.7 179.6H336.72l-.08.04-.03.1v39.15h-1.1v-39.4l.28-.7.7-.3h175.2zm59.92-13.78h-1.1v-26.15h1.1z"/><path d="M336.62 219.44h-1.1v-.56h1.1zM581.72 156.7l-.95.55-9.7-16.4-9.7 16.4-.97-.56 10.66-18.03z"/><path d="M412.9 220H259.2c-10.55 0-19.2 8.62-19.2 19.25v79.6c0 10.64 8.65 19.26 19.2 19.26h153.7c10.58 0 19.23-8.6 19.23-19.24v-79.6c0-10.64-8.65-19.26-19.22-19.26z" stroke="#000" stroke-width="1.11" fill="#a5a5a5"/><use xlink:href="#j" transform="matrix(1,0,0,1,248.83779600003234,228.85825000156996) translate(4.246911367982207 54.77243220349628)"/><use xlink:href="#k" transform="matrix(1,0,0,1,248.83779600003234,228.85825000156996) translate(65.36642761244289 54.77243220349628)"/><path d="M647.9 420H494.2c-10.55 0-19.2 8.62-19.2 19.25v79.6c0 10.64 8.65 19.26 19.2 19.26h153.7c10.58 0 19.23-8.6 19.23-19.24v-79.6c0-10.64-8.65-19.26-19.22-19.26z" stroke="#000" stroke-width="1.11" fill="#a5a5a5"/><use xlink:href="#l" transform="matrix(1,0,0,1,483.8377960000323,428.85825000156984) translate(9.884148303150909 54.77243220349628)"/><use xlink:href="#k" transform="matrix(1,0,0,1,483.8377960000323,428.85825000156984) translate(59.72919067727418 54.77243220349628)"/><path d="M647.9 220H494.2c-10.55 0-19.2 8.62-19.2 19.25v79.6c0 10.64 8.65 19.26 19.2 19.26h153.7c10.58 0 19.23-8.6 19.23-19.24v-79.6c0-10.64-8.65-19.26-19.22-19.26z" stroke="#000" stroke-width="1.11" fill="#a5a5a5"/><use xlink:href="#l" transform="matrix(1,0,0,1,483.8377960000323,228.85825000156996) translate(19.912496114135237 28.069730931644525)"/><use xlink:href="#m" transform="matrix(1,0,0,1,483.8377960000323,228.85825000156996) translate(69.75753848825852 28.069730931644525)"/><use xlink:href="#n" transform="matrix(1,0,0,1,483.8377960000323,228.85825000156996) translate(40.68126377001993 54.77243220349628)"/><use xlink:href="#o" transform="matrix(1,0,0,1,483.8377960000323,228.85825000156996) translate(34.80666949021254 81.47513347534803)"/><path d="M571.62 218.9h-1.1V187.4h1.1zm0-53.08h-1.1v-26.14h1.1z"/><path d="M571.62 219.44h-1.1v-.56h1.1zM581.72 156.7l-.95.55-9.7-16.4-9.7 16.4-.97-.56 10.66-18.03z"/><path d="M882.9 220H729.2c-10.55 0-19.2 8.62-19.2 19.25v79.6c0 10.64 8.65 19.26 19.2 19.26h153.7c10.58 0 19.23-8.6 19.23-19.24v-79.6c0-10.64-8.65-19.26-19.22-19.26z" stroke="#000" stroke-width="1.11" fill="#a5a5a5"/><use xlink:href="#p" transform="matrix(1,0,0,1,718.8377960000323,228.85825000156996) translate(41.86805049321334 28.069730931644525)"/><use xlink:href="#q" transform="matrix(1,0,0,1,718.8377960000323,228.85825000156996) translate(15.195018889441428 54.77243220349628)"/><use xlink:href="#r" transform="matrix(1,0,0,1,718.8377960000323,228.85825000156996) translate(34.21327612861584 81.47513347534803)"/><path d="M805.6 178.5l.72.3.3.7v39.4h-1.1v-39.17l-.05-.1-.08-.02H630.43v-1.1zm-233.98-12.68h-1.1v-26.15h1.1z"/><path d="M806.62 219.44h-1.1v-.56h1.1zM581.72 156.7l-.95.55-9.7-16.4-9.7 16.4-.97-.56 10.66-18.03z"/><g><use xlink:href="#s" transform="matrix(1,0,0,1,511.68800000035003,165.8246644819663) translate(0 14.4)"/></g><path d="M571.62 418.9h-1.1v-29.04h1.1zm0-50.64h-1.1v-28.58h1.1z"/><path d="M571.62 419.44h-1.1v-.56h1.1zM581.72 356.7l-.95.55-9.7-16.4-9.7 16.4-.97-.56 10.66-18.03z"/><g><use xlink:href="#s" transform="matrix(1,0,0,1,511.68800000035094,368.255) translate(0 14.4)"/></g><defs><path d="M1052-184C961-66 832 17 628 14c-289-4-447-172-522-398-53-160-53-388 3-546 81-226 241-394 534-399 180-3 301 72 392 167-25 33-46 70-75 99-51 21-73-33-114-51-77-60-256-80-362-23-152 81-231 248-231 480 0 233 83 400 235 481 113 60 301 37 376-30 33-15 74-101 116-56" id="t"/><path d="M75-490c0-310 160-503 466-503s464 194 464 503c0 310-158 504-464 504C234 14 75-180 75-490zm181 1c0 215 74 366 285 366 210 0 283-152 283-366s-74-367-283-367c-211 0-285 152-285 367" id="u"/><path d="M575-854c-119 2-197 63-259 134V0H140v-978c55 7 141-23 150 36l15 104c78-83 170-155 321-155 223 0 325 146 325 370V0H775v-623c0-140-61-233-200-231" id="v"/><path d="M650-73c-53 51-136 87-233 88-153 0-235-95-235-251v-596c-55-8-148 24-148-39v-70l154-20 41-301c4-50 80-28 129-33v335h269v128H358v584c-2 72 34 118 99 120 56 2 78-32 116-46 15 0 19 7 25 17" id="w"/><path d="M544 14C232 14 75-190 75-509c0-226 105-376 267-447 57-25 122-37 193-37 265 0 410 167 410 437 0 47-2 68-42 68H249c7 217 94 359 310 364 110 2 183-39 248-80 70-44 93 39 123 67C847-42 716 14 544 14zm243-610c-5-164-86-266-249-269-173-3-262 113-284 269h533" id="x"/><g id="a"><use transform="matrix(0.010849609375,0,0,0.010849609375,0,0)" xlink:href="#t"/><use transform="matrix(0.010849609375,0,0,0.010849609375,11.847773437499999,0)" xlink:href="#u"/><use transform="matrix(0.010849609375,0,0,0.010849609375,23.5653515625,0)" xlink:href="#v"/><use transform="matrix(0.010849609375,0,0,0.010849609375,35.033388671874995,0)" xlink:href="#w"/><use transform="matrix(0.010849609375,0,0,0.010849609375,42.237529296874996,0)" xlink:href="#x"/><use transform="matrix(0.010849609375,0,0,0.010849609375,53.29328125,0)" xlink:href="#v"/><use transform="matrix(0.010849609375,0,0,0.010849609375,64.761318359375,0)" xlink:href="#w"/></g><path d="M304-1012c2 28 4 55 4 84V0H148v-1314c60 5 126-11 157 31l714 983c-2-29-5-61-5-91v-923h160V0c-61-3-126 10-156-32" id="y"/><path d="M107-679c0-208 143-315 355-315 85 0 156 21 210 54h256c-2 50 12 98-40 106l-104 15c21 43 31 89 31 140 0 207-143 315-353 315-43 0-82-5-118-15-46 21-87 104-30 135 178 96 598-48 598 268 0 166-119 253-254 300-155 54-396 24-493-50-56-42-101-97-101-181 0-110 73-167 160-201-52-25-92-64-89-140 3-77 56-136 120-167-84-50-148-136-148-264zm369 904c144 0 274-38 274-172C750-83 557-56 422-70c-32-3-63-4-93-9C273-48 218-8 218 71c0 125 123 154 258 154zM268-675c2 124 69 192 194 195 124 3 196-76 196-195 0-121-71-194-196-194-123 0-196 74-194 194" id="z"/><path d="M323-978V0H147v-978h176zm-91-431c74 0 125 50 125 125 0 74-52 123-125 123s-122-50-122-123c0-74 48-125 122-125" id="A"/><path d="M514-995c228 0 341 142 341 370V0c-56-5-123 17-137-41l-22-91C610-53 522 18 358 15 189 12 84-73 84-244c0-178 154-235 319-276 76-19 169-27 280-30 12-176-30-304-190-304-107 0-171 42-231 86-34 25-81 14-98-16l-32-56c98-93 207-155 382-155zM253-253c0 98 61 145 158 145 133 0 205-61 272-130v-202c-134 6-246 19-333 58-57 26-97 59-97 129" id="B"/><g id="b"><use transform="matrix(0.010849609375,0,0,0.010849609375,0,0)" xlink:href="#y"/><use transform="matrix(0.010849609375,0,0,0.010849609375,14.34318359375,0)" xlink:href="#x"/><use transform="matrix(0.010849609375,0,0,0.010849609375,25.398935546875002,0)" xlink:href="#z"/><use transform="matrix(0.010849609375,0,0,0.010849609375,35.706064453125,0)" xlink:href="#u"/><use transform="matrix(0.010849609375,0,0,0.010849609375,47.423642578125,0)" xlink:href="#w"/><use transform="matrix(0.010849609375,0,0,0.010849609375,54.866474609375,0)" xlink:href="#A"/><use transform="matrix(0.010849609375,0,0,0.010849609375,59.965791015624994,0)" xlink:href="#B"/><use transform="matrix(0.010849609375,0,0,0.010849609375,70.403115234375,0)" xlink:href="#w"/><use transform="matrix(0.010849609375,0,0,0.010849609375,77.845947265625,0)" xlink:href="#A"/><use transform="matrix(0.010849609375,0,0,0.010849609375,82.945263671875,0)" xlink:href="#u"/><use transform="matrix(0.010849609375,0,0,0.010849609375,94.662841796875,0)" xlink:href="#v"/></g><path d="M586 14c-139 0-211-58-275-138-12 47 7 124-53 124H144v-1422h176v583c74-85 165-154 314-154 264 0 368 206 368 479 0 238-85 409-243 490-51 25-109 38-173 38zm235-522c0-208-63-346-246-346-127 0-194 66-255 146v472c53 73 113 114 222 114 204 0 279-159 279-386" id="C"/><path d="M409 288c-14 65-120 35-192 42L385-58 11-978h152c30-1 46 16 53 36 86 232 175 459 256 696 80-235 169-463 250-696 20-58 122-29 191-36" id="D"/><g id="c"><use transform="matrix(0.010849609375,0,0,0.010849609375,0,0)" xlink:href="#C"/><use transform="matrix(0.010849609375,0,0,0.010849609375,11.56568359375,0)" xlink:href="#D"/></g><path d="M994-906c0 279-183 411-470 416H329V0H147v-1314h377c290 3 470 124 470 408zm-182 0c0-176-103-265-288-265H329v537h195c180-4 288-94 288-272" id="E"/><path d="M536-823c-141 7-187 99-229 205V0H131v-978c60 8 148-26 154 48l12 144c58-123 149-234 328-202 18 3 34 11 49 21l-14 130c-12 52-78 12-124 14" id="F"/><path d="M523-1269c-167-5-192 134-183 309h263v128H346V0H170v-831c-44-9-102-4-133-26-23-17-9-67-13-103h146c-18-271 76-439 324-444 44 0 83 8 117 19-9 39 11 106-29 113-15 2-34 3-59 3" id="G"/><path d="M323-1422V0H147v-1422h176" id="H"/><g id="d"><use transform="matrix(0.010849609375,0,0,0.010849609375,0,0)" xlink:href="#E"/><use transform="matrix(0.010849609375,0,0,0.010849609375,11.47888671875,0)" xlink:href="#F"/><use transform="matrix(0.010849609375,0,0,0.010849609375,18.867470703125,0)" xlink:href="#u"/><use transform="matrix(0.010849609375,0,0,0.010849609375,30.585048828125,0)" xlink:href="#G"/><use transform="matrix(0.010849609375,0,0,0.010849609375,37.3660546875,0)" xlink:href="#A"/><use transform="matrix(0.010849609375,0,0,0.010849609375,42.465371093749994,0)" xlink:href="#H"/><use transform="matrix(0.010849609375,0,0,0.010849609375,47.56468749999999,0)" xlink:href="#x"/></g><path d="M913-1314v148H328v431h471v143H328v444h586L913 0H145v-1314h768" id="I"/><path d="M545-854c-104 0-170 61-222 126V0H147v-978c54 8 140-23 149 36l15 100c68-77 143-150 284-151 143-1 221 88 255 203 52-123 153-201 320-203 220-2 335 143 335 370V0h-176v-623c1-143-65-231-201-231-139 0-216 89-216 231V0H736v-623c1-145-55-231-191-231" id="J"/><g id="e"><use transform="matrix(0.0130224609375,0,0,0.0130224609375,0,0)" xlink:href="#I"/><use transform="matrix(0.0130224609375,0,0,0.0130224609375,13.0224609375,0)" xlink:href="#H"/><use transform="matrix(0.0130224609375,0,0,0.0130224609375,19.143017578125,0)" xlink:href="#x"/><use transform="matrix(0.0130224609375,0,0,0.0130224609375,32.4129052734375,0)" xlink:href="#J"/><use transform="matrix(0.0130224609375,0,0,0.0130224609375,53.7176513671875,0)" xlink:href="#x"/><use transform="matrix(0.0130224609375,0,0,0.0130224609375,66.9875390625,0)" xlink:href="#v"/><use transform="matrix(0.0130224609375,0,0,0.0130224609375,80.7522802734375,0)" xlink:href="#w"/><path d="M-1.33.08h98.38V2.6H-1.33z"/></g><path d="M306-740c60 2 107 0 133-38l339-494c22-28 41-41 86-42h156L620-750c-21 29-44 49-67 61 31 11 60 31 83 65L1049 0c-85-7-198 21-238-38L463-558c-23-30-38-42-90-42h-67V0H124v-1314h182v574" id="K"/><g id="f"><use transform="matrix(0.0130224609375,0,0,0.0130224609375,0,0)" xlink:href="#K"/><use transform="matrix(0.0130224609375,0,0,0.0130224609375,13.3740673828125,0)" xlink:href="#x"/><use transform="matrix(0.0130224609375,0,0,0.0130224609375,26.4746630859375,0)" xlink:href="#D"/><path d="M-1.33.08h41.2V2.6h-41.2z"/></g><path d="M492-995c127 0 201 45 264 114v-541h176V0c-55-7-141 23-150-36l-18-117C688-64 595 14 440 14 170 14 74-204 74-486c0-228 88-392 242-470 52-26 111-39 176-39zM255-486c2 201 49 359 242 359 130 0 195-67 259-146v-473c-54-73-114-114-224-114-197 0-279 159-277 374" id="L"/><path d="M69-490c0-299 140-503 438-503 143 0 234 53 308 127-20 26-37 58-61 80-40 18-64-17-93-32-37-19-81-40-143-39-201 7-269 160-269 367 0 204 66 360 261 368 96 4 149-38 198-81 21-19 50-20 67 2l51 64C751-46 640 14 479 14 199 14 69-199 69-490" id="M"/><path d="M271-232c74 0 125 50 125 125 0 74-52 123-125 123S149-34 149-107c0-74 48-125 122-125zm-6-678c74 0 125 50 125 125 0 74-52 123-125 123s-122-50-122-123c0-74 48-125 122-125" id="N"/><path d="M454-137c154-4 244-84 244-236 0-172-165-194-295-240-161-57-303-135-295-354 9-227 154-362 390-362 152 0 266 55 344 137l-45 85c-37 63-91-1-127-21-44-25-97-52-170-50-136 3-221 69-221 201 0 166 169 187 295 236 153 60 300 130 295 341-6 260-155 414-419 414-174 0-309-76-395-172 24-34 40-77 71-104 55-23 84 36 125 60 52 30 115 67 203 65" id="O"/><g id="g"><use transform="matrix(0.010849609375,0,0,0.010849609375,0,0)" xlink:href="#L"/><use transform="matrix(0.010849609375,0,0,0.010849609375,11.674179687499999,0)" xlink:href="#M"/><use transform="matrix(0.010849609375,0,0,0.010849609375,21.06994140625,0)" xlink:href="#w"/><use transform="matrix(0.010849609375,0,0,0.010849609375,28.512773437499998,0)" xlink:href="#N"/><use transform="matrix(0.010849609375,0,0,0.010849609375,34.458359375,0)" xlink:href="#O"/><use transform="matrix(0.010849609375,0,0,0.010849609375,44.667841796874995,0)" xlink:href="#w"/><use transform="matrix(0.010849609375,0,0,0.010849609375,51.839433593749995,0)" xlink:href="#B"/><use transform="matrix(0.010849609375,0,0,0.010849609375,62.482900390625005,0)" xlink:href="#v"/><use transform="matrix(0.010849609375,0,0,0.010849609375,74.157080078125,0)" xlink:href="#L"/><use transform="matrix(0.010849609375,0,0,0.010849609375,85.831259765625,0)" xlink:href="#B"/><use transform="matrix(0.010849609375,0,0,0.010849609375,96.47472656250001,0)" xlink:href="#F"/><use transform="matrix(0.010849609375,0,0,0.010849609375,103.91755859375,0)" xlink:href="#L"/></g><path d="M581 14c-127 0-201-47-264-114v430H141V-978c55 7 141-23 150 36l17 114c76-89 171-167 326-167 271 0 368 217 368 499 0 229-91 393-245 471-52 26-111 39-176 39zm240-510c-2-202-50-358-245-358-128 0-197 66-259 146v472c53 73 114 114 225 114 198 0 281-159 279-374" id="P"/><g id="h"><use transform="matrix(0.010849609375,0,0,0.010849609375,0,0)" xlink:href="#P"/><use transform="matrix(0.010849609375,0,0,0.010849609375,11.674179687499999,0)" xlink:href="#F"/><use transform="matrix(0.010849609375,0,0,0.010849609375,19.062763671875,0)" xlink:href="#u"/><use transform="matrix(0.010849609375,0,0,0.010849609375,30.780341796875,0)" xlink:href="#G"/><use transform="matrix(0.010849609375,0,0,0.010849609375,37.56134765625,0)" xlink:href="#N"/><use transform="matrix(0.010849609375,0,0,0.010849609375,43.50693359375,0)" xlink:href="#E"/><use transform="matrix(0.010849609375,0,0,0.010849609375,54.985820312499996,0)" xlink:href="#F"/><use transform="matrix(0.010849609375,0,0,0.010849609375,62.374404296875,0)" xlink:href="#u"/><use transform="matrix(0.010849609375,0,0,0.010849609375,74.091982421875,0)" xlink:href="#G"/><use transform="matrix(0.010849609375,0,0,0.010849609375,80.87298828125,0)" xlink:href="#A"/><use transform="matrix(0.010849609375,0,0,0.010849609375,85.9723046875,0)" xlink:href="#H"/><use transform="matrix(0.010849609375,0,0,0.010849609375,91.07162109375,0)" xlink:href="#x"/></g><g id="i"><use transform="matrix(0.010849609375,0,0,0.010849609375,0,0)" xlink:href="#F"/><use transform="matrix(0.010849609375,0,0,0.010849609375,7.44283203125,0)" xlink:href="#L"/><use transform="matrix(0.010849609375,0,0,0.010849609375,19.11701171875,0)" xlink:href="#G"/><use transform="matrix(0.010849609375,0,0,0.010849609375,25.898017578125,0)" xlink:href="#N"/><use transform="matrix(0.010849609375,0,0,0.010849609375,31.843603515625,0)" xlink:href="#P"/><use transform="matrix(0.010849609375,0,0,0.010849609375,43.517783203125,0)" xlink:href="#F"/><use transform="matrix(0.010849609375,0,0,0.010849609375,50.90636718750001,0)" xlink:href="#u"/><use transform="matrix(0.010849609375,0,0,0.010849609375,62.6239453125,0)" xlink:href="#P"/><use transform="matrix(0.010849609375,0,0,0.010849609375,74.298125,0)" xlink:href="#x"/><use transform="matrix(0.010849609375,0,0,0.010849609375,85.353876953125,0)" xlink:href="#F"/><use transform="matrix(0.010849609375,0,0,0.010849609375,93.10049804687499,0)" xlink:href="#w"/><use transform="matrix(0.010849609375,0,0,0.010849609375,100.543330078125,0)" xlink:href="#D"/></g><path d="M197 0v-115H63V0H30v-248h33v105h134v-105h34V0h-34" id="Q"/><path d="M127-220V0H93v-220H8v-28h204v28h-85" id="R"/><path d="M30-248c87 1 191-15 191 75 0 78-77 80-158 76V0H30v-248zm33 125c57 0 124 11 124-50 0-59-68-47-124-48v98" id="S"/><g id="j"><use transform="matrix(0.05933933615967056,0,0,0.05933933615967056,0,0)" xlink:href="#Q"/><use transform="matrix(0.05933933615967056,0,0,0.05933933615967056,15.368888065354675,0)" xlink:href="#R"/><use transform="matrix(0.05933933615967056,0,0,0.05933933615967056,28.364202684322528,0)" xlink:href="#R"/><use transform="matrix(0.05933933615967056,0,0,0.05933933615967056,41.35951730329038,0)" xlink:href="#S"/></g><path d="M233-177c-1 41-23 64-60 70L243 0h-38l-65-103H63V0H30v-248c88 3 205-21 203 71zM63-129c60-2 137 13 137-47 0-61-80-42-137-45v92" id="T"/><path d="M100-194c63 0 86 42 84 106H49c0 40 14 67 53 68 26 1 43-12 49-29l28 8c-11 28-37 45-77 45C44 4 14-33 15-96c1-61 26-98 85-98zm52 81c6-60-76-77-97-28-3 7-6 17-6 28h103" id="U"/><path d="M141-36C126-15 110 5 73 4 37 3 15-17 15-53c-1-64 63-63 125-63 3-35-9-54-41-54-24 1-41 7-42 31l-33-3c5-37 33-52 76-52 45 0 72 20 72 64v82c-1 20 7 32 28 27v20c-31 9-61-2-59-35zM48-53c0 20 12 33 32 33 41-3 63-29 60-74-43 2-92-5-92 41" id="V"/><path d="M24 0v-261h32V0H24" id="W"/><path d="M24-231v-30h32v30H24zM24 0v-190h32V0H24" id="X"/><path d="M9 0v-24l116-142H16v-24h144v24L44-24h123V0H9" id="Y"/><path d="M59-47c-2 24 18 29 38 22v24C64 9 27 4 27-40v-127H5v-23h24l9-43h21v43h35v23H59v120" id="Z"/><path d="M100-194c62-1 85 37 85 99 1 63-27 99-86 99S16-35 15-95c0-66 28-99 85-99zM99-20c44 1 53-31 53-75 0-43-8-75-51-75s-53 32-53 75 10 74 51 75" id="aa"/><path d="M117-194c89-4 53 116 60 194h-32v-121c0-31-8-49-39-48C34-167 62-67 57 0H25l-1-190h30c1 10-1 24 2 32 11-22 29-35 61-36" id="ab"/><g id="k"><use transform="matrix(0.05933933615967056,0,0,0.05933933615967056,0,0)" xlink:href="#T"/><use transform="matrix(0.05933933615967056,0,0,0.05933933615967056,15.368888065354675,0)" xlink:href="#U"/><use transform="matrix(0.05933933615967056,0,0,0.05933933615967056,27.236755297288788,0)" xlink:href="#V"/><use transform="matrix(0.05933933615967056,0,0,0.05933933615967056,39.1046225292229,0)" xlink:href="#W"/><use transform="matrix(0.05933933615967056,0,0,0.05933933615967056,43.79243008583688,0)" xlink:href="#X"/><use transform="matrix(0.05933933615967056,0,0,0.05933933615967056,48.48023764245085,0)" xlink:href="#Y"/><use transform="matrix(0.05933933615967056,0,0,0.05933933615967056,59.16131815119155,0)" xlink:href="#V"/><use transform="matrix(0.05933933615967056,0,0,0.05933933615967056,71.02918538312566,0)" xlink:href="#Z"/><use transform="matrix(0.05933933615967056,0,0,0.05933933615967056,76.96311899909271,0)" xlink:href="#X"/><use transform="matrix(0.05933933615967056,0,0,0.05933933615967056,81.65092655570669,0)" xlink:href="#aa"/><use transform="matrix(0.05933933615967056,0,0,0.05933933615967056,93.5187937876408,0)" xlink:href="#ab"/></g><path d="M140-251c81 0 123 46 123 126C263-53 228-8 163 1c7 30 30 48 69 40v23c-55 16-95-15-103-61C56-3 17-48 17-125c0-80 42-126 123-126zm0 227c63 0 89-41 89-101s-29-99-89-99c-61 0-89 39-89 99S79-25 140-24" id="ac"/><path d="M185-189c-5-48-123-54-124 2 14 75 158 14 163 119 3 78-121 87-175 55-17-10-28-26-33-46l33-7c5 56 141 63 141-1 0-78-155-14-162-118-5-82 145-84 179-34 5 7 8 16 11 25" id="ad"/><path d="M205 0l-28-72H64L36 0H1l101-248h38L239 0h-34zm-38-99l-47-123c-12 45-31 82-46 123h93" id="ae"/><g id="l"><use transform="matrix(0.05933933615967056,0,0,0.05933933615967056,0,0)" xlink:href="#ac"/><use transform="matrix(0.05933933615967056,0,0,0.05933933615967056,16.615014124707756,0)" xlink:href="#ad"/><use transform="matrix(0.05933933615967056,0,0,0.05933933615967056,30.85645480302869,0)" xlink:href="#ae"/></g><path d="M114-163C36-179 61-72 57 0H25l-1-190h30c1 12-1 29 2 39 6-27 23-49 58-41v29" id="af"/><g id="m"><use transform="matrix(0.05933933615967056,0,0,0.05933933615967056,0,0)" xlink:href="#ae"/><use transform="matrix(0.05933933615967056,0,0,0.05933933615967056,14.241440678320934,0)" xlink:href="#W"/><use transform="matrix(0.05933933615967056,0,0,0.05933933615967056,18.92924823493491,0)" xlink:href="#Z"/><use transform="matrix(0.05933933615967056,0,0,0.05933933615967056,24.863181850901967,0)" xlink:href="#U"/><use transform="matrix(0.05933933615967056,0,0,0.05933933615967056,36.73104908283608,0)" xlink:href="#af"/><use transform="matrix(0.05933933615967056,0,0,0.05933933615967056,43.79243008583688,0)" xlink:href="#ab"/><use transform="matrix(0.05933933615967056,0,0,0.05933933615967056,55.66029731777099,0)" xlink:href="#V"/><use transform="matrix(0.05933933615967056,0,0,0.05933933615967056,67.5281645497051,0)" xlink:href="#Z"/><use transform="matrix(0.05933933615967056,0,0,0.05933933615967056,73.46209816567215,0)" xlink:href="#U"/></g><path d="M194 0L95-120 63-95V0H30v-248h33v124l119-124h40L117-140 236 0h-42" id="ag"/><path d="M179-190L93 31C79 59 56 82 12 73V49c39 6 53-20 64-50L1-190h34L92-34l54-156h33" id="ah"/><path d="M206 0h-36l-40-164L89 0H53L-1-190h32L70-26l43-164h34l41 164 42-164h31" id="ai"/><path d="M85-194c31 0 48 13 60 33l-1-100h32l1 261h-30c-2-10 0-23-3-31C134-8 116 4 85 4 32 4 16-35 15-94c0-66 23-100 70-100zm9 24c-40 0-46 34-46 75 0 40 6 74 45 74 42 0 51-32 51-76 0-42-9-74-50-73" id="aj"/><path d="M135-143c-3-34-86-38-87 0 15 53 115 12 119 90S17 21 10-45l28-5c4 36 97 45 98 0-10-56-113-15-118-90-4-57 82-63 122-42 12 7 21 19 24 35" id="ak"/><g id="n"><use transform="matrix(0.05933933615967056,0,0,0.05933933615967056,0,0)" xlink:href="#ag"/><use transform="matrix(0.05933933615967056,0,0,0.05933933615967056,14.241440678320934,0)" xlink:href="#U"/><use transform="matrix(0.05933933615967056,0,0,0.05933933615967056,26.109307910255048,0)" xlink:href="#ah"/><use transform="matrix(0.05933933615967056,0,0,0.05933933615967056,36.79038841899575,0)" xlink:href="#ai"/><use transform="matrix(0.05933933615967056,0,0,0.05933933615967056,52.15927648435042,0)" xlink:href="#aa"/><use transform="matrix(0.05933933615967056,0,0,0.05933933615967056,64.02714371628453,0)" xlink:href="#af"/><use transform="matrix(0.05933933615967056,0,0,0.05933933615967056,71.08852471928532,0)" xlink:href="#aj"/><use transform="matrix(0.05933933615967056,0,0,0.05933933615967056,82.95639195121943,0)" xlink:href="#ak"/></g><g id="o"><use transform="matrix(0.05933933615967056,0,0,0.05933933615967056,0,0)" xlink:href="#T"/><use transform="matrix(0.05933933615967056,0,0,0.05933933615967056,15.368888065354675,0)" xlink:href="#U"/><use transform="matrix(0.05933933615967056,0,0,0.05933933615967056,27.236755297288788,0)" xlink:href="#V"/><use transform="matrix(0.05933933615967056,0,0,0.05933933615967056,39.1046225292229,0)" xlink:href="#W"/><use transform="matrix(0.05933933615967056,0,0,0.05933933615967056,43.79243008583688,0)" xlink:href="#X"/><use transform="matrix(0.05933933615967056,0,0,0.05933933615967056,48.48023764245085,0)" xlink:href="#Y"/><use transform="matrix(0.05933933615967056,0,0,0.05933933615967056,59.16131815119155,0)" xlink:href="#V"/><use transform="matrix(0.05933933615967056,0,0,0.05933933615967056,71.02918538312566,0)" xlink:href="#Z"/><use transform="matrix(0.05933933615967056,0,0,0.05933933615967056,76.96311899909271,0)" xlink:href="#X"/><use transform="matrix(0.05933933615967056,0,0,0.05933933615967056,81.65092655570669,0)" xlink:href="#aa"/><use transform="matrix(0.05933933615967056,0,0,0.05933933615967056,93.5187937876408,0)" xlink:href="#ab"/></g><path d="M84 4C-5 8 30-112 23-190h32v120c0 31 7 50 39 49 72-2 45-101 50-169h31l1 190h-30c-1-10 1-25-2-33-11 22-28 36-60 37" id="al"/><path d="M96-169c-40 0-48 33-48 73s9 75 48 75c24 0 41-14 43-38l32 2c-6 37-31 61-74 61-59 0-76-41-82-99-10-93 101-131 147-64 4 7 5 14 7 22l-32 3c-4-21-16-35-41-35" id="am"/><g id="p"><use transform="matrix(0.05933933615967056,0,0,0.05933933615967056,0,0)" xlink:href="#T"/><use transform="matrix(0.05933933615967056,0,0,0.05933933615967056,15.368888065354675,0)" xlink:href="#U"/><use transform="matrix(0.05933933615967056,0,0,0.05933933615967056,27.236755297288788,0)" xlink:href="#ak"/><use transform="matrix(0.05933933615967056,0,0,0.05933933615967056,37.91783580602949,0)" xlink:href="#aa"/><use transform="matrix(0.05933933615967056,0,0,0.05933933615967056,49.7857030379636,0)" xlink:href="#al"/><use transform="matrix(0.05933933615967056,0,0,0.05933933615967056,61.65357026989771,0)" xlink:href="#af"/><use transform="matrix(0.05933933615967056,0,0,0.05933933615967056,68.7149512728985,0)" xlink:href="#am"/><use transform="matrix(0.05933933615967056,0,0,0.05933933615967056,79.39603178163921,0)" xlink:href="#U"/></g><path d="M115-194c55 1 70 41 70 98S169 2 115 4C84 4 66-9 55-30l1 105H24l-1-265h31l2 30c10-21 28-34 59-34zm-8 174c40 0 45-34 45-75s-6-73-45-74c-42 0-51 32-51 76 0 43 10 73 51 73" id="an"/><g id="q"><use transform="matrix(0.05933933615967056,0,0,0.05933933615967056,0,0)" xlink:href="#T"/><use transform="matrix(0.05933933615967056,0,0,0.05933933615967056,15.368888065354675,0)" xlink:href="#U"/><use transform="matrix(0.05933933615967056,0,0,0.05933933615967056,27.236755297288788,0)" xlink:href="#an"/><use transform="matrix(0.05933933615967056,0,0,0.05933933615967056,39.1046225292229,0)" xlink:href="#af"/><use transform="matrix(0.05933933615967056,0,0,0.05933933615967056,46.1660035322237,0)" xlink:href="#U"/><use transform="matrix(0.05933933615967056,0,0,0.05933933615967056,58.03387076415781,0)" xlink:href="#ak"/><use transform="matrix(0.05933933615967056,0,0,0.05933933615967056,68.71495127289852,0)" xlink:href="#U"/><use transform="matrix(0.05933933615967056,0,0,0.05933933615967056,80.58281850483263,0)" xlink:href="#ab"/><use transform="matrix(0.05933933615967056,0,0,0.05933933615967056,92.45068573676674,0)" xlink:href="#Z"/><use transform="matrix(0.05933933615967056,0,0,0.05933933615967056,98.3846193527338,0)" xlink:href="#V"/><use transform="matrix(0.05933933615967056,0,0,0.05933933615967056,110.2524865846679,0)" xlink:href="#Z"/><use transform="matrix(0.05933933615967056,0,0,0.05933933615967056,116.18642020063496,0)" xlink:href="#X"/><use transform="matrix(0.05933933615967056,0,0,0.05933933615967056,120.87422775724893,0)" xlink:href="#aa"/><use transform="matrix(0.05933933615967056,0,0,0.05933933615967056,132.74209498918304,0)" xlink:href="#ab"/></g><path d="M30-248c118-7 216 8 213 122C240-48 200 0 122 0H30v-248zM63-27c89 8 146-16 146-99s-60-101-146-95v194" id="ao"/><g id="r"><use transform="matrix(0.05933933615967056,0,0,0.05933933615967056,0,0)" xlink:href="#ao"/><use transform="matrix(0.05933933615967056,0,0,0.05933933615967056,15.368888065354675,0)" xlink:href="#U"/><use transform="matrix(0.05933933615967056,0,0,0.05933933615967056,27.236755297288788,0)" xlink:href="#ak"/><use transform="matrix(0.05933933615967056,0,0,0.05933933615967056,37.91783580602949,0)" xlink:href="#am"/><use transform="matrix(0.05933933615967056,0,0,0.05933933615967056,48.598916314770186,0)" xlink:href="#af"/><use transform="matrix(0.05933933615967056,0,0,0.05933933615967056,55.66029731777098,0)" xlink:href="#X"/><use transform="matrix(0.05933933615967056,0,0,0.05933933615967056,60.34810487438496,0)" xlink:href="#an"/><use transform="matrix(0.05933933615967056,0,0,0.05933933615967056,72.21597210631907,0)" xlink:href="#Z"/><use transform="matrix(0.05933933615967056,0,0,0.05933933615967056,78.14990572228612,0)" xlink:href="#X"/><use transform="matrix(0.05933933615967056,0,0,0.05933933615967056,82.8377132789001,0)" xlink:href="#aa"/><use transform="matrix(0.05933933615967056,0,0,0.05933933615967056,94.70558051083421,0)" xlink:href="#ab"/></g><path d="M101-234c-31-9-42 10-38 44h38v23H63V0H32v-167H5v-23h27c-7-52 17-82 69-68v24" id="ap"/><path d="M33-154v-36h34v36H33zM33 0v-36h34V0H33" id="aq"/><path d="M140-251c81 0 123 46 123 126C263-46 219 4 140 4 59 4 17-45 17-125s42-126 123-126zm0 227c63 0 89-41 89-101s-29-99-89-99c-61 0-89 39-89 99S79-25 140-24" id="ar"/><g id="s"><use transform="matrix(0.05,0,0,0.05,0,0)" xlink:href="#an"/><use transform="matrix(0.05,0,0,0.05,10,0)" xlink:href="#af"/><use transform="matrix(0.05,0,0,0.05,15.949999999999998,0)" xlink:href="#aa"/><use transform="matrix(0.05,0,0,0.05,25.950000000000003,0)" xlink:href="#ap"/><use transform="matrix(0.05,0,0,0.05,30.950000000000003,0)" xlink:href="#aq"/><use transform="matrix(0.05,0,0,0.05,35.95,0)" xlink:href="#X"/><use transform="matrix(0.05,0,0,0.05,39.900000000000006,0)" xlink:href="#ak"/><use transform="matrix(0.05,0,0,0.05,48.900000000000006,0)" xlink:href="#S"/><use transform="matrix(0.05,0,0,0.05,60.900000000000006,0)" xlink:href="#af"/><use transform="matrix(0.05,0,0,0.05,66.85000000000001,0)" xlink:href="#aa"/><use transform="matrix(0.05,0,0,0.05,76.85000000000001,0)" xlink:href="#ap"/><use transform="matrix(0.05,0,0,0.05,81.85000000000001,0)" xlink:href="#X"/><use transform="matrix(0.05,0,0,0.05,85.80000000000001,0)" xlink:href="#W"/><use transform="matrix(0.05,0,0,0.05,89.75000000000001,0)" xlink:href="#U"/><use transform="matrix(0.05,0,0,0.05,99.75000000000001,0)" xlink:href="#ar"/><use transform="matrix(0.05,0,0,0.05,113.75,0)" xlink:href="#ap"/></g></defs></g></svg>