<svg xmlns="http://www.w3.org/2000/svg" xmlns:xlink="http://www.w3.org/1999/xlink" xmlns:lucid="lucid" width="1509" height="867"><g transform="translate(0 0)" lucid:page-tab-id="hXmD5xBRFkJ54"><path d="M0 0h1509v867H0z" fill="#fff"/><path d="M913.7 215H760c-10.57 0-19.2 8.62-19.2 19.25v79.6c0 10.64 8.63 19.26 19.2 19.26h153.7c10.57 0 19.2-8.6 19.2-19.24v-79.6c0-10.64-8.63-19.26-19.2-19.26z" stroke="#000" stroke-width="5" fill="url(#a)"/><use xlink:href="#b" transform="matrix(1,0,0,1,749.6257959993277,223.8582500015702) translate(19.104938271604937 38.94444444444444)"/><use xlink:href="#c" transform="matrix(1,0,0,1,749.6257959993277,223.8582500015702) translate(56.69753086419753 70.94444444444444)"/><path d="M913.7 20H760c-10.57 0-19.2 8.62-19.2 19.25v79.6c0 10.64 8.63 19.26 19.2 19.26h153.7c10.57 0 19.2-8.6 19.2-19.24v-79.6c0-10.64-8.63-19.26-19.2-19.26z" stroke="#000" stroke-width="1.11" fill="url(#d)"/><use xlink:href="#e" transform="matrix(1,0,0,1,749.6257959993284,28.85825000157079) translate(9.853444444444449 38.9456)"/><use xlink:href="#f" transform="matrix(1,0,0,1,749.6257959993284,28.85825000157079) translate(72.62494444444445 38.9456)"/><use xlink:href="#g" transform="matrix(1,0,0,1,749.6257959993284,28.85825000157079) translate(57.34869444444445 70.94239999999999)"/><path d="M1221.22 20h-153.7c-10.57 0-19.2 8.62-19.2 19.25v79.6c0 10.64 8.63 19.26 19.2 19.26h153.7c10.57 0 19.2-8.6 19.2-19.24v-79.6c0-10.64-8.63-19.26-19.2-19.26z" stroke="#000" stroke-width="1.11" fill="#fff"/><use xlink:href="#h" transform="matrix(1,0,0,1,1057.1457959996694,28.858250001570866) translate(24.574194444444437 54.944)"/><path d="M934.02 79.06h112.72" fill="none"/><path d="M934.02 79.06h6.3m6.28 0h12.57m6.3 0h12.57m6.28 0H996.85m6.23 0h12.48m6.24 0h12.47m6.24 0h6.24" stroke="#000" stroke-width="1.11" fill="none"/><path d="M934.04 79.6h-.57v-1.1h.57zM1047.75 79.06l-18.02 10.65-.57-.94 16.4-9.7-16.4-9.7.57-.96zM837.35 214.5h-1v-27.28h1zm0-48.6h-1V139h1z"/><path/><path d="M847.46 156.05l-.86.5-9.75-16.48-9.75 16.5-.86-.52 10.28-17.4h.66z"/><use xlink:href="#i" transform="matrix(1,0,0,1,793.9868024687808,165.88783335424154) translate(0.005000000000002558 14.222222222222223)"/><use xlink:href="#j" transform="matrix(1,0,0,1,793.9868024687808,165.88783335424154) translate(17.733395061728398 14.222222222222223)"/><use xlink:href="#k" transform="matrix(1,0,0,1,793.9868024687808,165.88783335424154) translate(70.91858024691359 14.222222222222223)"/><path d="M1058.7 404.67l-.33 1.06-78.07-24.5h3.7zM916.05 359.9h-3.7l-75.14-23.6.35-1.05z"/><path d="M837.23 336.3l-2.23-.7h2.45zM1059.5 405.5l-20.4 4.78-.24-1.08 18.56-4.35-12.75-14.17.83-.74z"/><use xlink:href="#l" transform="matrix(1,0,0,1,896.8669147073929,359.89133334164745) translate(0.005000000000002558 14.222222222222223)"/><use xlink:href="#m" transform="matrix(1,0,0,1,896.8669147073929,359.89133334164745) translate(33.58524691358026 14.222222222222223)"/><path d="M823.7 524.36H670c-10.57 0-19.2 8.62-19.2 19.25v79.62c0 10.63 8.63 19.25 19.2 19.25h153.7c10.57 0 19.2-8.62 19.2-19.25v-79.6c0-10.64-8.63-19.26-19.2-19.26z" stroke="#000" fill="url(#n)"/><use xlink:href="#o" transform="matrix(1,0,0,1,659.6257959993277,533.2192499806575) translate(31.42536111111111 54.944)"/><path d="M1029.1 525.15H875.4c-10.57 0-19.22 8.62-19.22 19.25V624c0 10.64 8.65 19.26 19.2 19.26h153.72c10.56 0 19.2-8.62 19.2-19.25v-79.6c0-10.63-8.64-19.25-19.2-19.25z" stroke="#000" fill="url(#p)"/><use xlink:href="#q" transform="matrix(1,0,0,1,865.0197959989748,534.0082499930152) translate(45.62147222222222 54.944)"/><use xlink:href="#r" transform="matrix(1,0,0,1,865.0197959989748,534.0082499930152) translate(83.76580555555556 54.944)"/><path d="M1232.9 525.15h-153.7c-10.55 0-19.2 8.62-19.2 19.25V624c0 10.64 8.65 19.26 19.2 19.26h153.7c10.58 0 19.23-8.62 19.23-19.25v-79.6c0-10.63-8.65-19.25-19.22-19.25z" stroke="#000" fill="url(#s)"/><use xlink:href="#t" transform="matrix(1,0,0,1,1068.837796000032,534.0082499930163) translate(26.42586111111111 54.944)"/><use xlink:href="#u" transform="matrix(1,0,0,1,1068.837796000032,534.0082499930163) translate(78.08736111111111 54.944)"/><path d="M746.24 522.88l-.54.97-32-17.85h2.27zm-68.5-38.22h-2.3l-84.95-47.4.53-.96z"/><path d="M590.5 437.27l-1.36-.76h1.8zM746.85 523.86H725.9v-.58l19.05-.48-9.6-16.47.95-.56z"/><use xlink:href="#l" transform="matrix(1,0,0,1,664.1518763824688,484.66275228723276) translate(0.004999999999999005 14.222222222222223)"/><use xlink:href="#v" transform="matrix(1,0,0,1,664.1518763824688,484.66275228723276) translate(33.58524691358025 14.222222222222223)"/><path d="M542 522.85h-1.1v-19.73h1.1zm0-41.06h-1.1v-44.73h1.1z"/><path d="M542 437.08h-1.1v-.57h1.1zM552.12 505.84l-10.66 18.02-10.66-18.02.95-.57 9.7 16.4 9.7-16.4z"/><use xlink:href="#w" transform="matrix(1,0,0,1,502.00020987641597,481.7867862244309) translate(0.005000000000002558 14.222222222222223)"/><path d="M796.43 524.03l-.4-1.04L923 476.1h3.2zM1059.2 427l-75.23 27.78h-3.2l78.04-28.82z"/><path d="M1059.5 426.1l.1.75-.42.16-.38-1.03.7-.26zM809.36 508.32l-12.03 14.8 18.76 3.4-.2 1.1-20.6-3.76 13.2-16.24z"/><use xlink:href="#l" transform="matrix(1,0,0,1,921.9206978148285,454.7820887663416) translate(0.004999999999999005 14.222222222222223)"/><use xlink:href="#v" transform="matrix(1,0,0,1,921.9206978148285,454.7820887663416) translate(33.58524691358025 14.222222222222223)"/><path d="M1156.62 523.64h-1.1v-17.4h1.1zm0-38.74h-1.1v-47.83h1.1z"/><path d="M1156.62 437.08h-1.1v-.57h1.1zM1166.72 506.63l-10.66 18.02-10.66-18.02.67-.4h.4l9.6 16.24 9.6-16.24h.38z"/><use xlink:href="#w" transform="matrix(1,0,0,1,1116.6062098770112,484.8977933276024) translate(0.005000000000002558 14.222222222222223)"/><path d="M953.4 524.63l-.55-.96 32.2-18.32h2.26zm153.64-87.36l-82.2 46.75h-2.26l83.9-47.72z"/><path d="M1107.02 437.28l-.43-.77h1.77zM963.6 507.03l-9.46 16.54 19.06.33v.75h-20.96l10.4-18.17z"/><use xlink:href="#x" transform="matrix(1,0,0,1,944.7719066091247,484.016413327688) translate(0.005000000000002558 14.222222222222223)"/><path d="M1221.22 215h-153.7c-10.57 0-19.2 8.62-19.2 19.25v79.6c0 10.64 8.63 19.26 19.2 19.26h153.7c10.57 0 19.2-8.6 19.2-19.24v-79.6c0-10.64-8.63-19.26-19.2-19.26z" stroke="#000" stroke-width="1.11" fill="#a5a5a5"/><use xlink:href="#y" transform="matrix(1,0,0,1,1057.1457959996706,223.85825000156996) translate(56.114250000000006 54.944)"/><path d="M933.47 274.05h113.27" fill="none"/><path d="M933.47 274.05h5.4m5.4 0h10.78m5.4 0h10.78m5.4 0h10.78m5.4 0h10.8m5.4 0h10.77m5.4 0h10.8m5.38 0h5.4" stroke="#000" stroke-width="1.11" fill="none"/><path/><path d="M1047.75 274.05l-18.02 10.66-.56-.94 16.4-9.7-16.4-9.7.56-.96z"/><path d="M618.3 524.36H464.6c-10.56 0-19.2 8.62-19.2 19.25v79.62c0 10.63 8.64 19.25 19.2 19.25h153.7c10.57 0 19.22-8.62 19.22-19.25v-79.6c0-10.64-8.65-19.26-19.2-19.26z" stroke="#000" fill="url(#z)"/><use xlink:href="#A" transform="matrix(1,0,0,1,454.23179599968034,533.2192499806567) translate(39.449250000000006 54.944)"/><use xlink:href="#B" transform="matrix(1,0,0,1,454.23179599968034,533.2192499806567) translate(94.87580555555556 54.944)"/><path d="M412.9 525.15H259.2c-10.55 0-19.2 8.62-19.2 19.25V624c0 10.64 8.65 19.26 19.2 19.26h153.7c10.58 0 19.23-8.62 19.23-19.25v-79.6c0-10.63-8.65-19.25-19.22-19.25z" stroke="#000" fill="url(#C)"/><use xlink:href="#D" transform="matrix(1,0,0,1,248.8377960000323,534.0082499930038) translate(30.185185185185176 38.94444444444444)"/><use xlink:href="#E" transform="matrix(1,0,0,1,248.8377960000323,534.0082499930038) translate(12.839506172839506 70.94444444444444)"/><path d="M366.56 525.03l-.64-.9 30.92-21.55h1.94zm125.94-87.75l-63.1 43.97h-1.94l64.4-44.88z"/><path d="M492.5 437.3l-.56-.8h1.67zM375.12 506.56l-7.92 17.34 19-1.4.1 1.1-14.18 1.05h-6.48l8.47-18.55z"/><use xlink:href="#l" transform="matrix(1,0,0,1,369.7132920711306,481.24575230365417) translate(0.005000000000002558 14.222222222222223)"/><use xlink:href="#F" transform="matrix(1,0,0,1,369.7132920711306,481.24575230365417) translate(33.58524691358026 14.222222222222223)"/><path d="M1437.52 525.15h-153.7c-10.57 0-19.2 8.62-19.2 19.25V624c0 10.64 8.63 19.26 19.2 19.26h153.7c10.57 0 19.2-8.62 19.2-19.25v-79.6c0-10.63-8.63-19.25-19.2-19.25z" stroke="#000" fill="url(#G)"/><use xlink:href="#H" transform="matrix(1,0,0,1,1273.443795999685,534.0082499930166) translate(15.639611111111108 55.388000000000005)"/><path d="M1360.07 524.17l-.55.96-35.9-20.43h2.23zm-71.7-40.8h-2.26l-81-46.1.54-.97z"/><path d="M1205.1 437.28l-1.34-.77h1.78zM1360.38 524.65h-20.66v-.26l19.05-.33-9.46-16.55.98-.55z"/><use xlink:href="#l" transform="matrix(1,0,0,1,1262.5747308291154,483.36824561188865) translate(0.005000000000002558 14.222222222222223)"/><use xlink:href="#F" transform="matrix(1,0,0,1,1262.5747308291154,483.36824561188865) translate(33.58524691358026 14.222222222222223)"/><path d="M182.05 53.67H28.35c-10.57 0-19.22 8.62-19.22 19.25v79.6c0 10.63 8.65 19.26 19.22 19.26h153.7c10.56 0 19.2-8.63 19.2-19.26v-79.6c0-10.63-8.64-19.25-19.2-19.25z" stroke="#000" stroke-width="1.11" fill="#fff"/><use xlink:href="#I" transform="matrix(1,0,0,1,17.971795999681888,62.52424998066394) translate(40.09733333333333 54.944)"/><path d="M2088.46-93.02h36912.4v1975.27H2088.46z" stroke="#000" stroke-opacity="0" stroke-width="1.67" fill-opacity="0"/><use xlink:href="#J" transform="matrix(1,0,0,1,19.651796000000008,6.841799999999999) translate(12.009083333333336 18.834)"/><use xlink:href="#K" transform="matrix(1,0,0,1,19.651796000000008,6.841799999999999) translate(117.05925 18.834)"/><path d="M30 649.38v-71.02M30 649.37v.57" stroke="#000" stroke-width="1.11" fill="none"/><path d="M30 563.54l4.64 14.27h-9.28z" stroke="#000" stroke-width="1.11" fill="#fff"/><path d="M30 756.47v-86.63" fill="none"/><path d="M30 756.47v-5.78m0-5.78v-11.55m0-5.78v-11.56m0-5.77v-11.55m0-5.78V681.4m0-5.78v-5.78M30 756.45v.57M40.18 687.14L30 669.92l-10.18 17.22" stroke="#000" stroke-width="1.11" fill="none"/><path d="M7978.43 23203.8h27865.3v1975.26H7978.42z" stroke="#000" stroke-opacity="0" stroke-width="1.67" fill-opacity="0"/><use xlink:href="#L" transform="matrix(1,0,0,1,48.29623700000001,592.5087999914194) translate(0 17.944)"/><path d="M8507.4 28070.2h27865.3v1975.28H8507.4z" stroke="#000" stroke-opacity="0" stroke-width="1.67" fill-opacity="0"/><use xlink:href="#M" transform="matrix(1,0,0,1,51.446237,699.5947999914196) translate(0 17.944)"/><path d="M182.05 194.96H28.35c-10.57 0-19.22 8.62-19.22 19.25v79.62c0 10.63 8.65 19.25 19.22 19.25h153.7c10.56 0 19.2-8.62 19.2-19.25v-79.6c0-10.64-8.64-19.26-19.2-19.26z" stroke="#000" stroke-width="1.11" fill="#a5a5a5"/><use xlink:href="#N" transform="matrix(1,0,0,1,17.971795999682108,203.81924998066367) translate(25.901222222222223 54.944)"/><use xlink:href="#O" transform="matrix(1,0,0,1,17.971795999682108,203.81924998066367) translate(93.67222222222222 54.944)"/><path d="M30 857.26v-86.63M30 857.24v.57M40.18 787.93L30 770.7l-10.18 17.23" stroke="#000" stroke-width="1.11" fill="none"/><path d="M8507.4 32650.42h27865.3v1975.27H8507.4z" stroke="#000" stroke-opacity="0" stroke-width="1.67" fill-opacity="0"/><use xlink:href="#P" transform="matrix(1,0,0,1,51.446237,800.3827999914196) translate(0 17.944)"/><path d="M182.05 336.26H28.35c-10.57 0-19.22 8.62-19.22 19.25v79.6c0 10.64 8.65 19.27 19.22 19.27h153.7c10.56 0 19.2-8.63 19.2-19.26v-79.6c0-10.62-8.64-19.24-19.2-19.24z" stroke="#000" stroke-width="1.11" fill="url(#Q)"/><use xlink:href="#R" transform="matrix(1,0,0,1,17.971795999681866,345.11424998066366) translate(67.81061111111111 38.9456)"/><use xlink:href="#S" transform="matrix(1,0,0,1,17.971795999681866,345.11424998066366) translate(4.9465277777777885 70.94239999999999)"/><path d="M183.73 477.55H30.03c-10.57 0-19.22 4.45-19.22 9.95v41.12c0 5.5 8.66 9.94 19.23 9.94h153.7c10.56 0 19.2-4.45 19.2-9.94V487.5c0-5.5-8.64-9.95-19.2-9.95z" stroke="#000" fill="#fff"/><use xlink:href="#T" transform="matrix(1,0,0,1,28.105340000000076,486.45875198394896) translate(21.66005555555556 26.444)"/><use xlink:href="#U" transform="matrix(1,0,0,1,28.105340000000076,486.45875198394896) translate(83.32055555555556 26.444)"/><path d="M618.3 375H464.6c-10.56 0-19.2 4.45-19.2 9.94v41.13c0 5.5 8.64 9.94 19.2 9.94h153.7c10.57 0 19.22-4.44 19.22-9.93v-41.13c0-5.5-8.65-9.94-19.2-9.94z" stroke="#000" fill="#fff"/><use xlink:href="#V" transform="matrix(1,0,0,1,462.685339999648,383.90775200485547) translate(31.53561111111111 10.445599999999999)"/><use xlink:href="#W" transform="matrix(1,0,0,1,462.685339999648,383.90775200485547) translate(28.51122222222223 42.4424)"/><path d="M1232.9 375h-153.7c-10.55 0-19.2 4.45-19.2 9.94v41.13c0 5.5 8.65 9.94 19.2 9.94h153.7c10.58 0 19.23-4.44 19.23-9.93v-41.13c0-5.5-8.65-9.94-19.22-9.94z" stroke="#000" fill="#fff"/><g><use xlink:href="#V" transform="matrix(1,0,0,1,1077.29134,383.90775200485547) translate(31.53561111111111 10.445599999999999)"/><use xlink:href="#W" transform="matrix(1,0,0,1,1077.29134,383.90775200485547) translate(28.51122222222223 42.4424)"/></g><path d="M639.16 405.7l-.37-1.05 66.62-23.43h3.35zM836.5 336.3l-67.05 23.57h-3.34l70.04-24.63z"/><path d="M836.5 336.32l-.25-.7h2.27zM652.34 390.2l-12.26 14.58 18.7 3.72-.22 1.08-20.54-4.07 13.47-16.03z"/><g><use xlink:href="#l" transform="matrix(1,0,0,1,686.1268013414591,359.89133334164745) translate(0.005000000000002558 14.222222222222223)"/><use xlink:href="#m" transform="matrix(1,0,0,1,686.1268013414591,359.89133334164745) translate(33.58524691358026 14.222222222222223)"/></g><path d="M952.75 683.1l.04.1.1.06h4.9v1h-5.1l-.67-.28-.28-.68v-4.43h1zm20.02 1.16h-9.98v-1h9.97zm14.98 0h-10v-1h10zm14.97 0h-9.98v-1h9.98zm14.98 0h-9.98v-1h9.98zm14.98 0h-10v-1h10zm14.97 0h-9.98v-1h9.98zm14.98 0h-10v-1h10zm14.97 0h-9.98v-1h9.98zm14.98 0h-9.98v-1h9.98zm14.98 0h-10v-1h10zm14.97 0h-9.98v-1h9.98zm14.98 0h-9.98v-1h10zm14.98 0h-9.98v-1h9.98zm14.98 0h-9.98v-1h9.98zm14.98 0h-10v-1h10zm14.97 0h-9.97v-1h9.98zm15 0h-10v-1h10zm14.96 0h-9.98v-1h9.98zm14.98 0h-9.98v-1h9.98zm14.98 0h-10v-1h10zm14.97 0h-10v-1h10zm14.97 0h-10v-1h10zm14.97 0h-9.98v-1h9.98zm14.98 0h-9.98v-1h9.98zm14.98 0h-10v-1h10zm14.97 0h-9.98v-1h9.97zm14.98 0h-10v-1h10zm14.97 0h-9.98v-1h9.98zm14.98 0h-9.98v-1h9.98zm14.98 0h-10v-1h10zm14.97 0h-9.98v-1h9.98zm14.98 0h-10v-1h10zm14.97 0h-9.98v-1h9.98zm14.98 0H1457v-1h9.98zm14.98 0h-10v-1h10zm11.04-.96l-.28.68-.68.28h-5.1v-1h4.9l.1-.05.06-.1v-4.93h1zm-540.25-8.75h-1v-8.66h1zm540.25-1.4h-1v-10.07h1zm-540.25-11.58h-1v-8.66h1zm540.25-3.52h-1V648h1zm-540.25-9.46h-1v-4.34h1zm540.25-5.64h-1V632.9h1zm0-15.1h-1v-10.05h1zm0-15.08h-1v-10.06h1zm0-15.1h-1v-10.05h1zm0-15.08h-1v-10.06h1zm0-15.1h-1v-10.05h1zm0-15.08h-1v-10.06h1zm0-15.1h-1v-10.05h1zm0-15.08h-1v-10.06h1zm0-15.1h-1V497.1h1zm0-15.08h-1V482h1zm0-15.08h-1v-10.06h1zm0-15.1h-1v-10.05h1zm0-15.08h-1v-10.06h1zm0-15.1h-1v-10.05h1zm0-15.08h-1v-10.06h1zm0-15.1h-1v-10.05h1zm0-15.08h-1v-10.06h1zm0-15.1h-1V361.3h1zm0-15.08h-1V346.2h1zm0-15.1h-1v-10.05h1zm0-15.08h-1v-10.06h1zm0-15.1h-1v-10.05h1zm0-15.08h-1v-10.06h1zm0-15.1h-1v-10.05h1zm0-15.08h-1v-10.06h1zm0-15.1h-1v-10.05h1zm0-15.08h-1v-10.06h1zm0-15.1h-1V210.4h1zm0-15.08h-1V195.3h1zm0-15.1h-1v-10.05h1zm0-15.08h-1v-10.06h1zm0-15.1h-1v-10.05h1zm0-15.08h-1v-10.06h1zm0-15.1h-1v-10.05h1zm0-15.08h-1v-10.06h1zm0-15.1h-1V89.68h1zm-.28-20.88l.28.68v5.12h-1V79.7l-.05-.1-.1-.04h-4.8v-1h5zm-10.6.72h-9.8v-1h9.8zm-14.7 0h-9.8v-1h9.8zm-14.7 0h-9.8v-1h9.8zm-14.7 0h-9.82v-1h9.8zm-14.72 0h-9.8v-1h9.8zm-14.7 0h-9.8v-1h9.8zm-14.72 0h-9.8v-1h9.8zm-14.7 0h-9.8v-1h9.8zm-14.7 0h-9.82v-1h9.8zm-14.72 0h-9.8v-1h9.8zm-14.7 0h-9.8v-1h9.8zm-14.72 0h-9.8v-1h9.8zm-14.7 0h-9.8v-1h9.8zm-14.7 0h-9.82v-1h9.8zm-14.72 0h-9.8v-1h9.8zm-14.7 0h-9.82v-1h9.8zm-14.72 0h-4.9v-1h4.9z"/><path d="M952.75 644.27h-1v-.5h1zM1259.44 69.3l-16.5 9.76 16.5 9.75-.5.87-17.95-10.6 17.93-10.63z"/><path d="M823.7 705H670c-10.57 0-19.2 8.62-19.2 19.25v79.6c0 10.64 8.63 19.26 19.2 19.26h153.7c10.57 0 19.2-8.6 19.2-19.24v-79.6c0-10.64-8.63-19.26-19.2-19.26z" stroke="#000" stroke-width="1.11" fill="#a5a5a5"/><g><use xlink:href="#X" transform="matrix(1,0,0,1,659.6257959993305,713.8582500015702) translate(14.174000000000007 54.944)"/><use xlink:href="#Y" transform="matrix(1,0,0,1,659.6257959993305,713.8582500015702) translate(115.275 54.944)"/></g><path d="M746.85 643.53v59.9" fill="none"/><path d="M746.85 643.53v5m0 4.98v10m0 5v9.97m0 5v9.98m0 5v5" stroke="#000" stroke-width="1.11" fill="none"/><path d="M747.4 643.54h-1.1v-.57h1.1zM757.5 686.42l-10.65 18.02-10.66-18.02.95-.56 9.7 16.4 9.7-16.4zM841.2 502.8l1.2-1.83 2.34-1.28 2.68-.04.58.17 2.26 1.48 1.3 2.36v2.67l51.47 17.47-.36 1.05-52.46-17.8.26-.87-.02-2.23-1.02-1.87-1.9-1.23-.25-.08-2.24.02-1.86 1-1.52 2.33-91.7-31.14h3.44zm-150.64-51.14h-3.45l-53.45-18.15.35-1.04z"/><path d="M634.02 432.46l-.36 1.05-.93-.3 1.1-.8zM903.8 524.65l-20.5 4.3-.2-1.1 18.64-3.9-12.4-14.46.83-.74z"/><g><use xlink:href="#x" transform="matrix(1,0,0,1,660.0737299338331,451.6578053795297) translate(0.005000000000002558 14.222222222222223)"/></g><defs><linearGradient gradientUnits="userSpaceOnUse" id="a" x1="740.79" y1="215" x2="740.79" y2="333.11"><stop offset="0%" stop-color="#fff"/><stop offset="20%" stop-color="#fff"/><stop offset="100%" stop-color="#dbdbdb"/></linearGradient><path d="M212-179c-10-28-35-45-73-45-59 0-87 40-87 99 0 60 29 101 89 101 43 0 62-24 78-52l27 14C228-24 195 4 139 4 59 4 22-46 18-125c-6-104 99-153 187-111 19 9 31 26 39 46" id="Z"/><path d="M185-189c-5-48-123-54-124 2 14 75 158 14 163 119 3 78-121 87-175 55-17-10-28-26-33-46l33-7c5 56 141 63 141-1 0-78-155-14-162-118-5-82 145-84 179-34 5 7 8 16 11 25" id="aa"/><path d="M33 0v-248h34V0H33" id="ab"/><path d="M233-177c-1 41-23 64-60 70L243 0h-38l-65-103H63V0H30v-248c88 3 205-21 203 71zM63-129c60-2 137 13 137-47 0-61-80-42-137-45v92" id="ac"/><path d="M140-251c81 0 123 46 123 126C263-46 219 4 140 4 59 4 17-45 17-125s42-126 123-126zm0 227c63 0 89-41 89-101s-29-99-89-99c-61 0-89 39-89 99S79-25 140-24" id="ad"/><path d="M16-82v-28h88v28H16" id="ae"/><path d="M100-194c63 0 86 42 84 106H49c0 40 14 67 53 68 26 1 43-12 49-29l28 8c-11 28-37 45-77 45C44 4 14-33 15-96c1-61 26-98 85-98zm52 81c6-60-76-77-97-28-3 7-6 17-6 28h103" id="af"/><path d="M30-248c87 1 191-15 191 75 0 78-77 80-158 76V0H30v-248zm33 125c57 0 124 11 124-50 0-59-68-47-124-48v98" id="ag"/><path d="M84 4C-5 8 30-112 23-190h32v120c0 31 7 50 39 49 72-2 45-101 50-169h31l1 190h-30c-1-10 1-25-2-33-11 22-28 36-60 37" id="ah"/><path d="M115-194c53 0 69 39 70 98 0 66-23 100-70 100C84 3 66-7 56-30L54 0H23l1-261h32v101c10-23 28-34 59-34zm-8 174c40 0 45-34 45-75 0-40-5-75-45-74-42 0-51 32-51 76 0 43 10 73 51 73" id="ai"/><g id="b"><use transform="matrix(0.06172839506172839,0,0,0.06172839506172839,0,0)" xlink:href="#Z"/><use transform="matrix(0.06172839506172839,0,0,0.06172839506172839,15.987654320987653,0)" xlink:href="#aa"/><use transform="matrix(0.06172839506172839,0,0,0.06172839506172839,30.80246913580247,0)" xlink:href="#ab"/><use transform="matrix(0.06172839506172839,0,0,0.06172839506172839,36.97530864197531,0)" xlink:href="#ac"/><use transform="matrix(0.06172839506172839,0,0,0.06172839506172839,52.96296296296296,0)" xlink:href="#ad"/><use transform="matrix(0.06172839506172839,0,0,0.06172839506172839,70.24691358024691,0)" xlink:href="#ae"/><use transform="matrix(0.06172839506172839,0,0,0.06172839506172839,77.5925925925926,0)" xlink:href="#af"/><use transform="matrix(0.06172839506172839,0,0,0.06172839506172839,89.93827160493828,0)" xlink:href="#ag"/><use transform="matrix(0.06172839506172839,0,0,0.06172839506172839,104.75308641975309,0)" xlink:href="#ah"/><use transform="matrix(0.06172839506172839,0,0,0.06172839506172839,117.09876543209877,0)" xlink:href="#ai"/><use transform="matrix(0.06172839506172839,0,0,0.06172839506172839,129.44444444444446,0)" xlink:href="#ae"/></g><path d="M30-248c118-7 216 8 213 122C240-48 200 0 122 0H30v-248zM63-27c89 8 146-16 146-99s-60-101-146-95v194" id="aj"/><path d="M205 0l-28-72H64L36 0H1l101-248h38L239 0h-34zm-38-99l-47-123c-12 45-31 82-46 123h93" id="ak"/><g id="c"><use transform="matrix(0.06172839506172839,0,0,0.06172839506172839,0,0)" xlink:href="#aj"/><use transform="matrix(0.06172839506172839,0,0,0.06172839506172839,15.987654320987653,0)" xlink:href="#Z"/><use transform="matrix(0.06172839506172839,0,0,0.06172839506172839,31.975308641975307,0)" xlink:href="#ak"/><use transform="matrix(0.06172839506172839,0,0,0.06172839506172839,46.79012345679012,0)" xlink:href="#ag"/></g><linearGradient gradientUnits="userSpaceOnUse" id="d" x1="740.79" y1="20" x2="740.79" y2="138.11"><stop offset="0%" stop-color="#fff"/><stop offset="20%" stop-color="#fff"/><stop offset="100%" stop-color="#dbdbdb"/></linearGradient><path d="M240 0l2-218c-23 76-54 145-80 218h-23L58-218 59 0H30v-248h44l77 211c21-75 51-140 76-211h43V0h-30" id="al"/><g id="e"><use transform="matrix(0.06172222222222222,0,0,0.06172222222222222,0,0)" xlink:href="#aj"/><use transform="matrix(0.06172222222222222,0,0,0.06172222222222222,15.986055555555556,0)" xlink:href="#Z"/><use transform="matrix(0.06172222222222222,0,0,0.06172222222222222,31.97211111111111,0)" xlink:href="#al"/><use transform="matrix(0.06172222222222222,0,0,0.06172222222222222,50.427055555555555,0)" xlink:href="#ab"/></g><path d="M59-47c-2 24 18 29 38 22v24C64 9 27 4 27-40v-127H5v-23h24l9-43h21v43h35v23H59v120" id="am"/><path d="M141-36C126-15 110 5 73 4 37 3 15-17 15-53c-1-64 63-63 125-63 3-35-9-54-41-54-24 1-41 7-42 31l-33-3c5-37 33-52 76-52 45 0 72 20 72 64v82c-1 20 7 32 28 27v20c-31 9-61-2-59-35zM48-53c0 20 12 33 32 33 41-3 63-29 60-74-43 2-92-5-92 41" id="an"/><path d="M85-194c31 0 48 13 60 33l-1-100h32l1 261h-30c-2-10 0-23-3-31C134-8 116 4 85 4 32 4 16-35 15-94c0-66 23-100 70-100zm9 24c-40 0-46 34-46 75 0 40 6 74 45 74 42 0 51-32 51-76 0-42-9-74-50-73" id="ao"/><g id="f"><use transform="matrix(0.06172222222222222,0,0,0.06172222222222222,0,0)" xlink:href="#al"/><use transform="matrix(0.06172222222222222,0,0,0.06172222222222222,18.454944444444443,0)" xlink:href="#af"/><use transform="matrix(0.06172222222222222,0,0,0.06172222222222222,30.799388888888885,0)" xlink:href="#am"/><use transform="matrix(0.06172222222222222,0,0,0.06172222222222222,36.97161111111111,0)" xlink:href="#an"/><use transform="matrix(0.06172222222222222,0,0,0.06172222222222222,49.31605555555555,0)" xlink:href="#ao"/><use transform="matrix(0.06172222222222222,0,0,0.06172222222222222,61.66049999999999,0)" xlink:href="#an"/><use transform="matrix(0.06172222222222222,0,0,0.06172222222222222,74.00494444444443,0)" xlink:href="#am"/><use transform="matrix(0.06172222222222222,0,0,0.06172222222222222,80.17716666666665,0)" xlink:href="#an"/></g><path d="M127-220V0H93v-220H8v-28h204v28h-85" id="ap"/><path d="M114-163C36-179 61-72 57 0H25l-1-190h30c1 12-1 29 2 39 6-27 23-49 58-41v29" id="aq"/><path d="M210-169c-67 3-38 105-44 169h-31v-121c0-29-5-50-35-48C34-165 62-65 56 0H25l-1-190h30c1 10-1 24 2 32 10-44 99-50 107 0 11-21 27-35 58-36 85-2 47 119 55 194h-31v-121c0-29-5-49-35-48" id="ar"/><path d="M135-143c-3-34-86-38-87 0 15 53 115 12 119 90S17 21 10-45l28-5c4 36 97 45 98 0-10-56-113-15-118-90-4-57 82-63 122-42 12 7 21 19 24 35" id="as"/><g id="g"><use transform="matrix(0.06172222222222222,0,0,0.06172222222222222,0,0)" xlink:href="#ap"/><use transform="matrix(0.06172222222222222,0,0,0.06172222222222222,11.048277777777777,0)" xlink:href="#af"/><use transform="matrix(0.06172222222222222,0,0,0.06172222222222222,23.39272222222222,0)" xlink:href="#aq"/><use transform="matrix(0.06172222222222222,0,0,0.06172222222222222,30.737666666666662,0)" xlink:href="#ar"/><use transform="matrix(0.06172222222222222,0,0,0.06172222222222222,49.192611111111106,0)" xlink:href="#as"/></g><path d="M96-169c-40 0-48 33-48 73s9 75 48 75c24 0 41-14 43-38l32 2c-6 37-31 61-74 61-59 0-76-41-82-99-10-93 101-131 147-64 4 7 5 14 7 22l-32 3c-4-21-16-35-41-35" id="at"/><path d="M33-154v-36h34v36H33zM33 0v-36h34V0H33" id="au"/><path d="M117-194c89-4 53 116 60 194h-32v-121c0-31-8-49-39-48C34-167 62-67 57 0H25l-1-190h30c1 10-1 24 2 32 11-22 29-35 61-36" id="av"/><g id="h"><use transform="matrix(0.06172222222222222,0,0,0.06172222222222222,0,0)" xlink:href="#ao"/><use transform="matrix(0.06172222222222222,0,0,0.06172222222222222,12.344444444444443,0)" xlink:href="#at"/><use transform="matrix(0.06172222222222222,0,0,0.06172222222222222,23.45444444444444,0)" xlink:href="#am"/><use transform="matrix(0.06172222222222222,0,0,0.06172222222222222,29.62666666666666,0)" xlink:href="#au"/><use transform="matrix(0.06172222222222222,0,0,0.06172222222222222,35.79888888888888,0)" xlink:href="#aa"/><use transform="matrix(0.06172222222222222,0,0,0.06172222222222222,50.612222222222215,0)" xlink:href="#am"/><use transform="matrix(0.06172222222222222,0,0,0.06172222222222222,56.78444444444444,0)" xlink:href="#an"/><use transform="matrix(0.06172222222222222,0,0,0.06172222222222222,69.12888888888888,0)" xlink:href="#av"/><use transform="matrix(0.06172222222222222,0,0,0.06172222222222222,81.47333333333333,0)" xlink:href="#ao"/><use transform="matrix(0.06172222222222222,0,0,0.06172222222222222,93.81777777777778,0)" xlink:href="#an"/><use transform="matrix(0.06172222222222222,0,0,0.06172222222222222,106.16222222222223,0)" xlink:href="#aq"/><use transform="matrix(0.06172222222222222,0,0,0.06172222222222222,113.50716666666668,0)" xlink:href="#ao"/></g><path d="M24-231v-30h32v30H24zM24 0v-190h32V0H24" id="aw"/><g id="i"><use transform="matrix(0.04938271604938272,0,0,0.04938271604938272,0,0)" xlink:href="#aw"/><use transform="matrix(0.04938271604938272,0,0,0.04938271604938272,3.901234567901235,0)" xlink:href="#as"/></g><path d="M115-194c55 1 70 41 70 98S169 2 115 4C84 4 66-9 55-30l1 105H24l-1-265h31l2 30c10-21 28-34 59-34zm-8 174c40 0 45-34 45-75s-6-73-45-74c-42 0-51 32-51 76 0 43 10 73 51 73" id="ax"/><path d="M100-194c62-1 85 37 85 99 1 63-27 99-86 99S16-35 15-95c0-66 28-99 85-99zM99-20c44 1 53-31 53-75 0-43-8-75-51-75s-53 32-53 75 10 74 51 75" id="ay"/><path d="M101-234c-31-9-42 10-38 44h38v23H63V0H32v-167H5v-23h27c-7-52 17-82 69-68v24" id="az"/><path d="M24 0v-261h32V0H24" id="aA"/><g id="j"><use transform="matrix(0.04938271604938272,0,0,0.04938271604938272,0,0)" xlink:href="#ax"/><use transform="matrix(0.04938271604938272,0,0,0.04938271604938272,9.876543209876544,0)" xlink:href="#aq"/><use transform="matrix(0.04938271604938272,0,0,0.04938271604938272,15.753086419753087,0)" xlink:href="#ay"/><use transform="matrix(0.04938271604938272,0,0,0.04938271604938272,25.629629629629633,0)" xlink:href="#az"/><use transform="matrix(0.04938271604938272,0,0,0.04938271604938272,30.567901234567906,0)" xlink:href="#aw"/><use transform="matrix(0.04938271604938272,0,0,0.04938271604938272,34.46913580246914,0)" xlink:href="#aA"/><use transform="matrix(0.04938271604938272,0,0,0.04938271604938272,38.370370370370374,0)" xlink:href="#af"/></g><g id="k"><use transform="matrix(0.04938271604938272,0,0,0.04938271604938272,0,0)" xlink:href="#ay"/><use transform="matrix(0.04938271604938272,0,0,0.04938271604938272,9.876543209876544,0)" xlink:href="#az"/></g><path d="M106-169C34-169 62-67 57 0H25v-261h32l-1 103c12-21 28-36 61-36 89 0 53 116 60 194h-32v-121c2-32-8-49-39-48" id="aB"/><g id="l"><use transform="matrix(0.04938271604938272,0,0,0.04938271604938272,0,0)" xlink:href="#aB"/><use transform="matrix(0.04938271604938272,0,0,0.04938271604938272,9.876543209876544,0)" xlink:href="#an"/><use transform="matrix(0.04938271604938272,0,0,0.04938271604938272,19.75308641975309,0)" xlink:href="#as"/></g><g id="m"><use transform="matrix(0.04938271604938272,0,0,0.04938271604938272,0,0)" xlink:href="#aq"/><use transform="matrix(0.04938271604938272,0,0,0.04938271604938272,5.8765432098765435,0)" xlink:href="#af"/><use transform="matrix(0.04938271604938272,0,0,0.04938271604938272,15.753086419753087,0)" xlink:href="#as"/><use transform="matrix(0.04938271604938272,0,0,0.04938271604938272,24.641975308641978,0)" xlink:href="#ay"/><use transform="matrix(0.04938271604938272,0,0,0.04938271604938272,34.51851851851852,0)" xlink:href="#ah"/><use transform="matrix(0.04938271604938272,0,0,0.04938271604938272,44.39506172839506,0)" xlink:href="#aq"/><use transform="matrix(0.04938271604938272,0,0,0.04938271604938272,50.27160493827161,0)" xlink:href="#at"/><use transform="matrix(0.04938271604938272,0,0,0.04938271604938272,59.1604938271605,0)" xlink:href="#af"/></g><linearGradient gradientUnits="userSpaceOnUse" id="n" x1="650.79" y1="524.36" x2="650.79" y2="642.47"><stop offset="0%" stop-color="#fff"/><stop offset="20%" stop-color="#fff"/><stop offset="100%" stop-color="#dbdbdb"/></linearGradient><g id="o"><use transform="matrix(0.06172222222222222,0,0,0.06172222222222222,0,0)" xlink:href="#Z"/><use transform="matrix(0.06172222222222222,0,0,0.06172222222222222,15.986055555555556,0)" xlink:href="#ay"/><use transform="matrix(0.06172222222222222,0,0,0.06172222222222222,28.3305,0)" xlink:href="#av"/><use transform="matrix(0.06172222222222222,0,0,0.06172222222222222,40.67494444444444,0)" xlink:href="#as"/><use transform="matrix(0.06172222222222222,0,0,0.06172222222222222,51.78494444444444,0)" xlink:href="#am"/><use transform="matrix(0.06172222222222222,0,0,0.06172222222222222,57.957166666666666,0)" xlink:href="#aq"/><use transform="matrix(0.06172222222222222,0,0,0.06172222222222222,65.30211111111112,0)" xlink:href="#an"/><use transform="matrix(0.06172222222222222,0,0,0.06172222222222222,77.64655555555557,0)" xlink:href="#aw"/><use transform="matrix(0.06172222222222222,0,0,0.06172222222222222,82.52261111111112,0)" xlink:href="#av"/><use transform="matrix(0.06172222222222222,0,0,0.06172222222222222,94.86705555555557,0)" xlink:href="#am"/><use transform="matrix(0.06172222222222222,0,0,0.06172222222222222,101.03927777777778,0)" xlink:href="#as"/></g><linearGradient gradientUnits="userSpaceOnUse" id="p" x1="856.18" y1="525.15" x2="856.18" y2="643.26"><stop offset="0%" stop-color="#fff"/><stop offset="20%" stop-color="#fff"/><stop offset="100%" stop-color="#dbdbdb"/></linearGradient><g id="q"><use transform="matrix(0.06172222222222222,0,0,0.06172222222222222,0,0)" xlink:href="#aj"/><use transform="matrix(0.06172222222222222,0,0,0.06172222222222222,15.986055555555556,0)" xlink:href="#Z"/></g><g id="r"><use transform="matrix(0.06172222222222222,0,0,0.06172222222222222,0,0)" xlink:href="#aj"/><use transform="matrix(0.06172222222222222,0,0,0.06172222222222222,15.986055555555556,0)" xlink:href="#aa"/><use transform="matrix(0.06172222222222222,0,0,0.06172222222222222,30.79938888888889,0)" xlink:href="#ag"/></g><linearGradient gradientUnits="userSpaceOnUse" id="s" x1="1060" y1="525.15" x2="1060" y2="643.26"><stop offset="0%" stop-color="#fff"/><stop offset="20%" stop-color="#fff"/><stop offset="100%" stop-color="#dbdbdb"/></linearGradient><path d="M63-220v92h138v28H63V0H30v-248h175v28H63" id="aC"/><g id="t"><use transform="matrix(0.06172222222222222,0,0,0.06172222222222222,0,0)" xlink:href="#ac"/><use transform="matrix(0.06172222222222222,0,0,0.06172222222222222,15.986055555555556,0)" xlink:href="#aj"/><use transform="matrix(0.06172222222222222,0,0,0.06172222222222222,31.97211111111111,0)" xlink:href="#aC"/></g><path d="M87 75C49 33 22-17 22-94c0-76 28-126 65-167h31c-38 41-64 92-64 168S80 34 118 75H87" id="aD"/><path d="M33-261c38 41 65 92 65 168S71 34 33 75H2C39 34 66-17 66-93S39-220 2-261h31" id="aE"/><g id="u"><use transform="matrix(0.06172222222222222,0,0,0.06172222222222222,0,0)" xlink:href="#aD"/><use transform="matrix(0.06172222222222222,0,0,0.06172222222222222,7.344944444444444,0)" xlink:href="#ap"/><use transform="matrix(0.06172222222222222,0,0,0.06172222222222222,20.05972222222222,0)" xlink:href="#ah"/><use transform="matrix(0.06172222222222222,0,0,0.06172222222222222,32.40416666666666,0)" xlink:href="#aq"/><use transform="matrix(0.06172222222222222,0,0,0.06172222222222222,39.749111111111105,0)" xlink:href="#am"/><use transform="matrix(0.06172222222222222,0,0,0.06172222222222222,45.92133333333333,0)" xlink:href="#aA"/><use transform="matrix(0.06172222222222222,0,0,0.06172222222222222,50.79738888888888,0)" xlink:href="#af"/><use transform="matrix(0.06172222222222222,0,0,0.06172222222222222,63.141833333333324,0)" xlink:href="#aE"/></g><g id="v"><use transform="matrix(0.04938271604938272,0,0,0.04938271604938272,0,0)" xlink:href="#aq"/><use transform="matrix(0.04938271604938272,0,0,0.04938271604938272,5.8765432098765435,0)" xlink:href="#ay"/><use transform="matrix(0.04938271604938272,0,0,0.04938271604938272,15.753086419753087,0)" xlink:href="#aA"/><use transform="matrix(0.04938271604938272,0,0,0.04938271604938272,19.654320987654323,0)" xlink:href="#af"/></g><g id="w"><use transform="matrix(0.04938271604938272,0,0,0.04938271604938272,0,0)" xlink:href="#ao"/><use transform="matrix(0.04938271604938272,0,0,0.04938271604938272,9.876543209876544,0)" xlink:href="#at"/><use transform="matrix(0.04938271604938272,0,0,0.04938271604938272,18.765432098765434,0)" xlink:href="#am"/><use transform="matrix(0.04938271604938272,0,0,0.04938271604938272,23.703703703703706,0)" xlink:href="#au"/><use transform="matrix(0.04938271604938272,0,0,0.04938271604938272,28.641975308641978,0)" xlink:href="#az"/><use transform="matrix(0.04938271604938272,0,0,0.04938271604938272,33.580246913580254,0)" xlink:href="#ay"/><use transform="matrix(0.04938271604938272,0,0,0.04938271604938272,43.4567901234568,0)" xlink:href="#aq"/><use transform="matrix(0.04938271604938272,0,0,0.04938271604938272,49.33333333333334,0)" xlink:href="#ar"/><use transform="matrix(0.04938271604938272,0,0,0.04938271604938272,64.09876543209877,0)" xlink:href="#an"/><use transform="matrix(0.04938271604938272,0,0,0.04938271604938272,73.97530864197532,0)" xlink:href="#am"/></g><g id="x"><use transform="matrix(0.04938271604938272,0,0,0.04938271604938272,0,0)" xlink:href="#ao"/><use transform="matrix(0.04938271604938272,0,0,0.04938271604938272,9.876543209876544,0)" xlink:href="#at"/><use transform="matrix(0.04938271604938272,0,0,0.04938271604938272,18.765432098765434,0)" xlink:href="#am"/><use transform="matrix(0.04938271604938272,0,0,0.04938271604938272,23.703703703703706,0)" xlink:href="#au"/><use transform="matrix(0.04938271604938272,0,0,0.04938271604938272,28.641975308641978,0)" xlink:href="#at"/><use transform="matrix(0.04938271604938272,0,0,0.04938271604938272,37.53086419753087,0)" xlink:href="#ay"/><use transform="matrix(0.04938271604938272,0,0,0.04938271604938272,47.40740740740741,0)" xlink:href="#av"/><use transform="matrix(0.04938271604938272,0,0,0.04938271604938272,57.283950617283956,0)" xlink:href="#az"/><use transform="matrix(0.04938271604938272,0,0,0.04938271604938272,62.22222222222223,0)" xlink:href="#ay"/><use transform="matrix(0.04938271604938272,0,0,0.04938271604938272,72.09876543209877,0)" xlink:href="#aq"/><use transform="matrix(0.04938271604938272,0,0,0.04938271604938272,77.97530864197532,0)" xlink:href="#ar"/><use transform="matrix(0.04938271604938272,0,0,0.04938271604938272,92.74074074074075,0)" xlink:href="#as"/><use transform="matrix(0.04938271604938272,0,0,0.04938271604938272,101.62962962962963,0)" xlink:href="#ap"/><use transform="matrix(0.04938271604938272,0,0,0.04938271604938272,110.46913580246914,0)" xlink:href="#ay"/></g><g id="y"><use transform="matrix(0.06172222222222222,0,0,0.06172222222222222,0,0)" xlink:href="#ag"/><use transform="matrix(0.06172222222222222,0,0,0.06172222222222222,14.813333333333333,0)" xlink:href="#aq"/><use transform="matrix(0.06172222222222222,0,0,0.06172222222222222,22.158277777777776,0)" xlink:href="#ay"/><use transform="matrix(0.06172222222222222,0,0,0.06172222222222222,34.50272222222222,0)" xlink:href="#az"/><use transform="matrix(0.06172222222222222,0,0,0.06172222222222222,40.67494444444444,0)" xlink:href="#aw"/><use transform="matrix(0.06172222222222222,0,0,0.06172222222222222,45.550999999999995,0)" xlink:href="#aA"/><use transform="matrix(0.06172222222222222,0,0,0.06172222222222222,50.42705555555555,0)" xlink:href="#af"/></g><linearGradient gradientUnits="userSpaceOnUse" id="z" x1="445.39" y1="524.36" x2="445.39" y2="642.47"><stop offset="0%" stop-color="#fff"/><stop offset="20%" stop-color="#fff"/><stop offset="100%" stop-color="#dbdbdb"/></linearGradient><g id="A"><use transform="matrix(0.06172222222222222,0,0,0.06172222222222222,0,0)" xlink:href="#ag"/><use transform="matrix(0.06172222222222222,0,0,0.06172222222222222,14.813333333333333,0)" xlink:href="#aA"/><use transform="matrix(0.06172222222222222,0,0,0.06172222222222222,19.68938888888889,0)" xlink:href="#an"/><use transform="matrix(0.06172222222222222,0,0,0.06172222222222222,32.033833333333334,0)" xlink:href="#aw"/><use transform="matrix(0.06172222222222222,0,0,0.06172222222222222,36.90988888888889,0)" xlink:href="#av"/></g><path d="M141 0L90-78 38 0H4l68-98-65-92h35l48 74 47-74h35l-64 92 68 98h-35" id="aF"/><g id="B"><use transform="matrix(0.06172222222222222,0,0,0.06172222222222222,0,0)" xlink:href="#ap"/><use transform="matrix(0.06172222222222222,0,0,0.06172222222222222,11.048277777777777,0)" xlink:href="#af"/><use transform="matrix(0.06172222222222222,0,0,0.06172222222222222,23.39272222222222,0)" xlink:href="#aF"/><use transform="matrix(0.06172222222222222,0,0,0.06172222222222222,34.50272222222222,0)" xlink:href="#am"/></g><linearGradient gradientUnits="userSpaceOnUse" id="C" x1="240" y1="525.15" x2="240" y2="643.26"><stop offset="0%" stop-color="#fff"/><stop offset="20%" stop-color="#fff"/><stop offset="100%" stop-color="#dbdbdb"/></linearGradient><g id="D"><use transform="matrix(0.06172839506172839,0,0,0.06172839506172839,0,0)" xlink:href="#at"/><use transform="matrix(0.06172839506172839,0,0,0.06172839506172839,11.11111111111111,0)" xlink:href="#ay"/><use transform="matrix(0.06172839506172839,0,0,0.06172839506172839,23.45679012345679,0)" xlink:href="#av"/><use transform="matrix(0.06172839506172839,0,0,0.06172839506172839,35.80246913580247,0)" xlink:href="#as"/><use transform="matrix(0.06172839506172839,0,0,0.06172839506172839,46.91358024691358,0)" xlink:href="#am"/><use transform="matrix(0.06172839506172839,0,0,0.06172839506172839,53.086419753086425,0)" xlink:href="#aq"/><use transform="matrix(0.06172839506172839,0,0,0.06172839506172839,60.4320987654321,0)" xlink:href="#an"/><use transform="matrix(0.06172839506172839,0,0,0.06172839506172839,72.77777777777779,0)" xlink:href="#aw"/><use transform="matrix(0.06172839506172839,0,0,0.06172839506172839,77.65432098765433,0)" xlink:href="#av"/><use transform="matrix(0.06172839506172839,0,0,0.06172839506172839,90.00000000000001,0)" xlink:href="#am"/><use transform="matrix(0.06172839506172839,0,0,0.06172839506172839,96.17283950617285,0)" xlink:href="#as"/><use transform="matrix(0.06172839506172839,0,0,0.06172839506172839,107.28395061728396,0)" xlink:href="#ae"/></g><path d="M179-190L93 31C79 59 56 82 12 73V49c39 6 53-20 64-50L1-190h34L92-34l54-156h33" id="aG"/><path d="M33 0v-38h34V0H33" id="aH"/><g id="E"><use transform="matrix(0.06172839506172839,0,0,0.06172839506172839,0,0)" xlink:href="#ao"/><use transform="matrix(0.06172839506172839,0,0,0.06172839506172839,12.345679012345679,0)" xlink:href="#at"/><use transform="matrix(0.06172839506172839,0,0,0.06172839506172839,23.45679012345679,0)" xlink:href="#an"/><use transform="matrix(0.06172839506172839,0,0,0.06172839506172839,35.80246913580247,0)" xlink:href="#ax"/><use transform="matrix(0.06172839506172839,0,0,0.06172839506172839,48.148148148148145,0)" xlink:href="#ae"/><use transform="matrix(0.06172839506172839,0,0,0.06172839506172839,55.49382716049382,0)" xlink:href="#as"/><use transform="matrix(0.06172839506172839,0,0,0.06172839506172839,66.60493827160494,0)" xlink:href="#aG"/><use transform="matrix(0.06172839506172839,0,0,0.06172839506172839,77.71604938271605,0)" xlink:href="#av"/><use transform="matrix(0.06172839506172839,0,0,0.06172839506172839,90.06172839506173,0)" xlink:href="#am"/><use transform="matrix(0.06172839506172839,0,0,0.06172839506172839,96.23456790123457,0)" xlink:href="#an"/><use transform="matrix(0.06172839506172839,0,0,0.06172839506172839,108.58024691358025,0)" xlink:href="#aF"/><use transform="matrix(0.06172839506172839,0,0,0.06172839506172839,119.69135802469137,0)" xlink:href="#aH"/><use transform="matrix(0.06172839506172839,0,0,0.06172839506172839,125.8641975308642,0)" xlink:href="#am"/><use transform="matrix(0.06172839506172839,0,0,0.06172839506172839,132.03703703703704,0)" xlink:href="#aF"/><use transform="matrix(0.06172839506172839,0,0,0.06172839506172839,143.14814814814815,0)" xlink:href="#am"/></g><g id="F"><use transform="matrix(0.04938271604938272,0,0,0.04938271604938272,0,0)" xlink:href="#an"/><use transform="matrix(0.04938271604938272,0,0,0.04938271604938272,9.876543209876544,0)" xlink:href="#aq"/><use transform="matrix(0.04938271604938272,0,0,0.04938271604938272,15.753086419753087,0)" xlink:href="#am"/><use transform="matrix(0.04938271604938272,0,0,0.04938271604938272,20.69135802469136,0)" xlink:href="#aw"/><use transform="matrix(0.04938271604938272,0,0,0.04938271604938272,24.592592592592595,0)" xlink:href="#az"/><use transform="matrix(0.04938271604938272,0,0,0.04938271604938272,29.530864197530867,0)" xlink:href="#an"/><use transform="matrix(0.04938271604938272,0,0,0.04938271604938272,39.40740740740741,0)" xlink:href="#at"/><use transform="matrix(0.04938271604938272,0,0,0.04938271604938272,48.296296296296305,0)" xlink:href="#am"/></g><linearGradient gradientUnits="userSpaceOnUse" id="G" x1="1264.61" y1="525.15" x2="1264.61" y2="643.26"><stop offset="0%" stop-color="#fff"/><stop offset="20%" stop-color="#fff"/><stop offset="100%" stop-color="#dbdbdb"/></linearGradient><g id="H"><use transform="matrix(0.06788888888888889,0,0,0.06788888888888889,0,0)" xlink:href="#at"/><use transform="matrix(0.06788888888888889,0,0,0.06788888888888889,12.219999999999999,0)" xlink:href="#ay"/><use transform="matrix(0.06788888888888889,0,0,0.06788888888888889,25.797777777777775,0)" xlink:href="#av"/><use transform="matrix(0.06788888888888889,0,0,0.06788888888888889,39.37555555555555,0)" xlink:href="#as"/><use transform="matrix(0.06788888888888889,0,0,0.06788888888888889,51.59555555555555,0)" xlink:href="#am"/><use transform="matrix(0.06788888888888889,0,0,0.06788888888888889,58.38444444444444,0)" xlink:href="#aq"/><use transform="matrix(0.06788888888888889,0,0,0.06788888888888889,66.46322222222221,0)" xlink:href="#an"/><use transform="matrix(0.06788888888888889,0,0,0.06788888888888889,80.041,0)" xlink:href="#aw"/><use transform="matrix(0.06788888888888889,0,0,0.06788888888888889,85.40422222222222,0)" xlink:href="#av"/><use transform="matrix(0.06788888888888889,0,0,0.06788888888888889,98.982,0)" xlink:href="#am"/><use transform="matrix(0.06788888888888889,0,0,0.06788888888888889,105.77088888888889,0)" xlink:href="#as"/><use transform="matrix(0.06788888888888889,0,0,0.06788888888888889,117.99088888888889,0)" xlink:href="#aH"/><use transform="matrix(0.06788888888888889,0,0,0.06788888888888889,124.77977777777778,0)" xlink:href="#am"/><use transform="matrix(0.06788888888888889,0,0,0.06788888888888889,131.56866666666667,0)" xlink:href="#am"/><use transform="matrix(0.06788888888888889,0,0,0.06788888888888889,138.35755555555556,0)" xlink:href="#aA"/></g><path d="M206 0h-36l-40-164L89 0H53L-1-190h32L70-26l43-164h34l41 164 42-164h31" id="aI"/><g id="I"><use transform="matrix(0.06172222222222222,0,0,0.06172222222222222,0,0)" xlink:href="#ay"/><use transform="matrix(0.06172222222222222,0,0,0.06172222222222222,12.344444444444443,0)" xlink:href="#aI"/><use transform="matrix(0.06172222222222222,0,0,0.06172222222222222,28.3305,0)" xlink:href="#aA"/><use transform="matrix(0.06172222222222222,0,0,0.06172222222222222,33.20655555555555,0)" xlink:href="#au"/><use transform="matrix(0.06172222222222222,0,0,0.06172222222222222,39.37877777777778,0)" xlink:href="#Z"/><use transform="matrix(0.06172222222222222,0,0,0.06172222222222222,55.36483333333334,0)" xlink:href="#aA"/><use transform="matrix(0.06172222222222222,0,0,0.06172222222222222,60.24088888888889,0)" xlink:href="#an"/><use transform="matrix(0.06172222222222222,0,0,0.06172222222222222,72.58533333333334,0)" xlink:href="#as"/><use transform="matrix(0.06172222222222222,0,0,0.06172222222222222,83.69533333333334,0)" xlink:href="#as"/></g><path d="M30 0v-248h187v28H63v79h144v27H63v87h162V0H30" id="aJ"/><g id="J"><use transform="matrix(0.07408333333333333,0,0,0.07408333333333333,0,0)" xlink:href="#aJ"/><use transform="matrix(0.07408333333333333,0,0,0.07408333333333333,17.78,0)" xlink:href="#aA"/><use transform="matrix(0.07408333333333333,0,0,0.07408333333333333,23.632583333333336,0)" xlink:href="#af"/><use transform="matrix(0.07408333333333333,0,0,0.07408333333333333,38.449250000000006,0)" xlink:href="#ar"/><use transform="matrix(0.07408333333333333,0,0,0.07408333333333333,60.600166666666674,0)" xlink:href="#af"/><use transform="matrix(0.07408333333333333,0,0,0.07408333333333333,75.41683333333334,0)" xlink:href="#av"/><use transform="matrix(0.07408333333333333,0,0,0.07408333333333333,90.2335,0)" xlink:href="#am"/><path d="M-1.33 1.85H106.4V3.8H-1.34z"/></g><path d="M194 0L95-120 63-95V0H30v-248h33v124l119-124h40L117-140 236 0h-42" id="aK"/><g id="K"><use transform="matrix(0.07408333333333333,0,0,0.07408333333333333,0,0)" xlink:href="#aK"/><use transform="matrix(0.07408333333333333,0,0,0.07408333333333333,17.78,0)" xlink:href="#af"/><use transform="matrix(0.07408333333333333,0,0,0.07408333333333333,32.596666666666664,0)" xlink:href="#aG"/><path d="M-1.33 1.85h48.6V3.8h-48.6z"/></g><g id="L"><use transform="matrix(0.06172222222222222,0,0,0.06172222222222222,0,0)" xlink:href="#aq"/><use transform="matrix(0.06172222222222222,0,0,0.06172222222222222,7.344944444444444,0)" xlink:href="#ao"/><use transform="matrix(0.06172222222222222,0,0,0.06172222222222222,19.689388888888885,0)" xlink:href="#az"/><use transform="matrix(0.06172222222222222,0,0,0.06172222222222222,25.861611111111106,0)" xlink:href="#as"/><use transform="matrix(0.06172222222222222,0,0,0.06172222222222222,36.9716111111111,0)" xlink:href="#au"/><use transform="matrix(0.06172222222222222,0,0,0.06172222222222222,43.143833333333326,0)" xlink:href="#as"/><use transform="matrix(0.06172222222222222,0,0,0.06172222222222222,54.253833333333326,0)" xlink:href="#ah"/><use transform="matrix(0.06172222222222222,0,0,0.06172222222222222,66.59827777777777,0)" xlink:href="#ai"/><use transform="matrix(0.06172222222222222,0,0,0.06172222222222222,78.94272222222222,0)" xlink:href="#Z"/><use transform="matrix(0.06172222222222222,0,0,0.06172222222222222,94.92877777777777,0)" xlink:href="#aA"/><use transform="matrix(0.06172222222222222,0,0,0.06172222222222222,99.80483333333332,0)" xlink:href="#an"/><use transform="matrix(0.06172222222222222,0,0,0.06172222222222222,112.14927777777777,0)" xlink:href="#as"/><use transform="matrix(0.06172222222222222,0,0,0.06172222222222222,123.25927777777777,0)" xlink:href="#as"/><use transform="matrix(0.06172222222222222,0,0,0.06172222222222222,134.36927777777777,0)" xlink:href="#ad"/><use transform="matrix(0.06172222222222222,0,0,0.06172222222222222,151.6515,0)" xlink:href="#az"/></g><g id="M"><use transform="matrix(0.06172222222222222,0,0,0.06172222222222222,0,0)" xlink:href="#aq"/><use transform="matrix(0.06172222222222222,0,0,0.06172222222222222,7.344944444444444,0)" xlink:href="#ao"/><use transform="matrix(0.06172222222222222,0,0,0.06172222222222222,19.689388888888885,0)" xlink:href="#az"/><use transform="matrix(0.06172222222222222,0,0,0.06172222222222222,25.861611111111106,0)" xlink:href="#au"/><use transform="matrix(0.06172222222222222,0,0,0.06172222222222222,32.03383333333333,0)" xlink:href="#am"/><use transform="matrix(0.06172222222222222,0,0,0.06172222222222222,38.20605555555555,0)" xlink:href="#aG"/><use transform="matrix(0.06172222222222222,0,0,0.06172222222222222,49.31605555555555,0)" xlink:href="#ax"/><use transform="matrix(0.06172222222222222,0,0,0.06172222222222222,61.66049999999999,0)" xlink:href="#af"/></g><g id="N"><use transform="matrix(0.06172222222222222,0,0,0.06172222222222222,0,0)" xlink:href="#ag"/><use transform="matrix(0.06172222222222222,0,0,0.06172222222222222,14.813333333333333,0)" xlink:href="#ac"/><use transform="matrix(0.06172222222222222,0,0,0.06172222222222222,30.79938888888889,0)" xlink:href="#ad"/><use transform="matrix(0.06172222222222222,0,0,0.06172222222222222,48.08161111111111,0)" xlink:href="#aC"/></g><g id="O"><use transform="matrix(0.06172222222222222,0,0,0.06172222222222222,0,0)" xlink:href="#Z"/><use transform="matrix(0.06172222222222222,0,0,0.06172222222222222,15.986055555555556,0)" xlink:href="#aA"/><use transform="matrix(0.06172222222222222,0,0,0.06172222222222222,20.862111111111112,0)" xlink:href="#an"/><use transform="matrix(0.06172222222222222,0,0,0.06172222222222222,33.20655555555555,0)" xlink:href="#as"/><use transform="matrix(0.06172222222222222,0,0,0.06172222222222222,44.31655555555555,0)" xlink:href="#as"/></g><g id="P"><use transform="matrix(0.06172222222222222,0,0,0.06172222222222222,0,0)" xlink:href="#aq"/><use transform="matrix(0.06172222222222222,0,0,0.06172222222222222,7.344944444444444,0)" xlink:href="#ao"/><use transform="matrix(0.06172222222222222,0,0,0.06172222222222222,19.689388888888885,0)" xlink:href="#az"/><use transform="matrix(0.06172222222222222,0,0,0.06172222222222222,25.861611111111106,0)" xlink:href="#au"/><use transform="matrix(0.06172222222222222,0,0,0.06172222222222222,32.03383333333333,0)" xlink:href="#ax"/><use transform="matrix(0.06172222222222222,0,0,0.06172222222222222,44.37827777777777,0)" xlink:href="#aq"/><use transform="matrix(0.06172222222222222,0,0,0.06172222222222222,51.72322222222221,0)" xlink:href="#ay"/><use transform="matrix(0.06172222222222222,0,0,0.06172222222222222,64.06766666666665,0)" xlink:href="#ax"/><use transform="matrix(0.06172222222222222,0,0,0.06172222222222222,76.4121111111111,0)" xlink:href="#af"/><use transform="matrix(0.06172222222222222,0,0,0.06172222222222222,88.75655555555555,0)" xlink:href="#aq"/><use transform="matrix(0.06172222222222222,0,0,0.06172222222222222,96.10149999999999,0)" xlink:href="#am"/><use transform="matrix(0.06172222222222222,0,0,0.06172222222222222,102.2737222222222,0)" xlink:href="#aG"/></g><linearGradient gradientUnits="userSpaceOnUse" id="Q" x1="9.13" y1="336.26" x2="9.13" y2="454.37"><stop offset="0%" stop-color="#fff"/><stop offset="12.18%" stop-color="#fff"/><stop offset="100%" stop-color="#dbdbdb"/></linearGradient><g id="R"><use transform="matrix(0.06172222222222222,0,0,0.06172222222222222,0,0)" xlink:href="#ay"/><use transform="matrix(0.06172222222222222,0,0,0.06172222222222222,12.344444444444443,0)" xlink:href="#aI"/><use transform="matrix(0.06172222222222222,0,0,0.06172222222222222,28.3305,0)" xlink:href="#aA"/><use transform="matrix(0.06172222222222222,0,0,0.06172222222222222,33.20655555555555,0)" xlink:href="#au"/></g><path d="M190 0L58-211 59 0H30v-248h39L202-35l-2-213h31V0h-41" id="aL"/><path d="M108 0H70L1-190h34L89-25l56-165h34" id="aM"/><g id="S"><use transform="matrix(0.06172222222222222,0,0,0.06172222222222222,0,0)" xlink:href="#aL"/><use transform="matrix(0.06172222222222222,0,0,0.06172222222222222,15.986055555555556,0)" xlink:href="#an"/><use transform="matrix(0.06172222222222222,0,0,0.06172222222222222,28.3305,0)" xlink:href="#ar"/><use transform="matrix(0.06172222222222222,0,0,0.06172222222222222,46.785444444444444,0)" xlink:href="#af"/><use transform="matrix(0.06172222222222222,0,0,0.06172222222222222,59.129888888888885,0)" xlink:href="#ao"/><use transform="matrix(0.06172222222222222,0,0,0.06172222222222222,71.47433333333333,0)" xlink:href="#ab"/><use transform="matrix(0.06172222222222222,0,0,0.06172222222222222,77.64655555555555,0)" xlink:href="#av"/><use transform="matrix(0.06172222222222222,0,0,0.06172222222222222,89.991,0)" xlink:href="#ao"/><use transform="matrix(0.06172222222222222,0,0,0.06172222222222222,102.33544444444445,0)" xlink:href="#aw"/><use transform="matrix(0.06172222222222222,0,0,0.06172222222222222,107.2115,0)" xlink:href="#aM"/><use transform="matrix(0.06172222222222222,0,0,0.06172222222222222,118.3215,0)" xlink:href="#aw"/><use transform="matrix(0.06172222222222222,0,0,0.06172222222222222,123.19755555555555,0)" xlink:href="#ao"/><use transform="matrix(0.06172222222222222,0,0,0.06172222222222222,135.542,0)" xlink:href="#ah"/><use transform="matrix(0.06172222222222222,0,0,0.06172222222222222,147.88644444444444,0)" xlink:href="#an"/><use transform="matrix(0.06172222222222222,0,0,0.06172222222222222,160.23088888888887,0)" xlink:href="#aA"/></g><path d="M160-131c35 5 61 23 61 61C221 17 115-2 30 0v-248c76 3 177-17 177 60 0 33-19 50-47 57zm-97-11c50-1 110 9 110-42 0-47-63-36-110-37v79zm0 115c55-2 124 14 124-45 0-56-70-42-124-44v89" id="aN"/><path d="M143 0L79-87 56-68V0H24v-261h32v163l83-92h37l-77 82L181 0h-38" id="aO"/><g id="T"><use transform="matrix(0.06172222222222222,0,0,0.06172222222222222,0,0)" xlink:href="#aN"/><use transform="matrix(0.06172222222222222,0,0,0.06172222222222222,14.813333333333333,0)" xlink:href="#aA"/><use transform="matrix(0.06172222222222222,0,0,0.06172222222222222,19.68938888888889,0)" xlink:href="#an"/><use transform="matrix(0.06172222222222222,0,0,0.06172222222222222,32.033833333333334,0)" xlink:href="#av"/><use transform="matrix(0.06172222222222222,0,0,0.06172222222222222,44.378277777777775,0)" xlink:href="#aO"/></g><g id="U"><use transform="matrix(0.06172222222222222,0,0,0.06172222222222222,0,0)" xlink:href="#aL"/><use transform="matrix(0.06172222222222222,0,0,0.06172222222222222,15.986055555555556,0)" xlink:href="#ay"/><use transform="matrix(0.06172222222222222,0,0,0.06172222222222222,28.3305,0)" xlink:href="#ao"/><use transform="matrix(0.06172222222222222,0,0,0.06172222222222222,40.67494444444444,0)" xlink:href="#af"/></g><g id="V"><use transform="matrix(0.06172222222222222,0,0,0.06172222222222222,0,0)" xlink:href="#ac"/><use transform="matrix(0.06172222222222222,0,0,0.06172222222222222,15.986055555555556,0)" xlink:href="#af"/><use transform="matrix(0.06172222222222222,0,0,0.06172222222222222,28.3305,0)" xlink:href="#as"/><use transform="matrix(0.06172222222222222,0,0,0.06172222222222222,39.4405,0)" xlink:href="#ay"/><use transform="matrix(0.06172222222222222,0,0,0.06172222222222222,51.78494444444444,0)" xlink:href="#ah"/><use transform="matrix(0.06172222222222222,0,0,0.06172222222222222,64.12938888888888,0)" xlink:href="#aq"/><use transform="matrix(0.06172222222222222,0,0,0.06172222222222222,71.47433333333333,0)" xlink:href="#at"/><use transform="matrix(0.06172222222222222,0,0,0.06172222222222222,82.58433333333333,0)" xlink:href="#af"/></g><g id="W"><use transform="matrix(0.06172222222222222,0,0,0.06172222222222222,0,0)" xlink:href="#aj"/><use transform="matrix(0.06172222222222222,0,0,0.06172222222222222,15.986055555555556,0)" xlink:href="#af"/><use transform="matrix(0.06172222222222222,0,0,0.06172222222222222,28.3305,0)" xlink:href="#as"/><use transform="matrix(0.06172222222222222,0,0,0.06172222222222222,39.4405,0)" xlink:href="#at"/><use transform="matrix(0.06172222222222222,0,0,0.06172222222222222,50.5505,0)" xlink:href="#aq"/><use transform="matrix(0.06172222222222222,0,0,0.06172222222222222,57.89544444444444,0)" xlink:href="#aw"/><use transform="matrix(0.06172222222222222,0,0,0.06172222222222222,62.771499999999996,0)" xlink:href="#ax"/><use transform="matrix(0.06172222222222222,0,0,0.06172222222222222,75.11594444444444,0)" xlink:href="#am"/><use transform="matrix(0.06172222222222222,0,0,0.06172222222222222,81.28816666666665,0)" xlink:href="#ay"/><use transform="matrix(0.06172222222222222,0,0,0.06172222222222222,93.6326111111111,0)" xlink:href="#aq"/></g><g id="X"><use transform="matrix(0.06172222222222222,0,0,0.06172222222222222,0,0)" xlink:href="#ac"/><use transform="matrix(0.06172222222222222,0,0,0.06172222222222222,15.986055555555556,0)" xlink:href="#af"/><use transform="matrix(0.06172222222222222,0,0,0.06172222222222222,28.3305,0)" xlink:href="#as"/><use transform="matrix(0.06172222222222222,0,0,0.06172222222222222,39.4405,0)" xlink:href="#ay"/><use transform="matrix(0.06172222222222222,0,0,0.06172222222222222,51.78494444444444,0)" xlink:href="#ah"/><use transform="matrix(0.06172222222222222,0,0,0.06172222222222222,64.12938888888888,0)" xlink:href="#aq"/><use transform="matrix(0.06172222222222222,0,0,0.06172222222222222,71.47433333333333,0)" xlink:href="#at"/><use transform="matrix(0.06172222222222222,0,0,0.06172222222222222,82.58433333333333,0)" xlink:href="#af"/></g><g id="Y"><use transform="matrix(0.06172222222222222,0,0,0.06172222222222222,0,0)" xlink:href="#ac"/><use transform="matrix(0.06172222222222222,0,0,0.06172222222222222,15.986055555555556,0)" xlink:href="#ay"/><use transform="matrix(0.06172222222222222,0,0,0.06172222222222222,28.3305,0)" xlink:href="#aA"/><use transform="matrix(0.06172222222222222,0,0,0.06172222222222222,33.20655555555555,0)" xlink:href="#af"/></g></defs></g></svg>