<svg xmlns="http://www.w3.org/2000/svg" xmlns:xlink="http://www.w3.org/1999/xlink" xmlns:lucid="lucid" width="458" height="363.33"><g transform="translate(0 0)" lucid:page-tab-id="lOA3RIvkQjo2"><path d="M0 0h458v363.33H0z" fill="#fff"/><path d="M182.9 236.08H29.2c-10.55 0-19.2 8.62-19.2 19.25v79.6c0 10.64 8.65 19.26 19.2 19.26h153.7c10.58 0 19.23-8.63 19.23-19.26v-79.6c0-10.64-8.65-19.26-19.22-19.26z" stroke="#000" fill="#a5a5a5"/><use xlink:href="#a" transform="matrix(1,0,0,1,18.83779600003226,244.9402500224998) translate(58.189780273437506 56.055)"/><path d="M427.9 236.08H274.2c-10.55 0-19.2 8.62-19.2 19.25v79.6c0 10.64 8.65 19.26 19.2 19.26h153.7c10.58 0 19.23-8.63 19.23-19.26v-79.6c0-10.64-8.65-19.26-19.22-19.26z" stroke="#000" fill="#a5a5a5"/><use xlink:href="#b" transform="matrix(1,0,0,1,263.8377960000323,244.9402500224998) translate(46.1575634765625 42.723)"/><use xlink:href="#c" transform="matrix(1,0,0,1,263.8377960000323,244.9402500224998) translate(40.5374658203125 69.387)"/><path d="M182.9 10H29.2C18.66 10 10 18.62 10 29.25v79.6c0 10.64 8.65 19.26 19.2 19.26h153.7c10.58 0 19.23-8.6 19.23-19.24v-79.6c0-10.64-8.65-19.26-19.22-19.26z" stroke="#000" fill="#fff"/><use xlink:href="#d" transform="matrix(1,0,0,1,18.837796000032213,18.858250001569758) translate(65.1443798828125 42.723)"/><use xlink:href="#e" transform="matrix(1,0,0,1,18.837796000032213,18.858250001569758) translate(46.1575634765625 69.387)"/><path d="M427.9 10H274.2c-10.55 0-19.2 8.62-19.2 19.25v79.6c0 10.64 8.65 19.26 19.2 19.26h153.7c10.58 0 19.23-8.6 19.23-19.24v-79.6c0-10.64-8.65-19.26-19.22-19.26z" stroke="#000" fill="#fff"/><use xlink:href="#d" transform="matrix(1,0,0,1,263.837796000033,18.858250001569758) translate(65.1443798828125 42.723)"/><use xlink:href="#f" transform="matrix(1,0,0,1,263.837796000033,18.858250001569758) translate(34.109072265625 69.387)"/><path d="M106.06 235.08V145" stroke="#000" fill="none"/><path d="M106.56 235.58h-1v-.5h1z"/><path d="M110.7 144.5h-9.27l4.63-14.27z" fill="#fff"/><path d="M111.4 145h-10.66l5.32-16.4zm-9.28-1h7.9l-3.96-12.15z"/><path d="M351.06 235.08v-90.1" stroke="#000" fill="none"/><path d="M351.56 235.58h-1v-.5h1z"/><path d="M355.7 144.5h-9.27l4.63-14.27z" fill="#fff"/><path d="M356.4 145h-10.66l5.32-16.4zm-9.28-1h7.9l-3.96-12.15z"/><defs><path d="M994-906c0 279-183 411-470 416H329V0H147v-1314h377c290 3 470 124 470 408zm-182 0c0-176-103-265-288-265H329v537h195c180-4 288-94 288-272" id="g"/><path d="M536-823c-141 7-187 99-229 205V0H131v-978c60 8 148-26 154 48l12 144c58-123 149-234 328-202 18 3 34 11 49 21l-14 130c-12 52-78 12-124 14" id="h"/><path d="M75-490c0-310 160-503 466-503s464 194 464 503c0 310-158 504-464 504C234 14 75-180 75-490zm181 1c0 215 74 366 285 366 210 0 283-152 283-366s-74-367-283-367c-211 0-285 152-285 367" id="i"/><path d="M523-1269c-167-5-192 134-183 309h263v128H346V0H170v-831c-44-9-102-4-133-26-23-17-9-67-13-103h146c-18-271 76-439 324-444 44 0 83 8 117 19-9 39 11 106-29 113-15 2-34 3-59 3" id="j"/><path d="M323-978V0H147v-978h176zm-91-431c74 0 125 50 125 125 0 74-52 123-125 123s-122-50-122-123c0-74 48-125 122-125" id="k"/><path d="M323-1422V0H147v-1422h176" id="l"/><path d="M544 14C232 14 75-190 75-509c0-226 105-376 267-447 57-25 122-37 193-37 265 0 410 167 410 437 0 47-2 68-42 68H249c7 217 94 359 310 364 110 2 183-39 248-80 70-44 93 39 123 67C847-42 716 14 544 14zm243-610c-5-164-86-266-249-269-173-3-262 113-284 269h533" id="m"/><g id="a"><use transform="matrix(0.010849609375,0,0,0.010849609375,0,0)" xlink:href="#g"/><use transform="matrix(0.010849609375,0,0,0.010849609375,11.47888671875,0)" xlink:href="#h"/><use transform="matrix(0.010849609375,0,0,0.010849609375,18.867470703125,0)" xlink:href="#i"/><use transform="matrix(0.010849609375,0,0,0.010849609375,30.585048828125,0)" xlink:href="#j"/><use transform="matrix(0.010849609375,0,0,0.010849609375,37.3660546875,0)" xlink:href="#k"/><use transform="matrix(0.010849609375,0,0,0.010849609375,42.465371093749994,0)" xlink:href="#l"/><use transform="matrix(0.010849609375,0,0,0.010849609375,47.56468749999999,0)" xlink:href="#m"/></g><path d="M969-949c0 213-127 324-301 372 24 16 43 33 61 57L1082 0c-87-8-195 23-235-37L536-505c-21-29-36-41-85-41H329V0H147v-1314h360c275 2 462 97 462 365zM500-679c179-3 292-82 292-257 0-157-95-235-285-235H329v492h171" id="n"/><path d="M95-709c0-188 136-281 332-284 128-2 226 47 291 114-25 33-46 112-108 74-47-29-100-60-179-58-97 2-169 47-169 140 0 121 140 131 235 168 118 46 235 94 235 255C732-91 595 11 381 15 247 17 139-38 70-104c26-39 56-126 124-80 51 35 104 76 195 74 109-2 179-54 179-159 0-126-138-136-236-173C209-488 95-543 95-709" id="o"/><path d="M450 15c-223 0-325-146-325-370v-623h176v623c0 141 61 233 200 231 119-1 195-63 259-133v-721h176V0c-55-7-141 23-150-36l-16-104C692-57 602 15 450 15" id="p"/><path d="M69-490c0-299 140-503 438-503 143 0 234 53 308 127-20 26-37 58-61 80-40 18-64-17-93-32-37-19-81-40-143-39-201 7-269 160-269 367 0 204 66 360 261 368 96 4 149-38 198-81 21-19 50-20 67 2l51 64C751-46 640 14 479 14 199 14 69-199 69-490" id="q"/><g id="b"><use transform="matrix(0.010849609375,0,0,0.010849609375,0,0)" xlink:href="#n"/><use transform="matrix(0.010849609375,0,0,0.010849609375,11.674179687499999,0)" xlink:href="#m"/><use transform="matrix(0.010849609375,0,0,0.010849609375,22.729931640624997,0)" xlink:href="#o"/><use transform="matrix(0.010849609375,0,0,0.010849609375,31.420468749999998,0)" xlink:href="#i"/><use transform="matrix(0.010849609375,0,0,0.010849609375,43.138046875,0)" xlink:href="#p"/><use transform="matrix(0.010849609375,0,0,0.010849609375,54.812226562499994,0)" xlink:href="#h"/><use transform="matrix(0.010849609375,0,0,0.010849609375,62.233359375,0)" xlink:href="#q"/><use transform="matrix(0.010849609375,0,0,0.010849609375,71.62912109375,0)" xlink:href="#m"/></g><path d="M1148-926c58 156 58 382 0 538C1064-162 892 0 593 0H139v-1314h454c298 6 472 162 555 388zM976-442c38-121 39-309 0-430-55-171-167-295-383-295H322v1020c157-7 329 19 441-35 105-50 176-139 213-260" id="r"/><path d="M581 14c-127 0-201-47-264-114v430H141V-978c55 7 141-23 150 36l17 114c76-89 171-167 326-167 271 0 368 217 368 499 0 229-91 393-245 471-52 26-111 39-176 39zm240-510c-2-202-50-358-245-358-128 0-197 66-259 146v472c53 73 114 114 225 114 198 0 281-159 279-374" id="s"/><path d="M650-73c-53 51-136 87-233 88-153 0-235-95-235-251v-596c-55-8-148 24-148-39v-70l154-20 41-301c4-50 80-28 129-33v335h269v128H358v584c-2 72 34 118 99 120 56 2 78-32 116-46 15 0 19 7 25 17" id="t"/><g id="c"><use transform="matrix(0.010849609375,0,0,0.010849609375,0,0)" xlink:href="#r"/><use transform="matrix(0.010849609375,0,0,0.010849609375,13.670507812499999,0)" xlink:href="#m"/><use transform="matrix(0.010849609375,0,0,0.010849609375,24.726259765625,0)" xlink:href="#o"/><use transform="matrix(0.010849609375,0,0,0.010849609375,33.416796874999996,0)" xlink:href="#q"/><use transform="matrix(0.010849609375,0,0,0.010849609375,42.81255859375,0)" xlink:href="#h"/><use transform="matrix(0.010849609375,0,0,0.010849609375,50.5591796875,0)" xlink:href="#k"/><use transform="matrix(0.010849609375,0,0,0.010849609375,55.658496093749996,0)" xlink:href="#s"/><use transform="matrix(0.010849609375,0,0,0.010849609375,67.235029296875,0)" xlink:href="#t"/><use transform="matrix(0.010849609375,0,0,0.010849609375,74.46086914062501,0)" xlink:href="#i"/><use transform="matrix(0.010849609375,0,0,0.010849609375,86.17844726562501,0)" xlink:href="#h"/></g><path d="M492-995c127 0 201 45 264 114v-541h176V0c-55-7-141 23-150-36l-18-117C688-64 595 14 440 14 170 14 74-204 74-486c0-228 88-392 242-470 52-26 111-39 176-39zM255-486c2 201 49 359 242 359 130 0 195-67 259-146v-473c-54-73-114-114-224-114-197 0-279 159-277 374" id="u"/><path d="M514-995c228 0 341 142 341 370V0c-56-5-123 17-137-41l-22-91C610-53 522 18 358 15 189 12 84-73 84-244c0-178 154-235 319-276 76-19 169-27 280-30 12-176-30-304-190-304-107 0-171 42-231 86-34 25-81 14-98-16l-32-56c98-93 207-155 382-155zM253-253c0 98 61 145 158 145 133 0 205-61 272-130v-202c-134 6-246 19-333 58-57 26-97 59-97 129" id="v"/><path d="M271-232c74 0 125 50 125 125 0 74-52 123-125 123S149-34 149-107c0-74 48-125 122-125zm-6-678c74 0 125 50 125 125 0 74-52 123-125 123s-122-50-122-123c0-74 48-125 122-125" id="w"/><g id="d"><use transform="matrix(0.010849609375,0,0,0.010849609375,0,0)" xlink:href="#u"/><use transform="matrix(0.010849609375,0,0,0.010849609375,11.674179687499999,0)" xlink:href="#q"/><use transform="matrix(0.010849609375,0,0,0.010849609375,20.885498046875,0)" xlink:href="#v"/><use transform="matrix(0.010849609375,0,0,0.010849609375,31.322822265625,0)" xlink:href="#t"/><use transform="matrix(0.010849609375,0,0,0.010849609375,38.765654296875,0)" xlink:href="#w"/></g><g id="e"><use transform="matrix(0.010849609375,0,0,0.010849609375,0,0)" xlink:href="#n"/><use transform="matrix(0.010849609375,0,0,0.010849609375,11.674179687499999,0)" xlink:href="#m"/><use transform="matrix(0.010849609375,0,0,0.010849609375,22.729931640624997,0)" xlink:href="#o"/><use transform="matrix(0.010849609375,0,0,0.010849609375,31.420468749999998,0)" xlink:href="#i"/><use transform="matrix(0.010849609375,0,0,0.010849609375,43.138046875,0)" xlink:href="#p"/><use transform="matrix(0.010849609375,0,0,0.010849609375,54.812226562499994,0)" xlink:href="#h"/><use transform="matrix(0.010849609375,0,0,0.010849609375,62.233359375,0)" xlink:href="#q"/><use transform="matrix(0.010849609375,0,0,0.010849609375,71.62912109375,0)" xlink:href="#m"/></g><path d="M586 14c-139 0-211-58-275-138-12 47 7 124-53 124H144v-1422h176v583c74-85 165-154 314-154 264 0 368 206 368 479 0 238-85 409-243 490-51 25-109 38-173 38zm235-522c0-208-63-346-246-346-127 0-194 66-255 146v472c53 73 113 114 222 114 204 0 279-159 279-386" id="x"/><path d="M575-854c-119 2-197 63-259 134V0H140v-978c55 7 141-23 150 36l15 104c78-83 170-155 321-155 223 0 325 146 325 370V0H775v-623c0-140-61-233-200-231" id="y"/><g id="f"><use transform="matrix(0.010849609375,0,0,0.010849609375,0,0)" xlink:href="#r"/><use transform="matrix(0.010849609375,0,0,0.010849609375,13.670507812499999,0)" xlink:href="#k"/><use transform="matrix(0.010849609375,0,0,0.010849609375,18.76982421875,0)" xlink:href="#o"/><use transform="matrix(0.010849609375,0,0,0.010849609375,27.210820312499997,0)" xlink:href="#t"/><use transform="matrix(0.010849609375,0,0,0.010849609375,34.65365234375,0)" xlink:href="#h"/><use transform="matrix(0.010849609375,0,0,0.010849609375,42.4002734375,0)" xlink:href="#k"/><use transform="matrix(0.010849609375,0,0,0.010849609375,47.499589843749995,0)" xlink:href="#x"/><use transform="matrix(0.010849609375,0,0,0.010849609375,59.173769531249995,0)" xlink:href="#p"/><use transform="matrix(0.010849609375,0,0,0.010849609375,70.84794921874999,0)" xlink:href="#t"/><use transform="matrix(0.010849609375,0,0,0.010849609375,78.29078125,0)" xlink:href="#k"/><use transform="matrix(0.010849609375,0,0,0.010849609375,83.39009765624999,0)" xlink:href="#i"/><use transform="matrix(0.010849609375,0,0,0.010849609375,95.10767578125,0)" xlink:href="#y"/></g></defs></g></svg>