<svg xmlns="http://www.w3.org/2000/svg" xmlns:xlink="http://www.w3.org/1999/xlink" xmlns:lucid="lucid" width="587.33" height="187.34"><g transform="translate(0 0)" lucid:page-tab-id="W_D3NV3okIRq"><path d="M0 0h587.33v187.34H0z" fill="#fff"/><path d="M538.18 114.1l-.3.72-.7.3h-39V114h38.78l.08-.03.03-.1V46.64h1.1zm-.3-99.36l.3.7v9.6h-1.1v-9.37l-.04-.08-.08-.04H401.73l-.08.03-.03.07V54h-1.1V15.44l.28-.7.7-.3H537.2z"/><path d="M498.2 115.1h-.57V114h.57zM411.72 36.98L401.06 55 390.4 36.98l.96-.57 9.7 16.42 9.7-16.4z"/><use xlink:href="#a" transform="matrix(1,0,0,1,492.2510000000001,25.03333333333327) translate(0 14.4)"/><path d="M182.9 55.5H29.2C18.66 55.5 10 64.12 10 74.75v79.6c0 10.64 8.65 19.26 19.2 19.26h153.7c10.58 0 19.23-8.6 19.23-19.24v-79.6c0-10.64-8.65-19.26-19.22-19.26z" stroke="#000" fill="#a5a5a5"/><use xlink:href="#b" transform="matrix(1,0,0,1,18.83779600003226,64.35825000156969) translate(58.189780273437506 56.055)"/><path d="M477.9 55.5H324.2c-10.55 0-19.2 8.62-19.2 19.25v79.6c0 10.64 8.65 19.26 19.2 19.26h153.7c10.58 0 19.23-8.6 19.23-19.24v-79.6c0-10.64-8.65-19.26-19.22-19.26z" stroke="#000" fill="#fff"/><use xlink:href="#c" transform="matrix(1,0,0,1,313.8377960000323,64.35825000156974) translate(68.220244140625 42.723)"/><use xlink:href="#d" transform="matrix(1,0,0,1,313.8377960000323,64.35825000156974) translate(46.271484375 69.387)"/><path d="M243.18 114.1l-.3.72-.7.3h-39V114h38.78l.08-.03.03-.1V46.64h1.1zm-.3-99.36l.3.7v9.6h-1.1v-9.37l-.04-.08-.08-.04H106.73l-.08.03-.03.07V54h-1.1V15.44l.28-.7.7-.3H242.2z"/><path d="M203.2 115.1h-.57V114h.57zM116.72 36.98L106.06 55 95.4 36.98l.96-.57 9.7 16.42 9.7-16.4z"/><use xlink:href="#e" transform="matrix(1,0,0,1,199.226,25.033333333333257) translate(0 14.4)"/><use xlink:href="#f" transform="matrix(1,0,0,1,199.226,25.033333333333257) translate(17.95 14.4)"/><use xlink:href="#g" transform="matrix(1,0,0,1,199.226,25.033333333333257) translate(71.8 14.4)"/><defs><path d="M100-194c62-1 85 37 85 99 1 63-27 99-86 99S16-35 15-95c0-66 28-99 85-99zM99-20c44 1 53-31 53-75 0-43-8-75-51-75s-53 32-53 75 10 74 51 75" id="h"/><path d="M206 0h-36l-40-164L89 0H53L-1-190h32L70-26l43-164h34l41 164 42-164h31" id="i"/><path d="M24 0v-261h32V0H24" id="j"/><path d="M33-154v-36h34v36H33zM33 0v-36h34V0H33" id="k"/><path d="M24-231v-30h32v30H24zM24 0v-190h32V0H24" id="l"/><path d="M210-169c-67 3-38 105-44 169h-31v-121c0-29-5-50-35-48C34-165 62-65 56 0H25l-1-190h30c1 10-1 24 2 32 10-44 99-50 107 0 11-21 27-35 58-36 85-2 47 119 55 194h-31v-121c0-29-5-49-35-48" id="m"/><path d="M115-194c55 1 70 41 70 98S169 2 115 4C84 4 66-9 55-30l1 105H24l-1-265h31l2 30c10-21 28-34 59-34zm-8 174c40 0 45-34 45-75s-6-73-45-74c-42 0-51 32-51 76 0 43 10 73 51 73" id="n"/><path d="M114-163C36-179 61-72 57 0H25l-1-190h30c1 12-1 29 2 39 6-27 23-49 58-41v29" id="o"/><path d="M59-47c-2 24 18 29 38 22v24C64 9 27 4 27-40v-127H5v-23h24l9-43h21v43h35v23H59v120" id="p"/><path d="M135-143c-3-34-86-38-87 0 15 53 115 12 119 90S17 21 10-45l28-5c4 36 97 45 98 0-10-56-113-15-118-90-4-57 82-63 122-42 12 7 21 19 24 35" id="q"/><g id="a"><use transform="matrix(0.05,0,0,0.05,0,0)" xlink:href="#h"/><use transform="matrix(0.05,0,0,0.05,10,0)" xlink:href="#i"/><use transform="matrix(0.05,0,0,0.05,22.950000000000003,0)" xlink:href="#j"/><use transform="matrix(0.05,0,0,0.05,26.900000000000002,0)" xlink:href="#k"/><use transform="matrix(0.05,0,0,0.05,31.900000000000002,0)" xlink:href="#l"/><use transform="matrix(0.05,0,0,0.05,35.85,0)" xlink:href="#m"/><use transform="matrix(0.05,0,0,0.05,50.800000000000004,0)" xlink:href="#n"/><use transform="matrix(0.05,0,0,0.05,60.800000000000004,0)" xlink:href="#h"/><use transform="matrix(0.05,0,0,0.05,70.80000000000001,0)" xlink:href="#o"/><use transform="matrix(0.05,0,0,0.05,76.75000000000001,0)" xlink:href="#p"/><use transform="matrix(0.05,0,0,0.05,81.75000000000001,0)" xlink:href="#q"/></g><path d="M994-906c0 279-183 411-470 416H329V0H147v-1314h377c290 3 470 124 470 408zm-182 0c0-176-103-265-288-265H329v537h195c180-4 288-94 288-272" id="r"/><path d="M536-823c-141 7-187 99-229 205V0H131v-978c60 8 148-26 154 48l12 144c58-123 149-234 328-202 18 3 34 11 49 21l-14 130c-12 52-78 12-124 14" id="s"/><path d="M75-490c0-310 160-503 466-503s464 194 464 503c0 310-158 504-464 504C234 14 75-180 75-490zm181 1c0 215 74 366 285 366 210 0 283-152 283-366s-74-367-283-367c-211 0-285 152-285 367" id="t"/><path d="M523-1269c-167-5-192 134-183 309h263v128H346V0H170v-831c-44-9-102-4-133-26-23-17-9-67-13-103h146c-18-271 76-439 324-444 44 0 83 8 117 19-9 39 11 106-29 113-15 2-34 3-59 3" id="u"/><path d="M323-978V0H147v-978h176zm-91-431c74 0 125 50 125 125 0 74-52 123-125 123s-122-50-122-123c0-74 48-125 122-125" id="v"/><path d="M323-1422V0H147v-1422h176" id="w"/><path d="M544 14C232 14 75-190 75-509c0-226 105-376 267-447 57-25 122-37 193-37 265 0 410 167 410 437 0 47-2 68-42 68H249c7 217 94 359 310 364 110 2 183-39 248-80 70-44 93 39 123 67C847-42 716 14 544 14zm243-610c-5-164-86-266-249-269-173-3-262 113-284 269h533" id="x"/><g id="b"><use transform="matrix(0.010849609375,0,0,0.010849609375,0,0)" xlink:href="#r"/><use transform="matrix(0.010849609375,0,0,0.010849609375,11.47888671875,0)" xlink:href="#s"/><use transform="matrix(0.010849609375,0,0,0.010849609375,18.867470703125,0)" xlink:href="#t"/><use transform="matrix(0.010849609375,0,0,0.010849609375,30.585048828125,0)" xlink:href="#u"/><use transform="matrix(0.010849609375,0,0,0.010849609375,37.3660546875,0)" xlink:href="#v"/><use transform="matrix(0.010849609375,0,0,0.010849609375,42.465371093749994,0)" xlink:href="#w"/><use transform="matrix(0.010849609375,0,0,0.010849609375,47.56468749999999,0)" xlink:href="#x"/></g><path d="M21-978c68 8 173-25 191 37 66 230 131 458 192 691 6 21 9 43 12 64 75-256 159-506 233-760 13-43 73-33 125-34 27 0 43 14 50 34 75 254 156 502 227 760 7-43 18-87 31-132l179-624c15-59 116-29 182-36L1136 0H996c-17 0-28-11-35-33-73-235-147-469-219-705-4-15-7-30-10-45-7 32-14 62-23 92L501-33C485 26 391-10 329 0" id="y"/><path d="M271-232c74 0 125 50 125 125 0 74-52 123-125 123S149-34 149-107c0-74 48-125 122-125zm-6-678c74 0 125 50 125 125 0 74-52 123-125 123s-122-50-122-123c0-74 48-125 122-125" id="z"/><g id="c"><use transform="matrix(0.010849609375,0,0,0.010849609375,0,0)" xlink:href="#t"/><use transform="matrix(0.010849609375,0,0,0.010849609375,11.63078125,0)" xlink:href="#y"/><use transform="matrix(0.010849609375,0,0,0.010849609375,27.514609375,0)" xlink:href="#w"/><use transform="matrix(0.010849609375,0,0,0.010849609375,32.613925781249996,0)" xlink:href="#z"/></g><path d="M1240-928c58 159 58 383 0 542-85 230-258 400-561 400S201-157 116-386c-59-159-59-383 0-542 86-230 259-401 563-401s477 171 561 401zm-172 486c38-122 39-308 0-430-56-173-170-300-389-300-293 0-420 215-420 515 0 237 85 404 247 479 99 47 246 46 346 0 107-49 178-142 216-264" id="A"/><path d="M575-854c-119 2-197 63-259 134V0H140v-978c55 7 141-23 150 36l15 104c78-83 170-155 321-155 223 0 325 146 325 370V0H775v-623c0-140-61-233-200-231" id="B"/><path d="M650-73c-53 51-136 87-233 88-153 0-235-95-235-251v-596c-55-8-148 24-148-39v-70l154-20 41-301c4-50 80-28 129-33v335h269v128H358v584c-2 72 34 118 99 120 56 2 78-32 116-46 15 0 19 7 25 17" id="C"/><path d="M107-679c0-208 143-315 355-315 85 0 156 21 210 54h256c-2 50 12 98-40 106l-104 15c21 43 31 89 31 140 0 207-143 315-353 315-43 0-82-5-118-15-46 21-87 104-30 135 178 96 598-48 598 268 0 166-119 253-254 300-155 54-396 24-493-50-56-42-101-97-101-181 0-110 73-167 160-201-52-25-92-64-89-140 3-77 56-136 120-167-84-50-148-136-148-264zm369 904c144 0 274-38 274-172C750-83 557-56 422-70c-32-3-63-4-93-9C273-48 218-8 218 71c0 125 123 154 258 154zM268-675c2 124 69 192 194 195 124 3 196-76 196-195 0-121-71-194-196-194-123 0-196 74-194 194" id="D"/><path d="M409 288c-14 65-120 35-192 42L385-58 11-978h152c30-1 46 16 53 36 86 232 175 459 256 696 80-235 169-463 250-696 20-58 122-29 191-36" id="E"/><g id="d"><use transform="matrix(0.010849609375,0,0,0.010849609375,0,0)" xlink:href="#A"/><use transform="matrix(0.010849609375,0,0,0.010849609375,14.7120703125,0)" xlink:href="#B"/><use transform="matrix(0.010849609375,0,0,0.010849609375,26.180107421875,0)" xlink:href="#C"/><use transform="matrix(0.010849609375,0,0,0.010849609375,33.405947265625,0)" xlink:href="#t"/><use transform="matrix(0.010849609375,0,0,0.010849609375,45.123525390625005,0)" xlink:href="#w"/><use transform="matrix(0.010849609375,0,0,0.010849609375,50.222841796874995,0)" xlink:href="#t"/><use transform="matrix(0.010849609375,0,0,0.010849609375,61.940419921875005,0)" xlink:href="#D"/><use transform="matrix(0.010849609375,0,0,0.010849609375,72.399443359375,0)" xlink:href="#E"/></g><g id="e"><use transform="matrix(0.05,0,0,0.05,0,0)" xlink:href="#l"/><use transform="matrix(0.05,0,0,0.05,3.95,0)" xlink:href="#q"/></g><path d="M101-234c-31-9-42 10-38 44h38v23H63V0H32v-167H5v-23h27c-7-52 17-82 69-68v24" id="F"/><path d="M100-194c63 0 86 42 84 106H49c0 40 14 67 53 68 26 1 43-12 49-29l28 8c-11 28-37 45-77 45C44 4 14-33 15-96c1-61 26-98 85-98zm52 81c6-60-76-77-97-28-3 7-6 17-6 28h103" id="G"/><g id="f"><use transform="matrix(0.05,0,0,0.05,0,0)" xlink:href="#n"/><use transform="matrix(0.05,0,0,0.05,10,0)" xlink:href="#o"/><use transform="matrix(0.05,0,0,0.05,15.949999999999998,0)" xlink:href="#h"/><use transform="matrix(0.05,0,0,0.05,25.950000000000003,0)" xlink:href="#F"/><use transform="matrix(0.05,0,0,0.05,30.950000000000003,0)" xlink:href="#l"/><use transform="matrix(0.05,0,0,0.05,34.9,0)" xlink:href="#j"/><use transform="matrix(0.05,0,0,0.05,38.85,0)" xlink:href="#G"/></g><g id="g"><use transform="matrix(0.05,0,0,0.05,0,0)" xlink:href="#h"/><use transform="matrix(0.05,0,0,0.05,10,0)" xlink:href="#F"/></g></defs></g></svg>