<svg xmlns="http://www.w3.org/2000/svg" xmlns:xlink="http://www.w3.org/1999/xlink" xmlns:lucid="lucid" width="214" height="334.01"><g transform="translate(0 0)" lucid:page-tab-id="JxH35Fq1wOQV"><path d="M0 0h214v334H0z" fill="#fff"/><path d="M185.28 10H31.58c-10.56 0-19.2 8.62-19.2 19.25v79.6c0 10.64 8.64 19.26 19.2 19.26h153.7c10.57 0 19.22-8.6 19.22-19.24v-79.6c0-10.64-8.65-19.26-19.22-19.26z" stroke="#000" fill="#fff"/><use xlink:href="#a" transform="matrix(1,0,0,1,21.207795999858945,18.858250001569772) translate(65.30169921875 42.723)"/><use xlink:href="#b" transform="matrix(1,0,0,1,21.207795999858945,18.858250001569772) translate(50.144794921875 69.387)"/><path d="M182.9 206.7H29.2c-10.55 0-19.2 8.62-19.2 19.25v79.6c0 10.64 8.65 19.26 19.2 19.26h153.7c10.58 0 19.23-8.6 19.23-19.24v-79.6c0-10.64-8.65-19.26-19.22-19.26z" stroke="#000" fill="#a5a5a5"/><use xlink:href="#c" transform="matrix(1,0,0,1,18.83779600003226,215.55724998063994) translate(23.9050146484375 56.055)"/><use xlink:href="#d" transform="matrix(1,0,0,1,18.83779600003226,215.55724998063994) translate(111.61325683593749 56.055)"/><path d="M108.43 205.7V145" stroke="#000" fill="none"/><path d="M108.93 206.2h-1v-.5h1z"/><path d="M113.07 144.5h-9.27l4.63-14.27z" fill="#fff"/><path d="M113.76 145H103.1l5.33-16.4zm-9.27-1h7.88l-3.95-12.15z"/><defs><path d="M95-709c0-188 136-281 332-284 128-2 226 47 291 114-25 33-46 112-108 74-47-29-100-60-179-58-97 2-169 47-169 140 0 121 140 131 235 168 118 46 235 94 235 255C732-91 595 11 381 15 247 17 139-38 70-104c26-39 56-126 124-80 51 35 104 76 195 74 109-2 179-54 179-159 0-126-138-136-236-173C209-488 95-543 95-709" id="e"/><path d="M304-1422v836c44 0 73 1 95-27l260-331c33-56 146-27 227-34L579-593c-18 19-36 36-58 50 24 15 42 36 58 59L906 0c-79-8-188 23-224-33L415-434c-19-25-25-32-66-33h-45V0H128v-1422h176" id="f"/><path d="M75-490c0-310 160-503 466-503s464 194 464 503c0 310-158 504-464 504C234 14 75-180 75-490zm181 1c0 215 74 366 285 366 210 0 283-152 283-366s-74-367-283-367c-211 0-285 152-285 367" id="g"/><path d="M271-232c74 0 125 50 125 125 0 74-52 123-125 123S149-34 149-107c0-74 48-125 122-125zm-6-678c74 0 125 50 125 125 0 74-52 123-125 123s-122-50-122-123c0-74 48-125 122-125" id="h"/><g id="a"><use transform="matrix(0.010849609375,0,0,0.010849609375,0,0)" xlink:href="#e"/><use transform="matrix(0.010849609375,0,0,0.010849609375,8.690537109374999,0)" xlink:href="#f"/><use transform="matrix(0.010849609375,0,0,0.010849609375,18.042900390625,0)" xlink:href="#g"/><use transform="matrix(0.010849609375,0,0,0.010849609375,29.760478515625,0)" xlink:href="#e"/><use transform="matrix(0.010849609375,0,0,0.010849609375,38.451015625,0)" xlink:href="#h"/></g><path d="M1052-184C961-66 832 17 628 14c-289-4-447-172-522-398-53-160-53-388 3-546 81-226 241-394 534-399 180-3 301 72 392 167-25 33-46 70-75 99-51 21-73-33-114-51-77-60-256-80-362-23-152 81-231 248-231 480 0 233 83 400 235 481 113 60 301 37 376-30 33-15 74-101 116-56" id="i"/><path d="M575-854c-119 2-197 63-259 134V0H140v-978c55 7 141-23 150 36l15 104c78-83 170-155 321-155 223 0 325 146 325 370V0H775v-623c0-140-61-233-200-231" id="j"/><path d="M69-490c0-299 140-503 438-503 143 0 234 53 308 127-20 26-37 58-61 80-40 18-64-17-93-32-37-19-81-40-143-39-201 7-269 160-269 367 0 204 66 360 261 368 96 4 149-38 198-81 21-19 50-20 67 2l51 64C751-46 640 14 479 14 199 14 69-199 69-490" id="k"/><path d="M544 14C232 14 75-190 75-509c0-226 105-376 267-447 57-25 122-37 193-37 265 0 410 167 410 437 0 47-2 68-42 68H249c7 217 94 359 310 364 110 2 183-39 248-80 70-44 93 39 123 67C847-42 716 14 544 14zm243-610c-5-164-86-266-249-269-173-3-262 113-284 269h533" id="l"/><path d="M581 14c-127 0-201-47-264-114v430H141V-978c55 7 141-23 150 36l17 114c76-89 171-167 326-167 271 0 368 217 368 499 0 229-91 393-245 471-52 26-111 39-176 39zm240-510c-2-202-50-358-245-358-128 0-197 66-259 146v472c53 73 114 114 225 114 198 0 281-159 279-374" id="m"/><path d="M650-73c-53 51-136 87-233 88-153 0-235-95-235-251v-596c-55-8-148 24-148-39v-70l154-20 41-301c4-50 80-28 129-33v335h269v128H358v584c-2 72 34 118 99 120 56 2 78-32 116-46 15 0 19 7 25 17" id="n"/><g id="b"><use transform="matrix(0.010849609375,0,0,0.010849609375,0,0)" xlink:href="#i"/><use transform="matrix(0.010849609375,0,0,0.010849609375,11.847773437499999,0)" xlink:href="#g"/><use transform="matrix(0.010849609375,0,0,0.010849609375,23.5653515625,0)" xlink:href="#j"/><use transform="matrix(0.010849609375,0,0,0.010849609375,35.23953125,0)" xlink:href="#k"/><use transform="matrix(0.010849609375,0,0,0.010849609375,44.63529296875,0)" xlink:href="#l"/><use transform="matrix(0.010849609375,0,0,0.010849609375,55.691044921875005,0)" xlink:href="#m"/><use transform="matrix(0.010849609375,0,0,0.010849609375,67.267578125,0)" xlink:href="#n"/></g><path d="M969-949c0 213-127 324-301 372 24 16 43 33 61 57L1082 0c-87-8-195 23-235-37L536-505c-21-29-36-41-85-41H329V0H147v-1314h360c275 2 462 97 462 365zM500-679c179-3 292-82 292-257 0-157-95-235-285-235H329v492h171" id="o"/><path d="M450 15c-223 0-325-146-325-370v-623h176v623c0 141 61 233 200 231 119-1 195-63 259-133v-721h176V0c-55-7-141 23-150-36l-16-104C692-57 602 15 450 15" id="p"/><path d="M536-823c-141 7-187 99-229 205V0H131v-978c60 8 148-26 154 48l12 144c58-123 149-234 328-202 18 3 34 11 49 21l-14 130c-12 52-78 12-124 14" id="q"/><g id="c"><use transform="matrix(0.010849609375,0,0,0.010849609375,0,0)" xlink:href="#o"/><use transform="matrix(0.010849609375,0,0,0.010849609375,11.674179687499999,0)" xlink:href="#l"/><use transform="matrix(0.010849609375,0,0,0.010849609375,22.729931640624997,0)" xlink:href="#e"/><use transform="matrix(0.010849609375,0,0,0.010849609375,31.420468749999998,0)" xlink:href="#g"/><use transform="matrix(0.010849609375,0,0,0.010849609375,43.138046875,0)" xlink:href="#p"/><use transform="matrix(0.010849609375,0,0,0.010849609375,54.812226562499994,0)" xlink:href="#q"/><use transform="matrix(0.010849609375,0,0,0.010849609375,62.233359375,0)" xlink:href="#k"/><use transform="matrix(0.010849609375,0,0,0.010849609375,71.62912109375,0)" xlink:href="#l"/></g><path d="M323-1422V0H147v-1422h176" id="r"/><g id="d"><use transform="matrix(0.010849609375,0,0,0.010849609375,0,0)" xlink:href="#o"/><use transform="matrix(0.010849609375,0,0,0.010849609375,11.609082031249999,0)" xlink:href="#g"/><use transform="matrix(0.010849609375,0,0,0.010849609375,23.32666015625,0)" xlink:href="#r"/><use transform="matrix(0.010849609375,0,0,0.010849609375,28.425976562499997,0)" xlink:href="#l"/></g></defs></g></svg>