<svg version="1.1" viewBox="0.0 0.0 600.0 371.0" fill="none" stroke="none" stroke-linecap="square" stroke-miterlimit="10" width="600" height="371" xmlns:xlink="http://www.w3.org/1999/xlink" xmlns="http://www.w3.org/2000/svg"><path fill="#ffffff" d="M0 0L600.0 0L600.0 371.0L0 371.0L0 0Z" fill-rule="nonzero"/><path stroke="#333333" stroke-width="1.0" stroke-linecap="butt" d="M45.5 315.5L581.5 315.5" fill-rule="nonzero"/><path stroke="#cccccc" stroke-width="1.0" stroke-linecap="butt" d="M45.5 250.5L581.5 250.5" fill-rule="nonzero"/><path stroke="#cccccc" stroke-width="1.0" stroke-linecap="butt" d="M45.5 184.5L581.5 184.5" fill-rule="nonzero"/><path stroke="#cccccc" stroke-width="1.0" stroke-linecap="butt" d="M45.5 118.5L581.5 118.5" fill-rule="nonzero"/><path stroke="#cccccc" stroke-width="1.0" stroke-linecap="butt" d="M45.5 53.5L581.5 53.5" fill-rule="nonzero"/><clipPath id="id_0"><path d="M45.55 53.416668L581.45 53.416668L581.45 315.69086L45.55 315.69086L45.55 53.416668Z" clip-rule="nonzero"/></clipPath><path stroke="#000000" stroke-width="2.0" stroke-linecap="butt" stroke-opacity="0.0" clip-path="url(#id_0)" d="M73.0 316.0L55.0 316.0L55.0 119.0L73.0 119.0Z" fill-rule="nonzero"/><path fill="#4285f4" clip-path="url(#id_0)" d="M73.0 316.0L55.0 316.0L55.0 119.0L73.0 119.0Z" fill-rule="nonzero"/><path stroke="#000000" stroke-width="2.0" stroke-linecap="butt" stroke-opacity="0.0" clip-path="url(#id_0)" d="M101.0 316.0L83.0 316.0L83.0 119.0L101.0 119.0Z" fill-rule="nonzero"/><path fill="#4285f4" clip-path="url(#id_0)" d="M101.0 316.0L83.0 316.0L83.0 119.0L101.0 119.0Z" fill-rule="nonzero"/><path stroke="#000000" stroke-width="2.0" stroke-linecap="butt" stroke-opacity="0.0" clip-path="url(#id_0)" d="M129.0 316.0L111.0 316.0L111.0 119.0L129.0 119.0Z" fill-rule="nonzero"/><path fill="#4285f4" clip-path="url(#id_0)" d="M129.0 316.0L111.0 316.0L111.0 119.0L129.0 119.0Z" fill-rule="nonzero"/><path stroke="#000000" stroke-width="2.0" stroke-linecap="butt" stroke-opacity="0.0" clip-path="url(#id_0)" d="M156.0 316.0L138.0 316.0L138.0 53.0L156.0 53.0Z" fill-rule="nonzero"/><path fill="#4285f4" clip-path="url(#id_0)" d="M156.0 316.0L138.0 316.0L138.0 53.0L156.0 53.0Z" fill-rule="nonzero"/><path stroke="#000000" stroke-width="2.0" stroke-linecap="butt" stroke-opacity="0.0" clip-path="url(#id_0)" d="M184.0 316.0L166.0 316.0L166.0 53.0L184.0 53.0Z" fill-rule="nonzero"/><path fill="#4285f4" clip-path="url(#id_0)" d="M184.0 316.0L166.0 316.0L166.0 53.0L184.0 53.0Z" fill-rule="nonzero"/><path stroke="#000000" stroke-width="2.0" stroke-linecap="butt" stroke-opacity="0.0" clip-path="url(#id_0)" d="M212.0 316.0L194.0 316.0L194.0 185.0L212.0 185.0Z" fill-rule="nonzero"/><path fill="#4285f4" clip-path="url(#id_0)" d="M212.0 316.0L194.0 316.0L194.0 185.0L212.0 185.0Z" fill-rule="nonzero"/><path stroke="#000000" stroke-width="2.0" stroke-linecap="butt" stroke-opacity="0.0" clip-path="url(#id_0)" d="M239.0 316.0L221.0 316.0L221.0 250.0L239.0 250.0Z" fill-rule="nonzero"/><path fill="#4285f4" clip-path="url(#id_0)" d="M239.0 316.0L221.0 316.0L221.0 250.0L239.0 250.0Z" fill-rule="nonzero"/><path stroke="#000000" stroke-width="2.0" stroke-linecap="butt" stroke-opacity="0.0" clip-path="url(#id_0)" d="M267.0 316.0L249.0 316.0L249.0 53.0L267.0 53.0Z" fill-rule="nonzero"/><path fill="#4285f4" clip-path="url(#id_0)" d="M267.0 316.0L249.0 316.0L249.0 53.0L267.0 53.0Z" fill-rule="nonzero"/><path stroke="#000000" stroke-width="2.0" stroke-linecap="butt" stroke-opacity="0.0" clip-path="url(#id_0)" d="M295.0 316.0L277.0 316.0L277.0 185.0L295.0 185.0Z" fill-rule="nonzero"/><path fill="#4285f4" clip-path="url(#id_0)" d="M295.0 316.0L277.0 316.0L277.0 185.0L295.0 185.0Z" fill-rule="nonzero"/><path stroke="#000000" stroke-width="2.0" stroke-linecap="butt" stroke-opacity="0.0" clip-path="url(#id_0)" d="M323.0 316.0L305.0 316.0L305.0 250.0L323.0 250.0Z" fill-rule="nonzero"/><path fill="#4285f4" clip-path="url(#id_0)" d="M323.0 316.0L305.0 316.0L305.0 250.0L323.0 250.0Z" fill-rule="nonzero"/><path stroke="#000000" stroke-width="2.0" stroke-linecap="butt" stroke-opacity="0.0" clip-path="url(#id_0)" d="M350.0 316.0L332.0 316.0L332.0 53.0L350.0 53.0Z" fill-rule="nonzero"/><path fill="#4285f4" clip-path="url(#id_0)" d="M350.0 316.0L332.0 316.0L332.0 53.0L350.0 53.0Z" fill-rule="nonzero"/><path stroke="#000000" stroke-width="2.0" stroke-linecap="butt" stroke-opacity="0.0" clip-path="url(#id_0)" d="M378.0 316.0L360.0 316.0L360.0 53.0L378.0 53.0Z" fill-rule="nonzero"/><path fill="#4285f4" clip-path="url(#id_0)" d="M378.0 316.0L360.0 316.0L360.0 53.0L378.0 53.0Z" fill-rule="nonzero"/><path stroke="#000000" stroke-width="2.0" stroke-linecap="butt" stroke-opacity="0.0" clip-path="url(#id_0)" d="M406.0 316.0L388.0 316.0L388.0 53.0L406.0 53.0Z" fill-rule="nonzero"/><path fill="#4285f4" clip-path="url(#id_0)" d="M406.0 316.0L388.0 316.0L388.0 53.0L406.0 53.0Z" fill-rule="nonzero"/><path stroke="#000000" stroke-width="2.0" stroke-linecap="butt" stroke-opacity="0.0" clip-path="url(#id_0)" d="M433.0 316.0L415.0 316.0L415.0 250.0L433.0 250.0Z" fill-rule="nonzero"/><path fill="#4285f4" clip-path="url(#id_0)" d="M433.0 316.0L415.0 316.0L415.0 250.0L433.0 250.0Z" fill-rule="nonzero"/><path stroke="#000000" stroke-width="2.0" stroke-linecap="butt" stroke-opacity="0.0" clip-path="url(#id_0)" d="M461.0 316.0L443.0 316.0L443.0 185.0L461.0 185.0Z" fill-rule="nonzero"/><path fill="#4285f4" clip-path="url(#id_0)" d="M461.0 316.0L443.0 316.0L443.0 185.0L461.0 185.0Z" fill-rule="nonzero"/><path stroke="#000000" stroke-width="2.0" stroke-linecap="butt" stroke-opacity="0.0" clip-path="url(#id_0)" d="M489.0 316.0L471.0 316.0L471.0 119.0L489.0 119.0Z" fill-rule="nonzero"/><path fill="#4285f4" clip-path="url(#id_0)" d="M489.0 316.0L471.0 316.0L471.0 119.0L489.0 119.0Z" fill-rule="nonzero"/><path stroke="#000000" stroke-width="2.0" stroke-linecap="butt" stroke-opacity="0.0" clip-path="url(#id_0)" d="M516.0 316.0L498.0 316.0L498.0 53.0L516.0 53.0Z" fill-rule="nonzero"/><path fill="#4285f4" clip-path="url(#id_0)" d="M516.0 316.0L498.0 316.0L498.0 53.0L516.0 53.0Z" fill-rule="nonzero"/><path stroke="#000000" stroke-width="2.0" stroke-linecap="butt" stroke-opacity="0.0" clip-path="url(#id_0)" d="M544.0 316.0L526.0 316.0L526.0 53.0L544.0 53.0Z" fill-rule="nonzero"/><path fill="#4285f4" clip-path="url(#id_0)" d="M544.0 316.0L526.0 316.0L526.0 53.0L544.0 53.0Z" fill-rule="nonzero"/><path stroke="#000000" stroke-width="2.0" stroke-linecap="butt" stroke-opacity="0.0" clip-path="url(#id_0)" d="M572.0 316.0L554.0 316.0L554.0 53.0L572.0 53.0Z" fill-rule="nonzero"/><path fill="#4285f4" clip-path="url(#id_0)" d="M572.0 316.0L554.0 316.0L554.0 53.0L572.0 53.0Z" fill-rule="nonzero"/><path stroke="#000000" stroke-width="2.0" stroke-linecap="butt" stroke-opacity="0.0" clip-path="url(#id_0)" d="M73.0 119.0L55.0 119.0L55.0 119.0L73.0 119.0Z" fill-rule="nonzero"/><path fill="#db4437" clip-path="url(#id_0)" d="M73.0 119.0L55.0 119.0L55.0 119.0L73.0 119.0Z" fill-rule="nonzero"/><path stroke="#000000" stroke-width="2.0" stroke-linecap="butt" stroke-opacity="0.0" clip-path="url(#id_0)" d="M101.0 119.0L83.0 119.0L83.0 55.0C83.0 53.89543 83.89543 53.0 85.0 53.0L99.0 53.0C100.10457 53.0 101.0 53.89543 101.0 55.0Z" fill-rule="nonzero"/><path fill="#db4437" clip-path="url(#id_0)" d="M101.0 119.0L83.0 119.0L83.0 55.0C83.0 53.89543 83.89543 53.0 85.0 53.0L99.0 53.0C100.10457 53.0 101.0 53.89543 101.0 55.0Z" fill-rule="nonzero"/><path stroke="#000000" stroke-width="2.0" stroke-linecap="butt" stroke-opacity="0.0" clip-path="url(#id_0)" d="M129.0 119.0L111.0 119.0L111.0 55.0C111.0 53.89543 111.89543 53.0 113.0 53.0L127.0 53.0C128.10457 53.0 129.0 53.89543 129.0 55.0Z" fill-rule="nonzero"/><path fill="#db4437" clip-path="url(#id_0)" d="M129.0 119.0L111.0 119.0L111.0 55.0C111.0 53.89543 111.89543 53.0 113.0 53.0L127.0 53.0C128.10457 53.0 129.0 53.89543 129.0 55.0Z" fill-rule="nonzero"/><path stroke="#000000" stroke-width="2.0" stroke-linecap="butt" stroke-opacity="0.0" clip-path="url(#id_0)" d="M156.0 53.0L138.0 53.0L138.0 53.0L156.0 53.0Z" fill-rule="nonzero"/><path fill="#db4437" clip-path="url(#id_0)" d="M156.0 53.0L138.0 53.0L138.0 53.0L156.0 53.0Z" fill-rule="nonzero"/><path stroke="#000000" stroke-width="2.0" stroke-linecap="butt" stroke-opacity="0.0" clip-path="url(#id_0)" d="M184.0 53.0L166.0 53.0L166.0 53.0L184.0 53.0Z" fill-rule="nonzero"/><path fill="#db4437" clip-path="url(#id_0)" d="M184.0 53.0L166.0 53.0L166.0 53.0L184.0 53.0Z" fill-rule="nonzero"/><path stroke="#000000" stroke-width="2.0" stroke-linecap="butt" stroke-opacity="0.0" clip-path="url(#id_0)" d="M212.0 185.0L194.0 185.0L194.0 121.0C194.0 119.89543 194.89543 119.0 196.0 119.0L210.0 119.0C211.10457 119.0 212.0 119.89543 212.0 121.0Z" fill-rule="nonzero"/><path fill="#db4437" clip-path="url(#id_0)" d="M212.0 185.0L194.0 185.0L194.0 121.0C194.0 119.89543 194.89543 119.0 196.0 119.0L210.0 119.0C211.10457 119.0 212.0 119.89543 212.0 121.0Z" fill-rule="nonzero"/><path stroke="#000000" stroke-width="2.0" stroke-linecap="butt" stroke-opacity="0.0" clip-path="url(#id_0)" d="M239.0 250.0L221.0 250.0L221.0 250.0L239.0 250.0Z" fill-rule="nonzero"/><path fill="#db4437" clip-path="url(#id_0)" d="M239.0 250.0L221.0 250.0L221.0 250.0L239.0 250.0Z" fill-rule="nonzero"/><path stroke="#000000" stroke-width="2.0" stroke-linecap="butt" stroke-opacity="0.0" clip-path="url(#id_0)" d="M267.0 53.0L249.0 53.0L249.0 53.0L267.0 53.0Z" fill-rule="nonzero"/><path fill="#db4437" clip-path="url(#id_0)" d="M267.0 53.0L249.0 53.0L249.0 53.0L267.0 53.0Z" fill-rule="nonzero"/><path stroke="#000000" stroke-width="2.0" stroke-linecap="butt" stroke-opacity="0.0" clip-path="url(#id_0)" d="M295.0 185.0L277.0 185.0L277.0 185.0L295.0 185.0Z" fill-rule="nonzero"/><path fill="#db4437" clip-path="url(#id_0)" d="M295.0 185.0L277.0 185.0L277.0 185.0L295.0 185.0Z" fill-rule="nonzero"/><path stroke="#000000" stroke-width="2.0" stroke-linecap="butt" stroke-opacity="0.0" clip-path="url(#id_0)" d="M323.0 250.0L305.0 250.0L305.0 250.0L323.0 250.0Z" fill-rule="nonzero"/><path fill="#db4437" clip-path="url(#id_0)" d="M323.0 250.0L305.0 250.0L305.0 250.0L323.0 250.0Z" fill-rule="nonzero"/><path stroke="#000000" stroke-width="2.0" stroke-linecap="butt" stroke-opacity="0.0" clip-path="url(#id_0)" d="M350.0 53.0L332.0 53.0L332.0 53.0L350.0 53.0Z" fill-rule="nonzero"/><path fill="#db4437" clip-path="url(#id_0)" d="M350.0 53.0L332.0 53.0L332.0 53.0L350.0 53.0Z" fill-rule="nonzero"/><path stroke="#000000" stroke-width="2.0" stroke-linecap="butt" stroke-opacity="0.0" clip-path="url(#id_0)" d="M378.0 53.0L360.0 53.0L360.0 53.0L378.0 53.0Z" fill-rule="nonzero"/><path fill="#db4437" clip-path="url(#id_0)" d="M378.0 53.0L360.0 53.0L360.0 53.0L378.0 53.0Z" fill-rule="nonzero"/><path stroke="#000000" stroke-width="2.0" stroke-linecap="butt" stroke-opacity="0.0" clip-path="url(#id_0)" d="M406.0 53.0L388.0 53.0L388.0 53.0L406.0 53.0Z" fill-rule="nonzero"/><path fill="#db4437" clip-path="url(#id_0)" d="M406.0 53.0L388.0 53.0L388.0 53.0L406.0 53.0Z" fill-rule="nonzero"/><path stroke="#000000" stroke-width="2.0" stroke-linecap="butt" stroke-opacity="0.0" clip-path="url(#id_0)" d="M433.0 250.0L415.0 250.0L415.0 187.0C415.0 185.89543 415.89542 185.0 417.0 185.0L431.0 185.0C432.10458 185.0 433.0 185.89543 433.0 187.0Z" fill-rule="nonzero"/><path fill="#db4437" clip-path="url(#id_0)" d="M433.0 250.0L415.0 250.0L415.0 187.0C415.0 185.89543 415.89542 185.0 417.0 185.0L431.0 185.0C432.10458 185.0 433.0 185.89543 433.0 187.0Z" fill-rule="nonzero"/><path stroke="#000000" stroke-width="2.0" stroke-linecap="butt" stroke-opacity="0.0" clip-path="url(#id_0)" d="M461.0 185.0L443.0 185.0L443.0 55.0C443.0 53.89543 443.89542 53.0 445.0 53.0L459.0 53.0C460.10458 53.0 461.0 53.89543 461.0 55.0Z" fill-rule="nonzero"/><path fill="#db4437" clip-path="url(#id_0)" d="M461.0 185.0L443.0 185.0L443.0 55.0C443.0 53.89543 443.89542 53.0 445.0 53.0L459.0 53.0C460.10458 53.0 461.0 53.89543 461.0 55.0Z" fill-rule="nonzero"/><path stroke="#000000" stroke-width="2.0" stroke-linecap="butt" stroke-opacity="0.0" clip-path="url(#id_0)" d="M489.0 119.0L471.0 119.0L471.0 55.0C471.0 53.89543 471.89542 53.0 473.0 53.0L487.0 53.0C488.10458 53.0 489.0 53.89543 489.0 55.0Z" fill-rule="nonzero"/><path fill="#db4437" clip-path="url(#id_0)" d="M489.0 119.0L471.0 119.0L471.0 55.0C471.0 53.89543 471.89542 53.0 473.0 53.0L487.0 53.0C488.10458 53.0 489.0 53.89543 489.0 55.0Z" fill-rule="nonzero"/><path stroke="#000000" stroke-width="2.0" stroke-linecap="butt" stroke-opacity="0.0" clip-path="url(#id_0)" d="M516.0 53.0L498.0 53.0L498.0 53.0L516.0 53.0Z" fill-rule="nonzero"/><path fill="#db4437" clip-path="url(#id_0)" d="M516.0 53.0L498.0 53.0L498.0 53.0L516.0 53.0Z" fill-rule="nonzero"/><path stroke="#000000" stroke-width="2.0" stroke-linecap="butt" stroke-opacity="0.0" clip-path="url(#id_0)" d="M544.0 53.0L526.0 53.0L526.0 53.0L544.0 53.0Z" fill-rule="nonzero"/><path fill="#db4437" clip-path="url(#id_0)" d="M544.0 53.0L526.0 53.0L526.0 53.0L544.0 53.0Z" fill-rule="nonzero"/><path stroke="#000000" stroke-width="2.0" stroke-linecap="butt" stroke-opacity="0.0" clip-path="url(#id_0)" d="M572.0 53.0L554.0 53.0L554.0 53.0L572.0 53.0Z" fill-rule="nonzero"/><path fill="#db4437" clip-path="url(#id_0)" d="M572.0 53.0L554.0 53.0L554.0 53.0L572.0 53.0Z" fill-rule="nonzero"/><path fill="#757575" d="M38.6125 316.55023Q38.6125 318.45648 37.95625 319.39398Q37.315624 320.31586 35.925 320.31586Q34.565624 320.31586 33.909374 319.4096Q33.253124 318.50336 33.221874 316.69086L33.221874 315.25336Q33.221874 313.36273 33.8625 312.45648Q34.51875 311.5346 35.909374 311.5346Q37.284374 311.5346 37.940624 312.42523Q38.596874 313.30023 38.6125 315.14398L38.6125 316.55023ZM37.51875 315.06586Q37.51875 313.69086 37.128124 313.06586Q36.753124 312.42523 35.909374 312.42523Q35.08125 312.42523 34.690624 313.06586Q34.315624 313.69086 34.315624 314.98773L34.315624 316.7221Q34.315624 318.0971 34.70625 318.76898Q35.1125 319.42523 35.925 319.42523Q36.721874 319.42523 37.1125 318.80023Q37.503124 318.17523 37.51875 316.8471L37.51875 315.06586Z" fill-rule="nonzero"/><path fill="#757575" d="M36.815624 254.62231L35.7375 254.62231L35.7375 247.40356L33.55 248.20044L33.55 247.21606L36.659374 246.04419L36.815624 246.04419L36.815624 254.62231Z" fill-rule="nonzero"/><path fill="#757575" d="M38.846874 189.05376L33.253124 189.05376L33.253124 188.2725L36.20625 184.99126Q36.8625 184.24126 37.1125 183.78813Q37.3625 183.31938 37.3625 182.81938Q37.3625 182.1475 36.95625 181.72563Q36.565624 181.28813 35.878124 181.28813Q35.08125 181.28813 34.628124 181.75688Q34.175 182.21 34.175 183.03813L33.096874 183.03813Q33.096874 181.85063 33.846874 181.13188Q34.6125 180.3975 35.878124 180.3975Q37.08125 180.3975 37.76875 181.0225Q38.45625 181.6475 38.45625 182.69438Q38.45625 183.94438 36.846874 185.69438L34.565624 188.16313L38.846874 188.16313L38.846874 189.05376Z" fill-rule="nonzero"/><path fill="#757575" d="M34.83125 118.68834L35.64375 118.68834Q36.425 118.672714 36.8625 118.28209Q37.3 117.891464 37.3 117.21959Q37.3 115.71959 35.8 115.71959Q35.096874 115.71959 34.675 116.12584Q34.26875 116.53209 34.26875 117.18834L33.175 117.18834Q33.175 116.172714 33.909374 115.50084Q34.659374 114.828964 35.8 114.828964Q37.003124 114.828964 37.690624 115.46959Q38.378124 116.110214 38.378124 117.25084Q38.378124 117.81334 38.01875 118.328964Q37.659374 118.84459 37.034374 119.110214Q37.7375 119.328964 38.1125 119.84459Q38.503124 120.360214 38.503124 121.110214Q38.503124 122.25084 37.753124 122.93834Q37.003124 123.610214 35.8 123.610214Q34.6125 123.610214 33.846874 122.953964Q33.096874 122.297714 33.096874 121.235214L34.190624 121.235214Q34.190624 121.90709 34.628124 122.31334Q35.065624 122.71959 35.815624 122.71959Q36.596874 122.71959 37.003124 122.31334Q37.425 121.891464 37.425 121.12584Q37.425 120.391464 36.971874 120.00084Q36.51875 119.59459 35.64375 119.578964L34.83125 119.578964L34.83125 118.68834Z" fill-rule="nonzero"/><path fill="#757575" d="M37.83125 55.057293L39.01875 55.057293L39.01875 55.932293L37.83125 55.932293L37.83125 57.916668L36.753124 57.916668L36.753124 55.932293L32.8625 55.932293L32.8625 55.291668L36.675 49.385418L37.83125 49.385418L37.83125 55.057293ZM34.096874 55.057293L36.753124 55.057293L36.753124 50.869793L36.6125 51.104168L34.096874 55.057293Z" fill-rule="nonzero"/><path fill="#757575" d="M52.69845 345.32367L51.273186 346.74893L53.714916 349.19067L52.919422 349.98618L46.886917 343.95367L48.886703 341.9539Q49.903168 340.9374 50.908585 340.86008Q51.925053 340.77167 52.808933 341.65555Q53.37241 342.21902 53.482895 342.94824Q53.60443 343.6664 53.272972 344.4177L57.239403 345.5557L57.294643 345.61093L56.443905 346.46167L52.69845 345.32367ZM50.621323 346.09708L51.847713 344.8707Q52.444332 344.27408 52.488525 343.63324Q52.532722 342.97034 52.01344 342.45105Q51.461014 341.89862 50.831245 341.93176Q50.201477 341.96494 49.560665 342.58365L48.334274 343.81003L50.621323 346.09708ZM58.498936 338.8382L55.88043 341.4567L58.0128 343.58905L61.051147 340.55072L61.703014 341.20258L57.869167 345.0364L51.836662 339.0039L55.637363 335.20322L56.289227 335.85507L53.284023 338.8603L55.228565 340.8048L57.847073 338.1863L58.498936 338.8382ZM63.75804 337.0262L60.50977 330.3308L61.382607 329.45798L65.17226 337.73334L64.4762 338.42938L56.211887 334.6287L57.073673 333.7669L63.75804 337.0262ZM70.79597 332.10962L70.033615 332.87198L64.929184 327.76755L63.945866 329.8778L63.24981 329.18176L64.61983 326.15445L64.730316 326.04398L70.79597 332.10962Z" fill-rule="nonzero"/><path fill="#757575" d="M80.39354 345.32367L78.96828 346.74893L81.41 349.19067L80.61451 349.98618L74.58201 343.95364L76.581795 341.95386Q77.59826 340.9374 78.603676 340.86008Q79.62014 340.77167 80.50403 341.65555Q81.067505 342.21902 81.177986 342.94824Q81.29952 343.66638 80.96806 344.4177L84.934494 345.5557L84.98974 345.61093L84.139 346.46167L80.39354 345.32367ZM78.316414 346.09708L79.5428 344.8707Q80.13943 344.27408 80.18362 343.63324Q80.22781 342.97034 79.708534 342.45105Q79.156105 341.89862 78.52634 341.93176Q77.89657 341.96494 77.25575 342.58365L76.029366 343.81003L78.316414 346.09708ZM86.19402 338.8382L83.57552 341.4567L85.70789 343.58905L88.74624 340.55072L89.3981 341.20258L85.56426 345.0364L79.53175 339.0039L83.33245 335.20322L83.984314 335.85507L80.97911 338.8603L82.92366 340.8048L85.54216 338.1863L86.19402 338.8382ZM91.45313 337.0262L88.204865 330.3308L89.0777 329.45798L92.86735 337.73334L92.17129 338.42938L83.906975 334.6287L84.76876 333.7669L91.45313 337.0262ZM99.92737 330.6733L95.971985 334.6287L95.41956 334.07626L95.18754 329.66788Q95.12125 328.67352 94.977615 328.17633Q94.82294 327.6681 94.46938 327.31454Q93.9943 326.83948 93.40872 326.82843Q92.82315 326.79526 92.33701 327.2814Q91.77354 327.84488 91.78459 328.49673Q91.78459 329.13757 92.37016 329.72314L91.60781 330.48547Q90.76812 329.64578 90.79022 328.60724Q90.81232 327.54657 91.70725 326.65164Q92.55798 325.8009 93.48606 325.7567Q94.41414 325.71252 95.154396 326.45276Q96.03828 327.33664 96.13772 329.7121L96.270294 333.07083L99.2976 330.04355L99.92737 330.6733Z" fill-rule="nonzero"/><path fill="#757575" d="M108.08863 345.32367L106.66337 346.74893L109.105095 349.19067L108.3096 349.98618L102.2771 343.95364L104.276886 341.95386Q105.29335 340.9374 106.29877 340.86008Q107.31523 340.77167 108.19912 341.65555Q108.762596 342.21902 108.87308 342.94824Q108.99461 343.66638 108.663155 344.4177L112.629585 345.5557L112.68482 345.61093L111.83409 346.46167L108.08863 345.32367ZM106.011505 346.09708L107.23789 344.8707Q107.83452 344.27408 107.87871 343.63324Q107.922905 342.97034 107.403625 342.45105Q106.8512 341.89862 106.22143 341.93176Q105.59166 341.96494 104.95084 342.58365L103.72446 343.81003L106.011505 346.09708ZM113.889114 338.8382L111.270615 341.4567L113.402985 343.58905L116.44133 340.55072L117.09319 341.20258L113.25935 345.0364L107.226845 339.0039L111.02754 335.20322L111.679405 335.85507L108.6742 338.8603L110.61875 340.8048L113.23725 338.1863L113.889114 338.8382ZM119.148224 337.0262L115.89995 330.3308L116.77279 329.45798L120.56244 337.73334L119.86638 338.42938L111.602066 334.6287L112.46385 333.7669L119.148224 337.0262ZM121.391075 330.12088L121.9656 329.54636Q122.50698 328.98288 122.54012 328.3973Q122.57327 327.81174 122.09818 327.33664Q121.03752 326.276 119.97687 327.33664Q119.47968 327.83383 119.46863 328.4194Q119.46863 328.99393 119.93267 329.45798L119.15927 330.23135Q118.44112 329.5132 118.48531 328.51883Q118.54055 327.51343 119.3471 326.70688Q120.19784 325.85614 121.13696 325.823Q122.07609 325.78986 122.88263 326.5964Q123.28038 326.99414 123.39086 327.61285Q123.50135 328.23157 123.24723 328.86136Q123.89909 328.51883 124.52886 328.6183Q125.16968 328.70667 125.70001 329.237Q126.50655 330.04355 126.46236 331.06Q126.40712 332.06543 125.55638 332.91617Q124.71669 333.75586 123.71127 333.8332Q122.7169 333.89948 121.9656 333.1482L122.739 332.3748Q123.21409 332.84988 123.81071 332.8278Q124.40733 332.80566 124.93766 332.27536Q125.49009 331.72293 125.49009 331.1484Q125.49009 330.5518 124.94871 330.0104Q124.42943 329.49112 123.83281 329.5353Q123.225136 329.56845 122.59537 330.17612L122.02084 330.75064L121.391075 330.12088Z" fill-rule="nonzero"/><path fill="#757575" d="M135.78372 345.32367L134.35846 346.74893L136.80019 349.19067L136.00468 349.98618L129.97218 343.95367L131.97197 341.9539Q132.98843 340.9374 133.99385 340.86008Q135.01031 340.77167 135.8942 341.65558Q136.45767 342.21906 136.56816 342.94824Q136.6897 343.6664 136.35825 344.4177L140.32466 345.5557L140.37991 345.61093L139.52917 346.46167L135.78372 345.32367ZM133.70659 346.09708L134.93298 344.8707Q135.5296 344.27408 135.57379 343.63327Q135.618 342.97034 135.09871 342.45105Q134.54628 341.89862 133.91652 341.9318Q133.28674 341.96494 132.64594 342.58365L131.41954 343.81003L133.70659 346.09708ZM141.5842 338.8382L138.9657 341.4567L141.09807 343.58905L144.13641 340.55072L144.78828 341.20258L140.95444 345.0364L134.92194 339.0039L138.72263 335.20322L139.3745 335.85507L136.3693 338.8603L138.31383 340.80484L140.93234 338.1863L141.5842 338.8382ZM146.8433 337.0262L143.59503 330.3308L144.46786 329.45798L148.25752 337.73334L147.56146 338.42938L139.29715 334.6287L140.15894 333.7669L146.8433 337.0262ZM152.5775 329.3696L153.41719 328.5299L154.0359 329.14862L153.19623 329.9883L154.59938 331.39148L153.83704 332.1538L152.43387 330.75064L149.68279 333.50174L149.2298 333.04874L147.74928 326.17654L148.56688 325.35898L152.5775 329.3696ZM149.9369 332.0102L151.81516 330.13193L148.85414 327.17093L148.92044 327.4361L149.9369 332.0102Z" fill-rule="nonzero"/><path fill="#757575" d="M163.47882 345.32367L162.05356 346.74893L164.49529 349.19067L163.69978 349.98618L157.66728 343.95364L159.66707 341.95386Q160.68353 340.9374 161.68895 340.86008Q162.70541 340.77167 163.5893 341.65555Q164.15277 342.21902 164.26326 342.94824Q164.3848 343.66638 164.05334 344.4177L168.01976 345.5557L168.07501 345.61093L167.22427 346.46167L163.47882 345.32367ZM161.40169 346.09708L162.62808 344.8707Q163.2247 344.27408 163.26889 343.63324Q163.31308 342.97034 162.79381 342.45105Q162.24138 341.89862 161.6116 341.93176Q160.98184 341.9649 160.34103 342.58365L159.11464 343.81003L161.40169 346.09708ZM169.2793 338.8382L166.6608 341.4567L168.79317 343.58905L171.83151 340.55072L172.48338 341.20258L168.64954 345.0364L162.61702 339.0039L166.41772 335.20322L167.0696 335.85507L164.06439 338.8603L166.00893 340.8048L168.62744 338.1863L169.2793 338.8382ZM174.5384 337.0262L171.29013 330.3308L172.16296 329.45798L175.95262 337.73334L175.25656 338.42938L166.99225 334.6287L167.85403 333.7669L174.5384 337.0262ZM176.38351 331.24783L173.68767 327.93326L176.78127 324.8397L177.48837 325.54678L175.04665 327.98853L176.50505 329.82257Q176.69287 329.1044 177.25635 328.54092Q178.07394 327.72336 179.1125 327.78964Q180.14001 327.84488 181.0681 328.77295Q181.99617 329.70105 182.02931 330.75064Q182.07352 331.7892 181.16753 332.6952Q180.37204 333.4907 179.42186 333.55698Q178.46063 333.6122 177.6099 332.89407L178.32805 332.1759Q178.92468 332.61786 179.48816 332.58472Q180.05164 332.55157 180.53777 332.06543Q181.0681 331.5351 181.01285 330.86115Q180.95761 330.18716 180.31679 329.54636Q179.70912 328.9387 179.01306 328.90555Q178.317 328.8724 177.76459 329.42484Q177.2674 329.922 177.19006 330.4192L177.1569 330.78378L176.38351 331.24783Z" fill-rule="nonzero"/><path fill="#757575" d="M191.1739 345.32367L189.74864 346.74893L192.19037 349.19067L191.39487 349.98618L185.36237 343.95367L187.36215 341.9539Q188.37862 340.9374 189.38403 340.86008Q190.4005 340.77167 191.28438 341.65558Q191.84785 342.21906 191.95834 342.94824Q192.07988 343.6664 191.74843 344.4177L195.71484 345.5557L195.7701 345.61093L194.91936 346.46167L191.1739 345.32367ZM189.09677 346.09708L190.32317 344.8707Q190.91978 344.27408 190.96397 343.63324Q191.00818 342.97034 190.48889 342.45105Q189.93646 341.89862 189.3067 341.9318Q188.67693 341.96494 188.03612 342.58365L186.80972 343.81003L189.09677 346.09708ZM196.97438 338.8382L194.35588 341.4567L196.48825 343.58905L199.5266 340.55072L200.17847 341.20258L196.34462 345.0364L190.31212 339.0039L194.11281 335.20322L194.76468 335.85507L191.75948 338.8603L193.70401 340.80484L196.32253 338.1863L196.97438 338.8382ZM202.23349 337.0262L198.98521 330.3308L199.85805 329.45798L203.6477 337.73334L202.95164 338.42938L194.68733 334.6287L195.54912 333.7669L202.23349 337.0262ZM203.7361 325.57993L204.3769 326.22076L204.23328 326.36438Q203.36044 327.2814 203.3494 328.33102Q203.3273 329.3696 204.16699 330.38605Q204.11174 329.35855 204.92934 328.54095Q205.71378 327.7565 206.7413 327.83383Q207.76881 327.91116 208.6527 328.79507Q209.58078 329.72314 209.63602 330.79486Q209.69125 331.86655 208.82947 332.72833Q207.96768 333.59012 206.7634 333.4686Q205.5591 333.32495 204.50949 332.27536L204.22223 331.9881Q202.5539 330.31976 202.37712 328.72876Q202.20035 327.1378 203.59247 325.72357L203.7361 325.57993ZM205.44862 329.30328Q205.05087 329.70105 204.95143 330.26453Q204.85199 330.828 205.08401 331.32516L205.36023 331.60138Q206.11153 332.3527 206.89598 332.4742Q207.69147 332.58472 208.18866 332.08752Q208.70793 331.56824 208.6306 330.8943Q208.5422 330.20926 207.9235 329.59055Q207.30478 328.97183 206.63081 328.8945Q205.9458 328.80612 205.44862 329.30328Z" fill-rule="nonzero"/><path fill="#757575" d="M218.869 345.32367L217.44374 346.74893L219.88547 349.19067L219.08997 349.98618L213.05746 343.95364L215.05725 341.95386Q216.07372 340.9374 217.07913 340.86008Q218.0956 340.77167 218.97948 341.65555Q219.54295 342.21902 219.65344 342.94824Q219.77498 343.66638 219.44353 344.4177L223.40994 345.5557L223.4652 345.61093L222.61446 346.46167L218.869 345.32367ZM216.79187 346.09708L218.01826 344.8707Q218.61488 344.27408 218.65907 343.63324Q218.70326 342.97034 218.18399 342.45105Q217.63156 341.89862 217.00179 341.93176Q216.37202 341.9649 215.73122 342.58365L214.50482 343.81003L216.79187 346.09708ZM224.66948 338.83817L222.05098 341.4567L224.18335 343.58905L227.2217 340.5507L227.87357 341.20258L224.03972 345.0364L218.0072 339.0039L221.8079 335.20322L222.45978 335.85507L219.45457 338.8603L221.39911 340.8048L224.01762 338.1863L224.66948 338.83817ZM229.92859 337.0262L226.68031 330.3308L227.55315 329.45798L231.3428 337.73334L230.64674 338.42938L222.38243 334.6287L223.24422 333.7669L229.92859 337.0262ZM232.74597 325.12695L235.8506 333.22552L235.04407 334.03207L232.12724 326.1434L228.86792 329.4027L228.23816 328.77295L232.31508 324.69604L232.74597 325.12695Z" fill-rule="nonzero"/><path fill="#757575" d="M246.56409 345.32367L245.13882 346.74893L247.58055 349.19067L246.78506 349.98615L240.75256 343.95364L242.75235 341.95386Q243.76881 340.9374 244.77423 340.86005Q245.7907 340.77167 246.67458 341.65555Q247.23805 342.21902 247.34854 342.94824Q247.47008 343.66638 247.13861 344.4177L251.10504 345.5557L251.1603 345.61093L250.30956 346.46167L246.56409 345.32367ZM244.48697 346.09708L245.71335 344.87067Q246.30998 344.27405 246.35417 343.63324Q246.39836 342.97034 245.87909 342.45105Q245.32666 341.89862 244.69688 341.93176Q244.06712 341.9649 243.4263 342.58362L242.19992 343.81003L244.48697 346.09708ZM252.36458 338.83817L249.74608 341.45667L251.87845 343.58905L254.9168 340.5507L255.56865 341.20258L251.73482 345.0364L245.7023 339.0039L249.503 335.20322L250.15486 335.85507L247.14966 338.86026L249.09421 340.8048L251.7127 338.1863L252.36458 338.83817ZM257.6237 337.0262L254.37541 330.3308L255.24825 329.45795L259.0379 337.7333L258.34183 338.42938L250.07753 334.6287L250.93932 333.7669L257.6237 337.0262ZM261.34705 326.49695Q261.80002 326.94995 261.91052 327.54657Q262.021 328.1432 261.82214 328.7398Q262.48505 328.47464 263.159 328.59616Q263.82193 328.70667 264.3191 329.20386Q265.0925 329.97723 265.03726 330.98267Q264.98203 331.96597 264.12024 332.82776Q263.2474 333.7006 262.25302 333.7669Q261.25867 333.8111 260.48526 333.0377Q259.98807 332.5405 259.86655 331.88864Q259.73395 331.22574 260.01016 330.55176Q259.41354 330.75064 258.82797 330.62912Q258.2424 330.50757 257.7894 330.0546Q257.02707 329.29224 257.07126 328.36417Q257.1044 327.42502 257.91095 326.6185Q258.70645 325.823 259.64557 325.78986Q260.5847 325.7346 261.34705 326.49695ZM263.53467 329.9441Q263.02643 329.43585 262.39667 329.4469Q261.75583 329.4469 261.23657 329.9662Q260.7173 330.48547 260.7173 331.12628Q260.7173 331.745 261.23657 332.26428Q261.74478 332.77252 262.35245 332.76147Q262.9491 332.73938 263.49045 332.198Q264.02078 331.66766 264.03183 331.06Q264.04288 330.45233 263.53467 329.9441ZM258.5407 327.24826Q258.08774 327.70123 258.08774 328.27576Q258.08774 328.8282 258.57385 329.31433Q259.02686 329.76733 259.59033 329.77838Q260.1538 329.78943 260.60678 329.33643Q261.07083 328.87238 261.05978 328.3089Q261.04874 327.74542 260.59573 327.29245Q260.1317 326.8284 259.5572 326.8284Q258.97162 326.81735 258.5407 327.24826Z" fill-rule="nonzero"/><path fill="#757575" d="M274.25916 345.3237L272.8339 346.74896L275.27563 349.19067L274.48013 349.98618L268.44763 343.95367L270.44742 341.9539Q271.4639 340.9374 272.4693 340.86008Q273.48578 340.7717 274.36966 341.65558Q274.93314 342.21906 275.0436 342.94824Q275.16516 343.6664 274.83368 344.4177L278.8001 345.5557L278.85535 345.61096L278.0046 346.46167L274.25916 345.3237ZM272.18204 346.09708L273.40842 344.8707Q274.00504 344.27408 274.04926 343.63327Q274.09344 342.97034 273.57416 342.45105Q273.02173 341.89865 272.39197 341.9318Q271.7622 341.96494 271.12137 342.58365L269.895 343.81003L272.18204 346.09708ZM280.05966 338.8382L277.44116 341.4567L279.57352 343.58905L282.61188 340.55072L283.26373 341.20258L279.42987 345.03644L273.39737 339.0039L277.1981 335.20322L277.84995 335.85507L274.84473 338.8603L276.78928 340.80484L279.40778 338.18634L280.05966 338.8382ZM285.31876 337.0262L282.0705 330.3308L282.94333 329.45798L286.73297 337.73334L286.03693 338.42938L277.7726 334.6287L278.6344 333.7669L285.31876 337.0262ZM290.12488 329.03815Q290.1801 329.5574 290.0144 330.0767Q289.84866 330.57388 289.45093 330.97162Q288.93164 331.4909 288.2908 331.6235Q287.65 331.75607 286.97604 331.50195Q286.29102 331.2368 285.72757 330.6733Q285.13092 330.0767 284.86578 329.3696Q284.61166 328.65143 284.77737 327.97748Q284.9431 327.2814 285.5066 326.71793Q286.40152 325.823 287.5837 325.98874Q288.77695 326.1434 289.926 327.29245L290.14697 327.51343Q291.91473 329.2812 292.02524 330.7838Q292.1357 332.2864 290.75464 333.71167L290.59998 333.86633L289.95914 333.22552L290.12488 333.0598Q291.05295 332.08752 291.0861 331.10422Q291.11923 330.12088 290.12488 329.03815ZM288.9427 330.22034Q289.32938 329.83362 289.41776 329.2812Q289.50616 328.70667 289.31833 328.2095L289.00897 327.90015Q288.25766 327.14883 287.45114 327.0052Q286.6446 326.86157 286.1474 327.35876Q285.63916 327.86697 285.7165 328.56305Q285.8049 329.24805 286.4457 329.88885Q287.06442 330.5076 287.74945 330.61807Q288.4455 330.7175 288.9427 330.22034Z" fill-rule="nonzero"/><path fill="#757575" d="M297.00452 350.27344L295.57925 351.6987L298.021 354.1404L297.2255 354.9359L291.193 348.9034L293.19278 346.90363Q294.20923 345.88715 295.21466 345.8098Q296.2311 345.72144 297.115 346.60532Q297.67847 347.1688 297.78897 347.89798Q297.9105 348.61615 297.57904 349.36743L301.54547 350.50543L301.6007 350.5607L300.74997 351.41144L297.00452 350.27344ZM294.9274 351.0468L296.15378 349.82043Q296.7504 349.22382 296.7946 348.583Q296.83878 347.92007 296.31952 347.40082Q295.7671 346.8484 295.1373 346.88153Q294.50754 346.91467 293.86673 347.5334L292.64035 348.75977L294.9274 351.0468ZM302.805 343.78793L300.1865 346.40643L302.31888 348.53882L305.3572 345.50046L306.00906 346.1523L302.17523 349.98618L296.14273 343.95367L299.94342 340.15295L300.5953 340.80484L297.5901 343.81003L299.53464 345.75458L302.15314 343.13608L302.805 343.78793ZM308.06412 341.97598L304.81583 335.28055L305.68866 334.4077L309.47833 342.68307L308.78226 343.37915L300.51794 339.57843L301.37973 338.71664L308.06412 341.97598ZM315.10202 337.05936L314.3397 337.82172L309.23526 332.7173L308.25192 334.82758L307.55588 334.1315L308.9259 331.10422L309.03638 330.9937L315.10202 337.05936ZM318.74805 328.26474Q320.09598 329.61264 320.29483 330.7396Q320.4937 331.84445 319.5104 332.8278Q318.54916 333.789 317.44434 333.6122Q316.33948 333.43546 315.03574 332.1759L314.0193 331.15945Q312.6824 329.82257 312.49457 328.72876Q312.30676 327.61285 313.29007 326.62955Q314.26233 325.65726 315.35614 325.823Q316.4389 325.9777 317.7537 327.27036L318.74805 328.26474ZM316.92505 327.98853Q315.95276 327.01624 315.23462 326.85052Q314.51645 326.6627 313.91983 327.2593Q313.33426 327.84488 313.51105 328.5741Q313.6878 329.2812 314.60486 330.1982L315.83124 331.42462Q316.8035 332.39688 317.5548 332.59576Q318.30612 332.77252 318.88065 332.198Q319.44412 331.63452 319.27838 330.91638Q319.11264 330.1982 318.18457 329.24805L316.92505 327.98853Z" fill-rule="nonzero"/><path fill="#757575" d="M324.69962 350.2734L323.27435 351.69867L325.71606 354.1404L324.9206 354.9359L318.8881 348.9034L320.88788 346.90363Q321.90433 345.88715 322.90976 345.8098Q323.9262 345.72144 324.8101 346.60532Q325.37357 347.1688 325.48407 347.89798Q325.6056 348.61615 325.27414 349.36743L329.24057 350.50543L329.2958 350.56067L328.44507 351.4114L324.69962 350.2734ZM322.6225 351.0468L323.84888 349.82043Q324.4455 349.22382 324.4897 348.583Q324.53387 347.92007 324.0146 347.4008Q323.4622 346.84836 322.8324 346.88153Q322.20264 346.91467 321.56183 347.5334L320.33545 348.75977L322.6225 351.0468ZM330.5001 343.78793L327.8816 346.40643L330.01395 348.5388L333.0523 345.50046L333.70416 346.1523L329.87033 349.98615L323.83783 343.95364L327.63852 340.15295L328.29037 340.8048L325.2852 343.81003L327.22974 345.75458L329.84824 343.13605L330.5001 343.78793ZM335.75922 341.97595L332.51093 335.28055L333.38376 334.4077L337.17343 342.68307L336.47736 343.37912L328.21304 339.57843L329.07483 338.71664L335.75922 341.97595ZM342.79712 337.05936L342.0348 337.82172L336.93036 332.7173L335.94702 334.82755L335.25098 334.1315L336.621 331.1042L336.73148 330.9937L342.79712 337.05936ZM347.7469 332.10962L346.98453 332.87198L341.8801 327.76755L340.8968 329.8778L340.2007 329.18176L341.57074 326.15445L341.6812 326.04398L347.7469 332.10962Z" fill-rule="nonzero"/><path fill="#757575" d="M352.39468 350.27344L350.96942 351.6987L353.41116 354.1404L352.61566 354.9359L346.58316 348.9034L348.58295 346.90363Q349.5994 345.88718 350.60483 345.8098Q351.62128 345.72144 352.50516 346.60532Q353.06863 347.1688 353.17914 347.898Q353.30066 348.61615 352.9692 349.36746L356.93564 350.50546L356.99088 350.5607L356.14014 351.41144L352.39468 350.27344ZM350.31757 351.04684L351.54395 349.82043Q352.14056 349.22382 352.18475 348.583Q352.22897 347.9201 351.7097 347.40082Q351.15726 346.8484 350.5275 346.88153Q349.8977 346.91467 349.2569 347.5334L348.03052 348.7598L350.31757 351.04684ZM358.19516 343.78793L355.57666 346.40643L357.70905 348.53882L360.74738 345.50046L361.39926 346.15234L357.5654 349.98618L351.5329 343.95367L355.3336 340.15298L355.98547 340.80484L352.98026 343.81003L354.9248 345.75458L357.5433 343.13608L358.19516 343.78793ZM363.45428 341.97598L360.206 335.28055L361.07886 334.4077L364.8685 342.68307L364.17242 343.37915L355.9081 339.57846L356.7699 338.71667L363.45428 341.97598ZM370.4922 337.0594L369.72986 337.82172L364.62543 332.71732L363.6421 334.82758L362.94604 334.1315L364.31607 331.10422L364.42654 330.9937L370.4922 337.0594ZM376.87827 330.6733L372.92288 334.6287L372.37045 334.07626L372.13843 329.6679Q372.07214 328.67352 371.9285 328.17636Q371.77383 327.66812 371.4203 327.31458Q370.9452 326.83948 370.35962 326.82843Q369.77405 326.7953 369.2879 327.2814Q368.72443 327.84488 368.73547 328.49677Q368.73547 329.13757 369.32104 329.72314L368.55872 330.4855Q367.71902 329.6458 367.74112 328.60724Q367.7632 327.54657 368.65814 326.65164Q369.50888 325.8009 370.43695 325.7567Q371.36505 325.71252 372.1053 326.4528Q372.98917 327.33667 373.08862 329.7121L373.2212 333.07086L376.2485 330.04355L376.87827 330.6733Z" fill-rule="nonzero"/><path fill="#757575" d="M380.08978 350.27344L378.66452 351.6987L381.10626 354.1404L380.31076 354.9359L374.27826 348.9034L376.27805 346.90363Q377.2945 345.88715 378.29993 345.8098Q379.31638 345.72144 380.20026 346.60532Q380.76373 347.1688 380.87424 347.89798Q380.99576 348.61615 380.6643 349.36746L384.63074 350.50546L384.68597 350.5607L383.83524 351.41144L380.08978 350.27344ZM378.01266 351.0468L379.23904 349.82043Q379.83566 349.22382 379.87985 348.583Q379.92404 347.9201 379.4048 347.40082Q378.85236 346.8484 378.22256 346.88153Q377.5928 346.91467 376.952 347.5334L375.72562 348.75977L378.01266 351.0468ZM385.89026 343.78793L383.27176 346.40643L385.40414 348.53882L388.44247 345.50046L389.09436 346.1523L385.2605 349.98618L379.228 343.95367L383.0287 340.15295L383.68057 340.80484L380.67535 343.81003L382.6199 345.75458L385.2384 343.13608L385.89026 343.78793ZM391.14938 341.97598L387.9011 335.28055L388.77393 334.4077L392.5636 342.68307L391.86752 343.37915L383.6032 339.57843L384.465 338.71664L391.14938 341.97598ZM398.1873 337.0594L397.42496 337.82172L392.32053 332.7173L391.3372 334.82758L390.64114 334.1315L392.01117 331.10422L392.12164 330.9937L398.1873 337.0594ZM398.34198 330.12088L398.9165 329.54636Q399.4579 328.98288 399.49103 328.3973Q399.52417 327.81174 399.04907 327.33664Q397.98843 326.276 396.92776 327.33664Q396.43057 327.83383 396.41953 328.4194Q396.41953 328.99393 396.88358 329.45798L396.11017 330.23138Q395.39203 329.5132 395.43622 328.51886Q395.49146 327.51343 396.298 326.70688Q397.14874 325.85614 398.08786 325.823Q399.02698 325.78986 399.83353 326.5964Q400.2313 326.99414 400.34177 327.61285Q400.45224 328.2316 400.19812 328.86136Q400.85 328.51886 401.47977 328.6183Q402.12057 328.70667 402.6509 329.237Q403.45746 330.04355 403.41327 331.06003Q403.358 332.06543 402.50726 332.91617Q401.6676 333.75586 400.66217 333.8332Q399.66782 333.89948 398.9165 333.1482L399.6899 332.3748Q400.16498 332.84988 400.7616 332.8278Q401.35822 332.8057 401.88855 332.27536Q402.44098 331.72293 402.44098 331.1484Q402.44098 330.5518 401.8996 330.0104Q401.38034 329.49112 400.7837 329.5353Q400.17603 329.56845 399.54626 330.17612L398.97174 330.75064L398.34198 330.12088Z" fill-rule="nonzero"/><path fill="#757575" d="M407.78488 350.27344L406.35962 351.6987L408.80136 354.1404L408.00586 354.9359L401.97336 348.9034L403.97314 346.90363Q404.9896 345.88715 405.99503 345.8098Q407.01147 345.72144 407.89536 346.60532Q408.45883 347.1688 408.56934 347.89798Q408.69086 348.61615 408.3594 349.36743L412.32584 350.50543L412.38107 350.5607L411.53033 351.41144L407.78488 350.27344ZM405.70776 351.0468L406.93414 349.82043Q407.53076 349.22382 407.57495 348.583Q407.61914 347.92007 407.09988 347.40082Q406.54745 346.8484 405.91766 346.88153Q405.2879 346.91467 404.6471 347.5334L403.42072 348.75977L405.70776 351.0468ZM413.58536 343.78793L410.96686 346.40643L413.09924 348.5388L416.13757 345.50046L416.78943 346.1523L412.9556 349.98618L406.9231 343.95364L410.7238 340.15295L411.37567 340.8048L408.37045 343.81003L410.315 345.75458L412.9335 343.13608L413.58536 343.78793ZM418.84448 341.97598L415.5962 335.28055L416.46902 334.4077L420.2587 342.68307L419.56262 343.37912L411.2983 339.57843L412.1601 338.71664L418.84448 341.97598ZM425.8824 337.05936L425.12006 337.82172L420.01562 332.7173L419.0323 334.82758L418.33624 334.1315L419.70627 331.1042L419.81674 330.9937L425.8824 337.05936ZM429.5284 329.36957L430.3681 328.52988L430.98682 329.14862L430.14713 329.9883L431.5503 331.39145L430.78793 332.1538L429.3848 330.75064L426.6337 333.50174L426.1807 333.04874L424.7002 326.17654L425.5178 325.35895L429.5284 329.36957ZM426.88782 332.0102L428.76605 330.13193L425.80505 327.17093L425.87134 327.4361L426.88782 332.0102Z" fill-rule="nonzero"/><path fill="#757575" d="M435.47998 350.2734L434.05472 351.69867L436.49643 354.1404L435.70096 354.9359L429.66846 348.9034L431.66824 346.90363Q432.6847 345.88715 433.69012 345.8098Q434.70657 345.7214 435.59045 346.60532Q436.15393 347.1688 436.26443 347.89798Q436.38596 348.61615 436.0545 349.36743L440.02094 350.50543L440.07617 350.56067L439.22543 351.4114L435.47998 350.2734ZM433.40286 351.0468L434.62924 349.82043Q435.22586 349.22382 435.27005 348.58298Q435.31424 347.92007 434.79495 347.4008Q434.24255 346.84836 433.61276 346.88153Q432.983 346.91467 432.3422 347.5334L431.1158 348.75977L433.40286 351.0468ZM441.28046 343.78793L438.66196 346.40643L440.7943 348.5388L443.83267 345.50046L444.48453 346.1523L440.6507 349.98615L434.6182 343.95364L438.41888 340.15295L439.07074 340.8048L436.06555 343.81003L438.0101 345.75458L440.6286 343.13605L441.28046 343.78793ZM446.53958 341.97595L443.2913 335.28055L444.16412 334.4077L447.9538 342.68307L447.25772 343.37912L438.9934 339.57843L439.8552 338.71664L446.53958 341.97595ZM453.57748 337.05936L452.81516 337.82172L447.71072 332.7173L446.7274 334.82755L446.03134 334.1315L447.40137 331.1042L447.51184 330.9937L453.57748 337.05936ZM453.3344 331.24783L450.63858 327.93326L453.73218 324.83966L454.43927 325.54678L451.99756 327.9885L453.45596 329.82257Q453.64377 329.1044 454.20724 328.54092Q455.02484 327.72333 456.06342 327.78964Q457.09094 327.84488 458.019 328.77295Q458.94708 329.70102 458.98022 330.75064Q459.0244 331.7892 458.11844 332.6952Q457.32294 333.4907 456.37277 333.55698Q455.41156 333.6122 454.56082 332.89407L455.27896 332.1759Q455.87558 332.61786 456.43906 332.5847Q457.00253 332.55154 457.48868 332.06543Q458.019 331.5351 457.96378 330.8611Q457.9085 330.18716 457.2677 329.54636Q456.66003 328.9387 455.964 328.90555Q455.2679 328.87238 454.71548 329.4248Q454.2183 329.922 454.14096 330.4192L454.10782 330.78378L453.3344 331.24783Z" fill-rule="nonzero"/><path fill="#757575" d="M463.17505 350.27344L461.7498 351.6987L464.19153 354.1404L463.39603 354.9359L457.36353 348.9034L459.3633 346.90363Q460.37976 345.88718 461.3852 345.8098Q462.40164 345.72144 463.28552 346.60532Q463.849 347.1688 463.9595 347.898Q464.08102 348.61615 463.74957 349.36746L467.716 350.50546L467.77124 350.5607L466.9205 351.41144L463.17505 350.27344ZM461.09793 351.04684L462.3243 349.82043Q462.92093 349.22382 462.96512 348.583Q463.0093 347.9201 462.49005 347.40082Q461.93762 346.8484 461.30786 346.88153Q460.67807 346.91467 460.03726 347.5334L458.81088 348.7598L461.09793 351.04684ZM468.97552 343.78793L466.35703 346.40643L468.4894 348.53882L471.52774 345.50046L472.17963 346.1523L468.34576 349.98618L462.31326 343.95367L466.11395 340.15295L466.76584 340.80484L463.76062 343.81003L465.70517 345.75458L468.32367 343.13608L468.97552 343.78793ZM474.23465 341.97598L470.98636 335.28055L471.8592 334.4077L475.64886 342.68307L474.9528 343.37915L466.68848 339.57843L467.55026 338.71664L474.23465 341.97598ZM481.27255 337.0594L480.51022 337.82172L475.4058 332.7173L474.42245 334.82758L473.7264 334.1315L475.09644 331.10422L475.2069 330.9937L481.27255 337.0594ZM480.68698 325.57993L481.32782 326.22076L481.18417 326.36438Q480.31134 327.2814 480.3003 328.33102Q480.2782 329.3696 481.1179 330.38605Q481.06265 329.35855 481.88025 328.54095Q482.66467 327.7565 483.6922 327.83383Q484.7197 327.9112 485.6036 328.79507Q486.53168 329.72314 486.5869 330.79486Q486.64215 331.86655 485.78036 332.72833Q484.91858 333.59012 483.7143 333.4686Q482.51 333.32498 481.4604 332.27536L481.17313 331.9881Q479.5048 330.31976 479.32803 328.72876Q479.15125 327.1378 480.54337 325.72357L480.68698 325.57993ZM482.3995 329.30328Q482.00177 329.70105 481.90234 330.26453Q481.8029 330.828 482.0349 331.3252L482.31113 331.6014Q483.06244 332.3527 483.84686 332.47424Q484.64236 332.58472 485.13956 332.08752Q485.65884 331.56824 485.5815 330.8943Q485.4931 330.2093 484.8744 329.59055Q484.25568 328.97183 483.58173 328.8945Q482.8967 328.80612 482.3995 329.30328Z" fill-rule="nonzero"/><path fill="#757575" d="M490.87015 350.27344L489.4449 351.6987L491.88663 354.1404L491.09113 354.9359L485.05862 348.9034L487.0584 346.90363Q488.07486 345.88715 489.0803 345.8098Q490.09674 345.72144 490.98062 346.60532Q491.5441 347.1688 491.6546 347.89798Q491.77612 348.61615 491.44467 349.36746L495.4111 350.50546L495.46634 350.5607L494.6156 351.41144L490.87015 350.27344ZM488.79303 351.0468L490.0194 349.82043Q490.61603 349.22382 490.66022 348.583Q490.7044 347.92007 490.18515 347.40082Q489.63272 346.8484 489.00293 346.88153Q488.37317 346.91467 487.73236 347.5334L486.50598 348.75977L488.79303 351.0468ZM496.67062 343.78793L494.05212 346.40643L496.1845 348.53882L499.22284 345.50046L499.87473 346.1523L496.04086 349.98618L490.00836 343.95367L493.80905 340.15295L494.46094 340.80484L491.45572 343.81003L493.40027 345.75458L496.01877 343.13608L496.67062 343.78793ZM501.92975 341.97598L498.68146 335.28055L499.5543 334.4077L503.34396 342.68307L502.6479 343.37915L494.38358 339.57843L495.24536 338.71664L501.92975 341.97598ZM508.96765 337.05936L508.20532 337.82172L503.1009 332.7173L502.11755 334.82758L501.4215 334.1315L502.79153 331.10422L502.902 330.9937L508.96765 337.05936ZM509.69687 325.12695L512.8015 333.22552L511.99496 334.03207L509.07816 326.1434L505.81882 329.40274L505.18906 328.77295L509.26596 324.69604L509.69687 325.12695Z" fill-rule="nonzero"/><path fill="#757575" d="M518.56525 350.27344L517.13995 351.6987L519.58167 354.14044L518.7862 354.93594L512.75366 348.9034L514.7535 346.90363Q515.76996 345.88718 516.7753 345.80984Q517.7918 345.72144 518.6757 346.60532Q519.2392 347.1688 519.3497 347.898Q519.4712 348.61615 519.1398 349.36746L523.1062 350.50546L523.16144 350.5607L522.31067 351.41144L518.56525 350.27344ZM516.4881 351.04684L517.7145 349.82047Q518.3111 349.22385 518.3553 348.583Q518.3995 347.9201 517.8802 347.40082Q517.32776 346.8484 516.698 346.88153Q516.06824 346.91467 515.4274 347.53342L514.20105 348.7598L516.4881 351.04684ZM524.3657 343.78796L521.7472 346.40646L523.8796 348.53882L526.9179 345.50046L527.56976 346.15234L523.73596 349.98618L517.7034 343.95367L521.50415 340.15298L522.156 340.80484L519.1508 343.81006L521.09534 345.75458L523.71387 343.13608L524.3657 343.78796ZM529.6248 341.97598L526.3765 335.28058L527.2494 334.40775L531.039 342.6831L530.34296 343.37915L522.0787 339.57846L522.9404 338.71667L529.6248 341.97598ZM536.6627 337.0594L535.9004 337.82175L530.79596 332.71732L529.8126 334.82758L529.1166 334.13153L530.4866 331.10422L530.5971 330.99374L536.6627 337.0594ZM538.2979 326.49698Q538.7509 326.94998 538.8614 327.5466Q538.97186 328.14322 538.773 328.73984Q539.4359 328.47467 540.10986 328.5962Q540.77277 328.7067 541.26996 329.20386Q542.0434 329.97726 541.98816 330.9827Q541.93286 331.966 541.0711 332.8278Q540.19824 333.70062 539.2039 333.7669Q538.20953 333.81113 537.43616 333.03772Q536.93896 332.54053 536.81744 331.88867Q536.6848 331.22577 536.96106 330.5518Q536.36444 330.75067 535.7789 330.62912Q535.1933 330.5076 534.7403 330.0546Q533.97797 329.29227 534.02216 328.3642Q534.0553 327.42505 534.8618 326.6185Q535.65735 325.82303 536.59644 325.7899Q537.5356 325.73462 538.2979 326.49698ZM540.48553 329.94412Q539.9773 329.43588 539.34753 329.44693Q538.7067 329.44693 538.18744 329.96622Q537.66815 330.4855 537.66815 331.1263Q537.66815 331.74503 538.18744 332.2643Q538.6957 332.77255 539.30334 332.7615Q539.89996 332.7394 540.44135 332.19803Q540.9717 331.6677 540.9827 331.06003Q540.9938 330.45236 540.48553 329.94412ZM535.4916 327.2483Q535.0386 327.70126 535.0386 328.2758Q535.0386 328.82822 535.5247 329.31436Q535.9777 329.76733 536.5412 329.77838Q537.1047 329.78946 537.5577 329.33646Q538.0217 328.8724 538.0107 328.30893Q537.99963 327.74545 537.54663 327.29248Q537.0826 326.82843 536.50806 326.82843Q535.9225 326.81738 535.4916 327.2483Z" fill-rule="nonzero"/><path fill="#757575" d="M546.2603 350.2734L544.8351 351.69867L547.2768 354.1404L546.4813 354.9359L540.4488 348.9034L542.4486 346.90363Q543.4651 345.88715 544.47046 345.8098Q545.48694 345.7214 546.37085 346.6053Q546.9343 347.16876 547.0448 347.89798Q547.1663 348.61612 546.83484 349.36743L550.8013 350.50543L550.8565 350.56067L550.0058 351.4114L546.2603 350.2734ZM544.1832 351.0468L545.4096 349.82043Q546.0062 349.22382 546.0504 348.58298Q546.0946 347.92007 545.5753 347.4008Q545.0229 346.84836 544.3931 346.8815Q543.76337 346.91467 543.12256 347.5334L541.8962 348.75977L544.1832 351.0468ZM552.06085 343.78793L549.4423 346.40643L551.5747 348.5388L554.61304 345.50046L555.2649 346.1523L551.431 349.98615L545.39856 343.95364L549.1993 340.15295L549.85114 340.8048L546.8459 343.81003L548.79047 345.75455L551.40894 343.13605L552.06085 343.78793ZM557.31995 341.97595L554.07166 335.28055L554.9445 334.4077L558.73413 342.68307L558.0381 343.37912L549.7738 339.57843L550.63556 338.71664L557.31995 341.97595ZM564.35785 337.05936L563.5955 337.82172L558.4911 332.7173L557.50775 334.82755L556.8117 334.1315L558.1817 331.1042L558.2922 330.9937L564.35785 337.05936ZM567.0758 329.03812Q567.13104 329.5574 566.96533 330.0767Q566.79956 330.57385 566.40186 330.97162Q565.88257 331.4909 565.24176 331.62347Q564.60095 331.75604 563.92694 331.50195Q563.24194 331.2368 562.67847 330.6733Q562.08185 330.0767 561.8167 329.36957Q561.56256 328.65143 561.7283 327.97745Q561.89404 327.2814 562.4575 326.71793Q563.3524 325.823 564.5346 325.9887Q565.72784 326.1434 566.8769 327.29245L567.0979 327.51343Q568.86566 329.2812 568.97614 330.78378Q569.0866 332.28638 567.70557 333.71164L567.5509 333.86633L566.9101 333.22552L567.0758 333.05978Q568.00385 332.08752 568.03705 331.1042Q568.0702 330.12088 567.0758 329.03812ZM565.8936 330.2203Q566.2803 329.83362 566.3687 329.2812Q566.4571 328.70667 566.2692 328.20947L565.9599 327.90012Q565.2086 327.1488 564.40204 327.0052Q563.5955 326.86154 563.0983 327.35873Q562.5901 327.86697 562.6674 328.56302Q562.7558 329.24805 563.3966 329.88885Q564.0153 330.50757 564.7004 330.61807Q565.3964 330.7175 565.8936 330.2203Z" fill-rule="nonzero"/><path fill="#db4437" d="M213.0 21.05C213.0 20.497715 213.44771 20.05 214.0 20.05L224.0 20.05C224.55229 20.05 225.0 20.497715 225.0 21.05L225.0 31.05C225.0 31.602285 224.55229 32.05 224.0 32.05L214.0 32.05C213.44771 32.05 213.0 31.602285 213.0 31.05Z" fill-rule="nonzero"/><path fill="#757575" d="M235.125 29.628124L239.17188 29.628124L239.17188 30.55L233.98438 30.55L233.98438 22.01875L235.125 22.01875L235.125 29.628124ZM241.0 30.55L239.92188 30.55L239.92188 24.20625L241.0 24.20625L241.0 30.55ZM239.82812 22.534374Q239.82812 22.26875 239.98438 22.08125Q240.15625 21.89375 240.46875 21.89375Q240.78125 21.89375 240.9375 22.08125Q241.10938 22.26875 241.10938 22.534374Q241.10938 22.784374 240.9375 22.971874Q240.78125 23.14375 240.46875 23.14375Q240.15625 23.14375 239.98438 22.971874Q239.82812 22.784374 239.82812 22.534374ZM244.59375 27.6125L243.90625 28.315624L243.90625 30.55L242.82812 30.55L242.82812 21.55L243.90625 21.55L243.90625 26.9875L244.48438 26.3L246.46875 24.20625L247.78125 24.20625L245.3125 26.8625L248.07812 30.55L246.79688 30.55L244.59375 27.6125ZM251.45312 30.675Q250.15625 30.675 249.34375 29.83125Q248.54688 28.971874 248.54688 27.55L248.54688 27.3625Q248.54688 26.409374 248.90625 25.675Q249.26562 24.925 249.90625 24.51875Q250.5625 24.096874 251.3125 24.096874Q252.54688 24.096874 253.23438 24.909374Q253.92188 25.721874 253.92188 27.2375L253.92188 27.690624L249.625 27.690624Q249.65625 28.628124 250.17188 29.20625Q250.70312 29.784374 251.51562 29.784374Q252.07812 29.784374 252.46875 29.55Q252.875 29.315624 253.1875 28.925L253.84375 29.440624Q253.04688 30.675 251.45312 30.675ZM251.3125 24.9875Q250.65625 24.9875 250.20312 25.471874Q249.76562 25.940624 249.67188 26.8L252.84375 26.8L252.84375 26.721874Q252.79688 25.89375 252.39062 25.440624Q252.0 24.9875 251.3125 24.9875ZM256.0 30.55L254.92188 30.55L254.92188 21.55L256.0 21.55L256.0 30.55ZM259.89062 28.95625L261.375 24.20625L262.53125 24.20625L259.98438 31.534374Q259.39062 33.1125 258.10938 33.1125L257.89062 33.096874L257.5 33.01875L257.5 32.14375L257.78125 32.159374Q258.34375 32.159374 258.64062 31.940624Q258.95312 31.721874 259.15625 31.128124L259.39062 30.471874L257.125 24.20625L258.3125 24.20625L259.89062 28.95625ZM265.10938 27.20625L265.10938 30.55L263.98438 30.55L263.98438 22.01875L267.14062 22.01875Q268.53125 22.01875 269.32812 22.7375Q270.125 23.440624 270.125 24.628124Q270.125 25.8625 269.34375 26.534374Q268.57812 27.20625 267.125 27.20625L265.10938 27.20625ZM265.10938 26.284374L267.14062 26.284374Q268.04688 26.284374 268.51562 25.8625Q269.0 25.440624 269.0 24.64375Q269.0 23.878124 268.51562 23.425Q268.04688 22.95625 267.20312 22.940624L265.10938 22.940624L265.10938 26.284374ZM273.0 30.55L271.92188 30.55L271.92188 21.55L273.0 21.55L273.0 30.55ZM278.73438 30.55Q278.64062 30.3625 278.57812 29.878124Q277.82812 30.675 276.78125 30.675Q275.84375 30.675 275.23438 30.14375Q274.64062 29.6125 274.64062 28.784374Q274.64062 27.8 275.39062 27.253124Q276.14062 26.70625 277.51562 26.70625L278.5625 26.70625L278.5625 26.20625Q278.5625 25.64375 278.21875 25.315624Q277.89062 24.971874 277.21875 24.971874Q276.64062 24.971874 276.25 25.26875Q275.85938 25.55 275.85938 25.971874L274.76562 25.971874Q274.76562 25.4875 275.09375 25.05Q275.4375 24.6125 276.01562 24.3625Q276.59375 24.096874 277.28125 24.096874Q278.39062 24.096874 279.0 24.64375Q279.625 25.190624 279.65625 26.14375L279.65625 29.065624Q279.65625 29.940624 279.875 30.45625L279.875 30.55L278.73438 30.55ZM276.9375 29.721874Q277.45312 29.721874 277.90625 29.45625Q278.35938 29.190624 278.5625 28.76875L278.5625 27.471874L277.71875 27.471874Q275.71875 27.471874 275.71875 28.64375Q275.71875 29.14375 276.0625 29.440624Q276.40625 29.721874 276.9375 29.721874ZM282.84375 24.20625L282.875 25.003124Q283.60938 24.096874 284.78125 24.096874Q286.79688 24.096874 286.8125 26.3625L286.8125 30.55L285.71875 30.55L285.71875 26.346874Q285.71875 25.675 285.40625 25.346874Q285.10938 25.01875 284.45312 25.01875Q283.92188 25.01875 283.51562 25.3Q283.125 25.58125 282.90625 26.034374L282.90625 30.55L281.82812 30.55L281.82812 24.20625L282.84375 24.20625ZM289.84375 24.20625L289.875 25.003124Q290.60938 24.096874 291.78125 24.096874Q293.79688 24.096874 293.8125 26.3625L293.8125 30.55L292.71875 30.55L292.71875 26.346874Q292.71875 25.675 292.40625 25.346874Q292.10938 25.01875 291.45312 25.01875Q290.92188 25.01875 290.51562 25.3Q290.125 25.58125 289.90625 26.034374L289.90625 30.55L288.82812 30.55L288.82812 24.20625L289.84375 24.20625ZM298.45312 30.675Q297.15625 30.675 296.34375 29.83125Q295.54688 28.971874 295.54688 27.55L295.54688 27.3625Q295.54688 26.409374 295.90625 25.675Q296.26562 24.925 296.90625 24.51875Q297.5625 24.096874 298.3125 24.096874Q299.54688 24.096874 300.23438 24.909374Q300.92188 25.721874 300.92188 27.2375L300.92188 27.690624L296.625 27.690624Q296.65625 28.628124 297.17188 29.20625Q297.70312 29.784374 298.51562 29.784374Q299.07812 29.784374 299.46875 29.55Q299.875 29.315624 300.1875 28.925L300.84375 29.440624Q300.04688 30.675 298.45312 30.675ZM298.3125 24.9875Q297.65625 24.9875 297.20312 25.471874Q296.76562 25.940624 296.67188 26.8L299.84375 26.8L299.84375 26.721874Q299.79688 25.89375 299.39062 25.440624Q299.0 24.9875 298.3125 24.9875ZM301.5625 27.33125Q301.5625 25.8625 302.25 24.9875Q302.9375 24.096874 304.0625 24.096874Q305.17188 24.096874 305.82812 24.846874L305.82812 21.55L306.90625 21.55L306.90625 30.55L305.90625 30.55L305.85938 29.8625Q305.20312 30.675 304.04688 30.675Q302.95312 30.675 302.25 29.76875Q301.5625 28.8625 301.5625 27.409374L301.5625 27.33125ZM302.64062 27.45625Q302.64062 28.534374 303.07812 29.14375Q303.53125 29.753124 304.3125 29.753124Q305.34375 29.753124 305.82812 28.815624L305.82812 25.909374Q305.34375 25.01875 304.32812 25.01875Q303.53125 25.01875 303.07812 25.628124Q302.64062 26.2375 302.64062 27.45625Z" fill-rule="nonzero"/><path fill="#4285f4" d="M324.0 21.05C324.0 20.497715 324.44772 20.05 325.0 20.05L335.0 20.05C335.55228 20.05 336.0 20.497715 336.0 21.05L336.0 31.05C336.0 31.602285 335.55228 32.05 335.0 32.05L325.0 32.05C324.44772 32.05 324.0 31.602285 324.0 31.05Z" fill-rule="nonzero"/><path fill="#757575" d="M349.8125 26.6125L346.10938 26.6125L346.10938 29.628124L350.40625 29.628124L350.40625 30.55L344.98438 30.55L344.98438 22.01875L350.35938 22.01875L350.35938 22.940624L346.10938 22.940624L346.10938 25.690624L349.8125 25.690624L349.8125 26.6125ZM353.95312 26.51875L355.35938 24.20625L356.625 24.20625L354.54688 27.346874L356.6875 30.55L355.4375 30.55L353.96875 28.175L352.5 30.55L351.23438 30.55L353.375 27.346874L351.3125 24.20625L352.5625 24.20625L353.95312 26.51875ZM359.0 30.55L357.92188 30.55L357.92188 24.20625L359.0 24.20625L359.0 30.55ZM357.82812 22.534374Q357.82812 22.26875 357.98438 22.08125Q358.15625 21.89375 358.46875 21.89375Q358.78125 21.89375 358.9375 22.08125Q359.10938 22.26875 359.10938 22.534374Q359.10938 22.784374 358.9375 22.971874Q358.78125 23.14375 358.46875 23.14375Q358.15625 23.14375 357.98438 22.971874Q357.82812 22.784374 357.82812 22.534374ZM364.51562 28.8625Q364.51562 28.425 364.17188 28.190624Q363.84375 27.940624 363.01562 27.76875Q362.20312 27.596874 361.71875 27.346874Q361.23438 27.096874 361.0 26.76875Q360.78125 26.425 360.78125 25.95625Q360.78125 25.175 361.4375 24.64375Q362.09375 24.096874 363.125 24.096874Q364.20312 24.096874 364.85938 24.659374Q365.53125 25.20625 365.53125 26.065624L364.45312 26.065624Q364.45312 25.628124 364.0625 25.315624Q363.6875 24.9875 363.125 24.9875Q362.53125 24.9875 362.1875 25.253124Q361.85938 25.503124 361.85938 25.909374Q361.85938 26.3 362.17188 26.503124Q362.48438 26.70625 363.29688 26.89375Q364.10938 27.065624 364.60938 27.315624Q365.10938 27.565624 365.34375 27.925Q365.59375 28.284374 365.59375 28.784374Q365.59375 29.64375 364.90625 30.159374Q364.23438 30.675 363.15625 30.675Q362.39062 30.675 361.79688 30.409374Q361.21875 30.128124 360.89062 29.64375Q360.5625 29.159374 360.5625 28.596874L361.64062 28.596874Q361.67188 29.14375 362.07812 29.471874Q362.48438 29.784374 363.15625 29.784374Q363.76562 29.784374 364.14062 29.534374Q364.51562 29.284374 364.51562 28.8625ZM368.29688 22.675L368.29688 24.20625L369.46875 24.20625L369.46875 25.05L368.29688 25.05L368.29688 28.971874Q368.29688 29.3625 368.45312 29.55Q368.60938 29.7375 368.98438 29.7375Q369.17188 29.7375 369.5 29.675L369.5 30.55Q369.07812 30.675 368.67188 30.675Q367.95312 30.675 367.57812 30.2375Q367.20312 29.784374 367.20312 28.971874L367.20312 25.05L366.04688 25.05L366.04688 24.20625L367.20312 24.20625L367.20312 22.675L368.29688 22.675ZM372.0 30.55L370.92188 30.55L370.92188 24.20625L372.0 24.20625L372.0 30.55ZM370.82812 22.534374Q370.82812 22.26875 370.98438 22.08125Q371.15625 21.89375 371.46875 21.89375Q371.78125 21.89375 371.9375 22.08125Q372.10938 22.26875 372.10938 22.534374Q372.10938 22.784374 371.9375 22.971874Q371.78125 23.14375 371.46875 23.14375Q371.15625 23.14375 370.98438 22.971874Q370.82812 22.784374 370.82812 22.534374ZM374.84375 24.20625L374.875 25.003124Q375.60938 24.096874 376.78125 24.096874Q378.79688 24.096874 378.8125 26.3625L378.8125 30.55L377.71875 30.55L377.71875 26.346874Q377.71875 25.675 377.40625 25.346874Q377.10938 25.01875 376.45312 25.01875Q375.92188 25.01875 375.51562 25.3Q375.125 25.58125 374.90625 26.034374L374.90625 30.55L373.82812 30.55L373.82812 24.20625L374.84375 24.20625ZM380.5625 27.33125Q380.5625 25.846874 381.25 24.971874Q381.9375 24.096874 383.0625 24.096874Q384.21875 24.096874 384.875 24.909374L384.92188 24.20625L385.92188 24.20625L385.92188 30.39375Q385.92188 31.628124 385.1875 32.33125Q384.45312 33.05 383.23438 33.05Q382.54688 33.05 381.89062 32.753124Q381.23438 32.45625 380.89062 31.95625L381.45312 31.3Q382.14062 32.159374 383.15625 32.159374Q383.9375 32.159374 384.375 31.70625Q384.82812 31.26875 384.82812 30.45625L384.82812 29.909374Q384.17188 30.675 383.04688 30.675Q381.9375 30.675 381.25 29.784374Q380.5625 28.878124 380.5625 27.33125ZM381.65625 27.45625Q381.65625 28.51875 382.09375 29.14375Q382.53125 29.753124 383.32812 29.753124Q384.34375 29.753124 384.82812 28.815624L384.82812 25.925Q384.32812 25.01875 383.32812 25.01875Q382.54688 25.01875 382.09375 25.628124Q381.65625 26.2375 381.65625 27.45625Z" fill-rule="nonzero"/></svg>