<svg version="1.1" viewBox="0.0 0.0 777.0 371.0" fill="none" stroke="none" stroke-linecap="square" stroke-miterlimit="10" width="777" height="371" xmlns:xlink="http://www.w3.org/1999/xlink" xmlns="http://www.w3.org/2000/svg"><path fill="#ffffff" d="M0 0L777.0 0L777.0 371.0L0 371.0L0 0Z" fill-rule="nonzero"/><path fill="#0f9d58" d="M291.4199 49.677483C319.7429 29.433414 353.686 18.55 388.5 18.55L388.5 102.025C371.093 102.025 354.12146 107.466705 339.95996 117.58874Z" fill-rule="nonzero"/><path fill="#f4b400" d="M230.54056 131.45262C241.81104 98.51341 263.0969 69.92155 291.4199 49.677483L339.95996 117.58874C325.79843 127.71078 315.15552 142.0067 309.5203 158.4763Z" fill-rule="nonzero"/><path fill="#db4437" d="M369.1183 351.32114C318.97693 345.46045 274.18018 317.22617 247.26257 274.5185C220.34497 231.8108 214.1976 179.21672 230.54056 131.45262L309.5203 158.4763C301.34882 182.35837 304.4225 208.6554 317.8813 230.00925C331.3401 251.36308 353.73846 265.48022 378.80914 268.41058Z" fill-rule="nonzero"/><path fill="#4285f4" d="M388.5 18.55C450.46494 18.55 507.3326 52.86982 536.211 107.69403C565.08936 162.51825 561.2273 228.82713 526.1795 279.92807C491.13168 331.02902 430.66425 358.51483 369.1183 351.32114L378.80914 268.41058C409.58212 272.00742 439.81586 258.2645 457.33975 232.71404C474.86365 207.16356 476.79468 174.00912 462.3555 146.59702C447.91632 119.184906 419.48248 102.025 388.5 102.025Z" fill-rule="nonzero"/><path fill="#757575" d="M26.096874 26.565624Q26.096874 27.815624 25.675 28.753124Q25.253124 29.675 24.471874 30.175Q23.70625 30.675 22.675 30.675Q21.675 30.675 20.89375 30.175Q20.1125 29.675 19.675 28.76875Q19.253124 27.846874 19.2375 26.628124L19.2375 26.01875Q19.2375 24.784374 19.659374 23.846874Q20.096874 22.909374 20.878124 22.409374Q21.659374 21.89375 22.675 21.89375Q23.690624 21.89375 24.471874 22.39375Q25.253124 22.89375 25.675 23.83125Q26.096874 24.76875 26.096874 26.01875L26.096874 26.565624ZM24.9875 26.003124Q24.9875 24.4875 24.378124 23.675Q23.76875 22.8625 22.675 22.8625Q21.596874 22.8625 20.9875 23.675Q20.378124 24.4875 20.3625 25.925L20.3625 26.565624Q20.3625 28.034374 20.971874 28.878124Q21.596874 29.70625 22.675 29.70625Q23.76875 29.70625 24.3625 28.925Q24.971874 28.128124 24.9875 26.64375L24.9875 26.003124ZM28.39375 24.20625L28.425 25.003124Q29.159374 24.096874 30.33125 24.096874Q32.346874 24.096874 32.3625 26.3625L32.3625 30.55L31.26875 30.55L31.26875 26.346874Q31.26875 25.675 30.95625 25.346874Q30.659374 25.01875 30.003124 25.01875Q29.471874 25.01875 29.065624 25.3Q28.675 25.58125 28.45625 26.034374L28.45625 30.55L27.378124 30.55L27.378124 24.20625L28.39375 24.20625ZM35.55 30.55L34.471874 30.55L34.471874 21.55L35.55 21.55L35.55 30.55ZM39.440624 28.95625L40.925 24.20625L42.08125 24.20625L39.534374 31.534374Q38.940624 33.1125 37.659374 33.1125L37.440624 33.096874L37.05 33.01875L37.05 32.14375L37.33125 32.159374Q37.89375 32.159374 38.190624 31.940624Q38.503124 31.721874 38.70625 31.128124L38.940624 30.471874L36.675 24.20625L37.8625 24.20625L39.440624 28.95625ZM49.815624 30.55L48.7375 30.55L48.7375 23.33125L46.55 24.128124L46.55 23.14375L49.659374 21.971874L49.815624 21.971874L49.815624 30.55ZM61.721874 27.45625Q61.721874 28.89375 61.065624 29.784374Q60.409374 30.675 59.26875 30.675Q58.1125 30.675 57.45625 29.940624L57.45625 32.9875L56.378124 32.9875L56.378124 24.20625L57.3625 24.20625L57.409374 24.909374Q58.08125 24.096874 59.253124 24.096874Q60.39375 24.096874 61.05 24.95625Q61.721874 25.815624 61.721874 27.346874L61.721874 27.45625ZM60.64375 27.33125Q60.64375 26.253124 60.175 25.64375Q59.721874 25.01875 58.925 25.01875Q57.940624 25.01875 57.45625 25.878124L57.45625 28.909374Q57.940624 29.784374 58.940624 29.784374Q59.721874 29.784374 60.175 29.175Q60.64375 28.55 60.64375 27.33125ZM64.55 30.55L63.471874 30.55L63.471874 21.55L64.55 21.55L64.55 30.55ZM70.28438 30.55Q70.19063 30.3625 70.12813 29.878124Q69.37813 30.675 68.33125 30.675Q67.39375 30.675 66.78438 30.14375Q66.19063 29.6125 66.19063 28.784374Q66.19063 27.8 66.94063 27.253124Q67.69063 26.70625 69.06563 26.70625L70.1125 26.70625L70.1125 26.20625Q70.1125 25.64375 69.76875 25.315624Q69.44063 24.971874 68.76875 24.971874Q68.19063 24.971874 67.8 25.26875Q67.40938 25.55 67.40938 25.971874L66.31563 25.971874Q66.31563 25.4875 66.64375 25.05Q66.9875 24.6125 67.56563 24.3625Q68.14375 24.096874 68.83125 24.096874Q69.94063 24.096874 70.55 24.64375Q71.175 25.190624 71.20625 26.14375L71.20625 29.065624Q71.20625 29.940624 71.425 30.45625L71.425 30.55L70.28438 30.55ZM68.4875 29.721874Q69.00313 29.721874 69.45625 29.45625Q69.90938 29.190624 70.1125 28.76875L70.1125 27.471874L69.26875 27.471874Q67.26875 27.471874 67.26875 28.64375Q67.26875 29.14375 67.6125 29.440624Q67.95625 29.721874 68.4875 29.721874ZM74.39375 24.20625L74.425 25.003124Q75.15938 24.096874 76.33125 24.096874Q78.34688 24.096874 78.3625 26.3625L78.3625 30.55L77.26875 30.55L77.26875 26.346874Q77.26875 25.675 76.95625 25.346874Q76.65938 25.01875 76.00313 25.01875Q75.47188 25.01875 75.06563 25.3Q74.675 25.58125 74.45625 26.034374L74.45625 30.55L73.37813 30.55L73.37813 24.20625L74.39375 24.20625ZM81.39375 24.20625L81.425 25.003124Q82.15938 24.096874 83.33125 24.096874Q85.34688 24.096874 85.3625 26.3625L85.3625 30.55L84.26875 30.55L84.26875 26.346874Q84.26875 25.675 83.95625 25.346874Q83.65938 25.01875 83.00313 25.01875Q82.47188 25.01875 82.06563 25.3Q81.675 25.58125 81.45625 26.034374L81.45625 30.55L80.37813 30.55L80.37813 24.20625L81.39375 24.20625ZM90.00313 30.675Q88.70625 30.675 87.89375 29.83125Q87.09688 28.971874 87.09688 27.55L87.09688 27.3625Q87.09688 26.409374 87.45625 25.675Q87.81563 24.925 88.45625 24.51875Q89.1125 24.096874 89.8625 24.096874Q91.09688 24.096874 91.78438 24.909374Q92.47188 25.721874 92.47188 27.2375L92.47188 27.690624L88.175 27.690624Q88.20625 28.628124 88.72188 29.20625Q89.25313 29.784374 90.06563 29.784374Q90.62813 29.784374 91.01875 29.55Q91.425 29.315624 91.7375 28.925L92.39375 29.440624Q91.59688 30.675 90.00313 30.675ZM89.8625 24.9875Q89.20625 24.9875 88.75313 25.471874Q88.31563 25.940624 88.22188 26.8L91.39375 26.8L91.39375 26.721874Q91.34688 25.89375 90.94063 25.440624Q90.55 24.9875 89.8625 24.9875ZM93.1125 27.33125Q93.1125 25.8625 93.8 24.9875Q94.4875 24.096874 95.6125 24.096874Q96.72188 24.096874 97.37813 24.846874L97.37813 21.55L98.45625 21.55L98.45625 30.55L97.45625 30.55L97.40938 29.8625Q96.75313 30.675 95.59688 30.675Q94.50313 30.675 93.8 29.76875Q93.1125 28.8625 93.1125 27.409374L93.1125 27.33125ZM94.19063 27.45625Q94.19063 28.534374 94.62813 29.14375Q95.08125 29.753124 95.8625 29.753124Q96.89375 29.753124 97.37813 28.815624L97.37813 25.909374Q96.89375 25.01875 95.87813 25.01875Q95.08125 25.01875 94.62813 25.628124Q94.19063 26.2375 94.19063 27.45625ZM104.55 30.55L103.47188 30.55L103.47188 24.20625L104.55 24.20625L104.55 30.55ZM103.37813 22.534374Q103.37813 22.26875 103.53438 22.08125Q103.70625 21.89375 104.01875 21.89375Q104.33125 21.89375 104.4875 22.08125Q104.65938 22.26875 104.65938 22.534374Q104.65938 22.784374 104.4875 22.971874Q104.33125 23.14375 104.01875 23.14375Q103.70625 23.14375 103.53438 22.971874Q103.37813 22.784374 103.37813 22.534374ZM107.39375 24.20625L107.425 24.909374Q108.1125 24.096874 109.3 24.096874Q110.62813 24.096874 111.1125 25.1125Q111.425 24.659374 111.925 24.378124Q112.44063 24.096874 113.12813 24.096874Q115.22188 24.096874 115.25313 26.3L115.25313 30.55L114.175 30.55L114.175 26.3625Q114.175 25.690624 113.8625 25.3625Q113.55 25.01875 112.81563 25.01875Q112.20625 25.01875 111.8 25.378124Q111.40938 25.7375 111.34688 26.346874L111.34688 30.55L110.26875 30.55L110.26875 26.39375Q110.26875 25.01875 108.90938 25.01875Q107.84688 25.01875 107.45625 25.925L107.45625 30.55L106.3625 30.55L106.3625 24.20625L107.39375 24.20625ZM122.72188 27.45625Q122.72188 28.89375 122.06563 29.784374Q121.40938 30.675 120.26875 30.675Q119.1125 30.675 118.45625 29.940624L118.45625 32.9875L117.37813 32.9875L117.37813 24.20625L118.3625 24.20625L118.40938 24.909374Q119.08125 24.096874 120.25313 24.096874Q121.39375 24.096874 122.05 24.95625Q122.72188 25.815624 122.72188 27.346874L122.72188 27.45625ZM121.64375 27.33125Q121.64375 26.253124 121.175 25.64375Q120.72188 25.01875 119.925 25.01875Q118.94063 25.01875 118.45625 25.878124L118.45625 28.909374Q118.94063 29.784374 119.94063 29.784374Q120.72188 29.784374 121.175 29.175Q121.64375 28.55 121.64375 27.33125ZM125.55 30.55L124.47188 30.55L124.47188 21.55L125.55 21.55L125.55 30.55ZM130.00313 30.675Q128.70625 30.675 127.89375 29.83125Q127.09688 28.971874 127.09688 27.55L127.09688 27.3625Q127.09688 26.409374 127.45625 25.675Q127.81563 24.925 128.45625 24.51875Q129.1125 24.096874 129.8625 24.096874Q131.09688 24.096874 131.78438 24.909374Q132.47188 25.721874 132.47188 27.2375L132.47188 27.690624L128.175 27.690624Q128.20625 28.628124 128.72188 29.20625Q129.25313 29.784374 130.06563 29.784374Q130.62813 29.784374 131.01875 29.55Q131.425 29.315624 131.7375 28.925L132.39375 29.440624Q131.59688 30.675 130.00313 30.675ZM129.8625 24.9875Q129.20625 24.9875 128.75313 25.471874Q128.31563 25.940624 128.22188 26.8L131.39375 26.8L131.39375 26.721874Q131.34688 25.89375 130.94063 25.440624Q130.55 24.9875 129.8625 24.9875ZM134.39375 24.20625L134.425 24.909374Q135.1125 24.096874 136.3 24.096874Q137.62813 24.096874 138.1125 25.1125Q138.425 24.659374 138.925 24.378124Q139.44063 24.096874 140.12813 24.096874Q142.22188 24.096874 142.25313 26.3L142.25313 30.55L141.175 30.55L141.175 26.3625Q141.175 25.690624 140.8625 25.3625Q140.55 25.01875 139.81563 25.01875Q139.20625 25.01875 138.8 25.378124Q138.40938 25.7375 138.34688 26.346874L138.34688 30.55L137.26875 30.55L137.26875 26.39375Q137.26875 25.01875 135.90938 25.01875Q134.84688 25.01875 134.45625 25.925L134.45625 30.55L133.3625 30.55L133.3625 24.20625L134.39375 24.20625ZM147.00313 30.675Q145.70625 30.675 144.89375 29.83125Q144.09688 28.971874 144.09688 27.55L144.09688 27.3625Q144.09688 26.409374 144.45625 25.675Q144.81563 24.925 145.45625 24.51875Q146.1125 24.096874 146.8625 24.096874Q148.09688 24.096874 148.78438 24.909374Q149.47188 25.721874 149.47188 27.2375L149.47188 27.690624L145.175 27.690624Q145.20625 28.628124 145.72188 29.20625Q146.25313 29.784374 147.06563 29.784374Q147.62813 29.784374 148.01875 29.55Q148.425 29.315624 148.7375 28.925L149.39375 29.440624Q148.59688 30.675 147.00313 30.675ZM146.8625 24.9875Q146.20625 24.9875 145.75313 25.471874Q145.31563 25.940624 145.22188 26.8L148.39375 26.8L148.39375 26.721874Q148.34688 25.89375 147.94063 25.440624Q147.55 24.9875 146.8625 24.9875ZM151.39375 24.20625L151.425 25.003124Q152.15938 24.096874 153.33125 24.096874Q155.34688 24.096874 155.3625 26.3625L155.3625 30.55L154.26875 30.55L154.26875 26.346874Q154.26875 25.675 153.95625 25.346874Q153.65938 25.01875 153.00313 25.01875Q152.47188 25.01875 152.06563 25.3Q151.675 25.58125 151.45625 26.034374L151.45625 30.55L150.37813 30.55L150.37813 24.20625L151.39375 24.20625ZM158.84688 22.675L158.84688 24.20625L160.01875 24.20625L160.01875 25.05L158.84688 25.05L158.84688 28.971874Q158.84688 29.3625 159.00313 29.55Q159.15938 29.7375 159.53438 29.7375Q159.72188 29.7375 160.05 29.675L160.05 30.55Q159.62813 30.675 159.22188 30.675Q158.50313 30.675 158.12813 30.2375Q157.75313 29.784374 157.75313 28.971874L157.75313 25.05L156.59688 25.05L156.59688 24.20625L157.75313 24.20625L157.75313 22.675L158.84688 22.675ZM165.28438 30.55Q165.19063 30.3625 165.12813 29.878124Q164.37813 30.675 163.33125 30.675Q162.39375 30.675 161.78438 30.14375Q161.19063 29.6125 161.19063 28.784374Q161.19063 27.8 161.94063 27.253124Q162.69063 26.70625 164.06563 26.70625L165.1125 26.70625L165.1125 26.20625Q165.1125 25.64375 164.76875 25.315624Q164.44063 24.971874 163.76875 24.971874Q163.19063 24.971874 162.8 25.26875Q162.40938 25.55 162.40938 25.971874L161.31563 25.971874Q161.31563 25.4875 161.64375 25.05Q161.9875 24.6125 162.56563 24.3625Q163.14375 24.096874 163.83125 24.096874Q164.94063 24.096874 165.55 24.64375Q166.175 25.190624 166.20625 26.14375L166.20625 29.065624Q166.20625 29.940624 166.425 30.45625L166.425 30.55L165.28438 30.55ZM163.4875 29.721874Q164.00313 29.721874 164.45625 29.45625Q164.90938 29.190624 165.1125 28.76875L165.1125 27.471874L164.26875 27.471874Q162.26875 27.471874 162.26875 28.64375Q162.26875 29.14375 162.6125 29.440624Q162.95625 29.721874 163.4875 29.721874ZM169.84688 22.675L169.84688 24.20625L171.01875 24.20625L171.01875 25.05L169.84688 25.05L169.84688 28.971874Q169.84688 29.3625 170.00313 29.55Q170.15938 29.7375 170.53438 29.7375Q170.72188 29.7375 171.05 29.675L171.05 30.55Q170.62813 30.675 170.22188 30.675Q169.50313 30.675 169.12813 30.2375Q168.75313 29.784374 168.75313 28.971874L168.75313 25.05L167.59688 25.05L167.59688 24.20625L168.75313 24.20625L168.75313 22.675L169.84688 22.675ZM173.55 30.55L172.47188 30.55L172.47188 24.20625L173.55 24.20625L173.55 30.55ZM172.37813 22.534374Q172.37813 22.26875 172.53438 22.08125Q172.70625 21.89375 173.01875 21.89375Q173.33125 21.89375 173.4875 22.08125Q173.65938 22.26875 173.65938 22.534374Q173.65938 22.784374 173.4875 22.971874Q173.33125 23.14375 173.01875 23.14375Q172.70625 23.14375 172.53438 22.971874Q172.37813 22.784374 172.37813 22.534374ZM175.08125 27.315624Q175.08125 26.39375 175.44063 25.64375Q175.81563 24.89375 176.47188 24.503124Q177.12813 24.096874 177.95625 24.096874Q179.25313 24.096874 180.05 24.9875Q180.8625 25.878124 180.8625 27.378124L180.8625 27.45625Q180.8625 28.378124 180.50313 29.1125Q180.14375 29.846874 179.4875 30.26875Q178.83125 30.675 177.97188 30.675Q176.69063 30.675 175.87813 29.784374Q175.08125 28.878124 175.08125 27.39375L175.08125 27.315624ZM176.175 27.45625Q176.175 28.503124 176.65938 29.14375Q177.15938 29.784374 177.97188 29.784374Q178.8 29.784374 179.28438 29.14375Q179.76875 28.4875 179.76875 27.315624Q179.76875 26.284374 179.26875 25.64375Q178.78438 24.9875 177.95625 24.9875Q177.15938 24.9875 176.65938 25.628124Q176.175 26.253124 176.175 27.45625ZM183.39375 24.20625L183.425 25.003124Q184.15938 24.096874 185.33125 24.096874Q187.34688 24.096874 187.3625 26.3625L187.3625 30.55L186.26875 30.55L186.26875 26.346874Q186.26875 25.675 185.95625 25.346874Q185.65938 25.01875 185.00313 25.01875Q184.47188 25.01875 184.06563 25.3Q183.675 25.58125 183.45625 26.034374L183.45625 30.55L182.37813 30.55L182.37813 24.20625L183.39375 24.20625Z" fill-rule="nonzero"/><path fill="#9e9e9e" d="M23.409374 44.8Q23.08125 45.20625 22.596874 45.45625Q22.128124 45.690624 21.565624 45.690624Q20.83125 45.690624 20.284374 45.33125Q19.7375 44.971874 19.440624 44.315624Q19.14375 43.64375 19.14375 42.846874Q19.14375 42.003124 19.45625 41.315624Q19.784374 40.628124 20.378124 40.26875Q20.9875 39.89375 21.784374 39.89375Q23.05 39.89375 23.76875 40.846874Q24.503124 41.8 24.503124 43.425L24.503124 43.7375Q24.503124 46.2375 23.51875 47.378124Q22.534374 48.51875 20.55 48.55L20.33125 48.55L20.33125 47.64375L20.565624 47.64375Q21.909374 47.6125 22.628124 46.940624Q23.346874 46.26875 23.409374 44.8ZM21.7375 44.8Q22.284374 44.8 22.7375 44.471874Q23.20625 44.128124 23.425 43.64375L23.425 43.20625Q23.425 42.14375 22.95625 41.471874Q22.4875 40.8 21.784374 40.8Q21.065624 40.8 20.628124 41.346874Q20.20625 41.89375 20.20625 42.8Q20.20625 43.675 20.6125 44.2375Q21.034374 44.8 21.7375 44.8ZM26.39375 47.9875Q26.39375 47.70625 26.55 47.51875Q26.721874 47.33125 27.05 47.33125Q27.39375 47.33125 27.565624 47.51875Q27.7375 47.70625 27.7375 47.9875Q27.7375 48.253124 27.565624 48.440624Q27.39375 48.6125 27.05 48.6125Q26.721874 48.6125 26.55 48.440624Q26.39375 48.253124 26.39375 47.9875ZM33.409374 44.8Q33.08125 45.20625 32.596874 45.45625Q32.128124 45.690624 31.565624 45.690624Q30.83125 45.690624 30.284374 45.33125Q29.7375 44.971874 29.440624 44.315624Q29.14375 43.64375 29.14375 42.846874Q29.14375 42.003124 29.45625 41.315624Q29.784374 40.628124 30.378124 40.26875Q30.9875 39.89375 31.784374 39.89375Q33.05 39.89375 33.76875 40.846874Q34.503124 41.8 34.503124 43.425L34.503124 43.7375Q34.503124 46.2375 33.51875 47.378124Q32.534374 48.51875 30.55 48.55L30.33125 48.55L30.33125 47.64375L30.565624 47.64375Q31.909374 47.6125 32.628124 46.940624Q33.346874 46.26875 33.409374 44.8ZM31.7375 44.8Q32.284374 44.8 32.7375 44.471874Q33.20625 44.128124 33.425 43.64375L33.425 43.20625Q33.425 42.14375 32.95625 41.471874Q32.4875 40.8 31.784374 40.8Q31.065624 40.8 30.628124 41.346874Q30.20625 41.89375 30.20625 42.8Q30.20625 43.675 30.6125 44.2375Q31.034374 44.8 31.7375 44.8ZM36.159374 41.659374Q36.159374 40.89375 36.64375 40.39375Q37.14375 39.89375 37.909374 39.89375Q38.690624 39.89375 39.175 40.39375Q39.659374 40.89375 39.659374 41.690624L39.659374 42.1125Q39.659374 42.878124 39.159374 43.378124Q38.675 43.8625 37.925 43.8625Q37.159374 43.8625 36.659374 43.378124Q36.159374 42.878124 36.159374 42.065624L36.159374 41.659374ZM36.971874 42.1125Q36.971874 42.565624 37.221874 42.8625Q37.4875 43.159374 37.925 43.159374Q38.346874 43.159374 38.596874 42.878124Q38.846874 42.58125 38.846874 42.08125L38.846874 41.659374Q38.846874 41.20625 38.596874 40.909374Q38.346874 40.596874 37.909374 40.596874Q37.471874 40.596874 37.221874 40.909374Q36.971874 41.20625 36.971874 41.675L36.971874 42.1125ZM40.315624 46.45625Q40.315624 45.690624 40.8 45.20625Q41.3 44.70625 42.065624 44.70625Q42.83125 44.70625 43.315624 45.20625Q43.815624 45.690624 43.815624 46.503124L43.815624 46.909374Q43.815624 47.675 43.33125 48.175Q42.846874 48.675 42.08125 48.675Q41.315624 48.675 40.815624 48.190624Q40.315624 47.690624 40.315624 46.878124L40.315624 46.45625ZM41.128124 46.909374Q41.128124 47.378124 41.378124 47.675Q41.64375 47.971874 42.08125 47.971874Q42.503124 47.971874 42.753124 47.690624Q43.003124 47.39375 43.003124 46.89375L43.003124 46.45625Q43.003124 45.9875 42.7375 45.70625Q42.4875 45.409374 42.065624 45.409374Q41.64375 45.409374 41.378124 45.70625Q41.128124 45.9875 41.128124 46.4875L41.128124 46.909374ZM38.175 47.909374L37.55 47.51875L41.721874 40.846874L42.33125 41.2375L38.175 47.909374Z" fill-rule="nonzero"/><path stroke="#757575" stroke-width="1.0" stroke-linecap="butt" d="M18.55 35.05L215.55 35.05L340.07452 34.471104" fill-rule="nonzero"/><path fill="#9e9e9e" d="M342.07452 34.471104C342.07452 33.366535 341.1791 32.471104 340.07452 32.471104C338.96997 32.471104 338.07452 33.366535 338.07452 34.471104C338.07452 35.575676 338.96997 36.471104 340.07452 36.471104C341.1791 36.471104 342.07452 35.575676 342.07452 34.471104" fill-rule="nonzero"/><path fill="#757575" d="M24.846874 86.289154L19.253124 86.289154L19.253124 85.507904L22.20625 82.226654Q22.8625 81.476654 23.1125 81.02353Q23.3625 80.55478 23.3625 80.05478Q23.3625 79.382904 22.95625 78.96103Q22.565624 78.52353 21.878124 78.52353Q21.08125 78.52353 20.628124 78.99228Q20.175 79.445404 20.175 80.27353L19.096874 80.27353Q19.096874 79.08603 19.846874 78.36728Q20.6125 77.632904 21.878124 77.632904Q23.08125 77.632904 23.76875 78.257904Q24.45625 78.882904 24.45625 79.92978Q24.45625 81.17978 22.846874 82.92978L20.565624 85.39853L24.846874 85.39853L24.846874 86.289154ZM29.08125 83.05478Q29.08125 82.132904 29.440624 81.382904Q29.815624 80.632904 30.471874 80.24228Q31.128124 79.83603 31.95625 79.83603Q33.253124 79.83603 34.05 80.726654Q34.8625 81.61728 34.8625 83.11728L34.8625 83.195404Q34.8625 84.11728 34.503124 84.851654Q34.14375 85.58603 33.4875 86.007904Q32.83125 86.414154 31.971874 86.414154Q30.690624 86.414154 29.878124 85.52353Q29.08125 84.61728 29.08125 83.132904L29.08125 83.05478ZM30.175 83.195404Q30.175 84.24228 30.659374 84.882904Q31.159374 85.52353 31.971874 85.52353Q32.8 85.52353 33.284374 84.882904Q33.76875 84.226654 33.76875 83.05478Q33.76875 82.02353 33.26875 81.382904Q32.784374 80.726654 31.95625 80.726654Q31.159374 80.726654 30.659374 81.36728Q30.175 81.99228 30.175 83.195404ZM39.440624 80.914154Q39.190624 80.882904 38.909374 80.882904Q37.83125 80.882904 37.45625 81.789154L37.45625 86.289154L36.378124 86.289154L36.378124 79.945404L37.425 79.945404L37.440624 80.67978Q37.971874 79.83603 38.95625 79.83603Q39.26875 79.83603 39.440624 79.914154L39.440624 80.914154ZM44.39375 79.945404L44.425 80.64853Q45.1125 79.83603 46.3 79.83603Q47.628124 79.83603 48.1125 80.851654Q48.425 80.39853 48.925 80.11728Q49.440624 79.83603 50.128124 79.83603Q52.221874 79.83603 52.253124 82.039154L52.253124 86.289154L51.175 86.289154L51.175 82.101654Q51.175 81.42978 50.8625 81.101654Q50.55 80.757904 49.815624 80.757904Q49.20625 80.757904 48.8 81.11728Q48.409374 81.476654 48.346874 82.08603L48.346874 86.289154L47.26875 86.289154L47.26875 82.132904Q47.26875 80.757904 45.909374 80.757904Q44.846874 80.757904 44.45625 81.664154L44.45625 86.289154L43.3625 86.289154L43.3625 79.945404L44.39375 79.945404ZM54.08125 83.05478Q54.08125 82.132904 54.440624 81.382904Q54.815624 80.632904 55.471874 80.24228Q56.128124 79.83603 56.95625 79.83603Q58.253124 79.83603 59.05 80.726654Q59.8625 81.61728 59.8625 83.11728L59.8625 83.195404Q59.8625 84.11728 59.503124 84.851654Q59.14375 85.58603 58.4875 86.007904Q57.83125 86.414154 56.971874 86.414154Q55.690624 86.414154 54.878124 85.52353Q54.08125 84.61728 54.08125 83.132904L54.08125 83.05478ZM55.175 83.195404Q55.175 84.24228 55.659374 84.882904Q56.159374 85.52353 56.971874 85.52353Q57.8 85.52353 58.284374 84.882904Q58.76875 84.226654 58.76875 83.05478Q58.76875 82.02353 58.26875 81.382904Q57.784374 80.726654 56.95625 80.726654Q56.159374 80.726654 55.659374 81.36728Q55.175 81.99228 55.175 83.195404ZM64.44063 80.914154Q64.19063 80.882904 63.909374 80.882904Q62.83125 80.882904 62.45625 81.789154L62.45625 86.289154L61.378124 86.289154L61.378124 79.945404L62.425 79.945404L62.440624 80.67978Q62.971874 79.83603 63.95625 79.83603Q64.26875 79.83603 64.44063 79.914154L64.44063 80.914154ZM68.00313 86.414154Q66.70625 86.414154 65.89375 85.570404Q65.09688 84.71103 65.09688 83.289154L65.09688 83.101654Q65.09688 82.14853 65.45625 81.414154Q65.81563 80.664154 66.45625 80.257904Q67.1125 79.83603 67.8625 79.83603Q69.09688 79.83603 69.78438 80.64853Q70.47188 81.46103 70.47188 82.976654L70.47188 83.42978L66.175 83.42978Q66.20625 84.36728 66.72188 84.945404Q67.25313 85.52353 68.06563 85.52353Q68.62813 85.52353 69.01875 85.289154Q69.425 85.05478 69.7375 84.664154L70.39375 85.17978Q69.59688 86.414154 68.00313 86.414154ZM67.8625 80.726654Q67.20625 80.726654 66.75313 81.21103Q66.31563 81.67978 66.22188 82.539154L69.39375 82.539154L69.39375 82.46103Q69.34688 81.632904 68.94063 81.17978Q68.55 80.726654 67.8625 80.726654ZM79.72188 83.195404Q79.72188 84.632904 79.06563 85.52353Q78.40938 86.414154 77.26875 86.414154Q76.1125 86.414154 75.45625 85.67978L75.45625 88.726654L74.37813 88.726654L74.37813 79.945404L75.3625 79.945404L75.40938 80.64853Q76.08125 79.83603 77.25313 79.83603Q78.39375 79.83603 79.05 80.695404Q79.72188 81.55478 79.72188 83.08603L79.72188 83.195404ZM78.64375 83.070404Q78.64375 81.99228 78.175 81.382904Q77.72188 80.757904 76.925 80.757904Q75.94063 80.757904 75.45625 81.61728L75.45625 84.64853Q75.94063 85.52353 76.94063 85.52353Q77.72188 85.52353 78.175 84.914154Q78.64375 84.289154 78.64375 83.070404ZM82.55 86.289154L81.47188 86.289154L81.47188 77.289154L82.55 77.289154L82.55 86.289154ZM88.28438 86.289154Q88.19063 86.101654 88.12813 85.61728Q87.37813 86.414154 86.33125 86.414154Q85.39375 86.414154 84.78438 85.882904Q84.19063 85.351654 84.19063 84.52353Q84.19063 83.539154 84.94063 82.99228Q85.69063 82.445404 87.06563 82.445404L88.1125 82.445404L88.1125 81.945404Q88.1125 81.382904 87.76875 81.05478Q87.44063 80.71103 86.76875 80.71103Q86.19063 80.71103 85.8 81.007904Q85.40938 81.289154 85.40938 81.71103L84.31563 81.71103Q84.31563 81.226654 84.64375 80.789154Q84.9875 80.351654 85.56563 80.101654Q86.14375 79.83603 86.83125 79.83603Q87.94063 79.83603 88.55 80.382904Q89.175 80.92978 89.20625 81.882904L89.20625 84.80478Q89.20625 85.67978 89.425 86.195404L89.425 86.289154L88.28438 86.289154ZM86.4875 85.46103Q87.00313 85.46103 87.45625 85.195404Q87.90938 84.92978 88.1125 84.507904L88.1125 83.21103L87.26875 83.21103Q85.26875 83.21103 85.26875 84.382904Q85.26875 84.882904 85.6125 85.17978Q85.95625 85.46103 86.4875 85.46103ZM92.39375 79.945404L92.425 80.74228Q93.15938 79.83603 94.33125 79.83603Q96.34688 79.83603 96.3625 82.101654L96.3625 86.289154L95.26875 86.289154L95.26875 82.08603Q95.26875 81.414154 94.95625 81.08603Q94.65938 80.757904 94.00313 80.757904Q93.47188 80.757904 93.06563 81.039154Q92.675 81.320404 92.45625 81.77353L92.45625 86.289154L91.37813 86.289154L91.37813 79.945404L92.39375 79.945404ZM99.39375 79.945404L99.425 80.74228Q100.15938 79.83603 101.33125 79.83603Q103.34688 79.83603 103.3625 82.101654L103.3625 86.289154L102.26875 86.289154L102.26875 82.08603Q102.26875 81.414154 101.95625 81.08603Q101.65938 80.757904 101.00313 80.757904Q100.47188 80.757904 100.06563 81.039154Q99.675 81.320404 99.45625 81.77353L99.45625 86.289154L98.37813 86.289154L98.37813 79.945404L99.39375 79.945404ZM108.00313 86.414154Q106.70625 86.414154 105.89375 85.570404Q105.09688 84.71103 105.09688 83.289154L105.09688 83.101654Q105.09688 82.14853 105.45625 81.414154Q105.81563 80.664154 106.45625 80.257904Q107.1125 79.83603 107.8625 79.83603Q109.09688 79.83603 109.78438 80.64853Q110.47188 81.46103 110.47188 82.976654L110.47188 83.42978L106.175 83.42978Q106.20625 84.36728 106.72188 84.945404Q107.25313 85.52353 108.06563 85.52353Q108.62813 85.52353 109.01875 85.289154Q109.425 85.05478 109.7375 84.664154L110.39375 85.17978Q109.59688 86.414154 108.00313 86.414154ZM107.8625 80.726654Q107.20625 80.726654 106.75313 81.21103Q106.31563 81.67978 106.22188 82.539154L109.39375 82.539154L109.39375 82.46103Q109.34688 81.632904 108.94063 81.17978Q108.55 80.726654 107.8625 80.726654ZM111.1125 83.070404Q111.1125 81.601654 111.8 80.726654Q112.4875 79.83603 113.6125 79.83603Q114.72188 79.83603 115.37813 80.58603L115.37813 77.289154L116.45625 77.289154L116.45625 86.289154L115.45625 86.289154L115.40938 85.601654Q114.75313 86.414154 113.59688 86.414154Q112.50313 86.414154 111.8 85.507904Q111.1125 84.601654 111.1125 83.14853L111.1125 83.070404ZM112.19063 83.195404Q112.19063 84.27353 112.62813 84.882904Q113.08125 85.49228 113.8625 85.49228Q114.89375 85.49228 115.37813 84.55478L115.37813 81.64853Q114.89375 80.757904 113.87813 80.757904Q113.08125 80.757904 112.62813 81.36728Q112.19063 81.976654 112.19063 83.195404ZM122.55 86.289154L121.47188 86.289154L121.47188 79.945404L122.55 79.945404L122.55 86.289154ZM121.37813 78.27353Q121.37813 78.007904 121.53438 77.820404Q121.70625 77.632904 122.01875 77.632904Q122.33125 77.632904 122.4875 77.820404Q122.65938 78.007904 122.65938 78.27353Q122.65938 78.52353 122.4875 78.71103Q122.33125 78.882904 122.01875 78.882904Q121.70625 78.882904 121.53438 78.71103Q121.37813 78.52353 121.37813 78.27353ZM125.39375 79.945404L125.425 80.64853Q126.1125 79.83603 127.3 79.83603Q128.62813 79.83603 129.1125 80.851654Q129.425 80.39853 129.925 80.11728Q130.44063 79.83603 131.12813 79.83603Q133.22188 79.83603 133.25313 82.039154L133.25313 86.289154L132.175 86.289154L132.175 82.101654Q132.175 81.42978 131.8625 81.101654Q131.55 80.757904 130.81563 80.757904Q130.20625 80.757904 129.8 81.11728Q129.40938 81.476654 129.34688 82.08603L129.34688 86.289154L128.26875 86.289154L128.26875 82.132904Q128.26875 80.757904 126.90938 80.757904Q125.84688 80.757904 125.45625 81.664154L125.45625 86.289154L124.3625 86.289154L124.3625 79.945404L125.39375 79.945404ZM140.72188 83.195404Q140.72188 84.632904 140.06563 85.52353Q139.40938 86.414154 138.26875 86.414154Q137.1125 86.414154 136.45625 85.67978L136.45625 88.726654L135.37813 88.726654L135.37813 79.945404L136.3625 79.945404L136.40938 80.64853Q137.08125 79.83603 138.25313 79.83603Q139.39375 79.83603 140.05 80.695404Q140.72188 81.55478 140.72188 83.08603L140.72188 83.195404ZM139.64375 83.070404Q139.64375 81.99228 139.175 81.382904Q138.72188 80.757904 137.925 80.757904Q136.94063 80.757904 136.45625 81.61728L136.45625 84.64853Q136.94063 85.52353 137.94063 85.52353Q138.72188 85.52353 139.175 84.914154Q139.64375 84.289154 139.64375 83.070404ZM143.55 86.289154L142.47188 86.289154L142.47188 77.289154L143.55 77.289154L143.55 86.289154ZM148.00313 86.414154Q146.70625 86.414154 145.89375 85.570404Q145.09688 84.71103 145.09688 83.289154L145.09688 83.101654Q145.09688 82.14853 145.45625 81.414154Q145.81563 80.664154 146.45625 80.257904Q147.1125 79.83603 147.8625 79.83603Q149.09688 79.83603 149.78438 80.64853Q150.47188 81.46103 150.47188 82.976654L150.47188 83.42978L146.175 83.42978Q146.20625 84.36728 146.72188 84.945404Q147.25313 85.52353 148.06563 85.52353Q148.62813 85.52353 149.01875 85.289154Q149.425 85.05478 149.7375 84.664154L150.39375 85.17978Q149.59688 86.414154 148.00313 86.414154ZM147.8625 80.726654Q147.20625 80.726654 146.75313 81.21103Q146.31563 81.67978 146.22188 82.539154L149.39375 82.539154L149.39375 82.46103Q149.34688 81.632904 148.94063 81.17978Q148.55 80.726654 147.8625 80.726654ZM152.39375 79.945404L152.425 80.64853Q153.1125 79.83603 154.3 79.83603Q155.62813 79.83603 156.1125 80.851654Q156.425 80.39853 156.925 80.11728Q157.44063 79.83603 158.12813 79.83603Q160.22188 79.83603 160.25313 82.039154L160.25313 86.289154L159.175 86.289154L159.175 82.101654Q159.175 81.42978 158.8625 81.101654Q158.55 80.757904 157.81563 80.757904Q157.20625 80.757904 156.8 81.11728Q156.40938 81.476654 156.34688 82.08603L156.34688 86.289154L155.26875 86.289154L155.26875 82.132904Q155.26875 80.757904 153.90938 80.757904Q152.84688 80.757904 152.45625 81.664154L152.45625 86.289154L151.3625 86.289154L151.3625 79.945404L152.39375 79.945404ZM165.00313 86.414154Q163.70625 86.414154 162.89375 85.570404Q162.09688 84.71103 162.09688 83.289154L162.09688 83.101654Q162.09688 82.14853 162.45625 81.414154Q162.81563 80.664154 163.45625 80.257904Q164.1125 79.83603 164.8625 79.83603Q166.09688 79.83603 166.78438 80.64853Q167.47188 81.46103 167.47188 82.976654L167.47188 83.42978L163.175 83.42978Q163.20625 84.36728 163.72188 84.945404Q164.25313 85.52353 165.06563 85.52353Q165.62813 85.52353 166.01875 85.289154Q166.425 85.05478 166.7375 84.664154L167.39375 85.17978Q166.59688 86.414154 165.00313 86.414154ZM164.8625 80.726654Q164.20625 80.726654 163.75313 81.21103Q163.31563 81.67978 163.22188 82.539154L166.39375 82.539154L166.39375 82.46103Q166.34688 81.632904 165.94063 81.17978Q165.55 80.726654 164.8625 80.726654ZM169.39375 79.945404L169.425 80.74228Q170.15938 79.83603 171.33125 79.83603Q173.34688 79.83603 173.3625 82.101654L173.3625 86.289154L172.26875 86.289154L172.26875 82.08603Q172.26875 81.414154 171.95625 81.08603Q171.65938 80.757904 171.00313 80.757904Q170.47188 80.757904 170.06563 81.039154Q169.675 81.320404 169.45625 81.77353L169.45625 86.289154L168.37813 86.289154L168.37813 79.945404L169.39375 79.945404ZM176.84688 78.414154L176.84688 79.945404L178.01875 79.945404L178.01875 80.789154L176.84688 80.789154L176.84688 84.71103Q176.84688 85.101654 177.00313 85.289154Q177.15938 85.476654 177.53438 85.476654Q177.72188 85.476654 178.05 85.414154L178.05 86.289154Q177.62813 86.414154 177.22188 86.414154Q176.50313 86.414154 176.12813 85.976654Q175.75313 85.52353 175.75313 84.71103L175.75313 80.789154L174.59688 80.789154L174.59688 79.945404L175.75313 79.945404L175.75313 78.414154L176.84688 78.414154ZM183.28438 86.289154Q183.19063 86.101654 183.12813 85.61728Q182.37813 86.414154 181.33125 86.414154Q180.39375 86.414154 179.78438 85.882904Q179.19063 85.351654 179.19063 84.52353Q179.19063 83.539154 179.94063 82.99228Q180.69063 82.445404 182.06563 82.445404L183.1125 82.445404L183.1125 81.945404Q183.1125 81.382904 182.76875 81.05478Q182.44063 80.71103 181.76875 80.71103Q181.19063 80.71103 180.8 81.007904Q180.40938 81.289154 180.40938 81.71103L179.31563 81.71103Q179.31563 81.226654 179.64375 80.789154Q179.9875 80.351654 180.56563 80.101654Q181.14375 79.83603 181.83125 79.83603Q182.94063 79.83603 183.55 80.382904Q184.175 80.92978 184.20625 81.882904L184.20625 84.80478Q184.20625 85.67978 184.425 86.195404L184.425 86.289154L183.28438 86.289154ZM181.4875 85.46103Q182.00313 85.46103 182.45625 85.195404Q182.90938 84.92978 183.1125 84.507904L183.1125 83.21103L182.26875 83.21103Q180.26875 83.21103 180.26875 84.382904Q180.26875 84.882904 180.6125 85.17978Q180.95625 85.46103 181.4875 85.46103ZM187.84688 78.414154L187.84688 79.945404L189.01875 79.945404L189.01875 80.789154L187.84688 80.789154L187.84688 84.71103Q187.84688 85.101654 188.00313 85.289154Q188.15938 85.476654 188.53438 85.476654Q188.72188 85.476654 189.05 85.414154L189.05 86.289154Q188.62813 86.414154 188.22188 86.414154Q187.50313 86.414154 187.12813 85.976654Q186.75313 85.52353 186.75313 84.71103L186.75313 80.789154L185.59688 80.789154L185.59688 79.945404L186.75313 79.945404L186.75313 78.414154L187.84688 78.414154ZM191.55 86.289154L190.47188 86.289154L190.47188 79.945404L191.55 79.945404L191.55 86.289154ZM190.37813 78.27353Q190.37813 78.007904 190.53438 77.820404Q190.70625 77.632904 191.01875 77.632904Q191.33125 77.632904 191.4875 77.820404Q191.65938 78.007904 191.65938 78.27353Q191.65938 78.52353 191.4875 78.71103Q191.33125 78.882904 191.01875 78.882904Q190.70625 78.882904 190.53438 78.71103Q190.37813 78.52353 190.37813 78.27353ZM193.08125 83.05478Q193.08125 82.132904 193.44063 81.382904Q193.81563 80.632904 194.47188 80.24228Q195.12813 79.83603 195.95625 79.83603Q197.25313 79.83603 198.05 80.726654Q198.8625 81.61728 198.8625 83.11728L198.8625 83.195404Q198.8625 84.11728 198.50313 84.851654Q198.14375 85.58603 197.4875 86.007904Q196.83125 86.414154 195.97188 86.414154Q194.69063 86.414154 193.87813 85.52353Q193.08125 84.61728 193.08125 83.132904L193.08125 83.05478ZM194.175 83.195404Q194.175 84.24228 194.65938 84.882904Q195.15938 85.52353 195.97188 85.52353Q196.8 85.52353 197.28438 84.882904Q197.76875 84.226654 197.76875 83.05478Q197.76875 82.02353 197.26875 81.382904Q196.78438 80.726654 195.95625 80.726654Q195.15938 80.726654 194.65938 81.36728Q194.175 81.99228 194.175 83.195404ZM201.39375 79.945404L201.425 80.74228Q202.15938 79.83603 203.33125 79.83603Q205.34688 79.83603 205.3625 82.101654L205.3625 86.289154L204.26875 86.289154L204.26875 82.08603Q204.26875 81.414154 203.95625 81.08603Q203.65938 80.757904 203.00313 80.757904Q202.47188 80.757904 202.06563 81.039154Q201.675 81.320404 201.45625 81.77353L201.45625 86.289154L200.37813 86.289154L200.37813 79.945404L201.39375 79.945404ZM211.06563 84.601654Q211.06563 84.164154 210.72188 83.92978Q210.39375 83.67978 209.56563 83.507904Q208.75313 83.33603 208.26875 83.08603Q207.78438 82.83603 207.55 82.507904Q207.33125 82.164154 207.33125 81.695404Q207.33125 80.914154 207.9875 80.382904Q208.64375 79.83603 209.675 79.83603Q210.75313 79.83603 211.40938 80.39853Q212.08125 80.945404 212.08125 81.80478L211.00313 81.80478Q211.00313 81.36728 210.6125 81.05478Q210.2375 80.726654 209.675 80.726654Q209.08125 80.726654 208.7375 80.99228Q208.40938 81.24228 208.40938 81.64853Q208.40938 82.039154 208.72188 82.24228Q209.03438 82.445404 209.84688 82.632904Q210.65938 82.80478 211.15938 83.05478Q211.65938 83.30478 211.89375 83.664154Q212.14375 84.02353 212.14375 84.52353Q212.14375 85.382904 211.45625 85.89853Q210.78438 86.414154 209.70625 86.414154Q208.94063 86.414154 208.34688 86.14853Q207.76875 85.86728 207.44063 85.382904Q207.1125 84.89853 207.1125 84.33603L208.19063 84.33603Q208.22188 84.882904 208.62813 85.21103Q209.03438 85.52353 209.70625 85.52353Q210.31563 85.52353 210.69063 85.27353Q211.06563 85.02353 211.06563 84.601654Z" fill-rule="nonzero"/><path fill="#9e9e9e" d="M23.409374 100.539154Q23.08125 100.945404 22.596874 101.195404Q22.128124 101.42978 21.565624 101.42978Q20.83125 101.42978 20.284374 101.070404Q19.7375 100.71103 19.440624 100.05478Q19.14375 99.382904 19.14375 98.58603Q19.14375 97.74228 19.45625 97.05478Q19.784374 96.36728 20.378124 96.007904Q20.9875 95.632904 21.784374 95.632904Q23.05 95.632904 23.76875 96.58603Q24.503124 97.539154 24.503124 99.164154L24.503124 99.476654Q24.503124 101.976654 23.51875 103.11728Q22.534374 104.257904 20.55 104.289154L20.33125 104.289154L20.33125 103.382904L20.565624 103.382904Q21.909374 103.351654 22.628124 102.67978Q23.346874 102.007904 23.409374 100.539154ZM21.7375 100.539154Q22.284374 100.539154 22.7375 100.21103Q23.20625 99.86728 23.425 99.382904L23.425 98.945404Q23.425 97.882904 22.95625 97.21103Q22.4875 96.539154 21.784374 96.539154Q21.065624 96.539154 20.628124 97.08603Q20.20625 97.632904 20.20625 98.539154Q20.20625 99.414154 20.6125 99.976654Q21.034374 100.539154 21.7375 100.539154ZM26.39375 103.726654Q26.39375 103.445404 26.55 103.257904Q26.721874 103.070404 27.05 103.070404Q27.39375 103.070404 27.565624 103.257904Q27.7375 103.445404 27.7375 103.726654Q27.7375 103.99228 27.565624 104.17978Q27.39375 104.351654 27.05 104.351654Q26.721874 104.351654 26.55 104.17978Q26.39375 103.99228 26.39375 103.726654ZM33.409374 100.539154Q33.08125 100.945404 32.596874 101.195404Q32.128124 101.42978 31.565624 101.42978Q30.83125 101.42978 30.284374 101.070404Q29.7375 100.71103 29.440624 100.05478Q29.14375 99.382904 29.14375 98.58603Q29.14375 97.74228 29.45625 97.05478Q29.784374 96.36728 30.378124 96.007904Q30.9875 95.632904 31.784374 95.632904Q33.05 95.632904 33.76875 96.58603Q34.503124 97.539154 34.503124 99.164154L34.503124 99.476654Q34.503124 101.976654 33.51875 103.11728Q32.534374 104.257904 30.55 104.289154L30.33125 104.289154L30.33125 103.382904L30.565624 103.382904Q31.909374 103.351654 32.628124 102.67978Q33.346874 102.007904 33.409374 100.539154ZM31.7375 100.539154Q32.284374 100.539154 32.7375 100.21103Q33.20625 99.86728 33.425 99.382904L33.425 98.945404Q33.425 97.882904 32.95625 97.21103Q32.4875 96.539154 31.784374 96.539154Q31.065624 96.539154 30.628124 97.08603Q30.20625 97.632904 30.20625 98.539154Q30.20625 99.414154 30.6125 99.976654Q31.034374 100.539154 31.7375 100.539154ZM36.159374 97.39853Q36.159374 96.632904 36.64375 96.132904Q37.14375 95.632904 37.909374 95.632904Q38.690624 95.632904 39.175 96.132904Q39.659374 96.632904 39.659374 97.42978L39.659374 97.851654Q39.659374 98.61728 39.159374 99.11728Q38.675 99.601654 37.925 99.601654Q37.159374 99.601654 36.659374 99.11728Q36.159374 98.61728 36.159374 97.80478L36.159374 97.39853ZM36.971874 97.851654Q36.971874 98.30478 37.221874 98.601654Q37.4875 98.89853 37.925 98.89853Q38.346874 98.89853 38.596874 98.61728Q38.846874 98.320404 38.846874 97.820404L38.846874 97.39853Q38.846874 96.945404 38.596874 96.64853Q38.346874 96.33603 37.909374 96.33603Q37.471874 96.33603 37.221874 96.64853Q36.971874 96.945404 36.971874 97.414154L36.971874 97.851654ZM40.315624 102.195404Q40.315624 101.42978 40.8 100.945404Q41.3 100.445404 42.065624 100.445404Q42.83125 100.445404 43.315624 100.945404Q43.815624 101.42978 43.815624 102.24228L43.815624 102.64853Q43.815624 103.414154 43.33125 103.914154Q42.846874 104.414154 42.08125 104.414154Q41.315624 104.414154 40.815624 103.92978Q40.315624 103.42978 40.315624 102.61728L40.315624 102.195404ZM41.128124 102.64853Q41.128124 103.11728 41.378124 103.414154Q41.64375 103.71103 42.08125 103.71103Q42.503124 103.71103 42.753124 103.42978Q43.003124 103.132904 43.003124 102.632904L43.003124 102.195404Q43.003124 101.726654 42.7375 101.445404Q42.4875 101.14853 42.065624 101.14853Q41.64375 101.14853 41.378124 101.445404Q41.128124 101.726654 41.128124 102.226654L41.128124 102.64853ZM38.175 103.64853L37.55 103.257904L41.721874 96.58603L42.33125 96.976654L38.175 103.64853Z" fill-rule="nonzero"/><path stroke="#757575" stroke-width="1.0" stroke-linecap="butt" d="M18.55 90.789154L215.55 90.789154L261.28125 90.789154" fill-rule="nonzero"/><path fill="#9e9e9e" d="M263.28125 90.789154C263.28125 89.684586 262.38583 88.789154 261.28125 88.789154C260.1767 88.789154 259.28125 89.684586 259.28125 90.789154C259.28125 91.89372 260.1767 92.789154 261.28125 92.789154C262.38583 92.789154 263.28125 91.89372 263.28125 90.789154" fill-rule="nonzero"/><path fill="#757575" d="M26.096874 261.5832Q26.096874 262.8332 25.675 263.7707Q25.253124 264.69257 24.471874 265.19257Q23.70625 265.69257 22.675 265.69257Q21.675 265.69257 20.89375 265.19257Q20.1125 264.69257 19.675 263.78632Q19.253124 262.86444 19.2375 261.6457L19.2375 261.03632Q19.2375 259.80194 19.659374 258.86444Q20.096874 257.92694 20.878124 257.42694Q21.659374 256.91132 22.675 256.91132Q23.690624 256.91132 24.471874 257.41132Q25.253124 257.91132 25.675 258.84882Q26.096874 259.78632 26.096874 261.03632L26.096874 261.5832ZM24.9875 261.0207Q24.9875 259.50507 24.378124 258.69257Q23.76875 257.88007 22.675 257.88007Q21.596874 257.88007 20.9875 258.69257Q20.378124 259.50507 20.3625 260.94257L20.3625 261.5832Q20.3625 263.05194 20.971874 263.8957Q21.596874 264.72382 22.675 264.72382Q23.76875 264.72382 24.3625 263.94257Q24.971874 263.1457 24.9875 261.66132L24.9875 261.0207ZM28.39375 259.22382L28.425 260.0207Q29.159374 259.11444 30.33125 259.11444Q32.346874 259.11444 32.3625 261.38007L32.3625 265.56757L31.26875 265.56757L31.26875 261.36444Q31.26875 260.69257 30.95625 260.36444Q30.659374 260.03632 30.003124 260.03632Q29.471874 260.03632 29.065624 260.31757Q28.675 260.59882 28.45625 261.05194L28.45625 265.56757L27.378124 265.56757L27.378124 259.22382L28.39375 259.22382ZM35.55 265.56757L34.471874 265.56757L34.471874 256.56757L35.55 256.56757L35.55 265.56757ZM39.440624 263.97382L40.925 259.22382L42.08125 259.22382L39.534374 266.55194Q38.940624 268.13007 37.659374 268.13007L37.440624 268.11444L37.05 268.03632L37.05 267.16132L37.33125 267.17694Q37.89375 267.17694 38.190624 266.9582Q38.503124 266.73944 38.70625 266.1457L38.940624 265.48944L36.675 259.22382L37.8625 259.22382L39.440624 263.97382ZM49.815624 265.56757L48.7375 265.56757L48.7375 258.34882L46.55 259.1457L46.55 258.16132L49.659374 256.98944L49.815624 256.98944L49.815624 265.56757ZM59.003124 265.69257Q57.70625 265.69257 56.89375 264.84882Q56.096874 263.98944 56.096874 262.56757L56.096874 262.38007Q56.096874 261.42694 56.45625 260.69257Q56.815624 259.94257 57.45625 259.53632Q58.1125 259.11444 58.8625 259.11444Q60.096874 259.11444 60.784374 259.92694Q61.471874 260.73944 61.471874 262.25507L61.471874 262.7082L57.175 262.7082Q57.20625 263.6457 57.721874 264.22382Q58.253124 264.80194 59.065624 264.80194Q59.628124 264.80194 60.01875 264.56757Q60.425 264.3332 60.7375 263.94257L61.39375 264.4582Q60.596874 265.69257 59.003124 265.69257ZM58.8625 260.00507Q58.20625 260.00507 57.753124 260.48944Q57.315624 260.9582 57.221874 261.81757L60.39375 261.81757L60.39375 261.73944Q60.346874 260.91132 59.940624 260.4582Q59.55 260.00507 58.8625 260.00507ZM64.50313 261.53632L65.90938 259.22382L67.175 259.22382L65.09688 262.36444L67.2375 265.56757L65.9875 265.56757L64.51875 263.19257L63.05 265.56757L61.784374 265.56757L63.925 262.36444L61.8625 259.22382L63.1125 259.22382L64.50313 261.53632ZM69.55 265.56757L68.47188 265.56757L68.47188 259.22382L69.55 259.22382L69.55 265.56757ZM68.37813 257.55194Q68.37813 257.28632 68.53438 257.09882Q68.70625 256.91132 69.01875 256.91132Q69.33125 256.91132 69.4875 257.09882Q69.65938 257.28632 69.65938 257.55194Q69.65938 257.80194 69.4875 257.98944Q69.33125 258.16132 69.01875 258.16132Q68.70625 258.16132 68.53438 257.98944Q68.37813 257.80194 68.37813 257.55194ZM75.06563 263.88007Q75.06563 263.44257 74.72188 263.2082Q74.39375 262.9582 73.56563 262.78632Q72.75313 262.61444 72.26875 262.36444Q71.78438 262.11444 71.55 261.78632Q71.33125 261.44257 71.33125 260.97382Q71.33125 260.19257 71.9875 259.66132Q72.64375 259.11444 73.675 259.11444Q74.75313 259.11444 75.40938 259.67694Q76.08125 260.22382 76.08125 261.0832L75.00313 261.0832Q75.00313 260.6457 74.6125 260.3332Q74.2375 260.00507 73.675 260.00507Q73.08125 260.00507 72.7375 260.2707Q72.40938 260.5207 72.40938 260.92694Q72.40938 261.31757 72.72188 261.5207Q73.03438 261.72382 73.84688 261.91132Q74.65938 262.0832 75.15938 262.3332Q75.65938 262.5832 75.89375 262.94257Q76.14375 263.30194 76.14375 263.80194Q76.14375 264.66132 75.45625 265.17694Q74.78438 265.69257 73.70625 265.69257Q72.94063 265.69257 72.34688 265.42694Q71.76875 265.1457 71.44063 264.66132Q71.1125 264.17694 71.1125 263.61444L72.19063 263.61444Q72.22188 264.16132 72.62813 264.48944Q73.03438 264.80194 73.70625 264.80194Q74.31563 264.80194 74.69063 264.55194Q75.06563 264.30194 75.06563 263.88007ZM78.84688 257.69257L78.84688 259.22382L80.01875 259.22382L80.01875 260.06757L78.84688 260.06757L78.84688 263.98944Q78.84688 264.38007 79.00313 264.56757Q79.15938 264.75507 79.53438 264.75507Q79.72188 264.75507 80.05 264.69257L80.05 265.56757Q79.62813 265.69257 79.22188 265.69257Q78.50313 265.69257 78.12813 265.25507Q77.75313 264.80194 77.75313 263.98944L77.75313 260.06757L76.59688 260.06757L76.59688 259.22382L77.75313 259.22382L77.75313 257.69257L78.84688 257.69257ZM82.55 265.56757L81.47188 265.56757L81.47188 259.22382L82.55 259.22382L82.55 265.56757ZM81.37813 257.55194Q81.37813 257.28632 81.53438 257.09882Q81.70625 256.91132 82.01875 256.91132Q82.33125 256.91132 82.4875 257.09882Q82.65938 257.28632 82.65938 257.55194Q82.65938 257.80194 82.4875 257.98944Q82.33125 258.16132 82.01875 258.16132Q81.70625 258.16132 81.53438 257.98944Q81.37813 257.80194 81.37813 257.55194ZM85.39375 259.22382L85.425 260.0207Q86.15938 259.11444 87.33125 259.11444Q89.34688 259.11444 89.3625 261.38007L89.3625 265.56757L88.26875 265.56757L88.26875 261.36444Q88.26875 260.69257 87.95625 260.36444Q87.65938 260.03632 87.00313 260.03632Q86.47188 260.03632 86.06563 260.31757Q85.675 260.59882 85.45625 261.05194L85.45625 265.56757L84.37813 265.56757L84.37813 259.22382L85.39375 259.22382ZM91.1125 262.34882Q91.1125 260.86444 91.8 259.98944Q92.4875 259.11444 93.6125 259.11444Q94.76875 259.11444 95.425 259.92694L95.47188 259.22382L96.47188 259.22382L96.47188 265.41132Q96.47188 266.6457 95.7375 267.34882Q95.00313 268.06757 93.78438 268.06757Q93.09688 268.06757 92.44063 267.7707Q91.78438 267.47382 91.44063 266.97382L92.00313 266.31757Q92.69063 267.17694 93.70625 267.17694Q94.4875 267.17694 94.925 266.72382Q95.37813 266.28632 95.37813 265.47382L95.37813 264.92694Q94.72188 265.69257 93.59688 265.69257Q92.4875 265.69257 91.8 264.80194Q91.1125 263.8957 91.1125 262.34882ZM92.20625 262.47382Q92.20625 263.53632 92.64375 264.16132Q93.08125 264.7707 93.87813 264.7707Q94.89375 264.7707 95.37813 263.8332L95.37813 260.94257Q94.87813 260.03632 93.87813 260.03632Q93.09688 260.03632 92.64375 260.6457Q92.20625 261.25507 92.20625 262.47382ZM102.55 265.56757L101.47188 265.56757L101.47188 259.22382L102.55 259.22382L102.55 265.56757ZM101.37813 257.55194Q101.37813 257.28632 101.53438 257.09882Q101.70625 256.91132 102.01875 256.91132Q102.33125 256.91132 102.4875 257.09882Q102.65938 257.28632 102.65938 257.55194Q102.65938 257.80194 102.4875 257.98944Q102.33125 258.16132 102.01875 258.16132Q101.70625 258.16132 101.53438 257.98944Q101.37813 257.80194 101.37813 257.55194ZM105.39375 259.22382L105.425 259.92694Q106.1125 259.11444 107.3 259.11444Q108.62813 259.11444 109.1125 260.13007Q109.425 259.67694 109.925 259.3957Q110.44063 259.11444 111.12813 259.11444Q113.22188 259.11444 113.25313 261.31757L113.25313 265.56757L112.175 265.56757L112.175 261.38007Q112.175 260.7082 111.8625 260.38007Q111.55 260.03632 110.81563 260.03632Q110.20625 260.03632 109.8 260.3957Q109.40938 260.75507 109.34688 261.36444L109.34688 265.56757L108.26875 265.56757L108.26875 261.41132Q108.26875 260.03632 106.90938 260.03632Q105.84688 260.03632 105.45625 260.94257L105.45625 265.56757L104.3625 265.56757L104.3625 259.22382L105.39375 259.22382ZM120.72188 262.47382Q120.72188 263.91132 120.06563 264.80194Q119.40938 265.69257 118.26875 265.69257Q117.1125 265.69257 116.45625 264.9582L116.45625 268.00507L115.37813 268.00507L115.37813 259.22382L116.3625 259.22382L116.40938 259.92694Q117.08125 259.11444 118.25313 259.11444Q119.39375 259.11444 120.05 259.97382Q120.72188 260.8332 120.72188 262.36444L120.72188 262.47382ZM119.64375 262.34882Q119.64375 261.2707 119.175 260.66132Q118.72188 260.03632 117.925 260.03632Q116.94063 260.03632 116.45625 260.8957L116.45625 263.92694Q116.94063 264.80194 117.94063 264.80194Q118.72188 264.80194 119.175 264.19257Q119.64375 263.56757 119.64375 262.34882ZM123.55 265.56757L122.47188 265.56757L122.47188 256.56757L123.55 256.56757L123.55 265.56757ZM128.00313 265.69257Q126.70625 265.69257 125.89375 264.84882Q125.09688 263.98944 125.09688 262.56757L125.09688 262.38007Q125.09688 261.42694 125.45625 260.69257Q125.81563 259.94257 126.45625 259.53632Q127.1125 259.11444 127.8625 259.11444Q129.09688 259.11444 129.78438 259.92694Q130.47188 260.73944 130.47188 262.25507L130.47188 262.7082L126.175 262.7082Q126.20625 263.6457 126.72188 264.22382Q127.25313 264.80194 128.06563 264.80194Q128.62813 264.80194 129.01875 264.56757Q129.425 264.3332 129.7375 263.94257L130.39375 264.4582Q129.59688 265.69257 128.00313 265.69257ZM127.8625 260.00507Q127.20625 260.00507 126.75313 260.48944Q126.31563 260.9582 126.22188 261.81757L129.39375 261.81757L129.39375 261.73944Q129.34688 260.91132 128.94063 260.4582Q128.55 260.00507 127.8625 260.00507ZM132.39375 259.22382L132.425 259.92694Q133.1125 259.11444 134.3 259.11444Q135.62813 259.11444 136.1125 260.13007Q136.425 259.67694 136.925 259.3957Q137.44063 259.11444 138.12813 259.11444Q140.22188 259.11444 140.25313 261.31757L140.25313 265.56757L139.175 265.56757L139.175 261.38007Q139.175 260.7082 138.8625 260.38007Q138.55 260.03632 137.81563 260.03632Q137.20625 260.03632 136.8 260.3957Q136.40938 260.75507 136.34688 261.36444L136.34688 265.56757L135.26875 265.56757L135.26875 261.41132Q135.26875 260.03632 133.90938 260.03632Q132.84688 260.03632 132.45625 260.94257L132.45625 265.56757L131.3625 265.56757L131.3625 259.22382L132.39375 259.22382ZM145.00313 265.69257Q143.70625 265.69257 142.89375 264.84882Q142.09688 263.98944 142.09688 262.56757L142.09688 262.38007Q142.09688 261.42694 142.45625 260.69257Q142.81563 259.94257 143.45625 259.53632Q144.1125 259.11444 144.8625 259.11444Q146.09688 259.11444 146.78438 259.92694Q147.47188 260.73944 147.47188 262.25507L147.47188 262.7082L143.175 262.7082Q143.20625 263.6457 143.72188 264.22382Q144.25313 264.80194 145.06563 264.80194Q145.62813 264.80194 146.01875 264.56757Q146.425 264.3332 146.7375 263.94257L147.39375 264.4582Q146.59688 265.69257 145.00313 265.69257ZM144.8625 260.00507Q144.20625 260.00507 143.75313 260.48944Q143.31563 260.9582 143.22188 261.81757L146.39375 261.81757L146.39375 261.73944Q146.34688 260.91132 145.94063 260.4582Q145.55 260.00507 144.8625 260.00507ZM149.39375 259.22382L149.425 260.0207Q150.15938 259.11444 151.33125 259.11444Q153.34688 259.11444 153.3625 261.38007L153.3625 265.56757L152.26875 265.56757L152.26875 261.36444Q152.26875 260.69257 151.95625 260.36444Q151.65938 260.03632 151.00313 260.03632Q150.47188 260.03632 150.06563 260.31757Q149.675 260.59882 149.45625 261.05194L149.45625 265.56757L148.37813 265.56757L148.37813 259.22382L149.39375 259.22382ZM156.84688 257.69257L156.84688 259.22382L158.01875 259.22382L158.01875 260.06757L156.84688 260.06757L156.84688 263.98944Q156.84688 264.38007 157.00313 264.56757Q157.15938 264.75507 157.53438 264.75507Q157.72188 264.75507 158.05 264.69257L158.05 265.56757Q157.62813 265.69257 157.22188 265.69257Q156.50313 265.69257 156.12813 265.25507Q155.75313 264.80194 155.75313 263.98944L155.75313 260.06757L154.59688 260.06757L154.59688 259.22382L155.75313 259.22382L155.75313 257.69257L156.84688 257.69257ZM163.28438 265.56757Q163.19063 265.38007 163.12813 264.8957Q162.37813 265.69257 161.33125 265.69257Q160.39375 265.69257 159.78438 265.16132Q159.19063 264.63007 159.19063 263.80194Q159.19063 262.81757 159.94063 262.2707Q160.69063 261.72382 162.06563 261.72382L163.1125 261.72382L163.1125 261.22382Q163.1125 260.66132 162.76875 260.3332Q162.44063 259.98944 161.76875 259.98944Q161.19063 259.98944 160.8 260.28632Q160.40938 260.56757 160.40938 260.98944L159.31563 260.98944Q159.31563 260.50507 159.64375 260.06757Q159.9875 259.63007 160.56563 259.38007Q161.14375 259.11444 161.83125 259.11444Q162.94063 259.11444 163.55 259.66132Q164.175 260.2082 164.20625 261.16132L164.20625 264.0832Q164.20625 264.9582 164.425 265.47382L164.425 265.56757L163.28438 265.56757ZM161.4875 264.73944Q162.00313 264.73944 162.45625 264.47382Q162.90938 264.2082 163.1125 263.78632L163.1125 262.48944L162.26875 262.48944Q160.26875 262.48944 160.26875 263.66132Q160.26875 264.16132 160.6125 264.4582Q160.95625 264.73944 161.4875 264.73944ZM167.84688 257.69257L167.84688 259.22382L169.01875 259.22382L169.01875 260.06757L167.84688 260.06757L167.84688 263.98944Q167.84688 264.38007 168.00313 264.56757Q168.15938 264.75507 168.53438 264.75507Q168.72188 264.75507 169.05 264.69257L169.05 265.56757Q168.62813 265.69257 168.22188 265.69257Q167.50313 265.69257 167.12813 265.25507Q166.75313 264.80194 166.75313 263.98944L166.75313 260.06757L165.59688 260.06757L165.59688 259.22382L166.75313 259.22382L166.75313 257.69257L167.84688 257.69257ZM171.55 265.56757L170.47188 265.56757L170.47188 259.22382L171.55 259.22382L171.55 265.56757ZM170.37813 257.55194Q170.37813 257.28632 170.53438 257.09882Q170.70625 256.91132 171.01875 256.91132Q171.33125 256.91132 171.4875 257.09882Q171.65938 257.28632 171.65938 257.55194Q171.65938 257.80194 171.4875 257.98944Q171.33125 258.16132 171.01875 258.16132Q170.70625 258.16132 170.53438 257.98944Q170.37813 257.80194 170.37813 257.55194ZM173.08125 262.3332Q173.08125 261.41132 173.44063 260.66132Q173.81563 259.91132 174.47188 259.5207Q175.12813 259.11444 175.95625 259.11444Q177.25313 259.11444 178.05 260.00507Q178.8625 260.8957 178.8625 262.3957L178.8625 262.47382Q178.8625 263.3957 178.50313 264.13007Q178.14375 264.86444 177.4875 265.28632Q176.83125 265.69257 175.97188 265.69257Q174.69063 265.69257 173.87813 264.80194Q173.08125 263.8957 173.08125 262.41132L173.08125 262.3332ZM174.175 262.47382Q174.175 263.5207 174.65938 264.16132Q175.15938 264.80194 175.97188 264.80194Q176.8 264.80194 177.28438 264.16132Q177.76875 263.50507 177.76875 262.3332Q177.76875 261.30194 177.26875 260.66132Q176.78438 260.00507 175.95625 260.00507Q175.15938 260.00507 174.65938 260.6457Q174.175 261.2707 174.175 262.47382ZM181.39375 259.22382L181.425 260.0207Q182.15938 259.11444 183.33125 259.11444Q185.34688 259.11444 185.3625 261.38007L185.3625 265.56757L184.26875 265.56757L184.26875 261.36444Q184.26875 260.69257 183.95625 260.36444Q183.65938 260.03632 183.00313 260.03632Q182.47188 260.03632 182.06563 260.31757Q181.675 260.59882 181.45625 261.05194L181.45625 265.56757L180.37813 265.56757L180.37813 259.22382L181.39375 259.22382Z" fill-rule="nonzero"/><path fill="#9e9e9e" d="M24.846874 283.56757L19.253124 283.56757L19.253124 282.78632L22.20625 279.50507Q22.8625 278.75507 23.1125 278.30194Q23.3625 277.8332 23.3625 277.3332Q23.3625 276.66132 22.95625 276.23944Q22.565624 275.80194 21.878124 275.80194Q21.08125 275.80194 20.628124 276.2707Q20.175 276.72382 20.175 277.55194L19.096874 277.55194Q19.096874 276.36444 19.846874 275.6457Q20.6125 274.91132 21.878124 274.91132Q23.08125 274.91132 23.76875 275.53632Q24.45625 276.16132 24.45625 277.2082Q24.45625 278.4582 22.846874 280.2082L20.565624 282.67694L24.846874 282.67694L24.846874 283.56757ZM31.440624 277.25507Q31.440624 277.8957 31.096874 278.3957Q30.753124 278.8957 30.190624 279.17694Q30.846874 279.4582 31.2375 280.0207Q31.628124 280.56757 31.628124 281.2707Q31.628124 282.36444 30.878124 283.03632Q30.14375 283.69257 28.925 283.69257Q27.690624 283.69257 26.940624 283.03632Q26.20625 282.36444 26.20625 281.2707Q26.20625 280.56757 26.58125 280.0207Q26.95625 279.4582 27.628124 279.17694Q27.065624 278.8957 26.7375 278.3957Q26.409374 277.8957 26.409374 277.25507Q26.409374 276.17694 27.096874 275.55194Q27.784374 274.91132 28.925 274.91132Q30.05 274.91132 30.7375 275.55194Q31.440624 276.17694 31.440624 277.25507ZM30.55 281.23944Q30.55 280.5207 30.096874 280.0832Q29.64375 279.63007 28.909374 279.63007Q28.175 279.63007 27.721874 280.0832Q27.284374 280.5207 27.284374 281.25507Q27.284374 281.97382 27.721874 282.3957Q28.159374 282.80194 28.925 282.80194Q29.675 282.80194 30.1125 282.38007Q30.55 281.9582 30.55 281.23944ZM28.925 275.80194Q28.284374 275.80194 27.878124 276.2082Q27.4875 276.59882 27.4875 277.28632Q27.4875 277.92694 27.878124 278.3332Q28.26875 278.73944 28.909374 278.73944Q29.565624 278.73944 29.95625 278.3332Q30.346874 277.92694 30.346874 277.28632Q30.346874 276.63007 29.940624 276.22382Q29.534374 275.80194 28.925 275.80194ZM33.39375 283.00507Q33.39375 282.72382 33.55 282.53632Q33.721874 282.34882 34.05 282.34882Q34.39375 282.34882 34.565624 282.53632Q34.7375 282.72382 34.7375 283.00507Q34.7375 283.2707 34.565624 283.4582Q34.39375 283.63007 34.05 283.63007Q33.721874 283.63007 33.55 283.4582Q33.39375 283.2707 33.39375 283.00507ZM40.83125 280.7082L42.01875 280.7082L42.01875 281.5832L40.83125 281.5832L40.83125 283.56757L39.753124 283.56757L39.753124 281.5832L35.8625 281.5832L35.8625 280.94257L39.675 275.03632L40.83125 275.03632L40.83125 280.7082ZM37.096874 280.7082L39.753124 280.7082L39.753124 276.5207L39.6125 276.75507L37.096874 280.7082ZM43.159374 276.67694Q43.159374 275.91132 43.64375 275.41132Q44.14375 274.91132 44.909374 274.91132Q45.690624 274.91132 46.175 275.41132Q46.659374 275.91132 46.659374 276.7082L46.659374 277.13007Q46.659374 277.8957 46.159374 278.3957Q45.675 278.88007 44.925 278.88007Q44.159374 278.88007 43.659374 278.3957Q43.159374 277.8957 43.159374 277.0832L43.159374 276.67694ZM43.971874 277.13007Q43.971874 277.5832 44.221874 277.88007Q44.4875 278.17694 44.925 278.17694Q45.346874 278.17694 45.596874 277.8957Q45.846874 277.59882 45.846874 277.09882L45.846874 276.67694Q45.846874 276.22382 45.596874 275.92694Q45.346874 275.61444 44.909374 275.61444Q44.471874 275.61444 44.221874 275.92694Q43.971874 276.22382 43.971874 276.69257L43.971874 277.13007ZM47.315624 281.47382Q47.315624 280.7082 47.8 280.22382Q48.3 279.72382 49.065624 279.72382Q49.83125 279.72382 50.315624 280.22382Q50.815624 280.7082 50.815624 281.5207L50.815624 281.92694Q50.815624 282.69257 50.33125 283.19257Q49.846874 283.69257 49.08125 283.69257Q48.315624 283.69257 47.815624 283.2082Q47.315624 282.7082 47.315624 281.8957L47.315624 281.47382ZM48.128124 281.92694Q48.128124 282.3957 48.378124 282.69257Q48.64375 282.98944 49.08125 282.98944Q49.503124 282.98944 49.753124 282.7082Q50.003124 282.41132 50.003124 281.91132L50.003124 281.47382Q50.003124 281.00507 49.7375 280.72382Q49.4875 280.42694 49.065624 280.42694Q48.64375 280.42694 48.378124 280.72382Q48.128124 281.00507 48.128124 281.50507L48.128124 281.92694ZM45.175 282.92694L44.55 282.53632L48.721874 275.86444L49.33125 276.25507L45.175 282.92694Z" fill-rule="nonzero"/><path stroke="#757575" stroke-width="1.0" stroke-linecap="butt" d="M18.55 270.06757L215.55 270.06757L254.32443 270.06757" fill-rule="nonzero"/><path fill="#9e9e9e" d="M256.32443 270.06757C256.32443 268.96298 255.429 268.06757 254.32443 268.06757C253.21986 268.06757 252.32443 268.96298 252.32443 270.06757C252.32443 271.17212 253.21986 272.06757 254.32443 272.06757C255.429 272.06757 256.32443 271.17212 256.32443 270.06757" fill-rule="nonzero"/><path fill="#757575" d="M572.7469 190.22191L567.15314 190.22191L567.15314 189.44066L570.10626 186.15941Q570.7625 185.40941 571.0125 184.95628Q571.2625 184.48753 571.2625 183.98753Q571.2625 183.31566 570.85626 182.89378Q570.46564 182.45628 569.77814 182.45628Q568.98126 182.45628 568.52814 182.92503Q568.075 183.37816 568.075 184.20628L566.9969 184.20628Q566.9969 183.01878 567.7469 182.30003Q568.5125 181.56566 569.77814 181.56566Q570.98126 181.56566 571.66876 182.19066Q572.35626 182.81566 572.35626 183.86253Q572.35626 185.11253 570.7469 186.86253L568.46564 189.33128L572.7469 189.33128L572.7469 190.22191ZM576.98126 186.98753Q576.98126 186.06566 577.34064 185.31566Q577.71564 184.56566 578.3719 184.17503Q579.02814 183.76878 579.85626 183.76878Q581.15314 183.76878 581.95 184.65941Q582.7625 185.55003 582.7625 187.05003L582.7625 187.12816Q582.7625 188.05003 582.40314 188.78441Q582.04376 189.51878 581.3875 189.94066Q580.73126 190.34691 579.8719 190.34691Q578.59064 190.34691 577.77814 189.45628Q576.98126 188.55003 576.98126 187.06566L576.98126 186.98753ZM578.075 187.12816Q578.075 188.17503 578.5594 188.81566Q579.0594 189.45628 579.8719 189.45628Q580.7 189.45628 581.1844 188.81566Q581.66876 188.15941 581.66876 186.98753Q581.66876 185.95628 581.16876 185.31566Q580.6844 184.65941 579.85626 184.65941Q579.0594 184.65941 578.5594 185.30003Q578.075 185.92503 578.075 187.12816ZM587.34064 184.84691Q587.09064 184.81566 586.8094 184.81566Q585.73126 184.81566 585.35626 185.72191L585.35626 190.22191L584.27814 190.22191L584.27814 183.87816L585.325 183.87816L585.34064 184.61253Q585.8719 183.76878 586.85626 183.76878Q587.16876 183.76878 587.34064 183.84691L587.34064 184.84691ZM592.29376 183.87816L592.325 184.58128Q593.0125 183.76878 594.2 183.76878Q595.52814 183.76878 596.0125 184.78441Q596.325 184.33128 596.825 184.05003Q597.34064 183.76878 598.02814 183.76878Q600.1219 183.76878 600.15314 185.97191L600.15314 190.22191L599.075 190.22191L599.075 186.03441Q599.075 185.36253 598.7625 185.03441Q598.45 184.69066 597.71564 184.69066Q597.10626 184.69066 596.7 185.05003Q596.3094 185.40941 596.2469 186.01878L596.2469 190.22191L595.16876 190.22191L595.16876 186.06566Q595.16876 184.69066 593.8094 184.69066Q592.7469 184.69066 592.35626 185.59691L592.35626 190.22191L591.2625 190.22191L591.2625 183.87816L592.29376 183.87816ZM601.98126 186.98753Q601.98126 186.06566 602.34064 185.31566Q602.71564 184.56566 603.3719 184.17503Q604.02814 183.76878 604.85626 183.76878Q606.15314 183.76878 606.95 184.65941Q607.7625 185.55003 607.7625 187.05003L607.7625 187.12816Q607.7625 188.05003 607.40314 188.78441Q607.04376 189.51878 606.3875 189.94066Q605.73126 190.34691 604.8719 190.34691Q603.59064 190.34691 602.77814 189.45628Q601.98126 188.55003 601.98126 187.06566L601.98126 186.98753ZM603.075 187.12816Q603.075 188.17503 603.5594 188.81566Q604.0594 189.45628 604.8719 189.45628Q605.7 189.45628 606.1844 188.81566Q606.66876 188.15941 606.66876 186.98753Q606.66876 185.95628 606.16876 185.31566Q605.6844 184.65941 604.85626 184.65941Q604.0594 184.65941 603.5594 185.30003Q603.075 185.92503 603.075 187.12816ZM612.34064 184.84691Q612.09064 184.81566 611.8094 184.81566Q610.73126 184.81566 610.35626 185.72191L610.35626 190.22191L609.27814 190.22191L609.27814 183.87816L610.325 183.87816L610.34064 184.61253Q610.8719 183.76878 611.85626 183.76878Q612.16876 183.76878 612.34064 183.84691L612.34064 184.84691ZM615.90314 190.34691Q614.60626 190.34691 613.79376 189.50316Q612.9969 188.64378 612.9969 187.22191L612.9969 187.03441Q612.9969 186.08128 613.35626 185.34691Q613.71564 184.59691 614.35626 184.19066Q615.0125 183.76878 615.7625 183.76878Q616.9969 183.76878 617.6844 184.58128Q618.3719 185.39378 618.3719 186.90941L618.3719 187.36253L614.075 187.36253Q614.10626 188.30003 614.6219 188.87816Q615.15314 189.45628 615.96564 189.45628Q616.52814 189.45628 616.91876 189.22191Q617.325 188.98753 617.6375 188.59691L618.29376 189.11253Q617.4969 190.34691 615.90314 190.34691ZM615.7625 184.65941Q615.10626 184.65941 614.65314 185.14378Q614.21564 185.61253 614.1219 186.47191L617.29376 186.47191L617.29376 186.39378Q617.2469 185.56566 616.84064 185.11253Q616.45 184.65941 615.7625 184.65941ZM624.90314 190.34691Q623.60626 190.34691 622.79376 189.50316Q621.9969 188.64378 621.9969 187.22191L621.9969 187.03441Q621.9969 186.08128 622.35626 185.34691Q622.71564 184.59691 623.35626 184.19066Q624.0125 183.76878 624.7625 183.76878Q625.9969 183.76878 626.6844 184.58128Q627.3719 185.39378 627.3719 186.90941L627.3719 187.36253L623.075 187.36253Q623.10626 188.30003 623.6219 188.87816Q624.15314 189.45628 624.96564 189.45628Q625.52814 189.45628 625.91876 189.22191Q626.325 188.98753 626.6375 188.59691L627.29376 189.11253Q626.4969 190.34691 624.90314 190.34691ZM624.7625 184.65941Q624.10626 184.65941 623.65314 185.14378Q623.21564 185.61253 623.1219 186.47191L626.29376 186.47191L626.29376 186.39378Q626.2469 185.56566 625.84064 185.11253Q625.45 184.65941 624.7625 184.65941ZM630.40314 186.19066L631.8094 183.87816L633.075 183.87816L630.9969 187.01878L633.1375 190.22191L631.8875 190.22191L630.41876 187.84691L628.95 190.22191L627.6844 190.22191L629.825 187.01878L627.7625 183.87816L629.0125 183.87816L630.40314 186.19066ZM635.45 190.22191L634.3719 190.22191L634.3719 183.87816L635.45 183.87816L635.45 190.22191ZM634.27814 182.20628Q634.27814 181.94066 634.4344 181.75316Q634.60626 181.56566 634.91876 181.56566Q635.23126 181.56566 635.3875 181.75316Q635.5594 181.94066 635.5594 182.20628Q635.5594 182.45628 635.3875 182.64378Q635.23126 182.81566 634.91876 182.81566Q634.60626 182.81566 634.4344 182.64378Q634.27814 182.45628 634.27814 182.20628ZM640.96564 188.53441Q640.96564 188.09691 640.6219 187.86253Q640.29376 187.61253 639.46564 187.44066Q638.65314 187.26878 638.16876 187.01878Q637.6844 186.76878 637.45 186.44066Q637.23126 186.09691 637.23126 185.62816Q637.23126 184.84691 637.8875 184.31566Q638.54376 183.76878 639.575 183.76878Q640.65314 183.76878 641.3094 184.33128Q641.98126 184.87816 641.98126 185.73753L640.90314 185.73753Q640.90314 185.30003 640.5125 184.98753Q640.1375 184.65941 639.575 184.65941Q638.98126 184.65941 638.6375 184.92503Q638.3094 185.17503 638.3094 185.58128Q638.3094 185.97191 638.6219 186.17503Q638.9344 186.37816 639.7469 186.56566Q640.5594 186.73753 641.0594 186.98753Q641.5594 187.23753 641.79376 187.59691Q642.04376 187.95628 642.04376 188.45628Q642.04376 189.31566 641.35626 189.83128Q640.6844 190.34691 639.60626 190.34691Q638.84064 190.34691 638.2469 190.08128Q637.66876 189.80003 637.34064 189.31566Q637.0125 188.83128 637.0125 188.26878L638.09064 188.26878Q638.1219 188.81566 638.52814 189.14378Q638.9344 189.45628 639.60626 189.45628Q640.21564 189.45628 640.59064 189.20628Q640.96564 188.95628 640.96564 188.53441ZM644.7469 182.34691L644.7469 183.87816L645.91876 183.87816L645.91876 184.72191L644.7469 184.72191L644.7469 188.64378Q644.7469 189.03441 644.90314 189.22191Q645.0594 189.40941 645.4344 189.40941Q645.6219 189.40941 645.95 189.34691L645.95 190.22191Q645.52814 190.34691 645.1219 190.34691Q644.40314 190.34691 644.02814 189.90941Q643.65314 189.45628 643.65314 188.64378L643.65314 184.72191L642.4969 184.72191L642.4969 183.87816L643.65314 183.87816L643.65314 182.34691L644.7469 182.34691ZM648.45 190.22191L647.3719 190.22191L647.3719 183.87816L648.45 183.87816L648.45 190.22191ZM647.27814 182.20628Q647.27814 181.94066 647.4344 181.75316Q647.60626 181.56566 647.91876 181.56566Q648.23126 181.56566 648.3875 181.75316Q648.5594 181.94066 648.5594 182.20628Q648.5594 182.45628 648.3875 182.64378Q648.23126 182.81566 647.91876 182.81566Q647.60626 182.81566 647.4344 182.64378Q647.27814 182.45628 647.27814 182.20628ZM651.29376 183.87816L651.325 184.67503Q652.0594 183.76878 653.23126 183.76878Q655.2469 183.76878 655.2625 186.03441L655.2625 190.22191L654.16876 190.22191L654.16876 186.01878Q654.16876 185.34691 653.85626 185.01878Q653.5594 184.69066 652.90314 184.69066Q652.3719 184.69066 651.96564 184.97191Q651.575 185.25316 651.35626 185.70628L651.35626 190.22191L650.27814 190.22191L650.27814 183.87816L651.29376 183.87816ZM657.0125 187.00316Q657.0125 185.51878 657.7 184.64378Q658.3875 183.76878 659.5125 183.76878Q660.66876 183.76878 661.325 184.58128L661.3719 183.87816L662.3719 183.87816L662.3719 190.06566Q662.3719 191.30003 661.6375 192.00316Q660.90314 192.72191 659.6844 192.72191Q658.9969 192.72191 658.34064 192.42503Q657.6844 192.12816 657.34064 191.62816L657.90314 190.97191Q658.59064 191.83128 659.60626 191.83128Q660.3875 191.83128 660.825 191.37816Q661.27814 190.94066 661.27814 190.12816L661.27814 189.58128Q660.6219 190.34691 659.4969 190.34691Q658.3875 190.34691 657.7 189.45628Q657.0125 188.55003 657.0125 187.00316ZM658.10626 187.12816Q658.10626 188.19066 658.54376 188.81566Q658.98126 189.42503 659.77814 189.42503Q660.79376 189.42503 661.27814 188.48753L661.27814 185.59691Q660.77814 184.69066 659.77814 184.69066Q658.9969 184.69066 658.54376 185.30003Q658.10626 185.90941 658.10626 187.12816ZM668.45 190.22191L667.3719 190.22191L667.3719 183.87816L668.45 183.87816L668.45 190.22191ZM667.27814 182.20628Q667.27814 181.94066 667.4344 181.75316Q667.60626 181.56566 667.91876 181.56566Q668.23126 181.56566 668.3875 181.75316Q668.5594 181.94066 668.5594 182.20628Q668.5594 182.45628 668.3875 182.64378Q668.23126 182.81566 667.91876 182.81566Q667.60626 182.81566 667.4344 182.64378Q667.27814 182.45628 667.27814 182.20628ZM671.29376 183.87816L671.325 184.58128Q672.0125 183.76878 673.2 183.76878Q674.52814 183.76878 675.0125 184.78441Q675.325 184.33128 675.825 184.05003Q676.34064 183.76878 677.02814 183.76878Q679.1219 183.76878 679.15314 185.97191L679.15314 190.22191L678.075 190.22191L678.075 186.03441Q678.075 185.36253 677.7625 185.03441Q677.45 184.69066 676.71564 184.69066Q676.10626 184.69066 675.7 185.05003Q675.3094 185.40941 675.2469 186.01878L675.2469 190.22191L674.16876 190.22191L674.16876 186.06566Q674.16876 184.69066 672.8094 184.69066Q671.7469 184.69066 671.35626 185.59691L671.35626 190.22191L670.2625 190.22191L670.2625 183.87816L671.29376 183.87816ZM686.6219 187.12816Q686.6219 188.56566 685.96564 189.45628Q685.3094 190.34691 684.16876 190.34691Q683.0125 190.34691 682.35626 189.61253L682.35626 192.65941L681.27814 192.65941L681.27814 183.87816L682.2625 183.87816L682.3094 184.58128Q682.98126 183.76878 684.15314 183.76878Q685.29376 183.76878 685.95 184.62816Q686.6219 185.48753 686.6219 187.01878L686.6219 187.12816ZM685.54376 187.00316Q685.54376 185.92503 685.075 185.31566Q684.6219 184.69066 683.825 184.69066Q682.84064 184.69066 682.35626 185.55003L682.35626 188.58128Q682.84064 189.45628 683.84064 189.45628Q684.6219 189.45628 685.075 188.84691Q685.54376 188.22191 685.54376 187.00316ZM689.45 190.22191L688.3719 190.22191L688.3719 181.22191L689.45 181.22191L689.45 190.22191ZM693.90314 190.34691Q692.60626 190.34691 691.79376 189.50316Q690.9969 188.64378 690.9969 187.22191L690.9969 187.03441Q690.9969 186.08128 691.35626 185.34691Q691.71564 184.59691 692.35626 184.19066Q693.0125 183.76878 693.7625 183.76878Q694.9969 183.76878 695.6844 184.58128Q696.3719 185.39378 696.3719 186.90941L696.3719 187.36253L692.075 187.36253Q692.10626 188.30003 692.6219 188.87816Q693.15314 189.45628 693.96564 189.45628Q694.52814 189.45628 694.91876 189.22191Q695.325 188.98753 695.6375 188.59691L696.29376 189.11253Q695.4969 190.34691 693.90314 190.34691ZM693.7625 184.65941Q693.10626 184.65941 692.65314 185.14378Q692.21564 185.61253 692.1219 186.47191L695.29376 186.47191L695.29376 186.39378Q695.2469 185.56566 694.84064 185.11253Q694.45 184.65941 693.7625 184.65941ZM698.29376 183.87816L698.325 184.58128Q699.0125 183.76878 700.2 183.76878Q701.52814 183.76878 702.0125 184.78441Q702.325 184.33128 702.825 184.05003Q703.34064 183.76878 704.02814 183.76878Q706.1219 183.76878 706.15314 185.97191L706.15314 190.22191L705.075 190.22191L705.075 186.03441Q705.075 185.36253 704.7625 185.03441Q704.45 184.69066 703.71564 184.69066Q703.10626 184.69066 702.7 185.05003Q702.3094 185.40941 702.2469 186.01878L702.2469 190.22191L701.16876 190.22191L701.16876 186.06566Q701.16876 184.69066 699.8094 184.69066Q698.7469 184.69066 698.35626 185.59691L698.35626 190.22191L697.2625 190.22191L697.2625 183.87816L698.29376 183.87816ZM710.90314 190.34691Q709.60626 190.34691 708.79376 189.50316Q707.9969 188.64378 707.9969 187.22191L707.9969 187.03441Q707.9969 186.08128 708.35626 185.34691Q708.71564 184.59691 709.35626 184.19066Q710.0125 183.76878 710.7625 183.76878Q711.9969 183.76878 712.6844 184.58128Q713.3719 185.39378 713.3719 186.90941L713.3719 187.36253L709.075 187.36253Q709.10626 188.30003 709.6219 188.87816Q710.15314 189.45628 710.96564 189.45628Q711.52814 189.45628 711.91876 189.22191Q712.325 188.98753 712.6375 188.59691L713.29376 189.11253Q712.4969 190.34691 710.90314 190.34691ZM710.7625 184.65941Q710.10626 184.65941 709.65314 185.14378Q709.21564 185.61253 709.1219 186.47191L712.29376 186.47191L712.29376 186.39378Q712.2469 185.56566 711.84064 185.11253Q711.45 184.65941 710.7625 184.65941ZM715.29376 183.87816L715.325 184.67503Q716.0594 183.76878 717.23126 183.76878Q719.2469 183.76878 719.2625 186.03441L719.2625 190.22191L718.16876 190.22191L718.16876 186.01878Q718.16876 185.34691 717.85626 185.01878Q717.5594 184.69066 716.90314 184.69066Q716.3719 184.69066 715.96564 184.97191Q715.575 185.25316 715.35626 185.70628L715.35626 190.22191L714.27814 190.22191L714.27814 183.87816L715.29376 183.87816ZM722.7469 182.34691L722.7469 183.87816L723.91876 183.87816L723.91876 184.72191L722.7469 184.72191L722.7469 188.64378Q722.7469 189.03441 722.90314 189.22191Q723.0594 189.40941 723.4344 189.40941Q723.6219 189.40941 723.95 189.34691L723.95 190.22191Q723.52814 190.34691 723.1219 190.34691Q722.40314 190.34691 722.02814 189.90941Q721.65314 189.45628 721.65314 188.64378L721.65314 184.72191L720.4969 184.72191L720.4969 183.87816L721.65314 183.87816L721.65314 182.34691L722.7469 182.34691ZM729.1844 190.22191Q729.09064 190.03441 729.02814 189.55003Q728.27814 190.34691 727.23126 190.34691Q726.29376 190.34691 725.6844 189.81566Q725.09064 189.28441 725.09064 188.45628Q725.09064 187.47191 725.84064 186.92503Q726.59064 186.37816 727.96564 186.37816L729.0125 186.37816L729.0125 185.87816Q729.0125 185.31566 728.66876 184.98753Q728.34064 184.64378 727.66876 184.64378Q727.09064 184.64378 726.7 184.94066Q726.3094 185.22191 726.3094 185.64378L725.21564 185.64378Q725.21564 185.15941 725.54376 184.72191Q725.8875 184.28441 726.46564 184.03441Q727.04376 183.76878 727.73126 183.76878Q728.84064 183.76878 729.45 184.31566Q730.075 184.86253 730.10626 185.81566L730.10626 188.73753Q730.10626 189.61253 730.325 190.12816L730.325 190.22191L729.1844 190.22191ZM727.3875 189.39378Q727.90314 189.39378 728.35626 189.12816Q728.8094 188.86253 729.0125 188.44066L729.0125 187.14378L728.16876 187.14378Q726.16876 187.14378 726.16876 188.31566Q726.16876 188.81566 726.5125 189.11253Q726.85626 189.39378 727.3875 189.39378ZM733.7469 182.34691L733.7469 183.87816L734.91876 183.87816L734.91876 184.72191L733.7469 184.72191L733.7469 188.64378Q733.7469 189.03441 733.90314 189.22191Q734.0594 189.40941 734.4344 189.40941Q734.6219 189.40941 734.95 189.34691L734.95 190.22191Q734.52814 190.34691 734.1219 190.34691Q733.40314 190.34691 733.02814 189.90941Q732.65314 189.45628 732.65314 188.64378L732.65314 184.72191L731.4969 184.72191L731.4969 183.87816L732.65314 183.87816L732.65314 182.34691L733.7469 182.34691ZM737.45 190.22191L736.3719 190.22191L736.3719 183.87816L737.45 183.87816L737.45 190.22191ZM736.27814 182.20628Q736.27814 181.94066 736.4344 181.75316Q736.60626 181.56566 736.91876 181.56566Q737.23126 181.56566 737.3875 181.75316Q737.5594 181.94066 737.5594 182.20628Q737.5594 182.45628 737.3875 182.64378Q737.23126 182.81566 736.91876 182.81566Q736.60626 182.81566 736.4344 182.64378Q736.27814 182.45628 736.27814 182.20628ZM738.98126 186.98753Q738.98126 186.06566 739.34064 185.31566Q739.71564 184.56566 740.3719 184.17503Q741.02814 183.76878 741.85626 183.76878Q743.15314 183.76878 743.95 184.65941Q744.7625 185.55003 744.7625 187.05003L744.7625 187.12816Q744.7625 188.05003 744.40314 188.78441Q744.04376 189.51878 743.3875 189.94066Q742.73126 190.34691 741.8719 190.34691Q740.59064 190.34691 739.77814 189.45628Q738.98126 188.55003 738.98126 187.06566L738.98126 186.98753ZM740.075 187.12816Q740.075 188.17503 740.5594 188.81566Q741.0594 189.45628 741.8719 189.45628Q742.7 189.45628 743.1844 188.81566Q743.66876 188.15941 743.66876 186.98753Q743.66876 185.95628 743.16876 185.31566Q742.6844 184.65941 741.85626 184.65941Q741.0594 184.65941 740.5594 185.30003Q740.075 185.92503 740.075 187.12816ZM747.29376 183.87816L747.325 184.67503Q748.0594 183.76878 749.23126 183.76878Q751.2469 183.76878 751.2625 186.03441L751.2625 190.22191L750.16876 190.22191L750.16876 186.01878Q750.16876 185.34691 749.85626 185.01878Q749.5594 184.69066 748.90314 184.69066Q748.3719 184.69066 747.96564 184.97191Q747.575 185.25316 747.35626 185.70628L747.35626 190.22191L746.27814 190.22191L746.27814 183.87816L747.29376 183.87816ZM756.96564 188.53441Q756.96564 188.09691 756.6219 187.86253Q756.29376 187.61253 755.46564 187.44066Q754.65314 187.26878 754.16876 187.01878Q753.6844 186.76878 753.45 186.44066Q753.23126 186.09691 753.23126 185.62816Q753.23126 184.84691 753.8875 184.31566Q754.54376 183.76878 755.575 183.76878Q756.65314 183.76878 757.3094 184.33128Q757.98126 184.87816 757.98126 185.73753L756.90314 185.73753Q756.90314 185.30003 756.5125 184.98753Q756.1375 184.65941 755.575 184.65941Q754.98126 184.65941 754.6375 184.92503Q754.3094 185.17503 754.3094 185.58128Q754.3094 185.97191 754.6219 186.17503Q754.9344 186.37816 755.7469 186.56566Q756.5594 186.73753 757.0594 186.98753Q757.5594 187.23753 757.79376 187.59691Q758.04376 187.95628 758.04376 188.45628Q758.04376 189.31566 757.35626 189.83128Q756.6844 190.34691 755.60626 190.34691Q754.84064 190.34691 754.2469 190.08128Q753.66876 189.80003 753.34064 189.31566Q753.0125 188.83128 753.0125 188.26878L754.09064 188.26878Q754.1219 188.81566 754.52814 189.14378Q754.9344 189.45628 755.60626 189.45628Q756.21564 189.45628 756.59064 189.20628Q756.96564 188.95628 756.96564 188.53441Z" fill-rule="nonzero"/><path fill="#9e9e9e" d="M726.65314 203.94066L727.09064 199.69066L731.46564 199.69066L731.46564 200.69066L728.0125 200.69066L727.7469 203.01878Q728.3875 202.64378 729.1844 202.64378Q730.34064 202.64378 731.02814 203.42503Q731.71564 204.19066 731.71564 205.50316Q731.71564 206.81566 730.9969 207.58128Q730.29376 208.34691 729.0125 208.34691Q727.8875 208.34691 727.16876 207.72191Q726.45 207.08128 726.35626 205.97191L727.3719 205.97191Q727.48126 206.70628 727.90314 207.08128Q728.325 207.45628 729.0125 207.45628Q729.7625 207.45628 730.2 206.94066Q730.6375 206.42503 730.6375 205.51878Q730.6375 204.65941 730.16876 204.14378Q729.7 203.62816 728.91876 203.62816Q728.21564 203.62816 727.8094 203.92503L727.52814 204.15941L726.65314 203.94066ZM736.71564 208.22191L735.6375 208.22191L735.6375 201.00316L733.45 201.80003L733.45 200.81566L736.5594 199.64378L736.71564 199.64378L736.71564 208.22191ZM740.29376 207.65941Q740.29376 207.37816 740.45 207.19066Q740.6219 207.00316 740.95 207.00316Q741.29376 207.00316 741.46564 207.19066Q741.6375 207.37816 741.6375 207.65941Q741.6375 207.92503 741.46564 208.11253Q741.29376 208.28441 740.95 208.28441Q740.6219 208.28441 740.45 208.11253Q740.29376 207.92503 740.29376 207.65941ZM747.3094 204.47191Q746.98126 204.87816 746.4969 205.12816Q746.02814 205.36253 745.46564 205.36253Q744.73126 205.36253 744.1844 205.00316Q743.6375 204.64378 743.34064 203.98753Q743.04376 203.31566 743.04376 202.51878Q743.04376 201.67503 743.35626 200.98753Q743.6844 200.30003 744.27814 199.94066Q744.8875 199.56566 745.6844 199.56566Q746.95 199.56566 747.66876 200.51878Q748.40314 201.47191 748.40314 203.09691L748.40314 203.40941Q748.40314 205.90941 747.41876 207.05003Q746.4344 208.19066 744.45 208.22191L744.23126 208.22191L744.23126 207.31566L744.46564 207.31566Q745.8094 207.28441 746.52814 206.61253Q747.2469 205.94066 747.3094 204.47191ZM745.6375 204.47191Q746.1844 204.47191 746.6375 204.14378Q747.10626 203.80003 747.325 203.31566L747.325 202.87816Q747.325 201.81566 746.85626 201.14378Q746.3875 200.47191 745.6844 200.47191Q744.96564 200.47191 744.52814 201.01878Q744.10626 201.56566 744.10626 202.47191Q744.10626 203.34691 744.5125 203.90941Q744.9344 204.47191 745.6375 204.47191ZM750.0594 201.33128Q750.0594 200.56566 750.54376 200.06566Q751.04376 199.56566 751.8094 199.56566Q752.59064 199.56566 753.075 200.06566Q753.5594 200.56566 753.5594 201.36253L753.5594 201.78441Q753.5594 202.55003 753.0594 203.05003Q752.575 203.53441 751.825 203.53441Q751.0594 203.53441 750.5594 203.05003Q750.0594 202.55003 750.0594 201.73753L750.0594 201.33128ZM750.8719 201.78441Q750.8719 202.23753 751.1219 202.53441Q751.3875 202.83128 751.825 202.83128Q752.2469 202.83128 752.4969 202.55003Q752.7469 202.25316 752.7469 201.75316L752.7469 201.33128Q752.7469 200.87816 752.4969 200.58128Q752.2469 200.26878 751.8094 200.26878Q751.3719 200.26878 751.1219 200.58128Q750.8719 200.87816 750.8719 201.34691L750.8719 201.78441ZM754.21564 206.12816Q754.21564 205.36253 754.7 204.87816Q755.2 204.37816 755.96564 204.37816Q756.73126 204.37816 757.21564 204.87816Q757.71564 205.36253 757.71564 206.17503L757.71564 206.58128Q757.71564 207.34691 757.23126 207.84691Q756.7469 208.34691 755.98126 208.34691Q755.21564 208.34691 754.71564 207.86253Q754.21564 207.36253 754.21564 206.55003L754.21564 206.12816ZM755.02814 206.58128Q755.02814 207.05003 755.27814 207.34691Q755.54376 207.64378 755.98126 207.64378Q756.40314 207.64378 756.65314 207.36253Q756.90314 207.06566 756.90314 206.56566L756.90314 206.12816Q756.90314 205.65941 756.6375 205.37816Q756.3875 205.08128 755.96564 205.08128Q755.54376 205.08128 755.27814 205.37816Q755.02814 205.65941 755.02814 206.15941L755.02814 206.58128ZM752.075 207.58128L751.45 207.19066L755.6219 200.51878L756.23126 200.90941L752.075 207.58128Z" fill-rule="nonzero"/><path stroke="#757575" stroke-width="1.0" stroke-linecap="butt" d="M758.45 194.72191L561.45 194.72191L546.83417 194.72191" fill-rule="nonzero"/><path fill="#9e9e9e" d="M548.83417 194.72191C548.83417 193.61734 547.9387 192.72191 546.83417 192.72191C545.7296 192.72191 544.83417 193.61734 544.83417 194.72191C544.83417 195.82649 545.7296 196.72191 546.83417 196.72191C547.9387 196.72191 548.83417 195.82649 548.83417 194.72191" fill-rule="nonzero"/></svg>