<svg version="1.1" viewBox="0.0 0.0 600.0 371.0" fill="none" stroke="none" stroke-linecap="square" stroke-miterlimit="10" width="600" height="371" xmlns:xlink="http://www.w3.org/1999/xlink" xmlns="http://www.w3.org/2000/svg"><path fill="#ffffff" d="M0 0L600.0 0L600.0 371.0L0 371.0L0 0Z" fill-rule="nonzero"/><path fill="#0f9d58" d="M213.49336 82.6539C238.73157 64.614716 268.97775 54.916668 300.0 54.916668L300.0 129.3C284.4889 129.3 269.36578 134.14902 256.74667 143.16862Z" fill-rule="nonzero"/><path fill="#f4b400" d="M159.24469 155.5225C169.28764 126.170876 188.25516 100.69309 213.49336 82.6539L256.74667 143.16862C244.12758 152.18822 234.64383 164.92711 229.62234 179.60292Z" fill-rule="nonzero"/><path fill="#db4437" d="M282.72925 351.4441C238.04903 346.2217 198.13129 321.06256 174.14542 283.00638C150.15955 244.95021 144.68172 198.0844 159.24469 155.5225L229.62234 179.60292C222.34087 200.88387 225.07977 224.31677 237.07271 243.34486C249.06564 262.37296 269.0245 274.9525 291.36462 277.56372Z" fill-rule="nonzero"/><path fill="#4285f4" d="M300.0 54.916668C355.21603 54.916668 405.88998 85.49855 431.62308 134.3516C457.35614 183.20464 453.91473 242.29149 422.68414 287.82678C391.45358 333.36206 337.57193 357.85428 282.72925 351.4441L291.36462 277.56372C318.78598 280.7688 345.72678 268.5227 361.34207 245.75505C376.95737 222.98741 378.67807 193.44398 365.81152 169.01746C352.945 144.59094 327.60803 129.3 300.0 129.3Z" fill-rule="nonzero"/><path fill="#757575" d="M26.096874 62.93229Q26.096874 64.18229 25.675 65.11979Q25.253124 66.041664 24.471874 66.541664Q23.70625 67.041664 22.675 67.041664Q21.675 67.041664 20.89375 66.541664Q20.1125 66.041664 19.675 65.135414Q19.253124 64.21354 19.2375 62.99479L19.2375 62.385414Q19.2375 61.15104 19.659374 60.21354Q20.096874 59.27604 20.878124 58.77604Q21.659374 58.260414 22.675 58.260414Q23.690624 58.260414 24.471874 58.760414Q25.253124 59.260414 25.675 60.197914Q26.096874 61.135414 26.096874 62.385414L26.096874 62.93229ZM24.9875 62.36979Q24.9875 60.854164 24.378124 60.041664Q23.76875 59.229164 22.675 59.229164Q21.596874 59.229164 20.9875 60.041664Q20.378124 60.854164 20.3625 62.291664L20.3625 62.93229Q20.3625 64.40104 20.971874 65.24479Q21.596874 66.072914 22.675 66.072914Q23.76875 66.072914 24.3625 65.291664Q24.971874 64.49479 24.9875 63.010414L24.9875 62.36979ZM28.39375 60.572914L28.425 61.36979Q29.159374 60.46354 30.33125 60.46354Q32.346874 60.46354 32.3625 62.729164L32.3625 66.916664L31.26875 66.916664L31.26875 62.71354Q31.26875 62.041664 30.95625 61.71354Q30.659374 61.385414 30.003124 61.385414Q29.471874 61.385414 29.065624 61.666664Q28.675 61.947914 28.45625 62.40104L28.45625 66.916664L27.378124 66.916664L27.378124 60.572914L28.39375 60.572914ZM35.55 66.916664L34.471874 66.916664L34.471874 57.916664L35.55 57.916664L35.55 66.916664ZM39.440624 65.322914L40.925 60.572914L42.08125 60.572914L39.534374 67.90104Q38.940624 69.479164 37.659374 69.479164L37.440624 69.46354L37.05 69.385414L37.05 68.510414L37.33125 68.52604Q37.89375 68.52604 38.190624 68.30729Q38.503124 68.08854 38.70625 67.49479L38.940624 66.83854L36.675 60.572914L37.8625 60.572914L39.440624 65.322914ZM49.815624 66.916664L48.7375 66.916664L48.7375 59.697914L46.55 60.49479L46.55 59.510414L49.659374 58.33854L49.815624 58.33854L49.815624 66.916664ZM61.721874 63.822914Q61.721874 65.260414 61.065624 66.15104Q60.409374 67.041664 59.26875 67.041664Q58.1125 67.041664 57.45625 66.30729L57.45625 69.354164L56.378124 69.354164L56.378124 60.572914L57.3625 60.572914L57.409374 61.27604Q58.08125 60.46354 59.253124 60.46354Q60.39375 60.46354 61.05 61.322914Q61.721874 62.18229 61.721874 63.71354L61.721874 63.822914ZM60.64375 63.697914Q60.64375 62.61979 60.175 62.010414Q59.721874 61.385414 58.925 61.385414Q57.940624 61.385414 57.45625 62.24479L57.45625 65.27604Q57.940624 66.15104 58.940624 66.15104Q59.721874 66.15104 60.175 65.541664Q60.64375 64.916664 60.64375 63.697914ZM64.55 66.916664L63.471874 66.916664L63.471874 57.916664L64.55 57.916664L64.55 66.916664ZM70.28438 66.916664Q70.19063 66.729164 70.12813 66.24479Q69.37813 67.041664 68.33125 67.041664Q67.39375 67.041664 66.78438 66.510414Q66.19063 65.979164 66.19063 65.15104Q66.19063 64.166664 66.94063 63.61979Q67.69063 63.072914 69.06563 63.072914L70.1125 63.072914L70.1125 62.572914Q70.1125 62.010414 69.76875 61.68229Q69.44063 61.33854 68.76875 61.33854Q68.19063 61.33854 67.8 61.635414Q67.40938 61.916664 67.40938 62.33854L66.31563 62.33854Q66.31563 61.854164 66.64375 61.416664Q66.9875 60.979164 67.56563 60.729164Q68.14375 60.46354 68.83125 60.46354Q69.94063 60.46354 70.55 61.010414Q71.175 61.55729 71.20625 62.510414L71.20625 65.43229Q71.20625 66.30729 71.425 66.822914L71.425 66.916664L70.28438 66.916664ZM68.4875 66.08854Q69.00313 66.08854 69.45625 65.822914Q69.90938 65.55729 70.1125 65.135414L70.1125 63.83854L69.26875 63.83854Q67.26875 63.83854 67.26875 65.010414Q67.26875 65.510414 67.6125 65.80729Q67.95625 66.08854 68.4875 66.08854ZM74.39375 60.572914L74.425 61.36979Q75.15938 60.46354 76.33125 60.46354Q78.34688 60.46354 78.3625 62.729164L78.3625 66.916664L77.26875 66.916664L77.26875 62.71354Q77.26875 62.041664 76.95625 61.71354Q76.65938 61.385414 76.00313 61.385414Q75.47188 61.385414 75.06563 61.666664Q74.675 61.947914 74.45625 62.40104L74.45625 66.916664L73.37813 66.916664L73.37813 60.572914L74.39375 60.572914ZM81.39375 60.572914L81.425 61.36979Q82.15938 60.46354 83.33125 60.46354Q85.34688 60.46354 85.3625 62.729164L85.3625 66.916664L84.26875 66.916664L84.26875 62.71354Q84.26875 62.041664 83.95625 61.71354Q83.65938 61.385414 83.00313 61.385414Q82.47188 61.385414 82.06563 61.666664Q81.675 61.947914 81.45625 62.40104L81.45625 66.916664L80.37813 66.916664L80.37813 60.572914L81.39375 60.572914ZM90.00313 67.041664Q88.70625 67.041664 87.89375 66.197914Q87.09688 65.33854 87.09688 63.916664L87.09688 63.729164Q87.09688 62.77604 87.45625 62.041664Q87.81563 61.291664 88.45625 60.885414Q89.1125 60.46354 89.8625 60.46354Q91.09688 60.46354 91.78438 61.27604Q92.47188 62.08854 92.47188 63.604164L92.47188 64.05729L88.175 64.05729Q88.20625 64.99479 88.72188 65.572914Q89.25313 66.15104 90.06563 66.15104Q90.62813 66.15104 91.01875 65.916664Q91.425 65.68229 91.7375 65.291664L92.39375 65.80729Q91.59688 67.041664 90.00313 67.041664ZM89.8625 61.354164Q89.20625 61.354164 88.75313 61.83854Q88.31563 62.30729 88.22188 63.166664L91.39375 63.166664L91.39375 63.08854Q91.34688 62.260414 90.94063 61.80729Q90.55 61.354164 89.8625 61.354164ZM93.1125 63.697914Q93.1125 62.229164 93.8 61.354164Q94.4875 60.46354 95.6125 60.46354Q96.72188 60.46354 97.37813 61.21354L97.37813 57.916664L98.45625 57.916664L98.45625 66.916664L97.45625 66.916664L97.40938 66.229164Q96.75313 67.041664 95.59688 67.041664Q94.50313 67.041664 93.8 66.135414Q93.1125 65.229164 93.1125 63.77604L93.1125 63.697914ZM94.19063 63.822914Q94.19063 64.90104 94.62813 65.510414Q95.08125 66.11979 95.8625 66.11979Q96.89375 66.11979 97.37813 65.18229L97.37813 62.27604Q96.89375 61.385414 95.87813 61.385414Q95.08125 61.385414 94.62813 61.99479Q94.19063 62.604164 94.19063 63.822914Z" fill-rule="nonzero"/><path fill="#9e9e9e" d="M23.409374 81.166664Q23.08125 81.572914 22.596874 81.822914Q22.128124 82.05729 21.565624 82.05729Q20.83125 82.05729 20.284374 81.697914Q19.7375 81.33854 19.440624 80.68229Q19.14375 80.010414 19.14375 79.21354Q19.14375 78.36979 19.45625 77.68229Q19.784374 76.99479 20.378124 76.635414Q20.9875 76.260414 21.784374 76.260414Q23.05 76.260414 23.76875 77.21354Q24.503124 78.166664 24.503124 79.791664L24.503124 80.104164Q24.503124 82.604164 23.51875 83.74479Q22.534374 84.885414 20.55 84.916664L20.33125 84.916664L20.33125 84.010414L20.565624 84.010414Q21.909374 83.979164 22.628124 83.30729Q23.346874 82.635414 23.409374 81.166664ZM21.7375 81.166664Q22.284374 81.166664 22.7375 80.83854Q23.20625 80.49479 23.425 80.010414L23.425 79.572914Q23.425 78.510414 22.95625 77.83854Q22.4875 77.166664 21.784374 77.166664Q21.065624 77.166664 20.628124 77.71354Q20.20625 78.260414 20.20625 79.166664Q20.20625 80.041664 20.6125 80.604164Q21.034374 81.166664 21.7375 81.166664ZM26.39375 84.354164Q26.39375 84.072914 26.55 83.885414Q26.721874 83.697914 27.05 83.697914Q27.39375 83.697914 27.565624 83.885414Q27.7375 84.072914 27.7375 84.354164Q27.7375 84.61979 27.565624 84.80729Q27.39375 84.979164 27.05 84.979164Q26.721874 84.979164 26.55 84.80729Q26.39375 84.61979 26.39375 84.354164ZM33.409374 81.166664Q33.08125 81.572914 32.596874 81.822914Q32.128124 82.05729 31.565624 82.05729Q30.83125 82.05729 30.284374 81.697914Q29.7375 81.33854 29.440624 80.68229Q29.14375 80.010414 29.14375 79.21354Q29.14375 78.36979 29.45625 77.68229Q29.784374 76.99479 30.378124 76.635414Q30.9875 76.260414 31.784374 76.260414Q33.05 76.260414 33.76875 77.21354Q34.503124 78.166664 34.503124 79.791664L34.503124 80.104164Q34.503124 82.604164 33.51875 83.74479Q32.534374 84.885414 30.55 84.916664L30.33125 84.916664L30.33125 84.010414L30.565624 84.010414Q31.909374 83.979164 32.628124 83.30729Q33.346874 82.635414 33.409374 81.166664ZM31.7375 81.166664Q32.284374 81.166664 32.7375 80.83854Q33.20625 80.49479 33.425 80.010414L33.425 79.572914Q33.425 78.510414 32.95625 77.83854Q32.4875 77.166664 31.784374 77.166664Q31.065624 77.166664 30.628124 77.71354Q30.20625 78.260414 30.20625 79.166664Q30.20625 80.041664 30.6125 80.604164Q31.034374 81.166664 31.7375 81.166664ZM36.159374 78.02604Q36.159374 77.260414 36.64375 76.760414Q37.14375 76.260414 37.909374 76.260414Q38.690624 76.260414 39.175 76.760414Q39.659374 77.260414 39.659374 78.05729L39.659374 78.479164Q39.659374 79.24479 39.159374 79.74479Q38.675 80.229164 37.925 80.229164Q37.159374 80.229164 36.659374 79.74479Q36.159374 79.24479 36.159374 78.43229L36.159374 78.02604ZM36.971874 78.479164Q36.971874 78.93229 37.221874 79.229164Q37.4875 79.52604 37.925 79.52604Q38.346874 79.52604 38.596874 79.24479Q38.846874 78.947914 38.846874 78.447914L38.846874 78.02604Q38.846874 77.572914 38.596874 77.27604Q38.346874 76.96354 37.909374 76.96354Q37.471874 76.96354 37.221874 77.27604Q36.971874 77.572914 36.971874 78.041664L36.971874 78.479164ZM40.315624 82.822914Q40.315624 82.05729 40.8 81.572914Q41.3 81.072914 42.065624 81.072914Q42.83125 81.072914 43.315624 81.572914Q43.815624 82.05729 43.815624 82.86979L43.815624 83.27604Q43.815624 84.041664 43.33125 84.541664Q42.846874 85.041664 42.08125 85.041664Q41.315624 85.041664 40.815624 84.55729Q40.315624 84.05729 40.315624 83.24479L40.315624 82.822914ZM41.128124 83.27604Q41.128124 83.74479 41.378124 84.041664Q41.64375 84.33854 42.08125 84.33854Q42.503124 84.33854 42.753124 84.05729Q43.003124 83.760414 43.003124 83.260414L43.003124 82.822914Q43.003124 82.354164 42.7375 82.072914Q42.4875 81.77604 42.065624 81.77604Q41.64375 81.77604 41.378124 82.072914Q41.128124 82.354164 41.128124 82.854164L41.128124 83.27604ZM38.175 84.27604L37.55 83.885414L41.721874 77.21354L42.33125 77.604164L38.175 84.27604Z" fill-rule="nonzero"/><path stroke="#757575" stroke-width="1.0" stroke-linecap="butt" d="M18.55 71.416664L145.23334 71.416664L256.8488 69.10373" fill-rule="nonzero"/><path fill="#9e9e9e" d="M258.8488 69.10373C258.8488 67.99916 257.95337 67.10373 256.8488 67.10373C255.74422 67.10373 254.84879 67.99916 254.84879 69.10373C254.84879 70.2083 255.74422 71.10373 256.8488 71.10373C257.95337 71.10373 258.8488 70.2083 258.8488 69.10373" fill-rule="nonzero"/><path fill="#757575" d="M24.846874 114.7879L19.253124 114.7879L19.253124 114.00665L22.20625 110.7254Q22.8625 109.9754 23.1125 109.52228Q23.3625 109.05353 23.3625 108.55353Q23.3625 107.88165 22.95625 107.45978Q22.565624 107.02228 21.878124 107.02228Q21.08125 107.02228 20.628124 107.49103Q20.175 107.94415 20.175 108.77228L19.096874 108.77228Q19.096874 107.58478 19.846874 106.86603Q20.6125 106.13165 21.878124 106.13165Q23.08125 106.13165 23.76875 106.75665Q24.45625 107.38165 24.45625 108.42853Q24.45625 109.67853 22.846874 111.42853L20.565624 113.89728L24.846874 113.89728L24.846874 114.7879ZM29.08125 111.55353Q29.08125 110.63165 29.440624 109.88165Q29.815624 109.13165 30.471874 108.74103Q31.128124 108.33478 31.95625 108.33478Q33.253124 108.33478 34.05 109.2254Q34.8625 110.11603 34.8625 111.61603L34.8625 111.69415Q34.8625 112.61603 34.503124 113.3504Q34.14375 114.08478 33.4875 114.50665Q32.83125 114.9129 31.971874 114.9129Q30.690624 114.9129 29.878124 114.02228Q29.08125 113.11603 29.08125 111.63165L29.08125 111.55353ZM30.175 111.69415Q30.175 112.74103 30.659374 113.38165Q31.159374 114.02228 31.971874 114.02228Q32.8 114.02228 33.284374 113.38165Q33.76875 112.7254 33.76875 111.55353Q33.76875 110.52228 33.26875 109.88165Q32.784374 109.2254 31.95625 109.2254Q31.159374 109.2254 30.659374 109.86603Q30.175 110.49103 30.175 111.69415ZM39.440624 109.4129Q39.190624 109.38165 38.909374 109.38165Q37.83125 109.38165 37.45625 110.2879L37.45625 114.7879L36.378124 114.7879L36.378124 108.44415L37.425 108.44415L37.440624 109.17853Q37.971874 108.33478 38.95625 108.33478Q39.26875 108.33478 39.440624 108.4129L39.440624 109.4129ZM44.39375 108.44415L44.425 109.14728Q45.1125 108.33478 46.3 108.33478Q47.628124 108.33478 48.1125 109.3504Q48.425 108.89728 48.925 108.61603Q49.440624 108.33478 50.128124 108.33478Q52.221874 108.33478 52.253124 110.5379L52.253124 114.7879L51.175 114.7879L51.175 110.6004Q51.175 109.92853 50.8625 109.6004Q50.55 109.25665 49.815624 109.25665Q49.20625 109.25665 48.8 109.61603Q48.409374 109.9754 48.346874 110.58478L48.346874 114.7879L47.26875 114.7879L47.26875 110.63165Q47.26875 109.25665 45.909374 109.25665Q44.846874 109.25665 44.45625 110.1629L44.45625 114.7879L43.3625 114.7879L43.3625 108.44415L44.39375 108.44415ZM54.08125 111.55353Q54.08125 110.63165 54.440624 109.88165Q54.815624 109.13165 55.471874 108.74103Q56.128124 108.33478 56.95625 108.33478Q58.253124 108.33478 59.05 109.2254Q59.8625 110.11603 59.8625 111.61603L59.8625 111.69415Q59.8625 112.61603 59.503124 113.3504Q59.14375 114.08478 58.4875 114.50665Q57.83125 114.9129 56.971874 114.9129Q55.690624 114.9129 54.878124 114.02228Q54.08125 113.11603 54.08125 111.63165L54.08125 111.55353ZM55.175 111.69415Q55.175 112.74103 55.659374 113.38165Q56.159374 114.02228 56.971874 114.02228Q57.8 114.02228 58.284374 113.38165Q58.76875 112.7254 58.76875 111.55353Q58.76875 110.52228 58.26875 109.88165Q57.784374 109.2254 56.95625 109.2254Q56.159374 109.2254 55.659374 109.86603Q55.175 110.49103 55.175 111.69415ZM64.44063 109.4129Q64.19063 109.38165 63.909374 109.38165Q62.83125 109.38165 62.45625 110.2879L62.45625 114.7879L61.378124 114.7879L61.378124 108.44415L62.425 108.44415L62.440624 109.17853Q62.971874 108.33478 63.95625 108.33478Q64.26875 108.33478 64.44063 108.4129L64.44063 109.4129ZM68.00313 114.9129Q66.70625 114.9129 65.89375 114.06915Q65.09688 113.20978 65.09688 111.7879L65.09688 111.6004Q65.09688 110.64728 65.45625 109.9129Q65.81563 109.1629 66.45625 108.75665Q67.1125 108.33478 67.8625 108.33478Q69.09688 108.33478 69.78438 109.14728Q70.47188 109.95978 70.47188 111.4754L70.47188 111.92853L66.175 111.92853Q66.20625 112.86603 66.72188 113.44415Q67.25313 114.02228 68.06563 114.02228Q68.62813 114.02228 69.01875 113.7879Q69.425 113.55353 69.7375 113.1629L70.39375 113.67853Q69.59688 114.9129 68.00313 114.9129ZM67.8625 109.2254Q67.20625 109.2254 66.75313 109.70978Q66.31563 110.17853 66.22188 111.0379L69.39375 111.0379L69.39375 110.95978Q69.34688 110.13165 68.94063 109.67853Q68.55 109.2254 67.8625 109.2254ZM79.72188 111.69415Q79.72188 113.13165 79.06563 114.02228Q78.40938 114.9129 77.26875 114.9129Q76.1125 114.9129 75.45625 114.17853L75.45625 117.2254L74.37813 117.2254L74.37813 108.44415L75.3625 108.44415L75.40938 109.14728Q76.08125 108.33478 77.25313 108.33478Q78.39375 108.33478 79.05 109.19415Q79.72188 110.05353 79.72188 111.58478L79.72188 111.69415ZM78.64375 111.56915Q78.64375 110.49103 78.175 109.88165Q77.72188 109.25665 76.925 109.25665Q75.94063 109.25665 75.45625 110.11603L75.45625 113.14728Q75.94063 114.02228 76.94063 114.02228Q77.72188 114.02228 78.175 113.4129Q78.64375 112.7879 78.64375 111.56915ZM82.55 114.7879L81.47188 114.7879L81.47188 105.7879L82.55 105.7879L82.55 114.7879ZM88.28438 114.7879Q88.19063 114.6004 88.12813 114.11603Q87.37813 114.9129 86.33125 114.9129Q85.39375 114.9129 84.78438 114.38165Q84.19063 113.8504 84.19063 113.02228Q84.19063 112.0379 84.94063 111.49103Q85.69063 110.94415 87.06563 110.94415L88.1125 110.94415L88.1125 110.44415Q88.1125 109.88165 87.76875 109.55353Q87.44063 109.20978 86.76875 109.20978Q86.19063 109.20978 85.8 109.50665Q85.40938 109.7879 85.40938 110.20978L84.31563 110.20978Q84.31563 109.7254 84.64375 109.2879Q84.9875 108.8504 85.56563 108.6004Q86.14375 108.33478 86.83125 108.33478Q87.94063 108.33478 88.55 108.88165Q89.175 109.42853 89.20625 110.38165L89.20625 113.30353Q89.20625 114.17853 89.425 114.69415L89.425 114.7879L88.28438 114.7879ZM86.4875 113.95978Q87.00313 113.95978 87.45625 113.69415Q87.90938 113.42853 88.1125 113.00665L88.1125 111.70978L87.26875 111.70978Q85.26875 111.70978 85.26875 112.88165Q85.26875 113.38165 85.6125 113.67853Q85.95625 113.95978 86.4875 113.95978ZM92.39375 108.44415L92.425 109.24103Q93.15938 108.33478 94.33125 108.33478Q96.34688 108.33478 96.3625 110.6004L96.3625 114.7879L95.26875 114.7879L95.26875 110.58478Q95.26875 109.9129 94.95625 109.58478Q94.65938 109.25665 94.00313 109.25665Q93.47188 109.25665 93.06563 109.5379Q92.675 109.81915 92.45625 110.27228L92.45625 114.7879L91.37813 114.7879L91.37813 108.44415L92.39375 108.44415ZM99.39375 108.44415L99.425 109.24103Q100.15938 108.33478 101.33125 108.33478Q103.34688 108.33478 103.3625 110.6004L103.3625 114.7879L102.26875 114.7879L102.26875 110.58478Q102.26875 109.9129 101.95625 109.58478Q101.65938 109.25665 101.00313 109.25665Q100.47188 109.25665 100.06563 109.5379Q99.675 109.81915 99.45625 110.27228L99.45625 114.7879L98.37813 114.7879L98.37813 108.44415L99.39375 108.44415ZM108.00313 114.9129Q106.70625 114.9129 105.89375 114.06915Q105.09688 113.20978 105.09688 111.7879L105.09688 111.6004Q105.09688 110.64728 105.45625 109.9129Q105.81563 109.1629 106.45625 108.75665Q107.1125 108.33478 107.8625 108.33478Q109.09688 108.33478 109.78438 109.14728Q110.47188 109.95978 110.47188 111.4754L110.47188 111.92853L106.175 111.92853Q106.20625 112.86603 106.72188 113.44415Q107.25313 114.02228 108.06563 114.02228Q108.62813 114.02228 109.01875 113.7879Q109.425 113.55353 109.7375 113.1629L110.39375 113.67853Q109.59688 114.9129 108.00313 114.9129ZM107.8625 109.2254Q107.20625 109.2254 106.75313 109.70978Q106.31563 110.17853 106.22188 111.0379L109.39375 111.0379L109.39375 110.95978Q109.34688 110.13165 108.94063 109.67853Q108.55 109.2254 107.8625 109.2254ZM111.1125 111.56915Q111.1125 110.1004 111.8 109.2254Q112.4875 108.33478 113.6125 108.33478Q114.72188 108.33478 115.37813 109.08478L115.37813 105.7879L116.45625 105.7879L116.45625 114.7879L115.45625 114.7879L115.40938 114.1004Q114.75313 114.9129 113.59688 114.9129Q112.50313 114.9129 111.8 114.00665Q111.1125 113.1004 111.1125 111.64728L111.1125 111.56915ZM112.19063 111.69415Q112.19063 112.77228 112.62813 113.38165Q113.08125 113.99103 113.8625 113.99103Q114.89375 113.99103 115.37813 113.05353L115.37813 110.14728Q114.89375 109.25665 113.87813 109.25665Q113.08125 109.25665 112.62813 109.86603Q112.19063 110.4754 112.19063 111.69415Z" fill-rule="nonzero"/><path fill="#9e9e9e" d="M23.409374 129.0379Q23.08125 129.44415 22.596874 129.69415Q22.128124 129.92853 21.565624 129.92853Q20.83125 129.92853 20.284374 129.56915Q19.7375 129.20978 19.440624 128.55353Q19.14375 127.88165 19.14375 127.08478Q19.14375 126.24103 19.45625 125.55353Q19.784374 124.86603 20.378124 124.50665Q20.9875 124.13165 21.784374 124.13165Q23.05 124.13165 23.76875 125.08478Q24.503124 126.0379 24.503124 127.6629L24.503124 127.9754Q24.503124 130.4754 23.51875 131.61603Q22.534374 132.75665 20.55 132.7879L20.33125 132.7879L20.33125 131.88165L20.565624 131.88165Q21.909374 131.8504 22.628124 131.17853Q23.346874 130.50665 23.409374 129.0379ZM21.7375 129.0379Q22.284374 129.0379 22.7375 128.70978Q23.20625 128.36603 23.425 127.88165L23.425 127.44415Q23.425 126.38165 22.95625 125.70978Q22.4875 125.0379 21.784374 125.0379Q21.065624 125.0379 20.628124 125.58478Q20.20625 126.13165 20.20625 127.0379Q20.20625 127.9129 20.6125 128.4754Q21.034374 129.0379 21.7375 129.0379ZM26.39375 132.2254Q26.39375 131.94415 26.55 131.75665Q26.721874 131.56915 27.05 131.56915Q27.39375 131.56915 27.565624 131.75665Q27.7375 131.94415 27.7375 132.2254Q27.7375 132.49103 27.565624 132.67853Q27.39375 132.8504 27.05 132.8504Q26.721874 132.8504 26.55 132.67853Q26.39375 132.49103 26.39375 132.2254ZM33.409374 129.0379Q33.08125 129.44415 32.596874 129.69415Q32.128124 129.92853 31.565624 129.92853Q30.83125 129.92853 30.284374 129.56915Q29.7375 129.20978 29.440624 128.55353Q29.14375 127.88165 29.14375 127.08478Q29.14375 126.24103 29.45625 125.55353Q29.784374 124.86603 30.378124 124.50665Q30.9875 124.13165 31.784374 124.13165Q33.05 124.13165 33.76875 125.08478Q34.503124 126.0379 34.503124 127.6629L34.503124 127.9754Q34.503124 130.4754 33.51875 131.61603Q32.534374 132.75665 30.55 132.7879L30.33125 132.7879L30.33125 131.88165L30.565624 131.88165Q31.909374 131.8504 32.628124 131.17853Q33.346874 130.50665 33.409374 129.0379ZM31.7375 129.0379Q32.284374 129.0379 32.7375 128.70978Q33.20625 128.36603 33.425 127.88165L33.425 127.44415Q33.425 126.38165 32.95625 125.70978Q32.4875 125.0379 31.784374 125.0379Q31.065624 125.0379 30.628124 125.58478Q30.20625 126.13165 30.20625 127.0379Q30.20625 127.9129 30.6125 128.4754Q31.034374 129.0379 31.7375 129.0379ZM36.159374 125.89728Q36.159374 125.13165 36.64375 124.63165Q37.14375 124.13165 37.909374 124.13165Q38.690624 124.13165 39.175 124.63165Q39.659374 125.13165 39.659374 125.92853L39.659374 126.3504Q39.659374 127.11603 39.159374 127.61603Q38.675 128.1004 37.925 128.1004Q37.159374 128.1004 36.659374 127.61603Q36.159374 127.11603 36.159374 126.30353L36.159374 125.89728ZM36.971874 126.3504Q36.971874 126.80353 37.221874 127.1004Q37.4875 127.39728 37.925 127.39728Q38.346874 127.39728 38.596874 127.11603Q38.846874 126.81915 38.846874 126.31915L38.846874 125.89728Q38.846874 125.44415 38.596874 125.14728Q38.346874 124.83478 37.909374 124.83478Q37.471874 124.83478 37.221874 125.14728Q36.971874 125.44415 36.971874 125.9129L36.971874 126.3504ZM40.315624 130.69415Q40.315624 129.92853 40.8 129.44415Q41.3 128.94415 42.065624 128.94415Q42.83125 128.94415 43.315624 129.44415Q43.815624 129.92853 43.815624 130.74103L43.815624 131.14728Q43.815624 131.9129 43.33125 132.4129Q42.846874 132.9129 42.08125 132.9129Q41.315624 132.9129 40.815624 132.42853Q40.315624 131.92853 40.315624 131.11603L40.315624 130.69415ZM41.128124 131.14728Q41.128124 131.61603 41.378124 131.9129Q41.64375 132.20978 42.08125 132.20978Q42.503124 132.20978 42.753124 131.92853Q43.003124 131.63165 43.003124 131.13165L43.003124 130.69415Q43.003124 130.2254 42.7375 129.94415Q42.4875 129.64728 42.065624 129.64728Q41.64375 129.64728 41.378124 129.94415Q41.128124 130.2254 41.128124 130.7254L41.128124 131.14728ZM38.175 132.14728L37.55 131.75665L41.721874 125.08478L42.33125 125.4754L38.175 132.14728Z" fill-rule="nonzero"/><path stroke="#757575" stroke-width="1.0" stroke-linecap="butt" d="M18.55 119.2879L145.23334 119.2879L186.63727 119.2879" fill-rule="nonzero"/><path fill="#9e9e9e" d="M188.63727 119.2879C188.63727 118.183334 187.74184 117.2879 186.63727 117.2879C185.5327 117.2879 184.63727 118.183334 184.63727 119.2879C184.63727 120.39247 185.5327 121.2879 186.63727 121.2879C187.74184 121.2879 188.63727 120.39247 188.63727 119.2879" fill-rule="nonzero"/><path fill="#757575" d="M26.096874 270.55585Q26.096874 271.80585 25.675 272.74335Q25.253124 273.66522 24.471874 274.16522Q23.70625 274.66522 22.675 274.66522Q21.675 274.66522 20.89375 274.16522Q20.1125 273.66522 19.675 272.75897Q19.253124 271.8371 19.2375 270.61835L19.2375 270.00897Q19.2375 268.7746 19.659374 267.8371Q20.096874 266.8996 20.878124 266.3996Q21.659374 265.88397 22.675 265.88397Q23.690624 265.88397 24.471874 266.38397Q25.253124 266.88397 25.675 267.82147Q26.096874 268.75897 26.096874 270.00897L26.096874 270.55585ZM24.9875 269.99335Q24.9875 268.47772 24.378124 267.66522Q23.76875 266.85272 22.675 266.85272Q21.596874 266.85272 20.9875 267.66522Q20.378124 268.47772 20.3625 269.91522L20.3625 270.55585Q20.3625 272.0246 20.971874 272.86835Q21.596874 273.69647 22.675 273.69647Q23.76875 273.69647 24.3625 272.91522Q24.971874 272.11835 24.9875 270.63397L24.9875 269.99335ZM28.39375 268.19647L28.425 268.99335Q29.159374 268.0871 30.33125 268.0871Q32.346874 268.0871 32.3625 270.35272L32.3625 274.54022L31.26875 274.54022L31.26875 270.3371Q31.26875 269.66522 30.95625 269.3371Q30.659374 269.00897 30.003124 269.00897Q29.471874 269.00897 29.065624 269.29022Q28.675 269.57147 28.45625 270.0246L28.45625 274.54022L27.378124 274.54022L27.378124 268.19647L28.39375 268.19647ZM35.55 274.54022L34.471874 274.54022L34.471874 265.54022L35.55 265.54022L35.55 274.54022ZM39.440624 272.94647L40.925 268.19647L42.08125 268.19647L39.534374 275.5246Q38.940624 277.10272 37.659374 277.10272L37.440624 277.0871L37.05 277.00897L37.05 276.13397L37.33125 276.1496Q37.89375 276.1496 38.190624 275.93085Q38.503124 275.7121 38.70625 275.11835L38.940624 274.4621L36.675 268.19647L37.8625 268.19647L39.440624 272.94647ZM49.815624 274.54022L48.7375 274.54022L48.7375 267.32147L46.55 268.11835L46.55 267.13397L49.659374 265.9621L49.815624 265.9621L49.815624 274.54022ZM59.003124 274.66522Q57.70625 274.66522 56.89375 273.82147Q56.096874 272.9621 56.096874 271.54022L56.096874 271.35272Q56.096874 270.3996 56.45625 269.66522Q56.815624 268.91522 57.45625 268.50897Q58.1125 268.0871 58.8625 268.0871Q60.096874 268.0871 60.784374 268.8996Q61.471874 269.7121 61.471874 271.22772L61.471874 271.68085L57.175 271.68085Q57.20625 272.61835 57.721874 273.19647Q58.253124 273.7746 59.065624 273.7746Q59.628124 273.7746 60.01875 273.54022Q60.425 273.30585 60.7375 272.91522L61.39375 273.43085Q60.596874 274.66522 59.003124 274.66522ZM58.8625 268.97772Q58.20625 268.97772 57.753124 269.4621Q57.315624 269.93085 57.221874 270.79022L60.39375 270.79022L60.39375 270.7121Q60.346874 269.88397 59.940624 269.43085Q59.55 268.97772 58.8625 268.97772ZM64.50313 270.50897L65.90938 268.19647L67.175 268.19647L65.09688 271.3371L67.2375 274.54022L65.9875 274.54022L64.51875 272.16522L63.05 274.54022L61.784374 274.54022L63.925 271.3371L61.8625 268.19647L63.1125 268.19647L64.50313 270.50897ZM69.55 274.54022L68.47188 274.54022L68.47188 268.19647L69.55 268.19647L69.55 274.54022ZM68.37813 266.5246Q68.37813 266.25897 68.53438 266.07147Q68.70625 265.88397 69.01875 265.88397Q69.33125 265.88397 69.4875 266.07147Q69.65938 266.25897 69.65938 266.5246Q69.65938 266.7746 69.4875 266.9621Q69.33125 267.13397 69.01875 267.13397Q68.70625 267.13397 68.53438 266.9621Q68.37813 266.7746 68.37813 266.5246ZM75.06563 272.85272Q75.06563 272.41522 74.72188 272.18085Q74.39375 271.93085 73.56563 271.75897Q72.75313 271.5871 72.26875 271.3371Q71.78438 271.0871 71.55 270.75897Q71.33125 270.41522 71.33125 269.94647Q71.33125 269.16522 71.9875 268.63397Q72.64375 268.0871 73.675 268.0871Q74.75313 268.0871 75.40938 268.6496Q76.08125 269.19647 76.08125 270.05585L75.00313 270.05585Q75.00313 269.61835 74.6125 269.30585Q74.2375 268.97772 73.675 268.97772Q73.08125 268.97772 72.7375 269.24335Q72.40938 269.49335 72.40938 269.8996Q72.40938 270.29022 72.72188 270.49335Q73.03438 270.69647 73.84688 270.88397Q74.65938 271.05585 75.15938 271.30585Q75.65938 271.55585 75.89375 271.91522Q76.14375 272.2746 76.14375 272.7746Q76.14375 273.63397 75.45625 274.1496Q74.78438 274.66522 73.70625 274.66522Q72.94063 274.66522 72.34688 274.3996Q71.76875 274.11835 71.44063 273.63397Q71.1125 273.1496 71.1125 272.5871L72.19063 272.5871Q72.22188 273.13397 72.62813 273.4621Q73.03438 273.7746 73.70625 273.7746Q74.31563 273.7746 74.69063 273.5246Q75.06563 273.2746 75.06563 272.85272ZM78.84688 266.66522L78.84688 268.19647L80.01875 268.19647L80.01875 269.04022L78.84688 269.04022L78.84688 272.9621Q78.84688 273.35272 79.00313 273.54022Q79.15938 273.72772 79.53438 273.72772Q79.72188 273.72772 80.05 273.66522L80.05 274.54022Q79.62813 274.66522 79.22188 274.66522Q78.50313 274.66522 78.12813 274.22772Q77.75313 273.7746 77.75313 272.9621L77.75313 269.04022L76.59688 269.04022L76.59688 268.19647L77.75313 268.19647L77.75313 266.66522L78.84688 266.66522ZM82.55 274.54022L81.47188 274.54022L81.47188 268.19647L82.55 268.19647L82.55 274.54022ZM81.37813 266.5246Q81.37813 266.25897 81.53438 266.07147Q81.70625 265.88397 82.01875 265.88397Q82.33125 265.88397 82.4875 266.07147Q82.65938 266.25897 82.65938 266.5246Q82.65938 266.7746 82.4875 266.9621Q82.33125 267.13397 82.01875 267.13397Q81.70625 267.13397 81.53438 266.9621Q81.37813 266.7746 81.37813 266.5246ZM85.39375 268.19647L85.425 268.99335Q86.15938 268.0871 87.33125 268.0871Q89.34688 268.0871 89.3625 270.35272L89.3625 274.54022L88.26875 274.54022L88.26875 270.3371Q88.26875 269.66522 87.95625 269.3371Q87.65938 269.00897 87.00313 269.00897Q86.47188 269.00897 86.06563 269.29022Q85.675 269.57147 85.45625 270.0246L85.45625 274.54022L84.37813 274.54022L84.37813 268.19647L85.39375 268.19647ZM91.1125 271.32147Q91.1125 269.8371 91.8 268.9621Q92.4875 268.0871 93.6125 268.0871Q94.76875 268.0871 95.425 268.8996L95.47188 268.19647L96.47188 268.19647L96.47188 274.38397Q96.47188 275.61835 95.7375 276.32147Q95.00313 277.04022 93.78438 277.04022Q93.09688 277.04022 92.44063 276.74335Q91.78438 276.44647 91.44063 275.94647L92.00313 275.29022Q92.69063 276.1496 93.70625 276.1496Q94.4875 276.1496 94.925 275.69647Q95.37813 275.25897 95.37813 274.44647L95.37813 273.8996Q94.72188 274.66522 93.59688 274.66522Q92.4875 274.66522 91.8 273.7746Q91.1125 272.86835 91.1125 271.32147ZM92.20625 271.44647Q92.20625 272.50897 92.64375 273.13397Q93.08125 273.74335 93.87813 273.74335Q94.89375 273.74335 95.37813 272.80585L95.37813 269.91522Q94.87813 269.00897 93.87813 269.00897Q93.09688 269.00897 92.64375 269.61835Q92.20625 270.22772 92.20625 271.44647Z" fill-rule="nonzero"/><path fill="#9e9e9e" d="M24.846874 292.54022L19.253124 292.54022L19.253124 291.75897L22.20625 288.47772Q22.8625 287.72772 23.1125 287.2746Q23.3625 286.80585 23.3625 286.30585Q23.3625 285.63397 22.95625 285.2121Q22.565624 284.7746 21.878124 284.7746Q21.08125 284.7746 20.628124 285.24335Q20.175 285.69647 20.175 286.5246L19.096874 286.5246Q19.096874 285.3371 19.846874 284.61835Q20.6125 283.88397 21.878124 283.88397Q23.08125 283.88397 23.76875 284.50897Q24.45625 285.13397 24.45625 286.18085Q24.45625 287.43085 22.846874 289.18085L20.565624 291.6496L24.846874 291.6496L24.846874 292.54022ZM31.440624 286.22772Q31.440624 286.86835 31.096874 287.36835Q30.753124 287.86835 30.190624 288.1496Q30.846874 288.43085 31.2375 288.99335Q31.628124 289.54022 31.628124 290.24335Q31.628124 291.3371 30.878124 292.00897Q30.14375 292.66522 28.925 292.66522Q27.690624 292.66522 26.940624 292.00897Q26.20625 291.3371 26.20625 290.24335Q26.20625 289.54022 26.58125 288.99335Q26.95625 288.43085 27.628124 288.1496Q27.065624 287.86835 26.7375 287.36835Q26.409374 286.86835 26.409374 286.22772Q26.409374 285.1496 27.096874 284.5246Q27.784374 283.88397 28.925 283.88397Q30.05 283.88397 30.7375 284.5246Q31.440624 285.1496 31.440624 286.22772ZM30.55 290.2121Q30.55 289.49335 30.096874 289.05585Q29.64375 288.60272 28.909374 288.60272Q28.175 288.60272 27.721874 289.05585Q27.284374 289.49335 27.284374 290.22772Q27.284374 290.94647 27.721874 291.36835Q28.159374 291.7746 28.925 291.7746Q29.675 291.7746 30.1125 291.35272Q30.55 290.93085 30.55 290.2121ZM28.925 284.7746Q28.284374 284.7746 27.878124 285.18085Q27.4875 285.57147 27.4875 286.25897Q27.4875 286.8996 27.878124 287.30585Q28.26875 287.7121 28.909374 287.7121Q29.565624 287.7121 29.95625 287.30585Q30.346874 286.8996 30.346874 286.25897Q30.346874 285.60272 29.940624 285.19647Q29.534374 284.7746 28.925 284.7746ZM33.39375 291.97772Q33.39375 291.69647 33.55 291.50897Q33.721874 291.32147 34.05 291.32147Q34.39375 291.32147 34.565624 291.50897Q34.7375 291.69647 34.7375 291.97772Q34.7375 292.24335 34.565624 292.43085Q34.39375 292.60272 34.05 292.60272Q33.721874 292.60272 33.55 292.43085Q33.39375 292.24335 33.39375 291.97772ZM40.83125 289.68085L42.01875 289.68085L42.01875 290.55585L40.83125 290.55585L40.83125 292.54022L39.753124 292.54022L39.753124 290.55585L35.8625 290.55585L35.8625 289.91522L39.675 284.00897L40.83125 284.00897L40.83125 289.68085ZM37.096874 289.68085L39.753124 289.68085L39.753124 285.49335L39.6125 285.72772L37.096874 289.68085ZM43.159374 285.6496Q43.159374 284.88397 43.64375 284.38397Q44.14375 283.88397 44.909374 283.88397Q45.690624 283.88397 46.175 284.38397Q46.659374 284.88397 46.659374 285.68085L46.659374 286.10272Q46.659374 286.86835 46.159374 287.36835Q45.675 287.85272 44.925 287.85272Q44.159374 287.85272 43.659374 287.36835Q43.159374 286.86835 43.159374 286.05585L43.159374 285.6496ZM43.971874 286.10272Q43.971874 286.55585 44.221874 286.85272Q44.4875 287.1496 44.925 287.1496Q45.346874 287.1496 45.596874 286.86835Q45.846874 286.57147 45.846874 286.07147L45.846874 285.6496Q45.846874 285.19647 45.596874 284.8996Q45.346874 284.5871 44.909374 284.5871Q44.471874 284.5871 44.221874 284.8996Q43.971874 285.19647 43.971874 285.66522L43.971874 286.10272ZM47.315624 290.44647Q47.315624 289.68085 47.8 289.19647Q48.3 288.69647 49.065624 288.69647Q49.83125 288.69647 50.315624 289.19647Q50.815624 289.68085 50.815624 290.49335L50.815624 290.8996Q50.815624 291.66522 50.33125 292.16522Q49.846874 292.66522 49.08125 292.66522Q48.315624 292.66522 47.815624 292.18085Q47.315624 291.68085 47.315624 290.86835L47.315624 290.44647ZM48.128124 290.8996Q48.128124 291.36835 48.378124 291.66522Q48.64375 291.9621 49.08125 291.9621Q49.503124 291.9621 49.753124 291.68085Q50.003124 291.38397 50.003124 290.88397L50.003124 290.44647Q50.003124 289.97772 49.7375 289.69647Q49.4875 289.3996 49.065624 289.3996Q48.64375 289.3996 48.378124 289.69647Q48.128124 289.97772 48.128124 290.47772L48.128124 290.8996ZM45.175 291.8996L44.55 291.50897L48.721874 284.8371L49.33125 285.22772L45.175 291.8996Z" fill-rule="nonzero"/><path stroke="#757575" stroke-width="1.0" stroke-linecap="butt" d="M18.55 279.04022L145.23334 279.04022L180.43814 279.04022" fill-rule="nonzero"/><path fill="#9e9e9e" d="M182.43814 279.04022C182.43814 277.93567 181.54272 277.04022 180.43814 277.04022C179.33357 277.04022 178.43814 277.93567 178.43814 279.04022C178.43814 280.1448 179.33357 281.04022 180.43814 281.04022C181.54272 281.04022 182.43814 280.1448 182.43814 279.04022" fill-rule="nonzero"/><path fill="#757575" d="M490.7469 207.40085L485.15314 207.40085L485.15314 206.6196L488.10626 203.33835Q488.7625 202.58835 489.0125 202.13522Q489.2625 201.66647 489.2625 201.16647Q489.2625 200.4946 488.85626 200.07272Q488.46564 199.63522 487.77814 199.63522Q486.98126 199.63522 486.52814 200.10397Q486.075 200.5571 486.075 201.38522L484.9969 201.38522Q484.9969 200.19772 485.7469 199.47897Q486.5125 198.7446 487.77814 198.7446Q488.98126 198.7446 489.66876 199.3696Q490.35626 199.9946 490.35626 201.04147Q490.35626 202.29147 488.7469 204.04147L486.46564 206.51022L490.7469 206.51022L490.7469 207.40085ZM494.98126 204.16647Q494.98126 203.2446 495.34064 202.4946Q495.71564 201.7446 496.3719 201.35397Q497.02814 200.94772 497.85626 200.94772Q499.15314 200.94772 499.95 201.83835Q500.7625 202.72897 500.7625 204.22897L500.7625 204.3071Q500.7625 205.22897 500.40314 205.96335Q500.04376 206.69772 499.3875 207.1196Q498.73126 207.52585 497.8719 207.52585Q496.59064 207.52585 495.77814 206.63522Q494.98126 205.72897 494.98126 204.2446L494.98126 204.16647ZM496.075 204.3071Q496.075 205.35397 496.5594 205.9946Q497.0594 206.63522 497.8719 206.63522Q498.7 206.63522 499.1844 205.9946Q499.66876 205.33835 499.66876 204.16647Q499.66876 203.13522 499.16876 202.4946Q498.6844 201.83835 497.85626 201.83835Q497.0594 201.83835 496.5594 202.47897Q496.075 203.10397 496.075 204.3071ZM505.34064 202.02585Q505.09064 201.9946 504.8094 201.9946Q503.73126 201.9946 503.35626 202.90085L503.35626 207.40085L502.27814 207.40085L502.27814 201.0571L503.325 201.0571L503.34064 201.79147Q503.8719 200.94772 504.85626 200.94772Q505.16876 200.94772 505.34064 201.02585L505.34064 202.02585ZM510.29376 201.0571L510.325 201.76022Q511.0125 200.94772 512.2 200.94772Q513.52814 200.94772 514.0125 201.96335Q514.325 201.51022 514.825 201.22897Q515.34064 200.94772 516.02814 200.94772Q518.1219 200.94772 518.15314 203.15085L518.15314 207.40085L517.075 207.40085L517.075 203.21335Q517.075 202.54147 516.7625 202.21335Q516.45 201.8696 515.71564 201.8696Q515.10626 201.8696 514.7 202.22897Q514.3094 202.58835 514.2469 203.19772L514.2469 207.40085L513.16876 207.40085L513.16876 203.2446Q513.16876 201.8696 511.8094 201.8696Q510.7469 201.8696 510.35626 202.77585L510.35626 207.40085L509.2625 207.40085L509.2625 201.0571L510.29376 201.0571ZM519.98126 204.16647Q519.98126 203.2446 520.34064 202.4946Q520.71564 201.7446 521.3719 201.35397Q522.02814 200.94772 522.85626 200.94772Q524.15314 200.94772 524.95 201.83835Q525.7625 202.72897 525.7625 204.22897L525.7625 204.3071Q525.7625 205.22897 525.40314 205.96335Q525.04376 206.69772 524.3875 207.1196Q523.73126 207.52585 522.8719 207.52585Q521.59064 207.52585 520.77814 206.63522Q519.98126 205.72897 519.98126 204.2446L519.98126 204.16647ZM521.075 204.3071Q521.075 205.35397 521.5594 205.9946Q522.0594 206.63522 522.8719 206.63522Q523.7 206.63522 524.1844 205.9946Q524.66876 205.33835 524.66876 204.16647Q524.66876 203.13522 524.16876 202.4946Q523.6844 201.83835 522.85626 201.83835Q522.0594 201.83835 521.5594 202.47897Q521.075 203.10397 521.075 204.3071ZM530.34064 202.02585Q530.09064 201.9946 529.8094 201.9946Q528.73126 201.9946 528.35626 202.90085L528.35626 207.40085L527.27814 207.40085L527.27814 201.0571L528.325 201.0571L528.34064 201.79147Q528.8719 200.94772 529.85626 200.94772Q530.16876 200.94772 530.34064 201.02585L530.34064 202.02585ZM533.90314 207.52585Q532.60626 207.52585 531.79376 206.6821Q530.9969 205.82272 530.9969 204.40085L530.9969 204.21335Q530.9969 203.26022 531.35626 202.52585Q531.71564 201.77585 532.35626 201.3696Q533.0125 200.94772 533.7625 200.94772Q534.9969 200.94772 535.6844 201.76022Q536.3719 202.57272 536.3719 204.08835L536.3719 204.54147L532.075 204.54147Q532.10626 205.47897 532.6219 206.0571Q533.15314 206.63522 533.96564 206.63522Q534.52814 206.63522 534.91876 206.40085Q535.325 206.16647 535.6375 205.77585L536.29376 206.29147Q535.4969 207.52585 533.90314 207.52585ZM533.7625 201.83835Q533.10626 201.83835 532.65314 202.32272Q532.21564 202.79147 532.1219 203.65085L535.29376 203.65085L535.29376 203.57272Q535.2469 202.7446 534.84064 202.29147Q534.45 201.83835 533.7625 201.83835ZM542.90314 207.52585Q541.60626 207.52585 540.79376 206.6821Q539.9969 205.82272 539.9969 204.40085L539.9969 204.21335Q539.9969 203.26022 540.35626 202.52585Q540.71564 201.77585 541.35626 201.3696Q542.0125 200.94772 542.7625 200.94772Q543.9969 200.94772 544.6844 201.76022Q545.3719 202.57272 545.3719 204.08835L545.3719 204.54147L541.075 204.54147Q541.10626 205.47897 541.6219 206.0571Q542.15314 206.63522 542.96564 206.63522Q543.52814 206.63522 543.91876 206.40085Q544.325 206.16647 544.6375 205.77585L545.29376 206.29147Q544.4969 207.52585 542.90314 207.52585ZM542.7625 201.83835Q542.10626 201.83835 541.65314 202.32272Q541.21564 202.79147 541.1219 203.65085L544.29376 203.65085L544.29376 203.57272Q544.2469 202.7446 543.84064 202.29147Q543.45 201.83835 542.7625 201.83835ZM548.40314 203.3696L549.8094 201.0571L551.075 201.0571L548.9969 204.19772L551.1375 207.40085L549.8875 207.40085L548.41876 205.02585L546.95 207.40085L545.6844 207.40085L547.825 204.19772L545.7625 201.0571L547.0125 201.0571L548.40314 203.3696ZM553.45 207.40085L552.3719 207.40085L552.3719 201.0571L553.45 201.0571L553.45 207.40085ZM552.27814 199.38522Q552.27814 199.1196 552.4344 198.9321Q552.60626 198.7446 552.91876 198.7446Q553.23126 198.7446 553.3875 198.9321Q553.5594 199.1196 553.5594 199.38522Q553.5594 199.63522 553.3875 199.82272Q553.23126 199.9946 552.91876 199.9946Q552.60626 199.9946 552.4344 199.82272Q552.27814 199.63522 552.27814 199.38522ZM558.96564 205.71335Q558.96564 205.27585 558.6219 205.04147Q558.29376 204.79147 557.46564 204.6196Q556.65314 204.44772 556.16876 204.19772Q555.6844 203.94772 555.45 203.6196Q555.23126 203.27585 555.23126 202.8071Q555.23126 202.02585 555.8875 201.4946Q556.54376 200.94772 557.575 200.94772Q558.65314 200.94772 559.3094 201.51022Q559.98126 202.0571 559.98126 202.91647L558.90314 202.91647Q558.90314 202.47897 558.5125 202.16647Q558.1375 201.83835 557.575 201.83835Q556.98126 201.83835 556.6375 202.10397Q556.3094 202.35397 556.3094 202.76022Q556.3094 203.15085 556.6219 203.35397Q556.9344 203.5571 557.7469 203.7446Q558.5594 203.91647 559.0594 204.16647Q559.5594 204.41647 559.79376 204.77585Q560.04376 205.13522 560.04376 205.63522Q560.04376 206.4946 559.35626 207.01022Q558.6844 207.52585 557.60626 207.52585Q556.84064 207.52585 556.2469 207.26022Q555.66876 206.97897 555.34064 206.4946Q555.0125 206.01022 555.0125 205.44772L556.09064 205.44772Q556.1219 205.9946 556.52814 206.32272Q556.9344 206.63522 557.60626 206.63522Q558.21564 206.63522 558.59064 206.38522Q558.96564 206.13522 558.96564 205.71335ZM562.7469 199.52585L562.7469 201.0571L563.91876 201.0571L563.91876 201.90085L562.7469 201.90085L562.7469 205.82272Q562.7469 206.21335 562.90314 206.40085Q563.0594 206.58835 563.4344 206.58835Q563.6219 206.58835 563.95 206.52585L563.95 207.40085Q563.52814 207.52585 563.1219 207.52585Q562.40314 207.52585 562.02814 207.08835Q561.65314 206.63522 561.65314 205.82272L561.65314 201.90085L560.4969 201.90085L560.4969 201.0571L561.65314 201.0571L561.65314 199.52585L562.7469 199.52585ZM566.45 207.40085L565.3719 207.40085L565.3719 201.0571L566.45 201.0571L566.45 207.40085ZM565.27814 199.38522Q565.27814 199.1196 565.4344 198.9321Q565.60626 198.7446 565.91876 198.7446Q566.23126 198.7446 566.3875 198.9321Q566.5594 199.1196 566.5594 199.38522Q566.5594 199.63522 566.3875 199.82272Q566.23126 199.9946 565.91876 199.9946Q565.60626 199.9946 565.4344 199.82272Q565.27814 199.63522 565.27814 199.38522ZM569.29376 201.0571L569.325 201.85397Q570.0594 200.94772 571.23126 200.94772Q573.2469 200.94772 573.2625 203.21335L573.2625 207.40085L572.16876 207.40085L572.16876 203.19772Q572.16876 202.52585 571.85626 202.19772Q571.5594 201.8696 570.90314 201.8696Q570.3719 201.8696 569.96564 202.15085Q569.575 202.4321 569.35626 202.88522L569.35626 207.40085L568.27814 207.40085L568.27814 201.0571L569.29376 201.0571ZM575.0125 204.1821Q575.0125 202.69772 575.7 201.82272Q576.3875 200.94772 577.5125 200.94772Q578.66876 200.94772 579.325 201.76022L579.3719 201.0571L580.3719 201.0571L580.3719 207.2446Q580.3719 208.47897 579.6375 209.1821Q578.90314 209.90085 577.6844 209.90085Q576.9969 209.90085 576.34064 209.60397Q575.6844 209.3071 575.34064 208.8071L575.90314 208.15085Q576.59064 209.01022 577.60626 209.01022Q578.3875 209.01022 578.825 208.5571Q579.27814 208.1196 579.27814 207.3071L579.27814 206.76022Q578.6219 207.52585 577.4969 207.52585Q576.3875 207.52585 575.7 206.63522Q575.0125 205.72897 575.0125 204.1821ZM576.10626 204.3071Q576.10626 205.3696 576.54376 205.9946Q576.98126 206.60397 577.77814 206.60397Q578.79376 206.60397 579.27814 205.66647L579.27814 202.77585Q578.77814 201.8696 577.77814 201.8696Q576.9969 201.8696 576.54376 202.47897Q576.10626 203.08835 576.10626 204.3071Z" fill-rule="nonzero"/><path fill="#9e9e9e" d="M549.65314 221.1196L550.09064 216.8696L554.46564 216.8696L554.46564 217.8696L551.0125 217.8696L550.7469 220.19772Q551.3875 219.82272 552.1844 219.82272Q553.34064 219.82272 554.02814 220.60397Q554.71564 221.3696 554.71564 222.6821Q554.71564 223.9946 553.9969 224.76022Q553.29376 225.52585 552.0125 225.52585Q550.8875 225.52585 550.16876 224.90085Q549.45 224.26022 549.35626 223.15085L550.3719 223.15085Q550.48126 223.88522 550.90314 224.26022Q551.325 224.63522 552.0125 224.63522Q552.7625 224.63522 553.2 224.1196Q553.6375 223.60397 553.6375 222.69772Q553.6375 221.83835 553.16876 221.32272Q552.7 220.8071 551.91876 220.8071Q551.21564 220.8071 550.8094 221.10397L550.52814 221.33835L549.65314 221.1196ZM559.71564 225.40085L558.6375 225.40085L558.6375 218.1821L556.45 218.97897L556.45 217.9946L559.5594 216.82272L559.71564 216.82272L559.71564 225.40085ZM563.29376 224.83835Q563.29376 224.5571 563.45 224.3696Q563.6219 224.1821 563.95 224.1821Q564.29376 224.1821 564.46564 224.3696Q564.6375 224.5571 564.6375 224.83835Q564.6375 225.10397 564.46564 225.29147Q564.29376 225.46335 563.95 225.46335Q563.6219 225.46335 563.45 225.29147Q563.29376 225.10397 563.29376 224.83835ZM570.3094 221.65085Q569.98126 222.0571 569.4969 222.3071Q569.02814 222.54147 568.46564 222.54147Q567.73126 222.54147 567.1844 222.1821Q566.6375 221.82272 566.34064 221.16647Q566.04376 220.4946 566.04376 219.69772Q566.04376 218.85397 566.35626 218.16647Q566.6844 217.47897 567.27814 217.1196Q567.8875 216.7446 568.6844 216.7446Q569.95 216.7446 570.66876 217.69772Q571.40314 218.65085 571.40314 220.27585L571.40314 220.58835Q571.40314 223.08835 570.41876 224.22897Q569.4344 225.3696 567.45 225.40085L567.23126 225.40085L567.23126 224.4946L567.46564 224.4946Q568.8094 224.46335 569.52814 223.79147Q570.2469 223.1196 570.3094 221.65085ZM568.6375 221.65085Q569.1844 221.65085 569.6375 221.32272Q570.10626 220.97897 570.325 220.4946L570.325 220.0571Q570.325 218.9946 569.85626 218.32272Q569.3875 217.65085 568.6844 217.65085Q567.96564 217.65085 567.52814 218.19772Q567.10626 218.7446 567.10626 219.65085Q567.10626 220.52585 567.5125 221.08835Q567.9344 221.65085 568.6375 221.65085ZM573.0594 218.51022Q573.0594 217.7446 573.54376 217.2446Q574.04376 216.7446 574.8094 216.7446Q575.59064 216.7446 576.075 217.2446Q576.5594 217.7446 576.5594 218.54147L576.5594 218.96335Q576.5594 219.72897 576.0594 220.22897Q575.575 220.71335 574.825 220.71335Q574.0594 220.71335 573.5594 220.22897Q573.0594 219.72897 573.0594 218.91647L573.0594 218.51022ZM573.8719 218.96335Q573.8719 219.41647 574.1219 219.71335Q574.3875 220.01022 574.825 220.01022Q575.2469 220.01022 575.4969 219.72897Q575.7469 219.4321 575.7469 218.9321L575.7469 218.51022Q575.7469 218.0571 575.4969 217.76022Q575.2469 217.44772 574.8094 217.44772Q574.3719 217.44772 574.1219 217.76022Q573.8719 218.0571 573.8719 218.52585L573.8719 218.96335ZM577.21564 223.3071Q577.21564 222.54147 577.7 222.0571Q578.2 221.5571 578.96564 221.5571Q579.73126 221.5571 580.21564 222.0571Q580.71564 222.54147 580.71564 223.35397L580.71564 223.76022Q580.71564 224.52585 580.23126 225.02585Q579.7469 225.52585 578.98126 225.52585Q578.21564 225.52585 577.71564 225.04147Q577.21564 224.54147 577.21564 223.72897L577.21564 223.3071ZM578.02814 223.76022Q578.02814 224.22897 578.27814 224.52585Q578.54376 224.82272 578.98126 224.82272Q579.40314 224.82272 579.65314 224.54147Q579.90314 224.2446 579.90314 223.7446L579.90314 223.3071Q579.90314 222.83835 579.6375 222.5571Q579.3875 222.26022 578.96564 222.26022Q578.54376 222.26022 578.27814 222.5571Q578.02814 222.83835 578.02814 223.33835L578.02814 223.76022ZM575.075 224.76022L574.45 224.3696L578.6219 217.69772L579.23126 218.08835L575.075 224.76022Z" fill-rule="nonzero"/><path stroke="#757575" stroke-width="1.0" stroke-linecap="butt" d="M581.45 211.90085L454.76666 211.90085L441.08923 211.90085" fill-rule="nonzero"/><path fill="#9e9e9e" d="M443.08923 211.90085C443.08923 210.79628 442.1938 209.90085 441.08923 209.90085C439.98465 209.90085 439.08923 210.79628 439.08923 211.90085C439.08923 213.00542 439.98465 213.90085 441.08923 213.90085C442.1938 213.90085 443.08923 213.00542 443.08923 211.90085" fill-rule="nonzero"/><path fill="#757575" d="M22.20625 37.55L20.33125 37.55L20.33125 23.33125L22.20625 23.33125L22.20625 37.55ZM26.6125 26.9875L26.659374 28.159374Q27.83125 26.784374 29.8 26.784374Q32.01875 26.784374 32.815624 28.4875Q33.346874 27.721874 34.190624 27.253124Q35.034374 26.784374 36.190624 26.784374Q39.659374 26.784374 39.721874 30.471874L39.721874 37.55L37.909374 37.55L37.909374 30.58125Q37.909374 29.440624 37.39375 28.878124Q36.878124 28.315624 35.659374 28.315624Q34.659374 28.315624 33.9875 28.925Q33.33125 29.51875 33.221874 30.534374L33.221874 37.55L31.409374 37.55L31.409374 30.628124Q31.409374 28.315624 29.14375 28.315624Q27.3625 28.315624 26.721874 29.83125L26.721874 37.55L24.909374 37.55L24.909374 26.9875L26.6125 26.9875ZM51.846874 32.378124Q51.846874 34.8 50.7375 36.284374Q49.64375 37.753124 47.753124 37.753124Q45.83125 37.753124 44.721874 36.51875L44.721874 41.6125L42.925 41.6125L42.925 26.9875L44.565624 26.9875L44.659374 28.159374Q45.753124 26.784374 47.721874 26.784374Q49.628124 26.784374 50.7375 28.221874Q51.846874 29.659374 51.846874 32.221874L51.846874 32.378124ZM50.034374 32.175Q50.034374 30.39375 49.26875 29.3625Q48.51875 28.315624 47.190624 28.315624Q45.55 28.315624 44.721874 29.76875L44.721874 34.83125Q45.534374 36.26875 47.20625 36.26875Q48.503124 36.26875 49.26875 35.2375Q50.034374 34.20625 50.034374 32.175ZM55.878124 37.55L54.08125 37.55L54.08125 22.55L55.878124 22.55L55.878124 37.55ZM63.3 37.753124Q61.159374 37.753124 59.8 36.346874Q58.45625 34.925 58.45625 32.565624L58.45625 32.221874Q58.45625 30.659374 59.05 29.425Q59.659374 28.190624 60.7375 27.4875Q61.815624 26.784374 63.08125 26.784374Q65.14375 26.784374 66.28438 28.14375Q67.425 29.503124 67.425 32.034374L67.425 32.784374L60.26875 32.784374Q60.3 34.346874 61.175 35.315624Q62.05 36.26875 63.39375 36.26875Q64.3625 36.26875 65.01875 35.878124Q65.69063 35.4875 66.19063 34.846874L67.28438 35.70625Q65.95625 37.753124 63.3 37.753124ZM63.08125 28.26875Q61.9875 28.26875 61.2375 29.065624Q60.503124 29.8625 60.33125 31.3L65.6125 31.3L65.6125 31.159374Q65.53438 29.784374 64.8625 29.034374Q64.20625 28.26875 63.08125 28.26875ZM71.6125 26.9875L71.65938 28.159374Q72.83125 26.784374 74.8 26.784374Q77.01875 26.784374 77.81563 28.4875Q78.34688 27.721874 79.19063 27.253124Q80.03438 26.784374 81.19063 26.784374Q84.65938 26.784374 84.72188 30.471874L84.72188 37.55L82.90938 37.55L82.90938 30.58125Q82.90938 29.440624 82.39375 28.878124Q81.87813 28.315624 80.65938 28.315624Q79.65938 28.315624 78.9875 28.925Q78.33125 29.51875 78.22188 30.534374L78.22188 37.55L76.40938 37.55L76.40938 30.628124Q76.40938 28.315624 74.14375 28.315624Q72.3625 28.315624 71.72188 29.83125L71.72188 37.55L69.90938 37.55L69.90938 26.9875L71.6125 26.9875ZM92.3 37.753124Q90.15938 37.753124 88.8 36.346874Q87.45625 34.925 87.45625 32.565624L87.45625 32.221874Q87.45625 30.659374 88.05 29.425Q88.65938 28.190624 89.7375 27.4875Q90.81563 26.784374 92.08125 26.784374Q94.14375 26.784374 95.28438 28.14375Q96.425 29.503124 96.425 32.034374L96.425 32.784374L89.26875 32.784374Q89.3 34.346874 90.175 35.315624Q91.05 36.26875 92.39375 36.26875Q93.3625 36.26875 94.01875 35.878124Q94.69063 35.4875 95.19063 34.846874L96.28438 35.70625Q94.95625 37.753124 92.3 37.753124ZM92.08125 28.26875Q90.9875 28.26875 90.2375 29.065624Q89.50313 29.8625 89.33125 31.3L94.6125 31.3L94.6125 31.159374Q94.53438 29.784374 93.8625 29.034374Q93.20625 28.26875 92.08125 28.26875ZM100.62813 26.9875L100.69063 28.315624Q101.89375 26.784374 103.84688 26.784374Q107.20625 26.784374 107.22188 30.565624L107.22188 37.55L105.425 37.55L105.425 30.55Q105.40938 29.409374 104.89375 28.8625Q104.39375 28.315624 103.3 28.315624Q102.425 28.315624 101.75313 28.784374Q101.09688 29.253124 100.72188 30.01875L100.72188 37.55L98.925 37.55L98.925 26.9875L100.62813 26.9875ZM112.3625 24.425L112.3625 26.9875L114.34688 26.9875L114.34688 28.378124L112.3625 28.378124L112.3625 34.925Q112.3625 35.565624 112.62813 35.89375Q112.89375 36.20625 113.53438 36.20625Q113.84688 36.20625 114.39375 36.08125L114.39375 37.55Q113.675 37.753124 113.00313 37.753124Q111.8 37.753124 111.175 37.01875Q110.56563 36.284374 110.56563 34.925L110.56563 28.378124L108.64375 28.378124L108.64375 26.9875L110.56563 26.9875L110.56563 24.425L112.3625 24.425ZM123.44063 37.55Q123.28438 37.2375 123.19063 36.440624Q121.925 37.753124 120.175 37.753124Q118.6125 37.753124 117.6125 36.8625Q116.6125 35.971874 116.6125 34.6125Q116.6125 32.971874 117.8625 32.065624Q119.12813 31.14375 121.39375 31.14375L123.15938 31.14375L123.15938 30.315624Q123.15938 29.3625 122.58125 28.8Q122.01875 28.2375 120.925 28.2375Q119.95625 28.2375 119.3 28.7375Q118.64375 29.221874 118.64375 29.909374L116.83125 29.909374Q116.83125 29.128124 117.39375 28.39375Q117.95625 27.64375 118.90938 27.221874Q119.87813 26.784374 121.03438 26.784374Q122.8625 26.784374 123.89375 27.70625Q124.925 28.6125 124.97188 30.221874L124.97188 35.08125Q124.97188 36.534374 125.33125 37.39375L125.33125 37.55L123.44063 37.55ZM120.44063 36.175Q121.3 36.175 122.05 35.7375Q122.81563 35.3 123.15938 34.596874L123.15938 32.425L121.7375 32.425Q118.425 32.425 118.425 34.3625Q118.425 35.221874 118.9875 35.70625Q119.55 36.175 120.44063 36.175ZM130.3625 24.425L130.3625 26.9875L132.34688 26.9875L132.34688 28.378124L130.3625 28.378124L130.3625 34.925Q130.3625 35.565624 130.62813 35.89375Q130.89375 36.20625 131.53438 36.20625Q131.84688 36.20625 132.39375 36.08125L132.39375 37.55Q131.675 37.753124 131.00313 37.753124Q129.8 37.753124 129.175 37.01875Q128.56563 36.284374 128.56563 34.925L128.56563 28.378124L126.64375 28.378124L126.64375 26.9875L128.56563 26.9875L128.56563 24.425L130.3625 24.425ZM136.87813 37.55L135.08125 37.55L135.08125 26.9875L136.87813 26.9875L136.87813 37.55ZM134.925 24.175Q134.925 23.7375 135.19063 23.440624Q135.47188 23.128124 135.9875 23.128124Q136.51875 23.128124 136.78438 23.440624Q137.06563 23.7375 137.06563 24.175Q137.06563 24.6125 136.78438 24.909374Q136.51875 25.20625 135.9875 25.20625Q135.47188 25.20625 135.19063 24.909374Q134.925 24.6125 134.925 24.175ZM139.44063 32.175Q139.44063 30.6125 140.05 29.378124Q140.65938 28.128124 141.7375 27.45625Q142.83125 26.784374 144.2375 26.784374Q146.39375 26.784374 147.72188 28.284374Q149.06563 29.76875 149.06563 32.253124L149.06563 32.378124Q149.06563 33.925 148.47188 35.159374Q147.87813 36.378124 146.76875 37.065624Q145.675 37.753124 144.25313 37.753124Q142.1125 37.753124 140.76875 36.253124Q139.44063 34.753124 139.44063 32.3L139.44063 32.175ZM141.25313 32.378124Q141.25313 34.14375 142.06563 35.20625Q142.89375 36.26875 144.25313 36.26875Q145.62813 36.26875 146.44063 35.190624Q147.25313 34.1125 147.25313 32.175Q147.25313 30.425 146.425 29.346874Q145.59688 28.26875 144.2375 28.26875Q142.89375 28.26875 142.06563 29.33125Q141.25313 30.39375 141.25313 32.378124ZM152.62813 26.9875L152.69063 28.315624Q153.89375 26.784374 155.84688 26.784374Q159.20625 26.784374 159.22188 30.565624L159.22188 37.55L157.425 37.55L157.425 30.55Q157.40938 29.409374 156.89375 28.8625Q156.39375 28.315624 155.3 28.315624Q154.425 28.315624 153.75313 28.784374Q153.09688 29.253124 152.72188 30.01875L152.72188 37.55L150.925 37.55L150.925 26.9875L152.62813 26.9875ZM168.06563 34.753124Q168.06563 34.01875 167.51875 33.6125Q166.97188 33.20625 165.59688 32.909374Q164.22188 32.6125 163.40938 32.20625Q162.6125 31.8 162.22188 31.2375Q161.84688 30.659374 161.84688 29.878124Q161.84688 28.58125 162.94063 27.690624Q164.03438 26.784374 165.75313 26.784374Q167.55 26.784374 168.65938 27.721874Q169.78438 28.64375 169.78438 30.08125L167.95625 30.08125Q167.95625 29.346874 167.33125 28.815624Q166.70625 28.26875 165.75313 28.26875Q164.75313 28.26875 164.19063 28.70625Q163.64375 29.128124 163.64375 29.83125Q163.64375 30.471874 164.15938 30.815624Q164.675 31.14375 166.03438 31.45625Q167.39375 31.753124 168.22188 32.175Q169.06563 32.58125 169.47188 33.175Q169.87813 33.76875 169.87813 34.6125Q169.87813 36.034374 168.7375 36.89375Q167.6125 37.753124 165.8 37.753124Q164.53438 37.753124 163.55 37.3Q162.58125 36.846874 162.01875 36.05Q161.47188 35.2375 161.47188 34.3L163.28438 34.3Q163.33125 35.20625 164.00313 35.7375Q164.69063 36.26875 165.8 36.26875Q166.83125 36.26875 167.44063 35.8625Q168.06563 35.440624 168.06563 34.753124Z" fill-rule="nonzero"/></svg>