<svg version="1.1" viewBox="0.0 0.0 600.0 425.0" fill="none" stroke="none" stroke-linecap="square" stroke-miterlimit="10" width="600" height="425" xmlns:xlink="http://www.w3.org/1999/xlink" xmlns="http://www.w3.org/2000/svg"><path fill="#ffffff" d="M0 0L600.0 0L600.0 425.0L0 425.0L0 0Z" fill-rule="nonzero"/><path stroke="#333333" stroke-width="1.0" stroke-linecap="butt" d="M81.5 349.5L578.5 349.5" fill-rule="nonzero"/><path stroke="#cccccc" stroke-width="1.0" stroke-linecap="butt" d="M81.5 285.5L578.5 285.5" fill-rule="nonzero"/><path stroke="#cccccc" stroke-width="1.0" stroke-linecap="butt" d="M81.5 221.5L578.5 221.5" fill-rule="nonzero"/><path stroke="#cccccc" stroke-width="1.0" stroke-linecap="butt" d="M81.5 157.5L578.5 157.5" fill-rule="nonzero"/><path stroke="#cccccc" stroke-width="1.0" stroke-linecap="butt" d="M81.5 92.5L578.5 92.5" fill-rule="nonzero"/><path stroke="#cccccc" stroke-width="1.0" stroke-linecap="butt" d="M81.5 28.5L578.5 28.5" fill-rule="nonzero"/><clipPath id="id_0"><path d="M81.25 28.75L578.75 28.75L578.75 349.75L81.25 349.75L81.25 28.75Z" clip-rule="nonzero"/></clipPath><path stroke="#000000" stroke-width="0.0" stroke-linecap="butt" stroke-opacity="0.0" clip-path="url(#id_0)" d="M130.0 350.0L99.0 350.0L99.0 69.0C99.0 67.89543 99.89543 67.0 101.0 67.0L128.0 67.0C129.10457 67.0 130.0 67.89543 130.0 69.0Z" fill-rule="nonzero"/><path fill="#4285f4" clip-path="url(#id_0)" d="M130.0 350.0L99.0 350.0L99.0 69.0C99.0 67.89543 99.89543 67.0 101.0 67.0L128.0 67.0C129.10457 67.0 130.0 67.89543 130.0 69.0Z" fill-rule="nonzero"/><path stroke="#000000" stroke-width="0.0" stroke-linecap="butt" stroke-opacity="0.0" clip-path="url(#id_0)" d="M178.0 350.0L147.0 350.0L147.0 121.0C147.0 119.89543 147.89543 119.0 149.0 119.0L176.0 119.0C177.10457 119.0 178.0 119.89543 178.0 121.0Z" fill-rule="nonzero"/><path fill="#4285f4" clip-path="url(#id_0)" d="M178.0 350.0L147.0 350.0L147.0 121.0C147.0 119.89543 147.89543 119.0 149.0 119.0L176.0 119.0C177.10457 119.0 178.0 119.89543 178.0 121.0Z" fill-rule="nonzero"/><path stroke="#000000" stroke-width="0.0" stroke-linecap="butt" stroke-opacity="0.0" clip-path="url(#id_0)" d="M226.0 350.0L195.0 350.0L195.0 211.0C195.0 209.89543 195.89543 209.0 197.0 209.0L224.0 209.0C225.10457 209.0 226.0 209.89543 226.0 211.0Z" fill-rule="nonzero"/><path fill="#4285f4" clip-path="url(#id_0)" d="M226.0 350.0L195.0 350.0L195.0 211.0C195.0 209.89543 195.89543 209.0 197.0 209.0L224.0 209.0C225.10457 209.0 226.0 209.89543 226.0 211.0Z" fill-rule="nonzero"/><path stroke="#000000" stroke-width="0.0" stroke-linecap="butt" stroke-opacity="0.0" clip-path="url(#id_0)" d="M274.0 350.0L243.0 350.0L243.0 262.0C243.0 260.89542 243.89543 260.0 245.0 260.0L272.0 260.0C273.10458 260.0 274.0 260.89542 274.0 262.0Z" fill-rule="nonzero"/><path fill="#4285f4" clip-path="url(#id_0)" d="M274.0 350.0L243.0 350.0L243.0 262.0C243.0 260.89542 243.89543 260.0 245.0 260.0L272.0 260.0C273.10458 260.0 274.0 260.89542 274.0 262.0Z" fill-rule="nonzero"/><path stroke="#000000" stroke-width="0.0" stroke-linecap="butt" stroke-opacity="0.0" clip-path="url(#id_0)" d="M322.0 350.0L291.0 350.0L291.0 350.0L322.0 350.0Z" fill-rule="nonzero"/><path fill="#4285f4" clip-path="url(#id_0)" d="M322.0 350.0L291.0 350.0L291.0 350.0L322.0 350.0Z" fill-rule="nonzero"/><path stroke="#000000" stroke-width="0.0" stroke-linecap="butt" stroke-opacity="0.0" clip-path="url(#id_0)" d="M370.0 350.0L339.0 350.0L339.0 300.0C339.0 298.89542 339.89542 298.0 341.0 298.0L368.0 298.0C369.10458 298.0 370.0 298.89542 370.0 300.0Z" fill-rule="nonzero"/><path fill="#4285f4" clip-path="url(#id_0)" d="M370.0 350.0L339.0 350.0L339.0 300.0C339.0 298.89542 339.89542 298.0 341.0 298.0L368.0 298.0C369.10458 298.0 370.0 298.89542 370.0 300.0Z" fill-rule="nonzero"/><path stroke="#000000" stroke-width="0.0" stroke-linecap="butt" stroke-opacity="0.0" clip-path="url(#id_0)" d="M418.0 350.0L387.0 350.0L387.0 313.0C387.0 311.89542 387.89542 311.0 389.0 311.0L416.0 311.0C417.10458 311.0 418.0 311.89542 418.0 313.0Z" fill-rule="nonzero"/><path fill="#4285f4" clip-path="url(#id_0)" d="M418.0 350.0L387.0 350.0L387.0 313.0C387.0 311.89542 387.89542 311.0 389.0 311.0L416.0 311.0C417.10458 311.0 418.0 311.89542 418.0 313.0Z" fill-rule="nonzero"/><path stroke="#000000" stroke-width="0.0" stroke-linecap="butt" stroke-opacity="0.0" clip-path="url(#id_0)" d="M466.0 350.0L435.0 350.0L435.0 313.0C435.0 311.89542 435.89542 311.0 437.0 311.0L464.0 311.0C465.10458 311.0 466.0 311.89542 466.0 313.0Z" fill-rule="nonzero"/><path fill="#4285f4" clip-path="url(#id_0)" d="M466.0 350.0L435.0 350.0L435.0 313.0C435.0 311.89542 435.89542 311.0 437.0 311.0L464.0 311.0C465.10458 311.0 466.0 311.89542 466.0 313.0Z" fill-rule="nonzero"/><path stroke="#000000" stroke-width="0.0" stroke-linecap="butt" stroke-opacity="0.0" clip-path="url(#id_0)" d="M514.0 350.0L483.0 350.0L483.0 350.0L514.0 350.0Z" fill-rule="nonzero"/><path fill="#4285f4" clip-path="url(#id_0)" d="M514.0 350.0L483.0 350.0L483.0 350.0L514.0 350.0Z" fill-rule="nonzero"/><path stroke="#000000" stroke-width="0.0" stroke-linecap="butt" stroke-opacity="0.0" clip-path="url(#id_0)" d="M562.0 350.0L531.0 350.0L531.0 350.0L562.0 350.0Z" fill-rule="nonzero"/><path fill="#4285f4" clip-path="url(#id_0)" d="M562.0 350.0L531.0 350.0L531.0 350.0L562.0 350.0Z" fill-rule="nonzero"/><path fill="#424242" d="M238.54688 400.75L237.42188 400.75L233.125 394.17188L233.125 400.75L231.98438 400.75L231.98438 392.21875L233.125 392.21875L237.42188 398.82812L237.42188 392.21875L238.54688 392.21875L238.54688 400.75ZM244.73438 400.125Q244.10938 400.875 242.875 400.875Q241.85938 400.875 241.32812 400.28125Q240.79688 399.6875 240.79688 398.53125L240.79688 394.40625L241.875 394.40625L241.875 398.5Q241.875 399.95312 243.04688 399.95312Q244.29688 399.95312 244.70312 399.01562L244.70312 394.40625L245.79688 394.40625L245.79688 400.75L244.76562 400.75L244.73438 400.125ZM248.84375 394.40625L248.875 395.10938Q249.5625 394.29688 250.75 394.29688Q252.07812 394.29688 252.5625 395.3125Q252.875 394.85938 253.375 394.57812Q253.89062 394.29688 254.57812 394.29688Q256.67188 394.29688 256.70312 396.5L256.70312 400.75L255.625 400.75L255.625 396.5625Q255.625 395.89062 255.3125 395.5625Q255.0 395.21875 254.26562 395.21875Q253.65625 395.21875 253.25 395.57812Q252.85938 395.9375 252.79688 396.54688L252.79688 400.75L251.71875 400.75L251.71875 396.59375Q251.71875 395.21875 250.35938 395.21875Q249.29688 395.21875 248.90625 396.125L248.90625 400.75L247.8125 400.75L247.8125 394.40625L248.84375 394.40625ZM264.1875 397.65625Q264.1875 399.10938 263.51562 400.0Q262.85938 400.875 261.73438 400.875Q260.53125 400.875 259.875 400.01562L259.8125 400.75L258.82812 400.75L258.82812 391.75L259.90625 391.75L259.90625 395.10938Q260.5625 394.29688 261.71875 394.29688Q262.875 394.29688 263.53125 395.17188Q264.1875 396.03125 264.1875 397.5625L264.1875 397.65625ZM263.10938 397.53125Q263.10938 396.42188 262.67188 395.82812Q262.25 395.21875 261.45312 395.21875Q260.375 395.21875 259.90625 396.20312L259.90625 398.95312Q260.40625 399.95312 261.45312 399.95312Q262.23438 399.95312 262.67188 399.34375Q263.10938 398.73438 263.10938 397.53125ZM268.45312 400.875Q267.15625 400.875 266.34375 400.03125Q265.54688 399.17188 265.54688 397.75L265.54688 397.5625Q265.54688 396.60938 265.90625 395.875Q266.26562 395.125 266.90625 394.71875Q267.5625 394.29688 268.3125 394.29688Q269.54688 394.29688 270.23438 395.10938Q270.92188 395.92188 270.92188 397.4375L270.92188 397.89062L266.625 397.89062Q266.65625 398.82812 267.17188 399.40625Q267.70312 399.98438 268.51562 399.98438Q269.07812 399.98438 269.46875 399.75Q269.875 399.51562 270.1875 399.125L270.84375 399.64062Q270.04688 400.875 268.45312 400.875ZM268.3125 395.1875Q267.65625 395.1875 267.20312 395.67188Q266.76562 396.14062 266.67188 397.0L269.84375 397.0L269.84375 396.92188Q269.79688 396.09375 269.39062 395.64062Q269.0 395.1875 268.3125 395.1875ZM274.89062 395.375Q274.64062 395.34375 274.35938 395.34375Q273.28125 395.34375 272.90625 396.25L272.90625 400.75L271.82812 400.75L271.82812 394.40625L272.875 394.40625L272.89062 395.14062Q273.42188 394.29688 274.40625 394.29688Q274.71875 394.29688 274.89062 394.375L274.89062 395.375ZM278.53125 397.51562Q278.53125 396.59375 278.89062 395.84375Q279.26562 395.09375 279.92188 394.70312Q280.57812 394.29688 281.40625 394.29688Q282.70312 394.29688 283.5 395.1875Q284.3125 396.07812 284.3125 397.57812L284.3125 397.65625Q284.3125 398.57812 283.95312 399.3125Q283.59375 400.04688 282.9375 400.46875Q282.28125 400.875 281.42188 400.875Q280.14062 400.875 279.32812 399.98438Q278.53125 399.07812 278.53125 397.59375L278.53125 397.51562ZM279.625 397.65625Q279.625 398.70312 280.10938 399.34375Q280.60938 399.98438 281.42188 399.98438Q282.25 399.98438 282.73438 399.34375Q283.21875 398.6875 283.21875 397.51562Q283.21875 396.48438 282.71875 395.84375Q282.23438 395.1875 281.40625 395.1875Q280.60938 395.1875 280.10938 395.82812Q279.625 396.45312 279.625 397.65625ZM286.35938 400.75L286.35938 395.25L285.35938 395.25L285.35938 394.40625L286.35938 394.40625L286.35938 393.76562Q286.35938 392.73438 286.89062 392.1875Q287.4375 391.625 288.4375 391.625Q288.8125 391.625 289.1875 391.71875L289.125 392.60938Q288.84375 392.54688 288.54688 392.54688Q288.01562 392.54688 287.71875 392.85938Q287.4375 393.17188 287.4375 393.73438L287.4375 394.40625L288.79688 394.40625L288.79688 395.25L287.4375 395.25L287.4375 400.75L286.35938 400.75ZM295.45312 400.875Q294.15625 400.875 293.34375 400.03125Q292.54688 399.17188 292.54688 397.75L292.54688 397.5625Q292.54688 396.60938 292.90625 395.875Q293.26562 395.125 293.90625 394.71875Q294.5625 394.29688 295.3125 394.29688Q296.54688 394.29688 297.23438 395.10938Q297.92188 395.92188 297.92188 397.4375L297.92188 397.89062L293.625 397.89062Q293.65625 398.82812 294.17188 399.40625Q294.70312 399.98438 295.51562 399.98438Q296.07812 399.98438 296.46875 399.75Q296.875 399.51562 297.1875 399.125L297.84375 399.64062Q297.04688 400.875 295.45312 400.875ZM295.3125 395.1875Q294.65625 395.1875 294.20312 395.67188Q293.76562 396.14062 293.67188 397.0L296.84375 397.0L296.84375 396.92188Q296.79688 396.09375 296.39062 395.64062Q296.0 395.1875 295.3125 395.1875ZM300.95312 396.71875L302.35938 394.40625L303.625 394.40625L301.54688 397.54688L303.6875 400.75L302.4375 400.75L300.96875 398.375L299.5 400.75L298.23438 400.75L300.375 397.54688L298.3125 394.40625L299.5625 394.40625L300.95312 396.71875ZM306.0 400.75L304.92188 400.75L304.92188 394.40625L306.0 394.40625L306.0 400.75ZM304.82812 392.73438Q304.82812 392.46875 304.98438 392.28125Q305.15625 392.09375 305.46875 392.09375Q305.78125 392.09375 305.9375 392.28125Q306.10938 392.46875 306.10938 392.73438Q306.10938 392.98438 305.9375 393.17188Q305.78125 393.34375 305.46875 393.34375Q305.15625 393.34375 304.98438 393.17188Q304.82812 392.98438 304.82812 392.73438ZM311.51562 399.0625Q311.51562 398.625 311.17188 398.39062Q310.84375 398.14062 310.01562 397.96875Q309.20312 397.79688 308.71875 397.54688Q308.23438 397.29688 308.0 396.96875Q307.78125 396.625 307.78125 396.15625Q307.78125 395.375 308.4375 394.84375Q309.09375 394.29688 310.125 394.29688Q311.20312 394.29688 311.85938 394.85938Q312.53125 395.40625 312.53125 396.26562L311.45312 396.26562Q311.45312 395.82812 311.0625 395.51562Q310.6875 395.1875 310.125 395.1875Q309.53125 395.1875 309.1875 395.45312Q308.85938 395.70312 308.85938 396.10938Q308.85938 396.5 309.17188 396.70312Q309.48438 396.90625 310.29688 397.09375Q311.10938 397.26562 311.60938 397.51562Q312.10938 397.76562 312.34375 398.125Q312.59375 398.48438 312.59375 398.98438Q312.59375 399.84375 311.90625 400.35938Q311.23438 400.875 310.15625 400.875Q309.39062 400.875 308.79688 400.60938Q308.21875 400.32812 307.89062 399.84375Q307.5625 399.35938 307.5625 398.79688L308.64062 398.79688Q308.67188 399.34375 309.07812 399.67188Q309.48438 399.98438 310.15625 399.98438Q310.76562 399.98438 311.14062 399.73438Q311.51562 399.48438 311.51562 399.0625ZM315.29688 392.875L315.29688 394.40625L316.46875 394.40625L316.46875 395.25L315.29688 395.25L315.29688 399.17188Q315.29688 399.5625 315.45312 399.75Q315.60938 399.9375 315.98438 399.9375Q316.17188 399.9375 316.5 399.875L316.5 400.75Q316.07812 400.875 315.67188 400.875Q314.95312 400.875 314.57812 400.4375Q314.20312 399.98438 314.20312 399.17188L314.20312 395.25L313.04688 395.25L313.04688 394.40625L314.20312 394.40625L314.20312 392.875L315.29688 392.875ZM319.0 400.75L317.92188 400.75L317.92188 394.40625L319.0 394.40625L319.0 400.75ZM317.82812 392.73438Q317.82812 392.46875 317.98438 392.28125Q318.15625 392.09375 318.46875 392.09375Q318.78125 392.09375 318.9375 392.28125Q319.10938 392.46875 319.10938 392.73438Q319.10938 392.98438 318.9375 393.17188Q318.78125 393.34375 318.46875 393.34375Q318.15625 393.34375 317.98438 393.17188Q317.82812 392.98438 317.82812 392.73438ZM321.84375 394.40625L321.875 395.20312Q322.60938 394.29688 323.78125 394.29688Q325.79688 394.29688 325.8125 396.5625L325.8125 400.75L324.71875 400.75L324.71875 396.54688Q324.71875 395.875 324.40625 395.54688Q324.10938 395.21875 323.45312 395.21875Q322.92188 395.21875 322.51562 395.5Q322.125 395.78125 321.90625 396.23438L321.90625 400.75L320.82812 400.75L320.82812 394.40625L321.84375 394.40625ZM327.5625 397.53125Q327.5625 396.04688 328.25 395.17188Q328.9375 394.29688 330.0625 394.29688Q331.21875 394.29688 331.875 395.10938L331.92188 394.40625L332.92188 394.40625L332.92188 400.59375Q332.92188 401.82812 332.1875 402.53125Q331.45312 403.25 330.23438 403.25Q329.54688 403.25 328.89062 402.95312Q328.23438 402.65625 327.89062 402.15625L328.45312 401.5Q329.14062 402.35938 330.15625 402.35938Q330.9375 402.35938 331.375 401.90625Q331.82812 401.46875 331.82812 400.65625L331.82812 400.10938Q331.17188 400.875 330.04688 400.875Q328.9375 400.875 328.25 399.98438Q327.5625 399.07812 327.5625 397.53125ZM328.65625 397.65625Q328.65625 398.71875 329.09375 399.34375Q329.53125 399.95312 330.32812 399.95312Q331.34375 399.95312 331.82812 399.01562L331.82812 396.125Q331.32812 395.21875 330.32812 395.21875Q329.54688 395.21875 329.09375 395.82812Q328.65625 396.4375 328.65625 397.65625ZM339.0 400.75L337.92188 400.75L337.92188 394.40625L339.0 394.40625L339.0 400.75ZM337.82812 392.73438Q337.82812 392.46875 337.98438 392.28125Q338.15625 392.09375 338.46875 392.09375Q338.78125 392.09375 338.9375 392.28125Q339.10938 392.46875 339.10938 392.73438Q339.10938 392.98438 338.9375 393.17188Q338.78125 393.34375 338.46875 393.34375Q338.15625 393.34375 337.98438 393.17188Q337.82812 392.98438 337.82812 392.73438ZM341.84375 394.40625L341.875 395.10938Q342.5625 394.29688 343.75 394.29688Q345.07812 394.29688 345.5625 395.3125Q345.875 394.85938 346.375 394.57812Q346.89062 394.29688 347.57812 394.29688Q349.67188 394.29688 349.70312 396.5L349.70312 400.75L348.625 400.75L348.625 396.5625Q348.625 395.89062 348.3125 395.5625Q348.0 395.21875 347.26562 395.21875Q346.65625 395.21875 346.25 395.57812Q345.85938 395.9375 345.79688 396.54688L345.79688 400.75L344.71875 400.75L344.71875 396.59375Q344.71875 395.21875 343.35938 395.21875Q342.29688 395.21875 341.90625 396.125L341.90625 400.75L340.8125 400.75L340.8125 394.40625L341.84375 394.40625ZM357.17188 397.65625Q357.17188 399.09375 356.51562 399.98438Q355.85938 400.875 354.71875 400.875Q353.5625 400.875 352.90625 400.14062L352.90625 403.1875L351.82812 403.1875L351.82812 394.40625L352.8125 394.40625L352.85938 395.10938Q353.53125 394.29688 354.70312 394.29688Q355.84375 394.29688 356.5 395.15625Q357.17188 396.01562 357.17188 397.54688L357.17188 397.65625ZM356.09375 397.53125Q356.09375 396.45312 355.625 395.84375Q355.17188 395.21875 354.375 395.21875Q353.39062 395.21875 352.90625 396.07812L352.90625 399.10938Q353.39062 399.98438 354.39062 399.98438Q355.17188 399.98438 355.625 399.375Q356.09375 398.75 356.09375 397.53125ZM360.0 400.75L358.92188 400.75L358.92188 391.75L360.0 391.75L360.0 400.75ZM364.45312 400.875Q363.15625 400.875 362.34375 400.03125Q361.54688 399.17188 361.54688 397.75L361.54688 397.5625Q361.54688 396.60938 361.90625 395.875Q362.26562 395.125 362.90625 394.71875Q363.5625 394.29688 364.3125 394.29688Q365.54688 394.29688 366.23438 395.10938Q366.92188 395.92188 366.92188 397.4375L366.92188 397.89062L362.625 397.89062Q362.65625 398.82812 363.17188 399.40625Q363.70312 399.98438 364.51562 399.98438Q365.07812 399.98438 365.46875 399.75Q365.875 399.51562 366.1875 399.125L366.84375 399.64062Q366.04688 400.875 364.45312 400.875ZM364.3125 395.1875Q363.65625 395.1875 363.20312 395.67188Q362.76562 396.14062 362.67188 397.0L365.84375 397.0L365.84375 396.92188Q365.79688 396.09375 365.39062 395.64062Q365.0 395.1875 364.3125 395.1875ZM368.84375 394.40625L368.875 395.10938Q369.5625 394.29688 370.75 394.29688Q372.07812 394.29688 372.5625 395.3125Q372.875 394.85938 373.375 394.57812Q373.89062 394.29688 374.57812 394.29688Q376.67188 394.29688 376.70312 396.5L376.70312 400.75L375.625 400.75L375.625 396.5625Q375.625 395.89062 375.3125 395.5625Q375.0 395.21875 374.26562 395.21875Q373.65625 395.21875 373.25 395.57812Q372.85938 395.9375 372.79688 396.54688L372.79688 400.75L371.71875 400.75L371.71875 396.59375Q371.71875 395.21875 370.35938 395.21875Q369.29688 395.21875 368.90625 396.125L368.90625 400.75L367.8125 400.75L367.8125 394.40625L368.84375 394.40625ZM381.45312 400.875Q380.15625 400.875 379.34375 400.03125Q378.54688 399.17188 378.54688 397.75L378.54688 397.5625Q378.54688 396.60938 378.90625 395.875Q379.26562 395.125 379.90625 394.71875Q380.5625 394.29688 381.3125 394.29688Q382.54688 394.29688 383.23438 395.10938Q383.92188 395.92188 383.92188 397.4375L383.92188 397.89062L379.625 397.89062Q379.65625 398.82812 380.17188 399.40625Q380.70312 399.98438 381.51562 399.98438Q382.07812 399.98438 382.46875 399.75Q382.875 399.51562 383.1875 399.125L383.84375 399.64062Q383.04688 400.875 381.45312 400.875ZM381.3125 395.1875Q380.65625 395.1875 380.20312 395.67188Q379.76562 396.14062 379.67188 397.0L382.84375 397.0L382.84375 396.92188Q382.79688 396.09375 382.39062 395.64062Q382.0 395.1875 381.3125 395.1875ZM385.84375 394.40625L385.875 395.20312Q386.60938 394.29688 387.78125 394.29688Q389.79688 394.29688 389.8125 396.5625L389.8125 400.75L388.71875 400.75L388.71875 396.54688Q388.71875 395.875 388.40625 395.54688Q388.10938 395.21875 387.45312 395.21875Q386.92188 395.21875 386.51562 395.5Q386.125 395.78125 385.90625 396.23438L385.90625 400.75L384.82812 400.75L384.82812 394.40625L385.84375 394.40625ZM393.29688 392.875L393.29688 394.40625L394.46875 394.40625L394.46875 395.25L393.29688 395.25L393.29688 399.17188Q393.29688 399.5625 393.45312 399.75Q393.60938 399.9375 393.98438 399.9375Q394.17188 399.9375 394.5 399.875L394.5 400.75Q394.07812 400.875 393.67188 400.875Q392.95312 400.875 392.57812 400.4375Q392.20312 399.98438 392.20312 399.17188L392.20312 395.25L391.04688 395.25L391.04688 394.40625L392.20312 394.40625L392.20312 392.875L393.29688 392.875ZM399.73438 400.75Q399.64062 400.5625 399.57812 400.07812Q398.82812 400.875 397.78125 400.875Q396.84375 400.875 396.23438 400.34375Q395.64062 399.8125 395.64062 398.98438Q395.64062 398.0 396.39062 397.45312Q397.14062 396.90625 398.51562 396.90625L399.5625 396.90625L399.5625 396.40625Q399.5625 395.84375 399.21875 395.51562Q398.89062 395.17188 398.21875 395.17188Q397.64062 395.17188 397.25 395.46875Q396.85938 395.75 396.85938 396.17188L395.76562 396.17188Q395.76562 395.6875 396.09375 395.25Q396.4375 394.8125 397.01562 394.5625Q397.59375 394.29688 398.28125 394.29688Q399.39062 394.29688 400.0 394.84375Q400.625 395.39062 400.65625 396.34375L400.65625 399.26562Q400.65625 400.14062 400.875 400.65625L400.875 400.75L399.73438 400.75ZM397.9375 399.92188Q398.45312 399.92188 398.90625 399.65625Q399.35938 399.39062 399.5625 398.96875L399.5625 397.67188L398.71875 397.67188Q396.71875 397.67188 396.71875 398.84375Q396.71875 399.34375 397.0625 399.64062Q397.40625 399.92188 397.9375 399.92188ZM404.29688 392.875L404.29688 394.40625L405.46875 394.40625L405.46875 395.25L404.29688 395.25L404.29688 399.17188Q404.29688 399.5625 404.45312 399.75Q404.60938 399.9375 404.98438 399.9375Q405.17188 399.9375 405.5 399.875L405.5 400.75Q405.07812 400.875 404.67188 400.875Q403.95312 400.875 403.57812 400.4375Q403.20312 399.98438 403.20312 399.17188L403.20312 395.25L402.04688 395.25L402.04688 394.40625L403.20312 394.40625L403.20312 392.875L404.29688 392.875ZM408.0 400.75L406.92188 400.75L406.92188 394.40625L408.0 394.40625L408.0 400.75ZM406.82812 392.73438Q406.82812 392.46875 406.98438 392.28125Q407.15625 392.09375 407.46875 392.09375Q407.78125 392.09375 407.9375 392.28125Q408.10938 392.46875 408.10938 392.73438Q408.10938 392.98438 407.9375 393.17188Q407.78125 393.34375 407.46875 393.34375Q407.15625 393.34375 406.98438 393.17188Q406.82812 392.98438 406.82812 392.73438ZM409.53125 397.51562Q409.53125 396.59375 409.89062 395.84375Q410.26562 395.09375 410.92188 394.70312Q411.57812 394.29688 412.40625 394.29688Q413.70312 394.29688 414.5 395.1875Q415.3125 396.07812 415.3125 397.57812L415.3125 397.65625Q415.3125 398.57812 414.95312 399.3125Q414.59375 400.04688 413.9375 400.46875Q413.28125 400.875 412.42188 400.875Q411.14062 400.875 410.32812 399.98438Q409.53125 399.07812 409.53125 397.59375L409.53125 397.51562ZM410.625 397.65625Q410.625 398.70312 411.10938 399.34375Q411.60938 399.98438 412.42188 399.98438Q413.25 399.98438 413.73438 399.34375Q414.21875 398.6875 414.21875 397.51562Q414.21875 396.48438 413.71875 395.84375Q413.23438 395.1875 412.40625 395.1875Q411.60938 395.1875 411.10938 395.82812Q410.625 396.45312 410.625 397.65625ZM417.84375 394.40625L417.875 395.20312Q418.60938 394.29688 419.78125 394.29688Q421.79688 394.29688 421.8125 396.5625L421.8125 400.75L420.71875 400.75L420.71875 396.54688Q420.71875 395.875 420.40625 395.54688Q420.10938 395.21875 419.45312 395.21875Q418.92188 395.21875 418.51562 395.5Q418.125 395.78125 417.90625 396.23438L417.90625 400.75L416.82812 400.75L416.82812 394.40625L417.84375 394.40625ZM427.51562 399.0625Q427.51562 398.625 427.17188 398.39062Q426.84375 398.14062 426.01562 397.96875Q425.20312 397.79688 424.71875 397.54688Q424.23438 397.29688 424.0 396.96875Q423.78125 396.625 423.78125 396.15625Q423.78125 395.375 424.4375 394.84375Q425.09375 394.29688 426.125 394.29688Q427.20312 394.29688 427.85938 394.85938Q428.53125 395.40625 428.53125 396.26562L427.45312 396.26562Q427.45312 395.82812 427.0625 395.51562Q426.6875 395.1875 426.125 395.1875Q425.53125 395.1875 425.1875 395.45312Q424.85938 395.70312 424.85938 396.10938Q424.85938 396.5 425.17188 396.70312Q425.48438 396.90625 426.29688 397.09375Q427.10938 397.26562 427.60938 397.51562Q428.10938 397.76562 428.34375 398.125Q428.59375 398.48438 428.59375 398.98438Q428.59375 399.84375 427.90625 400.35938Q427.23438 400.875 426.15625 400.875Q425.39062 400.875 424.79688 400.60938Q424.21875 400.32812 423.89062 399.84375Q423.5625 399.35938 423.5625 398.79688L424.64062 398.79688Q424.67188 399.34375 425.07812 399.67188Q425.48438 399.98438 426.15625 399.98438Q426.76562 399.98438 427.14062 399.73438Q427.51562 399.48438 427.51562 399.0625Z" fill-rule="nonzero"/><path fill="#424242" d="M33.25 242.95312L33.25 244.07812L26.671875 248.375L33.25 248.375L33.25 249.51562L24.71875 249.51562L24.71875 248.375L31.328125 244.07812L24.71875 244.07812L24.71875 242.95312L33.25 242.95312ZM32.625 236.76562Q33.375 237.39062 33.375 238.625Q33.375 239.64062 32.78125 240.17188Q32.1875 240.70312 31.03125 240.70312L26.90625 240.70312L26.90625 239.625L31.0 239.625Q32.453125 239.625 32.453125 238.45312Q32.453125 237.20312 31.515625 236.79688L26.90625 236.79688L26.90625 235.70312L33.25 235.70312L33.25 236.73438L32.625 236.76562ZM26.90625 232.65625L27.609375 232.625Q26.796875 231.9375 26.796875 230.75Q26.796875 229.42188 27.8125 228.9375Q27.359375 228.625 27.078125 228.125Q26.796875 227.60938 26.796875 226.92188Q26.796875 224.82812 29.0 224.79688L33.25 224.79688L33.25 225.875L29.0625 225.875Q28.390625 225.875 28.0625 226.1875Q27.71875 226.5 27.71875 227.23438Q27.71875 227.84375 28.078125 228.25Q28.4375 228.64062 29.046875 228.70312L33.25 228.70312L33.25 229.78125L29.09375 229.78125Q27.71875 229.78125 27.71875 231.14062Q27.71875 232.20312 28.625 232.59375L33.25 232.59375L33.25 233.6875L26.90625 233.6875L26.90625 232.65625ZM30.15625 217.3125Q31.609375 217.3125 32.5 217.98438Q33.375 218.64062 33.375 219.76562Q33.375 220.96875 32.515625 221.625L33.25 221.6875L33.25 222.67188L24.25 222.67188L24.25 221.59375L27.609375 221.59375Q26.796875 220.9375 26.796875 219.78125Q26.796875 218.625 27.671875 217.96875Q28.53125 217.3125 30.0625 217.3125L30.15625 217.3125ZM30.03125 218.39062Q28.921875 218.39062 28.328125 218.82812Q27.71875 219.25 27.71875 220.04688Q27.71875 221.125 28.703125 221.59375L31.453125 221.59375Q32.453125 221.09375 32.453125 220.04688Q32.453125 219.26562 31.84375 218.82812Q31.234375 218.39062 30.03125 218.39062ZM33.375 213.04688Q33.375 214.34375 32.53125 215.15625Q31.671875 215.95312 30.25 215.95312L30.0625 215.95312Q29.109375 215.95312 28.375 215.59375Q27.625 215.23438 27.21875 214.59375Q26.796875 213.9375 26.796875 213.1875Q26.796875 211.95312 27.609375 211.26562Q28.421875 210.57812 29.9375 210.57812L30.390625 210.57812L30.390625 214.875Q31.328125 214.84375 31.90625 214.32812Q32.484375 213.79688 32.484375 212.98438Q32.484375 212.42188 32.25 212.03125Q32.015625 211.625 31.625 211.3125L32.140625 210.65625Q33.375 211.45312 33.375 213.04688ZM27.6875 213.1875Q27.6875 213.84375 28.171875 214.29688Q28.640625 214.73438 29.5 214.82812L29.5 211.65625L29.421875 211.65625Q28.59375 211.70312 28.140625 212.10938Q27.6875 212.5 27.6875 213.1875ZM27.875 206.60938Q27.84375 206.85938 27.84375 207.14062Q27.84375 208.21875 28.75 208.59375L33.25 208.59375L33.25 209.67188L26.90625 209.67188L26.90625 208.625L27.640625 208.60938Q26.796875 208.07812 26.796875 207.09375Q26.796875 206.78125 26.875 206.60938L27.875 206.60938ZM30.015625 202.96875Q29.09375 202.96875 28.34375 202.60938Q27.59375 202.23438 27.203125 201.57812Q26.796875 200.92188 26.796875 200.09375Q26.796875 198.79688 27.6875 198.0Q28.578125 197.1875 30.078125 197.1875L30.15625 197.1875Q31.078125 197.1875 31.8125 197.54688Q32.546875 197.90625 32.96875 198.5625Q33.375 199.21875 33.375 200.07812Q33.375 201.35938 32.484375 202.17188Q31.578125 202.96875 30.09375 202.96875L30.015625 202.96875ZM30.15625 201.875Q31.203125 201.875 31.84375 201.39062Q32.484375 200.89062 32.484375 200.07812Q32.484375 199.25 31.84375 198.76562Q31.1875 198.28125 30.015625 198.28125Q28.984375 198.28125 28.34375 198.78125Q27.6875 199.26562 27.6875 200.09375Q27.6875 200.89062 28.328125 201.39062Q28.953125 201.875 30.15625 201.875ZM33.25 195.14062L27.75 195.14062L27.75 196.14062L26.90625 196.14062L26.90625 195.14062L26.265625 195.14062Q25.234375 195.14062 24.6875 194.60938Q24.125 194.0625 24.125 193.0625Q24.125 192.6875 24.21875 192.3125L25.109375 192.375Q25.046875 192.65625 25.046875 192.95312Q25.046875 193.48438 25.359375 193.78125Q25.671875 194.0625 26.234375 194.0625L26.90625 194.0625L26.90625 192.70312L27.75 192.70312L27.75 194.0625L33.25 194.0625L33.25 195.14062ZM27.875 185.60938Q27.84375 185.85938 27.84375 186.14062Q27.84375 187.21875 28.75 187.59375L33.25 187.59375L33.25 188.67188L26.90625 188.67188L26.90625 187.625L27.640625 187.60938Q26.796875 187.07812 26.796875 186.09375Q26.796875 185.78125 26.875 185.60938L27.875 185.60938ZM33.375 182.04688Q33.375 183.34375 32.53125 184.15625Q31.671875 184.95312 30.25 184.95312L30.0625 184.95312Q29.109375 184.95312 28.375 184.59375Q27.625 184.23438 27.21875 183.59375Q26.796875 182.9375 26.796875 182.1875Q26.796875 180.95312 27.609375 180.26562Q28.421875 179.57812 29.9375 179.57812L30.390625 179.57812L30.390625 183.875Q31.328125 183.84375 31.90625 183.32812Q32.484375 182.79688 32.484375 181.98438Q32.484375 181.42188 32.25 181.03125Q32.015625 180.625 31.625 180.3125L32.140625 179.65625Q33.375 180.45312 33.375 182.04688ZM27.6875 182.1875Q27.6875 182.84375 28.171875 183.29688Q28.640625 183.73438 29.5 183.82812L29.5 180.65625L29.421875 180.65625Q28.59375 180.70312 28.140625 181.10938Q27.6875 181.5 27.6875 182.1875ZM31.78125 176.59375L26.90625 175.01562L26.90625 173.90625L33.25 176.1875L33.25 177.01562L26.90625 179.3125L26.90625 178.20312L31.78125 176.59375ZM33.25 171.5L33.25 172.57812L26.90625 172.57812L26.90625 171.5L33.25 171.5ZM25.234375 172.67188Q24.96875 172.67188 24.78125 172.51562Q24.59375 172.34375 24.59375 172.03125Q24.59375 171.71875 24.78125 171.5625Q24.96875 171.39062 25.234375 171.39062Q25.484375 171.39062 25.671875 171.5625Q25.84375 171.71875 25.84375 172.03125Q25.84375 172.34375 25.671875 172.51562Q25.484375 172.67188 25.234375 172.67188ZM31.5625 165.98438Q31.125 165.98438 30.890625 166.32812Q30.640625 166.65625 30.46875 167.48438Q30.296875 168.29688 30.046875 168.78125Q29.796875 169.26562 29.46875 169.5Q29.125 169.71875 28.65625 169.71875Q27.875 169.71875 27.34375 169.0625Q26.796875 168.40625 26.796875 167.375Q26.796875 166.29688 27.359375 165.64062Q27.90625 164.96875 28.765625 164.96875L28.765625 166.04688Q28.328125 166.04688 28.015625 166.4375Q27.6875 166.8125 27.6875 167.375Q27.6875 167.96875 27.953125 168.3125Q28.203125 168.64062 28.609375 168.64062Q29.0 168.64062 29.203125 168.32812Q29.40625 168.01562 29.59375 167.20312Q29.765625 166.39062 30.015625 165.89062Q30.265625 165.39062 30.625 165.15625Q30.984375 164.90625 31.484375 164.90625Q32.34375 164.90625 32.859375 165.59375Q33.375 166.26562 33.375 167.34375Q33.375 168.10938 33.109375 168.70312Q32.828125 169.28125 32.34375 169.60938Q31.859375 169.9375 31.296875 169.9375L31.296875 168.85938Q31.84375 168.82812 32.171875 168.42188Q32.484375 168.01562 32.484375 167.34375Q32.484375 166.73438 32.234375 166.35938Q31.984375 165.98438 31.5625 165.98438ZM33.25 162.5L33.25 163.57812L26.90625 163.57812L26.90625 162.5L33.25 162.5ZM25.234375 163.67188Q24.96875 163.67188 24.78125 163.51562Q24.59375 163.34375 24.59375 163.03125Q24.59375 162.71875 24.78125 162.5625Q24.96875 162.39062 25.234375 162.39062Q25.484375 162.39062 25.671875 162.5625Q25.84375 162.71875 25.84375 163.03125Q25.84375 163.34375 25.671875 163.51562Q25.484375 163.67188 25.234375 163.67188ZM30.015625 160.96875Q29.09375 160.96875 28.34375 160.60938Q27.59375 160.23438 27.203125 159.57812Q26.796875 158.92188 26.796875 158.09375Q26.796875 156.79688 27.6875 156.0Q28.578125 155.1875 30.078125 155.1875L30.15625 155.1875Q31.078125 155.1875 31.8125 155.54688Q32.546875 155.90625 32.96875 156.5625Q33.375 157.21875 33.375 158.07812Q33.375 159.35938 32.484375 160.17188Q31.578125 160.96875 30.09375 160.96875L30.015625 160.96875ZM30.15625 159.875Q31.203125 159.875 31.84375 159.39062Q32.484375 158.89062 32.484375 158.07812Q32.484375 157.25 31.84375 156.76562Q31.1875 156.28125 30.015625 156.28125Q28.984375 156.28125 28.34375 156.78125Q27.6875 157.26562 27.6875 158.09375Q27.6875 158.89062 28.328125 159.39062Q28.953125 159.875 30.15625 159.875ZM26.90625 152.65625L27.703125 152.625Q26.796875 151.89062 26.796875 150.71875Q26.796875 148.70312 29.0625 148.6875L33.25 148.6875L33.25 149.78125L29.046875 149.78125Q28.375 149.78125 28.046875 150.09375Q27.71875 150.39062 27.71875 151.04688Q27.71875 151.57812 28.0 151.98438Q28.28125 152.375 28.734375 152.59375L33.25 152.59375L33.25 153.67188L26.90625 153.67188L26.90625 152.65625ZM31.5625 142.98438Q31.125 142.98438 30.890625 143.32812Q30.640625 143.65625 30.46875 144.48438Q30.296875 145.29688 30.046875 145.78125Q29.796875 146.26562 29.46875 146.5Q29.125 146.71875 28.65625 146.71875Q27.875 146.71875 27.34375 146.0625Q26.796875 145.40625 26.796875 144.375Q26.796875 143.29688 27.359375 142.64062Q27.90625 141.96875 28.765625 141.96875L28.765625 143.04688Q28.328125 143.04688 28.015625 143.4375Q27.6875 143.8125 27.6875 144.375Q27.6875 144.96875 27.953125 145.3125Q28.203125 145.64062 28.609375 145.64062Q29.0 145.64062 29.203125 145.32812Q29.40625 145.01562 29.59375 144.20312Q29.765625 143.39062 30.015625 142.89062Q30.265625 142.39062 30.625 142.15625Q30.984375 141.90625 31.484375 141.90625Q32.34375 141.90625 32.859375 142.59375Q33.375 143.26562 33.375 144.34375Q33.375 145.10938 33.109375 145.70312Q32.828125 146.28125 32.34375 146.60938Q31.859375 146.9375 31.296875 146.9375L31.296875 145.85938Q31.84375 145.82812 32.171875 145.42188Q32.484375 145.01562 32.484375 144.34375Q32.484375 143.73438 32.234375 143.35938Q31.984375 142.98438 31.5625 142.98438Z" fill-rule="nonzero"/><path fill="#757575" d="M74.3125 350.60938Q74.3125 352.51562 73.65625 353.45312Q73.015625 354.375 71.625 354.375Q70.265625 354.375 69.609375 353.46875Q68.953125 352.5625 68.921875 350.75L68.921875 349.3125Q68.921875 347.42188 69.5625 346.51562Q70.21875 345.59375 71.609375 345.59375Q72.984375 345.59375 73.640625 346.48438Q74.296875 347.35938 74.3125 349.20312L74.3125 350.60938ZM73.21875 349.125Q73.21875 347.75 72.828125 347.125Q72.453125 346.48438 71.609375 346.48438Q70.78125 346.48438 70.390625 347.125Q70.015625 347.75 70.015625 349.04688L70.015625 350.78125Q70.015625 352.15625 70.40625 352.82812Q70.8125 353.48438 71.625 353.48438Q72.421875 353.48438 72.8125 352.85938Q73.203125 352.23438 73.21875 350.90625L73.21875 349.125Z" fill-rule="nonzero"/><path fill="#757575" d="M69.453125 285.76874L69.890625 281.51874L74.265625 281.51874L74.265625 282.51874L70.8125 282.51874L70.546875 284.84686Q71.1875 284.47186 71.984375 284.47186Q73.140625 284.47186 73.828125 285.2531Q74.515625 286.01874 74.515625 287.33124Q74.515625 288.64374 73.796875 289.40936Q73.09375 290.175 71.8125 290.175Q70.6875 290.175 69.96875 289.55Q69.25 288.90936 69.15625 287.8L70.171875 287.8Q70.28125 288.53436 70.703125 288.90936Q71.125 289.28436 71.8125 289.28436Q72.5625 289.28436 73.0 288.76874Q73.4375 288.2531 73.4375 287.34686Q73.4375 286.4875 72.96875 285.97186Q72.5 285.45624 71.71875 285.45624Q71.015625 285.45624 70.609375 285.7531L70.328125 285.9875L69.453125 285.76874Z" fill-rule="nonzero"/><path fill="#757575" d="M65.515625 225.85L64.4375 225.85L64.4375 218.63126L62.25 219.42813L62.25 218.44376L65.359375 217.27188L65.515625 217.27188L65.515625 225.85ZM74.3125 222.20938Q74.3125 224.11563 73.65625 225.05313Q73.015625 225.975 71.625 225.975Q70.265625 225.975 69.609375 225.06876Q68.953125 224.1625 68.921875 222.35L68.921875 220.9125Q68.921875 219.02188 69.5625 218.11563Q70.21875 217.19376 71.609375 217.19376Q72.984375 217.19376 73.640625 218.08438Q74.296875 218.95938 74.3125 220.80313L74.3125 222.20938ZM73.21875 220.725Q73.21875 219.35 72.828125 218.725Q72.453125 218.08438 71.609375 218.08438Q70.78125 218.08438 70.390625 218.725Q70.015625 219.35 70.015625 220.64688L70.015625 222.38126Q70.015625 223.75626 70.40625 224.42813Q70.8125 225.08438 71.625 225.08438Q72.421875 225.08438 72.8125 224.45938Q73.203125 223.83438 73.21875 222.50626L73.21875 220.725Z" fill-rule="nonzero"/><path fill="#757575" d="M65.515625 161.65L64.4375 161.65L64.4375 154.43124L62.25 155.22812L62.25 154.24374L65.359375 153.07187L65.515625 153.07187L65.515625 161.65ZM69.453125 157.36874L69.890625 153.11874L74.265625 153.11874L74.265625 154.11874L70.8125 154.11874L70.546875 156.44687Q71.1875 156.07187 71.984375 156.07187Q73.140625 156.07187 73.828125 156.85312Q74.515625 157.61874 74.515625 158.93124Q74.515625 160.24374 73.796875 161.00937Q73.09375 161.775 71.8125 161.775Q70.6875 161.775 69.96875 161.15Q69.25 160.50937 69.15625 159.4L70.171875 159.4Q70.28125 160.13437 70.703125 160.50937Q71.125 160.88437 71.8125 160.88437Q72.5625 160.88437 73.0 160.36874Q73.4375 159.85312 73.4375 158.94687Q73.4375 158.0875 72.96875 157.57187Q72.5 157.05624 71.71875 157.05624Q71.015625 157.05624 70.609375 157.35312L70.328125 157.5875L69.453125 157.36874Z" fill-rule="nonzero"/><path fill="#757575" d="M67.546875 97.45L61.953125 97.45L61.953125 96.66875L64.90625 93.3875Q65.5625 92.6375 65.8125 92.18437Q66.0625 91.71562 66.0625 91.21562Q66.0625 90.54375 65.65625 90.12187Q65.265625 89.68437 64.578125 89.68437Q63.78125 89.68437 63.328125 90.15312Q62.875 90.60625 62.875 91.43437L61.796875 91.43437Q61.796875 90.24687 62.546875 89.52812Q63.3125 88.79375 64.578125 88.79375Q65.78125 88.79375 66.46875 89.41875Q67.15625 90.04375 67.15625 91.09062Q67.15625 92.34062 65.546875 94.09062L63.265625 96.55937L67.546875 96.55937L67.546875 97.45ZM74.3125 93.80937Q74.3125 95.71562 73.65625 96.65312Q73.015625 97.575 71.625 97.575Q70.265625 97.575 69.609375 96.66875Q68.953125 95.7625 68.921875 93.95L68.921875 92.5125Q68.921875 90.62187 69.5625 89.71562Q70.21875 88.79375 71.609375 88.79375Q72.984375 88.79375 73.640625 89.68437Q74.296875 90.55937 74.3125 92.40312L74.3125 93.80937ZM73.21875 92.325Q73.21875 90.95 72.828125 90.325Q72.453125 89.68437 71.609375 89.68437Q70.78125 89.68437 70.390625 90.325Q70.015625 90.95 70.015625 92.24687L70.015625 93.98125Q70.015625 95.35625 70.40625 96.02812Q70.8125 96.68437 71.625 96.68437Q72.421875 96.68437 72.8125 96.05937Q73.203125 95.43437 73.21875 94.10625L73.21875 92.325Z" fill-rule="nonzero"/><path fill="#757575" d="M67.546875 33.25L61.953125 33.25L61.953125 32.46875L64.90625 29.1875Q65.5625 28.4375 65.8125 27.984375Q66.0625 27.515625 66.0625 27.015625Q66.0625 26.34375 65.65625 25.921875Q65.265625 25.484375 64.578125 25.484375Q63.78125 25.484375 63.328125 25.953125Q62.875 26.40625 62.875 27.234375L61.796875 27.234375Q61.796875 26.046875 62.546875 25.328125Q63.3125 24.59375 64.578125 24.59375Q65.78125 24.59375 66.46875 25.21875Q67.15625 25.84375 67.15625 26.890625Q67.15625 28.140625 65.546875 29.890625L63.265625 32.359375L67.546875 32.359375L67.546875 33.25ZM69.453125 28.96875L69.890625 24.71875L74.265625 24.71875L74.265625 25.71875L70.8125 25.71875L70.546875 28.046875Q71.1875 27.671875 71.984375 27.671875Q73.140625 27.671875 73.828125 28.453125Q74.515625 29.21875 74.515625 30.53125Q74.515625 31.84375 73.796875 32.609375Q73.09375 33.375 71.8125 33.375Q70.6875 33.375 69.96875 32.75Q69.25 32.109375 69.15625 31.0L70.171875 31.0Q70.28125 31.734375 70.703125 32.109375Q71.125 32.484375 71.8125 32.484375Q72.5625 32.484375 73.0 31.96875Q73.4375 31.453125 73.4375 30.546875Q73.4375 29.6875 72.96875 29.171875Q72.5 28.65625 71.71875 28.65625Q71.015625 28.65625 70.609375 28.953125L70.328125 29.1875L69.453125 28.96875Z" fill-rule="nonzero"/><path fill="#757575" d="M114.46128 367.75L113.383156 367.75L113.383156 360.53125L111.195656 361.32812L111.195656 360.34375L114.30503 359.17188L114.46128 359.17188L114.46128 367.75Z" fill-rule="nonzero"/><path fill="#757575" d="M164.56017 367.75L158.96642 367.75L158.96642 366.96875L161.91954 363.6875Q162.57579 362.9375 162.82579 362.48438Q163.07579 362.01562 163.07579 361.51562Q163.07579 360.84375 162.66954 360.42188Q162.27892 359.98438 161.59142 359.98438Q160.79454 359.98438 160.34142 360.45312Q159.88829 360.90625 159.88829 361.73438L158.81017 361.73438Q158.81017 360.54688 159.56017 359.82812Q160.32579 359.09375 161.59142 359.09375Q162.79454 359.09375 163.48204 359.71875Q164.16954 360.34375 164.16954 361.39062Q164.16954 362.64062 162.56017 364.39062L160.27892 366.85938L164.56017 366.85938L164.56017 367.75Z" fill-rule="nonzero"/><path fill="#757575" d="M208.61217 362.95312L209.42467 362.95312Q210.20592 362.9375 210.64342 362.54688Q211.08092 362.15625 211.08092 361.48438Q211.08092 359.98438 209.58092 359.98438Q208.87779 359.98438 208.45592 360.39062Q208.04967 360.79688 208.04967 361.45312L206.95592 361.45312Q206.95592 360.4375 207.69029 359.76562Q208.44029 359.09375 209.58092 359.09375Q210.78404 359.09375 211.47154 359.73438Q212.15904 360.375 212.15904 361.51562Q212.15904 362.07812 211.79967 362.59375Q211.44029 363.10938 210.81529 363.375Q211.51842 363.59375 211.89342 364.10938Q212.28404 364.625 212.28404 365.375Q212.28404 366.51562 211.53404 367.20312Q210.78404 367.875 209.58092 367.875Q208.39342 367.875 207.62779 367.21875Q206.87779 366.5625 206.87779 365.5L207.97154 365.5Q207.97154 366.17188 208.40904 366.57812Q208.84654 366.98438 209.59654 366.98438Q210.37779 366.98438 210.78404 366.57812Q211.20592 366.15625 211.20592 365.39062Q211.20592 364.65625 210.75279 364.26562Q210.29967 363.85938 209.42467 363.84375L208.61217 363.84375L208.61217 362.95312Z" fill-rule="nonzero"/><path fill="#757575" d="M259.6798 364.89062L260.8673 364.89062L260.8673 365.76562L259.6798 365.76562L259.6798 367.75L258.60168 367.75L258.60168 365.76562L254.71104 365.76562L254.71104 365.125L258.52356 359.21875L259.6798 359.21875L259.6798 364.89062ZM255.94542 364.89062L258.60168 364.89062L258.60168 360.70312L258.46106 360.9375L255.94542 364.89062Z" fill-rule="nonzero"/><path fill="#757575" d="M303.6693 363.46875L304.1068 359.21875L308.4818 359.21875L308.4818 360.21875L305.0287 360.21875L304.76306 362.54688Q305.4037 362.17188 306.20056 362.17188Q307.3568 362.17188 308.0443 362.95312Q308.7318 363.71875 308.7318 365.03125Q308.7318 366.34375 308.01306 367.10938Q307.30994 367.875 306.0287 367.875Q304.9037 367.875 304.18494 367.25Q303.4662 366.60938 303.37244 365.5L304.38806 365.5Q304.49744 366.23438 304.9193 366.60938Q305.3412 366.98438 306.0287 366.98438Q306.7787 366.98438 307.2162 366.46875Q307.6537 365.95312 307.6537 365.04688Q307.6537 364.1875 307.18494 363.67188Q306.7162 363.15625 305.93494 363.15625Q305.2318 363.15625 304.82556 363.45312L304.5443 363.6875L303.6693 363.46875Z" fill-rule="nonzero"/><path fill="#757575" d="M355.50256 359.21875L355.50256 360.125L355.29944 360.125Q354.0338 360.15625 353.2838 360.89062Q352.5338 361.60938 352.4088 362.92188Q353.0963 362.15625 354.25256 362.15625Q355.36194 362.15625 356.0338 362.9375Q356.7057 363.71875 356.7057 364.96875Q356.7057 366.28125 355.98694 367.07812Q355.2682 367.875 354.04944 367.875Q352.8307 367.875 352.06506 366.9375Q351.31506 365.98438 351.31506 364.5L351.31506 364.09375Q351.31506 361.73438 352.31506 360.48438Q353.31506 359.23438 355.29944 359.21875L355.50256 359.21875ZM354.0807 363.0625Q353.5182 363.0625 353.04944 363.39062Q352.5807 363.71875 352.3932 364.23438L352.3932 364.625Q352.3932 365.6875 352.86194 366.32812Q353.3463 366.96875 354.04944 366.96875Q354.7838 366.96875 355.2057 366.4375Q355.62756 365.89062 355.62756 365.01562Q355.62756 364.14062 355.2057 363.60938Q354.7838 363.0625 354.0807 363.0625Z" fill-rule="nonzero"/><path fill="#757575" d="M404.8202 359.82812L401.28894 367.75L400.14832 367.75L403.66394 360.10938L399.05457 360.10938L399.05457 359.21875L404.8202 359.21875L404.8202 359.82812Z" fill-rule="nonzero"/><path fill="#757575" d="M452.5597 361.4375Q452.5597 362.07812 452.21594 362.57812Q451.8722 363.07812 451.3097 363.35938Q451.96594 363.64062 452.35657 364.20312Q452.7472 364.75 452.7472 365.45312Q452.7472 366.54688 451.9972 367.21875Q451.26282 367.875 450.04407 367.875Q448.8097 367.875 448.0597 367.21875Q447.32532 366.54688 447.32532 365.45312Q447.32532 364.75 447.70032 364.20312Q448.07532 363.64062 448.7472 363.35938Q448.1847 363.07812 447.85657 362.57812Q447.52844 362.07812 447.52844 361.4375Q447.52844 360.35938 448.21594 359.73438Q448.90344 359.09375 450.04407 359.09375Q451.16907 359.09375 451.85657 359.73438Q452.5597 360.35938 452.5597 361.4375ZM451.66907 365.42188Q451.66907 364.70312 451.21594 364.26562Q450.76282 363.8125 450.02844 363.8125Q449.29407 363.8125 448.84094 364.26562Q448.40344 364.70312 448.40344 365.4375Q448.40344 366.15625 448.84094 366.57812Q449.27844 366.98438 450.04407 366.98438Q450.79407 366.98438 451.23157 366.5625Q451.66907 366.14062 451.66907 365.42188ZM450.04407 359.98438Q449.40344 359.98438 448.9972 360.39062Q448.60657 360.78125 448.60657 361.46875Q448.60657 362.10938 448.9972 362.51562Q449.38782 362.92188 450.02844 362.92188Q450.6847 362.92188 451.07532 362.51562Q451.46594 362.10938 451.46594 361.46875Q451.46594 360.8125 451.0597 360.40625Q450.65344 359.98438 450.04407 359.98438Z" fill-rule="nonzero"/><path fill="#757575" d="M499.5961 364.0Q499.26797 364.40625 498.7836 364.65625Q498.31485 364.89062 497.75235 364.89062Q497.01797 364.89062 496.4711 364.53125Q495.92422 364.17188 495.62735 363.51562Q495.33047 362.84375 495.33047 362.04688Q495.33047 361.20312 495.64297 360.51562Q495.9711 359.82812 496.56485 359.46875Q497.17422 359.09375 497.9711 359.09375Q499.23672 359.09375 499.95547 360.04688Q500.68985 361.0 500.68985 362.625L500.68985 362.9375Q500.68985 365.4375 499.70547 366.57812Q498.7211 367.71875 496.73672 367.75L496.51797 367.75L496.51797 366.84375L496.75235 366.84375Q498.0961 366.8125 498.81485 366.14062Q499.5336 365.46875 499.5961 364.0ZM497.92422 364.0Q498.4711 364.0 498.92422 363.67188Q499.39297 363.32812 499.61172 362.84375L499.61172 362.40625Q499.61172 361.34375 499.14297 360.67188Q498.67422 360.0 497.9711 360.0Q497.25235 360.0 496.81485 360.54688Q496.39297 361.09375 496.39297 362.0Q496.39297 362.875 496.79922 363.4375Q497.2211 364.0 497.92422 364.0Z" fill-rule="nonzero"/><path fill="#757575" d="M543.56995 367.75L542.4918 367.75L542.4918 360.53125L540.3043 361.32812L540.3043 360.34375L543.4137 359.17188L543.56995 359.17188L543.56995 367.75ZM552.3668 364.10938Q552.3668 366.01562 551.7106 366.95312Q551.06995 367.875 549.6793 367.875Q548.31995 367.875 547.6637 366.96875Q547.00745 366.0625 546.9762 364.25L546.9762 362.8125Q546.9762 360.92188 547.6168 360.01562Q548.2731 359.09375 549.6637 359.09375Q551.0387 359.09375 551.69495 359.98438Q552.3512 360.85938 552.3668 362.70312L552.3668 364.10938ZM551.2731 362.625Q551.2731 361.25 550.88245 360.625Q550.50745 359.98438 549.6637 359.98438Q548.8356 359.98438 548.44495 360.625Q548.06995 361.25 548.06995 362.54688L548.06995 364.28125Q548.06995 365.65625 548.4606 366.32812Q548.8668 366.98438 549.6793 366.98438Q550.4762 366.98438 550.8668 366.35938Q551.25745 365.73438 551.2731 364.40625L551.2731 362.625Z" fill-rule="nonzero"/></svg>
