<svg version="1.1" viewBox="0.0 0.0 777.0 371.0" fill="none" stroke="none" stroke-linecap="square" stroke-miterlimit="10" width="777" height="371" xmlns:xlink="http://www.w3.org/1999/xlink" xmlns="http://www.w3.org/2000/svg"><path fill="#ffffff" d="M0 0L777.0 0L777.0 371.0L0 371.0L0 0Z" fill-rule="nonzero"/><path fill="#0f9d58" d="M302.23703 42.562935C328.26834 26.852972 358.09555 18.55 388.5 18.55L388.5 102.025C373.29776 102.025 358.38416 106.17648 345.36853 114.03147Z" fill-rule="nonzero"/><path fill="#f4b400" d="M247.26257 96.48152C261.1356 74.47047 279.96112 56.006527 302.23703 42.562935L345.36853 114.03147C334.23056 120.753265 324.8178 129.98523 317.8813 140.99075Z" fill-rule="nonzero"/><path fill="#db4437" d="M331.39975 342.38168C283.96152 325.11557 246.88353 287.3115 230.54056 239.54738C214.1976 191.78328 220.34497 139.1892 247.26257 96.48152L317.8813 140.99075C304.4225 162.3446 301.34882 188.64163 309.5203 212.5237C317.69177 236.40575 336.23077 255.30779 359.94986 263.94083Z" fill-rule="nonzero"/><path fill="#4285f4" d="M388.5 18.55C455.14206 18.55 515.40063 58.182667 541.7962 119.37448C568.1918 180.5663 555.6676 251.59436 509.93503 300.06805C464.20248 348.54172 394.0228 365.17462 331.39975 342.38168L359.94986 263.94083C391.26138 275.3373 426.35123 267.02087 449.21753 242.78403C472.0838 218.54718 478.3459 183.03316 465.1481 152.43724C451.95032 121.84133 421.82104 102.025 388.5 102.025Z" fill-rule="nonzero"/><path fill="#757575" d="M26.096874 26.565624Q26.096874 27.815624 25.675 28.753124Q25.253124 29.675 24.471874 30.175Q23.70625 30.675 22.675 30.675Q21.675 30.675 20.89375 30.175Q20.1125 29.675 19.675 28.76875Q19.253124 27.846874 19.2375 26.628124L19.2375 26.01875Q19.2375 24.784374 19.659374 23.846874Q20.096874 22.909374 20.878124 22.409374Q21.659374 21.89375 22.675 21.89375Q23.690624 21.89375 24.471874 22.39375Q25.253124 22.89375 25.675 23.83125Q26.096874 24.76875 26.096874 26.01875L26.096874 26.565624ZM24.9875 26.003124Q24.9875 24.4875 24.378124 23.675Q23.76875 22.8625 22.675 22.8625Q21.596874 22.8625 20.9875 23.675Q20.378124 24.4875 20.3625 25.925L20.3625 26.565624Q20.3625 28.034374 20.971874 28.878124Q21.596874 29.70625 22.675 29.70625Q23.76875 29.70625 24.3625 28.925Q24.971874 28.128124 24.9875 26.64375L24.9875 26.003124ZM28.39375 24.20625L28.425 25.003124Q29.159374 24.096874 30.33125 24.096874Q32.346874 24.096874 32.3625 26.3625L32.3625 30.55L31.26875 30.55L31.26875 26.346874Q31.26875 25.675 30.95625 25.346874Q30.659374 25.01875 30.003124 25.01875Q29.471874 25.01875 29.065624 25.3Q28.675 25.58125 28.45625 26.034374L28.45625 30.55L27.378124 30.55L27.378124 24.20625L28.39375 24.20625ZM35.55 30.55L34.471874 30.55L34.471874 21.55L35.55 21.55L35.55 30.55ZM39.440624 28.95625L40.925 24.20625L42.08125 24.20625L39.534374 31.534374Q38.940624 33.1125 37.659374 33.1125L37.440624 33.096874L37.05 33.01875L37.05 32.14375L37.33125 32.159374Q37.89375 32.159374 38.190624 31.940624Q38.503124 31.721874 38.70625 31.128124L38.940624 30.471874L36.675 24.20625L37.8625 24.20625L39.440624 28.95625ZM49.815624 30.55L48.7375 30.55L48.7375 23.33125L46.55 24.128124L46.55 23.14375L49.659374 21.971874L49.815624 21.971874L49.815624 30.55ZM61.721874 27.45625Q61.721874 28.89375 61.065624 29.784374Q60.409374 30.675 59.26875 30.675Q58.1125 30.675 57.45625 29.940624L57.45625 32.9875L56.378124 32.9875L56.378124 24.20625L57.3625 24.20625L57.409374 24.909374Q58.08125 24.096874 59.253124 24.096874Q60.39375 24.096874 61.05 24.95625Q61.721874 25.815624 61.721874 27.346874L61.721874 27.45625ZM60.64375 27.33125Q60.64375 26.253124 60.175 25.64375Q59.721874 25.01875 58.925 25.01875Q57.940624 25.01875 57.45625 25.878124L57.45625 28.909374Q57.940624 29.784374 58.940624 29.784374Q59.721874 29.784374 60.175 29.175Q60.64375 28.55 60.64375 27.33125ZM64.55 30.55L63.471874 30.55L63.471874 21.55L64.55 21.55L64.55 30.55ZM70.28438 30.55Q70.19063 30.3625 70.12813 29.878124Q69.37813 30.675 68.33125 30.675Q67.39375 30.675 66.78438 30.14375Q66.19063 29.6125 66.19063 28.784374Q66.19063 27.8 66.94063 27.253124Q67.69063 26.70625 69.06563 26.70625L70.1125 26.70625L70.1125 26.20625Q70.1125 25.64375 69.76875 25.315624Q69.44063 24.971874 68.76875 24.971874Q68.19063 24.971874 67.8 25.26875Q67.40938 25.55 67.40938 25.971874L66.31563 25.971874Q66.31563 25.4875 66.64375 25.05Q66.9875 24.6125 67.56563 24.3625Q68.14375 24.096874 68.83125 24.096874Q69.94063 24.096874 70.55 24.64375Q71.175 25.190624 71.20625 26.14375L71.20625 29.065624Q71.20625 29.940624 71.425 30.45625L71.425 30.55L70.28438 30.55ZM68.4875 29.721874Q69.00313 29.721874 69.45625 29.45625Q69.90938 29.190624 70.1125 28.76875L70.1125 27.471874L69.26875 27.471874Q67.26875 27.471874 67.26875 28.64375Q67.26875 29.14375 67.6125 29.440624Q67.95625 29.721874 68.4875 29.721874ZM74.39375 24.20625L74.425 25.003124Q75.15938 24.096874 76.33125 24.096874Q78.34688 24.096874 78.3625 26.3625L78.3625 30.55L77.26875 30.55L77.26875 26.346874Q77.26875 25.675 76.95625 25.346874Q76.65938 25.01875 76.00313 25.01875Q75.47188 25.01875 75.06563 25.3Q74.675 25.58125 74.45625 26.034374L74.45625 30.55L73.37813 30.55L73.37813 24.20625L74.39375 24.20625ZM81.39375 24.20625L81.425 25.003124Q82.15938 24.096874 83.33125 24.096874Q85.34688 24.096874 85.3625 26.3625L85.3625 30.55L84.26875 30.55L84.26875 26.346874Q84.26875 25.675 83.95625 25.346874Q83.65938 25.01875 83.00313 25.01875Q82.47188 25.01875 82.06563 25.3Q81.675 25.58125 81.45625 26.034374L81.45625 30.55L80.37813 30.55L80.37813 24.20625L81.39375 24.20625ZM90.00313 30.675Q88.70625 30.675 87.89375 29.83125Q87.09688 28.971874 87.09688 27.55L87.09688 27.3625Q87.09688 26.409374 87.45625 25.675Q87.81563 24.925 88.45625 24.51875Q89.1125 24.096874 89.8625 24.096874Q91.09688 24.096874 91.78438 24.909374Q92.47188 25.721874 92.47188 27.2375L92.47188 27.690624L88.175 27.690624Q88.20625 28.628124 88.72188 29.20625Q89.25313 29.784374 90.06563 29.784374Q90.62813 29.784374 91.01875 29.55Q91.425 29.315624 91.7375 28.925L92.39375 29.440624Q91.59688 30.675 90.00313 30.675ZM89.8625 24.9875Q89.20625 24.9875 88.75313 25.471874Q88.31563 25.940624 88.22188 26.8L91.39375 26.8L91.39375 26.721874Q91.34688 25.89375 90.94063 25.440624Q90.55 24.9875 89.8625 24.9875ZM93.1125 27.33125Q93.1125 25.8625 93.8 24.9875Q94.4875 24.096874 95.6125 24.096874Q96.72188 24.096874 97.37813 24.846874L97.37813 21.55L98.45625 21.55L98.45625 30.55L97.45625 30.55L97.40938 29.8625Q96.75313 30.675 95.59688 30.675Q94.50313 30.675 93.8 29.76875Q93.1125 28.8625 93.1125 27.409374L93.1125 27.33125ZM94.19063 27.45625Q94.19063 28.534374 94.62813 29.14375Q95.08125 29.753124 95.8625 29.753124Q96.89375 29.753124 97.37813 28.815624L97.37813 25.909374Q96.89375 25.01875 95.87813 25.01875Q95.08125 25.01875 94.62813 25.628124Q94.19063 26.2375 94.19063 27.45625ZM104.55 30.55L103.47188 30.55L103.47188 24.20625L104.55 24.20625L104.55 30.55ZM103.37813 22.534374Q103.37813 22.26875 103.53438 22.08125Q103.70625 21.89375 104.01875 21.89375Q104.33125 21.89375 104.4875 22.08125Q104.65938 22.26875 104.65938 22.534374Q104.65938 22.784374 104.4875 22.971874Q104.33125 23.14375 104.01875 23.14375Q103.70625 23.14375 103.53438 22.971874Q103.37813 22.784374 103.37813 22.534374ZM107.39375 24.20625L107.425 24.909374Q108.1125 24.096874 109.3 24.096874Q110.62813 24.096874 111.1125 25.1125Q111.425 24.659374 111.925 24.378124Q112.44063 24.096874 113.12813 24.096874Q115.22188 24.096874 115.25313 26.3L115.25313 30.55L114.175 30.55L114.175 26.3625Q114.175 25.690624 113.8625 25.3625Q113.55 25.01875 112.81563 25.01875Q112.20625 25.01875 111.8 25.378124Q111.40938 25.7375 111.34688 26.346874L111.34688 30.55L110.26875 30.55L110.26875 26.39375Q110.26875 25.01875 108.90938 25.01875Q107.84688 25.01875 107.45625 25.925L107.45625 30.55L106.3625 30.55L106.3625 24.20625L107.39375 24.20625ZM122.72188 27.45625Q122.72188 28.89375 122.06563 29.784374Q121.40938 30.675 120.26875 30.675Q119.1125 30.675 118.45625 29.940624L118.45625 32.9875L117.37813 32.9875L117.37813 24.20625L118.3625 24.20625L118.40938 24.909374Q119.08125 24.096874 120.25313 24.096874Q121.39375 24.096874 122.05 24.95625Q122.72188 25.815624 122.72188 27.346874L122.72188 27.45625ZM121.64375 27.33125Q121.64375 26.253124 121.175 25.64375Q120.72188 25.01875 119.925 25.01875Q118.94063 25.01875 118.45625 25.878124L118.45625 28.909374Q118.94063 29.784374 119.94063 29.784374Q120.72188 29.784374 121.175 29.175Q121.64375 28.55 121.64375 27.33125ZM125.55 30.55L124.47188 30.55L124.47188 21.55L125.55 21.55L125.55 30.55ZM130.00313 30.675Q128.70625 30.675 127.89375 29.83125Q127.09688 28.971874 127.09688 27.55L127.09688 27.3625Q127.09688 26.409374 127.45625 25.675Q127.81563 24.925 128.45625 24.51875Q129.1125 24.096874 129.8625 24.096874Q131.09688 24.096874 131.78438 24.909374Q132.47188 25.721874 132.47188 27.2375L132.47188 27.690624L128.175 27.690624Q128.20625 28.628124 128.72188 29.20625Q129.25313 29.784374 130.06563 29.784374Q130.62813 29.784374 131.01875 29.55Q131.425 29.315624 131.7375 28.925L132.39375 29.440624Q131.59688 30.675 130.00313 30.675ZM129.8625 24.9875Q129.20625 24.9875 128.75313 25.471874Q128.31563 25.940624 128.22188 26.8L131.39375 26.8L131.39375 26.721874Q131.34688 25.89375 130.94063 25.440624Q130.55 24.9875 129.8625 24.9875ZM134.39375 24.20625L134.425 24.909374Q135.1125 24.096874 136.3 24.096874Q137.62813 24.096874 138.1125 25.1125Q138.425 24.659374 138.925 24.378124Q139.44063 24.096874 140.12813 24.096874Q142.22188 24.096874 142.25313 26.3L142.25313 30.55L141.175 30.55L141.175 26.3625Q141.175 25.690624 140.8625 25.3625Q140.55 25.01875 139.81563 25.01875Q139.20625 25.01875 138.8 25.378124Q138.40938 25.7375 138.34688 26.346874L138.34688 30.55L137.26875 30.55L137.26875 26.39375Q137.26875 25.01875 135.90938 25.01875Q134.84688 25.01875 134.45625 25.925L134.45625 30.55L133.3625 30.55L133.3625 24.20625L134.39375 24.20625ZM147.00313 30.675Q145.70625 30.675 144.89375 29.83125Q144.09688 28.971874 144.09688 27.55L144.09688 27.3625Q144.09688 26.409374 144.45625 25.675Q144.81563 24.925 145.45625 24.51875Q146.1125 24.096874 146.8625 24.096874Q148.09688 24.096874 148.78438 24.909374Q149.47188 25.721874 149.47188 27.2375L149.47188 27.690624L145.175 27.690624Q145.20625 28.628124 145.72188 29.20625Q146.25313 29.784374 147.06563 29.784374Q147.62813 29.784374 148.01875 29.55Q148.425 29.315624 148.7375 28.925L149.39375 29.440624Q148.59688 30.675 147.00313 30.675ZM146.8625 24.9875Q146.20625 24.9875 145.75313 25.471874Q145.31563 25.940624 145.22188 26.8L148.39375 26.8L148.39375 26.721874Q148.34688 25.89375 147.94063 25.440624Q147.55 24.9875 146.8625 24.9875ZM151.39375 24.20625L151.425 25.003124Q152.15938 24.096874 153.33125 24.096874Q155.34688 24.096874 155.3625 26.3625L155.3625 30.55L154.26875 30.55L154.26875 26.346874Q154.26875 25.675 153.95625 25.346874Q153.65938 25.01875 153.00313 25.01875Q152.47188 25.01875 152.06563 25.3Q151.675 25.58125 151.45625 26.034374L151.45625 30.55L150.37813 30.55L150.37813 24.20625L151.39375 24.20625ZM158.84688 22.675L158.84688 24.20625L160.01875 24.20625L160.01875 25.05L158.84688 25.05L158.84688 28.971874Q158.84688 29.3625 159.00313 29.55Q159.15938 29.7375 159.53438 29.7375Q159.72188 29.7375 160.05 29.675L160.05 30.55Q159.62813 30.675 159.22188 30.675Q158.50313 30.675 158.12813 30.2375Q157.75313 29.784374 157.75313 28.971874L157.75313 25.05L156.59688 25.05L156.59688 24.20625L157.75313 24.20625L157.75313 22.675L158.84688 22.675ZM165.28438 30.55Q165.19063 30.3625 165.12813 29.878124Q164.37813 30.675 163.33125 30.675Q162.39375 30.675 161.78438 30.14375Q161.19063 29.6125 161.19063 28.784374Q161.19063 27.8 161.94063 27.253124Q162.69063 26.70625 164.06563 26.70625L165.1125 26.70625L165.1125 26.20625Q165.1125 25.64375 164.76875 25.315624Q164.44063 24.971874 163.76875 24.971874Q163.19063 24.971874 162.8 25.26875Q162.40938 25.55 162.40938 25.971874L161.31563 25.971874Q161.31563 25.4875 161.64375 25.05Q161.9875 24.6125 162.56563 24.3625Q163.14375 24.096874 163.83125 24.096874Q164.94063 24.096874 165.55 24.64375Q166.175 25.190624 166.20625 26.14375L166.20625 29.065624Q166.20625 29.940624 166.425 30.45625L166.425 30.55L165.28438 30.55ZM163.4875 29.721874Q164.00313 29.721874 164.45625 29.45625Q164.90938 29.190624 165.1125 28.76875L165.1125 27.471874L164.26875 27.471874Q162.26875 27.471874 162.26875 28.64375Q162.26875 29.14375 162.6125 29.440624Q162.95625 29.721874 163.4875 29.721874ZM169.84688 22.675L169.84688 24.20625L171.01875 24.20625L171.01875 25.05L169.84688 25.05L169.84688 28.971874Q169.84688 29.3625 170.00313 29.55Q170.15938 29.7375 170.53438 29.7375Q170.72188 29.7375 171.05 29.675L171.05 30.55Q170.62813 30.675 170.22188 30.675Q169.50313 30.675 169.12813 30.2375Q168.75313 29.784374 168.75313 28.971874L168.75313 25.05L167.59688 25.05L167.59688 24.20625L168.75313 24.20625L168.75313 22.675L169.84688 22.675ZM173.55 30.55L172.47188 30.55L172.47188 24.20625L173.55 24.20625L173.55 30.55ZM172.37813 22.534374Q172.37813 22.26875 172.53438 22.08125Q172.70625 21.89375 173.01875 21.89375Q173.33125 21.89375 173.4875 22.08125Q173.65938 22.26875 173.65938 22.534374Q173.65938 22.784374 173.4875 22.971874Q173.33125 23.14375 173.01875 23.14375Q172.70625 23.14375 172.53438 22.971874Q172.37813 22.784374 172.37813 22.534374ZM175.08125 27.315624Q175.08125 26.39375 175.44063 25.64375Q175.81563 24.89375 176.47188 24.503124Q177.12813 24.096874 177.95625 24.096874Q179.25313 24.096874 180.05 24.9875Q180.8625 25.878124 180.8625 27.378124L180.8625 27.45625Q180.8625 28.378124 180.50313 29.1125Q180.14375 29.846874 179.4875 30.26875Q178.83125 30.675 177.97188 30.675Q176.69063 30.675 175.87813 29.784374Q175.08125 28.878124 175.08125 27.39375L175.08125 27.315624ZM176.175 27.45625Q176.175 28.503124 176.65938 29.14375Q177.15938 29.784374 177.97188 29.784374Q178.8 29.784374 179.28438 29.14375Q179.76875 28.4875 179.76875 27.315624Q179.76875 26.284374 179.26875 25.64375Q178.78438 24.9875 177.95625 24.9875Q177.15938 24.9875 176.65938 25.628124Q176.175 26.253124 176.175 27.45625ZM183.39375 24.20625L183.425 25.003124Q184.15938 24.096874 185.33125 24.096874Q187.34688 24.096874 187.3625 26.3625L187.3625 30.55L186.26875 30.55L186.26875 26.346874Q186.26875 25.675 185.95625 25.346874Q185.65938 25.01875 185.00313 25.01875Q184.47188 25.01875 184.06563 25.3Q183.675 25.58125 183.45625 26.034374L183.45625 30.55L182.37813 30.55L182.37813 24.20625L183.39375 24.20625Z" fill-rule="nonzero"/><path fill="#9e9e9e" d="M24.440624 42.2375Q24.440624 42.878124 24.096874 43.378124Q23.753124 43.878124 23.190624 44.159374Q23.846874 44.440624 24.2375 45.003124Q24.628124 45.55 24.628124 46.253124Q24.628124 47.346874 23.878124 48.01875Q23.14375 48.675 21.925 48.675Q20.690624 48.675 19.940624 48.01875Q19.20625 47.346874 19.20625 46.253124Q19.20625 45.55 19.58125 45.003124Q19.95625 44.440624 20.628124 44.159374Q20.065624 43.878124 19.7375 43.378124Q19.409374 42.878124 19.409374 42.2375Q19.409374 41.159374 20.096874 40.534374Q20.784374 39.89375 21.925 39.89375Q23.05 39.89375 23.7375 40.534374Q24.440624 41.159374 24.440624 42.2375ZM23.55 46.221874Q23.55 45.503124 23.096874 45.065624Q22.64375 44.6125 21.909374 44.6125Q21.175 44.6125 20.721874 45.065624Q20.284374 45.503124 20.284374 46.2375Q20.284374 46.95625 20.721874 47.378124Q21.159374 47.784374 21.925 47.784374Q22.675 47.784374 23.1125 47.3625Q23.55 46.940624 23.55 46.221874ZM21.925 40.784374Q21.284374 40.784374 20.878124 41.190624Q20.4875 41.58125 20.4875 42.26875Q20.4875 42.909374 20.878124 43.315624Q21.26875 43.721874 21.909374 43.721874Q22.565624 43.721874 22.95625 43.315624Q23.346874 42.909374 23.346874 42.26875Q23.346874 41.6125 22.940624 41.20625Q22.534374 40.784374 21.925 40.784374ZM26.39375 47.9875Q26.39375 47.70625 26.55 47.51875Q26.721874 47.33125 27.05 47.33125Q27.39375 47.33125 27.565624 47.51875Q27.7375 47.70625 27.7375 47.9875Q27.7375 48.253124 27.565624 48.440624Q27.39375 48.6125 27.05 48.6125Q26.721874 48.6125 26.55 48.440624Q26.39375 48.253124 26.39375 47.9875ZM33.51875 40.01875L33.51875 40.925L33.315624 40.925Q32.05 40.95625 31.3 41.690624Q30.55 42.409374 30.425 43.721874Q31.1125 42.95625 32.26875 42.95625Q33.378124 42.95625 34.05 43.7375Q34.721874 44.51875 34.721874 45.76875Q34.721874 47.08125 34.003124 47.878124Q33.284374 48.675 32.065624 48.675Q30.846874 48.675 30.08125 47.7375Q29.33125 46.784374 29.33125 45.3L29.33125 44.89375Q29.33125 42.534374 30.33125 41.284374Q31.33125 40.034374 33.315624 40.01875L33.51875 40.01875ZM32.096874 43.8625Q31.534374 43.8625 31.065624 44.190624Q30.596874 44.51875 30.409374 45.034374L30.409374 45.425Q30.409374 46.4875 30.878124 47.128124Q31.3625 47.76875 32.065624 47.76875Q32.8 47.76875 33.221874 47.2375Q33.64375 46.690624 33.64375 45.815624Q33.64375 44.940624 33.221874 44.409374Q32.8 43.8625 32.096874 43.8625ZM36.159374 41.659374Q36.159374 40.89375 36.64375 40.39375Q37.14375 39.89375 37.909374 39.89375Q38.690624 39.89375 39.175 40.39375Q39.659374 40.89375 39.659374 41.690624L39.659374 42.1125Q39.659374 42.878124 39.159374 43.378124Q38.675 43.8625 37.925 43.8625Q37.159374 43.8625 36.659374 43.378124Q36.159374 42.878124 36.159374 42.065624L36.159374 41.659374ZM36.971874 42.1125Q36.971874 42.565624 37.221874 42.8625Q37.4875 43.159374 37.925 43.159374Q38.346874 43.159374 38.596874 42.878124Q38.846874 42.58125 38.846874 42.08125L38.846874 41.659374Q38.846874 41.20625 38.596874 40.909374Q38.346874 40.596874 37.909374 40.596874Q37.471874 40.596874 37.221874 40.909374Q36.971874 41.20625 36.971874 41.675L36.971874 42.1125ZM40.315624 46.45625Q40.315624 45.690624 40.8 45.20625Q41.3 44.70625 42.065624 44.70625Q42.83125 44.70625 43.315624 45.20625Q43.815624 45.690624 43.815624 46.503124L43.815624 46.909374Q43.815624 47.675 43.33125 48.175Q42.846874 48.675 42.08125 48.675Q41.315624 48.675 40.815624 48.190624Q40.315624 47.690624 40.315624 46.878124L40.315624 46.45625ZM41.128124 46.909374Q41.128124 47.378124 41.378124 47.675Q41.64375 47.971874 42.08125 47.971874Q42.503124 47.971874 42.753124 47.690624Q43.003124 47.39375 43.003124 46.89375L43.003124 46.45625Q43.003124 45.9875 42.7375 45.70625Q42.4875 45.409374 42.065624 45.409374Q41.64375 45.409374 41.378124 45.70625Q41.128124 45.9875 41.128124 46.4875L41.128124 46.909374ZM38.175 47.909374L37.55 47.51875L41.721874 40.846874L42.33125 41.2375L38.175 47.909374Z" fill-rule="nonzero"/><path stroke="#757575" stroke-width="1.0" stroke-linecap="butt" d="M18.55 35.05L215.55 35.05L345.96716 32.70697" fill-rule="nonzero"/><path fill="#9e9e9e" d="M347.96716 32.70697C347.96716 31.6024 347.07172 30.70697 345.96716 30.70697C344.86258 30.70697 343.96716 31.6024 343.96716 32.70697C343.96716 33.81154 344.86258 34.70697 345.96716 34.70697C347.07172 34.70697 347.96716 33.81154 347.96716 32.70697" fill-rule="nonzero"/><path fill="#757575" d="M24.846874 67.76896L19.253124 67.76896L19.253124 66.98771L22.20625 63.70646Q22.8625 62.95646 23.1125 62.503334Q23.3625 62.034584 23.3625 61.534584Q23.3625 60.86271 22.95625 60.440834Q22.565624 60.003334 21.878124 60.003334Q21.08125 60.003334 20.628124 60.472084Q20.175 60.92521 20.175 61.753334L19.096874 61.753334Q19.096874 60.565834 19.846874 59.847084Q20.6125 59.11271 21.878124 59.11271Q23.08125 59.11271 23.76875 59.73771Q24.45625 60.36271 24.45625 61.409584Q24.45625 62.659584 22.846874 64.409584L20.565624 66.878334L24.846874 66.878334L24.846874 67.76896ZM29.08125 64.534584Q29.08125 63.61271 29.440624 62.86271Q29.815624 62.11271 30.471874 61.722084Q31.128124 61.315834 31.95625 61.315834Q33.253124 61.315834 34.05 62.20646Q34.8625 63.097084 34.8625 64.597084L34.8625 64.67521Q34.8625 65.597084 34.503124 66.33146Q34.14375 67.065834 33.4875 67.48771Q32.83125 67.89396 31.971874 67.89396Q30.690624 67.89396 29.878124 67.003334Q29.08125 66.097084 29.08125 64.61271L29.08125 64.534584ZM30.175 64.67521Q30.175 65.722084 30.659374 66.36271Q31.159374 67.003334 31.971874 67.003334Q32.8 67.003334 33.284374 66.36271Q33.76875 65.70646 33.76875 64.534584Q33.76875 63.503334 33.26875 62.86271Q32.784374 62.20646 31.95625 62.20646Q31.159374 62.20646 30.659374 62.847084Q30.175 63.472084 30.175 64.67521ZM39.440624 62.39396Q39.190624 62.36271 38.909374 62.36271Q37.83125 62.36271 37.45625 63.26896L37.45625 67.76896L36.378124 67.76896L36.378124 61.42521L37.425 61.42521L37.440624 62.159584Q37.971874 61.315834 38.95625 61.315834Q39.26875 61.315834 39.440624 61.39396L39.440624 62.39396ZM44.39375 61.42521L44.425 62.128334Q45.1125 61.315834 46.3 61.315834Q47.628124 61.315834 48.1125 62.33146Q48.425 61.878334 48.925 61.597084Q49.440624 61.315834 50.128124 61.315834Q52.221874 61.315834 52.253124 63.51896L52.253124 67.76896L51.175 67.76896L51.175 63.58146Q51.175 62.909584 50.8625 62.58146Q50.55 62.23771 49.815624 62.23771Q49.20625 62.23771 48.8 62.597084Q48.409374 62.95646 48.346874 63.565834L48.346874 67.76896L47.26875 67.76896L47.26875 63.61271Q47.26875 62.23771 45.909374 62.23771Q44.846874 62.23771 44.45625 63.14396L44.45625 67.76896L43.3625 67.76896L43.3625 61.42521L44.39375 61.42521ZM54.08125 64.534584Q54.08125 63.61271 54.440624 62.86271Q54.815624 62.11271 55.471874 61.722084Q56.128124 61.315834 56.95625 61.315834Q58.253124 61.315834 59.05 62.20646Q59.8625 63.097084 59.8625 64.597084L59.8625 64.67521Q59.8625 65.597084 59.503124 66.33146Q59.14375 67.065834 58.4875 67.48771Q57.83125 67.89396 56.971874 67.89396Q55.690624 67.89396 54.878124 67.003334Q54.08125 66.097084 54.08125 64.61271L54.08125 64.534584ZM55.175 64.67521Q55.175 65.722084 55.659374 66.36271Q56.159374 67.003334 56.971874 67.003334Q57.8 67.003334 58.284374 66.36271Q58.76875 65.70646 58.76875 64.534584Q58.76875 63.503334 58.26875 62.86271Q57.784374 62.20646 56.95625 62.20646Q56.159374 62.20646 55.659374 62.847084Q55.175 63.472084 55.175 64.67521ZM64.44063 62.39396Q64.19063 62.36271 63.909374 62.36271Q62.83125 62.36271 62.45625 63.26896L62.45625 67.76896L61.378124 67.76896L61.378124 61.42521L62.425 61.42521L62.440624 62.159584Q62.971874 61.315834 63.95625 61.315834Q64.26875 61.315834 64.44063 61.39396L64.44063 62.39396ZM68.00313 67.89396Q66.70625 67.89396 65.89375 67.05021Q65.09688 66.190834 65.09688 64.76896L65.09688 64.58146Q65.09688 63.628334 65.45625 62.89396Q65.81563 62.14396 66.45625 61.73771Q67.1125 61.315834 67.8625 61.315834Q69.09688 61.315834 69.78438 62.128334Q70.47188 62.940834 70.47188 64.45646L70.47188 64.909584L66.175 64.909584Q66.20625 65.847084 66.72188 66.42521Q67.25313 67.003334 68.06563 67.003334Q68.62813 67.003334 69.01875 66.76896Q69.425 66.534584 69.7375 66.14396L70.39375 66.659584Q69.59688 67.89396 68.00313 67.89396ZM67.8625 62.20646Q67.20625 62.20646 66.75313 62.690834Q66.31563 63.159584 66.22188 64.01896L69.39375 64.01896L69.39375 63.940834Q69.34688 63.11271 68.94063 62.659584Q68.55 62.20646 67.8625 62.20646ZM79.72188 64.67521Q79.72188 66.11271 79.06563 67.003334Q78.40938 67.89396 77.26875 67.89396Q76.1125 67.89396 75.45625 67.159584L75.45625 70.20646L74.37813 70.20646L74.37813 61.42521L75.3625 61.42521L75.40938 62.128334Q76.08125 61.315834 77.25313 61.315834Q78.39375 61.315834 79.05 62.17521Q79.72188 63.034584 79.72188 64.565834L79.72188 64.67521ZM78.64375 64.55021Q78.64375 63.472084 78.175 62.86271Q77.72188 62.23771 76.925 62.23771Q75.94063 62.23771 75.45625 63.097084L75.45625 66.128334Q75.94063 67.003334 76.94063 67.003334Q77.72188 67.003334 78.175 66.39396Q78.64375 65.76896 78.64375 64.55021ZM82.55 67.76896L81.47188 67.76896L81.47188 58.76896L82.55 58.76896L82.55 67.76896ZM88.28438 67.76896Q88.19063 67.58146 88.12813 67.097084Q87.37813 67.89396 86.33125 67.89396Q85.39375 67.89396 84.78438 67.36271Q84.19063 66.83146 84.19063 66.003334Q84.19063 65.01896 84.94063 64.472084Q85.69063 63.92521 87.06563 63.92521L88.1125 63.92521L88.1125 63.42521Q88.1125 62.86271 87.76875 62.534584Q87.44063 62.190834 86.76875 62.190834Q86.19063 62.190834 85.8 62.48771Q85.40938 62.76896 85.40938 63.190834L84.31563 63.190834Q84.31563 62.70646 84.64375 62.26896Q84.9875 61.83146 85.56563 61.58146Q86.14375 61.315834 86.83125 61.315834Q87.94063 61.315834 88.55 61.86271Q89.175 62.409584 89.20625 63.36271L89.20625 66.284584Q89.20625 67.159584 89.425 67.67521L89.425 67.76896L88.28438 67.76896ZM86.4875 66.940834Q87.00313 66.940834 87.45625 66.67521Q87.90938 66.409584 88.1125 65.98771L88.1125 64.690834L87.26875 64.690834Q85.26875 64.690834 85.26875 65.86271Q85.26875 66.36271 85.6125 66.659584Q85.95625 66.940834 86.4875 66.940834ZM92.39375 61.42521L92.425 62.222084Q93.15938 61.315834 94.33125 61.315834Q96.34688 61.315834 96.3625 63.58146L96.3625 67.76896L95.26875 67.76896L95.26875 63.565834Q95.26875 62.89396 94.95625 62.565834Q94.65938 62.23771 94.00313 62.23771Q93.47188 62.23771 93.06563 62.51896Q92.675 62.80021 92.45625 63.253334L92.45625 67.76896L91.37813 67.76896L91.37813 61.42521L92.39375 61.42521ZM99.39375 61.42521L99.425 62.222084Q100.15938 61.315834 101.33125 61.315834Q103.34688 61.315834 103.3625 63.58146L103.3625 67.76896L102.26875 67.76896L102.26875 63.565834Q102.26875 62.89396 101.95625 62.565834Q101.65938 62.23771 101.00313 62.23771Q100.47188 62.23771 100.06563 62.51896Q99.675 62.80021 99.45625 63.253334L99.45625 67.76896L98.37813 67.76896L98.37813 61.42521L99.39375 61.42521ZM108.00313 67.89396Q106.70625 67.89396 105.89375 67.05021Q105.09688 66.190834 105.09688 64.76896L105.09688 64.58146Q105.09688 63.628334 105.45625 62.89396Q105.81563 62.14396 106.45625 61.73771Q107.1125 61.315834 107.8625 61.315834Q109.09688 61.315834 109.78438 62.128334Q110.47188 62.940834 110.47188 64.45646L110.47188 64.909584L106.175 64.909584Q106.20625 65.847084 106.72188 66.42521Q107.25313 67.003334 108.06563 67.003334Q108.62813 67.003334 109.01875 66.76896Q109.425 66.534584 109.7375 66.14396L110.39375 66.659584Q109.59688 67.89396 108.00313 67.89396ZM107.8625 62.20646Q107.20625 62.20646 106.75313 62.690834Q106.31563 63.159584 106.22188 64.01896L109.39375 64.01896L109.39375 63.940834Q109.34688 63.11271 108.94063 62.659584Q108.55 62.20646 107.8625 62.20646ZM111.1125 64.55021Q111.1125 63.08146 111.8 62.20646Q112.4875 61.315834 113.6125 61.315834Q114.72188 61.315834 115.37813 62.065834L115.37813 58.76896L116.45625 58.76896L116.45625 67.76896L115.45625 67.76896L115.40938 67.08146Q114.75313 67.89396 113.59688 67.89396Q112.50313 67.89396 111.8 66.98771Q111.1125 66.08146 111.1125 64.628334L111.1125 64.55021ZM112.19063 64.67521Q112.19063 65.753334 112.62813 66.36271Q113.08125 66.972084 113.8625 66.972084Q114.89375 66.972084 115.37813 66.034584L115.37813 63.128334Q114.89375 62.23771 113.87813 62.23771Q113.08125 62.23771 112.62813 62.847084Q112.19063 63.45646 112.19063 64.67521ZM122.55 67.76896L121.47188 67.76896L121.47188 61.42521L122.55 61.42521L122.55 67.76896ZM121.37813 59.753334Q121.37813 59.48771 121.53438 59.30021Q121.70625 59.11271 122.01875 59.11271Q122.33125 59.11271 122.4875 59.30021Q122.65938 59.48771 122.65938 59.753334Q122.65938 60.003334 122.4875 60.190834Q122.33125 60.36271 122.01875 60.36271Q121.70625 60.36271 121.53438 60.190834Q121.37813 60.003334 121.37813 59.753334ZM125.39375 61.42521L125.425 62.128334Q126.1125 61.315834 127.3 61.315834Q128.62813 61.315834 129.1125 62.33146Q129.425 61.878334 129.925 61.597084Q130.44063 61.315834 131.12813 61.315834Q133.22188 61.315834 133.25313 63.51896L133.25313 67.76896L132.175 67.76896L132.175 63.58146Q132.175 62.909584 131.8625 62.58146Q131.55 62.23771 130.81563 62.23771Q130.20625 62.23771 129.8 62.597084Q129.40938 62.95646 129.34688 63.565834L129.34688 67.76896L128.26875 67.76896L128.26875 63.61271Q128.26875 62.23771 126.90938 62.23771Q125.84688 62.23771 125.45625 63.14396L125.45625 67.76896L124.3625 67.76896L124.3625 61.42521L125.39375 61.42521ZM140.72188 64.67521Q140.72188 66.11271 140.06563 67.003334Q139.40938 67.89396 138.26875 67.89396Q137.1125 67.89396 136.45625 67.159584L136.45625 70.20646L135.37813 70.20646L135.37813 61.42521L136.3625 61.42521L136.40938 62.128334Q137.08125 61.315834 138.25313 61.315834Q139.39375 61.315834 140.05 62.17521Q140.72188 63.034584 140.72188 64.565834L140.72188 64.67521ZM139.64375 64.55021Q139.64375 63.472084 139.175 62.86271Q138.72188 62.23771 137.925 62.23771Q136.94063 62.23771 136.45625 63.097084L136.45625 66.128334Q136.94063 67.003334 137.94063 67.003334Q138.72188 67.003334 139.175 66.39396Q139.64375 65.76896 139.64375 64.55021ZM143.55 67.76896L142.47188 67.76896L142.47188 58.76896L143.55 58.76896L143.55 67.76896ZM148.00313 67.89396Q146.70625 67.89396 145.89375 67.05021Q145.09688 66.190834 145.09688 64.76896L145.09688 64.58146Q145.09688 63.628334 145.45625 62.89396Q145.81563 62.14396 146.45625 61.73771Q147.1125 61.315834 147.8625 61.315834Q149.09688 61.315834 149.78438 62.128334Q150.47188 62.940834 150.47188 64.45646L150.47188 64.909584L146.175 64.909584Q146.20625 65.847084 146.72188 66.42521Q147.25313 67.003334 148.06563 67.003334Q148.62813 67.003334 149.01875 66.76896Q149.425 66.534584 149.7375 66.14396L150.39375 66.659584Q149.59688 67.89396 148.00313 67.89396ZM147.8625 62.20646Q147.20625 62.20646 146.75313 62.690834Q146.31563 63.159584 146.22188 64.01896L149.39375 64.01896L149.39375 63.940834Q149.34688 63.11271 148.94063 62.659584Q148.55 62.20646 147.8625 62.20646ZM152.39375 61.42521L152.425 62.128334Q153.1125 61.315834 154.3 61.315834Q155.62813 61.315834 156.1125 62.33146Q156.425 61.878334 156.925 61.597084Q157.44063 61.315834 158.12813 61.315834Q160.22188 61.315834 160.25313 63.51896L160.25313 67.76896L159.175 67.76896L159.175 63.58146Q159.175 62.909584 158.8625 62.58146Q158.55 62.23771 157.81563 62.23771Q157.20625 62.23771 156.8 62.597084Q156.40938 62.95646 156.34688 63.565834L156.34688 67.76896L155.26875 67.76896L155.26875 63.61271Q155.26875 62.23771 153.90938 62.23771Q152.84688 62.23771 152.45625 63.14396L152.45625 67.76896L151.3625 67.76896L151.3625 61.42521L152.39375 61.42521ZM165.00313 67.89396Q163.70625 67.89396 162.89375 67.05021Q162.09688 66.190834 162.09688 64.76896L162.09688 64.58146Q162.09688 63.628334 162.45625 62.89396Q162.81563 62.14396 163.45625 61.73771Q164.1125 61.315834 164.8625 61.315834Q166.09688 61.315834 166.78438 62.128334Q167.47188 62.940834 167.47188 64.45646L167.47188 64.909584L163.175 64.909584Q163.20625 65.847084 163.72188 66.42521Q164.25313 67.003334 165.06563 67.003334Q165.62813 67.003334 166.01875 66.76896Q166.425 66.534584 166.7375 66.14396L167.39375 66.659584Q166.59688 67.89396 165.00313 67.89396ZM164.8625 62.20646Q164.20625 62.20646 163.75313 62.690834Q163.31563 63.159584 163.22188 64.01896L166.39375 64.01896L166.39375 63.940834Q166.34688 63.11271 165.94063 62.659584Q165.55 62.20646 164.8625 62.20646ZM169.39375 61.42521L169.425 62.222084Q170.15938 61.315834 171.33125 61.315834Q173.34688 61.315834 173.3625 63.58146L173.3625 67.76896L172.26875 67.76896L172.26875 63.565834Q172.26875 62.89396 171.95625 62.565834Q171.65938 62.23771 171.00313 62.23771Q170.47188 62.23771 170.06563 62.51896Q169.675 62.80021 169.45625 63.253334L169.45625 67.76896L168.37813 67.76896L168.37813 61.42521L169.39375 61.42521ZM176.84688 59.89396L176.84688 61.42521L178.01875 61.42521L178.01875 62.26896L176.84688 62.26896L176.84688 66.190834Q176.84688 66.58146 177.00313 66.76896Q177.15938 66.95646 177.53438 66.95646Q177.72188 66.95646 178.05 66.89396L178.05 67.76896Q177.62813 67.89396 177.22188 67.89396Q176.50313 67.89396 176.12813 67.45646Q175.75313 67.003334 175.75313 66.190834L175.75313 62.26896L174.59688 62.26896L174.59688 61.42521L175.75313 61.42521L175.75313 59.89396L176.84688 59.89396ZM183.28438 67.76896Q183.19063 67.58146 183.12813 67.097084Q182.37813 67.89396 181.33125 67.89396Q180.39375 67.89396 179.78438 67.36271Q179.19063 66.83146 179.19063 66.003334Q179.19063 65.01896 179.94063 64.472084Q180.69063 63.92521 182.06563 63.92521L183.1125 63.92521L183.1125 63.42521Q183.1125 62.86271 182.76875 62.534584Q182.44063 62.190834 181.76875 62.190834Q181.19063 62.190834 180.8 62.48771Q180.40938 62.76896 180.40938 63.190834L179.31563 63.190834Q179.31563 62.70646 179.64375 62.26896Q179.9875 61.83146 180.56563 61.58146Q181.14375 61.315834 181.83125 61.315834Q182.94063 61.315834 183.55 61.86271Q184.175 62.409584 184.20625 63.36271L184.20625 66.284584Q184.20625 67.159584 184.425 67.67521L184.425 67.76896L183.28438 67.76896ZM181.4875 66.940834Q182.00313 66.940834 182.45625 66.67521Q182.90938 66.409584 183.1125 65.98771L183.1125 64.690834L182.26875 64.690834Q180.26875 64.690834 180.26875 65.86271Q180.26875 66.36271 180.6125 66.659584Q180.95625 66.940834 181.4875 66.940834ZM187.84688 59.89396L187.84688 61.42521L189.01875 61.42521L189.01875 62.26896L187.84688 62.26896L187.84688 66.190834Q187.84688 66.58146 188.00313 66.76896Q188.15938 66.95646 188.53438 66.95646Q188.72188 66.95646 189.05 66.89396L189.05 67.76896Q188.62813 67.89396 188.22188 67.89396Q187.50313 67.89396 187.12813 67.45646Q186.75313 67.003334 186.75313 66.190834L186.75313 62.26896L185.59688 62.26896L185.59688 61.42521L186.75313 61.42521L186.75313 59.89396L187.84688 59.89396ZM191.55 67.76896L190.47188 67.76896L190.47188 61.42521L191.55 61.42521L191.55 67.76896ZM190.37813 59.753334Q190.37813 59.48771 190.53438 59.30021Q190.70625 59.11271 191.01875 59.11271Q191.33125 59.11271 191.4875 59.30021Q191.65938 59.48771 191.65938 59.753334Q191.65938 60.003334 191.4875 60.190834Q191.33125 60.36271 191.01875 60.36271Q190.70625 60.36271 190.53438 60.190834Q190.37813 60.003334 190.37813 59.753334ZM193.08125 64.534584Q193.08125 63.61271 193.44063 62.86271Q193.81563 62.11271 194.47188 61.722084Q195.12813 61.315834 195.95625 61.315834Q197.25313 61.315834 198.05 62.20646Q198.8625 63.097084 198.8625 64.597084L198.8625 64.67521Q198.8625 65.597084 198.50313 66.33146Q198.14375 67.065834 197.4875 67.48771Q196.83125 67.89396 195.97188 67.89396Q194.69063 67.89396 193.87813 67.003334Q193.08125 66.097084 193.08125 64.61271L193.08125 64.534584ZM194.175 64.67521Q194.175 65.722084 194.65938 66.36271Q195.15938 67.003334 195.97188 67.003334Q196.8 67.003334 197.28438 66.36271Q197.76875 65.70646 197.76875 64.534584Q197.76875 63.503334 197.26875 62.86271Q196.78438 62.20646 195.95625 62.20646Q195.15938 62.20646 194.65938 62.847084Q194.175 63.472084 194.175 64.67521ZM201.39375 61.42521L201.425 62.222084Q202.15938 61.315834 203.33125 61.315834Q205.34688 61.315834 205.3625 63.58146L205.3625 67.76896L204.26875 67.76896L204.26875 63.565834Q204.26875 62.89396 203.95625 62.565834Q203.65938 62.23771 203.00313 62.23771Q202.47188 62.23771 202.06563 62.51896Q201.675 62.80021 201.45625 63.253334L201.45625 67.76896L200.37813 67.76896L200.37813 61.42521L201.39375 61.42521ZM211.06563 66.08146Q211.06563 65.64396 210.72188 65.409584Q210.39375 65.159584 209.56563 64.98771Q208.75313 64.815834 208.26875 64.565834Q207.78438 64.315834 207.55 63.98771Q207.33125 63.64396 207.33125 63.17521Q207.33125 62.39396 207.9875 61.86271Q208.64375 61.315834 209.675 61.315834Q210.75313 61.315834 211.40938 61.878334Q212.08125 62.42521 212.08125 63.284584L211.00313 63.284584Q211.00313 62.847084 210.6125 62.534584Q210.2375 62.20646 209.675 62.20646Q209.08125 62.20646 208.7375 62.472084Q208.40938 62.722084 208.40938 63.128334Q208.40938 63.51896 208.72188 63.722084Q209.03438 63.92521 209.84688 64.11271Q210.65938 64.284584 211.15938 64.534584Q211.65938 64.784584 211.89375 65.14396Q212.14375 65.503334 212.14375 66.003334Q212.14375 66.86271 211.45625 67.378334Q210.78438 67.89396 209.70625 67.89396Q208.94063 67.89396 208.34688 67.628334Q207.76875 67.347084 207.44063 66.86271Q207.1125 66.378334 207.1125 65.815834L208.19063 65.815834Q208.22188 66.36271 208.62813 66.690834Q209.03438 67.003334 209.70625 67.003334Q210.31563 67.003334 210.69063 66.753334Q211.06563 66.503334 211.06563 66.08146Z" fill-rule="nonzero"/><path fill="#9e9e9e" d="M24.76875 77.847084L21.2375 85.76896L20.096874 85.76896L23.6125 78.128334L19.003124 78.128334L19.003124 77.23771L24.76875 77.23771L24.76875 77.847084ZM26.39375 85.20646Q26.39375 84.92521 26.55 84.73771Q26.721874 84.55021 27.05 84.55021Q27.39375 84.55021 27.565624 84.73771Q27.7375 84.92521 27.7375 85.20646Q27.7375 85.472084 27.565624 85.659584Q27.39375 85.83146 27.05 85.83146Q26.721874 85.83146 26.55 85.659584Q26.39375 85.472084 26.39375 85.20646ZM33.83125 82.909584L35.01875 82.909584L35.01875 83.784584L33.83125 83.784584L33.83125 85.76896L32.753124 85.76896L32.753124 83.784584L28.8625 83.784584L28.8625 83.14396L32.675 77.23771L33.83125 77.23771L33.83125 82.909584ZM30.096874 82.909584L32.753124 82.909584L32.753124 78.722084L32.6125 78.95646L30.096874 82.909584ZM36.159374 78.878334Q36.159374 78.11271 36.64375 77.61271Q37.14375 77.11271 37.909374 77.11271Q38.690624 77.11271 39.175 77.61271Q39.659374 78.11271 39.659374 78.909584L39.659374 79.33146Q39.659374 80.097084 39.159374 80.597084Q38.675 81.08146 37.925 81.08146Q37.159374 81.08146 36.659374 80.597084Q36.159374 80.097084 36.159374 79.284584L36.159374 78.878334ZM36.971874 79.33146Q36.971874 79.784584 37.221874 80.08146Q37.4875 80.378334 37.925 80.378334Q38.346874 80.378334 38.596874 80.097084Q38.846874 79.80021 38.846874 79.30021L38.846874 78.878334Q38.846874 78.42521 38.596874 78.128334Q38.346874 77.815834 37.909374 77.815834Q37.471874 77.815834 37.221874 78.128334Q36.971874 78.42521 36.971874 78.89396L36.971874 79.33146ZM40.315624 83.67521Q40.315624 82.909584 40.8 82.42521Q41.3 81.92521 42.065624 81.92521Q42.83125 81.92521 43.315624 82.42521Q43.815624 82.909584 43.815624 83.722084L43.815624 84.128334Q43.815624 84.89396 43.33125 85.39396Q42.846874 85.89396 42.08125 85.89396Q41.315624 85.89396 40.815624 85.409584Q40.315624 84.909584 40.315624 84.097084L40.315624 83.67521ZM41.128124 84.128334Q41.128124 84.597084 41.378124 84.89396Q41.64375 85.190834 42.08125 85.190834Q42.503124 85.190834 42.753124 84.909584Q43.003124 84.61271 43.003124 84.11271L43.003124 83.67521Q43.003124 83.20646 42.7375 82.92521Q42.4875 82.628334 42.065624 82.628334Q41.64375 82.628334 41.378124 82.92521Q41.128124 83.20646 41.128124 83.70646L41.128124 84.128334ZM38.175 85.128334L37.55 84.73771L41.721874 78.065834L42.33125 78.45646L38.175 85.128334Z" fill-rule="nonzero"/><path stroke="#757575" stroke-width="1.0" stroke-linecap="butt" d="M18.55 72.26896L215.55 72.26896L277.4438 72.26896" fill-rule="nonzero"/><path fill="#9e9e9e" d="M279.4438 72.26896C279.4438 71.16439 278.54834 70.26896 277.4438 70.26896C276.3392 70.26896 275.4438 71.16439 275.4438 72.26896C275.4438 73.37353 276.3392 74.26896 277.4438 74.26896C278.54834 74.26896 279.4438 73.37353 279.4438 72.26896" fill-rule="nonzero"/><path fill="#757575" d="M26.096874 228.36064Q26.096874 229.61064 25.675 230.54814Q25.253124 231.47002 24.471874 231.97002Q23.70625 232.47002 22.675 232.47002Q21.675 232.47002 20.89375 231.97002Q20.1125 231.47002 19.675 230.56377Q19.253124 229.64189 19.2375 228.42314L19.2375 227.81377Q19.2375 226.57939 19.659374 225.64189Q20.096874 224.70439 20.878124 224.20439Q21.659374 223.68877 22.675 223.68877Q23.690624 223.68877 24.471874 224.18877Q25.253124 224.68877 25.675 225.62627Q26.096874 226.56377 26.096874 227.81377L26.096874 228.36064ZM24.9875 227.79814Q24.9875 226.28252 24.378124 225.47002Q23.76875 224.65752 22.675 224.65752Q21.596874 224.65752 20.9875 225.47002Q20.378124 226.28252 20.3625 227.72002L20.3625 228.36064Q20.3625 229.82939 20.971874 230.67314Q21.596874 231.50127 22.675 231.50127Q23.76875 231.50127 24.3625 230.72002Q24.971874 229.92314 24.9875 228.43877L24.9875 227.79814ZM28.39375 226.00127L28.425 226.79814Q29.159374 225.89189 30.33125 225.89189Q32.346874 225.89189 32.3625 228.15752L32.3625 232.34502L31.26875 232.34502L31.26875 228.14189Q31.26875 227.47002 30.95625 227.14189Q30.659374 226.81377 30.003124 226.81377Q29.471874 226.81377 29.065624 227.09502Q28.675 227.37627 28.45625 227.82939L28.45625 232.34502L27.378124 232.34502L27.378124 226.00127L28.39375 226.00127ZM35.55 232.34502L34.471874 232.34502L34.471874 223.34502L35.55 223.34502L35.55 232.34502ZM39.440624 230.75127L40.925 226.00127L42.08125 226.00127L39.534374 233.32939Q38.940624 234.90752 37.659374 234.90752L37.440624 234.89189L37.05 234.81377L37.05 233.93877L37.33125 233.95439Q37.89375 233.95439 38.190624 233.73564Q38.503124 233.51689 38.70625 232.92314L38.940624 232.26689L36.675 226.00127L37.8625 226.00127L39.440624 230.75127ZM49.815624 232.34502L48.7375 232.34502L48.7375 225.12627L46.55 225.92314L46.55 224.93877L49.659374 223.76689L49.815624 223.76689L49.815624 232.34502ZM59.003124 232.47002Q57.70625 232.47002 56.89375 231.62627Q56.096874 230.76689 56.096874 229.34502L56.096874 229.15752Q56.096874 228.20439 56.45625 227.47002Q56.815624 226.72002 57.45625 226.31377Q58.1125 225.89189 58.8625 225.89189Q60.096874 225.89189 60.784374 226.70439Q61.471874 227.51689 61.471874 229.03252L61.471874 229.48564L57.175 229.48564Q57.20625 230.42314 57.721874 231.00127Q58.253124 231.57939 59.065624 231.57939Q59.628124 231.57939 60.01875 231.34502Q60.425 231.11064 60.7375 230.72002L61.39375 231.23564Q60.596874 232.47002 59.003124 232.47002ZM58.8625 226.78252Q58.20625 226.78252 57.753124 227.26689Q57.315624 227.73564 57.221874 228.59502L60.39375 228.59502L60.39375 228.51689Q60.346874 227.68877 59.940624 227.23564Q59.55 226.78252 58.8625 226.78252ZM64.50313 228.31377L65.90938 226.00127L67.175 226.00127L65.09688 229.14189L67.2375 232.34502L65.9875 232.34502L64.51875 229.97002L63.05 232.34502L61.784374 232.34502L63.925 229.14189L61.8625 226.00127L63.1125 226.00127L64.50313 228.31377ZM69.55 232.34502L68.47188 232.34502L68.47188 226.00127L69.55 226.00127L69.55 232.34502ZM68.37813 224.32939Q68.37813 224.06377 68.53438 223.87627Q68.70625 223.68877 69.01875 223.68877Q69.33125 223.68877 69.4875 223.87627Q69.65938 224.06377 69.65938 224.32939Q69.65938 224.57939 69.4875 224.76689Q69.33125 224.93877 69.01875 224.93877Q68.70625 224.93877 68.53438 224.76689Q68.37813 224.57939 68.37813 224.32939ZM75.06563 230.65752Q75.06563 230.22002 74.72188 229.98564Q74.39375 229.73564 73.56563 229.56377Q72.75313 229.39189 72.26875 229.14189Q71.78438 228.89189 71.55 228.56377Q71.33125 228.22002 71.33125 227.75127Q71.33125 226.97002 71.9875 226.43877Q72.64375 225.89189 73.675 225.89189Q74.75313 225.89189 75.40938 226.45439Q76.08125 227.00127 76.08125 227.86064L75.00313 227.86064Q75.00313 227.42314 74.6125 227.11064Q74.2375 226.78252 73.675 226.78252Q73.08125 226.78252 72.7375 227.04814Q72.40938 227.29814 72.40938 227.70439Q72.40938 228.09502 72.72188 228.29814Q73.03438 228.50127 73.84688 228.68877Q74.65938 228.86064 75.15938 229.11064Q75.65938 229.36064 75.89375 229.72002Q76.14375 230.07939 76.14375 230.57939Q76.14375 231.43877 75.45625 231.95439Q74.78438 232.47002 73.70625 232.47002Q72.94063 232.47002 72.34688 232.20439Q71.76875 231.92314 71.44063 231.43877Q71.1125 230.95439 71.1125 230.39189L72.19063 230.39189Q72.22188 230.93877 72.62813 231.26689Q73.03438 231.57939 73.70625 231.57939Q74.31563 231.57939 74.69063 231.32939Q75.06563 231.07939 75.06563 230.65752ZM78.84688 224.47002L78.84688 226.00127L80.01875 226.00127L80.01875 226.84502L78.84688 226.84502L78.84688 230.76689Q78.84688 231.15752 79.00313 231.34502Q79.15938 231.53252 79.53438 231.53252Q79.72188 231.53252 80.05 231.47002L80.05 232.34502Q79.62813 232.47002 79.22188 232.47002Q78.50313 232.47002 78.12813 232.03252Q77.75313 231.57939 77.75313 230.76689L77.75313 226.84502L76.59688 226.84502L76.59688 226.00127L77.75313 226.00127L77.75313 224.47002L78.84688 224.47002ZM82.55 232.34502L81.47188 232.34502L81.47188 226.00127L82.55 226.00127L82.55 232.34502ZM81.37813 224.32939Q81.37813 224.06377 81.53438 223.87627Q81.70625 223.68877 82.01875 223.68877Q82.33125 223.68877 82.4875 223.87627Q82.65938 224.06377 82.65938 224.32939Q82.65938 224.57939 82.4875 224.76689Q82.33125 224.93877 82.01875 224.93877Q81.70625 224.93877 81.53438 224.76689Q81.37813 224.57939 81.37813 224.32939ZM85.39375 226.00127L85.425 226.79814Q86.15938 225.89189 87.33125 225.89189Q89.34688 225.89189 89.3625 228.15752L89.3625 232.34502L88.26875 232.34502L88.26875 228.14189Q88.26875 227.47002 87.95625 227.14189Q87.65938 226.81377 87.00313 226.81377Q86.47188 226.81377 86.06563 227.09502Q85.675 227.37627 85.45625 227.82939L85.45625 232.34502L84.37813 232.34502L84.37813 226.00127L85.39375 226.00127ZM91.1125 229.12627Q91.1125 227.64189 91.8 226.76689Q92.4875 225.89189 93.6125 225.89189Q94.76875 225.89189 95.425 226.70439L95.47188 226.00127L96.47188 226.00127L96.47188 232.18877Q96.47188 233.42314 95.7375 234.12627Q95.00313 234.84502 93.78438 234.84502Q93.09688 234.84502 92.44063 234.54814Q91.78438 234.25127 91.44063 233.75127L92.00313 233.09502Q92.69063 233.95439 93.70625 233.95439Q94.4875 233.95439 94.925 233.50127Q95.37813 233.06377 95.37813 232.25127L95.37813 231.70439Q94.72188 232.47002 93.59688 232.47002Q92.4875 232.47002 91.8 231.57939Q91.1125 230.67314 91.1125 229.12627ZM92.20625 229.25127Q92.20625 230.31377 92.64375 230.93877Q93.08125 231.54814 93.87813 231.54814Q94.89375 231.54814 95.37813 230.61064L95.37813 227.72002Q94.87813 226.81377 93.87813 226.81377Q93.09688 226.81377 92.64375 227.42314Q92.20625 228.03252 92.20625 229.25127ZM102.55 232.34502L101.47188 232.34502L101.47188 226.00127L102.55 226.00127L102.55 232.34502ZM101.37813 224.32939Q101.37813 224.06377 101.53438 223.87627Q101.70625 223.68877 102.01875 223.68877Q102.33125 223.68877 102.4875 223.87627Q102.65938 224.06377 102.65938 224.32939Q102.65938 224.57939 102.4875 224.76689Q102.33125 224.93877 102.01875 224.93877Q101.70625 224.93877 101.53438 224.76689Q101.37813 224.57939 101.37813 224.32939ZM105.39375 226.00127L105.425 226.70439Q106.1125 225.89189 107.3 225.89189Q108.62813 225.89189 109.1125 226.90752Q109.425 226.45439 109.925 226.17314Q110.44063 225.89189 111.12813 225.89189Q113.22188 225.89189 113.25313 228.09502L113.25313 232.34502L112.175 232.34502L112.175 228.15752Q112.175 227.48564 111.8625 227.15752Q111.55 226.81377 110.81563 226.81377Q110.20625 226.81377 109.8 227.17314Q109.40938 227.53252 109.34688 228.14189L109.34688 232.34502L108.26875 232.34502L108.26875 228.18877Q108.26875 226.81377 106.90938 226.81377Q105.84688 226.81377 105.45625 227.72002L105.45625 232.34502L104.3625 232.34502L104.3625 226.00127L105.39375 226.00127ZM120.72188 229.25127Q120.72188 230.68877 120.06563 231.57939Q119.40938 232.47002 118.26875 232.47002Q117.1125 232.47002 116.45625 231.73564L116.45625 234.78252L115.37813 234.78252L115.37813 226.00127L116.3625 226.00127L116.40938 226.70439Q117.08125 225.89189 118.25313 225.89189Q119.39375 225.89189 120.05 226.75127Q120.72188 227.61064 120.72188 229.14189L120.72188 229.25127ZM119.64375 229.12627Q119.64375 228.04814 119.175 227.43877Q118.72188 226.81377 117.925 226.81377Q116.94063 226.81377 116.45625 227.67314L116.45625 230.70439Q116.94063 231.57939 117.94063 231.57939Q118.72188 231.57939 119.175 230.97002Q119.64375 230.34502 119.64375 229.12627ZM123.55 232.34502L122.47188 232.34502L122.47188 223.34502L123.55 223.34502L123.55 232.34502ZM128.00313 232.47002Q126.70625 232.47002 125.89375 231.62627Q125.09688 230.76689 125.09688 229.34502L125.09688 229.15752Q125.09688 228.20439 125.45625 227.47002Q125.81563 226.72002 126.45625 226.31377Q127.1125 225.89189 127.8625 225.89189Q129.09688 225.89189 129.78438 226.70439Q130.47188 227.51689 130.47188 229.03252L130.47188 229.48564L126.175 229.48564Q126.20625 230.42314 126.72188 231.00127Q127.25313 231.57939 128.06563 231.57939Q128.62813 231.57939 129.01875 231.34502Q129.425 231.11064 129.7375 230.72002L130.39375 231.23564Q129.59688 232.47002 128.00313 232.47002ZM127.8625 226.78252Q127.20625 226.78252 126.75313 227.26689Q126.31563 227.73564 126.22188 228.59502L129.39375 228.59502L129.39375 228.51689Q129.34688 227.68877 128.94063 227.23564Q128.55 226.78252 127.8625 226.78252ZM132.39375 226.00127L132.425 226.70439Q133.1125 225.89189 134.3 225.89189Q135.62813 225.89189 136.1125 226.90752Q136.425 226.45439 136.925 226.17314Q137.44063 225.89189 138.12813 225.89189Q140.22188 225.89189 140.25313 228.09502L140.25313 232.34502L139.175 232.34502L139.175 228.15752Q139.175 227.48564 138.8625 227.15752Q138.55 226.81377 137.81563 226.81377Q137.20625 226.81377 136.8 227.17314Q136.40938 227.53252 136.34688 228.14189L136.34688 232.34502L135.26875 232.34502L135.26875 228.18877Q135.26875 226.81377 133.90938 226.81377Q132.84688 226.81377 132.45625 227.72002L132.45625 232.34502L131.3625 232.34502L131.3625 226.00127L132.39375 226.00127ZM145.00313 232.47002Q143.70625 232.47002 142.89375 231.62627Q142.09688 230.76689 142.09688 229.34502L142.09688 229.15752Q142.09688 228.20439 142.45625 227.47002Q142.81563 226.72002 143.45625 226.31377Q144.1125 225.89189 144.8625 225.89189Q146.09688 225.89189 146.78438 226.70439Q147.47188 227.51689 147.47188 229.03252L147.47188 229.48564L143.175 229.48564Q143.20625 230.42314 143.72188 231.00127Q144.25313 231.57939 145.06563 231.57939Q145.62813 231.57939 146.01875 231.34502Q146.425 231.11064 146.7375 230.72002L147.39375 231.23564Q146.59688 232.47002 145.00313 232.47002ZM144.8625 226.78252Q144.20625 226.78252 143.75313 227.26689Q143.31563 227.73564 143.22188 228.59502L146.39375 228.59502L146.39375 228.51689Q146.34688 227.68877 145.94063 227.23564Q145.55 226.78252 144.8625 226.78252ZM149.39375 226.00127L149.425 226.79814Q150.15938 225.89189 151.33125 225.89189Q153.34688 225.89189 153.3625 228.15752L153.3625 232.34502L152.26875 232.34502L152.26875 228.14189Q152.26875 227.47002 151.95625 227.14189Q151.65938 226.81377 151.00313 226.81377Q150.47188 226.81377 150.06563 227.09502Q149.675 227.37627 149.45625 227.82939L149.45625 232.34502L148.37813 232.34502L148.37813 226.00127L149.39375 226.00127ZM156.84688 224.47002L156.84688 226.00127L158.01875 226.00127L158.01875 226.84502L156.84688 226.84502L156.84688 230.76689Q156.84688 231.15752 157.00313 231.34502Q157.15938 231.53252 157.53438 231.53252Q157.72188 231.53252 158.05 231.47002L158.05 232.34502Q157.62813 232.47002 157.22188 232.47002Q156.50313 232.47002 156.12813 232.03252Q155.75313 231.57939 155.75313 230.76689L155.75313 226.84502L154.59688 226.84502L154.59688 226.00127L155.75313 226.00127L155.75313 224.47002L156.84688 224.47002ZM163.28438 232.34502Q163.19063 232.15752 163.12813 231.67314Q162.37813 232.47002 161.33125 232.47002Q160.39375 232.47002 159.78438 231.93877Q159.19063 231.40752 159.19063 230.57939Q159.19063 229.59502 159.94063 229.04814Q160.69063 228.50127 162.06563 228.50127L163.1125 228.50127L163.1125 228.00127Q163.1125 227.43877 162.76875 227.11064Q162.44063 226.76689 161.76875 226.76689Q161.19063 226.76689 160.8 227.06377Q160.40938 227.34502 160.40938 227.76689L159.31563 227.76689Q159.31563 227.28252 159.64375 226.84502Q159.9875 226.40752 160.56563 226.15752Q161.14375 225.89189 161.83125 225.89189Q162.94063 225.89189 163.55 226.43877Q164.175 226.98564 164.20625 227.93877L164.20625 230.86064Q164.20625 231.73564 164.425 232.25127L164.425 232.34502L163.28438 232.34502ZM161.4875 231.51689Q162.00313 231.51689 162.45625 231.25127Q162.90938 230.98564 163.1125 230.56377L163.1125 229.26689L162.26875 229.26689Q160.26875 229.26689 160.26875 230.43877Q160.26875 230.93877 160.6125 231.23564Q160.95625 231.51689 161.4875 231.51689ZM167.84688 224.47002L167.84688 226.00127L169.01875 226.00127L169.01875 226.84502L167.84688 226.84502L167.84688 230.76689Q167.84688 231.15752 168.00313 231.34502Q168.15938 231.53252 168.53438 231.53252Q168.72188 231.53252 169.05 231.47002L169.05 232.34502Q168.62813 232.47002 168.22188 232.47002Q167.50313 232.47002 167.12813 232.03252Q166.75313 231.57939 166.75313 230.76689L166.75313 226.84502L165.59688 226.84502L165.59688 226.00127L166.75313 226.00127L166.75313 224.47002L167.84688 224.47002ZM171.55 232.34502L170.47188 232.34502L170.47188 226.00127L171.55 226.00127L171.55 232.34502ZM170.37813 224.32939Q170.37813 224.06377 170.53438 223.87627Q170.70625 223.68877 171.01875 223.68877Q171.33125 223.68877 171.4875 223.87627Q171.65938 224.06377 171.65938 224.32939Q171.65938 224.57939 171.4875 224.76689Q171.33125 224.93877 171.01875 224.93877Q170.70625 224.93877 170.53438 224.76689Q170.37813 224.57939 170.37813 224.32939ZM173.08125 229.11064Q173.08125 228.18877 173.44063 227.43877Q173.81563 226.68877 174.47188 226.29814Q175.12813 225.89189 175.95625 225.89189Q177.25313 225.89189 178.05 226.78252Q178.8625 227.67314 178.8625 229.17314L178.8625 229.25127Q178.8625 230.17314 178.50313 230.90752Q178.14375 231.64189 177.4875 232.06377Q176.83125 232.47002 175.97188 232.47002Q174.69063 232.47002 173.87813 231.57939Q173.08125 230.67314 173.08125 229.18877L173.08125 229.11064ZM174.175 229.25127Q174.175 230.29814 174.65938 230.93877Q175.15938 231.57939 175.97188 231.57939Q176.8 231.57939 177.28438 230.93877Q177.76875 230.28252 177.76875 229.11064Q177.76875 228.07939 177.26875 227.43877Q176.78438 226.78252 175.95625 226.78252Q175.15938 226.78252 174.65938 227.42314Q174.175 228.04814 174.175 229.25127ZM181.39375 226.00127L181.425 226.79814Q182.15938 225.89189 183.33125 225.89189Q185.34688 225.89189 185.3625 228.15752L185.3625 232.34502L184.26875 232.34502L184.26875 228.14189Q184.26875 227.47002 183.95625 227.14189Q183.65938 226.81377 183.00313 226.81377Q182.47188 226.81377 182.06563 227.09502Q181.675 227.37627 181.45625 227.82939L181.45625 232.34502L180.37813 232.34502L180.37813 226.00127L181.39375 226.00127Z" fill-rule="nonzero"/><path fill="#9e9e9e" d="M24.846874 250.34502L19.253124 250.34502L19.253124 249.56377L22.20625 246.28252Q22.8625 245.53252 23.1125 245.07939Q23.3625 244.61064 23.3625 244.11064Q23.3625 243.43877 22.95625 243.01689Q22.565624 242.57939 21.878124 242.57939Q21.08125 242.57939 20.628124 243.04814Q20.175 243.50127 20.175 244.32939L19.096874 244.32939Q19.096874 243.14189 19.846874 242.42314Q20.6125 241.68877 21.878124 241.68877Q23.08125 241.68877 23.76875 242.31377Q24.45625 242.93877 24.45625 243.98564Q24.45625 245.23564 22.846874 246.98564L20.565624 249.45439L24.846874 249.45439L24.846874 250.34502ZM31.440624 244.03252Q31.440624 244.67314 31.096874 245.17314Q30.753124 245.67314 30.190624 245.95439Q30.846874 246.23564 31.2375 246.79814Q31.628124 247.34502 31.628124 248.04814Q31.628124 249.14189 30.878124 249.81377Q30.14375 250.47002 28.925 250.47002Q27.690624 250.47002 26.940624 249.81377Q26.20625 249.14189 26.20625 248.04814Q26.20625 247.34502 26.58125 246.79814Q26.95625 246.23564 27.628124 245.95439Q27.065624 245.67314 26.7375 245.17314Q26.409374 244.67314 26.409374 244.03252Q26.409374 242.95439 27.096874 242.32939Q27.784374 241.68877 28.925 241.68877Q30.05 241.68877 30.7375 242.32939Q31.440624 242.95439 31.440624 244.03252ZM30.55 248.01689Q30.55 247.29814 30.096874 246.86064Q29.64375 246.40752 28.909374 246.40752Q28.175 246.40752 27.721874 246.86064Q27.284374 247.29814 27.284374 248.03252Q27.284374 248.75127 27.721874 249.17314Q28.159374 249.57939 28.925 249.57939Q29.675 249.57939 30.1125 249.15752Q30.55 248.73564 30.55 248.01689ZM28.925 242.57939Q28.284374 242.57939 27.878124 242.98564Q27.4875 243.37627 27.4875 244.06377Q27.4875 244.70439 27.878124 245.11064Q28.26875 245.51689 28.909374 245.51689Q29.565624 245.51689 29.95625 245.11064Q30.346874 244.70439 30.346874 244.06377Q30.346874 243.40752 29.940624 243.00127Q29.534374 242.57939 28.925 242.57939ZM33.39375 249.78252Q33.39375 249.50127 33.55 249.31377Q33.721874 249.12627 34.05 249.12627Q34.39375 249.12627 34.565624 249.31377Q34.7375 249.50127 34.7375 249.78252Q34.7375 250.04814 34.565624 250.23564Q34.39375 250.40752 34.05 250.40752Q33.721874 250.40752 33.55 250.23564Q33.39375 250.04814 33.39375 249.78252ZM40.83125 247.48564L42.01875 247.48564L42.01875 248.36064L40.83125 248.36064L40.83125 250.34502L39.753124 250.34502L39.753124 248.36064L35.8625 248.36064L35.8625 247.72002L39.675 241.81377L40.83125 241.81377L40.83125 247.48564ZM37.096874 247.48564L39.753124 247.48564L39.753124 243.29814L39.6125 243.53252L37.096874 247.48564ZM43.159374 243.45439Q43.159374 242.68877 43.64375 242.18877Q44.14375 241.68877 44.909374 241.68877Q45.690624 241.68877 46.175 242.18877Q46.659374 242.68877 46.659374 243.48564L46.659374 243.90752Q46.659374 244.67314 46.159374 245.17314Q45.675 245.65752 44.925 245.65752Q44.159374 245.65752 43.659374 245.17314Q43.159374 244.67314 43.159374 243.86064L43.159374 243.45439ZM43.971874 243.90752Q43.971874 244.36064 44.221874 244.65752Q44.4875 244.95439 44.925 244.95439Q45.346874 244.95439 45.596874 244.67314Q45.846874 244.37627 45.846874 243.87627L45.846874 243.45439Q45.846874 243.00127 45.596874 242.70439Q45.346874 242.39189 44.909374 242.39189Q44.471874 242.39189 44.221874 242.70439Q43.971874 243.00127 43.971874 243.47002L43.971874 243.90752ZM47.315624 248.25127Q47.315624 247.48564 47.8 247.00127Q48.3 246.50127 49.065624 246.50127Q49.83125 246.50127 50.315624 247.00127Q50.815624 247.48564 50.815624 248.29814L50.815624 248.70439Q50.815624 249.47002 50.33125 249.97002Q49.846874 250.47002 49.08125 250.47002Q48.315624 250.47002 47.815624 249.98564Q47.315624 249.48564 47.315624 248.67314L47.315624 248.25127ZM48.128124 248.70439Q48.128124 249.17314 48.378124 249.47002Q48.64375 249.76689 49.08125 249.76689Q49.503124 249.76689 49.753124 249.48564Q50.003124 249.18877 50.003124 248.68877L50.003124 248.25127Q50.003124 247.78252 49.7375 247.50127Q49.4875 247.20439 49.065624 247.20439Q48.64375 247.20439 48.378124 247.50127Q48.128124 247.78252 48.128124 248.28252L48.128124 248.70439ZM45.175 249.70439L44.55 249.31377L48.721874 242.64189L49.33125 243.03252L45.175 249.70439Z" fill-rule="nonzero"/><path stroke="#757575" stroke-width="1.0" stroke-linecap="butt" d="M18.55 236.84502L215.55 236.84502L238.43854 236.84502" fill-rule="nonzero"/><path fill="#9e9e9e" d="M240.43854 236.84502C240.43854 235.74045 239.5431 234.84502 238.43854 234.84502C237.33397 234.84502 236.43854 235.74045 236.43854 236.84502C236.43854 237.94958 237.33397 238.84502 238.43854 238.84502C239.5431 238.84502 240.43854 237.94958 240.43854 236.84502" fill-rule="nonzero"/><path fill="#757575" d="M572.7469 208.54103L567.15314 208.54103L567.15314 207.75978L570.10626 204.47853Q570.7625 203.72853 571.0125 203.2754Q571.2625 202.80666 571.2625 202.30666Q571.2625 201.63478 570.85626 201.2129Q570.46564 200.7754 569.77814 200.7754Q568.98126 200.7754 568.52814 201.24416Q568.075 201.69728 568.075 202.5254L566.9969 202.5254Q566.9969 201.3379 567.7469 200.61916Q568.5125 199.88478 569.77814 199.88478Q570.98126 199.88478 571.66876 200.50978Q572.35626 201.13478 572.35626 202.18166Q572.35626 203.43166 570.7469 205.18166L568.46564 207.6504L572.7469 207.6504L572.7469 208.54103ZM576.98126 205.30666Q576.98126 204.38478 577.34064 203.63478Q577.71564 202.88478 578.3719 202.49416Q579.02814 202.0879 579.85626 202.0879Q581.15314 202.0879 581.95 202.97853Q582.7625 203.86916 582.7625 205.36916L582.7625 205.44728Q582.7625 206.36916 582.40314 207.10353Q582.04376 207.8379 581.3875 208.25978Q580.73126 208.66603 579.8719 208.66603Q578.59064 208.66603 577.77814 207.7754Q576.98126 206.86916 576.98126 205.38478L576.98126 205.30666ZM578.075 205.44728Q578.075 206.49416 578.5594 207.13478Q579.0594 207.7754 579.8719 207.7754Q580.7 207.7754 581.1844 207.13478Q581.66876 206.47853 581.66876 205.30666Q581.66876 204.2754 581.16876 203.63478Q580.6844 202.97853 579.85626 202.97853Q579.0594 202.97853 578.5594 203.61916Q578.075 204.24416 578.075 205.44728ZM587.34064 203.16603Q587.09064 203.13478 586.8094 203.13478Q585.73126 203.13478 585.35626 204.04103L585.35626 208.54103L584.27814 208.54103L584.27814 202.19728L585.325 202.19728L585.34064 202.93166Q585.8719 202.0879 586.85626 202.0879Q587.16876 202.0879 587.34064 202.16603L587.34064 203.16603ZM592.29376 202.19728L592.325 202.9004Q593.0125 202.0879 594.2 202.0879Q595.52814 202.0879 596.0125 203.10353Q596.325 202.6504 596.825 202.36916Q597.34064 202.0879 598.02814 202.0879Q600.1219 202.0879 600.15314 204.29103L600.15314 208.54103L599.075 208.54103L599.075 204.35353Q599.075 203.68166 598.7625 203.35353Q598.45 203.00978 597.71564 203.00978Q597.10626 203.00978 596.7 203.36916Q596.3094 203.72853 596.2469 204.3379L596.2469 208.54103L595.16876 208.54103L595.16876 204.38478Q595.16876 203.00978 593.8094 203.00978Q592.7469 203.00978 592.35626 203.91603L592.35626 208.54103L591.2625 208.54103L591.2625 202.19728L592.29376 202.19728ZM601.98126 205.30666Q601.98126 204.38478 602.34064 203.63478Q602.71564 202.88478 603.3719 202.49416Q604.02814 202.0879 604.85626 202.0879Q606.15314 202.0879 606.95 202.97853Q607.7625 203.86916 607.7625 205.36916L607.7625 205.44728Q607.7625 206.36916 607.40314 207.10353Q607.04376 207.8379 606.3875 208.25978Q605.73126 208.66603 604.8719 208.66603Q603.59064 208.66603 602.77814 207.7754Q601.98126 206.86916 601.98126 205.38478L601.98126 205.30666ZM603.075 205.44728Q603.075 206.49416 603.5594 207.13478Q604.0594 207.7754 604.8719 207.7754Q605.7 207.7754 606.1844 207.13478Q606.66876 206.47853 606.66876 205.30666Q606.66876 204.2754 606.16876 203.63478Q605.6844 202.97853 604.85626 202.97853Q604.0594 202.97853 603.5594 203.61916Q603.075 204.24416 603.075 205.44728ZM612.34064 203.16603Q612.09064 203.13478 611.8094 203.13478Q610.73126 203.13478 610.35626 204.04103L610.35626 208.54103L609.27814 208.54103L609.27814 202.19728L610.325 202.19728L610.34064 202.93166Q610.8719 202.0879 611.85626 202.0879Q612.16876 202.0879 612.34064 202.16603L612.34064 203.16603ZM615.90314 208.66603Q614.60626 208.66603 613.79376 207.82228Q612.9969 206.9629 612.9969 205.54103L612.9969 205.35353Q612.9969 204.4004 613.35626 203.66603Q613.71564 202.91603 614.35626 202.50978Q615.0125 202.0879 615.7625 202.0879Q616.9969 202.0879 617.6844 202.9004Q618.3719 203.7129 618.3719 205.22853L618.3719 205.68166L614.075 205.68166Q614.10626 206.61916 614.6219 207.19728Q615.15314 207.7754 615.96564 207.7754Q616.52814 207.7754 616.91876 207.54103Q617.325 207.30666 617.6375 206.91603L618.29376 207.43166Q617.4969 208.66603 615.90314 208.66603ZM615.7625 202.97853Q615.10626 202.97853 614.65314 203.4629Q614.21564 203.93166 614.1219 204.79103L617.29376 204.79103L617.29376 204.7129Q617.2469 203.88478 616.84064 203.43166Q616.45 202.97853 615.7625 202.97853ZM624.90314 208.66603Q623.60626 208.66603 622.79376 207.82228Q621.9969 206.9629 621.9969 205.54103L621.9969 205.35353Q621.9969 204.4004 622.35626 203.66603Q622.71564 202.91603 623.35626 202.50978Q624.0125 202.0879 624.7625 202.0879Q625.9969 202.0879 626.6844 202.9004Q627.3719 203.7129 627.3719 205.22853L627.3719 205.68166L623.075 205.68166Q623.10626 206.61916 623.6219 207.19728Q624.15314 207.7754 624.96564 207.7754Q625.52814 207.7754 625.91876 207.54103Q626.325 207.30666 626.6375 206.91603L627.29376 207.43166Q626.4969 208.66603 624.90314 208.66603ZM624.7625 202.97853Q624.10626 202.97853 623.65314 203.4629Q623.21564 203.93166 623.1219 204.79103L626.29376 204.79103L626.29376 204.7129Q626.2469 203.88478 625.84064 203.43166Q625.45 202.97853 624.7625 202.97853ZM630.40314 204.50978L631.8094 202.19728L633.075 202.19728L630.9969 205.3379L633.1375 208.54103L631.8875 208.54103L630.41876 206.16603L628.95 208.54103L627.6844 208.54103L629.825 205.3379L627.7625 202.19728L629.0125 202.19728L630.40314 204.50978ZM635.45 208.54103L634.3719 208.54103L634.3719 202.19728L635.45 202.19728L635.45 208.54103ZM634.27814 200.5254Q634.27814 200.25978 634.4344 200.07228Q634.60626 199.88478 634.91876 199.88478Q635.23126 199.88478 635.3875 200.07228Q635.5594 200.25978 635.5594 200.5254Q635.5594 200.7754 635.3875 200.9629Q635.23126 201.13478 634.91876 201.13478Q634.60626 201.13478 634.4344 200.9629Q634.27814 200.7754 634.27814 200.5254ZM640.96564 206.85353Q640.96564 206.41603 640.6219 206.18166Q640.29376 205.93166 639.46564 205.75978Q638.65314 205.5879 638.16876 205.3379Q637.6844 205.0879 637.45 204.75978Q637.23126 204.41603 637.23126 203.94728Q637.23126 203.16603 637.8875 202.63478Q638.54376 202.0879 639.575 202.0879Q640.65314 202.0879 641.3094 202.6504Q641.98126 203.19728 641.98126 204.05666L640.90314 204.05666Q640.90314 203.61916 640.5125 203.30666Q640.1375 202.97853 639.575 202.97853Q638.98126 202.97853 638.6375 203.24416Q638.3094 203.49416 638.3094 203.9004Q638.3094 204.29103 638.6219 204.49416Q638.9344 204.69728 639.7469 204.88478Q640.5594 205.05666 641.0594 205.30666Q641.5594 205.55666 641.79376 205.91603Q642.04376 206.2754 642.04376 206.7754Q642.04376 207.63478 641.35626 208.1504Q640.6844 208.66603 639.60626 208.66603Q638.84064 208.66603 638.2469 208.4004Q637.66876 208.11916 637.34064 207.63478Q637.0125 207.1504 637.0125 206.5879L638.09064 206.5879Q638.1219 207.13478 638.52814 207.4629Q638.9344 207.7754 639.60626 207.7754Q640.21564 207.7754 640.59064 207.5254Q640.96564 207.2754 640.96564 206.85353ZM644.7469 200.66603L644.7469 202.19728L645.91876 202.19728L645.91876 203.04103L644.7469 203.04103L644.7469 206.9629Q644.7469 207.35353 644.90314 207.54103Q645.0594 207.72853 645.4344 207.72853Q645.6219 207.72853 645.95 207.66603L645.95 208.54103Q645.52814 208.66603 645.1219 208.66603Q644.40314 208.66603 644.02814 208.22853Q643.65314 207.7754 643.65314 206.9629L643.65314 203.04103L642.4969 203.04103L642.4969 202.19728L643.65314 202.19728L643.65314 200.66603L644.7469 200.66603ZM648.45 208.54103L647.3719 208.54103L647.3719 202.19728L648.45 202.19728L648.45 208.54103ZM647.27814 200.5254Q647.27814 200.25978 647.4344 200.07228Q647.60626 199.88478 647.91876 199.88478Q648.23126 199.88478 648.3875 200.07228Q648.5594 200.25978 648.5594 200.5254Q648.5594 200.7754 648.3875 200.9629Q648.23126 201.13478 647.91876 201.13478Q647.60626 201.13478 647.4344 200.9629Q647.27814 200.7754 647.27814 200.5254ZM651.29376 202.19728L651.325 202.99416Q652.0594 202.0879 653.23126 202.0879Q655.2469 202.0879 655.2625 204.35353L655.2625 208.54103L654.16876 208.54103L654.16876 204.3379Q654.16876 203.66603 653.85626 203.3379Q653.5594 203.00978 652.90314 203.00978Q652.3719 203.00978 651.96564 203.29103Q651.575 203.57228 651.35626 204.0254L651.35626 208.54103L650.27814 208.54103L650.27814 202.19728L651.29376 202.19728ZM657.0125 205.32228Q657.0125 203.8379 657.7 202.9629Q658.3875 202.0879 659.5125 202.0879Q660.66876 202.0879 661.325 202.9004L661.3719 202.19728L662.3719 202.19728L662.3719 208.38478Q662.3719 209.61916 661.6375 210.32228Q660.90314 211.04103 659.6844 211.04103Q658.9969 211.04103 658.34064 210.74416Q657.6844 210.44728 657.34064 209.94728L657.90314 209.29103Q658.59064 210.1504 659.60626 210.1504Q660.3875 210.1504 660.825 209.69728Q661.27814 209.25978 661.27814 208.44728L661.27814 207.9004Q660.6219 208.66603 659.4969 208.66603Q658.3875 208.66603 657.7 207.7754Q657.0125 206.86916 657.0125 205.32228ZM658.10626 205.44728Q658.10626 206.50978 658.54376 207.13478Q658.98126 207.74416 659.77814 207.74416Q660.79376 207.74416 661.27814 206.80666L661.27814 203.91603Q660.77814 203.00978 659.77814 203.00978Q658.9969 203.00978 658.54376 203.61916Q658.10626 204.22853 658.10626 205.44728ZM668.45 208.54103L667.3719 208.54103L667.3719 202.19728L668.45 202.19728L668.45 208.54103ZM667.27814 200.5254Q667.27814 200.25978 667.4344 200.07228Q667.60626 199.88478 667.91876 199.88478Q668.23126 199.88478 668.3875 200.07228Q668.5594 200.25978 668.5594 200.5254Q668.5594 200.7754 668.3875 200.9629Q668.23126 201.13478 667.91876 201.13478Q667.60626 201.13478 667.4344 200.9629Q667.27814 200.7754 667.27814 200.5254ZM671.29376 202.19728L671.325 202.9004Q672.0125 202.0879 673.2 202.0879Q674.52814 202.0879 675.0125 203.10353Q675.325 202.6504 675.825 202.36916Q676.34064 202.0879 677.02814 202.0879Q679.1219 202.0879 679.15314 204.29103L679.15314 208.54103L678.075 208.54103L678.075 204.35353Q678.075 203.68166 677.7625 203.35353Q677.45 203.00978 676.71564 203.00978Q676.10626 203.00978 675.7 203.36916Q675.3094 203.72853 675.2469 204.3379L675.2469 208.54103L674.16876 208.54103L674.16876 204.38478Q674.16876 203.00978 672.8094 203.00978Q671.7469 203.00978 671.35626 203.91603L671.35626 208.54103L670.2625 208.54103L670.2625 202.19728L671.29376 202.19728ZM686.6219 205.44728Q686.6219 206.88478 685.96564 207.7754Q685.3094 208.66603 684.16876 208.66603Q683.0125 208.66603 682.35626 207.93166L682.35626 210.97853L681.27814 210.97853L681.27814 202.19728L682.2625 202.19728L682.3094 202.9004Q682.98126 202.0879 684.15314 202.0879Q685.29376 202.0879 685.95 202.94728Q686.6219 203.80666 686.6219 205.3379L686.6219 205.44728ZM685.54376 205.32228Q685.54376 204.24416 685.075 203.63478Q684.6219 203.00978 683.825 203.00978Q682.84064 203.00978 682.35626 203.86916L682.35626 206.9004Q682.84064 207.7754 683.84064 207.7754Q684.6219 207.7754 685.075 207.16603Q685.54376 206.54103 685.54376 205.32228ZM689.45 208.54103L688.3719 208.54103L688.3719 199.54103L689.45 199.54103L689.45 208.54103ZM693.90314 208.66603Q692.60626 208.66603 691.79376 207.82228Q690.9969 206.9629 690.9969 205.54103L690.9969 205.35353Q690.9969 204.4004 691.35626 203.66603Q691.71564 202.91603 692.35626 202.50978Q693.0125 202.0879 693.7625 202.0879Q694.9969 202.0879 695.6844 202.9004Q696.3719 203.7129 696.3719 205.22853L696.3719 205.68166L692.075 205.68166Q692.10626 206.61916 692.6219 207.19728Q693.15314 207.7754 693.96564 207.7754Q694.52814 207.7754 694.91876 207.54103Q695.325 207.30666 695.6375 206.91603L696.29376 207.43166Q695.4969 208.66603 693.90314 208.66603ZM693.7625 202.97853Q693.10626 202.97853 692.65314 203.4629Q692.21564 203.93166 692.1219 204.79103L695.29376 204.79103L695.29376 204.7129Q695.2469 203.88478 694.84064 203.43166Q694.45 202.97853 693.7625 202.97853ZM698.29376 202.19728L698.325 202.9004Q699.0125 202.0879 700.2 202.0879Q701.52814 202.0879 702.0125 203.10353Q702.325 202.6504 702.825 202.36916Q703.34064 202.0879 704.02814 202.0879Q706.1219 202.0879 706.15314 204.29103L706.15314 208.54103L705.075 208.54103L705.075 204.35353Q705.075 203.68166 704.7625 203.35353Q704.45 203.00978 703.71564 203.00978Q703.10626 203.00978 702.7 203.36916Q702.3094 203.72853 702.2469 204.3379L702.2469 208.54103L701.16876 208.54103L701.16876 204.38478Q701.16876 203.00978 699.8094 203.00978Q698.7469 203.00978 698.35626 203.91603L698.35626 208.54103L697.2625 208.54103L697.2625 202.19728L698.29376 202.19728ZM710.90314 208.66603Q709.60626 208.66603 708.79376 207.82228Q707.9969 206.9629 707.9969 205.54103L707.9969 205.35353Q707.9969 204.4004 708.35626 203.66603Q708.71564 202.91603 709.35626 202.50978Q710.0125 202.0879 710.7625 202.0879Q711.9969 202.0879 712.6844 202.9004Q713.3719 203.7129 713.3719 205.22853L713.3719 205.68166L709.075 205.68166Q709.10626 206.61916 709.6219 207.19728Q710.15314 207.7754 710.96564 207.7754Q711.52814 207.7754 711.91876 207.54103Q712.325 207.30666 712.6375 206.91603L713.29376 207.43166Q712.4969 208.66603 710.90314 208.66603ZM710.7625 202.97853Q710.10626 202.97853 709.65314 203.4629Q709.21564 203.93166 709.1219 204.79103L712.29376 204.79103L712.29376 204.7129Q712.2469 203.88478 711.84064 203.43166Q711.45 202.97853 710.7625 202.97853ZM715.29376 202.19728L715.325 202.99416Q716.0594 202.0879 717.23126 202.0879Q719.2469 202.0879 719.2625 204.35353L719.2625 208.54103L718.16876 208.54103L718.16876 204.3379Q718.16876 203.66603 717.85626 203.3379Q717.5594 203.00978 716.90314 203.00978Q716.3719 203.00978 715.96564 203.29103Q715.575 203.57228 715.35626 204.0254L715.35626 208.54103L714.27814 208.54103L714.27814 202.19728L715.29376 202.19728ZM722.7469 200.66603L722.7469 202.19728L723.91876 202.19728L723.91876 203.04103L722.7469 203.04103L722.7469 206.9629Q722.7469 207.35353 722.90314 207.54103Q723.0594 207.72853 723.4344 207.72853Q723.6219 207.72853 723.95 207.66603L723.95 208.54103Q723.52814 208.66603 723.1219 208.66603Q722.40314 208.66603 722.02814 208.22853Q721.65314 207.7754 721.65314 206.9629L721.65314 203.04103L720.4969 203.04103L720.4969 202.19728L721.65314 202.19728L721.65314 200.66603L722.7469 200.66603ZM729.1844 208.54103Q729.09064 208.35353 729.02814 207.86916Q728.27814 208.66603 727.23126 208.66603Q726.29376 208.66603 725.6844 208.13478Q725.09064 207.60353 725.09064 206.7754Q725.09064 205.79103 725.84064 205.24416Q726.59064 204.69728 727.96564 204.69728L729.0125 204.69728L729.0125 204.19728Q729.0125 203.63478 728.66876 203.30666Q728.34064 202.9629 727.66876 202.9629Q727.09064 202.9629 726.7 203.25978Q726.3094 203.54103 726.3094 203.9629L725.21564 203.9629Q725.21564 203.47853 725.54376 203.04103Q725.8875 202.60353 726.46564 202.35353Q727.04376 202.0879 727.73126 202.0879Q728.84064 202.0879 729.45 202.63478Q730.075 203.18166 730.10626 204.13478L730.10626 207.05666Q730.10626 207.93166 730.325 208.44728L730.325 208.54103L729.1844 208.54103ZM727.3875 207.7129Q727.90314 207.7129 728.35626 207.44728Q728.8094 207.18166 729.0125 206.75978L729.0125 205.4629L728.16876 205.4629Q726.16876 205.4629 726.16876 206.63478Q726.16876 207.13478 726.5125 207.43166Q726.85626 207.7129 727.3875 207.7129ZM733.7469 200.66603L733.7469 202.19728L734.91876 202.19728L734.91876 203.04103L733.7469 203.04103L733.7469 206.9629Q733.7469 207.35353 733.90314 207.54103Q734.0594 207.72853 734.4344 207.72853Q734.6219 207.72853 734.95 207.66603L734.95 208.54103Q734.52814 208.66603 734.1219 208.66603Q733.40314 208.66603 733.02814 208.22853Q732.65314 207.7754 732.65314 206.9629L732.65314 203.04103L731.4969 203.04103L731.4969 202.19728L732.65314 202.19728L732.65314 200.66603L733.7469 200.66603ZM737.45 208.54103L736.3719 208.54103L736.3719 202.19728L737.45 202.19728L737.45 208.54103ZM736.27814 200.5254Q736.27814 200.25978 736.4344 200.07228Q736.60626 199.88478 736.91876 199.88478Q737.23126 199.88478 737.3875 200.07228Q737.5594 200.25978 737.5594 200.5254Q737.5594 200.7754 737.3875 200.9629Q737.23126 201.13478 736.91876 201.13478Q736.60626 201.13478 736.4344 200.9629Q736.27814 200.7754 736.27814 200.5254ZM738.98126 205.30666Q738.98126 204.38478 739.34064 203.63478Q739.71564 202.88478 740.3719 202.49416Q741.02814 202.0879 741.85626 202.0879Q743.15314 202.0879 743.95 202.97853Q744.7625 203.86916 744.7625 205.36916L744.7625 205.44728Q744.7625 206.36916 744.40314 207.10353Q744.04376 207.8379 743.3875 208.25978Q742.73126 208.66603 741.8719 208.66603Q740.59064 208.66603 739.77814 207.7754Q738.98126 206.86916 738.98126 205.38478L738.98126 205.30666ZM740.075 205.44728Q740.075 206.49416 740.5594 207.13478Q741.0594 207.7754 741.8719 207.7754Q742.7 207.7754 743.1844 207.13478Q743.66876 206.47853 743.66876 205.30666Q743.66876 204.2754 743.16876 203.63478Q742.6844 202.97853 741.85626 202.97853Q741.0594 202.97853 740.5594 203.61916Q740.075 204.24416 740.075 205.44728ZM747.29376 202.19728L747.325 202.99416Q748.0594 202.0879 749.23126 202.0879Q751.2469 202.0879 751.2625 204.35353L751.2625 208.54103L750.16876 208.54103L750.16876 204.3379Q750.16876 203.66603 749.85626 203.3379Q749.5594 203.00978 748.90314 203.00978Q748.3719 203.00978 747.96564 203.29103Q747.575 203.57228 747.35626 204.0254L747.35626 208.54103L746.27814 208.54103L746.27814 202.19728L747.29376 202.19728ZM756.96564 206.85353Q756.96564 206.41603 756.6219 206.18166Q756.29376 205.93166 755.46564 205.75978Q754.65314 205.5879 754.16876 205.3379Q753.6844 205.0879 753.45 204.75978Q753.23126 204.41603 753.23126 203.94728Q753.23126 203.16603 753.8875 202.63478Q754.54376 202.0879 755.575 202.0879Q756.65314 202.0879 757.3094 202.6504Q757.98126 203.19728 757.98126 204.05666L756.90314 204.05666Q756.90314 203.61916 756.5125 203.30666Q756.1375 202.97853 755.575 202.97853Q754.98126 202.97853 754.6375 203.24416Q754.3094 203.49416 754.3094 203.9004Q754.3094 204.29103 754.6219 204.49416Q754.9344 204.69728 755.7469 204.88478Q756.5594 205.05666 757.0594 205.30666Q757.5594 205.55666 757.79376 205.91603Q758.04376 206.2754 758.04376 206.7754Q758.04376 207.63478 757.35626 208.1504Q756.6844 208.66603 755.60626 208.66603Q754.84064 208.66603 754.2469 208.4004Q753.66876 208.11916 753.34064 207.63478Q753.0125 207.1504 753.0125 206.5879L754.09064 206.5879Q754.1219 207.13478 754.52814 207.4629Q754.9344 207.7754 755.60626 207.7754Q756.21564 207.7754 756.59064 207.5254Q756.96564 207.2754 756.96564 206.85353Z" fill-rule="nonzero"/><path fill="#9e9e9e" d="M726.65314 222.25978L727.09064 218.00978L731.46564 218.00978L731.46564 219.00978L728.0125 219.00978L727.7469 221.3379Q728.3875 220.9629 729.1844 220.9629Q730.34064 220.9629 731.02814 221.74416Q731.71564 222.50978 731.71564 223.82228Q731.71564 225.13478 730.9969 225.9004Q730.29376 226.66603 729.0125 226.66603Q727.8875 226.66603 727.16876 226.04103Q726.45 225.4004 726.35626 224.29103L727.3719 224.29103Q727.48126 225.0254 727.90314 225.4004Q728.325 225.7754 729.0125 225.7754Q729.7625 225.7754 730.2 225.25978Q730.6375 224.74416 730.6375 223.8379Q730.6375 222.97853 730.16876 222.4629Q729.7 221.94728 728.91876 221.94728Q728.21564 221.94728 727.8094 222.24416L727.52814 222.47853L726.65314 222.25978ZM733.65314 222.25978L734.09064 218.00978L738.46564 218.00978L738.46564 219.00978L735.0125 219.00978L734.7469 221.3379Q735.3875 220.9629 736.1844 220.9629Q737.34064 220.9629 738.02814 221.74416Q738.71564 222.50978 738.71564 223.82228Q738.71564 225.13478 737.9969 225.9004Q737.29376 226.66603 736.0125 226.66603Q734.8875 226.66603 734.16876 226.04103Q733.45 225.4004 733.35626 224.29103L734.3719 224.29103Q734.48126 225.0254 734.90314 225.4004Q735.325 225.7754 736.0125 225.7754Q736.7625 225.7754 737.2 225.25978Q737.6375 224.74416 737.6375 223.8379Q737.6375 222.97853 737.16876 222.4629Q736.7 221.94728 735.91876 221.94728Q735.21564 221.94728 734.8094 222.24416L734.52814 222.47853L733.65314 222.25978ZM740.29376 225.97853Q740.29376 225.69728 740.45 225.50978Q740.6219 225.32228 740.95 225.32228Q741.29376 225.32228 741.46564 225.50978Q741.6375 225.69728 741.6375 225.97853Q741.6375 226.24416 741.46564 226.43166Q741.29376 226.60353 740.95 226.60353Q740.6219 226.60353 740.45 226.43166Q740.29376 226.24416 740.29376 225.97853ZM747.41876 218.00978L747.41876 218.91603L747.21564 218.91603Q745.95 218.94728 745.2 219.68166Q744.45 220.4004 744.325 221.7129Q745.0125 220.94728 746.16876 220.94728Q747.27814 220.94728 747.95 221.72853Q748.6219 222.50978 748.6219 223.75978Q748.6219 225.07228 747.90314 225.86916Q747.1844 226.66603 745.96564 226.66603Q744.7469 226.66603 743.98126 225.72853Q743.23126 224.7754 743.23126 223.29103L743.23126 222.88478Q743.23126 220.5254 744.23126 219.2754Q745.23126 218.0254 747.21564 218.00978L747.41876 218.00978ZM745.9969 221.85353Q745.4344 221.85353 744.96564 222.18166Q744.4969 222.50978 744.3094 223.0254L744.3094 223.41603Q744.3094 224.47853 744.77814 225.11916Q745.2625 225.75978 745.96564 225.75978Q746.7 225.75978 747.1219 225.22853Q747.54376 224.68166 747.54376 223.80666Q747.54376 222.93166 747.1219 222.4004Q746.7 221.85353 745.9969 221.85353ZM750.0594 219.6504Q750.0594 218.88478 750.54376 218.38478Q751.04376 217.88478 751.8094 217.88478Q752.59064 217.88478 753.075 218.38478Q753.5594 218.88478 753.5594 219.68166L753.5594 220.10353Q753.5594 220.86916 753.0594 221.36916Q752.575 221.85353 751.825 221.85353Q751.0594 221.85353 750.5594 221.36916Q750.0594 220.86916 750.0594 220.05666L750.0594 219.6504ZM750.8719 220.10353Q750.8719 220.55666 751.1219 220.85353Q751.3875 221.1504 751.825 221.1504Q752.2469 221.1504 752.4969 220.86916Q752.7469 220.57228 752.7469 220.07228L752.7469 219.6504Q752.7469 219.19728 752.4969 218.9004Q752.2469 218.5879 751.8094 218.5879Q751.3719 218.5879 751.1219 218.9004Q750.8719 219.19728 750.8719 219.66603L750.8719 220.10353ZM754.21564 224.44728Q754.21564 223.68166 754.7 223.19728Q755.2 222.69728 755.96564 222.69728Q756.73126 222.69728 757.21564 223.19728Q757.71564 223.68166 757.71564 224.49416L757.71564 224.9004Q757.71564 225.66603 757.23126 226.16603Q756.7469 226.66603 755.98126 226.66603Q755.21564 226.66603 754.71564 226.18166Q754.21564 225.68166 754.21564 224.86916L754.21564 224.44728ZM755.02814 224.9004Q755.02814 225.36916 755.27814 225.66603Q755.54376 225.9629 755.98126 225.9629Q756.40314 225.9629 756.65314 225.68166Q756.90314 225.38478 756.90314 224.88478L756.90314 224.44728Q756.90314 223.97853 756.6375 223.69728Q756.3875 223.4004 755.96564 223.4004Q755.54376 223.4004 755.27814 223.69728Q755.02814 223.97853 755.02814 224.47853L755.02814 224.9004ZM752.075 225.9004L751.45 225.50978L755.6219 218.8379L756.23126 219.22853L752.075 225.9004Z" fill-rule="nonzero"/><path stroke="#757575" stroke-width="1.0" stroke-linecap="butt" d="M758.45 213.04103L561.45 213.04103L544.693 213.04103" fill-rule="nonzero"/><path fill="#9e9e9e" d="M546.693 213.04103C546.693 211.93646 545.79755 211.04103 544.693 211.04103C543.5884 211.04103 542.693 211.93646 542.693 213.04103C542.693 214.1456 543.5884 215.04103 544.693 215.04103C545.79755 215.04103 546.693 214.1456 546.693 213.04103" fill-rule="nonzero"/></svg>