<svg version="1.1" viewBox="0.0 0.0 777.0 371.0" fill="none" stroke="none" stroke-linecap="square" stroke-miterlimit="10" width="777" height="371" xmlns:xlink="http://www.w3.org/1999/xlink" xmlns="http://www.w3.org/2000/svg"><path fill="#ffffff" d="M0 0L777.0 0L777.0 371.0L0 371.0L0 0Z" fill-rule="nonzero"/><path fill="#0f9d58" d="M302.23703 42.562935C328.26834 26.852972 358.09555 18.55 388.5 18.55L388.5 102.025C373.29776 102.025 358.38416 106.17648 345.36853 114.03147Z" fill-rule="nonzero"/><path fill="#f4b400" d="M247.26257 96.48152C261.1356 74.47047 279.96112 56.006527 302.23703 42.562935L345.36853 114.03147C334.23056 120.753265 324.8178 129.98523 317.8813 140.99075Z" fill-rule="nonzero"/><path fill="#db4437" d="M319.4143 337.4851C275.51825 317.5319 242.39279 279.57434 228.56364 233.3818C214.73451 187.18927 221.55241 137.27347 247.26257 96.48152L317.8813 140.99075C305.0262 161.38673 301.61725 186.34464 308.53183 209.4409C315.44638 232.53717 332.00912 251.51595 353.95715 261.49255Z" fill-rule="nonzero"/><path fill="#4285f4" d="M388.5 18.55C456.713 18.55 518.0651 60.048008 543.4545 123.359886C568.844 186.67175 553.1633 259.06155 503.85062 306.1919C454.5379 353.32227 381.5129 365.71237 319.4143 337.4851L353.95715 261.49255C385.00644 275.6062 421.51895 269.41113 446.17532 245.84595C470.83167 222.28078 478.672 186.08588 465.97726 154.42995C453.28256 122.774 422.6065 102.025 388.5 102.025Z" fill-rule="nonzero"/><path fill="#757575" d="M26.096874 26.565624Q26.096874 27.815624 25.675 28.753124Q25.253124 29.675 24.471874 30.175Q23.70625 30.675 22.675 30.675Q21.675 30.675 20.89375 30.175Q20.1125 29.675 19.675 28.76875Q19.253124 27.846874 19.2375 26.628124L19.2375 26.01875Q19.2375 24.784374 19.659374 23.846874Q20.096874 22.909374 20.878124 22.409374Q21.659374 21.89375 22.675 21.89375Q23.690624 21.89375 24.471874 22.39375Q25.253124 22.89375 25.675 23.83125Q26.096874 24.76875 26.096874 26.01875L26.096874 26.565624ZM24.9875 26.003124Q24.9875 24.4875 24.378124 23.675Q23.76875 22.8625 22.675 22.8625Q21.596874 22.8625 20.9875 23.675Q20.378124 24.4875 20.3625 25.925L20.3625 26.565624Q20.3625 28.034374 20.971874 28.878124Q21.596874 29.70625 22.675 29.70625Q23.76875 29.70625 24.3625 28.925Q24.971874 28.128124 24.9875 26.64375L24.9875 26.003124ZM28.39375 24.20625L28.425 25.003124Q29.159374 24.096874 30.33125 24.096874Q32.346874 24.096874 32.3625 26.3625L32.3625 30.55L31.26875 30.55L31.26875 26.346874Q31.26875 25.675 30.95625 25.346874Q30.659374 25.01875 30.003124 25.01875Q29.471874 25.01875 29.065624 25.3Q28.675 25.58125 28.45625 26.034374L28.45625 30.55L27.378124 30.55L27.378124 24.20625L28.39375 24.20625ZM35.55 30.55L34.471874 30.55L34.471874 21.55L35.55 21.55L35.55 30.55ZM39.440624 28.95625L40.925 24.20625L42.08125 24.20625L39.534374 31.534374Q38.940624 33.1125 37.659374 33.1125L37.440624 33.096874L37.05 33.01875L37.05 32.14375L37.33125 32.159374Q37.89375 32.159374 38.190624 31.940624Q38.503124 31.721874 38.70625 31.128124L38.940624 30.471874L36.675 24.20625L37.8625 24.20625L39.440624 28.95625ZM49.815624 30.55L48.7375 30.55L48.7375 23.33125L46.55 24.128124L46.55 23.14375L49.659374 21.971874L49.815624 21.971874L49.815624 30.55ZM61.721874 27.45625Q61.721874 28.89375 61.065624 29.784374Q60.409374 30.675 59.26875 30.675Q58.1125 30.675 57.45625 29.940624L57.45625 32.9875L56.378124 32.9875L56.378124 24.20625L57.3625 24.20625L57.409374 24.909374Q58.08125 24.096874 59.253124 24.096874Q60.39375 24.096874 61.05 24.95625Q61.721874 25.815624 61.721874 27.346874L61.721874 27.45625ZM60.64375 27.33125Q60.64375 26.253124 60.175 25.64375Q59.721874 25.01875 58.925 25.01875Q57.940624 25.01875 57.45625 25.878124L57.45625 28.909374Q57.940624 29.784374 58.940624 29.784374Q59.721874 29.784374 60.175 29.175Q60.64375 28.55 60.64375 27.33125ZM64.55 30.55L63.471874 30.55L63.471874 21.55L64.55 21.55L64.55 30.55ZM70.28438 30.55Q70.19063 30.3625 70.12813 29.878124Q69.37813 30.675 68.33125 30.675Q67.39375 30.675 66.78438 30.14375Q66.19063 29.6125 66.19063 28.784374Q66.19063 27.8 66.94063 27.253124Q67.69063 26.70625 69.06563 26.70625L70.1125 26.70625L70.1125 26.20625Q70.1125 25.64375 69.76875 25.315624Q69.44063 24.971874 68.76875 24.971874Q68.19063 24.971874 67.8 25.26875Q67.40938 25.55 67.40938 25.971874L66.31563 25.971874Q66.31563 25.4875 66.64375 25.05Q66.9875 24.6125 67.56563 24.3625Q68.14375 24.096874 68.83125 24.096874Q69.94063 24.096874 70.55 24.64375Q71.175 25.190624 71.20625 26.14375L71.20625 29.065624Q71.20625 29.940624 71.425 30.45625L71.425 30.55L70.28438 30.55ZM68.4875 29.721874Q69.00313 29.721874 69.45625 29.45625Q69.90938 29.190624 70.1125 28.76875L70.1125 27.471874L69.26875 27.471874Q67.26875 27.471874 67.26875 28.64375Q67.26875 29.14375 67.6125 29.440624Q67.95625 29.721874 68.4875 29.721874ZM74.39375 24.20625L74.425 25.003124Q75.15938 24.096874 76.33125 24.096874Q78.34688 24.096874 78.3625 26.3625L78.3625 30.55L77.26875 30.55L77.26875 26.346874Q77.26875 25.675 76.95625 25.346874Q76.65938 25.01875 76.00313 25.01875Q75.47188 25.01875 75.06563 25.3Q74.675 25.58125 74.45625 26.034374L74.45625 30.55L73.37813 30.55L73.37813 24.20625L74.39375 24.20625ZM81.39375 24.20625L81.425 25.003124Q82.15938 24.096874 83.33125 24.096874Q85.34688 24.096874 85.3625 26.3625L85.3625 30.55L84.26875 30.55L84.26875 26.346874Q84.26875 25.675 83.95625 25.346874Q83.65938 25.01875 83.00313 25.01875Q82.47188 25.01875 82.06563 25.3Q81.675 25.58125 81.45625 26.034374L81.45625 30.55L80.37813 30.55L80.37813 24.20625L81.39375 24.20625ZM90.00313 30.675Q88.70625 30.675 87.89375 29.83125Q87.09688 28.971874 87.09688 27.55L87.09688 27.3625Q87.09688 26.409374 87.45625 25.675Q87.81563 24.925 88.45625 24.51875Q89.1125 24.096874 89.8625 24.096874Q91.09688 24.096874 91.78438 24.909374Q92.47188 25.721874 92.47188 27.2375L92.47188 27.690624L88.175 27.690624Q88.20625 28.628124 88.72188 29.20625Q89.25313 29.784374 90.06563 29.784374Q90.62813 29.784374 91.01875 29.55Q91.425 29.315624 91.7375 28.925L92.39375 29.440624Q91.59688 30.675 90.00313 30.675ZM89.8625 24.9875Q89.20625 24.9875 88.75313 25.471874Q88.31563 25.940624 88.22188 26.8L91.39375 26.8L91.39375 26.721874Q91.34688 25.89375 90.94063 25.440624Q90.55 24.9875 89.8625 24.9875ZM93.1125 27.33125Q93.1125 25.8625 93.8 24.9875Q94.4875 24.096874 95.6125 24.096874Q96.72188 24.096874 97.37813 24.846874L97.37813 21.55L98.45625 21.55L98.45625 30.55L97.45625 30.55L97.40938 29.8625Q96.75313 30.675 95.59688 30.675Q94.50313 30.675 93.8 29.76875Q93.1125 28.8625 93.1125 27.409374L93.1125 27.33125ZM94.19063 27.45625Q94.19063 28.534374 94.62813 29.14375Q95.08125 29.753124 95.8625 29.753124Q96.89375 29.753124 97.37813 28.815624L97.37813 25.909374Q96.89375 25.01875 95.87813 25.01875Q95.08125 25.01875 94.62813 25.628124Q94.19063 26.2375 94.19063 27.45625ZM104.55 30.55L103.47188 30.55L103.47188 24.20625L104.55 24.20625L104.55 30.55ZM103.37813 22.534374Q103.37813 22.26875 103.53438 22.08125Q103.70625 21.89375 104.01875 21.89375Q104.33125 21.89375 104.4875 22.08125Q104.65938 22.26875 104.65938 22.534374Q104.65938 22.784374 104.4875 22.971874Q104.33125 23.14375 104.01875 23.14375Q103.70625 23.14375 103.53438 22.971874Q103.37813 22.784374 103.37813 22.534374ZM107.39375 24.20625L107.425 24.909374Q108.1125 24.096874 109.3 24.096874Q110.62813 24.096874 111.1125 25.1125Q111.425 24.659374 111.925 24.378124Q112.44063 24.096874 113.12813 24.096874Q115.22188 24.096874 115.25313 26.3L115.25313 30.55L114.175 30.55L114.175 26.3625Q114.175 25.690624 113.8625 25.3625Q113.55 25.01875 112.81563 25.01875Q112.20625 25.01875 111.8 25.378124Q111.40938 25.7375 111.34688 26.346874L111.34688 30.55L110.26875 30.55L110.26875 26.39375Q110.26875 25.01875 108.90938 25.01875Q107.84688 25.01875 107.45625 25.925L107.45625 30.55L106.3625 30.55L106.3625 24.20625L107.39375 24.20625ZM122.72188 27.45625Q122.72188 28.89375 122.06563 29.784374Q121.40938 30.675 120.26875 30.675Q119.1125 30.675 118.45625 29.940624L118.45625 32.9875L117.37813 32.9875L117.37813 24.20625L118.3625 24.20625L118.40938 24.909374Q119.08125 24.096874 120.25313 24.096874Q121.39375 24.096874 122.05 24.95625Q122.72188 25.815624 122.72188 27.346874L122.72188 27.45625ZM121.64375 27.33125Q121.64375 26.253124 121.175 25.64375Q120.72188 25.01875 119.925 25.01875Q118.94063 25.01875 118.45625 25.878124L118.45625 28.909374Q118.94063 29.784374 119.94063 29.784374Q120.72188 29.784374 121.175 29.175Q121.64375 28.55 121.64375 27.33125ZM125.55 30.55L124.47188 30.55L124.47188 21.55L125.55 21.55L125.55 30.55ZM130.00313 30.675Q128.70625 30.675 127.89375 29.83125Q127.09688 28.971874 127.09688 27.55L127.09688 27.3625Q127.09688 26.409374 127.45625 25.675Q127.81563 24.925 128.45625 24.51875Q129.1125 24.096874 129.8625 24.096874Q131.09688 24.096874 131.78438 24.909374Q132.47188 25.721874 132.47188 27.2375L132.47188 27.690624L128.175 27.690624Q128.20625 28.628124 128.72188 29.20625Q129.25313 29.784374 130.06563 29.784374Q130.62813 29.784374 131.01875 29.55Q131.425 29.315624 131.7375 28.925L132.39375 29.440624Q131.59688 30.675 130.00313 30.675ZM129.8625 24.9875Q129.20625 24.9875 128.75313 25.471874Q128.31563 25.940624 128.22188 26.8L131.39375 26.8L131.39375 26.721874Q131.34688 25.89375 130.94063 25.440624Q130.55 24.9875 129.8625 24.9875ZM134.39375 24.20625L134.425 24.909374Q135.1125 24.096874 136.3 24.096874Q137.62813 24.096874 138.1125 25.1125Q138.425 24.659374 138.925 24.378124Q139.44063 24.096874 140.12813 24.096874Q142.22188 24.096874 142.25313 26.3L142.25313 30.55L141.175 30.55L141.175 26.3625Q141.175 25.690624 140.8625 25.3625Q140.55 25.01875 139.81563 25.01875Q139.20625 25.01875 138.8 25.378124Q138.40938 25.7375 138.34688 26.346874L138.34688 30.55L137.26875 30.55L137.26875 26.39375Q137.26875 25.01875 135.90938 25.01875Q134.84688 25.01875 134.45625 25.925L134.45625 30.55L133.3625 30.55L133.3625 24.20625L134.39375 24.20625ZM147.00313 30.675Q145.70625 30.675 144.89375 29.83125Q144.09688 28.971874 144.09688 27.55L144.09688 27.3625Q144.09688 26.409374 144.45625 25.675Q144.81563 24.925 145.45625 24.51875Q146.1125 24.096874 146.8625 24.096874Q148.09688 24.096874 148.78438 24.909374Q149.47188 25.721874 149.47188 27.2375L149.47188 27.690624L145.175 27.690624Q145.20625 28.628124 145.72188 29.20625Q146.25313 29.784374 147.06563 29.784374Q147.62813 29.784374 148.01875 29.55Q148.425 29.315624 148.7375 28.925L149.39375 29.440624Q148.59688 30.675 147.00313 30.675ZM146.8625 24.9875Q146.20625 24.9875 145.75313 25.471874Q145.31563 25.940624 145.22188 26.8L148.39375 26.8L148.39375 26.721874Q148.34688 25.89375 147.94063 25.440624Q147.55 24.9875 146.8625 24.9875ZM151.39375 24.20625L151.425 25.003124Q152.15938 24.096874 153.33125 24.096874Q155.34688 24.096874 155.3625 26.3625L155.3625 30.55L154.26875 30.55L154.26875 26.346874Q154.26875 25.675 153.95625 25.346874Q153.65938 25.01875 153.00313 25.01875Q152.47188 25.01875 152.06563 25.3Q151.675 25.58125 151.45625 26.034374L151.45625 30.55L150.37813 30.55L150.37813 24.20625L151.39375 24.20625ZM158.84688 22.675L158.84688 24.20625L160.01875 24.20625L160.01875 25.05L158.84688 25.05L158.84688 28.971874Q158.84688 29.3625 159.00313 29.55Q159.15938 29.7375 159.53438 29.7375Q159.72188 29.7375 160.05 29.675L160.05 30.55Q159.62813 30.675 159.22188 30.675Q158.50313 30.675 158.12813 30.2375Q157.75313 29.784374 157.75313 28.971874L157.75313 25.05L156.59688 25.05L156.59688 24.20625L157.75313 24.20625L157.75313 22.675L158.84688 22.675ZM165.28438 30.55Q165.19063 30.3625 165.12813 29.878124Q164.37813 30.675 163.33125 30.675Q162.39375 30.675 161.78438 30.14375Q161.19063 29.6125 161.19063 28.784374Q161.19063 27.8 161.94063 27.253124Q162.69063 26.70625 164.06563 26.70625L165.1125 26.70625L165.1125 26.20625Q165.1125 25.64375 164.76875 25.315624Q164.44063 24.971874 163.76875 24.971874Q163.19063 24.971874 162.8 25.26875Q162.40938 25.55 162.40938 25.971874L161.31563 25.971874Q161.31563 25.4875 161.64375 25.05Q161.9875 24.6125 162.56563 24.3625Q163.14375 24.096874 163.83125 24.096874Q164.94063 24.096874 165.55 24.64375Q166.175 25.190624 166.20625 26.14375L166.20625 29.065624Q166.20625 29.940624 166.425 30.45625L166.425 30.55L165.28438 30.55ZM163.4875 29.721874Q164.00313 29.721874 164.45625 29.45625Q164.90938 29.190624 165.1125 28.76875L165.1125 27.471874L164.26875 27.471874Q162.26875 27.471874 162.26875 28.64375Q162.26875 29.14375 162.6125 29.440624Q162.95625 29.721874 163.4875 29.721874ZM169.84688 22.675L169.84688 24.20625L171.01875 24.20625L171.01875 25.05L169.84688 25.05L169.84688 28.971874Q169.84688 29.3625 170.00313 29.55Q170.15938 29.7375 170.53438 29.7375Q170.72188 29.7375 171.05 29.675L171.05 30.55Q170.62813 30.675 170.22188 30.675Q169.50313 30.675 169.12813 30.2375Q168.75313 29.784374 168.75313 28.971874L168.75313 25.05L167.59688 25.05L167.59688 24.20625L168.75313 24.20625L168.75313 22.675L169.84688 22.675ZM173.55 30.55L172.47188 30.55L172.47188 24.20625L173.55 24.20625L173.55 30.55ZM172.37813 22.534374Q172.37813 22.26875 172.53438 22.08125Q172.70625 21.89375 173.01875 21.89375Q173.33125 21.89375 173.4875 22.08125Q173.65938 22.26875 173.65938 22.534374Q173.65938 22.784374 173.4875 22.971874Q173.33125 23.14375 173.01875 23.14375Q172.70625 23.14375 172.53438 22.971874Q172.37813 22.784374 172.37813 22.534374ZM175.08125 27.315624Q175.08125 26.39375 175.44063 25.64375Q175.81563 24.89375 176.47188 24.503124Q177.12813 24.096874 177.95625 24.096874Q179.25313 24.096874 180.05 24.9875Q180.8625 25.878124 180.8625 27.378124L180.8625 27.45625Q180.8625 28.378124 180.50313 29.1125Q180.14375 29.846874 179.4875 30.26875Q178.83125 30.675 177.97188 30.675Q176.69063 30.675 175.87813 29.784374Q175.08125 28.878124 175.08125 27.39375L175.08125 27.315624ZM176.175 27.45625Q176.175 28.503124 176.65938 29.14375Q177.15938 29.784374 177.97188 29.784374Q178.8 29.784374 179.28438 29.14375Q179.76875 28.4875 179.76875 27.315624Q179.76875 26.284374 179.26875 25.64375Q178.78438 24.9875 177.95625 24.9875Q177.15938 24.9875 176.65938 25.628124Q176.175 26.253124 176.175 27.45625ZM183.39375 24.20625L183.425 25.003124Q184.15938 24.096874 185.33125 24.096874Q187.34688 24.096874 187.3625 26.3625L187.3625 30.55L186.26875 30.55L186.26875 26.346874Q186.26875 25.675 185.95625 25.346874Q185.65938 25.01875 185.00313 25.01875Q184.47188 25.01875 184.06563 25.3Q183.675 25.58125 183.45625 26.034374L183.45625 30.55L182.37813 30.55L182.37813 24.20625L183.39375 24.20625Z" fill-rule="nonzero"/><path fill="#9e9e9e" d="M24.440624 42.2375Q24.440624 42.878124 24.096874 43.378124Q23.753124 43.878124 23.190624 44.159374Q23.846874 44.440624 24.2375 45.003124Q24.628124 45.55 24.628124 46.253124Q24.628124 47.346874 23.878124 48.01875Q23.14375 48.675 21.925 48.675Q20.690624 48.675 19.940624 48.01875Q19.20625 47.346874 19.20625 46.253124Q19.20625 45.55 19.58125 45.003124Q19.95625 44.440624 20.628124 44.159374Q20.065624 43.878124 19.7375 43.378124Q19.409374 42.878124 19.409374 42.2375Q19.409374 41.159374 20.096874 40.534374Q20.784374 39.89375 21.925 39.89375Q23.05 39.89375 23.7375 40.534374Q24.440624 41.159374 24.440624 42.2375ZM23.55 46.221874Q23.55 45.503124 23.096874 45.065624Q22.64375 44.6125 21.909374 44.6125Q21.175 44.6125 20.721874 45.065624Q20.284374 45.503124 20.284374 46.2375Q20.284374 46.95625 20.721874 47.378124Q21.159374 47.784374 21.925 47.784374Q22.675 47.784374 23.1125 47.3625Q23.55 46.940624 23.55 46.221874ZM21.925 40.784374Q21.284374 40.784374 20.878124 41.190624Q20.4875 41.58125 20.4875 42.26875Q20.4875 42.909374 20.878124 43.315624Q21.26875 43.721874 21.909374 43.721874Q22.565624 43.721874 22.95625 43.315624Q23.346874 42.909374 23.346874 42.26875Q23.346874 41.6125 22.940624 41.20625Q22.534374 40.784374 21.925 40.784374ZM26.39375 47.9875Q26.39375 47.70625 26.55 47.51875Q26.721874 47.33125 27.05 47.33125Q27.39375 47.33125 27.565624 47.51875Q27.7375 47.70625 27.7375 47.9875Q27.7375 48.253124 27.565624 48.440624Q27.39375 48.6125 27.05 48.6125Q26.721874 48.6125 26.55 48.440624Q26.39375 48.253124 26.39375 47.9875ZM33.51875 40.01875L33.51875 40.925L33.315624 40.925Q32.05 40.95625 31.3 41.690624Q30.55 42.409374 30.425 43.721874Q31.1125 42.95625 32.26875 42.95625Q33.378124 42.95625 34.05 43.7375Q34.721874 44.51875 34.721874 45.76875Q34.721874 47.08125 34.003124 47.878124Q33.284374 48.675 32.065624 48.675Q30.846874 48.675 30.08125 47.7375Q29.33125 46.784374 29.33125 45.3L29.33125 44.89375Q29.33125 42.534374 30.33125 41.284374Q31.33125 40.034374 33.315624 40.01875L33.51875 40.01875ZM32.096874 43.8625Q31.534374 43.8625 31.065624 44.190624Q30.596874 44.51875 30.409374 45.034374L30.409374 45.425Q30.409374 46.4875 30.878124 47.128124Q31.3625 47.76875 32.065624 47.76875Q32.8 47.76875 33.221874 47.2375Q33.64375 46.690624 33.64375 45.815624Q33.64375 44.940624 33.221874 44.409374Q32.8 43.8625 32.096874 43.8625ZM36.159374 41.659374Q36.159374 40.89375 36.64375 40.39375Q37.14375 39.89375 37.909374 39.89375Q38.690624 39.89375 39.175 40.39375Q39.659374 40.89375 39.659374 41.690624L39.659374 42.1125Q39.659374 42.878124 39.159374 43.378124Q38.675 43.8625 37.925 43.8625Q37.159374 43.8625 36.659374 43.378124Q36.159374 42.878124 36.159374 42.065624L36.159374 41.659374ZM36.971874 42.1125Q36.971874 42.565624 37.221874 42.8625Q37.4875 43.159374 37.925 43.159374Q38.346874 43.159374 38.596874 42.878124Q38.846874 42.58125 38.846874 42.08125L38.846874 41.659374Q38.846874 41.20625 38.596874 40.909374Q38.346874 40.596874 37.909374 40.596874Q37.471874 40.596874 37.221874 40.909374Q36.971874 41.20625 36.971874 41.675L36.971874 42.1125ZM40.315624 46.45625Q40.315624 45.690624 40.8 45.20625Q41.3 44.70625 42.065624 44.70625Q42.83125 44.70625 43.315624 45.20625Q43.815624 45.690624 43.815624 46.503124L43.815624 46.909374Q43.815624 47.675 43.33125 48.175Q42.846874 48.675 42.08125 48.675Q41.315624 48.675 40.815624 48.190624Q40.315624 47.690624 40.315624 46.878124L40.315624 46.45625ZM41.128124 46.909374Q41.128124 47.378124 41.378124 47.675Q41.64375 47.971874 42.08125 47.971874Q42.503124 47.971874 42.753124 47.690624Q43.003124 47.39375 43.003124 46.89375L43.003124 46.45625Q43.003124 45.9875 42.7375 45.70625Q42.4875 45.409374 42.065624 45.409374Q41.64375 45.409374 41.378124 45.70625Q41.128124 45.9875 41.128124 46.4875L41.128124 46.909374ZM38.175 47.909374L37.55 47.51875L41.721874 40.846874L42.33125 41.2375L38.175 47.909374Z" fill-rule="nonzero"/><path stroke="#757575" stroke-width="1.0" stroke-linecap="butt" d="M18.55 35.05L215.55 35.05L345.96716 32.70697" fill-rule="nonzero"/><path fill="#9e9e9e" d="M347.96716 32.70697C347.96716 31.6024 347.07172 30.70697 345.96716 30.70697C344.86258 30.70697 343.96716 31.6024 343.96716 32.70697C343.96716 33.81154 344.86258 34.70697 345.96716 34.70697C347.07172 34.70697 347.96716 33.81154 347.96716 32.70697" fill-rule="nonzero"/><path fill="#757575" d="M24.846874 67.76896L19.253124 67.76896L19.253124 66.98771L22.20625 63.70646Q22.8625 62.95646 23.1125 62.503334Q23.3625 62.034584 23.3625 61.534584Q23.3625 60.86271 22.95625 60.440834Q22.565624 60.003334 21.878124 60.003334Q21.08125 60.003334 20.628124 60.472084Q20.175 60.92521 20.175 61.753334L19.096874 61.753334Q19.096874 60.565834 19.846874 59.847084Q20.6125 59.11271 21.878124 59.11271Q23.08125 59.11271 23.76875 59.73771Q24.45625 60.36271 24.45625 61.409584Q24.45625 62.659584 22.846874 64.409584L20.565624 66.878334L24.846874 66.878334L24.846874 67.76896ZM29.08125 64.534584Q29.08125 63.61271 29.440624 62.86271Q29.815624 62.11271 30.471874 61.722084Q31.128124 61.315834 31.95625 61.315834Q33.253124 61.315834 34.05 62.20646Q34.8625 63.097084 34.8625 64.597084L34.8625 64.67521Q34.8625 65.597084 34.503124 66.33146Q34.14375 67.065834 33.4875 67.48771Q32.83125 67.89396 31.971874 67.89396Q30.690624 67.89396 29.878124 67.003334Q29.08125 66.097084 29.08125 64.61271L29.08125 64.534584ZM30.175 64.67521Q30.175 65.722084 30.659374 66.36271Q31.159374 67.003334 31.971874 67.003334Q32.8 67.003334 33.284374 66.36271Q33.76875 65.70646 33.76875 64.534584Q33.76875 63.503334 33.26875 62.86271Q32.784374 62.20646 31.95625 62.20646Q31.159374 62.20646 30.659374 62.847084Q30.175 63.472084 30.175 64.67521ZM39.440624 62.39396Q39.190624 62.36271 38.909374 62.36271Q37.83125 62.36271 37.45625 63.26896L37.45625 67.76896L36.378124 67.76896L36.378124 61.42521L37.425 61.42521L37.440624 62.159584Q37.971874 61.315834 38.95625 61.315834Q39.26875 61.315834 39.440624 61.39396L39.440624 62.39396ZM44.39375 61.42521L44.425 62.128334Q45.1125 61.315834 46.3 61.315834Q47.628124 61.315834 48.1125 62.33146Q48.425 61.878334 48.925 61.597084Q49.440624 61.315834 50.128124 61.315834Q52.221874 61.315834 52.253124 63.51896L52.253124 67.76896L51.175 67.76896L51.175 63.58146Q51.175 62.909584 50.8625 62.58146Q50.55 62.23771 49.815624 62.23771Q49.20625 62.23771 48.8 62.597084Q48.409374 62.95646 48.346874 63.565834L48.346874 67.76896L47.26875 67.76896L47.26875 63.61271Q47.26875 62.23771 45.909374 62.23771Q44.846874 62.23771 44.45625 63.14396L44.45625 67.76896L43.3625 67.76896L43.3625 61.42521L44.39375 61.42521ZM54.08125 64.534584Q54.08125 63.61271 54.440624 62.86271Q54.815624 62.11271 55.471874 61.722084Q56.128124 61.315834 56.95625 61.315834Q58.253124 61.315834 59.05 62.20646Q59.8625 63.097084 59.8625 64.597084L59.8625 64.67521Q59.8625 65.597084 59.503124 66.33146Q59.14375 67.065834 58.4875 67.48771Q57.83125 67.89396 56.971874 67.89396Q55.690624 67.89396 54.878124 67.003334Q54.08125 66.097084 54.08125 64.61271L54.08125 64.534584ZM55.175 64.67521Q55.175 65.722084 55.659374 66.36271Q56.159374 67.003334 56.971874 67.003334Q57.8 67.003334 58.284374 66.36271Q58.76875 65.70646 58.76875 64.534584Q58.76875 63.503334 58.26875 62.86271Q57.784374 62.20646 56.95625 62.20646Q56.159374 62.20646 55.659374 62.847084Q55.175 63.472084 55.175 64.67521ZM64.44063 62.39396Q64.19063 62.36271 63.909374 62.36271Q62.83125 62.36271 62.45625 63.26896L62.45625 67.76896L61.378124 67.76896L61.378124 61.42521L62.425 61.42521L62.440624 62.159584Q62.971874 61.315834 63.95625 61.315834Q64.26875 61.315834 64.44063 61.39396L64.44063 62.39396ZM68.00313 67.89396Q66.70625 67.89396 65.89375 67.05021Q65.09688 66.190834 65.09688 64.76896L65.09688 64.58146Q65.09688 63.628334 65.45625 62.89396Q65.81563 62.14396 66.45625 61.73771Q67.1125 61.315834 67.8625 61.315834Q69.09688 61.315834 69.78438 62.128334Q70.47188 62.940834 70.47188 64.45646L70.47188 64.909584L66.175 64.909584Q66.20625 65.847084 66.72188 66.42521Q67.25313 67.003334 68.06563 67.003334Q68.62813 67.003334 69.01875 66.76896Q69.425 66.534584 69.7375 66.14396L70.39375 66.659584Q69.59688 67.89396 68.00313 67.89396ZM67.8625 62.20646Q67.20625 62.20646 66.75313 62.690834Q66.31563 63.159584 66.22188 64.01896L69.39375 64.01896L69.39375 63.940834Q69.34688 63.11271 68.94063 62.659584Q68.55 62.20646 67.8625 62.20646ZM79.72188 64.67521Q79.72188 66.11271 79.06563 67.003334Q78.40938 67.89396 77.26875 67.89396Q76.1125 67.89396 75.45625 67.159584L75.45625 70.20646L74.37813 70.20646L74.37813 61.42521L75.3625 61.42521L75.40938 62.128334Q76.08125 61.315834 77.25313 61.315834Q78.39375 61.315834 79.05 62.17521Q79.72188 63.034584 79.72188 64.565834L79.72188 64.67521ZM78.64375 64.55021Q78.64375 63.472084 78.175 62.86271Q77.72188 62.23771 76.925 62.23771Q75.94063 62.23771 75.45625 63.097084L75.45625 66.128334Q75.94063 67.003334 76.94063 67.003334Q77.72188 67.003334 78.175 66.39396Q78.64375 65.76896 78.64375 64.55021ZM82.55 67.76896L81.47188 67.76896L81.47188 58.76896L82.55 58.76896L82.55 67.76896ZM88.28438 67.76896Q88.19063 67.58146 88.12813 67.097084Q87.37813 67.89396 86.33125 67.89396Q85.39375 67.89396 84.78438 67.36271Q84.19063 66.83146 84.19063 66.003334Q84.19063 65.01896 84.94063 64.472084Q85.69063 63.92521 87.06563 63.92521L88.1125 63.92521L88.1125 63.42521Q88.1125 62.86271 87.76875 62.534584Q87.44063 62.190834 86.76875 62.190834Q86.19063 62.190834 85.8 62.48771Q85.40938 62.76896 85.40938 63.190834L84.31563 63.190834Q84.31563 62.70646 84.64375 62.26896Q84.9875 61.83146 85.56563 61.58146Q86.14375 61.315834 86.83125 61.315834Q87.94063 61.315834 88.55 61.86271Q89.175 62.409584 89.20625 63.36271L89.20625 66.284584Q89.20625 67.159584 89.425 67.67521L89.425 67.76896L88.28438 67.76896ZM86.4875 66.940834Q87.00313 66.940834 87.45625 66.67521Q87.90938 66.409584 88.1125 65.98771L88.1125 64.690834L87.26875 64.690834Q85.26875 64.690834 85.26875 65.86271Q85.26875 66.36271 85.6125 66.659584Q85.95625 66.940834 86.4875 66.940834ZM92.39375 61.42521L92.425 62.222084Q93.15938 61.315834 94.33125 61.315834Q96.34688 61.315834 96.3625 63.58146L96.3625 67.76896L95.26875 67.76896L95.26875 63.565834Q95.26875 62.89396 94.95625 62.565834Q94.65938 62.23771 94.00313 62.23771Q93.47188 62.23771 93.06563 62.51896Q92.675 62.80021 92.45625 63.253334L92.45625 67.76896L91.37813 67.76896L91.37813 61.42521L92.39375 61.42521ZM99.39375 61.42521L99.425 62.222084Q100.15938 61.315834 101.33125 61.315834Q103.34688 61.315834 103.3625 63.58146L103.3625 67.76896L102.26875 67.76896L102.26875 63.565834Q102.26875 62.89396 101.95625 62.565834Q101.65938 62.23771 101.00313 62.23771Q100.47188 62.23771 100.06563 62.51896Q99.675 62.80021 99.45625 63.253334L99.45625 67.76896L98.37813 67.76896L98.37813 61.42521L99.39375 61.42521ZM108.00313 67.89396Q106.70625 67.89396 105.89375 67.05021Q105.09688 66.190834 105.09688 64.76896L105.09688 64.58146Q105.09688 63.628334 105.45625 62.89396Q105.81563 62.14396 106.45625 61.73771Q107.1125 61.315834 107.8625 61.315834Q109.09688 61.315834 109.78438 62.128334Q110.47188 62.940834 110.47188 64.45646L110.47188 64.909584L106.175 64.909584Q106.20625 65.847084 106.72188 66.42521Q107.25313 67.003334 108.06563 67.003334Q108.62813 67.003334 109.01875 66.76896Q109.425 66.534584 109.7375 66.14396L110.39375 66.659584Q109.59688 67.89396 108.00313 67.89396ZM107.8625 62.20646Q107.20625 62.20646 106.75313 62.690834Q106.31563 63.159584 106.22188 64.01896L109.39375 64.01896L109.39375 63.940834Q109.34688 63.11271 108.94063 62.659584Q108.55 62.20646 107.8625 62.20646ZM111.1125 64.55021Q111.1125 63.08146 111.8 62.20646Q112.4875 61.315834 113.6125 61.315834Q114.72188 61.315834 115.37813 62.065834L115.37813 58.76896L116.45625 58.76896L116.45625 67.76896L115.45625 67.76896L115.40938 67.08146Q114.75313 67.89396 113.59688 67.89396Q112.50313 67.89396 111.8 66.98771Q111.1125 66.08146 111.1125 64.628334L111.1125 64.55021ZM112.19063 64.67521Q112.19063 65.753334 112.62813 66.36271Q113.08125 66.972084 113.8625 66.972084Q114.89375 66.972084 115.37813 66.034584L115.37813 63.128334Q114.89375 62.23771 113.87813 62.23771Q113.08125 62.23771 112.62813 62.847084Q112.19063 63.45646 112.19063 64.67521ZM122.55 67.76896L121.47188 67.76896L121.47188 61.42521L122.55 61.42521L122.55 67.76896ZM121.37813 59.753334Q121.37813 59.48771 121.53438 59.30021Q121.70625 59.11271 122.01875 59.11271Q122.33125 59.11271 122.4875 59.30021Q122.65938 59.48771 122.65938 59.753334Q122.65938 60.003334 122.4875 60.190834Q122.33125 60.36271 122.01875 60.36271Q121.70625 60.36271 121.53438 60.190834Q121.37813 60.003334 121.37813 59.753334ZM125.39375 61.42521L125.425 62.128334Q126.1125 61.315834 127.3 61.315834Q128.62813 61.315834 129.1125 62.33146Q129.425 61.878334 129.925 61.597084Q130.44063 61.315834 131.12813 61.315834Q133.22188 61.315834 133.25313 63.51896L133.25313 67.76896L132.175 67.76896L132.175 63.58146Q132.175 62.909584 131.8625 62.58146Q131.55 62.23771 130.81563 62.23771Q130.20625 62.23771 129.8 62.597084Q129.40938 62.95646 129.34688 63.565834L129.34688 67.76896L128.26875 67.76896L128.26875 63.61271Q128.26875 62.23771 126.90938 62.23771Q125.84688 62.23771 125.45625 63.14396L125.45625 67.76896L124.3625 67.76896L124.3625 61.42521L125.39375 61.42521ZM140.72188 64.67521Q140.72188 66.11271 140.06563 67.003334Q139.40938 67.89396 138.26875 67.89396Q137.1125 67.89396 136.45625 67.159584L136.45625 70.20646L135.37813 70.20646L135.37813 61.42521L136.3625 61.42521L136.40938 62.128334Q137.08125 61.315834 138.25313 61.315834Q139.39375 61.315834 140.05 62.17521Q140.72188 63.034584 140.72188 64.565834L140.72188 64.67521ZM139.64375 64.55021Q139.64375 63.472084 139.175 62.86271Q138.72188 62.23771 137.925 62.23771Q136.94063 62.23771 136.45625 63.097084L136.45625 66.128334Q136.94063 67.003334 137.94063 67.003334Q138.72188 67.003334 139.175 66.39396Q139.64375 65.76896 139.64375 64.55021ZM143.55 67.76896L142.47188 67.76896L142.47188 58.76896L143.55 58.76896L143.55 67.76896ZM148.00313 67.89396Q146.70625 67.89396 145.89375 67.05021Q145.09688 66.190834 145.09688 64.76896L145.09688 64.58146Q145.09688 63.628334 145.45625 62.89396Q145.81563 62.14396 146.45625 61.73771Q147.1125 61.315834 147.8625 61.315834Q149.09688 61.315834 149.78438 62.128334Q150.47188 62.940834 150.47188 64.45646L150.47188 64.909584L146.175 64.909584Q146.20625 65.847084 146.72188 66.42521Q147.25313 67.003334 148.06563 67.003334Q148.62813 67.003334 149.01875 66.76896Q149.425 66.534584 149.7375 66.14396L150.39375 66.659584Q149.59688 67.89396 148.00313 67.89396ZM147.8625 62.20646Q147.20625 62.20646 146.75313 62.690834Q146.31563 63.159584 146.22188 64.01896L149.39375 64.01896L149.39375 63.940834Q149.34688 63.11271 148.94063 62.659584Q148.55 62.20646 147.8625 62.20646ZM152.39375 61.42521L152.425 62.128334Q153.1125 61.315834 154.3 61.315834Q155.62813 61.315834 156.1125 62.33146Q156.425 61.878334 156.925 61.597084Q157.44063 61.315834 158.12813 61.315834Q160.22188 61.315834 160.25313 63.51896L160.25313 67.76896L159.175 67.76896L159.175 63.58146Q159.175 62.909584 158.8625 62.58146Q158.55 62.23771 157.81563 62.23771Q157.20625 62.23771 156.8 62.597084Q156.40938 62.95646 156.34688 63.565834L156.34688 67.76896L155.26875 67.76896L155.26875 63.61271Q155.26875 62.23771 153.90938 62.23771Q152.84688 62.23771 152.45625 63.14396L152.45625 67.76896L151.3625 67.76896L151.3625 61.42521L152.39375 61.42521ZM165.00313 67.89396Q163.70625 67.89396 162.89375 67.05021Q162.09688 66.190834 162.09688 64.76896L162.09688 64.58146Q162.09688 63.628334 162.45625 62.89396Q162.81563 62.14396 163.45625 61.73771Q164.1125 61.315834 164.8625 61.315834Q166.09688 61.315834 166.78438 62.128334Q167.47188 62.940834 167.47188 64.45646L167.47188 64.909584L163.175 64.909584Q163.20625 65.847084 163.72188 66.42521Q164.25313 67.003334 165.06563 67.003334Q165.62813 67.003334 166.01875 66.76896Q166.425 66.534584 166.7375 66.14396L167.39375 66.659584Q166.59688 67.89396 165.00313 67.89396ZM164.8625 62.20646Q164.20625 62.20646 163.75313 62.690834Q163.31563 63.159584 163.22188 64.01896L166.39375 64.01896L166.39375 63.940834Q166.34688 63.11271 165.94063 62.659584Q165.55 62.20646 164.8625 62.20646ZM169.39375 61.42521L169.425 62.222084Q170.15938 61.315834 171.33125 61.315834Q173.34688 61.315834 173.3625 63.58146L173.3625 67.76896L172.26875 67.76896L172.26875 63.565834Q172.26875 62.89396 171.95625 62.565834Q171.65938 62.23771 171.00313 62.23771Q170.47188 62.23771 170.06563 62.51896Q169.675 62.80021 169.45625 63.253334L169.45625 67.76896L168.37813 67.76896L168.37813 61.42521L169.39375 61.42521ZM176.84688 59.89396L176.84688 61.42521L178.01875 61.42521L178.01875 62.26896L176.84688 62.26896L176.84688 66.190834Q176.84688 66.58146 177.00313 66.76896Q177.15938 66.95646 177.53438 66.95646Q177.72188 66.95646 178.05 66.89396L178.05 67.76896Q177.62813 67.89396 177.22188 67.89396Q176.50313 67.89396 176.12813 67.45646Q175.75313 67.003334 175.75313 66.190834L175.75313 62.26896L174.59688 62.26896L174.59688 61.42521L175.75313 61.42521L175.75313 59.89396L176.84688 59.89396ZM183.28438 67.76896Q183.19063 67.58146 183.12813 67.097084Q182.37813 67.89396 181.33125 67.89396Q180.39375 67.89396 179.78438 67.36271Q179.19063 66.83146 179.19063 66.003334Q179.19063 65.01896 179.94063 64.472084Q180.69063 63.92521 182.06563 63.92521L183.1125 63.92521L183.1125 63.42521Q183.1125 62.86271 182.76875 62.534584Q182.44063 62.190834 181.76875 62.190834Q181.19063 62.190834 180.8 62.48771Q180.40938 62.76896 180.40938 63.190834L179.31563 63.190834Q179.31563 62.70646 179.64375 62.26896Q179.9875 61.83146 180.56563 61.58146Q181.14375 61.315834 181.83125 61.315834Q182.94063 61.315834 183.55 61.86271Q184.175 62.409584 184.20625 63.36271L184.20625 66.284584Q184.20625 67.159584 184.425 67.67521L184.425 67.76896L183.28438 67.76896ZM181.4875 66.940834Q182.00313 66.940834 182.45625 66.67521Q182.90938 66.409584 183.1125 65.98771L183.1125 64.690834L182.26875 64.690834Q180.26875 64.690834 180.26875 65.86271Q180.26875 66.36271 180.6125 66.659584Q180.95625 66.940834 181.4875 66.940834ZM187.84688 59.89396L187.84688 61.42521L189.01875 61.42521L189.01875 62.26896L187.84688 62.26896L187.84688 66.190834Q187.84688 66.58146 188.00313 66.76896Q188.15938 66.95646 188.53438 66.95646Q188.72188 66.95646 189.05 66.89396L189.05 67.76896Q188.62813 67.89396 188.22188 67.89396Q187.50313 67.89396 187.12813 67.45646Q186.75313 67.003334 186.75313 66.190834L186.75313 62.26896L185.59688 62.26896L185.59688 61.42521L186.75313 61.42521L186.75313 59.89396L187.84688 59.89396ZM191.55 67.76896L190.47188 67.76896L190.47188 61.42521L191.55 61.42521L191.55 67.76896ZM190.37813 59.753334Q190.37813 59.48771 190.53438 59.30021Q190.70625 59.11271 191.01875 59.11271Q191.33125 59.11271 191.4875 59.30021Q191.65938 59.48771 191.65938 59.753334Q191.65938 60.003334 191.4875 60.190834Q191.33125 60.36271 191.01875 60.36271Q190.70625 60.36271 190.53438 60.190834Q190.37813 60.003334 190.37813 59.753334ZM193.08125 64.534584Q193.08125 63.61271 193.44063 62.86271Q193.81563 62.11271 194.47188 61.722084Q195.12813 61.315834 195.95625 61.315834Q197.25313 61.315834 198.05 62.20646Q198.8625 63.097084 198.8625 64.597084L198.8625 64.67521Q198.8625 65.597084 198.50313 66.33146Q198.14375 67.065834 197.4875 67.48771Q196.83125 67.89396 195.97188 67.89396Q194.69063 67.89396 193.87813 67.003334Q193.08125 66.097084 193.08125 64.61271L193.08125 64.534584ZM194.175 64.67521Q194.175 65.722084 194.65938 66.36271Q195.15938 67.003334 195.97188 67.003334Q196.8 67.003334 197.28438 66.36271Q197.76875 65.70646 197.76875 64.534584Q197.76875 63.503334 197.26875 62.86271Q196.78438 62.20646 195.95625 62.20646Q195.15938 62.20646 194.65938 62.847084Q194.175 63.472084 194.175 64.67521ZM201.39375 61.42521L201.425 62.222084Q202.15938 61.315834 203.33125 61.315834Q205.34688 61.315834 205.3625 63.58146L205.3625 67.76896L204.26875 67.76896L204.26875 63.565834Q204.26875 62.89396 203.95625 62.565834Q203.65938 62.23771 203.00313 62.23771Q202.47188 62.23771 202.06563 62.51896Q201.675 62.80021 201.45625 63.253334L201.45625 67.76896L200.37813 67.76896L200.37813 61.42521L201.39375 61.42521ZM211.06563 66.08146Q211.06563 65.64396 210.72188 65.409584Q210.39375 65.159584 209.56563 64.98771Q208.75313 64.815834 208.26875 64.565834Q207.78438 64.315834 207.55 63.98771Q207.33125 63.64396 207.33125 63.17521Q207.33125 62.39396 207.9875 61.86271Q208.64375 61.315834 209.675 61.315834Q210.75313 61.315834 211.40938 61.878334Q212.08125 62.42521 212.08125 63.284584L211.00313 63.284584Q211.00313 62.847084 210.6125 62.534584Q210.2375 62.20646 209.675 62.20646Q209.08125 62.20646 208.7375 62.472084Q208.40938 62.722084 208.40938 63.128334Q208.40938 63.51896 208.72188 63.722084Q209.03438 63.92521 209.84688 64.11271Q210.65938 64.284584 211.15938 64.534584Q211.65938 64.784584 211.89375 65.14396Q212.14375 65.503334 212.14375 66.003334Q212.14375 66.86271 211.45625 67.378334Q210.78438 67.89396 209.70625 67.89396Q208.94063 67.89396 208.34688 67.628334Q207.76875 67.347084 207.44063 66.86271Q207.1125 66.378334 207.1125 65.815834L208.19063 65.815834Q208.22188 66.36271 208.62813 66.690834Q209.03438 67.003334 209.70625 67.003334Q210.31563 67.003334 210.69063 66.753334Q211.06563 66.503334 211.06563 66.08146Z" fill-rule="nonzero"/><path fill="#9e9e9e" d="M24.76875 77.847084L21.2375 85.76896L20.096874 85.76896L23.6125 78.128334L19.003124 78.128334L19.003124 77.23771L24.76875 77.23771L24.76875 77.847084ZM26.39375 85.20646Q26.39375 84.92521 26.55 84.73771Q26.721874 84.55021 27.05 84.55021Q27.39375 84.55021 27.565624 84.73771Q27.7375 84.92521 27.7375 85.20646Q27.7375 85.472084 27.565624 85.659584Q27.39375 85.83146 27.05 85.83146Q26.721874 85.83146 26.55 85.659584Q26.39375 85.472084 26.39375 85.20646ZM33.83125 82.909584L35.01875 82.909584L35.01875 83.784584L33.83125 83.784584L33.83125 85.76896L32.753124 85.76896L32.753124 83.784584L28.8625 83.784584L28.8625 83.14396L32.675 77.23771L33.83125 77.23771L33.83125 82.909584ZM30.096874 82.909584L32.753124 82.909584L32.753124 78.722084L32.6125 78.95646L30.096874 82.909584ZM36.159374 78.878334Q36.159374 78.11271 36.64375 77.61271Q37.14375 77.11271 37.909374 77.11271Q38.690624 77.11271 39.175 77.61271Q39.659374 78.11271 39.659374 78.909584L39.659374 79.33146Q39.659374 80.097084 39.159374 80.597084Q38.675 81.08146 37.925 81.08146Q37.159374 81.08146 36.659374 80.597084Q36.159374 80.097084 36.159374 79.284584L36.159374 78.878334ZM36.971874 79.33146Q36.971874 79.784584 37.221874 80.08146Q37.4875 80.378334 37.925 80.378334Q38.346874 80.378334 38.596874 80.097084Q38.846874 79.80021 38.846874 79.30021L38.846874 78.878334Q38.846874 78.42521 38.596874 78.128334Q38.346874 77.815834 37.909374 77.815834Q37.471874 77.815834 37.221874 78.128334Q36.971874 78.42521 36.971874 78.89396L36.971874 79.33146ZM40.315624 83.67521Q40.315624 82.909584 40.8 82.42521Q41.3 81.92521 42.065624 81.92521Q42.83125 81.92521 43.315624 82.42521Q43.815624 82.909584 43.815624 83.722084L43.815624 84.128334Q43.815624 84.89396 43.33125 85.39396Q42.846874 85.89396 42.08125 85.89396Q41.315624 85.89396 40.815624 85.409584Q40.315624 84.909584 40.315624 84.097084L40.315624 83.67521ZM41.128124 84.128334Q41.128124 84.597084 41.378124 84.89396Q41.64375 85.190834 42.08125 85.190834Q42.503124 85.190834 42.753124 84.909584Q43.003124 84.61271 43.003124 84.11271L43.003124 83.67521Q43.003124 83.20646 42.7375 82.92521Q42.4875 82.628334 42.065624 82.628334Q41.64375 82.628334 41.378124 82.92521Q41.128124 83.20646 41.128124 83.70646L41.128124 84.128334ZM38.175 85.128334L37.55 84.73771L41.721874 78.065834L42.33125 78.45646L38.175 85.128334Z" fill-rule="nonzero"/><path stroke="#757575" stroke-width="1.0" stroke-linecap="butt" d="M18.55 72.26896L215.55 72.26896L277.4438 72.26896" fill-rule="nonzero"/><path fill="#9e9e9e" d="M279.4438 72.26896C279.4438 71.16439 278.54834 70.26896 277.4438 70.26896C276.3392 70.26896 275.4438 71.16439 275.4438 72.26896C275.4438 73.37353 276.3392 74.26896 277.4438 74.26896C278.54834 74.26896 279.4438 73.37353 279.4438 72.26896" fill-rule="nonzero"/><path fill="#757575" d="M26.096874 222.50334Q26.096874 223.75334 25.675 224.69084Q25.253124 225.61272 24.471874 226.11272Q23.70625 226.61272 22.675 226.61272Q21.675 226.61272 20.89375 226.11272Q20.1125 225.61272 19.675 224.70647Q19.253124 223.78459 19.2375 222.56584L19.2375 221.95647Q19.2375 220.72209 19.659374 219.78459Q20.096874 218.84709 20.878124 218.34709Q21.659374 217.83147 22.675 217.83147Q23.690624 217.83147 24.471874 218.33147Q25.253124 218.83147 25.675 219.76897Q26.096874 220.70647 26.096874 221.95647L26.096874 222.50334ZM24.9875 221.94084Q24.9875 220.42522 24.378124 219.61272Q23.76875 218.80022 22.675 218.80022Q21.596874 218.80022 20.9875 219.61272Q20.378124 220.42522 20.3625 221.86272L20.3625 222.50334Q20.3625 223.97209 20.971874 224.81584Q21.596874 225.64397 22.675 225.64397Q23.76875 225.64397 24.3625 224.86272Q24.971874 224.06584 24.9875 222.58147L24.9875 221.94084ZM28.39375 220.14397L28.425 220.94084Q29.159374 220.03459 30.33125 220.03459Q32.346874 220.03459 32.3625 222.30022L32.3625 226.48772L31.26875 226.48772L31.26875 222.28459Q31.26875 221.61272 30.95625 221.28459Q30.659374 220.95647 30.003124 220.95647Q29.471874 220.95647 29.065624 221.23772Q28.675 221.51897 28.45625 221.97209L28.45625 226.48772L27.378124 226.48772L27.378124 220.14397L28.39375 220.14397ZM35.55 226.48772L34.471874 226.48772L34.471874 217.48772L35.55 217.48772L35.55 226.48772ZM39.440624 224.89397L40.925 220.14397L42.08125 220.14397L39.534374 227.47209Q38.940624 229.05022 37.659374 229.05022L37.440624 229.03459L37.05 228.95647L37.05 228.08147L37.33125 228.09709Q37.89375 228.09709 38.190624 227.87834Q38.503124 227.65959 38.70625 227.06584L38.940624 226.40959L36.675 220.14397L37.8625 220.14397L39.440624 224.89397ZM49.815624 226.48772L48.7375 226.48772L48.7375 219.26897L46.55 220.06584L46.55 219.08147L49.659374 217.90959L49.815624 217.90959L49.815624 226.48772ZM59.003124 226.61272Q57.70625 226.61272 56.89375 225.76897Q56.096874 224.90959 56.096874 223.48772L56.096874 223.30022Q56.096874 222.34709 56.45625 221.61272Q56.815624 220.86272 57.45625 220.45647Q58.1125 220.03459 58.8625 220.03459Q60.096874 220.03459 60.784374 220.84709Q61.471874 221.65959 61.471874 223.17522L61.471874 223.62834L57.175 223.62834Q57.20625 224.56584 57.721874 225.14397Q58.253124 225.72209 59.065624 225.72209Q59.628124 225.72209 60.01875 225.48772Q60.425 225.25334 60.7375 224.86272L61.39375 225.37834Q60.596874 226.61272 59.003124 226.61272ZM58.8625 220.92522Q58.20625 220.92522 57.753124 221.40959Q57.315624 221.87834 57.221874 222.73772L60.39375 222.73772L60.39375 222.65959Q60.346874 221.83147 59.940624 221.37834Q59.55 220.92522 58.8625 220.92522ZM64.50313 222.45647L65.90938 220.14397L67.175 220.14397L65.09688 223.28459L67.2375 226.48772L65.9875 226.48772L64.51875 224.11272L63.05 226.48772L61.784374 226.48772L63.925 223.28459L61.8625 220.14397L63.1125 220.14397L64.50313 222.45647ZM69.55 226.48772L68.47188 226.48772L68.47188 220.14397L69.55 220.14397L69.55 226.48772ZM68.37813 218.47209Q68.37813 218.20647 68.53438 218.01897Q68.70625 217.83147 69.01875 217.83147Q69.33125 217.83147 69.4875 218.01897Q69.65938 218.20647 69.65938 218.47209Q69.65938 218.72209 69.4875 218.90959Q69.33125 219.08147 69.01875 219.08147Q68.70625 219.08147 68.53438 218.90959Q68.37813 218.72209 68.37813 218.47209ZM75.06563 224.80022Q75.06563 224.36272 74.72188 224.12834Q74.39375 223.87834 73.56563 223.70647Q72.75313 223.53459 72.26875 223.28459Q71.78438 223.03459 71.55 222.70647Q71.33125 222.36272 71.33125 221.89397Q71.33125 221.11272 71.9875 220.58147Q72.64375 220.03459 73.675 220.03459Q74.75313 220.03459 75.40938 220.59709Q76.08125 221.14397 76.08125 222.00334L75.00313 222.00334Q75.00313 221.56584 74.6125 221.25334Q74.2375 220.92522 73.675 220.92522Q73.08125 220.92522 72.7375 221.19084Q72.40938 221.44084 72.40938 221.84709Q72.40938 222.23772 72.72188 222.44084Q73.03438 222.64397 73.84688 222.83147Q74.65938 223.00334 75.15938 223.25334Q75.65938 223.50334 75.89375 223.86272Q76.14375 224.22209 76.14375 224.72209Q76.14375 225.58147 75.45625 226.09709Q74.78438 226.61272 73.70625 226.61272Q72.94063 226.61272 72.34688 226.34709Q71.76875 226.06584 71.44063 225.58147Q71.1125 225.09709 71.1125 224.53459L72.19063 224.53459Q72.22188 225.08147 72.62813 225.40959Q73.03438 225.72209 73.70625 225.72209Q74.31563 225.72209 74.69063 225.47209Q75.06563 225.22209 75.06563 224.80022ZM78.84688 218.61272L78.84688 220.14397L80.01875 220.14397L80.01875 220.98772L78.84688 220.98772L78.84688 224.90959Q78.84688 225.30022 79.00313 225.48772Q79.15938 225.67522 79.53438 225.67522Q79.72188 225.67522 80.05 225.61272L80.05 226.48772Q79.62813 226.61272 79.22188 226.61272Q78.50313 226.61272 78.12813 226.17522Q77.75313 225.72209 77.75313 224.90959L77.75313 220.98772L76.59688 220.98772L76.59688 220.14397L77.75313 220.14397L77.75313 218.61272L78.84688 218.61272ZM82.55 226.48772L81.47188 226.48772L81.47188 220.14397L82.55 220.14397L82.55 226.48772ZM81.37813 218.47209Q81.37813 218.20647 81.53438 218.01897Q81.70625 217.83147 82.01875 217.83147Q82.33125 217.83147 82.4875 218.01897Q82.65938 218.20647 82.65938 218.47209Q82.65938 218.72209 82.4875 218.90959Q82.33125 219.08147 82.01875 219.08147Q81.70625 219.08147 81.53438 218.90959Q81.37813 218.72209 81.37813 218.47209ZM85.39375 220.14397L85.425 220.94084Q86.15938 220.03459 87.33125 220.03459Q89.34688 220.03459 89.3625 222.30022L89.3625 226.48772L88.26875 226.48772L88.26875 222.28459Q88.26875 221.61272 87.95625 221.28459Q87.65938 220.95647 87.00313 220.95647Q86.47188 220.95647 86.06563 221.23772Q85.675 221.51897 85.45625 221.97209L85.45625 226.48772L84.37813 226.48772L84.37813 220.14397L85.39375 220.14397ZM91.1125 223.26897Q91.1125 221.78459 91.8 220.90959Q92.4875 220.03459 93.6125 220.03459Q94.76875 220.03459 95.425 220.84709L95.47188 220.14397L96.47188 220.14397L96.47188 226.33147Q96.47188 227.56584 95.7375 228.26897Q95.00313 228.98772 93.78438 228.98772Q93.09688 228.98772 92.44063 228.69084Q91.78438 228.39397 91.44063 227.89397L92.00313 227.23772Q92.69063 228.09709 93.70625 228.09709Q94.4875 228.09709 94.925 227.64397Q95.37813 227.20647 95.37813 226.39397L95.37813 225.84709Q94.72188 226.61272 93.59688 226.61272Q92.4875 226.61272 91.8 225.72209Q91.1125 224.81584 91.1125 223.26897ZM92.20625 223.39397Q92.20625 224.45647 92.64375 225.08147Q93.08125 225.69084 93.87813 225.69084Q94.89375 225.69084 95.37813 224.75334L95.37813 221.86272Q94.87813 220.95647 93.87813 220.95647Q93.09688 220.95647 92.64375 221.56584Q92.20625 222.17522 92.20625 223.39397ZM102.55 226.48772L101.47188 226.48772L101.47188 220.14397L102.55 220.14397L102.55 226.48772ZM101.37813 218.47209Q101.37813 218.20647 101.53438 218.01897Q101.70625 217.83147 102.01875 217.83147Q102.33125 217.83147 102.4875 218.01897Q102.65938 218.20647 102.65938 218.47209Q102.65938 218.72209 102.4875 218.90959Q102.33125 219.08147 102.01875 219.08147Q101.70625 219.08147 101.53438 218.90959Q101.37813 218.72209 101.37813 218.47209ZM105.39375 220.14397L105.425 220.84709Q106.1125 220.03459 107.3 220.03459Q108.62813 220.03459 109.1125 221.05022Q109.425 220.59709 109.925 220.31584Q110.44063 220.03459 111.12813 220.03459Q113.22188 220.03459 113.25313 222.23772L113.25313 226.48772L112.175 226.48772L112.175 222.30022Q112.175 221.62834 111.8625 221.30022Q111.55 220.95647 110.81563 220.95647Q110.20625 220.95647 109.8 221.31584Q109.40938 221.67522 109.34688 222.28459L109.34688 226.48772L108.26875 226.48772L108.26875 222.33147Q108.26875 220.95647 106.90938 220.95647Q105.84688 220.95647 105.45625 221.86272L105.45625 226.48772L104.3625 226.48772L104.3625 220.14397L105.39375 220.14397ZM120.72188 223.39397Q120.72188 224.83147 120.06563 225.72209Q119.40938 226.61272 118.26875 226.61272Q117.1125 226.61272 116.45625 225.87834L116.45625 228.92522L115.37813 228.92522L115.37813 220.14397L116.3625 220.14397L116.40938 220.84709Q117.08125 220.03459 118.25313 220.03459Q119.39375 220.03459 120.05 220.89397Q120.72188 221.75334 120.72188 223.28459L120.72188 223.39397ZM119.64375 223.26897Q119.64375 222.19084 119.175 221.58147Q118.72188 220.95647 117.925 220.95647Q116.94063 220.95647 116.45625 221.81584L116.45625 224.84709Q116.94063 225.72209 117.94063 225.72209Q118.72188 225.72209 119.175 225.11272Q119.64375 224.48772 119.64375 223.26897ZM123.55 226.48772L122.47188 226.48772L122.47188 217.48772L123.55 217.48772L123.55 226.48772ZM128.00313 226.61272Q126.70625 226.61272 125.89375 225.76897Q125.09688 224.90959 125.09688 223.48772L125.09688 223.30022Q125.09688 222.34709 125.45625 221.61272Q125.81563 220.86272 126.45625 220.45647Q127.1125 220.03459 127.8625 220.03459Q129.09688 220.03459 129.78438 220.84709Q130.47188 221.65959 130.47188 223.17522L130.47188 223.62834L126.175 223.62834Q126.20625 224.56584 126.72188 225.14397Q127.25313 225.72209 128.06563 225.72209Q128.62813 225.72209 129.01875 225.48772Q129.425 225.25334 129.7375 224.86272L130.39375 225.37834Q129.59688 226.61272 128.00313 226.61272ZM127.8625 220.92522Q127.20625 220.92522 126.75313 221.40959Q126.31563 221.87834 126.22188 222.73772L129.39375 222.73772L129.39375 222.65959Q129.34688 221.83147 128.94063 221.37834Q128.55 220.92522 127.8625 220.92522ZM132.39375 220.14397L132.425 220.84709Q133.1125 220.03459 134.3 220.03459Q135.62813 220.03459 136.1125 221.05022Q136.425 220.59709 136.925 220.31584Q137.44063 220.03459 138.12813 220.03459Q140.22188 220.03459 140.25313 222.23772L140.25313 226.48772L139.175 226.48772L139.175 222.30022Q139.175 221.62834 138.8625 221.30022Q138.55 220.95647 137.81563 220.95647Q137.20625 220.95647 136.8 221.31584Q136.40938 221.67522 136.34688 222.28459L136.34688 226.48772L135.26875 226.48772L135.26875 222.33147Q135.26875 220.95647 133.90938 220.95647Q132.84688 220.95647 132.45625 221.86272L132.45625 226.48772L131.3625 226.48772L131.3625 220.14397L132.39375 220.14397ZM145.00313 226.61272Q143.70625 226.61272 142.89375 225.76897Q142.09688 224.90959 142.09688 223.48772L142.09688 223.30022Q142.09688 222.34709 142.45625 221.61272Q142.81563 220.86272 143.45625 220.45647Q144.1125 220.03459 144.8625 220.03459Q146.09688 220.03459 146.78438 220.84709Q147.47188 221.65959 147.47188 223.17522L147.47188 223.62834L143.175 223.62834Q143.20625 224.56584 143.72188 225.14397Q144.25313 225.72209 145.06563 225.72209Q145.62813 225.72209 146.01875 225.48772Q146.425 225.25334 146.7375 224.86272L147.39375 225.37834Q146.59688 226.61272 145.00313 226.61272ZM144.8625 220.92522Q144.20625 220.92522 143.75313 221.40959Q143.31563 221.87834 143.22188 222.73772L146.39375 222.73772L146.39375 222.65959Q146.34688 221.83147 145.94063 221.37834Q145.55 220.92522 144.8625 220.92522ZM149.39375 220.14397L149.425 220.94084Q150.15938 220.03459 151.33125 220.03459Q153.34688 220.03459 153.3625 222.30022L153.3625 226.48772L152.26875 226.48772L152.26875 222.28459Q152.26875 221.61272 151.95625 221.28459Q151.65938 220.95647 151.00313 220.95647Q150.47188 220.95647 150.06563 221.23772Q149.675 221.51897 149.45625 221.97209L149.45625 226.48772L148.37813 226.48772L148.37813 220.14397L149.39375 220.14397ZM156.84688 218.61272L156.84688 220.14397L158.01875 220.14397L158.01875 220.98772L156.84688 220.98772L156.84688 224.90959Q156.84688 225.30022 157.00313 225.48772Q157.15938 225.67522 157.53438 225.67522Q157.72188 225.67522 158.05 225.61272L158.05 226.48772Q157.62813 226.61272 157.22188 226.61272Q156.50313 226.61272 156.12813 226.17522Q155.75313 225.72209 155.75313 224.90959L155.75313 220.98772L154.59688 220.98772L154.59688 220.14397L155.75313 220.14397L155.75313 218.61272L156.84688 218.61272ZM163.28438 226.48772Q163.19063 226.30022 163.12813 225.81584Q162.37813 226.61272 161.33125 226.61272Q160.39375 226.61272 159.78438 226.08147Q159.19063 225.55022 159.19063 224.72209Q159.19063 223.73772 159.94063 223.19084Q160.69063 222.64397 162.06563 222.64397L163.1125 222.64397L163.1125 222.14397Q163.1125 221.58147 162.76875 221.25334Q162.44063 220.90959 161.76875 220.90959Q161.19063 220.90959 160.8 221.20647Q160.40938 221.48772 160.40938 221.90959L159.31563 221.90959Q159.31563 221.42522 159.64375 220.98772Q159.9875 220.55022 160.56563 220.30022Q161.14375 220.03459 161.83125 220.03459Q162.94063 220.03459 163.55 220.58147Q164.175 221.12834 164.20625 222.08147L164.20625 225.00334Q164.20625 225.87834 164.425 226.39397L164.425 226.48772L163.28438 226.48772ZM161.4875 225.65959Q162.00313 225.65959 162.45625 225.39397Q162.90938 225.12834 163.1125 224.70647L163.1125 223.40959L162.26875 223.40959Q160.26875 223.40959 160.26875 224.58147Q160.26875 225.08147 160.6125 225.37834Q160.95625 225.65959 161.4875 225.65959ZM167.84688 218.61272L167.84688 220.14397L169.01875 220.14397L169.01875 220.98772L167.84688 220.98772L167.84688 224.90959Q167.84688 225.30022 168.00313 225.48772Q168.15938 225.67522 168.53438 225.67522Q168.72188 225.67522 169.05 225.61272L169.05 226.48772Q168.62813 226.61272 168.22188 226.61272Q167.50313 226.61272 167.12813 226.17522Q166.75313 225.72209 166.75313 224.90959L166.75313 220.98772L165.59688 220.98772L165.59688 220.14397L166.75313 220.14397L166.75313 218.61272L167.84688 218.61272ZM171.55 226.48772L170.47188 226.48772L170.47188 220.14397L171.55 220.14397L171.55 226.48772ZM170.37813 218.47209Q170.37813 218.20647 170.53438 218.01897Q170.70625 217.83147 171.01875 217.83147Q171.33125 217.83147 171.4875 218.01897Q171.65938 218.20647 171.65938 218.47209Q171.65938 218.72209 171.4875 218.90959Q171.33125 219.08147 171.01875 219.08147Q170.70625 219.08147 170.53438 218.90959Q170.37813 218.72209 170.37813 218.47209ZM173.08125 223.25334Q173.08125 222.33147 173.44063 221.58147Q173.81563 220.83147 174.47188 220.44084Q175.12813 220.03459 175.95625 220.03459Q177.25313 220.03459 178.05 220.92522Q178.8625 221.81584 178.8625 223.31584L178.8625 223.39397Q178.8625 224.31584 178.50313 225.05022Q178.14375 225.78459 177.4875 226.20647Q176.83125 226.61272 175.97188 226.61272Q174.69063 226.61272 173.87813 225.72209Q173.08125 224.81584 173.08125 223.33147L173.08125 223.25334ZM174.175 223.39397Q174.175 224.44084 174.65938 225.08147Q175.15938 225.72209 175.97188 225.72209Q176.8 225.72209 177.28438 225.08147Q177.76875 224.42522 177.76875 223.25334Q177.76875 222.22209 177.26875 221.58147Q176.78438 220.92522 175.95625 220.92522Q175.15938 220.92522 174.65938 221.56584Q174.175 222.19084 174.175 223.39397ZM181.39375 220.14397L181.425 220.94084Q182.15938 220.03459 183.33125 220.03459Q185.34688 220.03459 185.3625 222.30022L185.3625 226.48772L184.26875 226.48772L184.26875 222.28459Q184.26875 221.61272 183.95625 221.28459Q183.65938 220.95647 183.00313 220.95647Q182.47188 220.95647 182.06563 221.23772Q181.675 221.51897 181.45625 221.97209L181.45625 226.48772L180.37813 226.48772L180.37813 220.14397L181.39375 220.14397Z" fill-rule="nonzero"/><path fill="#9e9e9e" d="M24.846874 244.48772L19.253124 244.48772L19.253124 243.70647L22.20625 240.42522Q22.8625 239.67522 23.1125 239.22209Q23.3625 238.75334 23.3625 238.25334Q23.3625 237.58147 22.95625 237.15959Q22.565624 236.72209 21.878124 236.72209Q21.08125 236.72209 20.628124 237.19084Q20.175 237.64397 20.175 238.47209L19.096874 238.47209Q19.096874 237.28459 19.846874 236.56584Q20.6125 235.83147 21.878124 235.83147Q23.08125 235.83147 23.76875 236.45647Q24.45625 237.08147 24.45625 238.12834Q24.45625 239.37834 22.846874 241.12834L20.565624 243.59709L24.846874 243.59709L24.846874 244.48772ZM31.76875 236.56584L28.2375 244.48772L27.096874 244.48772L30.6125 236.84709L26.003124 236.84709L26.003124 235.95647L31.76875 235.95647L31.76875 236.56584ZM33.39375 243.92522Q33.39375 243.64397 33.55 243.45647Q33.721874 243.26897 34.05 243.26897Q34.39375 243.26897 34.565624 243.45647Q34.7375 243.64397 34.7375 243.92522Q34.7375 244.19084 34.565624 244.37834Q34.39375 244.55022 34.05 244.55022Q33.721874 244.55022 33.55 244.37834Q33.39375 244.19084 33.39375 243.92522ZM41.846874 244.48772L36.253124 244.48772L36.253124 243.70647L39.20625 240.42522Q39.8625 239.67522 40.1125 239.22209Q40.3625 238.75334 40.3625 238.25334Q40.3625 237.58147 39.95625 237.15959Q39.565624 236.72209 38.878124 236.72209Q38.08125 236.72209 37.628124 237.19084Q37.175 237.64397 37.175 238.47209L36.096874 238.47209Q36.096874 237.28459 36.846874 236.56584Q37.6125 235.83147 38.878124 235.83147Q40.08125 235.83147 40.76875 236.45647Q41.45625 237.08147 41.45625 238.12834Q41.45625 239.37834 39.846874 241.12834L37.565624 243.59709L41.846874 243.59709L41.846874 244.48772ZM43.159374 237.59709Q43.159374 236.83147 43.64375 236.33147Q44.14375 235.83147 44.909374 235.83147Q45.690624 235.83147 46.175 236.33147Q46.659374 236.83147 46.659374 237.62834L46.659374 238.05022Q46.659374 238.81584 46.159374 239.31584Q45.675 239.80022 44.925 239.80022Q44.159374 239.80022 43.659374 239.31584Q43.159374 238.81584 43.159374 238.00334L43.159374 237.59709ZM43.971874 238.05022Q43.971874 238.50334 44.221874 238.80022Q44.4875 239.09709 44.925 239.09709Q45.346874 239.09709 45.596874 238.81584Q45.846874 238.51897 45.846874 238.01897L45.846874 237.59709Q45.846874 237.14397 45.596874 236.84709Q45.346874 236.53459 44.909374 236.53459Q44.471874 236.53459 44.221874 236.84709Q43.971874 237.14397 43.971874 237.61272L43.971874 238.05022ZM47.315624 242.39397Q47.315624 241.62834 47.8 241.14397Q48.3 240.64397 49.065624 240.64397Q49.83125 240.64397 50.315624 241.14397Q50.815624 241.62834 50.815624 242.44084L50.815624 242.84709Q50.815624 243.61272 50.33125 244.11272Q49.846874 244.61272 49.08125 244.61272Q48.315624 244.61272 47.815624 244.12834Q47.315624 243.62834 47.315624 242.81584L47.315624 242.39397ZM48.128124 242.84709Q48.128124 243.31584 48.378124 243.61272Q48.64375 243.90959 49.08125 243.90959Q49.503124 243.90959 49.753124 243.62834Q50.003124 243.33147 50.003124 242.83147L50.003124 242.39397Q50.003124 241.92522 49.7375 241.64397Q49.4875 241.34709 49.065624 241.34709Q48.64375 241.34709 48.378124 241.64397Q48.128124 241.92522 48.128124 242.42522L48.128124 242.84709ZM45.175 243.84709L44.55 243.45647L48.721874 236.78459L49.33125 237.17522L45.175 243.84709Z" fill-rule="nonzero"/><path stroke="#757575" stroke-width="1.0" stroke-linecap="butt" d="M18.55 230.98772L215.55 230.98772L236.56047 230.98772" fill-rule="nonzero"/><path fill="#9e9e9e" d="M238.56047 230.98772C238.56047 229.88313 237.66504 228.98772 236.56047 228.98772C235.4559 228.98772 234.56047 229.88313 234.56047 230.98772C234.56047 232.09229 235.4559 232.98772 236.56047 232.98772C237.66504 232.98772 238.56047 232.09229 238.56047 230.98772" fill-rule="nonzero"/><path fill="#757575" d="M572.7469 214.57677L567.15314 214.57677L567.15314 213.79552L570.10626 210.51427Q570.7625 209.76427 571.0125 209.31114Q571.2625 208.84239 571.2625 208.34239Q571.2625 207.67052 570.85626 207.24864Q570.46564 206.81114 569.77814 206.81114Q568.98126 206.81114 568.52814 207.27989Q568.075 207.73302 568.075 208.56114L566.9969 208.56114Q566.9969 207.37364 567.7469 206.65489Q568.5125 205.92052 569.77814 205.92052Q570.98126 205.92052 571.66876 206.54552Q572.35626 207.17052 572.35626 208.21739Q572.35626 209.46739 570.7469 211.21739L568.46564 213.68614L572.7469 213.68614L572.7469 214.57677ZM576.98126 211.34239Q576.98126 210.42052 577.34064 209.67052Q577.71564 208.92052 578.3719 208.52989Q579.02814 208.12364 579.85626 208.12364Q581.15314 208.12364 581.95 209.01427Q582.7625 209.90489 582.7625 211.40489L582.7625 211.48302Q582.7625 212.40489 582.40314 213.13927Q582.04376 213.87364 581.3875 214.29552Q580.73126 214.70177 579.8719 214.70177Q578.59064 214.70177 577.77814 213.81114Q576.98126 212.90489 576.98126 211.42052L576.98126 211.34239ZM578.075 211.48302Q578.075 212.52989 578.5594 213.17052Q579.0594 213.81114 579.8719 213.81114Q580.7 213.81114 581.1844 213.17052Q581.66876 212.51427 581.66876 211.34239Q581.66876 210.31114 581.16876 209.67052Q580.6844 209.01427 579.85626 209.01427Q579.0594 209.01427 578.5594 209.65489Q578.075 210.27989 578.075 211.48302ZM587.34064 209.20177Q587.09064 209.17052 586.8094 209.17052Q585.73126 209.17052 585.35626 210.07677L585.35626 214.57677L584.27814 214.57677L584.27814 208.23302L585.325 208.23302L585.34064 208.96739Q585.8719 208.12364 586.85626 208.12364Q587.16876 208.12364 587.34064 208.20177L587.34064 209.20177ZM592.29376 208.23302L592.325 208.93614Q593.0125 208.12364 594.2 208.12364Q595.52814 208.12364 596.0125 209.13927Q596.325 208.68614 596.825 208.40489Q597.34064 208.12364 598.02814 208.12364Q600.1219 208.12364 600.15314 210.32677L600.15314 214.57677L599.075 214.57677L599.075 210.38927Q599.075 209.71739 598.7625 209.38927Q598.45 209.04552 597.71564 209.04552Q597.10626 209.04552 596.7 209.40489Q596.3094 209.76427 596.2469 210.37364L596.2469 214.57677L595.16876 214.57677L595.16876 210.42052Q595.16876 209.04552 593.8094 209.04552Q592.7469 209.04552 592.35626 209.95177L592.35626 214.57677L591.2625 214.57677L591.2625 208.23302L592.29376 208.23302ZM601.98126 211.34239Q601.98126 210.42052 602.34064 209.67052Q602.71564 208.92052 603.3719 208.52989Q604.02814 208.12364 604.85626 208.12364Q606.15314 208.12364 606.95 209.01427Q607.7625 209.90489 607.7625 211.40489L607.7625 211.48302Q607.7625 212.40489 607.40314 213.13927Q607.04376 213.87364 606.3875 214.29552Q605.73126 214.70177 604.8719 214.70177Q603.59064 214.70177 602.77814 213.81114Q601.98126 212.90489 601.98126 211.42052L601.98126 211.34239ZM603.075 211.48302Q603.075 212.52989 603.5594 213.17052Q604.0594 213.81114 604.8719 213.81114Q605.7 213.81114 606.1844 213.17052Q606.66876 212.51427 606.66876 211.34239Q606.66876 210.31114 606.16876 209.67052Q605.6844 209.01427 604.85626 209.01427Q604.0594 209.01427 603.5594 209.65489Q603.075 210.27989 603.075 211.48302ZM612.34064 209.20177Q612.09064 209.17052 611.8094 209.17052Q610.73126 209.17052 610.35626 210.07677L610.35626 214.57677L609.27814 214.57677L609.27814 208.23302L610.325 208.23302L610.34064 208.96739Q610.8719 208.12364 611.85626 208.12364Q612.16876 208.12364 612.34064 208.20177L612.34064 209.20177ZM615.90314 214.70177Q614.60626 214.70177 613.79376 213.85802Q612.9969 212.99864 612.9969 211.57677L612.9969 211.38927Q612.9969 210.43614 613.35626 209.70177Q613.71564 208.95177 614.35626 208.54552Q615.0125 208.12364 615.7625 208.12364Q616.9969 208.12364 617.6844 208.93614Q618.3719 209.74864 618.3719 211.26427L618.3719 211.71739L614.075 211.71739Q614.10626 212.65489 614.6219 213.23302Q615.15314 213.81114 615.96564 213.81114Q616.52814 213.81114 616.91876 213.57677Q617.325 213.34239 617.6375 212.95177L618.29376 213.46739Q617.4969 214.70177 615.90314 214.70177ZM615.7625 209.01427Q615.10626 209.01427 614.65314 209.49864Q614.21564 209.96739 614.1219 210.82677L617.29376 210.82677L617.29376 210.74864Q617.2469 209.92052 616.84064 209.46739Q616.45 209.01427 615.7625 209.01427ZM624.90314 214.70177Q623.60626 214.70177 622.79376 213.85802Q621.9969 212.99864 621.9969 211.57677L621.9969 211.38927Q621.9969 210.43614 622.35626 209.70177Q622.71564 208.95177 623.35626 208.54552Q624.0125 208.12364 624.7625 208.12364Q625.9969 208.12364 626.6844 208.93614Q627.3719 209.74864 627.3719 211.26427L627.3719 211.71739L623.075 211.71739Q623.10626 212.65489 623.6219 213.23302Q624.15314 213.81114 624.96564 213.81114Q625.52814 213.81114 625.91876 213.57677Q626.325 213.34239 626.6375 212.95177L627.29376 213.46739Q626.4969 214.70177 624.90314 214.70177ZM624.7625 209.01427Q624.10626 209.01427 623.65314 209.49864Q623.21564 209.96739 623.1219 210.82677L626.29376 210.82677L626.29376 210.74864Q626.2469 209.92052 625.84064 209.46739Q625.45 209.01427 624.7625 209.01427ZM630.40314 210.54552L631.8094 208.23302L633.075 208.23302L630.9969 211.37364L633.1375 214.57677L631.8875 214.57677L630.41876 212.20177L628.95 214.57677L627.6844 214.57677L629.825 211.37364L627.7625 208.23302L629.0125 208.23302L630.40314 210.54552ZM635.45 214.57677L634.3719 214.57677L634.3719 208.23302L635.45 208.23302L635.45 214.57677ZM634.27814 206.56114Q634.27814 206.29552 634.4344 206.10802Q634.60626 205.92052 634.91876 205.92052Q635.23126 205.92052 635.3875 206.10802Q635.5594 206.29552 635.5594 206.56114Q635.5594 206.81114 635.3875 206.99864Q635.23126 207.17052 634.91876 207.17052Q634.60626 207.17052 634.4344 206.99864Q634.27814 206.81114 634.27814 206.56114ZM640.96564 212.88927Q640.96564 212.45177 640.6219 212.21739Q640.29376 211.96739 639.46564 211.79552Q638.65314 211.62364 638.16876 211.37364Q637.6844 211.12364 637.45 210.79552Q637.23126 210.45177 637.23126 209.98302Q637.23126 209.20177 637.8875 208.67052Q638.54376 208.12364 639.575 208.12364Q640.65314 208.12364 641.3094 208.68614Q641.98126 209.23302 641.98126 210.09239L640.90314 210.09239Q640.90314 209.65489 640.5125 209.34239Q640.1375 209.01427 639.575 209.01427Q638.98126 209.01427 638.6375 209.27989Q638.3094 209.52989 638.3094 209.93614Q638.3094 210.32677 638.6219 210.52989Q638.9344 210.73302 639.7469 210.92052Q640.5594 211.09239 641.0594 211.34239Q641.5594 211.59239 641.79376 211.95177Q642.04376 212.31114 642.04376 212.81114Q642.04376 213.67052 641.35626 214.18614Q640.6844 214.70177 639.60626 214.70177Q638.84064 214.70177 638.2469 214.43614Q637.66876 214.15489 637.34064 213.67052Q637.0125 213.18614 637.0125 212.62364L638.09064 212.62364Q638.1219 213.17052 638.52814 213.49864Q638.9344 213.81114 639.60626 213.81114Q640.21564 213.81114 640.59064 213.56114Q640.96564 213.31114 640.96564 212.88927ZM644.7469 206.70177L644.7469 208.23302L645.91876 208.23302L645.91876 209.07677L644.7469 209.07677L644.7469 212.99864Q644.7469 213.38927 644.90314 213.57677Q645.0594 213.76427 645.4344 213.76427Q645.6219 213.76427 645.95 213.70177L645.95 214.57677Q645.52814 214.70177 645.1219 214.70177Q644.40314 214.70177 644.02814 214.26427Q643.65314 213.81114 643.65314 212.99864L643.65314 209.07677L642.4969 209.07677L642.4969 208.23302L643.65314 208.23302L643.65314 206.70177L644.7469 206.70177ZM648.45 214.57677L647.3719 214.57677L647.3719 208.23302L648.45 208.23302L648.45 214.57677ZM647.27814 206.56114Q647.27814 206.29552 647.4344 206.10802Q647.60626 205.92052 647.91876 205.92052Q648.23126 205.92052 648.3875 206.10802Q648.5594 206.29552 648.5594 206.56114Q648.5594 206.81114 648.3875 206.99864Q648.23126 207.17052 647.91876 207.17052Q647.60626 207.17052 647.4344 206.99864Q647.27814 206.81114 647.27814 206.56114ZM651.29376 208.23302L651.325 209.02989Q652.0594 208.12364 653.23126 208.12364Q655.2469 208.12364 655.2625 210.38927L655.2625 214.57677L654.16876 214.57677L654.16876 210.37364Q654.16876 209.70177 653.85626 209.37364Q653.5594 209.04552 652.90314 209.04552Q652.3719 209.04552 651.96564 209.32677Q651.575 209.60802 651.35626 210.06114L651.35626 214.57677L650.27814 214.57677L650.27814 208.23302L651.29376 208.23302ZM657.0125 211.35802Q657.0125 209.87364 657.7 208.99864Q658.3875 208.12364 659.5125 208.12364Q660.66876 208.12364 661.325 208.93614L661.3719 208.23302L662.3719 208.23302L662.3719 214.42052Q662.3719 215.65489 661.6375 216.35802Q660.90314 217.07677 659.6844 217.07677Q658.9969 217.07677 658.34064 216.77989Q657.6844 216.48302 657.34064 215.98302L657.90314 215.32677Q658.59064 216.18614 659.60626 216.18614Q660.3875 216.18614 660.825 215.73302Q661.27814 215.29552 661.27814 214.48302L661.27814 213.93614Q660.6219 214.70177 659.4969 214.70177Q658.3875 214.70177 657.7 213.81114Q657.0125 212.90489 657.0125 211.35802ZM658.10626 211.48302Q658.10626 212.54552 658.54376 213.17052Q658.98126 213.77989 659.77814 213.77989Q660.79376 213.77989 661.27814 212.84239L661.27814 209.95177Q660.77814 209.04552 659.77814 209.04552Q658.9969 209.04552 658.54376 209.65489Q658.10626 210.26427 658.10626 211.48302ZM668.45 214.57677L667.3719 214.57677L667.3719 208.23302L668.45 208.23302L668.45 214.57677ZM667.27814 206.56114Q667.27814 206.29552 667.4344 206.10802Q667.60626 205.92052 667.91876 205.92052Q668.23126 205.92052 668.3875 206.10802Q668.5594 206.29552 668.5594 206.56114Q668.5594 206.81114 668.3875 206.99864Q668.23126 207.17052 667.91876 207.17052Q667.60626 207.17052 667.4344 206.99864Q667.27814 206.81114 667.27814 206.56114ZM671.29376 208.23302L671.325 208.93614Q672.0125 208.12364 673.2 208.12364Q674.52814 208.12364 675.0125 209.13927Q675.325 208.68614 675.825 208.40489Q676.34064 208.12364 677.02814 208.12364Q679.1219 208.12364 679.15314 210.32677L679.15314 214.57677L678.075 214.57677L678.075 210.38927Q678.075 209.71739 677.7625 209.38927Q677.45 209.04552 676.71564 209.04552Q676.10626 209.04552 675.7 209.40489Q675.3094 209.76427 675.2469 210.37364L675.2469 214.57677L674.16876 214.57677L674.16876 210.42052Q674.16876 209.04552 672.8094 209.04552Q671.7469 209.04552 671.35626 209.95177L671.35626 214.57677L670.2625 214.57677L670.2625 208.23302L671.29376 208.23302ZM686.6219 211.48302Q686.6219 212.92052 685.96564 213.81114Q685.3094 214.70177 684.16876 214.70177Q683.0125 214.70177 682.35626 213.96739L682.35626 217.01427L681.27814 217.01427L681.27814 208.23302L682.2625 208.23302L682.3094 208.93614Q682.98126 208.12364 684.15314 208.12364Q685.29376 208.12364 685.95 208.98302Q686.6219 209.84239 686.6219 211.37364L686.6219 211.48302ZM685.54376 211.35802Q685.54376 210.27989 685.075 209.67052Q684.6219 209.04552 683.825 209.04552Q682.84064 209.04552 682.35626 209.90489L682.35626 212.93614Q682.84064 213.81114 683.84064 213.81114Q684.6219 213.81114 685.075 213.20177Q685.54376 212.57677 685.54376 211.35802ZM689.45 214.57677L688.3719 214.57677L688.3719 205.57677L689.45 205.57677L689.45 214.57677ZM693.90314 214.70177Q692.60626 214.70177 691.79376 213.85802Q690.9969 212.99864 690.9969 211.57677L690.9969 211.38927Q690.9969 210.43614 691.35626 209.70177Q691.71564 208.95177 692.35626 208.54552Q693.0125 208.12364 693.7625 208.12364Q694.9969 208.12364 695.6844 208.93614Q696.3719 209.74864 696.3719 211.26427L696.3719 211.71739L692.075 211.71739Q692.10626 212.65489 692.6219 213.23302Q693.15314 213.81114 693.96564 213.81114Q694.52814 213.81114 694.91876 213.57677Q695.325 213.34239 695.6375 212.95177L696.29376 213.46739Q695.4969 214.70177 693.90314 214.70177ZM693.7625 209.01427Q693.10626 209.01427 692.65314 209.49864Q692.21564 209.96739 692.1219 210.82677L695.29376 210.82677L695.29376 210.74864Q695.2469 209.92052 694.84064 209.46739Q694.45 209.01427 693.7625 209.01427ZM698.29376 208.23302L698.325 208.93614Q699.0125 208.12364 700.2 208.12364Q701.52814 208.12364 702.0125 209.13927Q702.325 208.68614 702.825 208.40489Q703.34064 208.12364 704.02814 208.12364Q706.1219 208.12364 706.15314 210.32677L706.15314 214.57677L705.075 214.57677L705.075 210.38927Q705.075 209.71739 704.7625 209.38927Q704.45 209.04552 703.71564 209.04552Q703.10626 209.04552 702.7 209.40489Q702.3094 209.76427 702.2469 210.37364L702.2469 214.57677L701.16876 214.57677L701.16876 210.42052Q701.16876 209.04552 699.8094 209.04552Q698.7469 209.04552 698.35626 209.95177L698.35626 214.57677L697.2625 214.57677L697.2625 208.23302L698.29376 208.23302ZM710.90314 214.70177Q709.60626 214.70177 708.79376 213.85802Q707.9969 212.99864 707.9969 211.57677L707.9969 211.38927Q707.9969 210.43614 708.35626 209.70177Q708.71564 208.95177 709.35626 208.54552Q710.0125 208.12364 710.7625 208.12364Q711.9969 208.12364 712.6844 208.93614Q713.3719 209.74864 713.3719 211.26427L713.3719 211.71739L709.075 211.71739Q709.10626 212.65489 709.6219 213.23302Q710.15314 213.81114 710.96564 213.81114Q711.52814 213.81114 711.91876 213.57677Q712.325 213.34239 712.6375 212.95177L713.29376 213.46739Q712.4969 214.70177 710.90314 214.70177ZM710.7625 209.01427Q710.10626 209.01427 709.65314 209.49864Q709.21564 209.96739 709.1219 210.82677L712.29376 210.82677L712.29376 210.74864Q712.2469 209.92052 711.84064 209.46739Q711.45 209.01427 710.7625 209.01427ZM715.29376 208.23302L715.325 209.02989Q716.0594 208.12364 717.23126 208.12364Q719.2469 208.12364 719.2625 210.38927L719.2625 214.57677L718.16876 214.57677L718.16876 210.37364Q718.16876 209.70177 717.85626 209.37364Q717.5594 209.04552 716.90314 209.04552Q716.3719 209.04552 715.96564 209.32677Q715.575 209.60802 715.35626 210.06114L715.35626 214.57677L714.27814 214.57677L714.27814 208.23302L715.29376 208.23302ZM722.7469 206.70177L722.7469 208.23302L723.91876 208.23302L723.91876 209.07677L722.7469 209.07677L722.7469 212.99864Q722.7469 213.38927 722.90314 213.57677Q723.0594 213.76427 723.4344 213.76427Q723.6219 213.76427 723.95 213.70177L723.95 214.57677Q723.52814 214.70177 723.1219 214.70177Q722.40314 214.70177 722.02814 214.26427Q721.65314 213.81114 721.65314 212.99864L721.65314 209.07677L720.4969 209.07677L720.4969 208.23302L721.65314 208.23302L721.65314 206.70177L722.7469 206.70177ZM729.1844 214.57677Q729.09064 214.38927 729.02814 213.90489Q728.27814 214.70177 727.23126 214.70177Q726.29376 214.70177 725.6844 214.17052Q725.09064 213.63927 725.09064 212.81114Q725.09064 211.82677 725.84064 211.27989Q726.59064 210.73302 727.96564 210.73302L729.0125 210.73302L729.0125 210.23302Q729.0125 209.67052 728.66876 209.34239Q728.34064 208.99864 727.66876 208.99864Q727.09064 208.99864 726.7 209.29552Q726.3094 209.57677 726.3094 209.99864L725.21564 209.99864Q725.21564 209.51427 725.54376 209.07677Q725.8875 208.63927 726.46564 208.38927Q727.04376 208.12364 727.73126 208.12364Q728.84064 208.12364 729.45 208.67052Q730.075 209.21739 730.10626 210.17052L730.10626 213.09239Q730.10626 213.96739 730.325 214.48302L730.325 214.57677L729.1844 214.57677ZM727.3875 213.74864Q727.90314 213.74864 728.35626 213.48302Q728.8094 213.21739 729.0125 212.79552L729.0125 211.49864L728.16876 211.49864Q726.16876 211.49864 726.16876 212.67052Q726.16876 213.17052 726.5125 213.46739Q726.85626 213.74864 727.3875 213.74864ZM733.7469 206.70177L733.7469 208.23302L734.91876 208.23302L734.91876 209.07677L733.7469 209.07677L733.7469 212.99864Q733.7469 213.38927 733.90314 213.57677Q734.0594 213.76427 734.4344 213.76427Q734.6219 213.76427 734.95 213.70177L734.95 214.57677Q734.52814 214.70177 734.1219 214.70177Q733.40314 214.70177 733.02814 214.26427Q732.65314 213.81114 732.65314 212.99864L732.65314 209.07677L731.4969 209.07677L731.4969 208.23302L732.65314 208.23302L732.65314 206.70177L733.7469 206.70177ZM737.45 214.57677L736.3719 214.57677L736.3719 208.23302L737.45 208.23302L737.45 214.57677ZM736.27814 206.56114Q736.27814 206.29552 736.4344 206.10802Q736.60626 205.92052 736.91876 205.92052Q737.23126 205.92052 737.3875 206.10802Q737.5594 206.29552 737.5594 206.56114Q737.5594 206.81114 737.3875 206.99864Q737.23126 207.17052 736.91876 207.17052Q736.60626 207.17052 736.4344 206.99864Q736.27814 206.81114 736.27814 206.56114ZM738.98126 211.34239Q738.98126 210.42052 739.34064 209.67052Q739.71564 208.92052 740.3719 208.52989Q741.02814 208.12364 741.85626 208.12364Q743.15314 208.12364 743.95 209.01427Q744.7625 209.90489 744.7625 211.40489L744.7625 211.48302Q744.7625 212.40489 744.40314 213.13927Q744.04376 213.87364 743.3875 214.29552Q742.73126 214.70177 741.8719 214.70177Q740.59064 214.70177 739.77814 213.81114Q738.98126 212.90489 738.98126 211.42052L738.98126 211.34239ZM740.075 211.48302Q740.075 212.52989 740.5594 213.17052Q741.0594 213.81114 741.8719 213.81114Q742.7 213.81114 743.1844 213.17052Q743.66876 212.51427 743.66876 211.34239Q743.66876 210.31114 743.16876 209.67052Q742.6844 209.01427 741.85626 209.01427Q741.0594 209.01427 740.5594 209.65489Q740.075 210.27989 740.075 211.48302ZM747.29376 208.23302L747.325 209.02989Q748.0594 208.12364 749.23126 208.12364Q751.2469 208.12364 751.2625 210.38927L751.2625 214.57677L750.16876 214.57677L750.16876 210.37364Q750.16876 209.70177 749.85626 209.37364Q749.5594 209.04552 748.90314 209.04552Q748.3719 209.04552 747.96564 209.32677Q747.575 209.60802 747.35626 210.06114L747.35626 214.57677L746.27814 214.57677L746.27814 208.23302L747.29376 208.23302ZM756.96564 212.88927Q756.96564 212.45177 756.6219 212.21739Q756.29376 211.96739 755.46564 211.79552Q754.65314 211.62364 754.16876 211.37364Q753.6844 211.12364 753.45 210.79552Q753.23126 210.45177 753.23126 209.98302Q753.23126 209.20177 753.8875 208.67052Q754.54376 208.12364 755.575 208.12364Q756.65314 208.12364 757.3094 208.68614Q757.98126 209.23302 757.98126 210.09239L756.90314 210.09239Q756.90314 209.65489 756.5125 209.34239Q756.1375 209.01427 755.575 209.01427Q754.98126 209.01427 754.6375 209.27989Q754.3094 209.52989 754.3094 209.93614Q754.3094 210.32677 754.6219 210.52989Q754.9344 210.73302 755.7469 210.92052Q756.5594 211.09239 757.0594 211.34239Q757.5594 211.59239 757.79376 211.95177Q758.04376 212.31114 758.04376 212.81114Q758.04376 213.67052 757.35626 214.18614Q756.6844 214.70177 755.60626 214.70177Q754.84064 214.70177 754.2469 214.43614Q753.66876 214.15489 753.34064 213.67052Q753.0125 213.18614 753.0125 212.62364L754.09064 212.62364Q754.1219 213.17052 754.52814 213.49864Q754.9344 213.81114 755.60626 213.81114Q756.21564 213.81114 756.59064 213.56114Q756.96564 213.31114 756.96564 212.88927Z" fill-rule="nonzero"/><path fill="#9e9e9e" d="M726.65314 228.29552L727.09064 224.04552L731.46564 224.04552L731.46564 225.04552L728.0125 225.04552L727.7469 227.37364Q728.3875 226.99864 729.1844 226.99864Q730.34064 226.99864 731.02814 227.77989Q731.71564 228.54552 731.71564 229.85802Q731.71564 231.17052 730.9969 231.93614Q730.29376 232.70177 729.0125 232.70177Q727.8875 232.70177 727.16876 232.07677Q726.45 231.43614 726.35626 230.32677L727.3719 230.32677Q727.48126 231.06114 727.90314 231.43614Q728.325 231.81114 729.0125 231.81114Q729.7625 231.81114 730.2 231.29552Q730.6375 230.77989 730.6375 229.87364Q730.6375 229.01427 730.16876 228.49864Q729.7 227.98302 728.91876 227.98302Q728.21564 227.98302 727.8094 228.27989L727.52814 228.51427L726.65314 228.29552ZM737.41876 224.04552L737.41876 224.95177L737.21564 224.95177Q735.95 224.98302 735.2 225.71739Q734.45 226.43614 734.325 227.74864Q735.0125 226.98302 736.16876 226.98302Q737.27814 226.98302 737.95 227.76427Q738.6219 228.54552 738.6219 229.79552Q738.6219 231.10802 737.90314 231.90489Q737.1844 232.70177 735.96564 232.70177Q734.7469 232.70177 733.98126 231.76427Q733.23126 230.81114 733.23126 229.32677L733.23126 228.92052Q733.23126 226.56114 734.23126 225.31114Q735.23126 224.06114 737.21564 224.04552L737.41876 224.04552ZM735.9969 227.88927Q735.4344 227.88927 734.96564 228.21739Q734.4969 228.54552 734.3094 229.06114L734.3094 229.45177Q734.3094 230.51427 734.77814 231.15489Q735.2625 231.79552 735.96564 231.79552Q736.7 231.79552 737.1219 231.26427Q737.54376 230.71739 737.54376 229.84239Q737.54376 228.96739 737.1219 228.43614Q736.7 227.88927 735.9969 227.88927ZM740.29376 232.01427Q740.29376 231.73302 740.45 231.54552Q740.6219 231.35802 740.95 231.35802Q741.29376 231.35802 741.46564 231.54552Q741.6375 231.73302 741.6375 232.01427Q741.6375 232.27989 741.46564 232.46739Q741.29376 232.63927 740.95 232.63927Q740.6219 232.63927 740.45 232.46739Q740.29376 232.27989 740.29376 232.01427ZM748.34064 226.26427Q748.34064 226.90489 747.9969 227.40489Q747.65314 227.90489 747.09064 228.18614Q747.7469 228.46739 748.1375 229.02989Q748.52814 229.57677 748.52814 230.27989Q748.52814 231.37364 747.77814 232.04552Q747.04376 232.70177 745.825 232.70177Q744.59064 232.70177 743.84064 232.04552Q743.10626 231.37364 743.10626 230.27989Q743.10626 229.57677 743.48126 229.02989Q743.85626 228.46739 744.52814 228.18614Q743.96564 227.90489 743.6375 227.40489Q743.3094 226.90489 743.3094 226.26427Q743.3094 225.18614 743.9969 224.56114Q744.6844 223.92052 745.825 223.92052Q746.95 223.92052 747.6375 224.56114Q748.34064 225.18614 748.34064 226.26427ZM747.45 230.24864Q747.45 229.52989 746.9969 229.09239Q746.54376 228.63927 745.8094 228.63927Q745.075 228.63927 744.6219 229.09239Q744.1844 229.52989 744.1844 230.26427Q744.1844 230.98302 744.6219 231.40489Q745.0594 231.81114 745.825 231.81114Q746.575 231.81114 747.0125 231.38927Q747.45 230.96739 747.45 230.24864ZM745.825 224.81114Q745.1844 224.81114 744.77814 225.21739Q744.3875 225.60802 744.3875 226.29552Q744.3875 226.93614 744.77814 227.34239Q745.16876 227.74864 745.8094 227.74864Q746.46564 227.74864 746.85626 227.34239Q747.2469 226.93614 747.2469 226.29552Q747.2469 225.63927 746.84064 225.23302Q746.4344 224.81114 745.825 224.81114ZM750.0594 225.68614Q750.0594 224.92052 750.54376 224.42052Q751.04376 223.92052 751.8094 223.92052Q752.59064 223.92052 753.075 224.42052Q753.5594 224.92052 753.5594 225.71739L753.5594 226.13927Q753.5594 226.90489 753.0594 227.40489Q752.575 227.88927 751.825 227.88927Q751.0594 227.88927 750.5594 227.40489Q750.0594 226.90489 750.0594 226.09239L750.0594 225.68614ZM750.8719 226.13927Q750.8719 226.59239 751.1219 226.88927Q751.3875 227.18614 751.825 227.18614Q752.2469 227.18614 752.4969 226.90489Q752.7469 226.60802 752.7469 226.10802L752.7469 225.68614Q752.7469 225.23302 752.4969 224.93614Q752.2469 224.62364 751.8094 224.62364Q751.3719 224.62364 751.1219 224.93614Q750.8719 225.23302 750.8719 225.70177L750.8719 226.13927ZM754.21564 230.48302Q754.21564 229.71739 754.7 229.23302Q755.2 228.73302 755.96564 228.73302Q756.73126 228.73302 757.21564 229.23302Q757.71564 229.71739 757.71564 230.52989L757.71564 230.93614Q757.71564 231.70177 757.23126 232.20177Q756.7469 232.70177 755.98126 232.70177Q755.21564 232.70177 754.71564 232.21739Q754.21564 231.71739 754.21564 230.90489L754.21564 230.48302ZM755.02814 230.93614Q755.02814 231.40489 755.27814 231.70177Q755.54376 231.99864 755.98126 231.99864Q756.40314 231.99864 756.65314 231.71739Q756.90314 231.42052 756.90314 230.92052L756.90314 230.48302Q756.90314 230.01427 756.6375 229.73302Q756.3875 229.43614 755.96564 229.43614Q755.54376 229.43614 755.27814 229.73302Q755.02814 230.01427 755.02814 230.51427L755.02814 230.93614ZM752.075 231.93614L751.45 231.54552L755.6219 224.87364L756.23126 225.26427L752.075 231.93614Z" fill-rule="nonzero"/><path stroke="#757575" stroke-width="1.0" stroke-linecap="butt" d="M758.45 219.07677L561.45 219.07677L543.50757 219.07677" fill-rule="nonzero"/><path fill="#9e9e9e" d="M545.50757 219.07677C545.50757 217.9722 544.6122 217.07677 543.50757 217.07677C542.403 217.07677 541.50757 217.9722 541.50757 219.07677C541.50757 220.18134 542.403 221.07677 543.50757 221.07677C544.6122 221.07677 545.50757 220.18134 545.50757 219.07677" fill-rule="nonzero"/></svg>
